<svg xmlns="http://www.w3.org/2000/svg" viewBox="0 0 512 512"><path d="M511 381l-128-77v38h-43c6-10 12-20 16-32 7-18 10-36 8-56 0-23-5-44-14-62-9-17-20-32-35-46-16-16-35-26-55-33-18-6-36-8-56-7-3-4-7-9-9-14-2-6-3-12-3-18 0-7 2-14 5-20 2-6 5-10 10-15s11-9 18-11c5-2 11-3 18-3 14 1 25 5 35 15 5 6 9 11 11 17l-29 11 64 29 29-62-29 10c-4-11-11-21-19-30-17-17-38-26-62-26-11 0-21 1-31 4-11 4-22 11-31 20-8 7-14 16-18 25-5 11-8 22-7 35-1 11 1 21 5 31 1 3 2 6 4 8-27 8-51 22-71 43-16 17-27 35-34 55L8 192l54 111 113-55-52-18c4-11 10-21 19-30 18-18 38-28 63-29 12-1 23 1 33 4 12 4 22 11 31 19 10 9 16 17 21 27s8 23 8 35c1 12-1 23-4 33-5 11-12 22-20 32-10 10-20 17-32 22H1v77h382v39z"/></svg>