<svg xmlns="http://www.w3.org/2000/svg" viewBox="0 0 512 512"><path d="M64-32c33 0 0 0 0 0v512h1c-33 0-65-32-65-67V32C0-6 31-32 64-32zm448 224h-64V96h32c32 0 32 35 32 35zm0 160h-64v96h32c32 0 32-31 32-31zm0-32h-64v-96h64zM351-32H96v512h256c33 0 64-26 64-64V35c0-35-32-67-65-67zm1 320H160s-2-20 4-28c5-9 25-15 44-23s24-11 24-11v-18s-7-6-10-23c-4 1-9-7-9-11s1-15 6-14c-1-9-2-16-1-21 1-14 16-30 38-30s37 16 38 30c1 5 0 12-1 21 5-1 6 10 6 14s-5 12-10 11c-2 17-9 23-9 23v18s5 3 24 11 38 14 44 23c5 8 4 28 4 28z"/></svg>