<svg xmlns="http://www.w3.org/2000/svg" viewBox="0 0 512 512"><path d="M0 64h32v384H0zm128 0h32v384h-32zM32 416h96v32H32zm0-64h96v32H32zm0-64h96v32H32zm0-64h96v32H32zm0-64h96v32H32zm0-96h96v64H32zm32 0h32v384H64zm128 32h32v352h-32zm32 320h96v32h-96zm0-64h96v32h-96zm0-64h96v32h-96zm0-64h96v32h-96zm0-64h96v32h-96zm0-64h96v32h-96zm64 0h32v352h-32zm64-96h32v448h-32zm128 0h32v448h-32zm-96 416h96v32h-96zm0-64h96v32h-96zm0-64h96v32h-96zm0-64h96v32h-96zm0-64h96v32h-96zm0-160h96v64h-96zm32 64h32v384h-32zm-32 32h96v32h-96z"/></svg>