<?xml version="1.0" encoding="utf-8"?>
<!-- Generator: Adobe Illustrator 19.0.0, SVG Export Plug-In . SVG Version: 6.00 Build 0)  -->
<svg version="1.1" id="Ebene_1" xmlns="http://www.w3.org/2000/svg" xmlns:xlink="http://www.w3.org/1999/xlink" x="0px" y="0px"
	 viewBox="-41 164.9 512 512" style="enable-background:new -41 164.9 512 512;" xml:space="preserve">
<style type="text/css">
	.st0{stroke:#FFFFFF;stroke-miterlimit:10;}
	.st1{fill:#FFFFFF;}
</style>
<path d="M101,566.9l31-48l-29-45h17c1,0,2,0,2,1c1,0,1,0,2,1l21,34v-2c1,0,1-1,1-1l20-31c1-1,2-2,3-2h17l-30,44l31,49h-18
	c-1,0-2-1-2-1l-2-2l-22-36v2l-1,1l-20,33c-1,0-1,1-2,2c-1,0-2,1-3,1H101z M197,566.9v-93h17v78h37v15H197z M256,554.9l5-8
	c0,0,1-1,2-1c0-1,1-1,2-1s2,0,3,1s3,2,5,3c1,1,3,2,6,3c2,1,5,1,8,1c5,0,8-1,11-3s4-6,4-10c0-2,0-4-2-6c-1-2-3-3-4-4c-3-1-5-2-7-3
	c-3,0-6-1-8-2c-3-1-5-2-8-3s-5-3-7-5s-3-4-5-7c-1-3-2-6-2-10s1-7,2-10c2-4,4-6,6-9c3-2,6-4,10-6c4-1,8-2,13-2s10,1,15,3
	c5,1,9,4,12,7l-4,8l-2,2h-2c-1,0-2,0-3-1c-1,0-3-1-4-2s-3-1-5-2s-4-1-7-1c-2,0-4,0-6,1s-3,1-5,2c-1,1-2,3-2,4c-1,1-1,3-1,5s0,4,2,5
	c1,2,2,3,4,4s5,2,7,3c3,0,5,1,8,2s5,2,8,3c2,2,5,3,7,5s3,4,5,7c1,2,2,6,2,10s-1,8-3,11c-1,4-3,7-6,10s-6,5-10,6c-4,2-9,3-14,3
	c-3,0-6-1-8-1l-9-3c-2-1-5-2-7-4C260,558.9,258,556.9,256,554.9z M406,250.9l-118-118H13v512h394v-394H406z M59,598.9v-420h210
	l92,92v328H59z"/>
<g>
	<rect x="105.2" y="273.4" class="st0" width="153.2" height="102.4"/>
	<rect x="114.4" y="282.7" class="st1" width="134.7" height="24.9"/>
</g>
<g>
	<g>
		<polyline points="254.1,312.5 298.5,312.1 298.5,333.5 254,333.5 		"/>
	</g>
	<g>
		<g>
			<path d="M326.8,324.7c-16,11.2-35.7,30.3-48,50.6V274.1C291.1,294.3,310.8,313.5,326.8,324.7z"/>
		</g>
	</g>
</g>
</svg>
