<svg xmlns="http://www.w3.org/2000/svg" viewBox="0 0 512 512"><path d="M134 295v-83C64 202 11 151 11 91 11 23 77-32 158-32h98c82 0 148 55 148 123 0 65-62 119-139 122zM158 9c-54 0-98 37-98 82s44 82 98 82h25v40l65-40h8c55 0 99-37 99-82S311 9 256 9zm160 412c-55-3-100-41-100-88 0-49 48-89 106-89h71c59 0 106 40 106 89 0 43-38 80-88 87v60zm6-147c-39 0-70 26-70 59 0 32 31 58 70 58h6l48 30v-30h17c39 0 71-26 71-58 0-33-32-59-71-59zM174 34c12-7 25-10 39-10 12 0 21 3 28 8 8 6 11 14 11 24 0 5-1 9-2 12-1 4-3 7-6 10s-8 7-15 13c-5 4-9 8-11 10-2 3-3 7-3 12v4h-17v-6c0-6 1-12 3-16 3-4 7-9 13-14 7-5 12-10 14-13s3-7 3-11c0-5-2-9-5-12-4-2-8-4-15-4-5 0-11 1-15 3-5 1-10 3-15 6zm20 112c0-9 5-14 13-14 5 0 8 1 10 4 2 2 4 5 4 10 0 4-2 7-4 10-2 2-5 4-10 4-4 0-7-2-9-4-3-2-4-6-4-10zm154 218c0-3 1-5 3-7 1-1 4-2 7-2s5 1 7 2c1 2 2 4 2 7s-1 5-2 7c-2 1-4 2-7 2s-6-1-7-2c-2-2-3-4-3-7zm0-71h19l-3 53h-13z"/></svg>