<svg xmlns="http://www.w3.org/2000/svg" viewBox="0 0 512 512"><path d="M506 319c-10-15-10-24-41-37-32-13-39-18-39-18l-1-30s12-9 16-37c7 2 15-11 15-18 1-7-1-26-10-24 2-14 4-26 3-33-2-24-26-50-63-50s-61 26-63 50c-1 7 0 19 2 33-9-2-10 17-10 24 1 7 8 20 16 18 3 28 15 37 15 37l-26 21c15 8 53 3 61 16 5 7 17 27 14 144h117s2-83-6-96zm-161-11c-11-16-46-26-81-41s-44-20-44-20v-33s13-10 17-42c8 2 17-12 18-20 0-8-2-28-12-26 2-16 4-30 3-37-2-27-29-56-70-56s-68 29-70 56c-1 7 1 21 3 37-10-2-12 18-12 26 1 8 9 22 18 20 4 31 17 42 17 42v33s-9 5-44 20-70 25-81 41c-9 15-7 107-7 107h352s2-92-7-107z"/></svg>