<svg xmlns="http://www.w3.org/2000/svg" viewBox="0 0 512 512"><path d="M0 379V73h41v136h165V73h41v306h-41V239H41v140zm308 0v-13c0-3 0-6 2-8 1-3 2-6 5-8l98-99c8-8 15-16 22-24 7-7 12-15 17-23 5-7 9-15 11-23 3-8 4-16 4-25s-2-17-5-24c-2-7-6-12-11-17-5-4-11-7-18-10-6-2-14-3-21-3-8 0-15 1-22 4-6 2-12 5-17 9s-9 9-13 14c-3 6-6 12-7 19-1 4-3 7-5 9-2 1-5 2-9 2h-5l-20-3c2-14 6-27 11-37 6-11 13-20 22-27 9-8 19-13 30-17 12-4 24-6 37-6s25 2 36 6 21 10 29 17c9 7 15 16 20 27 5 10 7 22 7 36 0 11-2 22-5 31-3 10-8 19-14 28s-13 18-20 26c-8 8-16 17-24 25l-81 83c6-1 12-3 17-4 6-1 12-1 17-1h103c4 0 7 1 9 3 3 3 4 6 4 10v23z"/></svg>