<svg xmlns="http://www.w3.org/2000/svg" viewBox="0 0 512 512"><path d="M150 442c-3 0-3-4-6-4-10 7-26 10-38 10-45 0-84-38-84-83 0-16 4-32 13-45l-3-3c0-3 0-3-3-7 0-3 0-3-3-6-13 16-23 38-23 61 0 54 45 99 99 99 23 0 42-6 58-19-3 0-6-3-10-3zm324-112s-4 3 0 0c3 12 6 25 6 35 0 45-38 83-83 83-13 0-26-3-35-10-4 4-10 4-13 7-3 0-3 0-7 3 16 10 32 16 55 16 54 0 99-45 99-99 0-19-6-35-16-51-3 6-6 12-6 16zM32 131c3-3 3-3 3-6-3-13-6-23-6-35 0-45 38-84 83-84 10 0 22 4 32 7 3 0 6-3 6-3 4 0 7-4 10-4-16-12-32-16-48-16-54 0-99 45-99 100 0 19 6 38 16 54 0-3 0-3 3-6v-7zM362 6c3 0 6 4 6 4 10-4 19-7 32-7 45 0 83 39 83 83 0 13-3 26-9 36 3 6 3 6 6 9 0 3 0 3 3 7 0 3 0 3 3 6 10-16 16-35 16-54 0-55-44-100-99-100-19 0-35 7-48 13 0 0 3 3 7 3zm131 263c3-13 3-29 3-45s-3-32-3-45c6 29 6 61 0 90zm-7 25c-3 7-3 10-6 16 3-6 6-12 6-16zM323-10c-22-3-45-6-67-6s-45 3-67 10c45-13 89-13 134-4zm167 170c3 6 3 13 3 19 0-6-3-13-3-19zM211 461c13 3 29 3 45 3s32-3 45-3c-29 6-61 6-90 0zM22 157c-3 22-6 45-6 67s3 45 10 67c-13-45-13-89-4-134zM326-6c7 3 13 3 16 6-6-3-12-6-16-6zm167 275c0 6-3 13-3 19 0-6 3-13 3-19zM211 461c-6 0-13-3-19-3 6 0 13 3 19 3zm109-3c-6 3-13 3-19 3 6 0 13-3 19-3zM170 0c6-3 9-3 16-6-4 0-10 3-16 6zm172 448c-6 3-9 3-16 6 4 0 10-3 16-6zm-156 6c-7-3-10-3-16-6 6 3 12 6 16 6zM26 294c0 4 3 7 3 10s0 3 3 6c-3-6-6-12-6-16zm124 148c4 3 7 3 13 6h3c-6-3-12-3-16-6zm330-125c-3 3-3 9-6 13 0-4 3-10 6-13zM32 138c0 3 0 3-3 6 0 3-3 6-3 10 0-4 3-10 6-16zM163 0l-3 3c-3 0-6 3-10 3 4 0 10-3 13-6zm199 6c-4 0-7-3-10-3s-3 0-6-3c6 3 12 6 16 6zm124 148c0-4-3-7-3-10s0-3-3-6c3 6 6 12 6 16zm0 140v-3c4-6 4-13 4-19 6-29 6-61 0-93 0-6-4-13-4-19v-3c-3-7-3-10-6-16 0-3 0-3-3-7-13-28-29-54-51-80-16-16-36-32-58-41-3 0-6-3-6-3-4-4-10-7-13-10-3 0-3 0-7-3-6-3-12-3-16-7h-3c-45-12-89-12-131 0h-3c-7 4-13 7-19 10h-7c-3 3-9 6-13 6-3 0-6 4-6 4-22 12-42 25-58 44-25 23-41 48-54 77v7c-3 6-6 12-6 16v3c-13 45-13 89 0 131v3c3 7 3 13 6 16 0 3 0 3 3 7 13 28 29 54 51 80 20 19 39 32 61 44 3 0 3 4 7 4 0 3 6 3 9 6 3 0 3 0 7 3 6 3 9 3 16 7h3c6 3 13 3 19 3 29 6 61 6 93 0 6 0 13-3 19-3h3c7-4 10-4 16-7 3 0 3 0 7-3 28-13 54-29 80-51 19-19 32-39 44-61v-3c4-3 4-10 7-13 0-3 0-3 3-6 3-10 6-16 6-20zm-80 80c-19 20-44 36-70 48l-22-54c38-16 67-45 83-83l54 22c-9 23-25 45-45 67zm-9-208c-7-19-19-35-32-51-16-16-32-25-51-32l22-54c26 9 51 25 70 48 20 19 36 45 48 70zM176 29l22 54c-35 16-67 48-83 83l-54-22c19-51 64-96 115-115zm-61 253c7 19 19 35 32 51 16 16 32 25 51 32l-22 54c-26-9-51-25-70-48-20-19-36-45-48-70zm55 28c-48-48-48-124 0-169 48-48 124-48 169 0 48 48 48 125 0 169-45 45-121 45-169 0z"/></svg>