<svg xmlns="http://www.w3.org/2000/svg" viewBox="0 0 512 512"><path d="M0 414V34h100v38H50v304h50v38zm122-96c0-10 3-18 8-23 6-6 13-9 24-9 10 0 18 3 23 9 6 6 8 14 8 23 0 11-2 19-8 24-5 6-13 9-23 9-11 0-18-3-24-8-5-6-8-14-8-25zm103 0c0-10 2-18 8-23 5-6 13-9 23-9s18 3 24 9c5 6 8 14 8 23 0 11-3 19-8 24-6 6-14 9-24 9s-18-3-23-8c-6-6-8-14-8-25zm102 0c0-10 3-18 8-23 6-6 13-9 23-9 11 0 19 3 24 9 6 6 8 14 8 23 0 11-3 19-8 24-5 6-13 9-24 9-10 0-17-3-23-8-5-6-8-14-8-25zm85 58h50V72h-50V34h100v380H412z"/></svg>