<svg xmlns="http://www.w3.org/2000/svg" viewBox="0 0 512 512"><path d="M160 32h352v64H160zm0 160h352v64H160zm0 160h352v64H160zM20 38l28-24h13v81h17v12H27V95h18V41c0-2 1-4 1-6L32 46s-1 0-1 1h-2c-1 0-2 0-2-1-1 0-2 0-2-1zm-2 229v-5-4c1-1 1-2 2-3l28-28c3-2 5-5 7-7 1-2 3-4 4-6 2-2 2-4 3-7 1-2 1-4 1-7 0-2 0-4-1-6 0-1-1-3-3-4-1-1-2-2-4-2-1-1-3-1-5-1-4 0-7 1-10 3-2 2-4 4-5 7 0 2-1 3-2 4s-2 1-4 1h-2l-8-2c1-4 2-8 4-11 2-4 4-7 7-9 2-2 5-4 9-5s7-2 11-2c5 0 9 1 12 2 4 2 7 3 9 6 3 2 5 5 6 8 2 3 2 7 2 11 0 3 0 6-1 9s-2 6-4 9c-2 2-4 5-6 7-2 3-5 5-7 8l-21 21c2 0 4-1 6-1s4-1 6-1h23c2 0 3 1 4 2s2 2 2 4v9zm2 138l7-3c1 0 3-1 4-1s2 1 3 1 1 1 2 2c1 2 1 3 2 5 1 1 2 2 4 3 1 2 2 2 4 3s4 1 6 1c3 0 5 0 7-1s4-2 5-4c2-1 3-3 3-4 1-2 1-4 1-5v-6c-1-2-2-4-3-5-2-1-4-2-7-3-2-1-6-1-11-1v-12c4 0 7 0 10-1 2 0 4-1 6-2 1-2 3-3 3-5 1-2 1-3 1-5 0-5-1-8-4-10-2-3-5-4-9-4s-7 1-10 3c-2 2-4 5-5 8 0 1-1 3-2 3-1 1-2 1-4 1h-2l-8-1c1-5 2-9 4-12s4-6 7-8c2-3 6-4 9-5 4-2 7-2 12-2 4 0 8 1 11 2s6 3 9 5c2 2 4 4 5 7 2 3 2 6 2 10 0 3 0 5-1 8 0 2-1 4-3 5-1 2-2 3-4 5l-6 3c5 1 9 4 12 8 3 3 4 8 4 13s-1 9-2 12c-2 4-4 7-7 9-3 3-6 4-10 6-4 1-8 1-12 1-5 0-9 0-13-1-3-1-6-3-9-5-2-2-4-4-6-8-2-3-3-6-5-10z"/></svg>