<svg xmlns="http://www.w3.org/2000/svg" viewBox="0 0 512 512"><path d="M256 80c-44 0-80 36-80 80s36 80 80 80 80-36 80-80-36-80-80-80zm160 80c0-11-1-21-3-31l26-28-38-8c-9-19-21-36-37-50l5-38-35 16c-18-10-38-17-59-19l-19-34-19 34c-21 2-41 9-59 19L143 5l5 38c-16 14-28 31-37 50l-38 8 26 28c-2 10-3 20-3 31s1 21 3 31l-26 28 38 8c9 19 21 36 37 50l5 5-25 198 128-128 128 128-25-198 5-5c16-14 28-31 37-50l38-8-26-28c2-10 3-20 3-31zM256 272c-62 0-112-50-112-112S194 48 256 48s112 50 112 112-50 112-112 112z"/></svg>