<svg xmlns="http://www.w3.org/2000/svg" viewBox="0 0 512 512"><path d="M332 269h-49c-3-9-7-18-12-26l33-32c7-8 7-20 0-28l-14-13c-8-8-20-8-28 0l-32 32c-9-5-19-9-29-11v-43c0-11-9-19-20-19h-19c-11 0-19 8-19 19v43c-12 3-22 7-32 13l-27-28c-8-7-20-7-28 0l-13 14c-8 8-8 20 0 28l28 28c-6 10-11 21-13 33H21c-10 0-19 9-19 20v19c0 11 9 19 19 19h39c4 12 9 23 16 33l-26 26c-8 8-8 20 0 28l13 13c8 8 20 8 28 0l29-29c10 5 21 8 32 10v41c0 10 9 19 20 19h19c11 0 20-9 20-19v-46c9-3 19-8 27-14l31 31c8 8 20 8 28 0l13-13c8-8 8-20 0-28l-34-34c4-9 8-18 10-27h46c11 0 19-9 19-20v-19c0-11-8-20-19-20zm-160 83c-27 0-49-22-49-49 0-26 22-48 49-48s48 22 48 48c0 27-21 49-48 49zM498 59h-31c-2-6-5-11-8-16l21-21c5-5 5-13 0-17l-9-9c-5-5-13-5-17 0l-21 21c-6-3-12-6-19-8v-27c0-7-5-12-12-12h-12c-7 0-13 5-13 12V9c-7 2-13 5-20 9L340 0c-5-5-13-5-18 0l-8 9c-5 5-5 13 0 17l18 18c-4 7-7 14-9 22h-23c-7 0-12 5-12 12v12c0 7 5 13 12 13h25c2 7 6 14 10 20l-17 17c-5 5-5 13 0 17l9 9c5 5 13 5 17 0l19-19c6 4 13 6 21 7v26c0 7 5 12 12 12h12c7 0 13-5 13-12v-29c6-2 12-5 17-9l20 20c5 5 13 5 17 0l9-9c5-5 5-13 0-17l-22-22c3-6 5-11 6-18h30c7 0 12-5 12-12V72c0-7-5-13-12-13zm-102 53c-17 0-31-14-31-31s14-31 31-31 31 14 31 31-14 31-31 31z"/></svg>