<svg xmlns="http://www.w3.org/2000/svg" viewBox="0 0 512 512"><path d="M457 480H55c-30 0-55-25-55-55V23C0-7 25-32 55-32h402c30 0 55 25 55 55v402c0 30-25 55-55 55zM55 0C42 0 32 10 32 23v402c0 13 10 23 23 23h402c13 0 23-10 23-23V23c0-13-10-23-23-23zm63 395c-4 1-12 4-22 4-23 0-38-16-38-39s16-41 41-41c8 0 15 3 19 4l-3 11c-3-2-9-3-16-3-18 0-27 12-27 28 0 18 11 29 26 29 8 0 13-2 17-4zm35-96v22h20v11h-20v41c0 9 2 15 10 15 4 0 6-1 8-1l1 10c-3 1-7 2-12 2-7 0-12-2-15-6-4-4-6-11-6-20v-41h-12v-11h12v-18zm35 46v-24h12v15h1c3-10 12-17 21-17 2 0 3 1 4 1v13c-1 0-3-1-5-1-10 0-17 8-18 18-1 2-1 4-1 7v40h-14zm52-60h14v112h-14zm78 29v37h36v9h-36v37h-10v-37h-36v-9h36v-37z"/></svg>