<?xml version="1.0" encoding="utf-8"?>
<!-- Generator: Adobe Illustrator 15.0.0, SVG Export Plug-In . SVG Version: 6.00 Build 0)  -->
<!DOCTYPE svg PUBLIC "-//W3C//DTD SVG 1.1//EN" "http://www.w3.org/Graphics/SVG/1.1/DTD/svg11.dtd">
<svg version="1.1" id="Capa_1" xmlns="http://www.w3.org/2000/svg" xmlns:xlink="http://www.w3.org/1999/xlink" x="0px" y="0px"
	 width="595.279px" height="841.891px" viewBox="0 0 595.279 841.891" enable-background="new 0 0 595.279 841.891"
	 xml:space="preserve">
<path d="M109.29,356.632c40.693,0,74.41,32.554,74.41,74.41c0,40.692-33.717,74.409-74.41,74.409
	c-40.693,0-74.41-33.717-74.41-74.409C34.88,389.186,68.597,356.632,109.29,356.632z M302.291,356.632
	c41.855,0,74.41,32.554,74.41,74.41c0,40.692-32.555,74.409-74.41,74.409c-40.693,0-74.41-33.717-74.41-74.409
	C227.882,389.186,261.598,356.632,302.291,356.632z M499.943,356.632c40.693,0,74.41,32.554,74.41,74.41
	c0,40.692-33.717,74.409-74.41,74.409c-40.692,0-74.409-33.717-74.409-74.409C425.533,389.186,459.25,356.632,499.943,356.632z"/>
</svg>
