<svg width="512" height="512" xmlns="http://www.w3.org/2000/svg">
 <!-- Created with Method Draw - http://github.com/duopixel/Method-Draw/ -->

 <g>
  <title>background</title>
  <rect fill="none" id="canvas_background" height="514" width="514" y="-1" x="-1"/>
  <g display="none" overflow="visible" y="0" x="0" height="100%" width="100%" id="canvasGrid">
   <rect fill="url(#gridpattern)" stroke-width="0" y="0" x="0" height="100%" width="100%"/>
  </g>
 </g>
 <g>
  <title>Layer 1</title>
  <g stroke="null" id="svg_18">
   <g stroke="null" transform="matrix(4.160802519672788,0,0,4.168946510272429,-3920.139015389953,-3047.552095797581) " id="svg_5">
    <g stroke="null" id="svg_6">
     <path stroke="null" id="svg_7" d="m967.959347,808.612434c0,7.1 -5.8,12.9 -12.9,12.9s-12.9,-5.8 -12.9,-12.9c0,-7.1 5.8,-12.9 12.9,-12.9l12.9,0l0,12.9z"/>
     <path stroke="null" id="svg_8" d="m974.459347,808.612434c0,-7.1 5.8,-12.9 12.9,-12.9s12.9,5.8 12.9,12.9l0,32.3c0,7.1 -5.8,12.9 -12.9,12.9s-12.9,-5.8 -12.9,-12.9c0,0 0,-32.3 0,-32.3z"/>
    </g>
    <g stroke="null" id="svg_9">
     <path stroke="null" id="svg_10" d="m987.359347,756.812434c-7.1,0 -12.9,-5.8 -12.9,-12.9s5.8,-12.9 12.9,-12.9s12.9,5.8 12.9,12.9l0,12.9l-12.9,0z"/>
     <path stroke="null" id="svg_11" d="m987.359347,763.312434c7.1,0 12.9,5.8 12.9,12.9s-5.8,12.9 -12.9,12.9l-32.3,0c-7.1,0 -12.9,-5.8 -12.9,-12.9s5.8,-12.9 12.9,-12.9c0,0 32.3,0 32.3,0z"/>
    </g>
    <g stroke="null" id="svg_12">
     <path stroke="null" id="svg_13" d="m1039.159347,776.212434c0,-7.1 5.8,-12.9 12.9,-12.9c7.1,0 12.9,5.8 12.9,12.9s-5.8,12.9 -12.9,12.9l-12.9,0l0,-12.9z"/>
     <path stroke="null" id="svg_14" d="m1032.659347,776.212434c0,7.1 -5.8,12.9 -12.9,12.9c-7.1,0 -12.9,-5.8 -12.9,-12.9l0,-32.3c0,-7.1 5.8,-12.9 12.9,-12.9c7.1,0 12.9,5.8 12.9,12.9l0,32.3z"/>
    </g>
    <g stroke="null" id="svg_15">
     <path stroke="null" id="svg_16" d="m1019.759347,828.012434c7.1,0 12.9,5.8 12.9,12.9c0,7.1 -5.8,12.9 -12.9,12.9c-7.1,0 -12.9,-5.8 -12.9,-12.9l0,-12.9l12.9,0z"/>
     <path stroke="null" id="svg_17" d="m1019.759347,821.512434c-7.1,0 -12.9,-5.8 -12.9,-12.9c0,-7.1 5.8,-12.9 12.9,-12.9l32.3,0c7.1,0 12.9,5.8 12.9,12.9c0,7.1 -5.8,12.9 -12.9,12.9l-32.3,0z"/>
    </g>
   </g>
  </g>
 </g>
</svg>