<svg xmlns="http://www.w3.org/2000/svg" viewBox="0 0 512 512"><path d="M137 479v-30c29-1 46-3 52-6 5-2 9-7 11-14 3-11 4-42 4-94V116c0-59 0-93-1-100h-52c-26 0-50 1-70 3-8 0-12 1-13 3-2 1-4 5-5 12-3 17-5 36-5 58H28c-1-50-2-78-2-85-1-10-2-22-4-34l3-4c12 1 24 2 37 3 21 0 61 1 120 1h148c61 0 102-1 122-1 12-1 23-2 34-3l4 4c-2 15-4 28-4 39 0 2-1 28-2 80h-30c0-19-2-37-5-55-1-8-3-14-4-15-2-2-6-2-12-3-20-2-44-3-72-3h-52c-1 9-1 42-1 100v218c0 53 1 85 4 95 2 7 5 11 11 14 5 3 23 5 52 6v30c-47-2-87-3-119-3-34 0-74 1-119 3z"/></svg>