<svg xmlns="http://www.w3.org/2000/svg" viewBox="0 0 512 512"><path d="M507 174c-11-62-74-92-132-87-19-108-193-109-208 1-43-1-75 27-85 69-45 6-78 39-80 86-3 50 44 84 89 87 15 1 15-22 0-23-86-4-86-124 0-129h1c5 0 9-2 10-8 1-5 2-10 3-14 9-28 29-45 58-46h14c7 1 10-4 10-10 1 0 1-1 1-2 4-95 160-95 167 0v3c1 1 1 2 2 3 0 1 1 1 1 2 1 0 1 0 1 1 2 2 5 3 9 3h1c123-23 164 150 44 185v1c-14 4-8 25 6 21 64-19 100-76 88-143zm-234-1c-5-7-14-7-19 0-20 28-41 56-61 84-3 5-2 10 1 13 2 2 5 4 9 4h40v142c0 14 9 25 21 25 11 0 20-11 20-25V274h40c8 0 15-10 10-17-20-28-40-56-61-84z"/></svg>