<svg width="132" height="124" viewBox="0 0 132 124" fill="none" xmlns="http://www.w3.org/2000/svg">
<path d="M114.826 107.919H17.0488C17.0488 107.919 17.0488 94.9595 24.6955 94.9595C24.6955 64.6791 17.0488 14.5857 65.9376 14.5857C117.334 14.5857 105.425 77.6386 105.425 94.9595C111.843 94.9595 114.367 103.599 114.826 107.919Z" stroke="#878787" stroke-width="3"/>
<path d="M66.0615 2C57.6376 2 56.6181 10.7227 57.1613 15.0841C58.4566 14.7934 62.0502 14.2118 66.0615 14.2118C70.0729 14.2118 73.165 14.7934 74.2096 15.0841C75.0036 10.7227 74.4855 2 66.0615 2Z" fill="#878787" stroke="#878787" stroke-width="3"/>
<path d="M24.6338 95L54.1538 94.6826" stroke="#878787" stroke-width="3"/>
<path d="M65.9323 122C54.6001 122 53.9399 112.696 55.0263 108.044H77.2143C78.1754 112.696 76.4622 122 65.9323 122Z" fill="#BFEEB6" stroke="#878787" stroke-width="3"/>
<path d="M115.328 77.8879L119.402 81.9377L123.476 85.9875M120.092 67.5452H132M115.328 57.7009L123.476 49.6013" stroke="#878787" stroke-width="3"/>
<path d="M16.6719 77.8879L12.5978 81.9377L8.52374 85.9875M11.9083 67.5452H-0.000469521M16.6719 57.7009L8.52374 49.6013" stroke="#878787" stroke-width="3"/>
<path d="M118.591 32.0312C118.591 42.3432 110.179 50.7181 99.7833 50.7181C89.3876 50.7181 80.9756 42.3432 80.9756 32.0312C80.9756 21.7191 89.3876 13.3442 99.7833 13.3442C110.179 13.3442 118.591 21.7191 118.591 32.0312Z" fill="#D1E5F5" stroke="#878787" stroke-width="3"/>
<path d="M101.549 21.3146V29.8093C101.549 30.7103 101.505 31.5964 101.416 32.4676C101.327 33.329 101.213 34.2448 101.074 35.215H98.5803C98.4418 34.2448 98.328 33.329 98.2389 32.4676C98.1498 31.5964 98.1053 30.7103 98.1053 29.8093V21.3146H101.549ZM97.5264 40.7693C97.5264 40.4623 97.5808 40.1703 97.6897 39.8931C97.8084 39.6158 97.9668 39.3782 98.1647 39.1802C98.3725 38.9822 98.615 38.8238 98.8921 38.705C99.1692 38.5862 99.4661 38.5268 99.7828 38.5268C100.09 38.5268 100.382 38.5862 100.659 38.705C100.936 38.8238 101.173 38.9822 101.371 39.1802C101.579 39.3782 101.742 39.6158 101.861 39.8931C101.98 40.1703 102.039 40.4623 102.039 40.7693C102.039 41.0861 101.98 41.3831 101.861 41.6603C101.742 41.9276 101.579 42.1603 101.371 42.3583C101.173 42.5563 100.936 42.7098 100.659 42.8187C100.382 42.9375 100.09 42.9969 99.7828 42.9969C99.4661 42.9969 99.1692 42.9375 98.8921 42.8187C98.615 42.7098 98.3725 42.5563 98.1647 42.3583C97.9668 42.1603 97.8084 41.9276 97.6897 41.6603C97.5808 41.3831 97.5264 41.0861 97.5264 40.7693Z" fill="#878787"/>
</svg>
