<svg id="Ebene_1" data-name="Ebene 1" xmlns="http://www.w3.org/2000/svg" viewBox="0 0 140 140"><defs><style>.cls-1{fill:#9fcde0;}.cls-2,.cls-5{fill:none;stroke-linecap:round;stroke-miterlimit:10;stroke-width:2.97px;}.cls-2{stroke:#0070ba;}.cls-3{fill:#0070ba;}.cls-4{fill:#4fab77;}.cls-5{stroke:#9fcde0;}</style></defs><circle class="cls-1" cx="106.02" cy="48.36" r="22.94"/><circle class="cls-2" cx="106.02" cy="48.36" r="29.48"/><path class="cls-3" d="M101.75,58.14a1.71,1.71,0,0,1-1.21-.5l-5.93-5.93A1.71,1.71,0,1,1,97,49.28L101.75,54,115,40.75a1.71,1.71,0,0,1,2.43,2.42L103,57.64A1.71,1.71,0,0,1,101.75,58.14Z"/><path class="cls-2" d="M106.3,84.44a38.87,38.87,0,0,0,11.72,20,5.6,5.6,0,0,1-3.76,9.75H26.48a5.6,5.6,0,0,1-3.77-9.75A38.81,38.81,0,0,0,35.42,75.79V60.44a35,35,0,0,1,42.3-34.17M75,18.8V13.34a4.62,4.62,0,0,0-5-4.6,4.69,4.69,0,0,0-4.19,4.71V18.8"/><path class="cls-4" d="M70.37,131.28a16,16,0,0,0,15.34-11.4,1,1,0,0,0-1-1.3H56a1,1,0,0,0-1,1.3A16,16,0,0,0,70.37,131.28Z"/><line class="cls-5" x1="21.5" y1="78.28" x2="13.1" y2="86.68"/><line class="cls-5" x1="15.97" y1="65.92" x2="4.5" y2="65.92"/><line class="cls-5" x1="13.1" y1="45.16" x2="21.17" y2="53.23"/></svg>