<svg width="132" height="124" viewBox="0 0 132 124" fill="none" xmlns="http://www.w3.org/2000/svg">
<path d="M114.826 107.919H17.0488C17.0488 107.919 17.0488 94.9595 24.6955 94.9595C24.6955 64.6791 17.0488 14.5857 65.9376 14.5857C117.334 14.5857 105.425 77.6386 105.425 94.9595C111.843 94.9595 114.367 103.599 114.826 107.919Z" stroke="#878787" stroke-width="3"/>
<path d="M66.0615 2C57.6376 2 56.6181 10.7227 57.1613 15.0841C58.4566 14.7934 62.0502 14.2118 66.0615 14.2118C70.0729 14.2118 73.165 14.7934 74.2096 15.0841C75.0036 10.7227 74.4855 2 66.0615 2Z" fill="#878787" stroke="#878787" stroke-width="3"/>
<path d="M24.6338 95L54.1538 94.6826" stroke="#878787" stroke-width="3"/>
<path d="M65.9323 122C54.6001 122 53.9399 112.696 55.0263 108.044H77.2143C78.1754 112.696 76.4622 122 65.9323 122Z" fill="#BFEEB6" stroke="#878787" stroke-width="3"/>
<path d="M115.328 77.8879L119.402 81.9377L123.476 85.9875M120.092 67.5452H132M115.328 57.7009L123.476 49.6013" stroke="#878787" stroke-width="3"/>
<path d="M16.6719 77.8879L12.5978 81.9377L8.52374 85.9875M11.9083 67.5452H-0.000469521M16.6719 57.7009L8.52374 49.6013" stroke="#878787" stroke-width="3"/>
<path d="M118.591 32.0312C118.591 42.3432 110.179 50.7181 99.7833 50.7181C89.3876 50.7181 80.9756 42.3432 80.9756 32.0312C80.9756 21.7191 89.3876 13.3442 99.7833 13.3442C110.179 13.3442 118.591 21.7191 118.591 32.0312Z" fill="#D1E5F5" stroke="#878787" stroke-width="3"/>
<path d="M93.7292 40H94.5303V29.0526H93.7292C93.3042 29.0526 92.8967 29.2301 92.5962 29.5459C92.2958 29.8618 92.127 30.2902 92.127 30.7368V38.3158C92.127 38.7625 92.2958 39.1909 92.5962 39.5067C92.8967 39.8226 93.3042 40 93.7292 40ZM106.547 29.0526H100.939L101.838 26.2164C101.918 25.9633 101.94 25.6938 101.902 25.43C101.863 25.1663 101.766 24.9159 101.618 24.6994C101.469 24.483 101.274 24.3067 101.048 24.1851C100.822 24.0635 100.572 24.0001 100.318 24H100.138L96.1325 28.5794V40H104.945L108.079 32.7613L108.149 32.4211V30.7368C108.149 30.2902 107.98 29.8618 107.68 29.5459C107.379 29.2301 106.972 29.0526 106.547 29.0526V29.0526Z" fill="#878787"/>
</svg>
