<?xml version="1.0" encoding="UTF-8"?>
<svg id="Grafik" xmlns="http://www.w3.org/2000/svg" viewBox="0 0 1000 1000">
  <defs>
    <style>
      .cls-1 {
        fill: #66cb92;
      }

      .cls-1, .cls-2, .cls-3 {
        stroke-width: 0px;
      }

      .cls-2 {
        fill: #0070ba;
      }

      .cls-3 {
        fill: #9fcde0;
      }
    </style>
  </defs>
  <path class="cls-2" d="M798.27,808.1H206.69c-20.21,0-37.29-11.71-44.57-30.57-7.28-18.86-2.5-39.01,12.47-52.59,52.34-47.49,82.36-115.25,82.36-185.92v-103.44c0-135.38,110.14-245.52,245.52-245.52,20.43,0,40.75,2.53,60.4,7.52,5.35,1.36,8.59,6.8,7.23,12.16-1.36,5.35-6.8,8.6-12.16,7.23-18.04-4.58-36.7-6.9-55.47-6.9-124.35,0-225.51,101.17-225.51,225.52v103.44c0,76.3-32.41,149.47-88.93,200.74-8.83,8.01-11.54,19.44-7.25,30.56s13.98,17.77,25.9,17.77h591.58c11.93,0,21.61-6.64,25.9-17.77,4.29-11.12,1.59-22.55-7.25-30.56-44.3-40.19-74.43-94.84-84.83-153.89-.96-5.44,2.68-10.63,8.12-11.59,5.44-.96,10.63,2.68,11.59,8.12,9.64,54.7,37.54,105.32,78.57,142.54,14.97,13.58,19.75,33.73,12.47,52.59-7.28,18.86-24.36,30.57-44.57,30.57ZM533.62,178.4c-5.52,0-10-4.48-10-10v-50.25c0-5.91-2.51-11.6-6.9-15.6-4.44-4.06-10.2-6-16.22-5.45-10.75.97-19.17,10.55-19.17,21.82v49.49c0,5.53-4.48,10-10,10s-10-4.48-10-10v-49.49c0-21.52,16.42-39.86,37.39-41.75,11.51-1.03,23,2.83,31.51,10.61,8.52,7.79,13.41,18.86,13.41,30.37v50.25c0,5.53-4.48,10-10,10Z"/>
  <path class="cls-1" d="M502.48,913.01c48.8,0,90.02-32.38,103.39-76.82,1.31-4.36-1.98-8.77-6.53-8.77h-193.71c-4.55,0-7.84,4.41-6.53,8.77,13.36,44.44,54.59,76.82,103.39,76.82Z"/>
  <g>
    <circle class="cls-3" cx="742.74" cy="354.16" r="154.64"/>
    <path class="cls-2" d="M742.74,562.87c-115.08,0-208.7-93.62-208.7-208.71s93.62-208.71,208.7-208.71,208.71,93.62,208.71,208.71-93.62,208.71-208.71,208.71ZM742.74,165.46c-104.05,0-188.7,84.65-188.7,188.7s84.65,188.7,188.7,188.7,188.7-84.65,188.7-188.7-84.65-188.7-188.7-188.7Z"/>
    <path class="cls-2" d="M713.98,420.08c-2.96,0-5.91-1.13-8.17-3.38l-39.97-39.97c-4.51-4.51-4.51-11.82,0-16.34s11.82-4.51,16.34,0l31.81,31.81,89.34-89.34c4.51-4.51,11.82-4.51,16.34,0,4.51,4.51,4.51,11.82,0,16.34l-97.5,97.5c-2.26,2.26-5.21,3.38-8.17,3.38Z"/>
  </g>
  <g>
    <path class="cls-3" d="M116.51,622.43c-2.56,0-5.12-.98-7.07-2.93-3.91-3.91-3.91-10.24,0-14.15l56.61-56.61c3.91-3.91,10.24-3.91,14.15,0,3.91,3.91,3.91,10.24,0,14.15l-56.61,56.61c-1.95,1.95-4.51,2.93-7.07,2.93Z"/>
    <path class="cls-3" d="M135.87,482.51H58.56c-5.52,0-10-4.48-10-10s4.48-10,10-10h77.31c5.52,0,10,4.48,10,10s-4.48,10-10,10Z"/>
    <path class="cls-3" d="M170.87,396.96c-2.56,0-5.12-.98-7.07-2.93l-54.36-54.36c-3.91-3.91-3.91-10.24,0-14.15,3.91-3.91,10.24-3.91,14.15,0l54.36,54.36c3.91,3.91,3.91,10.24,0,14.15-1.95,1.95-4.51,2.93-7.07,2.93Z"/>
  </g>
</svg>