<svg width="206" height="206" viewBox="0 0 206 206" fill="none" xmlns="http://www.w3.org/2000/svg">
<path d="M189.904 176.017H14.2453C9.99759 176.017 6.54297 172.033 6.54297 167.136V76.047C6.54297 71.1503 9.99759 67.1663 14.2453 67.1663H54.8664C55.435 67.1663 55.8965 67.6277 55.8965 68.1963C55.8965 68.7649 55.435 69.2263 54.8664 69.2263H14.2453C11.1347 69.2263 8.60297 72.2875 8.60297 76.047V167.136C8.60297 170.898 11.1347 173.957 14.2453 173.957H189.904C193.014 173.957 195.546 170.896 195.546 167.136V100.563C195.546 99.9945 196.007 99.533 196.576 99.533C197.144 99.533 197.606 99.9945 197.606 100.563V167.136C197.606 172.033 194.151 176.017 189.904 176.017Z" fill="#0070BA"/>
<path d="M96.4278 102.405H52.144C51.0063 102.405 50.084 103.327 50.084 104.465V114.798C50.084 115.935 51.0063 116.858 52.144 116.858H96.4278C97.5655 116.858 98.4878 115.935 98.4878 114.798V104.465C98.4878 103.327 97.5655 102.405 96.4278 102.405Z" fill="#66CB92"/>
<path d="M186.018 125.971H137.775C136.637 125.971 135.715 126.893 135.715 128.031V138.364C135.715 139.502 136.637 140.424 137.775 140.424H186.018C187.156 140.424 188.078 139.502 188.078 138.364V128.031C188.078 126.893 187.156 125.971 186.018 125.971Z" fill="#66CB92"/>
<path d="M129.976 149.54H100.353C99.2153 149.54 98.293 150.462 98.293 151.6V161.932C98.293 163.07 99.2153 163.992 100.353 163.992H129.976C131.113 163.992 132.036 163.07 132.036 161.932V151.6C132.036 150.462 131.113 149.54 129.976 149.54Z" fill="#66CB92"/>
<path d="M42.6418 87.0927H36.948C36.3794 87.0927 35.918 86.6312 35.918 86.0627C35.918 85.4941 36.3794 85.0327 36.948 85.0327H42.6418C43.2104 85.0327 43.6718 85.4941 43.6718 86.0627C43.6718 86.6312 43.2104 87.0927 42.6418 87.0927Z" fill="#0070BA"/>
<path d="M42.6418 110.661H36.948C36.3794 110.661 35.918 110.2 35.918 109.631C35.918 109.063 36.3794 108.601 36.948 108.601H42.6418C43.2104 108.601 43.6718 109.063 43.6718 109.631C43.6718 110.2 43.2104 110.661 42.6418 110.661Z" fill="#0070BA"/>
<path d="M42.6418 134.228H36.948C36.3794 134.228 35.918 133.766 35.918 133.198C35.918 132.629 36.3794 132.168 36.948 132.168H42.6418C43.2104 132.168 43.6718 132.629 43.6718 133.198C43.6718 133.766 43.2104 134.228 42.6418 134.228Z" fill="#0070BA"/>
<path d="M42.6418 157.796H36.948C36.3794 157.796 35.918 157.335 35.918 156.766C35.918 156.197 36.3794 155.736 36.948 155.736H42.6418C43.2104 155.736 43.6718 156.197 43.6718 156.766C43.6718 157.335 43.2104 157.796 42.6418 157.796Z" fill="#0070BA"/>
<path d="M124.679 110.661H105.987C105.418 110.661 104.957 110.2 104.957 109.631C104.957 109.063 105.418 108.601 105.987 108.601H124.679C125.248 108.601 125.709 109.063 125.709 109.631C125.709 110.2 125.248 110.661 124.679 110.661Z" fill="#0070BA"/>
<path d="M124.679 134.228H105.987C105.418 134.228 104.957 133.766 104.957 133.198C104.957 132.629 105.418 132.168 105.987 132.168H124.679C125.248 132.168 125.709 132.629 125.709 133.198C125.709 133.766 125.248 134.228 124.679 134.228Z" fill="#0070BA"/>
<path d="M124.679 157.796H105.987C105.418 157.796 104.957 157.335 104.957 156.766C104.957 156.197 105.418 155.736 105.987 155.736H124.679C125.248 155.736 125.709 156.197 125.709 156.766C125.709 157.335 125.248 157.796 124.679 157.796Z" fill="white"/>
<path d="M90.0577 110.661H58.1277C57.5591 110.661 57.0977 110.2 57.0977 109.631C57.0977 109.063 57.5591 108.601 58.1277 108.601H90.0577C90.6262 108.601 91.0877 109.063 91.0877 109.631C91.0877 110.2 90.6262 110.661 90.0577 110.661Z" fill="white"/>
<path d="M90.0577 134.228H58.1277C57.5591 134.228 57.0977 133.766 57.0977 133.198C57.0977 132.629 57.5591 132.168 58.1277 132.168H90.0577C90.6262 132.168 91.0877 132.629 91.0877 133.198C91.0877 133.766 90.6262 134.228 90.0577 134.228Z" fill="#0070BA"/>
<path d="M90.0577 157.796H58.1277C57.5591 157.796 57.0977 157.335 57.0977 156.766C57.0977 156.197 57.5591 155.736 58.1277 155.736H90.0577C90.6262 155.736 91.0877 156.197 91.0877 156.766C91.0877 157.335 90.6262 157.796 90.0577 157.796Z" fill="#0070BA"/>
<path d="M179.209 110.661H153.13C152.561 110.661 152.1 110.2 152.1 109.631C152.1 109.063 152.561 108.601 153.13 108.601H179.209C179.778 108.601 180.239 109.063 180.239 109.631C180.239 110.2 179.778 110.661 179.209 110.661Z" fill="#0070BA"/>
<path d="M179.209 134.228H153.13C152.561 134.228 152.1 133.766 152.1 133.198C152.1 132.629 152.561 132.168 153.13 132.168H179.209C179.778 132.168 180.239 132.629 180.239 133.198C180.239 133.766 179.778 134.228 179.209 134.228Z" fill="white"/>
<path d="M179.209 157.796H153.13C152.561 157.796 152.1 157.335 152.1 156.766C152.1 156.197 152.561 155.736 153.13 155.736H179.209C179.778 155.736 180.239 156.197 180.239 156.766C180.239 157.335 179.778 157.796 179.209 157.796Z" fill="#0070BA"/>
<path d="M143.612 112.021C144.789 112.021 145.743 111.067 145.743 109.891C145.743 108.714 144.789 107.761 143.612 107.761C142.436 107.761 141.482 108.714 141.482 109.891C141.482 111.067 142.436 112.021 143.612 112.021Z" fill="#0070BA"/>
<path d="M143.613 113.051C141.87 113.051 140.453 111.633 140.453 109.891C140.453 108.148 141.87 106.731 143.613 106.731C145.356 106.731 146.773 108.148 146.773 109.891C146.773 111.633 145.356 113.051 143.613 113.051ZM143.613 108.791C143.008 108.791 142.513 109.285 142.513 109.891C142.513 110.496 143.008 110.991 143.613 110.991C144.219 110.991 144.713 110.496 144.713 109.891C144.713 109.285 144.219 108.791 143.613 108.791Z" fill="#0070BA"/>
<path d="M143.612 135.457C144.789 135.457 145.743 134.504 145.743 133.327C145.743 132.151 144.789 131.197 143.612 131.197C142.436 131.197 141.482 132.151 141.482 133.327C141.482 134.504 142.436 135.457 143.612 135.457Z" fill="white"/>
<path d="M143.613 136.487C141.87 136.487 140.453 135.07 140.453 133.327C140.453 131.585 141.87 130.167 143.613 130.167C145.356 130.167 146.773 131.585 146.773 133.327C146.773 135.07 145.356 136.487 143.613 136.487ZM143.613 132.227C143.008 132.227 142.513 132.722 142.513 133.327C142.513 133.933 143.008 134.427 143.613 134.427C144.219 134.427 144.713 133.935 144.713 133.327C144.713 132.72 144.219 132.227 143.613 132.227Z" fill="white"/>
<path d="M143.612 158.896C144.789 158.896 145.743 157.942 145.743 156.766C145.743 155.59 144.789 154.636 143.612 154.636C142.436 154.636 141.482 155.59 141.482 156.766C141.482 157.942 142.436 158.896 143.612 158.896Z" fill="#0070BA"/>
<path d="M143.613 159.926C141.87 159.926 140.453 158.509 140.453 156.766C140.453 155.023 141.87 153.606 143.613 153.606C145.356 153.606 146.773 155.023 146.773 156.766C146.773 158.509 145.356 159.926 143.613 159.926ZM143.613 155.666C143.008 155.666 142.513 156.16 142.513 156.766C142.513 157.372 143.008 157.866 143.613 157.866C144.219 157.866 144.713 157.372 144.713 156.766C144.713 156.16 144.219 155.666 143.613 155.666Z" fill="#0070BA"/>
<path fill-rule="evenodd" clip-rule="evenodd" d="M196.884 36.7834V79.0772C196.884 82.8442 193.83 85.8979 190.063 85.8979H73.0488C72.6006 85.8979 72.1624 85.8546 71.7383 85.7721C73.0291 89.0876 76.2524 91.4372 80.0246 91.4372H194.26C199.169 91.4372 203.149 87.4575 203.149 82.5483V43.1755C203.149 39.0469 200.334 35.5757 196.519 34.5762C196.755 35.2685 196.884 36.0109 196.884 36.7834Z" fill="#CAE3F4"/>
<path d="M190.064 86.9299H73.0479C68.7199 86.9299 65.1973 83.4094 65.1973 79.0793V36.7854C65.1973 32.4574 68.7178 28.9348 73.0479 28.9348H190.062C194.39 28.9348 197.913 32.4553 197.913 36.7854V79.0793C197.913 83.4073 194.392 86.9299 190.062 86.9299H190.064ZM73.0479 30.9948C69.8549 30.9948 67.2573 33.5924 67.2573 36.7854V79.0793C67.2573 82.2723 69.8549 84.8699 73.0479 84.8699H190.062C193.255 84.8699 195.853 82.2723 195.853 79.0793V36.7854C195.853 33.5924 193.255 30.9948 190.062 30.9948H73.0479Z" fill="#0070BA"/>
<path d="M164.879 65.438C164.391 65.438 163.901 65.2649 163.511 64.9188L154.301 56.7365C153.45 55.9805 153.374 54.6786 154.13 53.8278C154.886 52.977 156.188 52.9008 157.039 53.6568L164.881 60.6237L172.724 53.6568C173.574 52.9008 174.876 52.977 175.632 53.8278C176.388 54.6786 176.31 55.9805 175.461 56.7365L166.251 64.9188C165.862 65.2649 165.371 65.438 164.883 65.438H164.879Z" fill="#0070BA"/>
<path d="M91.9538 39.9063V47.9362C91.9538 49.0342 91.0638 49.9241 89.9659 49.9241C88.8679 49.9241 87.978 49.0342 87.978 47.9362V39.9063C87.978 38.8083 88.8679 37.9184 89.9659 37.9184C91.0638 37.9184 91.9538 38.8083 91.9538 39.9063ZM87.9759 75.9543V67.9244C87.9759 66.8264 88.8658 65.9365 89.9638 65.9365C91.0618 65.9365 91.9517 66.8264 91.9517 67.9244V75.9543C91.9517 77.0522 91.0618 77.9422 89.9638 77.9422C88.8658 77.9422 87.9759 77.0522 87.9759 75.9543ZM93.9417 57.9293C93.9417 60.1499 92.1721 61.9318 89.9638 61.9318C89.1769 61.9318 88.4085 61.697 87.7534 61.2582C87.0983 60.8174 86.5895 60.1932 86.2888 59.4619C85.988 58.7306 85.9097 57.9251 86.0622 57.1485C86.2167 56.3719 86.5936 55.6591 87.1498 55.0988C87.706 54.5385 88.4147 54.1574 89.1872 54.0029C89.9597 53.8484 90.759 53.9267 91.4861 54.2316C92.2133 54.5344 92.8334 55.0473 93.2722 55.7065C93.7089 56.3637 93.9417 57.1382 93.9417 57.9293ZM117.261 41.9189C126.051 41.9189 133.172 49.0836 133.172 57.9293C133.172 66.7749 126.053 73.9396 117.261 73.9396C110.846 73.9396 105.325 70.1162 102.802 64.616C102.136 63.1658 101.246 61.8288 100.122 60.6958L98.2409 58.8027C97.7609 58.3186 97.7588 57.5379 98.2409 57.0538L100.122 55.1606C101.246 54.0276 102.136 52.6907 102.802 51.2404C105.327 45.7402 110.846 41.9169 117.261 41.9169V41.9189ZM117.261 45.9215C110.677 45.9215 105.327 51.3043 105.327 57.9293C105.327 64.5542 110.677 69.937 117.261 69.937C123.845 69.937 129.194 64.5542 129.194 57.9293C129.194 51.3043 123.845 45.9215 117.261 45.9215ZM115.271 59.9316V51.4176C115.271 50.5936 115.938 49.9262 116.762 49.9262C117.586 49.9262 118.254 50.5936 118.254 51.4176V58.331L122.903 61.1387C123.624 61.5734 123.843 62.5189 123.385 63.2255C122.944 63.9094 122.04 64.1134 121.348 63.687L115.271 59.9316Z" fill="#0070BA"/>
<path d="M27.0894 137.336H19.9103C19.5416 137.336 19.2017 137.14 19.0184 136.821C18.835 136.502 18.835 136.11 19.0184 135.791L22.6069 129.574C22.7902 129.255 23.1301 129.059 23.4989 129.059C23.8676 129.059 24.2075 129.255 24.3908 129.574L27.9794 135.791C28.1627 136.11 28.1627 136.502 27.9794 136.821C27.796 137.14 27.4561 137.336 27.0874 137.336H27.0894ZM21.6943 135.276H25.3055L23.5009 132.149L21.6964 135.276H21.6943Z" fill="#9FCDE0"/>
<path d="M28.5998 110.023L25.3017 106.724C24.9 106.323 24.247 106.323 23.8453 106.724C23.4436 107.126 23.4436 107.779 23.8453 108.181L25.3841 109.72H22.669C21.74 109.72 20.9819 108.964 20.9819 108.033V105.212C20.9819 104.644 20.5204 104.182 19.9519 104.182C19.3833 104.182 18.9219 104.644 18.9219 105.212V108.033C18.9219 110.099 20.6028 111.78 22.669 111.78H25.3841L23.8453 113.319C23.4436 113.72 23.4436 114.373 23.8453 114.775C24.0472 114.977 24.3108 115.076 24.5745 115.076C24.8382 115.076 25.1019 114.975 25.3038 114.775L28.6018 111.477C29.0035 111.075 29.0035 110.422 28.6018 110.02L28.5998 110.023Z" fill="#66CB92"/>
<path d="M24.7432 154.617H22.0281L23.567 153.079C23.9687 152.677 23.9687 152.024 23.567 151.622C23.1653 151.22 22.5122 151.22 22.1105 151.622L18.8125 154.92C18.6188 155.114 18.5117 155.376 18.5117 155.649C18.5117 155.923 18.6209 156.185 18.8125 156.379L22.1105 159.677C22.3124 159.879 22.5761 159.978 22.8398 159.978C23.1035 159.978 23.3671 159.877 23.569 159.677C23.9707 159.275 23.9707 158.622 23.569 158.22L22.0302 156.682H24.7453C25.6743 156.682 26.4324 157.438 26.4324 158.369V161.189C26.4324 161.757 26.8939 162.219 27.4624 162.219C28.031 162.219 28.4924 161.757 28.4924 161.189V158.369C28.4924 156.303 26.8115 154.622 24.7453 154.622L24.7432 154.617Z" fill="#0070BA"/>
</svg>
