<?xml version="1.0" encoding="UTF-8"?><svg id="a" xmlns="http://www.w3.org/2000/svg" viewBox="0 0 1000 1000"><circle cx="82.27" cy="616.18" r="7.01" transform="translate(-536.33 554.68) rotate(-76.72)" style="fill:#fff; stroke-width:0px;"/><path d="m82.31,639.74c5.27,0,9.93-2.56,12.83-6.5.26-.35.31-.82.13-1.21-1.36-2.97-3.88-5.31-6.99-6.41-.35-.13-.74-.09-1.08.08-1.47.78-3.15,1.22-4.93,1.22s-3.44-.44-4.9-1.21c-.33-.18-.73-.21-1.08-.08-3.08,1.12-5.58,3.44-6.93,6.4-.18.4-.13.86.13,1.21,2.89,3.94,7.56,6.5,12.83,6.5Z" style="fill:#fff; stroke-width:0px;"/><path d="m924.53,432.63v363.28c0,8.28-6.72,15-15,15H38.12c-8.28,0-15-6.72-15-15V250.68c0-8.28,6.72-15,15-15h436.78c2.76,0,5-2.24,5-5h0c0-2.76-2.24-5-5-5H38.12c-13.81,0-25,11.19-25,25v545.22c0,13.81,11.19,25,25,25h871.41c13.81,0,25-11.19,25-25v-363.28c0-2.76-2.24-5-5-5h0c-2.76,0-5,2.24-5,5Z" style="fill:#0070ba; stroke-width:0px;"/><path d="m952.01,364.43h-409.87v1.01c0,11.05,8.95,20,20,20h404.73c11.05,0,20-8.95,20-20v-138c0-10.52-8.13-19.13-18.45-19.92v140.5c0,9.07-7.35,16.42-16.42,16.42Z" style="fill:#caefd9; stroke-width:0px;"/><rect x="61.55" y="356.95" width="78.8" height="32" rx="16" ry="16" style="fill:#66cb92; stroke-width:0px;"/><path d="m515.28,348.01c0,9.07,7.35,16.42,16.42,16.42h420.32c9.07,0,16.42-7.35,16.42-16.42v-152.5c0-1.6-.24-3.13-.66-4.59-1.99-6.83-8.28-11.83-15.75-11.83h-420.32c-7.47,0-13.77,5-15.75,11.83-.42,1.46-.66,3-.66,4.59v152.5Zm121.13-13.66c-12.7,0-23.04-10.33-23.04-23.04,0-2.3.34-4.52.97-6.62l-29.23-16.88c-4.19,4.3-10.03,6.97-16.49,6.97-12.7,0-23.04-10.33-23.04-23.04s10.33-23.04,23.04-23.04c6.38,0,12.16,2.61,16.34,6.82l29.32-16.93c-.59-2.04-.91-4.18-.91-6.41,0-12.7,10.33-23.04,23.04-23.04s23.04,10.33,23.04,23.04-10.33,23.04-23.04,23.04c-7.37,0-13.94-3.49-18.16-8.89l-28.42,16.41c1.18,2.77,1.83,5.81,1.83,9s-.63,6.09-1.75,8.8l28.47,16.44c4.22-5.31,10.73-8.72,18.03-8.72,12.7,0,23.04,10.33,23.04,23.04s-10.33,23.04-23.04,23.04Zm96.18-31.45c-4,3.2-9.58,4.8-16.71,4.8-6.58,0-12.39-1.24-17.45-3.71v-12.14c4.16,1.86,7.68,3.16,10.56,3.92,2.88.76,5.51,1.14,7.9,1.14,2.87,0,5.06-.55,6.6-1.64,1.53-1.1,2.3-2.73,2.3-4.89,0-1.21-.34-2.28-1.01-3.22s-1.67-1.85-2.97-2.72c-1.31-.87-3.97-2.26-7.99-4.17-3.77-1.77-6.59-3.47-8.47-5.1s-3.39-3.53-4.51-5.69-1.69-4.69-1.69-7.59c0-5.45,1.85-9.74,5.54-12.86s8.8-4.68,15.32-4.68c3.2,0,6.26.38,9.17,1.14s5.95,1.83,9.13,3.2l-4.21,10.16c-3.29-1.35-6.01-2.29-8.16-2.82-2.15-.53-4.26-.8-6.34-.8-2.47,0-4.37.58-5.69,1.73-1.32,1.15-1.98,2.66-1.98,4.51,0,1.15.27,2.16.8,3.01.53.86,1.38,1.69,2.55,2.49s3.93,2.24,8.28,4.32c5.76,2.75,9.71,5.51,11.84,8.28,2.13,2.77,3.2,6.16,3.2,10.18,0,5.56-2,9.95-6.01,13.15Zm57.94,3.96h-12.86v-27.52c0-6.8-2.53-10.2-7.59-10.2-3.6,0-6.2,1.22-7.8,3.67-1.6,2.45-2.4,6.41-2.4,11.89v22.17h-12.86v-65.58h12.86v13.36c0,1.04-.1,3.48-.29,7.33l-.29,3.79h.67c2.87-4.61,7.42-6.91,13.66-6.91,5.54,0,9.74,1.49,12.6,4.47,2.87,2.98,4.3,7.25,4.3,12.81v30.73Zm50.41,0h-8.98l-2.49-6.41h-.34c-2.16,2.73-4.39,4.62-6.68,5.67s-5.28,1.58-8.96,1.58c-4.52,0-8.09-1.29-10.68-3.88-2.6-2.58-3.9-6.27-3.9-11.04s1.75-8.69,5.25-11.06c3.5-2.37,8.77-3.69,15.83-3.94l8.18-.25v-2.07c0-4.78-2.45-7.17-7.33-7.17-3.77,0-8.19,1.14-13.28,3.41l-4.26-8.68c5.42-2.84,11.44-4.26,18.04-4.26s11.17,1.38,14.54,4.13,5.06,6.94,5.06,12.56v31.4Zm41.18-35.57c-1.04-.28-2.3-.42-3.79-.42-4.1,0-7.3,1.05-9.59,3.16s-3.43,5.06-3.43,8.85v23.98h-12.86v-47.12h9.74l1.9,7.92h.63c1.46-2.64,3.44-4.77,5.92-6.39,2.49-1.62,5.19-2.42,8.11-2.42,1.74,0,3.19.13,4.34.38l-.97,12.06Zm47.5,15.22h-30.39c.14,3.65,1.22,6.51,3.25,8.56,2.02,2.05,4.86,3.08,8.51,3.08,2.84,0,5.52-.3,8.05-.89,2.53-.59,5.17-1.53,7.92-2.82v9.95c-2.25,1.12-4.65,1.96-7.21,2.51-2.56.55-5.68.82-9.36.82-7.59,0-13.52-2.09-17.79-6.28-4.27-4.19-6.41-10.12-6.41-17.79s1.97-14,5.92-18.31c3.95-4.31,9.41-6.47,16.38-6.47s11.84,1.9,15.55,5.69c3.71,3.79,5.56,9.03,5.56,15.72v6.24Z" style="fill:#66cb92; stroke-width:0px;"/><path d="m814.84,287.23c-1.83,1.24-2.74,3.12-2.74,5.65,0,3.62,2.08,5.44,6.24,5.44,2.98,0,5.36-.86,7.14-2.57,1.78-1.71,2.68-3.99,2.68-6.83v-3.88l-4.97.17c-3.74.11-6.52.79-8.34,2.02Z" style="fill:#66cb92; stroke-width:0px;"/><path d="m636.4,297.84c-7.43,0-13.48,6.05-13.48,13.48s6.05,13.48,13.48,13.48,13.48-6.05,13.48-13.48-6.05-13.48-13.48-13.48Z" style="fill:#66cb92; stroke-width:0px;"/><circle cx="568.62" cy="271.76" r="13.48" style="fill:#66cb92; stroke-width:0px;"/><circle cx="636.4" cy="232.21" r="13.48" style="fill:#66cb92; stroke-width:0px;"/><path d="m908.58,268.01c-2.73,0-4.86.86-6.41,2.59-1.55,1.73-2.43,4.18-2.66,7.35h18.04c-.06-3.17-.88-5.63-2.49-7.35-1.6-1.73-3.77-2.59-6.49-2.59Z" style="fill:#66cb92; stroke-width:0px;"/><path d="m636.4,288.28c-7.3,0-13.8,3.41-18.03,8.72l-28.47-16.44c1.13-2.71,1.75-5.69,1.75-8.8s-.65-6.24-1.83-9l28.42-16.41c4.22,5.4,10.79,8.89,18.16,8.89,12.7,0,23.04-10.33,23.04-23.04s-10.33-23.04-23.04-23.04-23.04,10.33-23.04,23.04c0,2.22.32,4.37.91,6.41l-29.32,16.93c-4.18-4.21-9.96-6.82-16.34-6.82-12.7,0-23.04,10.33-23.04,23.04s10.33,23.04,23.04,23.04c6.46,0,12.3-2.68,16.49-6.97l29.23,16.88c-.63,2.1-.97,4.32-.97,6.62,0,12.7,10.33,23.04,23.04,23.04s23.04-10.33,23.04-23.04-10.33-23.04-23.04-23.04Zm-13.48-56.08c0-7.43,6.05-13.48,13.48-13.48s13.48,6.05,13.48,13.48-6.05,13.48-13.48,13.48-13.48-6.05-13.48-13.48Zm-54.3,53.03c-7.43,0-13.48-6.05-13.48-13.48s6.05-13.48,13.48-13.48,13.48,6.05,13.48,13.48-6.05,13.48-13.48,13.48Zm67.78,39.56c-7.43,0-13.48-6.05-13.48-13.48s6.05-13.48,13.48-13.48,13.48,6.05,13.48,13.48-6.05,13.48-13.48,13.48Z" style="fill:#fff; stroke-width:0px;"/><path d="m723.54,271.29c-4.36-2.08-7.12-3.52-8.28-4.32s-2.02-1.63-2.55-2.49c-.53-.86-.8-1.86-.8-3.01,0-1.85.66-3.36,1.98-4.51,1.32-1.15,3.22-1.73,5.69-1.73,2.08,0,4.19.27,6.34.8,2.15.53,4.87,1.48,8.16,2.82l4.21-10.16c-3.18-1.38-6.22-2.44-9.13-3.2s-5.96-1.14-9.17-1.14c-6.52,0-11.63,1.56-15.32,4.68s-5.54,7.41-5.54,12.86c0,2.89.56,5.42,1.69,7.59s2.63,4.06,4.51,5.69,4.71,3.33,8.47,5.1c4.02,1.91,6.68,3.3,7.99,4.17,1.31.87,2.3,1.78,2.97,2.72s1.01,2.02,1.01,3.22c0,2.16-.77,3.79-2.3,4.89-1.53,1.1-3.73,1.64-6.6,1.64-2.39,0-5.02-.38-7.9-1.14-2.88-.76-6.4-2.07-10.56-3.92v12.14c5.06,2.47,10.88,3.71,17.45,3.71,7.14,0,12.71-1.6,16.71-4.8,4-3.2,6.01-7.59,6.01-13.15,0-4.02-1.07-7.41-3.2-10.18-2.14-2.77-6.08-5.53-11.84-8.28Z" style="fill:#fff; stroke-width:0px;"/><path d="m773.62,258.86c-6.24,0-10.79,2.3-13.66,6.91h-.67l.29-3.79c.2-3.85.29-6.29.29-7.33v-13.36h-12.86v65.58h12.86v-22.17c0-5.48.8-9.44,2.4-11.89,1.6-2.44,4.2-3.67,7.8-3.67,5.06,0,7.59,3.4,7.59,10.2v27.52h12.86v-30.73c0-5.56-1.43-9.83-4.3-12.81-2.87-2.98-7.07-4.47-12.6-4.47Z" style="fill:#fff; stroke-width:0px;"/><path d="m835.87,262.91c-3.37-2.75-8.22-4.13-14.54-4.13s-12.62,1.42-18.04,4.26l4.26,8.68c5.08-2.28,9.51-3.41,13.28-3.41,4.89,0,7.33,2.39,7.33,7.17v2.07l-8.18.25c-7.05.25-12.33,1.57-15.83,3.94-3.5,2.38-5.25,6.06-5.25,11.06s1.3,8.46,3.9,11.04c2.6,2.59,6.16,3.88,10.68,3.88,3.68,0,6.67-.53,8.96-1.58s4.52-2.94,6.68-5.67h.34l2.49,6.41h8.98v-31.4c0-5.62-1.69-9.81-5.06-12.56Zm-7.71,26.01c0,2.84-.89,5.12-2.68,6.83-1.79,1.71-4.17,2.57-7.14,2.57-4.16,0-6.24-1.81-6.24-5.44,0-2.53.91-4.41,2.74-5.65,1.83-1.24,4.61-1.91,8.34-2.02l4.97-.17v3.88Z" style="fill:#fff; stroke-width:0px;"/><path d="m870.63,261.28c-2.49,1.62-4.46,3.74-5.92,6.39h-.63l-1.9-7.92h-9.74v47.12h12.86v-23.98c0-3.79,1.14-6.74,3.43-8.85s5.49-3.16,9.59-3.16c1.49,0,2.75.14,3.79.42l.97-12.06c-1.15-.25-2.6-.38-4.34-.38-2.92,0-5.63.81-8.11,2.42Z" style="fill:#fff; stroke-width:0px;"/><path d="m924.05,264.55c-3.71-3.79-8.89-5.69-15.55-5.69s-12.43,2.16-16.38,6.47c-3.95,4.31-5.92,10.42-5.92,18.31s2.14,13.6,6.41,17.79c4.27,4.19,10.2,6.28,17.79,6.28,3.68,0,6.8-.27,9.36-.82,2.56-.55,4.96-1.38,7.21-2.51v-9.95c-2.75,1.29-5.4,2.23-7.92,2.82-2.53.59-5.21.89-8.05.89-3.65,0-6.49-1.03-8.51-3.08-2.02-2.05-3.11-4.9-3.25-8.56h30.39v-6.24c0-6.69-1.85-11.93-5.56-15.72Zm-24.53,13.4c.22-3.17,1.11-5.63,2.66-7.35,1.54-1.73,3.68-2.59,6.41-2.59s4.89.86,6.49,2.59c1.6,1.73,2.43,4.18,2.49,7.35h-18.04Z" style="fill:#fff; stroke-width:0px;"/><rect x="132.89" y="284.88" width="207.26" height="32" rx="16" ry="16" style="fill:#0070ba; stroke-width:0px;"/><path d="m170.55,372.95c0,2.76,2.24,5,5,5h190c2.76,0,5-2.24,5-5s-2.24-5-5-5h-190c-2.76,0-5,2.24-5,5Z" style="fill:#cae3f4; stroke-width:0px;"/><path d="m849.61,560.47H67.31c-2.76,0-5,2.24-5,5,0,2.76,2.24,5,5,5h782.3c2.76,0,5-2.24,5-5s-2.24-5-5-5Z" style="fill:#cae3f4; stroke-width:0px;"/><path d="m849.22,674.87H66.92c-2.76,0-5,2.24-5,5,0,2.76,2.24,5,5,5h782.3c2.76,0,5-2.24,5-5s-2.24-5-5-5Z" style="fill:#cae3f4; stroke-width:0px;"/><path d="m82.31,643.83c11.05,0,20-8.95,20-20s-8.95-20-20-20-20,8.95-20,20,8.95,20,20,20Zm-.04-34.66c3.87,0,7.01,3.14,7.01,7.01s-3.14,7.01-7.01,7.01-7.01-3.14-7.01-7.01,3.14-7.01,7.01-7.01Zm-12.92,22.85c1.35-2.96,3.85-5.28,6.93-6.4.35-.13.75-.1,1.08.08,1.47.77,3.13,1.21,4.9,1.21s3.46-.44,4.93-1.22c.33-.18.72-.21,1.08-.08,3.1,1.11,5.62,3.44,6.99,6.41.18.4.13.86-.13,1.21-2.89,3.94-7.56,6.5-12.83,6.5s-9.93-2.56-12.83-6.5c-.26-.35-.31-.82-.13-1.21Z" style="fill:#0070ba; stroke-width:0px;"/><path d="m337.52,628.83c2.76,0,5-2.24,5-5s-2.24-5-5-5H127.52c-2.76,0-5,2.24-5,5s2.24,5,5,5h210Z" style="fill:#0070ba; stroke-width:0px;"/><path d="m699.53,628.83c2.76,0,5-2.24,5-5s-2.24-5-5-5h-210c-2.76,0-5,2.24-5,5s2.24,5,5,5h210Z" style="fill:#0070ba; stroke-width:0px;"/><path d="m61.98,301.87c.04.12.06.24.11.35.05.12.12.23.18.34.05.09.09.18.14.26.13.19.28.38.44.54l18.08,18.08c1.37,1.37,3.6,1.37,4.97,0,1.37-1.37,1.37-3.6,0-4.98l-12.07-12.07h14.02s0,0,0,0h10.55c1.94,0,3.52-1.58,3.52-3.52s-1.58-3.52-3.52-3.52h-24.58l12.07-12.07c1.37-1.37,1.37-3.6,0-4.98-1.37-1.37-3.6-1.37-4.97,0l-18.08,18.08c-.16.16-.31.35-.44.54-.06.08-.09.18-.14.26-.06.11-.13.22-.18.34-.05.11-.07.23-.11.35-.03.1-.07.2-.09.3-.05.23-.07.46-.07.69s.02.46.07.69c.02.1.06.2.09.3Z" style="fill:#cae3f4; stroke-width:0px;"/><path d="m66.55,510.72h424.26c2.76,0,5-2.24,5-5s-2.24-5-5-5H66.55c-2.76,0-5,2.24-5,5s2.24,5,5,5Z" style="fill:#0070ba; stroke-width:0px;"/><path d="m66.55,480.72h491.81c2.76,0,5-2.24,5-5s-2.24-5-5-5H66.55c-2.76,0-5,2.24-5,5s2.24,5,5,5Z" style="fill:#0070ba; stroke-width:0px;"/><path d="m66.55,450.72h336.1c2.76,0,5-2.24,5-5s-2.24-5-5-5H66.55c-2.76,0-5,2.24-5,5s2.24,5,5,5Z" style="fill:#0070ba; stroke-width:0px;"/><rect x="122" y="740.58" width="162.66" height="10" rx="5" ry="5" style="fill:#0070ba; stroke-width:0px;"/><rect x="484.53" y="740.58" width="220" height="10" rx="5" ry="5" style="fill:#0070ba; stroke-width:0px;"/><circle cx="81.92" cy="745.58" r="20" style="fill:#66cb92; stroke-width:0px;"/></svg>