<?xml version="1.0" encoding="UTF-8"?><svg id="a" xmlns="http://www.w3.org/2000/svg" xmlns:xlink="http://www.w3.org/1999/xlink" viewBox="0 0 500 500"><defs><clipPath id="c"><path d="m313.98,217.95h30.41c1.68,0,3.04,1.36,3.04,3.04v30.41c0,1.68-1.36,3.04-3.04,3.04h-30.41c-1.68,0-3.04-1.36-3.04-3.04v-30.41c0-1.68,1.36-3.04,3.04-3.04Z" style="fill:none; stroke-width:0px;"/></clipPath></defs><path d="m39.49,95.39c2.79,0,5.06-2.27,5.06-5.06s-2.27-5.06-5.06-5.06-5.06,2.27-5.06,5.06,2.27,5.06,5.06,5.06Z" style="fill:none; stroke-width:0px;"/><path d="m55.31,95.39c2.79,0,5.06-2.27,5.06-5.06s-2.27-5.06-5.06-5.06-5.06,2.27-5.06,5.06,2.27,5.06,5.06,5.06Z" style="fill:none; stroke-width:0px;"/><path d="m71.13,95.39c2.79,0,5.06-2.27,5.06-5.06s-2.27-5.06-5.06-5.06-5.06,2.27-5.06,5.06,2.27,5.06,5.06,5.06Z" style="fill:none; stroke-width:0px;"/><path d="m22.41,348.64c0,4.61,3.75,8.37,8.37,8.37h372.63c4.61,0,8.37-3.75,8.37-8.37V105.71H22.41v242.93Z" style="fill:none; stroke-width:0px;"/><path d="m403.41,73.31H30.78c-6.92,0-12.55,5.63-12.55,12.55v262.78c0,6.92,5.63,12.55,12.55,12.55h372.63c6.92,0,12.55-5.63,12.55-12.55V85.86c0-6.92-5.63-12.55-12.55-12.55Zm-332.28,11.95c2.79,0,5.06,2.27,5.06,5.06s-2.27,5.06-5.06,5.06-5.06-2.27-5.06-5.06,2.27-5.06,5.06-5.06Zm-15.82,0c2.79,0,5.06,2.27,5.06,5.06s-2.27,5.06-5.06,5.06-5.06-2.27-5.06-5.06,2.27-5.06,5.06-5.06Zm-15.82,0c2.79,0,5.06,2.27,5.06,5.06s-2.27,5.06-5.06,5.06-5.06-2.27-5.06-5.06,2.27-5.06,5.06-5.06Zm372.29,263.38c0,4.61-3.75,8.37-8.37,8.37H30.78c-4.61,0-8.37-3.75-8.37-8.37V105.71h389.37v242.93Z" style="fill:#cae3f4; stroke-width:0px;"/><path d="m122.01,203.96h-40.82c-1.35,0-2.45-1.1-2.45-2.45s1.1-2.45,2.45-2.45h40.82c1.35,0,2.45,1.1,2.45,2.45s-1.1,2.45-2.45,2.45Z" style="fill:#cae3f4; stroke-width:0px;"/><path d="m129.29,234.54h-48.1c-1.35,0-2.45-1.1-2.45-2.45s1.1-2.45,2.45-2.45h48.1c1.35,0,2.45,1.1,2.45,2.45s-1.1,2.45-2.45,2.45Z" style="fill:#cae3f4; stroke-width:0px;"/><rect x="47.6" y="139.41" width="195.01" height="17.05" rx="8.53" ry="8.53" style="fill:#cae3f4; stroke-width:0px;"/><path d="m117.93,265.81h-36.73c-1.35,0-2.45-1.1-2.45-2.45s1.1-2.45,2.45-2.45h36.73c1.35,0,2.45,1.1,2.45,2.45s-1.1,2.45-2.45,2.45Z" style="fill:#cae3f4; stroke-width:0px;"/><rect x="49.26" y="224.99" width="14.27" height="14.21" rx="2.27" ry="2.27" style="fill:#cae3f4; stroke-width:0px;"/><rect x="49.3" y="193.88" width="14.27" height="14.21" rx="2.27" ry="2.27" style="fill:#cae3f4; stroke-width:0px;"/><rect x="49.25" y="256.27" width="14.27" height="14.21" rx="2.27" ry="2.27" style="fill:#cae3f4; stroke-width:0px;"/><rect x="170.58" y="210.85" width="295.81" height="215.84" rx="27.73" ry="27.73" style="fill:#cae3f4; stroke-width:0px;"/><path d="m463.37,412.68H199.41c-8.81,0-15.95-6.83-15.95-15.25v-197.42c0-8.42,7.14-15.25,15.95-15.25h263.96c8.81,0,15.95,6.83,15.95,15.25v197.42c0,8.42-7.14,15.25-15.95,15.25Z" style="fill:#cae3f4; stroke-width:0px;"/><path d="m463.37,415.13H199.41c-10.15,0-18.4-7.94-18.4-17.71v-197.42c0-9.76,8.25-17.71,18.4-17.71h263.96c10.15,0,18.4,7.94,18.4,17.71v197.42c0,9.76-8.25,17.71-18.4,17.71ZM199.41,187.2c-7.44,0-13.5,5.74-13.5,12.8v197.42c0,7.06,6.05,12.8,13.5,12.8h263.96c7.44,0,13.5-5.74,13.5-12.8v-197.42c0-7.06-6.05-12.8-13.5-12.8H199.41Z" style="fill:#0070ba; stroke-width:0px;"/><path d="m476.55,282.08H186.25v-76.13c0-10.44,5.17-18.91,11.55-18.91h267.19c6.38,0,11.55,8.47,11.55,18.91v76.13Z" style="fill:#fff; stroke-width:0px;"/><path d="m342.57,342.76h-101.58c-1.35,0-2.45-1.1-2.45-2.45s1.1-2.45,2.45-2.45h101.58c1.35,0,2.45,1.1,2.45,2.45s-1.1,2.45-2.45,2.45Z" style="fill:#0070ba; stroke-width:0px;"/><path d="m319.85,372.25h-78.85c-1.35,0-2.45-1.1-2.45-2.45s1.1-2.45,2.45-2.45h78.85c1.35,0,2.45,1.1,2.45,2.45s-1.1,2.45-2.45,2.45Z" style="fill:#0070ba; stroke-width:0px;"/><rect x="210.2" y="362.95" width="13.76" height="13.7" rx="2.19" ry="2.19" style="fill:#fff; stroke-width:0px;"/><path d="m221.77,378.36h-9.39c-2.15,0-3.9-1.75-3.9-3.9v-9.33c0-2.15,1.75-3.9,3.9-3.9h9.39c2.15,0,3.9,1.75,3.9,3.9v9.33c0,2.15-1.75,3.9-3.9,3.9Zm-9.39-13.7c-.26,0-.47.21-.47.47v9.33c0,.26.21.47.47.47h9.39c.26,0,.47-.21.47-.47v-9.33c0-.26-.21-.47-.47-.47h-9.39Z" style="fill:#0070ba; stroke-width:0px;"/><rect x="210.24" y="332.95" width="13.76" height="13.7" rx="2.19" ry="2.19" style="fill:#fff; stroke-width:0px;"/><path d="m221.81,348.37h-9.39c-2.15,0-3.9-1.75-3.9-3.9v-9.33c0-2.15,1.75-3.9,3.9-3.9h9.39c2.15,0,3.9,1.75,3.9,3.9v9.33c0,2.15-1.75,3.9-3.9,3.9Zm-9.39-13.7c-.26,0-.47.21-.47.47v9.33c0,.26.21.47.47.47h9.39c.26,0,.47-.21.47-.47v-9.33c0-.26-.21-.47-.47-.47h-9.39Z" style="fill:#0070ba; stroke-width:0px;"/><rect x="441.53" y="215.34" width="20.17" height="1.72" rx=".86" ry=".86" transform="translate(-20.6 382.67) rotate(-45)" style="fill:#0070ba; stroke-width:0px;"/><rect x="441.53" y="215.34" width="20.17" height="1.72" rx=".86" ry=".86" transform="translate(285.15 -256.02) rotate(45)" style="fill:#0070ba; stroke-width:0px;"/><path d="m441.35,336.51c-.95,0-1.9-.34-2.66-1.03l-10.39-9.43-10.39,9.43c-1.62,1.47-4.12,1.35-5.59-.27-1.47-1.62-1.35-4.12.27-5.59l13.05-11.85c1.51-1.37,3.81-1.37,5.32,0l13.05,11.85c1.62,1.47,1.74,3.97.27,5.59-.78.86-1.85,1.3-2.93,1.3Z" style="fill:#0070ba; stroke-width:0px;"/><rect x="400.57" y="373.75" width="55.46" height="5.92" rx="2.96" ry="2.96" style="fill:#0070ba; stroke-width:0px;"/><rect x="425.04" y="321" width="6.52" height="46.64" rx="3.11" ry="3.11" style="fill:#0070ba; stroke-width:0px;"/><path d="m66.2,313.92h24.54v5.9h-24.54v-5.9Zm37.12,2.95h5.83c0-8.14-6.87-14.75-15.34-14.75h-12.27v5.6h12.27c5.25,0,9.51,4.1,9.51,9.14Zm-49.7,0c0-5.04,4.26-9.14,9.51-9.14h12.27v-5.6h-12.27c-8.47,0-15.34,6.61-15.34,14.75s6.87,14.75,15.34,14.75h12.27v-5.6h-12.27c-5.25,0-9.51-4.1-9.51-9.14Zm46.32,0h-6.14v8.85h-9.2v5.9h9.2v8.85h6.14v-8.85h9.2v-5.9h-9.2v-8.85Z" style="fill:#66cb92; stroke-width:0px;"/><rect x="185.94" y="282.15" width="290.93" height="4.9" style="fill:#0070ba; stroke-width:0px;"/><g id="b"><path d="m239.07,224.39h0s17.41,10.42,17.41,10.42l10.37-4.37h0c2.11-.91,4.38-1.38,6.68-1.38.38,0,.76.02,1.14.04-3.56-13.87-17.68-22.22-31.54-18.67-6.24,1.6-11.67,5.47-15.21,10.86.09,0,.18,0,.26,0,3.85,0,7.62,1.07,10.89,3.09Z" style="fill:#0364b8; stroke-width:0px;"/><path d="m239.07,224.39h0c-3.27-2.02-7.04-3.09-10.89-3.09-.09,0-.18,0-.26,0-11.44.14-20.61,9.53-20.47,20.98.05,4.15,1.35,8.19,3.72,11.6l15.35-6.46,6.82-2.87,15.2-6.39,7.94-3.34-17.41-10.43Z" style="fill:#0078d4; stroke-width:0px;"/><path d="m274.67,229.12c-.38-.03-.75-.04-1.14-.04-2.3,0-4.57.47-6.68,1.38h0s-10.37,4.36-10.37,4.36l3.01,1.8,9.86,5.91,4.3,2.58,14.71,8.81c4.41-8.19,1.35-18.41-6.84-22.82-2.12-1.14-4.45-1.81-6.85-1.98Z" style="fill:#1490df; stroke-width:0px;"/><path d="m273.65,245.1l-4.3-2.58-9.86-5.91-3.01-1.8-7.94,3.34-15.2,6.39-6.82,2.87-15.35,6.46c3.87,5.57,10.23,8.89,17.01,8.88h45.35c6.2,0,11.89-3.4,14.83-8.85l-14.71-8.81Z" style="fill:#28a8ea; stroke-width:0px;"/></g><circle cx="347.43" cy="221.27" r="19.91" style="fill:#036c70; stroke-width:0px;"/><circle cx="364.02" cy="239.52" r="18.25" style="fill:#1a9ba1; stroke-width:0px;"/><circle cx="349.92" cy="256.94" r="14.1" style="fill:#37c6d0; stroke-width:0px;"/><g style="isolation:isolate; opacity:.1;"><path d="m350.75,219.33v35.4c0,1.23-.75,2.34-1.89,2.8-.36.15-.75.23-1.14.23h-11.88c-.02-.28-.02-.55-.02-.83,0-.28,0-.55.03-.83.3-5.3,3.57-9.98,8.44-12.09v-3.09c-10.85-1.72-18.24-11.9-16.53-22.75.01-.08.02-.15.04-.23.08-.56.2-1.11.35-1.66h19.56c1.67,0,3.03,1.36,3.04,3.04Z" style="stroke-width:0px;"/></g><g style="isolation:isolate; opacity:.2;"><path d="m346.05,217.95h-18.25c-1.84,10.83,5.44,21.1,16.26,22.94.33.06.66.1.99.14-5.14,2.44-8.89,9.36-9.21,15.07-.03.28-.04.55-.03.83,0,.28,0,.55.02.83.03.56.1,1.11.22,1.66h10c1.23,0,2.34-.75,2.8-1.89.15-.36.23-.75.23-1.14v-35.4c0-1.67-1.36-3.03-3.03-3.04Z" style="stroke-width:0px;"/></g><g style="isolation:isolate; opacity:.2;"><path d="m346.05,217.95h-18.25c-1.84,10.83,5.44,21.1,16.27,22.94.22.04.44.07.67.1-4.98,2.61-8.58,9.52-8.89,15.11h10.2c1.67-.01,3.02-1.36,3.04-3.04v-32.08c0-1.67-1.36-3.03-3.04-3.04Z" style="stroke-width:0px;"/></g><g style="isolation:isolate; opacity:.2;"><path d="m344.39,217.95h-16.59c-1.74,10.22,4.66,20.06,14.71,22.61-3.81,4.35-6.14,9.79-6.67,15.54h8.54c1.67,0,3.03-1.36,3.04-3.04v-32.08c0-1.68-1.36-3.03-3.04-3.04Z" style="stroke-width:0px;"/></g><g style="clip-path:url(#c);"><polygon points="313.16 217.95 310.93 219.24 310.93 217.95 313.16 217.95" style="fill:#058f92; stroke-width:0px;"/><polygon points="317.49 217.95 310.93 221.74 310.93 219.24 313.16 217.95 317.49 217.95" style="fill:#058f92; stroke-width:0px;"/><polygon points="321.82 217.95 310.93 224.24 310.93 221.74 317.49 217.95 321.82 217.95" style="fill:#058e91; stroke-width:0px;"/><polygon points="326.15 217.95 310.93 226.74 310.93 224.24 321.82 217.95 326.15 217.95" style="fill:#058d90; stroke-width:0px;"/><polygon points="330.48 217.95 310.93 229.24 310.93 226.74 326.15 217.95 330.48 217.95" style="fill:#048c8f; stroke-width:0px;"/><polygon points="334.81 217.95 310.93 231.74 310.93 229.24 330.48 217.95 334.81 217.95" style="fill:#048b8e; stroke-width:0px;"/><polygon points="339.14 217.95 310.93 234.24 310.93 231.74 334.81 217.95 339.14 217.95" style="fill:#048a8e; stroke-width:0px;"/><polygon points="343.47 217.95 310.93 236.74 310.93 234.24 339.14 217.95 343.47 217.95" style="fill:#04888d; stroke-width:0px;"/><polygon points="347.43 218.16 310.93 239.24 310.93 236.74 343.47 217.95 347.43 217.95 347.43 218.16" style="fill:#04878c; stroke-width:0px;"/><polygon points="347.43 220.66 310.93 241.74 310.93 239.24 347.43 218.16 347.43 220.66" style="fill:#03868b; stroke-width:0px;"/><polygon points="347.43 223.16 310.93 244.24 310.93 241.74 347.43 220.66 347.43 223.16" style="fill:#03858a; stroke-width:0px;"/><polygon points="347.43 225.66 310.93 246.74 310.93 244.24 347.43 223.16 347.43 225.66" style="fill:#038489; stroke-width:0px;"/><polygon points="347.43 226.81 310.93 247.88 310.93 246.74 347.43 225.66 347.43 226.81" style="fill:#038489; stroke-width:0px;"/><polygon points="347.43 227.96 310.93 249.03 310.93 247.88 347.43 226.81 347.43 227.96" style="fill:#038388; stroke-width:0px;"/><polygon points="347.43 229.1 310.93 250.17 310.93 249.03 347.43 227.96 347.43 229.1" style="fill:#038287; stroke-width:0px;"/><polygon points="347.43 230.25 310.93 251.32 310.93 250.17 347.43 229.1 347.43 230.25" style="fill:#038186; stroke-width:0px;"/><polygon points="347.43 231.39 310.93 252.46 310.93 251.32 347.43 230.25 347.43 231.39" style="fill:#038085; stroke-width:0px;"/><polygon points="347.43 232.54 310.93 253.61 310.93 252.46 347.43 231.39 347.43 232.54" style="fill:#037f84; stroke-width:0px;"/><polygon points="347.43 233.68 311.47 254.45 310.93 254.45 310.93 253.61 347.43 232.54 347.43 233.68" style="fill:#037e83; stroke-width:0px;"/><polygon points="347.43 234.83 313.45 254.45 311.47 254.45 347.43 233.68 347.43 234.83" style="fill:#037d82; stroke-width:0px;"/><polygon points="347.43 235.98 315.44 254.45 313.45 254.45 347.43 234.83 347.43 235.98" style="fill:#037c81; stroke-width:0px;"/><polygon points="347.43 237.12 317.42 254.45 315.44 254.45 347.43 235.98 347.43 237.12" style="fill:#037b80; stroke-width:0px;"/><polygon points="347.43 238.27 319.41 254.45 317.42 254.45 347.43 237.12 347.43 238.27" style="fill:#037a7f; stroke-width:0px;"/><polygon points="347.43 239.41 321.39 254.45 319.41 254.45 347.43 238.27 347.43 239.41" style="fill:#03797e; stroke-width:0px;"/><polygon points="347.43 240.56 323.38 254.45 321.39 254.45 347.43 239.41 347.43 240.56" style="fill:#02787c; stroke-width:0px;"/><polygon points="347.43 241.71 325.36 254.45 323.38 254.45 347.43 240.56 347.43 241.71" style="fill:#02777b; stroke-width:0px;"/><polygon points="347.43 242.85 327.34 254.45 325.36 254.45 347.43 241.71 347.43 242.85" style="fill:#02767a; stroke-width:0px;"/><polygon points="347.43 244 329.33 254.45 327.34 254.45 347.43 242.85 347.43 244" style="fill:#027579; stroke-width:0px;"/><polygon points="347.43 245.14 331.31 254.45 329.33 254.45 347.43 244 347.43 245.14" style="fill:#027478; stroke-width:0px;"/><polygon points="347.43 246.29 333.3 254.45 331.31 254.45 347.43 245.14 347.43 246.29" style="fill:#027377; stroke-width:0px;"/><polygon points="347.43 247.43 335.28 254.45 333.3 254.45 347.43 246.29 347.43 247.43" style="fill:#027276; stroke-width:0px;"/><polygon points="347.43 248.58 337.27 254.45 335.28 254.45 347.43 247.43 347.43 248.58" style="fill:#027175; stroke-width:0px;"/><polygon points="347.43 249.73 339.25 254.45 337.27 254.45 347.43 248.58 347.43 249.73" style="fill:#027074; stroke-width:0px;"/><polygon points="347.43 250.87 341.24 254.45 339.25 254.45 347.43 249.73 347.43 250.87" style="fill:#026f73; stroke-width:0px;"/><polygon points="347.43 252.02 343.22 254.45 341.24 254.45 347.43 250.87 347.43 252.02" style="fill:#026e72; stroke-width:0px;"/><polygon points="347.43 253.16 345.2 254.45 343.22 254.45 347.43 252.02 347.43 253.16" style="fill:#026d71; stroke-width:0px;"/><polygon points="345.2 254.45 347.43 253.16 347.43 254.45 345.2 254.45" style="fill:#026d71; stroke-width:0px;"/></g><path d="m324.52,235.83c-.71-.47-1.31-1.1-1.74-1.84-.42-.77-.63-1.64-.61-2.52-.04-1.19.36-2.35,1.13-3.26.8-.91,1.84-1.59,3-1.95,1.32-.43,2.7-.65,4.09-.63,1.83-.07,3.65.19,5.39.75v3.82c-.76-.46-1.58-.79-2.44-1-.93-.23-1.89-.34-2.85-.34-1.01-.04-2.02.18-2.93.62-.7.3-1.16,1-1.16,1.76,0,.46.18.91.5,1.25.38.4.83.72,1.33.95.55.28,1.38.64,2.49,1.1.12.04.24.09.35.14,1.09.43,2.14.94,3.14,1.55.76.47,1.39,1.11,1.85,1.87.47.86.7,1.84.66,2.82.05,1.22-.32,2.42-1.06,3.39-.73.9-1.71,1.56-2.82,1.9-1.3.41-2.66.6-4.02.58-1.22,0-2.44-.09-3.65-.3-1.02-.17-2.01-.46-2.96-.87v-4.02c.9.65,1.92,1.13,2.99,1.43,1.07.33,2.18.51,3.29.53,1.03.07,2.07-.15,2.99-.63.64-.36,1.04-1.05,1.02-1.79,0-.51-.2-1.01-.56-1.37-.45-.45-.98-.81-1.55-1.08-.66-.33-1.64-.77-2.93-1.31-1.03-.41-2.01-.93-2.93-1.53Z" style="fill:#fff; stroke-width:0px;"/></svg>