<?xml version="1.0" encoding="UTF-8"?><svg id="a" xmlns="http://www.w3.org/2000/svg" viewBox="0 0 500 500"><path d="m107.47,134.53v234.67h224.28v-54.96h-10.8c-1.32,0-2.38-1.07-2.38-2.38s1.07-2.38,2.38-2.38h10.8v-36.37c-.3.24-.67.36-1.03.36-.43,0-.87-.17-1.2-.5l-4.94-4.94c-.66-.66-.66-1.73,0-2.4.66-.66,1.73-.66,2.4,0l3.74,3.74,10.85-10.85c.66-.66,1.73-.66,2.4,0,.66.66.66,1.73,0,2.4l-9.25,9.25h125.63v-135.64H107.47Zm32.89,33.15h65.31c1.32,0,2.38,1.07,2.38,2.38s-1.07,2.38-2.38,2.38h-65.31c-1.32,0-2.38-1.07-2.38-2.38s1.07-2.38,2.38-2.38Zm43.13,146.56h-43.13c-1.32,0-2.38-1.07-2.38-2.38s1.07-2.38,2.38-2.38h43.13c1.32,0,2.38,1.07,2.38,2.38s-1.07,2.38-2.38,2.38Zm0-46.12h-43.13c-1.32,0-2.38-1.07-2.38-2.38s1.07-2.38,2.38-2.38h43.13c1.32,0,2.38,1.07,2.38,2.38s-1.07,2.38-2.38,2.38Zm0-45.78h-43.13c-1.32,0-2.38-1.07-2.38-2.38s1.07-2.38,2.38-2.38h43.13c1.32,0,2.38,1.07,2.38,2.38s-1.07,2.38-2.38,2.38Zm31.36,102.64c-7.25,0-13.13-5.88-13.13-13.13s5.88-13.13,13.13-13.13,13.13,5.88,13.13,13.13-5.88,13.13-13.13,13.13Zm0-46.11c-7.25,0-13.13-5.88-13.13-13.13s5.88-13.13,13.13-13.13,13.13,5.88,13.13,13.13-5.88,13.13-13.13,13.13Zm0-45.78c-7.25,0-13.13-5.88-13.13-13.13s5.88-13.13,13.13-13.13,13.13,5.88,13.13,13.13-5.88,13.13-13.13,13.13Zm86.59,83.76h-60.85c-2.76,0-5-2.24-5-5s2.24-5,5-5h60.85c2.76,0,5,2.24,5,5s-2.24,5-5,5Zm0-46.12h-60.85c-2.76,0-5-2.24-5-5s2.24-5,5-5h60.85c2.76,0,5,2.24,5,5s-2.24,5-5,5Zm0-45.78h-60.85c-2.76,0-5-2.24-5-5s2.24-5,5-5h60.85c2.76,0,5,2.24,5,5s-2.24,5-5,5Zm46.15-2.62h-26.65c-1.32,0-2.38-1.07-2.38-2.38s1.07-2.38,2.38-2.38h26.65c1.32,0,2.38,1.07,2.38,2.38s-1.07,2.38-2.38,2.38Zm8.95-52.28c0-1.32,1.07-2.38,2.38-2.38h28.72c1.32,0,2.38,1.07,2.38,2.38s-1.07,2.38-2.38,2.38h-28.72c-1.32,0-2.38-1.07-2.38-2.38Zm53.99,98.06h-43.13c-1.32,0-2.38-1.07-2.38-2.38s1.07-2.38,2.38-2.38h43.13c1.32,0,2.38,1.07,2.38,2.38s-1.07,2.38-2.38,2.38Zm0-45.78h-43.13c-1.32,0-2.38-1.07-2.38-2.38s1.07-2.38,2.38-2.38h43.13c1.32,0,2.38,1.07,2.38,2.38s-1.07,2.38-2.38,2.38Zm3.32-49.9h-13.67c-1.32,0-2.38-1.07-2.38-2.38s1.07-2.38,2.38-2.38h13.67c1.32,0,2.38,1.07,2.38,2.38s-1.07,2.38-2.38,2.38Zm26.28,0h-13.67c-1.32,0-2.38-1.07-2.38-2.38s1.07-2.38,2.38-2.38h13.67c1.32,0,2.38,1.07,2.38,2.38s-1.07,2.38-2.38,2.38Z" style="fill:none; stroke-width:0px;"/><circle cx="214.85" cy="311.85" r="6.13" transform="translate(-157.58 243.26) rotate(-45)" style="fill:none; stroke-width:0px;"/><circle cx="214.85" cy="265.74" r="6.13" transform="translate(-55.31 56.47) rotate(-13.28)" style="fill:none; stroke-width:0px;"/><circle cx="214.85" cy="219.96" r="6.13" transform="translate(-70.59 334.29) rotate(-67.5)" style="fill:none; stroke-width:0px;"/><path d="m16.52,134.53v225.61c0,5,4.06,9.06,9.06,9.06h81.89v-234.67H16.52Zm10.68,17.28h31.29c3.08-.05,3.1,4.81,0,4.77,0,0-31.29,0-31.29,0-3.08.05-3.1-4.81,0-4.77Zm0,15.7c1.2,1.18,57.51-2.8,54.97,2.38,2.78,5.16-54.04,1.23-54.97,2.39-3.08.04-3.1-4.81,0-4.77Zm0,15.7h44.25c1.32,0,2.38,1.07,2.38,2.38s-1.07,2.38-2.38,2.38H27.2c-3.08.05-3.1-4.81,0-4.77Zm0,47.09h37.1c1.32,0,2.38,1.07,2.38,2.38s-1.07,2.38-2.38,2.38H27.2c-3.08.05-3.1-4.81,0-4.77Zm-2.38-13.31c-2.73-4.96,43.24-1.35,44.26-2.38,1.32,0,2.38,1.07,2.38,2.38,2.73,4.96-43.24,1.35-44.26,2.38-1.32,0-2.38-1.07-2.38-2.38Zm51.32,33.78c-1.37-1.17-53.58,2.78-51.32-2.38-2.4-5.15,50.18-1.23,51.32-2.39,3.08-.04,3.1,4.81,0,4.77Zm11.92-47.09c-1.09-1.23-66,2.88-63.24-2.38-3.03-5.23,62.46-1.18,63.24-2.39,3.07-.04,3.1,4.81,0,4.77Z" style="fill:#0070ba; stroke-width:0px;"/><path d="m107.97,369.7H25.58c-5.27,0-9.56-4.29-9.56-9.56v-226.11h91.95v235.67ZM17.02,135.03v225.11c0,4.72,3.84,8.56,8.56,8.56h81.39v-233.67H17.02Zm59.12,116.23H27.2c-1.59,0-2.88-1.29-2.88-2.88s1.29-2.88,2.88-2.88h48.93c3.72-.05,3.75,5.82,0,5.77Zm-48.93-4.77c-2.43-.03-2.45,3.8,0,3.77,1.04-.99,52.62,2.31,50.82-1.88,2.01-4.18-50.01-.9-50.82-1.88Zm37.1-10.93H27.2c-1.59,0-2.88-1.29-2.88-2.88s1.29-2.88,2.88-2.88h37.1c3.73-.05,3.75,5.82,0,5.77Zm-37.1-4.77c-2.43-.03-2.45,3.8,0,3.77,1.16-.92,40.57,2.2,38.98-1.88,1.76-4.07-38.01-.98-38.98-1.88Zm41.88-10.93H27.2c-1.59,0-2.88-1.29-2.88-2.88s1.29-2.88,2.88-2.88h41.88c3.73-.05,3.75,5.82,0,5.77Zm-41.88-4.77c-2.43-.03-2.45,3.8,0,3.77.93-.93,45.81,2.21,43.76-1.88,2.24-4.07-43.05-.97-43.76-1.88Zm60.86-10.93c-1.57-1.4-66.79,3.35-63.74-2.88-3.21-6.22,62.53-1.5,63.74-2.89,3.72-.05,3.75,5.82,0,5.77Zm-60.86-4.77c-2.42-.03-2.45,3.8,0,3.77,0,0,60.86,0,60.86,0,1.04,0,1.88-.84,1.88-1.88s-.84-1.88-1.88-1.88H27.2Zm44.25-10.93H27.2c-1.59,0-2.88-1.29-2.88-2.88s1.29-2.88,2.88-2.88h44.25c3.73-.05,3.75,5.82,0,5.77Zm-44.25-4.77c-2.43-.03-2.45,3.8,0,3.77,1.11-.98,47.81,2.29,46.13-1.88,1.88-4.15-45.24-.92-46.13-1.88Zm52.58-10.93H27.2c-1.59,0-2.88-1.29-2.88-2.88s1.29-2.88,2.88-2.88h52.58c3.72-.05,3.75,5.82,0,5.77Zm-52.58-4.77c-2.43-.03-2.45,3.8,0,3.77.83-.94,56.6,2.24,54.47-1.88,2.34-4.1-53.87-.95-54.47-1.88Zm31.29-10.93h-31.29c-3.73.05-3.75-5.82,0-5.77,0,0,31.29,0,31.29,0,3.73-.05,3.75,5.82,0,5.77Zm-31.29-4.77c-2.43-.03-2.45,3.8,0,3.77,1.09-.83,34.99,2.05,33.17-1.88,1.87-3.92-32.23-1.06-33.17-1.88Z" style="fill:#0070ba; stroke-width:0px;"/><path d="m140.36,172.45h65.31c1.32,0,2.38-1.07,2.38-2.38s-1.07-2.38-2.38-2.38h-65.31c-1.32,0-2.38,1.07-2.38,2.38s1.07,2.38,2.38,2.38Z" style="fill:#cae3f4; stroke-width:0px;"/><path d="m440.14,167.68h-13.67c-1.32,0-2.38,1.07-2.38,2.38s1.07,2.38,2.38,2.38h13.67c1.32,0,2.38-1.07,2.38-2.38s-1.07-2.38-2.38-2.38Z" style="fill:#cae3f4; stroke-width:0px;"/><path d="m413.86,167.68h-13.67c-1.32,0-2.38,1.07-2.38,2.38s1.07,2.38,2.38,2.38h13.67c1.32,0,2.38-1.07,2.38-2.38s-1.07-2.38-2.38-2.38Z" style="fill:#cae3f4; stroke-width:0px;"/><path d="m390.03,170.06c0-1.32-1.07-2.38-2.38-2.38h-28.72c-1.32,0-2.38,1.07-2.38,2.38s1.07,2.38,2.38,2.38h28.72c1.32,0,2.38-1.07,2.38-2.38Z" style="fill:#cae3f4; stroke-width:0px;"/><path d="m27.2,156.57h31.29c1.32,0,2.38-1.07,2.38-2.38s-1.07-2.38-2.38-2.38h-31.29c-1.32,0-2.38,1.07-2.38,2.38s1.07,2.38,2.38,2.38Z" style="fill:#cae3f4; stroke-width:0px;"/><path d="m27.2,172.27h52.58c1.32,0,2.38-1.07,2.38-2.38s-1.07-2.38-2.38-2.38H27.2c-1.32,0-2.38,1.07-2.38,2.38s1.07,2.38,2.38,2.38Z" style="fill:#cae3f4; stroke-width:0px;"/><path d="m27.2,187.96h44.25c1.32,0,2.38-1.07,2.38-2.38s-1.07-2.38-2.38-2.38H27.2c-1.32,0-2.38,1.07-2.38,2.38s1.07,2.38,2.38,2.38Z" style="fill:#cae3f4; stroke-width:0px;"/><path d="m88.06,198.9H27.2c-1.32,0-2.38,1.07-2.38,2.38s1.07,2.38,2.38,2.38h60.86c1.32,0,2.38-1.07,2.38-2.38s-1.07-2.38-2.38-2.38Z" style="fill:#cae3f4; stroke-width:0px;"/><path d="m27.2,219.36h41.88c1.32,0,2.38-1.07,2.38-2.38s-1.07-2.38-2.38-2.38H27.2c-1.32,0-2.38,1.07-2.38,2.38s1.07,2.38,2.38,2.38Z" style="fill:#cae3f4; stroke-width:0px;"/><path d="m27.2,235.06h37.1c1.32,0,2.38-1.07,2.38-2.38s-1.07-2.38-2.38-2.38H27.2c-1.32,0-2.38,1.07-2.38,2.38s1.07,2.38,2.38,2.38Z" style="fill:#cae3f4; stroke-width:0px;"/><path d="m76.14,245.99H27.2c-1.32,0-2.38,1.07-2.38,2.38s1.07,2.38,2.38,2.38h48.93c1.32,0,2.38-1.07,2.38-2.38s-1.07-2.38-2.38-2.38Z" style="fill:#cae3f4; stroke-width:0px;"/><path d="m107.47,369.2H25.58c-5,0-9.06-4.06-9.06-9.06v-225.61h443.83v133.37c0,1.25,1.01,2.27,2.27,2.27h0c1.25,0,2.27-1.01,2.27-2.27V112.12s-452.89,0-452.89,0v248.01c0,7.51,6.09,13.59,13.59,13.59h303.9c1.25,0,2.27-1.01,2.27-2.27h0c0-1.25-1.01-2.27-2.27-2.27H107.47Z" style="fill:#0070ba; stroke-width:0px;"/><path d="m464.88,112.12v-23.1c0-7.82-6.36-14.18-14.18-14.18H26.17c-7.82,0-14.18,6.36-14.18,14.18v23.1h452.89Zm-394.92-17.72c0,3.18-2.59,5.77-5.77,5.77s-5.77-2.59-5.77-5.77,2.59-5.77,5.77-5.77,5.77,2.59,5.77,5.77Zm-18.02,0c0,3.18-2.59,5.77-5.77,5.77s-5.77-2.59-5.77-5.77,2.59-5.77,5.77-5.77,5.77,2.59,5.77,5.77Zm-18.02,0c0,3.18-2.59,5.77-5.77,5.77s-5.77-2.59-5.77-5.77,2.59-5.77,5.77-5.77,5.77,2.59,5.77,5.77Z" style="fill:#cae3f4; stroke-width:0px;"/><path d="m22.38,94.4c0,3.18,2.59,5.77,5.77,5.77s5.77-2.59,5.77-5.77-2.59-5.77-5.77-5.77-5.77,2.59-5.77,5.77Z" style="fill:#0070ba; stroke-width:0px;"/><path d="m40.4,94.4c0,3.18,2.59,5.77,5.77,5.77s5.77-2.59,5.77-5.77-2.59-5.77-5.77-5.77-5.77,2.59-5.77,5.77Z" style="fill:#0070ba; stroke-width:0px;"/><path d="m58.42,94.4c0,3.18,2.59,5.77,5.77,5.77s5.77-2.59,5.77-5.77-2.59-5.77-5.77-5.77-5.77,2.59-5.77,5.77Z" style="fill:#0070ba; stroke-width:0px;"/><path d="m183.49,217.58h-43.13c-1.32,0-2.38,1.07-2.38,2.38s1.07,2.38,2.38,2.38h43.13c1.32,0,2.38-1.07,2.38-2.38s-1.07-2.38-2.38-2.38Z" style="fill:#0070ba; stroke-width:0px;"/><path d="m410.54,217.58h-43.13c-1.32,0-2.38,1.07-2.38,2.38s1.07,2.38,2.38,2.38h43.13c1.32,0,2.38-1.07,2.38-2.38s-1.07-2.38-2.38-2.38Z" style="fill:#0070ba; stroke-width:0px;"/><path d="m347.6,217.58h-26.65c-1.32,0-2.38,1.07-2.38,2.38s1.07,2.38,2.38,2.38h26.65c1.32,0,2.38-1.07,2.38-2.38s-1.07-2.38-2.38-2.38Z" style="fill:#0070ba; stroke-width:0px;"/><path d="m301.44,214.96h-60.85c-2.76,0-5,2.24-5,5s2.24,5,5,5h60.85c2.76,0,5-2.24,5-5s-2.24-5-5-5Z" style="fill:#66cb92; stroke-width:0px;"/><path d="m214.85,206.83c-7.25,0-13.13,5.88-13.13,13.13s5.88,13.13,13.13,13.13,13.13-5.88,13.13-13.13-5.88-13.13-13.13-13.13Zm0,19.26c-3.38,0-6.13-2.75-6.13-6.13s2.75-6.13,6.13-6.13,6.13,2.75,6.13,6.13-2.75,6.13-6.13,6.13Z" style="fill:#66cb92; stroke-width:0px;"/><path d="m450.42,364.45c0-.3-.18-.56-.45-.67l-9.6-.71-.34-1.19c-.87-3.04-2.11-5.97-3.68-8.72l-.62-1.08,6.24-7.33c.11-.27.05-.58-.16-.79l-11.18-11.18c-.21-.21-.52-.27-.79-.16l-7.33,6.23-1.08-.62c-2.75-1.57-5.68-2.81-8.72-3.68l-1.19-.34-.71-9.6c-.11-.27-.38-.44-.67-.44h-16.87c-.3,0-.56.18-.67.44l-.71,9.6-1.19.34c-3.04.87-5.97,2.11-8.72,3.68l-1.08.62-7.33-6.23c-.26-.11-.58-.05-.79.16l-11.18,11.18c-.21.21-.27.52-.16.79l6.23,7.33-.62,1.08c-1.57,2.75-2.8,5.68-3.68,8.72l-.34,1.19-9.6.71c-.27.11-.44.38-.44.67v16.87c0,.3.18.56.44.67l9.6.71.34,1.19c.87,3.04,2.11,5.97,3.68,8.72l.62,1.08-6.23,7.33c-.11.27-.05.58.16.79l11.18,11.18c.21.21.52.27.79.16l7.33-6.24,1.08.62c2.75,1.57,5.68,2.81,8.72,3.68l1.19.34.71,9.6c.11.27.38.44.67.44h16.87c.3,0,.56-.18.67-.44l.71-9.6,1.19-.34c3.04-.87,5.97-2.11,8.72-3.68l1.08-.62,7.33,6.24c.27.1.58.05.79-.16l11.18-11.18c.21-.21.27-.52.16-.79l-6.24-7.33.62-1.08c1.57-2.75,2.8-5.68,3.67-8.72l.34-1.19,9.6-.71c.27-.11.45-.38.45-.67v-16.87Zm-48.71,34.14c-14.17,0-25.7-11.53-25.7-25.7s11.53-25.7,25.7-25.7,25.7,11.53,25.7,25.7-11.53,25.7-25.7,25.7Z" style="fill:#cae3f4; stroke-width:0px;"/><path d="m453.99,364.45c0-1.96-1.33-3.67-3.23-4.16l-7.65-.59c-.79-2.49-1.81-4.9-3.04-7.21l4.76-5.59.18-.25c.99-1.68.71-3.83-.67-5.21l-11.18-11.18c-1.38-1.38-3.52-1.66-5.21-.67l-5.85,4.94c-2.31-1.23-4.72-2.25-7.21-3.04l-.54-7.34-.05-.31c-.49-1.9-2.2-3.23-4.16-3.23h-16.87c-1.96,0-3.67,1.33-4.16,3.23l-.59,7.65c-2.49.79-4.9,1.81-7.21,3.04l-5.59-4.76-.25-.18c-1.68-.99-3.83-.72-5.21.67l-11.18,11.18c-1.38,1.38-1.65,3.52-.67,5.21l4.94,5.85c-1.23,2.3-2.25,4.72-3.04,7.21l-7.34.54-.31.05c-1.9.49-3.23,2.2-3.23,4.16v16.87c0,1.96,1.33,3.67,3.23,4.16l7.65.59c.79,2.49,1.81,4.9,3.04,7.21l-4.76,5.59-.18.25c-.99,1.68-.71,3.82.67,5.21l11.18,11.18c1.38,1.38,3.52,1.66,5.21.67l5.85-4.94c2.31,1.23,4.72,2.25,7.21,3.04l.54,7.34.05.31c.48,1.9,2.2,3.23,4.16,3.23h16.87c1.96,0,3.67-1.33,4.16-3.23l.59-7.65c2.49-.79,4.9-1.81,7.21-3.04l5.59,4.76.25.18c1.69.99,3.83.71,5.21-.67l11.18-11.18c1.38-1.38,1.66-3.52.67-5.21l-4.94-5.85c1.23-2.3,2.25-4.72,3.04-7.21l7.34-.54.31-.05c1.9-.49,3.23-2.2,3.23-4.16v-16.87Zm-4.01,17.54l-9.6.71-.34,1.19c-.87,3.04-2.11,5.97-3.67,8.72l-.62,1.08,6.24,7.33c.11.27.05.58-.16.79l-11.18,11.18c-.21.21-.52.27-.79.16l-7.33-6.24-1.08.62c-2.75,1.57-5.68,2.8-8.72,3.68l-1.19.34-.71,9.6c-.11.27-.38.44-.67.44h-16.87c-.3,0-.56-.18-.67-.44l-.71-9.6-1.19-.34c-3.04-.87-5.97-2.11-8.72-3.68l-1.08-.62-7.33,6.24c-.27.11-.58.05-.79-.16l-11.18-11.18c-.21-.21-.27-.52-.16-.79l6.23-7.33-.62-1.08c-1.57-2.75-2.8-5.68-3.68-8.72l-.34-1.19-9.6-.71c-.27-.11-.44-.38-.44-.67v-16.87c0-.3.18-.56.44-.67l9.6-.71.34-1.19c.87-3.04,2.11-5.97,3.68-8.72l.62-1.08-6.23-7.33c-.11-.27-.05-.58.16-.79l11.18-11.18c.21-.21.52-.27.79-.16l7.33,6.23,1.08-.62c2.75-1.57,5.68-2.81,8.72-3.68l1.19-.34.71-9.6c.11-.27.38-.44.67-.44h16.87c.3,0,.56.18.67.44l.71,9.6,1.19.34c3.04.87,5.97,2.11,8.72,3.68l1.08.62,7.33-6.23c.27-.11.58-.05.79.16l11.18,11.18c.21.21.27.52.16.79l-6.24,7.33.62,1.08c1.57,2.75,2.8,5.68,3.68,8.72l.34,1.19,9.6.71c.27.11.45.38.45.67v16.87c0,.3-.18.56-.45.67Z" style="fill:#0070ba; stroke-width:0px;"/><path d="m427.41,372.89c0-14.17-11.53-25.7-25.7-25.7s-25.7,11.53-25.7,25.7,11.53,25.7,25.7,25.7,25.7-11.53,25.7-25.7Zm-25.7,22.14c-12.21,0-22.14-9.93-22.14-22.14s9.93-22.14,22.14-22.14,22.14,9.93,22.14,22.14-9.93,22.14-22.14,22.14Z" style="fill:#0070ba; stroke-width:0px;"/><path d="m343.96,258.52c-.66-.66-1.73-.66-2.4,0l-10.85,10.85-3.74-3.74c-.66-.66-1.73-.66-2.4,0-.66.66-.66,1.73,0,2.4l4.94,4.94c.33.33.76.5,1.2.5.37,0,.73-.12,1.03-.36.06-.04.11-.08.17-.14l2.8-2.8,9.25-9.25c.66-.66.66-1.73,0-2.4Z" style="fill:#0070ba; stroke-width:0px;"/><path d="m183.49,263.36h-43.13c-1.32,0-2.38,1.07-2.38,2.38s1.07,2.38,2.38,2.38h43.13c1.32,0,2.38-1.07,2.38-2.38s-1.07-2.38-2.38-2.38Z" style="fill:#0070ba; stroke-width:0px;"/><path d="m301.44,260.74h-60.85c-2.76,0-5,2.24-5,5s2.24,5,5,5h60.85c2.76,0,5-2.24,5-5s-2.24-5-5-5Z" style="fill:#0070ba; stroke-width:0px;"/><path d="m214.85,252.61c-7.25,0-13.13,5.88-13.13,13.13s5.88,13.13,13.13,13.13,13.13-5.88,13.13-13.13-5.88-13.13-13.13-13.13Zm0,19.26c-3.38,0-6.13-2.75-6.13-6.13s2.75-6.13,6.13-6.13,6.13,2.75,6.13,6.13-2.75,6.13-6.13,6.13Z" style="fill:#0070ba; stroke-width:0px;"/><path d="m183.49,309.47h-43.13c-1.32,0-2.38,1.07-2.38,2.38s1.07,2.38,2.38,2.38h43.13c1.32,0,2.38-1.07,2.38-2.38s-1.07-2.38-2.38-2.38Z" style="fill:#0070ba; stroke-width:0px;"/><path d="m318.56,311.85c0,1.32,1.07,2.38,2.38,2.38h26.65c1.32,0,2.38-1.07,2.38-2.38s-1.07-2.38-2.38-2.38h-26.65c-1.32,0-2.38,1.07-2.38,2.38Z" style="fill:#0070ba; stroke-width:0px;"/><path d="m214.85,298.72c-7.25,0-13.13,5.88-13.13,13.13s5.88,13.13,13.13,13.13,13.13-5.88,13.13-13.13-5.88-13.13-13.13-13.13Zm0,19.26c-3.38,0-6.13-2.75-6.13-6.13s2.75-6.13,6.13-6.13,6.13,2.75,6.13,6.13-2.75,6.13-6.13,6.13Z" style="fill:#66cb92; stroke-width:0px;"/><path d="m301.44,306.85h-60.85c-2.76,0-5,2.24-5,5s2.24,5,5,5h60.85c2.76,0,5-2.24,5-5s-2.24-5-5-5Z" style="fill:#66cb92; stroke-width:0px;"/><path d="m486.63,309.82l-3.26-.25c-.34-1.06-.77-2.09-1.29-3.07l2.03-2.38.08-.11c.42-.72.3-1.63-.28-2.22l-4.76-4.76c-.59-.59-1.5-.71-2.22-.28l-2.49,2.1c-.98-.52-2.01-.96-3.07-1.29l-.23-3.13-.02-.13c-.21-.81-.93-1.38-1.77-1.38h-7.19c-.84,0-1.56.57-1.77,1.38l-.25,3.26c-1.06.34-2.09.77-3.07,1.29l-2.38-2.03-.11-.08c-.72-.42-1.63-.3-2.22.28l-4.76,4.76c-.59.59-.71,1.5-.28,2.22l2.1,2.49c-.52.98-.96,2.01-1.29,3.07l-3.13.23-.13.02c-.81.21-1.38.94-1.38,1.77v7.19c0,.84.57,1.57,1.38,1.77l3.26.25c.34,1.06.77,2.09,1.29,3.07l-2.03,2.38-.08.11c-.42.72-.31,1.63.28,2.22l4.76,4.76c.59.59,1.5.71,2.22.28l2.49-2.1c.98.52,2.01.96,3.07,1.29l.23,3.13.02.13c.21.81.94,1.38,1.77,1.38h7.19c.84,0,1.57-.57,1.77-1.38l.25-3.26c1.06-.34,2.09-.77,3.07-1.29l2.38,2.03.11.08c.72.42,1.63.31,2.22-.28l4.76-4.76c.59-.59.7-1.5.28-2.22l-2.1-2.49c.52-.98.96-2.01,1.29-3.07l3.13-.23.13-.02c.81-.21,1.38-.94,1.38-1.77v-7.19c0-.84-.57-1.57-1.38-1.77Zm-11.46,5.37c0,5.2-4.23,9.43-9.43,9.43s-9.43-4.23-9.43-9.43,4.23-9.43,9.43-9.43,9.43,4.23,9.43,9.43Z" style="fill:#0070ba; stroke-width:0px;"/><path d="m410.54,263.36h-43.13c-1.32,0-2.38,1.07-2.38,2.38s1.07,2.38,2.38,2.38h43.13c1.32,0,2.38-1.07,2.38-2.38s-1.07-2.38-2.38-2.38Z" style="fill:#0070ba; stroke-width:0px;"/></svg>