<?xml version="1.0" encoding="UTF-8"?><svg id="a" xmlns="http://www.w3.org/2000/svg" viewBox="0 0 500 500"><path d="m490.92,436.37h-37.83v-163.25l-17.93,10.11v153.14H68.96v-222.46c0-1.02.83-1.84,1.84-1.84h152.03v-17.51H67.55c-9.16,0-16.61,7.45-16.61,16.61v225.2H9.08c-1.45,0-2.63,1.18-2.63,2.63v2.43c0,11.59,9.43,21.01,21.01,21.01h445.08c11.59,0,21.01-9.43,21.01-21.01v-2.43c0-1.45-1.18-2.63-2.63-2.63Zm-193.52,13.04c0,1.45-1.18,2.63-2.63,2.63h-89.52c-1.45,0-2.63-1.18-2.63-2.63s1.18-2.63,2.63-2.63h89.52c1.45,0,2.63,1.18,2.63,2.63Z" style="fill:#66cb92; stroke-width:0px;"/><path d="m205.24,446.78c-1.45,0-2.63,1.18-2.63,2.63s1.18,2.63,2.63,2.63h89.52c1.45,0,2.63-1.18,2.63-2.63s-1.18-2.63-2.63-2.63h-89.52Z" style="fill:#fff; stroke-width:0px;"/><path d="m242.99,396.4c0-4.71-3.83-8.55-8.55-8.55s-8.55,3.83-8.55,8.55,3.83,8.55,8.55,8.55,8.55-3.83,8.55-8.55Z" style="fill:#cae3f4; stroke-width:0px;"/><path d="m229.09,331.65c0-4.71-3.83-8.55-8.55-8.55s-8.55,3.83-8.55,8.55,3.83,8.55,8.55,8.55,8.55-3.83,8.55-8.55Z" style="fill:#cae3f4; stroke-width:0px;"/><path d="m239.38,117.05v102.35c0,10.14,5.49,19.53,14.32,24.51l14.41,8.13-.03,11.77h-35.55c-.43,0-.84.17-1.14.48l-11.89,11.94c-.06,0-.11-.02-.17-.02h0l-24.39.05-9.1-8.56s.02-.02.03-.02c4.59-4.59,4.59-12.05,0-16.64-4.59-4.59-12.05-4.59-16.64,0-4.58,4.59-4.58,12.05,0,16.64,2.29,2.29,5.31,3.44,8.32,3.44,1.96,0,3.91-.49,5.67-1.46l9.77,9.2s.07.04.11.07c.29.34.73.56,1.21.56h0l22-.05-16.69,16.76-44.51-.07h0c-.06,0-.12.01-.18.02-.43-.02-.87.13-1.2.46l-9.06,9.06-24.19.05-9.1-8.56s.02-.02.03-.02c4.59-4.59,4.59-12.05,0-16.64-4.59-4.59-12.05-4.59-16.64,0-4.59,4.59-4.59,12.05,0,16.64,2.29,2.29,5.31,3.44,8.32,3.44,1.96,0,3.91-.49,5.67-1.46l9.77,9.2s.07.04.11.07c.29.34.73.56,1.21.56h0l21.59-.04-31.88,31.87c-.1.1-.18.22-.25.34-1.9-1.32-4.2-2.1-6.69-2.1-6.49,0-11.76,5.28-11.76,11.76s5.28,11.76,11.76,11.76,11.76-5.28,11.76-11.76c0-2.88-1.04-5.51-2.76-7.56.07-.05.15-.11.21-.17l43.7-43.7,40.89.07-63.76,64.01c-.1.1-.18.22-.25.33-.17.26-.28.57-.28.9v23.1c-5.73.79-10.15,5.7-10.15,11.64,0,6.49,5.28,11.76,11.76,11.76s11.76-5.28,11.76-11.76c0-5.94-4.43-10.85-10.16-11.64v-22.48l25.48-25.58.04,22.62c0,.43.17.83.47,1.13l11.19,11.19c-1.33,1.91-2.12,4.22-2.12,6.71,0,6.49,5.28,11.76,11.76,11.76s11.76-5.28,11.76-11.76-5.28-11.76-11.76-11.76c-2.83,0-5.43,1.01-7.47,2.68l-10.63-10.63-.04-25.03s0-.09-.01-.13l69.18-69.45h34.88s-.04,14.87-.04,14.87l-40.39,40.39c-1.97-1.5-4.43-2.4-7.09-2.4-6.49,0-11.76,5.28-11.76,11.76s5.28,11.76,11.76,11.76,11.76-5.28,11.76-11.76c0-2.66-.9-5.12-2.4-7.09l38.1-38.1-.14,49.25-34.57,34.57c-.3.3-.47.71-.47,1.14v13.34c-5.73.79-10.15,5.7-10.15,11.64,0,6.49,5.28,11.76,11.76,11.76s11.76-5.28,11.76-11.76c0-5.94-4.43-10.85-10.16-11.64v-12.68l34.57-34.57c.3-.3.47-.71.47-1.13l.23-82.53,21.19,11.95-.03,31.71c0,.46.19.87.5,1.16.03.04.07.09.11.13l15.52,16.1s.08.07.12.1c-3.37,4.6-2.99,11.1,1.16,15.26,2.29,2.29,5.31,3.44,8.32,3.44s6.02-1.15,8.32-3.44c4.59-4.59,4.59-12.05,0-16.64-4.25-4.25-10.97-4.55-15.58-.93,0,0-.01-.02-.02-.03l-15.22-15.79.03-29.26,49.38,27.85c4.21,2.37,8.99,3.63,13.82,3.63s9.61-1.25,13.82-3.63l91.41-51.55c8.83-4.98,14.32-14.37,14.32-24.51v-102.35c0-2.75-.41-5.43-1.18-7.99-2.05-6.9-6.7-12.89-13.14-16.52l-91.41-51.55c-4.21-2.37-8.99-3.63-13.82-3.63s-9.61,1.25-13.82,3.63l-91.41,51.55c-2.06,1.16-3.94,2.58-5.61,4.18-5.48,5.24-8.71,12.57-8.71,20.33Zm-67.89,148.34c-3.33-3.33-3.33-8.75,0-12.09,1.67-1.67,3.85-2.5,6.04-2.5s4.38.83,6.04,2.5c3.33,3.33,3.33,8.75,0,12.09s-8.75,3.33-12.09,0Zm-74.47,29.45c-3.33-3.33-3.33-8.75,0-12.09,1.67-1.67,3.85-2.5,6.04-2.5s4.38.83,6.04,2.5c3.33,3.33,3.33,8.75,0,12.09s-8.75,3.33-12.09,0Zm-2.96,55.92c0-4.71,3.83-8.55,8.55-8.55s8.55,3.83,8.55,8.55-3.83,8.55-8.55,8.55-8.55-3.83-8.55-8.55Zm88.11,22.04c4.71,0,8.55,3.83,8.55,8.55s-3.83,8.55-8.55,8.55-8.55-3.83-8.55-8.55,3.83-8.55,8.55-8.55Zm-56.98,26.58c0-4.71,3.83-8.55,8.55-8.55s8.55,3.83,8.55,8.55-3.83,8.55-8.55,8.55-8.55-3.83-8.55-8.55Zm100.72-2.98c0-4.71,3.83-8.55,8.55-8.55s8.55,3.83,8.55,8.55-3.83,8.55-8.55,8.55-8.55-3.83-8.55-8.55Zm-13.9-64.75c0-4.71,3.83-8.55,8.55-8.55s8.55,3.83,8.55,8.55-3.83,8.55-8.55,8.55-8.55-3.83-8.55-8.55Zm100.16-3.67c-3.33-3.33-3.33-8.75,0-12.09,1.67-1.67,3.85-2.5,6.04-2.5s4.38.83,6.04,2.5c3.33,3.33,3.33,8.75,0,12.09s-8.75,3.33-12.09,0Zm156.58-108.58c0,6.64-3.58,12.77-9.37,16.03l-91.41,51.55c-2.81,1.58-5.92,2.37-9.04,2.37s-6.24-.79-9.04-2.37l-91.41-51.55c-5.79-3.26-9.37-9.39-9.37-16.03v-102.35c0-6.64,3.58-12.77,9.37-16.03l91.41-51.55c2.81-1.58,5.92-2.37,9.04-2.37s6.24.79,9.04,2.37l91.41,51.55c5.79,3.26,9.37,9.39,9.37,16.03v102.35Z" style="fill:#0070ba; stroke-width:0px;"/><path d="m316.11,212.89h-15.3v5.34h8.69c-.11,5.38-3.7,8.78-9.37,8.78-6.31,0-10.64-4.73-10.64-13.27s4.4-13.2,10.49-13.2c4.55,0,7.66,2.43,8.85,6.43h6.96c-1.16-7.4-7.57-12.55-15.91-12.55-9.87,0-17.27,7.25-17.27,19.4s7.07,19.33,17.47,19.33c9.33,0,16.02-6,16.02-15.72v-4.53Z" style="fill:#111; stroke-width:0px;"/><path d="m324.07,192.63c-2.12,0-3.86,1.62-3.86,3.63s1.72,3.61,3.85,3.61h.01c2.12,0,3.85-1.62,3.85-3.61s-1.73-3.63-3.85-3.63Z" style="fill:#111; stroke-width:0px;"/><rect x="320.71" y="204.36" width="6.66" height="28.26" style="fill:#111; stroke-width:0px;"/><path d="m344.77,227.41c-1.68,0-3.02-.59-3.02-3.28v-14.63h5.58v-5.14h-5.58v-6.79h-6.66v6.79h-4.01v5.15h4.01v15.72c-.04,5.32,3.83,7.94,8.84,7.79,1.33-.03,2.66-.25,3.92-.66l-1.12-5.21c-.64.17-1.29.25-1.95.26Z" style="fill:#111; stroke-width:0px;"/><polygon points="359.32 194.92 352.49 194.92 352.49 232.62 375.92 232.62 375.92 226.9 359.32 226.9 359.32 194.92" style="fill:#111; stroke-width:0px;"/><path d="m403.62,213.7c0-7.47-6.09-9.72-11.49-9.72-5.95,0-10.51,2.65-11.98,7.8l6.22.89c.66-1.93,2.54-3.59,5.81-3.59,3.1,0,4.79,1.58,4.79,4.36v.11c0,1.91-2.01,2.01-7,2.54-5.48.59-10.73,2.23-10.73,8.6-.02,5.56,4.05,8.51,9.44,8.51,4.44,0,7.09-2.08,8.3-4.45h.22v3.88h6.42v-18.92Zm-6.21,8.79c.02,3.14-2.52,5.81-6.54,5.81h0c-2.78,0-4.77-1.26-4.77-3.71s2.23-3.63,5.19-4.05c1.75-.24,5.25-.68,6.11-1.38v3.33Z" style="fill:#111; stroke-width:0px;"/><path d="m423.55,203.98c-4.99,0-7.07,3-8.08,5.04h-.28v-14.1h-6.66v37.7h6.55v-4.45h.38c1.05,2.06,3.24,4.95,8.1,4.95,6.66,0,11.65-5.29,11.65-14.6s-5.14-14.54-11.67-14.54Zm-1.84,23.67c-4.25,0-6.65-3.68-6.65-9.17h0c0-5.5,2.36-9.04,6.65-9.04s6.72,3.77,6.72,9.04-2.32,9.17-6.72,9.17Z" style="fill:#111; stroke-width:0px;"/><path d="m358.92,152.78c-9.03,6.82-16.87,12.75-16.87,12.75h.01c.13-.09,7.91-5.98,16.86-12.73l26.48-20.02c4.8-3.59,10.34-6.08,16.21-7.29l-12.06-31.47c-.25-.62-.68-1.14-1.24-1.49-1.15-.71-2.62-.63-3.69.2-.52.42-.89.99-1.07,1.62l-8.14,24.91h-32.97l-8.14-24.91c-.18-.64-.55-1.21-1.07-1.63-1.07-.83-2.54-.91-3.69-.2-.56.36-.99.88-1.24,1.49l-12.08,31.45c5.88,1.21,11.41,3.71,16.21,7.31l26.49,20Z" style="fill:#e24329; stroke-width:0px;"/><path d="m358.92,152.79c8.99,6.78,16.82,12.71,16.87,12.75l18.47-13.83.05-.04c7.96-6.01,10.98-16.55,7.43-25.87l-.12-.32c-5.88,1.21-11.41,3.69-16.21,7.29l-26.48,20.02Z" style="fill:#fc6d26; stroke-width:0px;"/><path d="m358.92,152.79c-8.94,6.75-16.73,12.64-16.86,12.74,0,0-.01,0-.01,0l9.09,6.88,5.54,4.18c1.33,1.01,3.17,1.01,4.5,0l5.54-4.18,9.09-6.88s0,0,0,0c-.05-.04-7.88-5.96-16.87-12.75Z" style="fill:#fca326; stroke-width:0px;"/><path d="m323.54,151.66l.04.03.11.08,18.37,13.75s7.84-5.93,16.87-12.75l-26.49-20c-4.8-3.6-10.33-6.1-16.21-7.31l-.12.32c-3.57,9.32-.54,19.87,7.43,25.88Z" style="fill:#fc6d26; stroke-width:0px;"/><path d="m173.61,381.34c0,4.71,3.83,8.55,8.55,8.55s8.55-3.83,8.55-8.55-3.83-8.55-8.55-8.55-8.55,3.83-8.55,8.55Z" style="fill:#cae3f4; stroke-width:0px;"/><path d="m142.27,399.38c0-4.71-3.83-8.55-8.55-8.55s-8.55,3.83-8.55,8.55,3.83,8.55,8.55,8.55,8.55-3.83,8.55-8.55Z" style="fill:#cae3f4; stroke-width:0px;"/><path d="m111.14,350.75c0-4.71-3.83-8.55-8.55-8.55s-8.55,3.83-8.55,8.55,3.83,8.55,8.55,8.55,8.55-3.83,8.55-8.55Z" style="fill:#cae3f4; stroke-width:0px;"/><path d="m324.24,315.89c-1.67-1.67-3.85-2.5-6.04-2.5s-4.38.83-6.04,2.5c-3.33,3.33-3.33,8.75,0,12.09s8.75,3.33,12.09,0,3.33-8.75,0-12.09Z" style="fill:#cae3f4; stroke-width:0px;"/><path d="m109.1,282.75c-1.67-1.67-3.85-2.5-6.04-2.5s-4.38.83-6.04,2.5c-3.33,3.33-3.33,8.75,0,12.09s8.75,3.33,12.09,0,3.33-8.75,0-12.09Z" style="fill:#cae3f4; stroke-width:0px;"/><path d="m183.57,253.3c-1.67-1.67-3.85-2.5-6.04-2.5s-4.38.83-6.04,2.5c-3.33,3.33-3.33,8.75,0,12.09,3.33,3.33,8.75,3.33,12.09,0s3.33-8.75,0-12.09Z" style="fill:#cae3f4; stroke-width:0px;"/><path d="m319.6,406.71c-.92,0-1.66.74-1.66,1.66s.74,1.66,1.66,1.66,1.66-.74,1.66-1.66-.74-1.66-1.66-1.66Z" style="fill:#d5efdf; stroke-width:0px;"/><path d="m320.51,420.79h76.54c12.43,0,22.5-10.08,22.5-22.5h0c0-12.43-10.08-22.5-22.5-22.5h-76.54c-12.43,0-22.5,10.08-22.5,22.5h0c0,12.43,10.08,22.5,22.5,22.5Zm66.96-22.32c.43-1.12,1.1-2.27,2-3.48l5.37-7.21c.19-.25.46-.46.82-.64.36-.18.77-.26,1.24-.26h3.42l-6.68,8.17c-.14.18-.28.34-.41.5-.13.16-.26.32-.38.48.44-.22.9-.39,1.41-.51.5-.12,1.05-.19,1.64-.19.85,0,1.68.14,2.48.42s1.51.7,2.12,1.27,1.11,1.27,1.48,2.11c.37.84.56,1.82.56,2.94,0,1.05-.19,2.03-.58,2.95s-.92,1.72-1.62,2.4-1.53,1.22-2.51,1.62c-.98.39-2.06.59-3.24.59s-2.28-.19-3.24-.58c-.96-.38-1.77-.92-2.44-1.61-.67-.69-1.19-1.52-1.55-2.49-.36-.97-.54-2.05-.54-3.23,0-1.06.22-2.14.65-3.26Zm-7.1,2.89c-.11-.44-.35-.82-.72-1.13-.36-.31-.88-.56-1.56-.73-.68-.18-1.59-.26-2.73-.26v-2.75c.94,0,1.73-.08,2.35-.25.62-.17,1.12-.4,1.49-.69.37-.3.62-.65.77-1.07.15-.42.22-.87.22-1.37,0-1.07-.29-1.88-.87-2.42s-1.38-.82-2.38-.82c-.91,0-1.67.24-2.27.72-.6.48-1.02,1.1-1.26,1.86-.12.39-.29.68-.51.85-.22.17-.5.26-.86.26-.17,0-.34-.02-.53-.05l-2.02-.35c.16-1.08.46-2.03.9-2.84.45-.82,1-1.5,1.67-2.04s1.44-.95,2.3-1.23c.87-.28,1.8-.41,2.79-.41s1.97.15,2.81.44c.84.29,1.55.71,2.14,1.23.59.52,1.04,1.14,1.36,1.84.32.71.47,1.47.47,2.29,0,.72-.08,1.35-.24,1.89s-.39,1.02-.7,1.42-.68.75-1.12,1.03c-.44.28-.94.51-1.5.7,1.35.43,2.35,1.07,3.02,1.95s1,1.97,1,3.28c0,1.12-.21,2.11-.62,2.97-.42.86-.98,1.58-1.68,2.17-.71.59-1.52,1.03-2.45,1.33s-1.91.45-2.95.45c-1.13,0-2.12-.13-2.96-.39-.84-.26-1.57-.64-2.19-1.15-.62-.51-1.15-1.13-1.59-1.87-.44-.74-.81-1.59-1.12-2.55l1.7-.7c.29-.12.59-.19.89-.19.27,0,.51.06.72.17.21.11.38.28.49.5.19.36.39.72.61,1.07s.49.67.8.94c.31.28.68.5,1.1.67.42.17.92.26,1.5.26.65,0,1.22-.11,1.71-.32.49-.21.89-.49,1.22-.83s.57-.72.73-1.14c.16-.42.24-.84.24-1.27,0-.54-.06-1.03-.17-1.47Zm-20.33-14.48h3.63v8.9c0,.94-.05,1.87-.14,2.78-.09.91-.22,1.87-.37,2.89h-2.6c-.16-1.02-.28-1.98-.37-2.89-.09-.91-.14-1.83-.14-2.78v-8.9Zm-.41,19.47c.12-.29.29-.54.5-.75.21-.21.46-.37.75-.5.29-.12.6-.19.93-.19s.63.06.92.19c.29.12.54.29.75.5s.37.46.5.75c.12.29.19.6.19.92s-.06.64-.19.93c-.12.29-.29.53-.5.74-.21.21-.46.37-.75.49s-.6.18-.92.18-.64-.06-.93-.18c-.29-.12-.54-.28-.75-.49-.21-.21-.38-.45-.5-.74s-.18-.59-.18-.93.06-.63.18-.92Zm-32.9-19.07l4.98-4.98c.65-.65,1.7-.65,2.35,0s.65,1.7,0,2.35l-2.15,2.15h4.29c2.75,0,4.98,2.23,4.98,4.98v11.92c1.93.69,3.32,2.51,3.32,4.67,0,2.75-2.23,4.98-4.98,4.98s-4.98-2.23-4.98-4.98c0-2.16,1.39-3.99,3.32-4.67v-11.92c0-.92-.74-1.66-1.66-1.66h-4.29l2.15,2.14c.65.65.65,1.7,0,2.35-.32.32-.75.49-1.17.49s-.85-.16-1.17-.49l-4.98-4.98c-.08-.08-.15-.16-.21-.25-.01-.02-.02-.05-.04-.07-.04-.07-.08-.14-.12-.22-.01-.04-.02-.07-.03-.11-.02-.07-.05-.13-.06-.2-.02-.11-.03-.22-.03-.33s.01-.22.03-.33c.01-.07.04-.13.06-.2.01-.04.02-.08.03-.11.03-.07.07-.14.11-.21.01-.02.02-.05.04-.07.06-.09.13-.18.21-.25Zm-12.11,1.18c0-2.75,2.23-4.98,4.98-4.98s4.98,2.23,4.98,4.98c0,2.16-1.39,3.99-3.32,4.67v10.57c1.93.69,3.32,2.51,3.32,4.67,0,2.75-2.23,4.98-4.98,4.98s-4.98-2.23-4.98-4.98c0-2.16,1.39-3.99,3.32-4.67v-10.57c-1.93-.69-3.32-2.51-3.32-4.67Z" style="fill:#d5efdf; stroke-width:0px;"/><path d="m319.6,390.11c.92,0,1.66-.74,1.66-1.66s-.74-1.66-1.66-1.66-1.66.74-1.66,1.66.74,1.66,1.66,1.66Z" style="fill:#d5efdf; stroke-width:0px;"/><path d="m391.53,405.33c.34.36.75.65,1.25.85s1.07.3,1.73.3c.61,0,1.17-.1,1.69-.31.51-.21.95-.5,1.32-.87.37-.37.66-.81.86-1.32.21-.5.31-1.05.31-1.64,0-.64-.1-1.22-.3-1.74s-.48-.95-.84-1.31c-.36-.36-.8-.63-1.31-.82-.51-.19-1.07-.28-1.68-.28s-1.17.1-1.67.31c-.5.21-.93.5-1.28.86-.36.37-.63.8-.83,1.31s-.29,1.04-.29,1.63c0,.62.09,1.19.26,1.7.17.51.43.95.76,1.32Z" style="fill:#d5efdf; stroke-width:0px;"/><circle cx="339.52" cy="408.37" r="1.66" style="fill:#d5efdf; stroke-width:0px;"/><path d="m314.62,408.37c0,2.75,2.23,4.98,4.98,4.98s4.98-2.23,4.98-4.98c0-2.16-1.39-3.99-3.32-4.67v-10.57c1.93-.69,3.32-2.51,3.32-4.67,0-2.75-2.23-4.98-4.98-4.98s-4.98,2.23-4.98,4.98c0,2.16,1.39,3.99,3.32,4.67v10.57c-1.93.69-3.32,2.51-3.32,4.67Zm4.98,1.66c-.92,0-1.66-.74-1.66-1.66s.74-1.66,1.66-1.66,1.66.74,1.66,1.66-.74,1.66-1.66,1.66Zm0-23.24c.92,0,1.66.74,1.66,1.66s-.74,1.66-1.66,1.66-1.66-.74-1.66-1.66.74-1.66,1.66-1.66Z" style="fill:#66cb92; stroke-width:0px;"/><path d="m326.37,387.82s-.02.08-.03.11c-.02.07-.05.13-.06.2-.02.11-.03.22-.03.33s.01.22.03.33c.01.07.04.13.06.2.01.04.02.08.03.11.03.08.07.15.12.22.01.02.02.05.04.07.06.09.13.18.21.25l4.98,4.98c.32.32.75.49,1.17.49s.85-.16,1.17-.49c.65-.65.65-1.7,0-2.35l-2.15-2.14h4.29c.92,0,1.66.74,1.66,1.66v11.92c-1.93.69-3.32,2.51-3.32,4.67,0,2.75,2.23,4.98,4.98,4.98s4.98-2.23,4.98-4.98c0-2.16-1.39-3.99-3.32-4.67v-11.92c0-2.75-2.23-4.98-4.98-4.98h-4.29l2.15-2.15c.65-.65.65-1.7,0-2.35s-1.7-.65-2.35,0l-4.98,4.98c-.08.08-.15.16-.21.25-.02.02-.02.05-.04.07-.04.07-.08.14-.11.21Zm13.15,22.21c-.92,0-1.66-.74-1.66-1.66s.74-1.66,1.66-1.66,1.66.74,1.66,1.66-.74,1.66-1.66,1.66Z" style="fill:#66cb92; stroke-width:0px;"/><path d="m360.13,408.93c.21.21.46.37.75.49.29.12.6.18.93.18s.63-.06.92-.18.54-.28.75-.49c.21-.21.37-.45.5-.74.12-.29.19-.59.19-.93s-.06-.63-.19-.92c-.12-.29-.29-.54-.5-.75s-.46-.37-.75-.5c-.29-.12-.6-.19-.92-.19s-.64.06-.93.19c-.29.12-.54.29-.75.5-.21.21-.38.46-.5.75-.12.29-.18.6-.18.92s.06.64.18.93.29.53.5.74Z" style="fill:#66cb92; stroke-width:0px;"/><path d="m360.56,401.44h2.6c.16-1.02.28-1.98.37-2.89.09-.91.14-1.83.14-2.78v-8.9h-3.63v8.9c0,.94.05,1.87.14,2.78.09.91.22,1.87.37,2.89Z" style="fill:#66cb92; stroke-width:0px;"/><path d="m379.57,405.24c-.33.34-.73.62-1.22.83-.49.21-1.06.32-1.71.32-.58,0-1.08-.08-1.5-.26-.42-.17-.79-.39-1.1-.67-.31-.27-.58-.59-.8-.94s-.43-.71-.61-1.07c-.11-.22-.28-.38-.49-.5-.21-.11-.45-.17-.72-.17-.3,0-.6.06-.89.19l-1.7.7c.31.97.68,1.82,1.12,2.55.44.74.96,1.36,1.59,1.87.62.51,1.35.89,2.19,1.15.84.26,1.83.39,2.96.39,1.04,0,2.02-.15,2.95-.45s1.75-.74,2.45-1.33c.71-.59,1.27-1.31,1.68-2.17.42-.86.62-1.85.62-2.97,0-1.32-.33-2.41-1-3.28s-1.67-1.52-3.02-1.95c.56-.19,1.06-.42,1.5-.7.44-.28.81-.62,1.12-1.03s.54-.88.7-1.42.24-1.17.24-1.89c0-.82-.16-1.58-.47-2.29-.32-.71-.77-1.32-1.36-1.84-.59-.52-1.3-.93-2.14-1.23-.83-.3-1.77-.44-2.81-.44s-1.93.14-2.79.41c-.87.28-1.63.68-2.3,1.23s-1.23,1.22-1.67,2.04c-.45.81-.75,1.76-.9,2.84l2.02.35c.19.03.36.05.53.05.35,0,.64-.09.86-.26.22-.17.39-.45.51-.85.24-.76.66-1.38,1.26-1.86.6-.48,1.36-.72,2.27-.72,1.01,0,1.8.27,2.38.82s.87,1.35.87,2.42c0,.5-.07.95-.22,1.37-.14.42-.4.77-.77,1.07-.37.3-.86.53-1.49.69-.62.17-1.41.25-2.35.25v2.75c1.14,0,2.05.09,2.73.26.68.18,1.2.42,1.56.73.36.31.6.69.72,1.13.11.44.17.93.17,1.47,0,.43-.08.85-.24,1.27-.16.42-.4.8-.73,1.14Z" style="fill:#66cb92; stroke-width:0px;"/><path d="m388.91,407.44c.67.69,1.49,1.23,2.44,1.61.95.38,2.03.58,3.24.58s2.26-.2,3.24-.59c.98-.39,1.82-.93,2.51-1.62s1.23-1.49,1.62-2.4.58-1.9.58-2.95c0-1.12-.19-2.1-.56-2.94-.37-.84-.87-1.54-1.48-2.11s-1.32-.99-2.12-1.27-1.63-.42-2.48-.42c-.59,0-1.14.06-1.64.19-.5.12-.97.3-1.41.51.12-.17.25-.33.38-.48.13-.16.27-.32.41-.5l6.68-8.17h-3.42c-.47,0-.88.09-1.24.26-.36.18-.63.39-.82.64l-5.37,7.21c-.9,1.2-1.57,2.36-2,3.48s-.65,2.2-.65,3.26c0,1.18.18,2.26.54,3.23.36.97.87,1.8,1.55,2.49Zm1.89-6.75c.19-.5.47-.94.83-1.31.36-.37.79-.66,1.28-.86.5-.21,1.05-.31,1.67-.31s1.17.09,1.68.28c.51.19.94.46,1.31.82.36.36.64.79.84,1.31s.3,1.09.3,1.74c0,.59-.1,1.14-.31,1.64-.21.5-.5.94-.86,1.32-.37.37-.81.66-1.32.87-.51.21-1.08.31-1.69.31-.65,0-1.23-.1-1.73-.3s-.92-.48-1.25-.85-.59-.8-.76-1.32c-.17-.51-.26-1.08-.26-1.7,0-.58.1-1.12.29-1.63Z" style="fill:#66cb92; stroke-width:0px;"/></svg>