<?xml version="1.0" encoding="UTF-8"?><svg id="a" xmlns="http://www.w3.org/2000/svg" viewBox="0 0 500 500"><path d="m450.33,393.79H42v9.45c0,4.23,3.44,7.67,7.67,7.67h402.58c13.29,0,24.1-10.81,24.1-24.1v-238.71c0-4.23-3.44-7.67-7.67-7.67h-5.35v240.37c0,7.17-5.83,13-13,13Z" style="fill:#cae3f4; stroke-width:0px;"/><path d="m42,393.79h408.33c7.17,0,13-5.83,13-13V125.65c0-7.17-5.83-13-13-13h-.02l-35.78.18-31.18-27.8c-1.95-1.74-4.92-1.68-6.8.13l-28.7,27.67-316.54-.19c-7.17,0-13,5.83-13,13v255.15c0,7.17,5.83,13,13,13h10.68Zm-13.68-13V125.65c0-1.63,1.37-3,3-3l318.55.19h0c1.29,0,2.54-.5,3.47-1.4l26.82-25.86,29.15,25.99c.92.82,2.1,1.27,3.33,1.27h.02l37.68-.19c1.62,0,2.99,1.38,2.99,3v255.15c0,1.63-1.37,3-3,3H31.32c-1.63,0-3-1.37-3-3Z" style="fill:#0070ba; stroke-width:0px;"/><rect x="50.55" y="156.86" width="214.96" height="10" rx="5" ry="5" style="fill:#cae3f4; stroke-width:0px;"/><path d="m162.32,214.13H61.21c-5.83,0-10.57,4.74-10.57,10.57v47.17c0,5.83,4.74,10.57,10.57,10.57h101.12c5.83,0,10.57-4.74,10.57-10.57v-47.17c0-5.83-4.74-10.57-10.57-10.57Zm4.31,57.74c0,2.38-1.93,4.31-4.31,4.31H61.21c-2.38,0-4.31-1.93-4.31-4.31v-47.17c0-2.38,1.93-4.31,4.31-4.31h101.12c2.38,0,4.31,1.93,4.31,4.31v47.17Z" style="fill:#0070ba; stroke-width:0px;"/><path d="m250.61,240.5c-.59-.86-1.27-1.48-2.04-1.85-.77-.37-1.58-.56-2.41-.56s-1.64.19-2.41.56c-.77.37-1.45.99-2.03,1.85-.58.86-1.05,2-1.4,3.41s-.52,3.16-.52,5.23.17,3.82.52,5.23c.35,1.41.81,2.54,1.4,3.4.58.86,1.26,1.48,2.03,1.85.77.37,1.58.56,2.41.56s1.64-.19,2.41-.56c.77-.37,1.45-.99,2.04-1.85.59-.86,1.06-2,1.41-3.4.35-1.41.52-3.15.52-5.23s-.17-3.82-.52-5.23-.82-2.55-1.41-3.41Z" style="fill:#cae3f4; stroke-width:0px;"/><path d="m324.45,271.86v-47.17c0-5.83-4.74-10.57-10.57-10.57h-101.12c-5.83,0-10.57,4.74-10.57,10.57v47.17c0,5.83,4.74,10.57,10.57,10.57h101.12c5.83,0,10.57-4.74,10.57-10.57Zm-45.51-24.76c-.67-.8-1.68-1.21-3.05-1.21-1,0-1.94.24-2.8.72-.87.48-1.67,1.13-2.4,1.96v14.17h-3.38v-27.99h3.38v11.32c.82-.87,1.74-1.57,2.74-2.1,1-.53,2.15-.79,3.46-.79,1.05,0,1.98.17,2.78.52.8.35,1.48.84,2.01,1.48s.95,1.41,1.23,2.31c.28.9.42,1.89.42,2.98v12.26h-3.38v-12.26c0-1.46-.33-2.59-1-3.39Zm-22.88,2.04c0,2.38-.26,4.44-.77,6.18-.51,1.74-1.21,3.18-2.1,4.32-.89,1.14-1.94,1.99-3.14,2.55-1.21.56-2.5.84-3.89.84s-2.69-.28-3.89-.84c-1.2-.56-2.24-1.41-3.12-2.55-.89-1.14-1.58-2.58-2.09-4.32-.51-1.74-.76-3.8-.76-6.18s.25-4.45.76-6.19c.51-1.75,1.2-3.2,2.09-4.34.89-1.15,1.93-2,3.12-2.56,1.2-.56,2.49-.84,3.89-.84s2.68.28,3.89.84c1.21.56,2.26,1.41,3.14,2.56.89,1.15,1.59,2.59,2.1,4.34.51,1.75.77,3.81.77,6.19Zm-26.29,3.88c-.2-.61-.55-1.13-1.06-1.58-.51-.44-1.22-.79-2.13-1.04-.91-.25-2.07-.38-3.49-.38v-2.47c1.15,0,2.14-.12,2.96-.36.82-.24,1.48-.57,2-.99s.9-.92,1.13-1.5.35-1.23.35-1.94c0-.79-.12-1.47-.37-2.05-.25-.58-.59-1.06-1.02-1.44-.43-.38-.94-.67-1.53-.85-.59-.19-1.22-.29-1.91-.29s-1.32.1-1.9.3c-.58.2-1.1.48-1.55.84-.45.36-.83.79-1.13,1.29-.3.5-.53,1.04-.68,1.62-.1.37-.25.63-.46.8-.2.16-.46.25-.78.25-.06,0-.13,0-.2,0-.07,0-.15-.02-.24-.03l-1.77-.3c.18-1.24.52-2.34,1.03-3.3s1.15-1.76,1.93-2.4c.78-.65,1.67-1.14,2.68-1.47s2.09-.5,3.26-.5,2.22.16,3.19.49c.98.33,1.81.8,2.52,1.41s1.25,1.34,1.64,2.2.59,1.82.59,2.87c0,.86-.11,1.63-.33,2.31-.22.68-.54,1.27-.95,1.79-.41.51-.91.95-1.49,1.3-.58.35-1.24.64-1.96.85,1.77.47,3.11,1.25,4,2.36.89,1.1,1.34,2.48,1.34,4.14,0,1.25-.24,2.38-.71,3.38-.47,1-1.12,1.85-1.95,2.55s-1.78,1.24-2.88,1.62c-1.1.37-2.27.56-3.52.56-1.44,0-2.68-.18-3.71-.54-1.03-.36-1.89-.86-2.6-1.49-.71-.63-1.29-1.38-1.75-2.25-.46-.87-.84-1.81-1.16-2.82l1.44-.61c.27-.11.53-.17.8-.17s.48.05.67.16c.2.11.34.28.45.5.03.05.05.1.08.16.03.06.05.12.08.18.18.37.39.78.65,1.24.25.46.6.9,1.03,1.3s.97.75,1.61,1.03,1.43.42,2.38.42,1.78-.16,2.5-.47,1.31-.71,1.79-1.21c.47-.49.83-1.04,1.07-1.65s.36-1.21.36-1.8c0-.73-.1-1.41-.29-2.01Z" style="fill:#cae3f4; stroke-width:0px;"/><path d="m53.05,203.85h45c1.38,0,2.5-1.12,2.5-2.5s-1.12-2.5-2.5-2.5h-45c-1.38,0-2.5,1.12-2.5,2.5s1.12,2.5,2.5,2.5Z" style="fill:#0070ba; stroke-width:0px;"/><path d="m207.16,198.85c-1.38,0-2.5,1.12-2.5,2.5s1.12,2.5,2.5,2.5h45c1.38,0,2.5-1.12,2.5-2.5s-1.12-2.5-2.5-2.5h-45Z" style="fill:#cae3f4; stroke-width:0px;"/><path d="m425.28,321.98h-72.18c-2.76,0-5,2.24-5,5v29.58c0,2.76,2.24,5,5,5h72.18c2.76,0,5-2.24,5-5v-29.58c0-2.76-2.24-5-5-5Zm-22.47,11.54l-18.72,20.25-8.52-9.22c-.79-.86-.79-2.25,0-3.11.79-.86,2.08-.86,2.87,0l5.65,6.11,15.84-17.14c.79-.86,2.08-.86,2.87,0,.79.86.79,2.25,0,3.11Z" style="fill:#66cb92; stroke-width:0px;"/><path d="m332.69,321.98h-72.18c-2.76,0-5,2.24-5,5v29.58c0,2.76,2.24,5,5,5h72.18c2.76,0,5-2.24,5-5v-29.58c0-2.76-2.24-5-5-5Zm-24.67,28.41c.77.77.77,2.03,0,2.8-.39.39-.89.58-1.4.58s-1.01-.19-1.4-.58l-8.61-8.61-8.61,8.61c-.39.39-.89.58-1.4.58s-1.01-.19-1.4-.58c-.77-.77-.77-2.03,0-2.8l8.61-8.61-8.61-8.61c-.77-.77-.77-2.03,0-2.81.77-.77,2.03-.77,2.8,0l8.61,8.61,8.61-8.61c.77-.77,2.03-.77,2.8,0,.77.77.77,2.03,0,2.81l-8.61,8.61,8.61,8.61Z" style="fill:#cae3f4; stroke-width:0px;"/><path d="m158.05,305.02H53.05c-1.38,0-2.5,1.12-2.5,2.5s1.12,2.5,2.5,2.5h105c1.38,0,2.5-1.12,2.5-2.5s-1.12-2.5-2.5-2.5Z" style="fill:#cae3f4; stroke-width:0px;"/><path d="m400.35,201.35c0-1.38-1.12-2.5-2.5-2.5h-45c-1.38,0-2.5,1.12-2.5,2.5s1.12,2.5,2.5,2.5h45c1.38,0,2.5-1.12,2.5-2.5Z" style="fill:#cae3f4; stroke-width:0px;"/><path d="m361.2,248.85c1.2,0,2.34-.23,3.45-.68s2.07-1.09,2.9-1.91c.83-.82,1.5-1.81,2-2.95.5-1.14.75-2.41.75-3.8s-.23-2.74-.68-3.91c-.45-1.17-1.08-2.17-1.89-3-.81-.83-1.77-1.48-2.89-1.94-1.12-.46-2.34-.69-3.65-.69s-2.53.23-3.63.69c-1.1.46-2.05,1.1-2.86,1.94-.81.83-1.43,1.83-1.89,3-.45,1.17-.68,2.47-.68,3.91s.23,2.65.68,3.8c.45,1.14,1.08,2.13,1.89,2.95.81.82,1.76,1.46,2.86,1.91s2.31.68,3.63.68Zm-2.6-11.53c.14-.58.33-1.04.57-1.39.24-.35.54-.59.88-.73.35-.14.73-.21,1.14-.21s.8.07,1.16.21c.36.14.66.38.92.73.26.35.46.81.61,1.39.15.58.22,1.31.22,2.2,0,.83-.07,1.53-.22,2.08-.15.56-.35,1-.61,1.33-.26.33-.57.56-.92.7-.36.14-.74.21-1.16.21s-.8-.07-1.14-.21c-.35-.14-.64-.37-.88-.7-.24-.33-.43-.77-.57-1.33-.14-.55-.21-1.25-.21-2.08,0-.88.07-1.62.21-2.2Z" style="fill:#0070ba; stroke-width:0px;"/><path d="m376.5,266.1c.81.82,1.76,1.46,2.86,1.91s2.31.68,3.63.68c1.2,0,2.34-.23,3.45-.68s2.07-1.09,2.9-1.91c.83-.82,1.5-1.81,2-2.96.5-1.15.75-2.42.75-3.81s-.23-2.74-.68-3.91c-.45-1.17-1.08-2.17-1.88-3-.81-.83-1.77-1.48-2.89-1.94-1.12-.46-2.34-.69-3.65-.69s-2.53.23-3.63.69c-1.1.46-2.05,1.1-2.86,1.94-.81.83-1.43,1.83-1.89,3-.45,1.17-.68,2.47-.68,3.91s.23,2.66.68,3.81c.45,1.15,1.08,2.14,1.89,2.96Zm3.89-8.94c.14-.58.33-1.04.57-1.39.24-.35.54-.59.88-.73.35-.14.73-.21,1.14-.21s.8.07,1.16.21c.36.14.66.38.92.73s.46.81.61,1.39c.15.58.22,1.3.22,2.17s-.07,1.53-.22,2.08c-.15.56-.35,1-.61,1.33s-.57.56-.92.7-.74.21-1.16.21-.8-.07-1.14-.21-.64-.37-.88-.7c-.24-.33-.43-.77-.57-1.33-.14-.55-.21-1.25-.21-2.08s.07-1.59.21-2.17Z" style="fill:#0070ba; stroke-width:0px;"/><path d="m361.11,267.9c.39-.22.71-.49.98-.82l28.55-36.74h-5.88c-.68,0-1.21.13-1.59.38-.38.25-.7.52-.96.82l-28.55,36.69h6.03c.55,0,1.03-.11,1.42-.33Z" style="fill:#0070ba; stroke-width:0px;"/><rect x="50.55" y="319.76" width="70" height="5" rx="2.5" ry="2.5" style="fill:#cae3f4; stroke-width:0px;"/><path d="m228.63,258.5c-.48.49-1.07.9-1.79,1.21s-1.55.47-2.5.47-1.74-.14-2.38-.42-1.17-.62-1.61-1.03-.77-.84-1.03-1.3c-.25-.46-.47-.88-.65-1.24-.03-.06-.05-.12-.08-.18-.03-.06-.05-.11-.08-.16-.1-.23-.25-.4-.45-.5-.2-.11-.42-.16-.67-.16-.27,0-.53.06-.8.17l-1.44.61c.32,1.01.7,1.95,1.16,2.82.46.87,1.04,1.62,1.75,2.25.71.63,1.58,1.13,2.6,1.49,1.03.36,2.26.54,3.71.54,1.25,0,2.43-.19,3.52-.56,1.1-.37,2.06-.91,2.88-1.62s1.47-1.55,1.95-2.55c.48-1,.71-2.13.71-3.38,0-1.66-.45-3.04-1.34-4.14-.89-1.1-2.23-1.89-4-2.36.72-.22,1.37-.5,1.96-.85.58-.35,1.08-.79,1.49-1.3.41-.51.73-1.11.95-1.79.22-.68.33-1.45.33-2.31,0-1.05-.2-2.01-.59-2.87s-.94-1.6-1.64-2.2-1.54-1.08-2.52-1.41c-.98-.33-2.04-.49-3.19-.49s-2.25.17-3.26.5-1.9.83-2.68,1.47c-.78.65-1.42,1.45-1.93,2.4s-.85,2.06-1.03,3.3l1.77.3c.09.01.17.02.24.03.07,0,.14,0,.2,0,.32,0,.58-.08.78-.25.2-.16.35-.43.46-.8.15-.58.38-1.12.68-1.62.3-.5.68-.93,1.13-1.29.45-.36.97-.64,1.55-.84.58-.2,1.22-.3,1.9-.3s1.32.1,1.91.29c.59.19,1.1.48,1.53.85.43.38.77.86,1.02,1.44.25.58.37,1.27.37,2.05,0,.71-.12,1.36-.35,1.94s-.61,1.08-1.13,1.5-1.19.75-2,.99c-.82.24-1.8.36-2.96.36v2.47c1.42,0,2.58.13,3.49.38.91.25,1.61.6,2.13,1.04.51.44.87.97,1.06,1.58.2.61.29,1.28.29,2.01,0,.59-.12,1.2-.36,1.8s-.6,1.16-1.07,1.65Z" style="fill:#0070ba; stroke-width:0px;"/><path d="m250.04,236.06c-1.21-.56-2.5-.84-3.89-.84s-2.69.28-3.89.84c-1.2.56-2.24,1.41-3.12,2.56-.89,1.15-1.58,2.59-2.09,4.34-.51,1.75-.76,3.81-.76,6.19s.25,4.44.76,6.18c.51,1.74,1.2,3.18,2.09,4.32.89,1.14,1.93,1.99,3.12,2.55,1.2.56,2.49.84,3.89.84s2.68-.28,3.89-.84c1.21-.56,2.26-1.41,3.14-2.55.89-1.14,1.59-2.58,2.1-4.32.51-1.74.77-3.8.77-6.18s-.26-4.45-.77-6.19c-.51-1.75-1.21-3.2-2.1-4.34-.89-1.15-1.94-2-3.14-2.56Zm1.98,18.32c-.35,1.41-.82,2.54-1.41,3.4-.59.86-1.27,1.48-2.04,1.85-.77.37-1.58.56-2.41.56s-1.64-.19-2.41-.56c-.77-.37-1.45-.99-2.03-1.85-.58-.86-1.05-2-1.4-3.4-.35-1.41-.52-3.15-.52-5.23s.17-3.82.52-5.23.81-2.55,1.4-3.41c.58-.86,1.26-1.48,2.03-1.85.77-.37,1.58-.56,2.41-.56s1.64.19,2.41.56c.77.37,1.45.99,2.04,1.85.59.86,1.06,2,1.41,3.41s.52,3.16.52,5.23-.17,3.82-.52,5.23Z" style="fill:#0070ba; stroke-width:0px;"/><path d="m283.32,262.75v-12.26c0-1.09-.14-2.08-.42-2.98-.28-.9-.69-1.67-1.23-2.31s-1.21-1.13-2.01-1.48c-.8-.35-1.73-.52-2.78-.52-1.3,0-2.46.26-3.46.79-1,.53-1.91,1.23-2.74,2.1v-11.32h-3.38v27.99h3.38v-14.17c.73-.82,1.54-1.48,2.4-1.96.87-.48,1.8-.72,2.8-.72,1.37,0,2.38.4,3.05,1.21.67.8,1,1.94,1,3.39v12.26h3.38Z" style="fill:#0070ba; stroke-width:0px;"/><path d="m84.45,247.7c-.74-.73-1.64-1.31-2.73-1.73s-2.33-.63-3.75-.63c-1.2,0-2.51.15-3.93.46l1.25-7.14h8.55c.72,0,1.24-.16,1.54-.47.3-.31.46-.71.46-1.19v-1.48h-12.9l-2.2,12.73,2.13.63c.79-.25,1.54-.44,2.28-.55.73-.11,1.44-.17,2.13-.17,1,0,1.88.13,2.62.4s1.37.64,1.87,1.12c.5.48.87,1.06,1.12,1.75.25.68.37,1.45.37,2.3,0,.98-.15,1.86-.44,2.64-.29.79-.71,1.46-1.24,2.02s-1.19,1-1.95,1.3c-.76.3-1.62.46-2.57.46-.85,0-1.58-.1-2.19-.29s-1.15-.42-1.61-.66c-.46-.24-.85-.46-1.17-.66-.32-.2-.61-.29-.85-.29-.38,0-.68.16-.91.49l-1.03,1.44c.42.38.9.74,1.44,1.08.54.34,1.13.65,1.77.91.63.27,1.32.48,2.05.64.73.16,1.5.24,2.3.24,1.38,0,2.67-.22,3.86-.67s2.23-1.08,3.11-1.91c.88-.83,1.57-1.83,2.08-2.99.51-1.17.76-2.47.76-3.91,0-1.18-.19-2.27-.56-3.27-.37-1-.93-1.87-1.66-2.6Z" style="fill:#0070ba; stroke-width:0px;"/><path d="m107.32,238.61c-.89-1.15-1.94-2-3.14-2.56-1.21-.56-2.5-.84-3.89-.84s-2.69.28-3.89.84c-1.2.56-2.24,1.41-3.12,2.56-.89,1.15-1.58,2.59-2.09,4.34-.51,1.75-.76,3.81-.76,6.19s.25,4.44.76,6.18c.51,1.74,1.2,3.18,2.09,4.32.89,1.14,1.93,1.99,3.12,2.55,1.2.56,2.49.84,3.89.84s2.68-.28,3.89-.84c1.21-.56,2.26-1.41,3.14-2.55.89-1.14,1.59-2.58,2.1-4.32.51-1.74.77-3.8.77-6.18s-.26-4.45-.77-6.19c-.51-1.75-1.21-3.2-2.1-4.34Zm-1.17,15.76c-.35,1.41-.82,2.54-1.41,3.4-.59.86-1.27,1.48-2.04,1.85-.77.37-1.58.56-2.41.56s-1.64-.19-2.41-.56c-.77-.37-1.45-.99-2.03-1.85-.58-.86-1.05-2-1.4-3.4-.35-1.41-.52-3.15-.52-5.23s.17-3.82.52-5.23.81-2.55,1.4-3.41c.58-.86,1.26-1.48,2.03-1.85.77-.37,1.58-.56,2.41-.56s1.64.19,2.41.56c.77.37,1.45.99,2.04,1.85.59.86,1.06,2,1.41,3.41s.52,3.16.52,5.23-.17,3.82-.52,5.23Z" style="fill:#0070ba; stroke-width:0px;"/><path d="m135.81,245.2c-.54-.64-1.21-1.13-2.01-1.48-.8-.35-1.73-.52-2.78-.52-1.3,0-2.46.26-3.46.79-1,.53-1.91,1.23-2.74,2.1v-11.32h-3.38v27.99h3.38v-14.17c.73-.82,1.54-1.48,2.4-1.96.87-.48,1.8-.72,2.8-.72,1.37,0,2.38.4,3.05,1.21.67.8,1,1.94,1,3.39v12.26h3.38v-12.26c0-1.09-.14-2.08-.42-2.98-.28-.9-.69-1.67-1.23-2.31Z" style="fill:#0070ba; stroke-width:0px;"/></svg>