<?xml version="1.0" encoding="UTF-8"?><svg id="a" xmlns="http://www.w3.org/2000/svg" viewBox="0 0 1000 1000"><path d="m905.04,822.58c26.8,0,48.6-21.8,48.6-48.6v-478.06c0-8.65-7.04-15.69-15.69-15.69h-15.72v481.7c0,11.59-9.43,21.02-21.02,21.02H83.11v23.93c0,8.65,7.04,15.69,15.69,15.69" style="fill:#cae3f4; stroke-width:0px;"/><path d="m83.11,782.96h818.09c11.59,0,21.02-9.43,21.02-21.02V250.97c0-11.59-9.43-21.02-21.02-21.02h-.02l-73.57.36-63.88-56.95c-1.95-1.74-4.92-1.68-6.8.13l-58.94,56.83-635.94-.37c-11.59,0-21.02,9.43-21.02,21.02v510.97c0,11.59,9.43,21.02,21.02,21.02h21.06Zm-32.08-21.02V250.97c0-6.08,4.94-11.02,11.02-11.02l637.95.37h0c1.29,0,2.54-.5,3.47-1.4l57.06-55.01,61.85,55.14c.92.82,2.11,1.27,3.35,1.27l75.47-.37c6.08,0,11.02,4.95,11.02,11.02v510.97c0,6.08-4.95,11.02-11.02,11.02H62.05c-6.08,0-11.02-4.95-11.02-11.02Z" style="fill:#0070ba; stroke-width:0px;"/><rect x="103.57" y="313.47" width="430.49" height="20.03" rx="10.01" ry="10.01" style="fill:#cae3f4; stroke-width:0px;"/><path d="m327.44,431.3H118.89c-8.28,0-15,6.72-15,15v100.51c0,8.28,6.72,15,15,15h208.55c8.28,0,15-6.72,15-15v-100.51c0-8.28-6.72-15-15-15Zm8.74,114.25c0,5.52-4.48,10-10,10H120.15c-5.52,0-10-4.48-10-10v-97.99c0-5.52,4.48-10,10-10h206.03c5.52,0,10,4.48,10,10v97.99Z" style="fill:#0070ba; stroke-width:0px;"/><path d="m509.23,480.98c-1.18-1.72-2.54-2.96-4.09-3.71-1.55-.75-3.16-1.12-4.83-1.12s-3.29.37-4.83,1.12c-1.55.75-2.91,1.99-4.07,3.71-1.17,1.73-2.1,4-2.8,6.83-.7,2.83-1.05,6.32-1.05,10.48s.35,7.65,1.05,10.46c.7,2.82,1.63,5.09,2.8,6.81,1.17,1.73,2.52,2.96,4.07,3.71,1.55.75,3.16,1.12,4.83,1.12s3.29-.37,4.83-1.12c1.55-.75,2.91-1.98,4.09-3.71,1.18-1.72,2.12-4,2.82-6.81.7-2.82,1.05-6.3,1.05-10.46s-.35-7.65-1.05-10.48c-.7-2.83-1.64-5.1-2.82-6.83Z" style="fill:#cae3f4; stroke-width:0px;"/><path d="m645.96,546.81v-100.51c0-8.28-6.72-15-15-15h-208.55c-8.28,0-15,6.72-15,15v100.51c0,8.28,6.72,15,15,15h208.55c8.28,0,15-6.72,15-15Zm-80-52.61c-1.33-1.61-3.37-2.42-6.11-2.42-2,0-3.88.48-5.61,1.45-1.74.96-3.34,2.27-4.81,3.92v28.39h-6.77v-56.05h6.77v22.68c1.65-1.75,3.48-3.15,5.48-4.2s4.31-1.58,6.92-1.58c2.11,0,3.96.35,5.58,1.05,1.61.7,2.95,1.69,4.03,2.97,1.08,1.28,1.9,2.82,2.45,4.62.56,1.8.84,3.79.84,5.97v24.54h-6.77v-24.54c0-2.92-.67-5.18-2-6.79Zm-45.83,4.09c0,4.77-.51,8.9-1.54,12.39-1.03,3.49-2.43,6.37-4.2,8.66-1.78,2.28-3.88,3.98-6.3,5.1-2.42,1.12-5.02,1.67-7.78,1.67s-5.38-.56-7.78-1.67c-2.4-1.12-4.48-2.82-6.26-5.1-1.78-2.28-3.17-5.17-4.19-8.66-1.01-3.49-1.52-7.62-1.52-12.39s.51-8.9,1.52-12.4c1.01-3.5,2.41-6.4,4.19-8.69,1.78-2.3,3.86-4,6.26-5.12,2.4-1.12,4.99-1.67,7.78-1.67s5.36.56,7.78,1.67c2.42,1.12,4.52,2.82,6.3,5.12,1.78,2.3,3.18,5.19,4.2,8.69,1.03,3.5,1.54,7.64,1.54,12.4Zm-52.64,7.76c-.39-1.22-1.1-2.27-2.13-3.16s-2.45-1.58-4.26-2.09c-1.81-.51-4.14-.76-6.98-.76v-4.95c2.31,0,4.28-.24,5.92-.72,1.64-.48,2.97-1.14,4.01-1.98,1.04-.84,1.79-1.84,2.26-3.01.47-1.17.7-2.46.7-3.88,0-1.57-.25-2.94-.74-4.11-.5-1.17-1.17-2.13-2.04-2.89-.86-.76-1.88-1.33-3.06-1.71-1.18-.38-2.45-.57-3.82-.57s-2.64.2-3.8.61c-1.17.41-2.2.97-3.1,1.69-.9.72-1.66,1.58-2.26,2.59-.61,1-1.07,2.08-1.37,3.25-.2.74-.51,1.27-.91,1.6-.41.33-.93.49-1.56.49-.13,0-.26,0-.4-.02s-.3-.03-.48-.06l-3.54-.6c.36-2.49,1.04-4.69,2.06-6.6,1.01-1.92,2.3-3.52,3.86-4.81,1.56-1.29,3.35-2.28,5.37-2.95,2.02-.67,4.19-1.01,6.53-1.01s4.44.33,6.39.99c1.95.66,3.63,1.6,5.04,2.82,1.41,1.22,2.5,2.69,3.29,4.41.79,1.73,1.18,3.64,1.18,5.75,0,1.73-.22,3.27-.67,4.62-.44,1.36-1.08,2.55-1.9,3.58-.82,1.03-1.82,1.9-2.99,2.61-1.17.71-2.47,1.28-3.92,1.71,3.55.94,6.22,2.51,8.01,4.72,1.79,2.21,2.68,4.97,2.68,8.29,0,2.51-.48,4.77-1.43,6.77s-2.25,3.71-3.9,5.12c-1.65,1.41-3.57,2.49-5.76,3.23s-4.55,1.12-7.06,1.12c-2.89,0-5.37-.36-7.42-1.08-2.05-.72-3.79-1.72-5.21-2.99-1.42-1.27-2.59-2.77-3.5-4.51s-1.69-3.62-2.32-5.65l2.89-1.22c.53-.23,1.07-.34,1.6-.34s.96.11,1.35.32c.39.22.69.55.89,1.01.05.1.1.21.15.32.05.11.1.23.15.36.36.74.79,1.57,1.29,2.49.51.93,1.19,1.79,2.05,2.61.86.81,1.93,1.5,3.22,2.05,1.28.56,2.87.84,4.78.84s3.57-.31,5-.93c1.43-.62,2.63-1.43,3.58-2.42.95-.99,1.67-2.09,2.15-3.31.48-1.22.72-2.42.72-3.62,0-1.47-.2-2.82-.59-4.03Z" style="fill:#cae3f4; stroke-width:0px;"/><path d="m108.58,407.57h90.12c2.77,0,5.01-2.24,5.01-5.01s-2.24-5.01-5.01-5.01h-90.12c-2.77,0-5.01,2.24-5.01,5.01s2.24,5.01,5.01,5.01Z" style="fill:#0070ba; stroke-width:0px;"/><path d="m412.2,407.57h90.12c2.77,0,5.01-2.24,5.01-5.01s-2.24-5.01-5.01-5.01h-90.12c-2.77,0-5.01,2.24-5.01,5.01s2.24,5.01,5.01,5.01Z" style="fill:#cae3f4; stroke-width:0px;"/><path d="m846.03,644.16h-134.57c-8.28,0-15,6.72-15,15v49.27c0,8.28,6.72,15,15,15h134.57c8.28,0,15-6.72,15-15v-49.27c0-8.28-6.72-15-15-15Zm-40.01,23.12l-37.49,40.55-17.07-18.46c-1.59-1.72-1.59-4.51,0-6.22,1.59-1.72,4.17-1.72,5.75,0l11.31,12.24,31.73-34.33c1.59-1.72,4.17-1.72,5.75,0,1.59,1.72,1.59,4.51,0,6.22Z" style="fill:#66cb92; stroke-width:0px;"/><path d="m660.62,644.16h-134.57c-8.28,0-15,6.72-15,15v49.27c0,8.28,6.72,15,15,15h134.57c8.28,0,15-6.72,15-15v-49.27c0-8.28-6.72-15-15-15Zm-44.42,56.89c1.55,1.55,1.55,4.07,0,5.62-.77.78-1.79,1.16-2.81,1.16s-2.03-.39-2.81-1.16l-17.25-17.25-17.25,17.25c-.78.78-1.79,1.16-2.81,1.16s-2.03-.39-2.81-1.16c-1.55-1.55-1.55-4.07,0-5.62l17.25-17.25-17.25-17.25c-1.55-1.55-1.55-4.07,0-5.62,1.55-1.55,4.07-1.55,5.62,0l17.25,17.25,17.25-17.25c1.55-1.55,4.07-1.55,5.62,0,1.55,1.55,1.55,4.07,0,5.62l-17.25,17.25,17.25,17.25Z" style="fill:#cae3f4; stroke-width:0px;"/><path d="m318.86,600.19H108.58c-2.77,0-5.01,2.24-5.01,5.01s2.24,5.01,5.01,5.01h210.28c2.77,0,5.01-2.24,5.01-5.01s-2.24-5.01-5.01-5.01Z" style="fill:#cae3f4; stroke-width:0px;"/><path d="m801.1,402.57c0-2.77-2.24-5.01-5.01-5.01h-90.12c-2.77,0-5.01,2.24-5.01,5.01s2.24,5.01,5.01,5.01h90.12c2.77,0,5.01-2.24,5.01-5.01Z" style="fill:#cae3f4; stroke-width:0px;"/><path d="m719.51,535.84c.78-.43,1.43-.98,1.95-1.64l57.17-73.57h-11.77c-1.35,0-2.41.25-3.18.75-.76.5-1.41,1.05-1.93,1.64l-57.17,73.47h12.08c1.11,0,2.06-.22,2.84-.65Z" style="fill:#0070ba; stroke-width:0px;"/><path d="m719.69,497.7c2.4,0,4.69-.45,6.9-1.35,2.2-.9,4.14-2.18,5.81-3.83,1.67-1.65,3-3.62,4.01-5.91s1.51-4.82,1.51-7.6-.45-5.49-1.35-7.84c-.9-2.34-2.16-4.35-3.77-6.01-1.61-1.67-3.54-2.96-5.78-3.88-2.24-.92-4.68-1.38-7.32-1.38s-5.06.46-7.26,1.38c-2.21.92-4.11,2.21-5.73,3.88-1.61,1.67-2.87,3.67-3.78,6.01-.9,2.34-1.35,4.96-1.35,7.84s.45,5.31,1.35,7.6c.9,2.29,2.16,4.26,3.78,5.91,1.61,1.65,3.52,2.92,5.73,3.83,2.2.9,4.62,1.35,7.26,1.35Zm-5.21-23.09c.28-1.16.66-2.09,1.15-2.79.49-.69,1.08-1.18,1.77-1.46.69-.28,1.46-.42,2.29-.42s1.61.14,2.32.42c.71.28,1.33.76,1.85,1.46.52.69.93,1.62,1.22,2.79.29,1.16.44,2.63.44,4.4,0,1.67-.15,3.06-.44,4.17-.29,1.11-.7,2-1.22,2.66-.52.66-1.14,1.13-1.85,1.41-.71.28-1.48.42-2.32.42s-1.6-.14-2.29-.42c-.7-.28-1.29-.75-1.77-1.41-.49-.66-.87-1.54-1.15-2.66-.28-1.11-.42-2.5-.42-4.17,0-1.77.14-3.24.42-4.4Z" style="fill:#0070ba; stroke-width:0px;"/><path d="m750.34,532.25c1.61,1.65,3.52,2.92,5.73,3.83,2.2.9,4.62,1.35,7.26,1.35,2.4,0,4.69-.45,6.9-1.35,2.2-.9,4.14-2.18,5.81-3.83,1.67-1.65,3-3.63,4.01-5.94s1.51-4.85,1.51-7.63-.45-5.49-1.35-7.84c-.9-2.34-2.16-4.35-3.77-6.01s-3.54-2.96-5.78-3.88c-2.24-.92-4.68-1.38-7.32-1.38s-5.06.46-7.26,1.38c-2.21.92-4.11,2.21-5.73,3.88s-2.87,3.67-3.78,6.01c-.9,2.34-1.35,4.96-1.35,7.84s.45,5.32,1.35,7.63,2.16,4.29,3.78,5.94Zm7.78-17.91c.28-1.16.66-2.09,1.15-2.79s1.08-1.18,1.77-1.46c.69-.28,1.46-.42,2.29-.42s1.61.14,2.32.42c.71.28,1.33.76,1.85,1.46.52.69.93,1.62,1.22,2.79.29,1.16.44,2.61.44,4.35s-.15,3.06-.44,4.17c-.3,1.11-.7,2-1.22,2.66-.52.66-1.14,1.13-1.85,1.41-.71.28-1.48.42-2.32.42s-1.6-.14-2.29-.42c-.69-.28-1.28-.75-1.77-1.41-.49-.66-.87-1.54-1.15-2.66-.28-1.11-.42-2.5-.42-4.17s.14-3.18.42-4.35Z" style="fill:#0070ba; stroke-width:0px;"/><path d="m238.75,629.71H108.58c-2.77,0-5.01,2.24-5.01,5.01s2.24,5.01,5.01,5.01h130.17c2.77,0,5.01-2.24,5.01-5.01s-2.24-5.01-5.01-5.01Z" style="fill:#cae3f4; stroke-width:0px;"/><path d="m465.21,517.01c-.95.99-2.14,1.79-3.58,2.42-1.43.62-3.1.93-5,.93s-3.5-.28-4.78-.84c-1.28-.56-2.35-1.24-3.22-2.05-.86-.81-1.55-1.68-2.05-2.61-.51-.93-.94-1.76-1.29-2.49-.05-.13-.1-.25-.15-.36-.05-.11-.1-.22-.15-.32-.2-.46-.5-.79-.89-1.01-.39-.21-.84-.32-1.35-.32-.53,0-1.07.11-1.6.34l-2.89,1.22c.63,2.03,1.41,3.91,2.32,5.65s2.08,3.24,3.5,4.51c1.42,1.27,3.16,2.26,5.21,2.99,2.05.72,4.53,1.08,7.42,1.08,2.51,0,4.86-.38,7.06-1.12s4.12-1.83,5.76-3.23c1.65-1.41,2.95-3.11,3.9-5.12s1.43-4.26,1.43-6.77c0-3.32-.89-6.09-2.68-8.29-1.79-2.21-4.46-3.78-8.01-4.72,1.45-.43,2.75-1,3.92-1.71,1.17-.71,2.16-1.58,2.99-2.61.82-1.03,1.46-2.22,1.9-3.58.44-1.36.67-2.9.67-4.62,0-2.11-.39-4.02-1.18-5.75-.79-1.72-1.88-3.2-3.29-4.41-1.41-1.22-3.09-2.16-5.04-2.82-1.95-.66-4.08-.99-6.39-.99s-4.51.34-6.53,1.01c-2.02.67-3.8,1.66-5.37,2.95-1.56,1.29-2.85,2.9-3.86,4.81-1.02,1.92-1.7,4.12-2.06,6.6l3.54.6c.18.02.34.04.48.06s.27.02.4.02c.63,0,1.15-.17,1.56-.49.41-.33.71-.86.91-1.6.3-1.17.76-2.25,1.37-3.25.61-1,1.36-1.86,2.26-2.59.9-.72,1.93-1.29,3.1-1.69,1.17-.41,2.43-.61,3.8-.61s2.64.19,3.82.57c1.18.38,2.2.95,3.06,1.71.86.76,1.54,1.73,2.04,2.89.49,1.17.74,2.54.74,4.11,0,1.42-.24,2.71-.7,3.88-.47,1.17-1.22,2.17-2.26,3.01-1.04.84-2.38,1.5-4.01,1.98-1.64.48-3.61.72-5.92.72v4.95c2.84,0,5.17.25,6.98.76,1.81.51,3.23,1.21,4.26,2.09s1.74,1.94,2.13,3.16c.39,1.22.59,2.56.59,4.03,0,1.19-.24,2.4-.72,3.62-.48,1.22-1.2,2.32-2.15,3.31Z" style="fill:#0070ba; stroke-width:0px;"/><path d="m508.09,472.07c-2.42-1.12-5.02-1.67-7.78-1.67s-5.38.56-7.78,1.67c-2.4,1.12-4.48,2.82-6.26,5.12-1.78,2.3-3.17,5.19-4.19,8.69-1.01,3.5-1.52,7.64-1.52,12.4s.51,8.9,1.52,12.39c1.01,3.49,2.41,6.37,4.19,8.66,1.78,2.28,3.86,3.98,6.26,5.1,2.4,1.12,4.99,1.67,7.78,1.67s5.36-.56,7.78-1.67c2.42-1.12,4.52-2.82,6.3-5.1,1.78-2.28,3.18-5.17,4.2-8.66,1.03-3.49,1.54-7.62,1.54-12.39s-.51-8.9-1.54-12.4c-1.03-3.5-2.43-6.4-4.2-8.69-1.78-2.3-3.88-4-6.3-5.12Zm3.96,36.68c-.7,2.82-1.64,5.09-2.82,6.81-1.18,1.73-2.54,2.96-4.09,3.71-1.55.75-3.16,1.12-4.83,1.12s-3.29-.37-4.83-1.12c-1.55-.75-2.91-1.98-4.07-3.71-1.17-1.72-2.1-4-2.8-6.81-.7-2.82-1.05-6.3-1.05-10.46s.35-7.65,1.05-10.48c.7-2.83,1.63-5.1,2.8-6.83,1.17-1.72,2.52-2.96,4.07-3.71,1.55-.75,3.16-1.12,4.83-1.12s3.29.37,4.83,1.12c1.55.75,2.91,1.99,4.09,3.71,1.18,1.73,2.12,4,2.82,6.83.7,2.83,1.05,6.32,1.05,10.48s-.35,7.65-1.05,10.46Z" style="fill:#0070ba; stroke-width:0px;"/><path d="m574.73,525.54v-24.54c0-2.18-.28-4.17-.84-5.97-.56-1.8-1.38-3.34-2.45-4.62-1.08-1.28-2.42-2.27-4.03-2.97-1.61-.7-3.47-1.05-5.58-1.05-2.61,0-4.92.53-6.92,1.58s-3.83,2.45-5.48,4.2v-22.68h-6.77v56.05h6.77v-28.39c1.47-1.65,3.08-2.95,4.81-3.92,1.74-.96,3.61-1.45,5.61-1.45,2.74,0,4.78.81,6.11,2.42,1.33,1.61,2,3.88,2,6.79v24.54h6.77Z" style="fill:#0070ba; stroke-width:0px;"/><path d="m168.45,495.4c-1.47-1.47-3.29-2.62-5.46-3.46s-4.67-1.26-7.51-1.26c-2.41,0-5.04.3-7.88.91l2.51-14.31h17.12c1.45,0,2.47-.31,3.08-.93.61-.62.91-1.41.91-2.38v-2.97h-25.84l-4.41,25.49,4.26,1.26c1.57-.51,3.09-.88,4.57-1.1,1.47-.23,2.89-.34,4.26-.34,2,0,3.75.27,5.25.8,1.5.53,2.75,1.28,3.75,2.25,1,.96,1.75,2.13,2.25,3.5.49,1.37.74,2.91.74,4.6,0,1.95-.29,3.72-.88,5.29s-1.41,2.92-2.49,4.05c-1.08,1.13-2.38,2-3.9,2.61-1.52.61-3.23.91-5.14.91-1.7,0-3.16-.2-4.39-.59-1.23-.39-2.3-.83-3.21-1.31-.91-.48-1.69-.92-2.34-1.31-.65-.39-1.21-.59-1.69-.59-.76,0-1.37.33-1.83.99l-2.05,2.89c.84.76,1.8,1.48,2.89,2.17,1.09.69,2.27,1.29,3.54,1.83,1.27.53,2.64.96,4.11,1.27,1.47.32,3.01.48,4.6.48,2.76,0,5.34-.44,7.72-1.33s4.46-2.16,6.22-3.82c1.76-1.66,3.15-3.66,4.17-5.99s1.52-4.95,1.52-7.84c0-2.36-.38-4.54-1.12-6.54-.75-2-1.86-3.74-3.33-5.21Z" style="fill:#0070ba; stroke-width:0px;"/><path d="m214.27,477.19c-1.78-2.3-3.88-4-6.3-5.12-2.42-1.12-5.02-1.67-7.78-1.67s-5.38.56-7.78,1.67c-2.4,1.12-4.48,2.82-6.26,5.12-1.78,2.3-3.17,5.19-4.19,8.69-1.01,3.5-1.52,7.64-1.52,12.4s.51,8.9,1.52,12.39c1.01,3.49,2.41,6.37,4.19,8.66,1.78,2.28,3.86,3.98,6.26,5.1,2.4,1.12,4.99,1.67,7.78,1.67s5.36-.56,7.78-1.67c2.42-1.12,4.52-2.82,6.3-5.1,1.78-2.28,3.18-5.17,4.2-8.66,1.03-3.49,1.54-7.62,1.54-12.39s-.51-8.9-1.54-12.4c-1.03-3.5-2.43-6.4-4.2-8.69Zm-2.34,31.56c-.7,2.82-1.64,5.09-2.82,6.81-1.18,1.73-2.54,2.96-4.09,3.71-1.55.75-3.16,1.12-4.83,1.12s-3.29-.37-4.83-1.12c-1.55-.75-2.91-1.98-4.07-3.71-1.17-1.72-2.1-4-2.8-6.81-.7-2.82-1.05-6.3-1.05-10.46s.35-7.65,1.05-10.48c.7-2.83,1.63-5.1,2.8-6.83,1.17-1.72,2.52-2.96,4.07-3.71,1.55-.75,3.16-1.12,4.83-1.12s3.29.37,4.83,1.12c1.55.75,2.91,1.99,4.09,3.71,1.18,1.73,2.12,4,2.82,6.83.7,2.83,1.05,6.32,1.05,10.48s-.35,7.65-1.05,10.46Z" style="fill:#0070ba; stroke-width:0px;"/><path d="m271.32,490.4c-1.08-1.28-2.42-2.27-4.03-2.97-1.61-.7-3.47-1.05-5.58-1.05-2.61,0-4.92.53-6.92,1.58s-3.83,2.45-5.48,4.2v-22.68h-6.77v56.05h6.77v-28.39c1.47-1.65,3.08-2.95,4.81-3.92,1.74-.96,3.61-1.45,5.61-1.45,2.74,0,4.78.81,6.11,2.42,1.33,1.61,2,3.88,2,6.79v24.54h6.77v-24.54c0-2.18-.28-4.17-.84-5.97-.56-1.8-1.38-3.34-2.45-4.62Z" style="fill:#0070ba; stroke-width:0px;"/></svg>