<?xml version="1.0" encoding="UTF-8"?><svg id="a" xmlns="http://www.w3.org/2000/svg" viewBox="0 0 500 500"><path d="m376.12,119.58c-.78-.87-1.74-1.54-2.86-2-1.12-.46-2.39-.7-3.79-.7h-5.59v20.27h5.59c1.41,0,2.67-.23,3.79-.7,1.12-.46,2.07-1.13,2.86-2,.78-.87,1.39-1.93,1.81-3.19.42-1.25.64-2.67.64-4.25s-.21-3-.64-4.25c-.43-1.25-1.03-2.32-1.81-3.19Z" style="fill:none; stroke-width:0px;"/><path d="m30.09,212.38c2.27,0,4.11-1.79,4.11-3.98s-1.85-3.98-4.11-3.98-4.11,1.79-4.11,3.98,1.85,3.98,4.11,3.98Z" style="fill:none; stroke-width:0px;"/><path d="m347.53,118.11c-.48-.44-1.08-.77-1.81-1.01-.73-.23-1.59-.35-2.57-.35h-4.02v10.33h4.02c.98,0,1.84-.12,2.57-.37.73-.25,1.33-.6,1.81-1.06s.84-1.02,1.08-1.67c.24-.66.36-1.39.36-2.2s-.12-1.47-.36-2.09c-.24-.62-.6-1.15-1.08-1.59Z" style="fill:none; stroke-width:0px;"/><path d="m42.95,212.38c2.27,0,4.11-1.79,4.11-3.98s-1.85-3.98-4.11-3.98-4.11,1.79-4.11,3.98,1.85,3.98,4.11,3.98Z" style="fill:none; stroke-width:0px;"/><polygon points="433.86 90.46 433.86 134.67 475.85 134.67 433.86 90.46" style="fill:none; stroke-width:0px;"/><path d="m278.77,362.36c.46.46,1.07.71,1.72.71s1.26-.25,1.72-.71l18.09-18.09c.95-.95.95-2.49,0-3.44l-18.09-18.09c-.47-.47-1.1-.71-1.72-.71s-1.25.24-1.72.71l-18.09,18.09c-.46.46-.71,1.07-.71,1.72s.25,1.26.71,1.72l18.09,18.09Zm-14.58-21.59l14.53-14.53c.98-.98,2.57-.98,3.55,0l14.53,14.53c.98.98.98,2.57,0,3.55l-14.53,14.53c-.98.98-2.57.98-3.55,0l-14.53-14.53c-.98-.98-.98-2.57,0-3.55Z" style="fill:none; stroke-width:0px;"/><path d="m427.05,138.08v-52.74h-106.77c-1.85,0-3.36,1.51-3.36,3.36v104.05h18.35c-1.09-1-1.78-2.44-1.78-4.04,0-3.04,2.46-5.5,5.5-5.5h76.61c3.04,0,5.5,2.46,5.5,5.5s-2.46,5.5-5.5,5.5h-30.99v10.78h3.92c3.04,0,5.5,2.46,5.5,5.5s-2.46,5.5-5.5,5.5h-3.92v10.87h31.96c3.04,0,5.5,2.46,5.5,5.5s-2.46,5.5-5.5,5.5h-31.96v11.04h21.9c3.04,0,5.5,2.46,5.5,5.5s-2.46,5.5-5.5,5.5h-21.9v28.03h92.36c1.88,0,3.41-1.53,3.41-3.41v-143.01h-49.93c-1.88,0-3.41-1.52-3.41-3.41Zm-73.42-12.45c-.46,1.16-1.16,2.16-2.09,3-.93.84-2.09,1.49-3.48,1.95-1.39.46-3.03.7-4.9.7h-4.02v10.13h-5.36v-28.79h9.38c1.92,0,3.59.23,5,.68s2.57,1.08,3.48,1.89c.92.81,1.59,1.78,2.03,2.91.44,1.13.66,2.36.66,3.7s-.23,2.67-.7,3.83Zm29.37,7.2c-.7,1.77-1.69,3.29-2.97,4.56-1.27,1.27-2.81,2.26-4.6,2.97s-3.78,1.06-5.95,1.06h-10.99v-28.79h10.99c2.18,0,4.16.36,5.95,1.07s3.33,1.7,4.6,2.97c1.27,1.27,2.26,2.78,2.97,4.55.7,1.77,1.06,3.7,1.06,5.81s-.35,4.05-1.06,5.81Zm23.41-15.95h-12.76v8.52h10.77v4.28h-10.77v11.73h-5.4v-28.79h18.16v4.26Zm36.17,113.67l9.11-9.11c.48-.48,1.12-.75,1.8-.75s1.32.26,1.8.75l9.11,9.11c.48.48.75,1.12.75,1.8s-.26,1.32-.75,1.8l-9.11,9.11c-.48.48-1.12.75-1.8.75s-1.32-.26-1.8-.75l-9.11-9.11c-.48-.48-.75-1.12-.75-1.8s.26-1.32.75-1.8Zm-10.52-38.68v37.32c0,1.02.74,1.86,1.64,1.86h3.88c.49,0,.88.45.88,1s-.4,1-.88,1h-3.88c-1.88,0-3.41-1.73-3.41-3.86v-37.32c0-1.02-.74-1.86-1.64-1.86h-3.14c-.49,0-.88-.45-.88-1s.4-1,.88-1h3.14c1.88,0,3.41,1.73,3.41,3.86Z" style="fill:none; stroke-width:0px;"/><path d="m16.21,411.6c0,3.63,3.05,6.58,6.8,6.58h302.84c3.75,0,6.8-2.95,6.8-6.58v-93.8h-45.06v-97.3H16.21v191.1Zm42.57-112.46c0-6.03,4.89-10.91,10.91-10.91h81.82c6.03,0,10.91,4.89,10.91,10.91s-4.89,10.91-10.91,10.91h-81.82c-6.03,0-10.91-4.89-10.91-10.91Zm128.44,98.08h-100.74c-6.03,0-10.91-4.89-10.91-10.91s4.89-10.91,10.91-10.91h100.74c6.03,0,10.91,4.89,10.91,10.91s-4.89,10.91-10.91,10.91Zm71.61-58.25l18.09-18.09c.95-.95,2.22-1.48,3.57-1.48s2.62.53,3.57,1.48l18.09,18.09c.95.95,1.48,2.22,1.48,3.57s-.53,2.62-1.48,3.57l-18.09,18.09c-.95.95-2.22,1.48-3.57,1.48s-2.62-.53-3.57-1.48l-18.09-18.09c-.95-.95-1.48-2.22-1.48-3.57s.53-2.62,1.48-3.57Zm-33.89-84.46h6.23c3.74,0,6.77,3.43,6.77,7.66v74.11c0,2.03,1.46,3.69,3.26,3.69h7.71c.97,0,1.76.89,1.76,1.98s-.79,1.98-1.76,1.98h-7.71c-3.74,0-6.77-3.43-6.77-7.66v-74.11c0-2.03-1.46-3.69-3.26-3.69h-6.23c-.97,0-1.76-.89-1.76-1.98s.79-1.98,1.76-1.98Zm-6.84,88.04c0,6.03-4.89,10.91-10.91,10.91h-85.67c-6.03,0-10.91-4.89-10.91-10.91h0c0-6.03,4.89-10.91,10.91-10.91h85.67c6.03,0,10.91,4.89,10.91,10.91h0ZM53.11,244.97h152.15c6.03,0,10.91,4.89,10.91,10.91s-4.89,10.91-10.91,10.91H53.11c-6.03,0-10.91-4.89-10.91-10.91s4.89-10.91,10.91-10.91Z" style="fill:none; stroke-width:0px;"/><path d="m452.62,242.32c.23.23.54.36.87.36s.64-.13.87-.36l9.11-9.11c.48-.48.48-1.26,0-1.73l-9.11-9.11c-.24-.24-.55-.36-.87-.36s-.63.12-.87.36l-9.11,9.11c-.23.23-.36.54-.36.87s.13.64.36.87l9.11,9.11Zm-7.34-10.87l7.32-7.32c.49-.49,1.29-.49,1.79,0l7.32,7.32c.49.49.49,1.29,0,1.79l-7.32,7.32c-.49.49-1.29.49-1.79,0l-7.32-7.32c-.49-.49-.49-1.29,0-1.79Z" style="fill:none; stroke-width:0px;"/><path d="m55.8,212.38c2.27,0,4.11-1.79,4.11-3.98s-1.85-3.98-4.11-3.98-4.11,1.79-4.11,3.98,1.85,3.98,4.11,3.98Z" style="fill:none; stroke-width:0px;"/><path d="m332.64,411.6c0,3.63-3.05,6.58-6.8,6.58H23.01c-3.75,0-6.8-2.95-6.8-6.58v-191.1h258.99c6.84,0,12.38-5.54,12.38-12.38h0c0-7.24-5.87-13.1-13.1-13.1H23.01c-5.62,0-10.2,4.43-10.2,9.87v206.72c0,5.44,4.58,9.87,10.2,9.87h302.84c5.62,0,10.2-4.43,10.2-9.87v-92.11c0-.93-.76-1.69-1.69-1.69h0c-.94,0-1.71.77-1.71,1.71v92.09ZM55.8,204.41c2.27,0,4.11,1.79,4.11,3.98s-1.85,3.98-4.11,3.98-4.11-1.79-4.11-3.98,1.85-3.98,4.11-3.98Zm-12.85,0c2.27,0,4.11,1.79,4.11,3.98s-1.85,3.98-4.11,3.98-4.11-1.79-4.11-3.98,1.85-3.98,4.11-3.98Zm-12.85,0c2.27,0,4.11,1.79,4.11,3.98s-1.85,3.98-4.11,3.98-4.11-1.79-4.11-3.98,1.85-3.98,4.11-3.98Z" style="fill:#cae3f4; stroke-width:0px;"/><g style="opacity:.5;"><path d="m224.94,258.47h6.23c1.8,0,3.26,1.65,3.26,3.69v74.11c0,4.22,3.04,7.66,6.77,7.66h7.71c.97,0,1.76-.89,1.76-1.98s-.79-1.98-1.76-1.98h-7.71c-1.8,0-3.26-1.65-3.26-3.69v-74.11c0-4.22-3.04-7.66-6.77-7.66h-6.23c-.97,0-1.76.89-1.76,1.98s.79,1.98,1.76,1.98Z" style="fill:#9fcde0; stroke-width:0px;"/><path d="m276.92,364.21c.95.95,2.22,1.48,3.57,1.48s2.62-.53,3.57-1.48l18.09-18.09c.95-.95,1.48-2.22,1.48-3.57s-.53-2.62-1.48-3.57l-18.09-18.09c-.95-.95-2.22-1.48-3.57-1.48s-2.62.53-3.57,1.48l-18.09,18.09c-.95.95-1.48,2.22-1.48,3.57s.53,2.62,1.48,3.57l18.09,18.09Zm-16.24-23.39l18.09-18.09c.47-.47,1.1-.71,1.72-.71s1.25.24,1.72.71l18.09,18.09c.95.95.95,2.49,0,3.44l-18.09,18.09c-.46.46-1.07.71-1.72.71s-1.26-.25-1.72-.71l-18.09-18.09c-.46-.46-.71-1.07-.71-1.72s.25-1.26.71-1.72Z" style="fill:#66cb92; stroke-width:0px;"/><rect x="267.71" y="329.76" width="25.57" height="25.57" rx="2.51" ry="2.51" transform="translate(-160.06 298.67) rotate(-45)" style="fill:#66cb92; stroke-width:0px;"/><path d="m53.11,266.8h152.15c6.03,0,10.91-4.89,10.91-10.91s-4.89-10.91-10.91-10.91H53.11c-6.03,0-10.91,4.89-10.91,10.91s4.89,10.91,10.91,10.91Z" style="fill:#0070ba; stroke-width:0px;"/><path d="m162.42,299.13c0-6.03-4.89-10.91-10.91-10.91h-81.82c-6.03,0-10.91,4.89-10.91,10.91s4.89,10.91,10.91,10.91h81.82c6.03,0,10.91-4.89,10.91-10.91Z" style="fill:#66cb92; stroke-width:0px;"/><rect x="110.6" y="331.63" width="107.5" height="21.83" rx="10.91" ry="10.91" style="fill:#0070ba; stroke-width:0px;"/><path d="m187.22,375.38h-100.74c-6.03,0-10.91,4.89-10.91,10.91s4.89,10.91,10.91,10.91h100.74c6.03,0,10.91-4.89,10.91-10.91s-4.89-10.91-10.91-10.91Z" style="fill:#66cb92; stroke-width:0px;"/></g><path d="m209.43,170.81c1.66,0,3-1.34,3-3,0-30.96,25.62-56.39,57.98-58.59l-6.18,5.83c-1.21,1.14-1.26,3.04-.13,4.24.59.63,1.39.94,2.18.94.74,0,1.48-.27,2.06-.82l11.87-11.18c.6-.57.94-1.36.94-2.18s-.34-1.62-.94-2.18l-11.87-11.18c-1.21-1.14-3.1-1.08-4.24.13-1.14,1.21-1.08,3.1.13,4.24l6.51,6.13c-35.83,2.07-64.31,30.26-64.31,64.62,0,1.66,1.34,3,3,3Z" style="fill:#0070ba; stroke-width:0px;"/><path d="m425.51,188.01c-.49,0-.88.45-.88,1s.4,1,.88,1h3.14c.91,0,1.64.83,1.64,1.86v37.32c0,2.13,1.53,3.86,3.41,3.86h3.88c.49,0,.88-.45.88-1s-.4-1-.88-1h-3.88c-.91,0-1.64-.83-1.64-1.86v-37.32c0-2.13-1.53-3.86-3.41-3.86h-3.14Z" style="fill:#9fcde0; stroke-width:0px;"/><path d="m451.68,243.26c.48.48,1.12.75,1.8.75s1.32-.26,1.8-.75l9.11-9.11c.48-.48.75-1.12.75-1.8s-.26-1.32-.75-1.8l-9.11-9.11c-.48-.48-1.12-.75-1.8-.75s-1.32.26-1.8.75l-9.11,9.11c-.48.48-.75,1.12-.75,1.8s.26,1.32.75,1.8l9.11,9.11Zm-8.18-11.78l9.11-9.11c.24-.24.55-.36.87-.36s.63.12.87.36l9.11,9.11c.48.48.48,1.26,0,1.73l-9.11,9.11c-.23.23-.54.36-.87.36s-.64-.13-.87-.36l-9.11-9.11c-.23-.23-.36-.54-.36-.87s.13-.64.36-.87Z" style="fill:#66cb92; stroke-width:0px;"/><rect x="447.05" y="225.91" width="12.87" height="12.87" rx="1.26" ry="1.26" transform="translate(-31.47 388.71) rotate(-45)" style="fill:#66cb92; stroke-width:0px;"/><path d="m384.61,194.21h30.99c3.04,0,5.5-2.46,5.5-5.5s-2.46-5.5-5.5-5.5h-76.61c-3.04,0-5.5,2.46-5.5,5.5,0,1.6.69,3.03,1.78,4.04.98.9,2.28,1.46,3.72,1.46h45.63Z" style="fill:#0070ba; stroke-width:0px;"/><path d="m341.84,210.49c0,3.04,2.46,5.5,5.5,5.5h41.2c3.04,0,5.5-2.46,5.5-5.5s-2.46-5.5-5.5-5.5h-41.2c-3.04,0-5.5,2.46-5.5,5.5Z" style="fill:#66cb92; stroke-width:0px;"/><path d="m367.93,232.34c0,3.04,2.46,5.5,5.5,5.5h43.14c3.04,0,5.5-2.46,5.5-5.5s-2.46-5.5-5.5-5.5h-43.14c-3.04,0-5.5,2.46-5.5,5.5Z" style="fill:#0070ba; stroke-width:0px;"/><path d="m350.29,254.38c0,3.04,2.46,5.5,5.5,5.5h50.73c3.04,0,5.5-2.46,5.5-5.5s-2.46-5.5-5.5-5.5h-50.73c-3.04,0-5.5,2.46-5.5,5.5Z" style="fill:#66cb92; stroke-width:0px;"/><path d="m487.19,138.03c0-.19-.02-.39-.06-.58,0-.03-.02-.07-.03-.1-.03-.16-.08-.31-.14-.46-.02-.06-.05-.11-.07-.17-.06-.13-.12-.25-.19-.38-.03-.05-.06-.1-.09-.15-.11-.16-.23-.32-.36-.46l-53.33-56.14c-.14-.15-.3-.28-.47-.4-.05-.04-.1-.07-.15-.1-.13-.08-.26-.16-.4-.22-.05-.02-.1-.05-.16-.07-.19-.08-.38-.14-.58-.18-.03,0-.06,0-.09-.01-.18-.03-.36-.05-.54-.05-.03,0-.05,0-.08,0h-110.18c-4.54,0-8.4,3-9.7,7.11-.3.96-.47,1.99-.47,3.05v195.75c0,5.66,4.6,10.26,10.26,10.26h156.6c4.97,0,9.11-3.56,10.02-8.27.12-.63.19-1.28.19-1.95v-146.42s0-.03,0-.05Zm-53.33-47.57l41.99,44.21h-41.99v-44.21Zm46.52,194.03c0,1.88-1.53,3.41-3.41,3.41h-156.6c-1.9,0-3.45-1.55-3.45-3.45V88.7c0-1.85,1.51-3.36,3.36-3.36h106.77v52.74c0,1.88,1.52,3.41,3.41,3.41h49.93v143.01Z" style="fill:#0070ba; stroke-width:0px;"/><path d="m351.63,115.19c-.92-.81-2.08-1.44-3.48-1.89s-3.07-.68-5-.68h-9.38v28.79h5.36v-10.13h4.02c1.87,0,3.5-.23,4.9-.7,1.39-.46,2.56-1.12,3.48-1.95.93-.84,1.63-1.83,2.09-3,.46-1.16.7-2.44.7-3.83s-.22-2.58-.66-3.7c-.44-1.13-1.12-2.1-2.03-2.91Zm-3.03,8.81c-.24.66-.6,1.21-1.08,1.67s-1.08.81-1.81,1.06c-.73.25-1.59.37-2.57.37h-4.02v-10.33h4.02c.98,0,1.84.12,2.57.35.73.23,1.33.57,1.81,1.01s.84.97,1.08,1.59c.24.62.36,1.32.36,2.09,0,.81-.12,1.54-.36,2.2Z" style="fill:#0070ba; stroke-width:0px;"/><path d="m380.03,116.65c-1.27-1.27-2.81-2.26-4.6-2.97s-3.78-1.07-5.95-1.07h-10.99v28.79h10.99c2.18,0,4.16-.35,5.95-1.06s3.33-1.69,4.6-2.97c1.27-1.27,2.26-2.79,2.97-4.56s1.06-3.7,1.06-5.81-.35-4.05-1.06-5.81c-.7-1.77-1.69-3.28-2.97-4.55Zm-2.09,14.61c-.43,1.25-1.03,2.32-1.81,3.19-.78.87-1.74,1.54-2.86,2-1.12.46-2.39.7-3.79.7h-5.59v-20.27h5.59c1.41,0,2.67.23,3.79.7,1.12.46,2.07,1.13,2.86,2,.78.87,1.39,1.93,1.81,3.19.42,1.25.64,2.67.64,4.25s-.21,3-.64,4.25Z" style="fill:#0070ba; stroke-width:0px;"/><polygon points="388.25 141.41 393.65 141.41 393.65 129.68 404.42 129.68 404.42 125.4 393.65 125.4 393.65 116.88 406.41 116.88 406.41 112.62 388.25 112.62 388.25 141.41" style="fill:#0070ba; stroke-width:0px;"/></svg>