<?xml version="1.0" encoding="UTF-8"?><svg id="b" xmlns="http://www.w3.org/2000/svg" viewBox="0 0 500 500"><circle cx="50.26" cy="213.73" r="7.5" style="fill:#cae3f4;"/><circle cx="50.26" cy="263.73" r="7.5" style="fill:#cae3f4;"/><circle cx="50.26" cy="313.73" r="7.5" style="fill:#0070ba;"/><path d="M165.26,306.23h-85c-4.14,0-7.5,3.36-7.5,7.5s3.36,7.5,7.5,7.5h85c4.14,0,7.5-3.36,7.5-7.5s-3.36-7.5-7.5-7.5Z" style="fill:#0070ba;"/><path d="M375.26,306.23h-35c-4.14,0-7.5,3.36-7.5,7.5s3.36,7.5,7.5,7.5h35c4.14,0,7.5-3.36,7.5-7.5s-3.36-7.5-7.5-7.5Z" style="fill:#0070ba;"/><path d="M305.26,306.23h-35c-4.14,0-7.5,3.36-7.5,7.5s3.36,7.5,7.5,7.5h35c4.14,0,7.5-3.36,7.5-7.5s-3.36-7.5-7.5-7.5Z" style="fill:#0070ba;"/><path d="M235.26,306.23h-35c-4.14,0-7.5,3.36-7.5,7.5s3.36,7.5,7.5,7.5h35c4.14,0,7.5-3.36,7.5-7.5s-3.36-7.5-7.5-7.5Z" style="fill:#0070ba;"/><circle cx="50.26" cy="363.73" r="7.5" style="fill:#cae3f4;"/><path d="M165.26,356.23h-85c-4.14,0-7.5,3.36-7.5,7.5s3.36,7.5,7.5,7.5h85c4.14,0,7.5-3.36,7.5-7.5s-3.36-7.5-7.5-7.5Z" style="fill:#cae3f4;"/><path d="M375.26,356.23h-35c-4.14,0-7.5,3.36-7.5,7.5s3.36,7.5,7.5,7.5h35c4.14,0,7.5-3.36,7.5-7.5s-3.36-7.5-7.5-7.5Z" style="fill:#cae3f4;"/><path d="M305.26,356.23h-35c-4.14,0-7.5,3.36-7.5,7.5s3.36,7.5,7.5,7.5h35c4.14,0,7.5-3.36,7.5-7.5s-3.36-7.5-7.5-7.5Z" style="fill:#cae3f4;"/><path d="M235.26,356.23h-35c-4.14,0-7.5,3.36-7.5,7.5s3.36,7.5,7.5,7.5h35c4.14,0,7.5-3.36,7.5-7.5s-3.36-7.5-7.5-7.5Z" style="fill:#cae3f4;"/><circle cx="50.26" cy="163.73" r="7.5" style="fill:#cae3f4;"/><path d="M86.19,260.73v-113.19c-8.23.06-14.88,6.75-14.88,14.99v110.08c0,8.28,6.72,15,15,15h336.41c8.14,0,14.74-6.48,14.98-14.56H98.51c-6.79,0-12.32-5.53-12.32-12.32Z" style="fill:#cae3f4;"/><path d="M444.92,128.77H98.51c-6.79,0-12.32,5.53-12.32,12.32v119.64c0,6.79,5.53,12.32,12.32,12.32h346.41c6.79,0,12.32-5.53,12.32-12.32v-119.64c0-6.79-5.53-12.32-12.32-12.32ZM452.6,260.73c0,4.24-3.45,7.68-7.68,7.68H98.51c-4.24,0-7.68-3.45-7.68-7.68v-119.64c0-4.24,3.45-7.68,7.68-7.68h346.41c4.24,0,7.68,3.45,7.68,7.68v119.64Z" style="fill:#0070ba;"/><path d="M438.7,147.1c.14-.14.14-.37,0-.51-.07-.07-.16-.11-.25-.11s-.18.04-.25.11l-5.56,5.56.51.51,5.56-5.56Z" style="fill:#0070ba;"/><path d="M430.7,154.07l-5.56,5.56c-.14.14-.14.37,0,.51s.37.14.51,0l5.56-5.56-.51-.51Z" style="fill:#0070ba;"/><path d="M439.4,147.8c.53-.53.53-1.39,0-1.92-.53-.53-1.39-.53-1.92,0l-5.56,5.56-5.56-5.56c-.53-.53-1.39-.53-1.92,0-.53.53-.53,1.39,0,1.92l5.56,5.56-5.56,5.56c-.53.53-.53,1.39,0,1.92.27.27.61.4.96.4s.7-.13.96-.4l5.56-5.56,5.56,5.56c.27.27.61.4.96.4s.7-.13.96-.4c.53-.53.53-1.39,0-1.92l-5.56-5.56,5.56-5.56ZM438.7,160.15c-.14.14-.37.14-.51,0l-13.05-13.05c-.14-.14-.14-.37,0-.51.07-.07.16-.11.25-.11s.18.04.25.11l13.05,13.05c.14.14.14.37,0,.51ZM425.14,160.15c-.14-.14-.14-.37,0-.51l5.56-5.56.51.51-5.56,5.56c-.14.14-.37.14-.51,0ZM432.62,152.15l5.56-5.56c.07-.07.16-.11.25-.11s.18.04.25.11c.14.14.14.37,0,.51l-5.56,5.56-.51-.51Z" style="fill:#0070ba;"/><path d="M425.65,146.59c-.07-.07-.16-.11-.25-.11s-.18.04-.25.11c-.14.14-.14.37,0,.51l13.05,13.05c.14.14.37.14.51,0s.14-.37,0-.51l-13.05-13.05Z" style="fill:#0070ba;"/><path d="M110.76,158.7c-2.76,0-5,2.24-5,5s2.24,5,5,5h60c2.76,0,5-2.24,5-5s-2.24-5-5-5h-60Z" style="fill:#cae3f4;"/><path d="M188.76,185.53h-76c-4.32,0-7.83,3.51-7.83,7.83v35.6c0,4.32,3.51,7.83,7.83,7.83h76c4.32,0,7.83-3.51,7.83-7.83v-35.6c0-4.32-3.51-7.83-7.83-7.83ZM190.93,228.96c0,1.2-.97,2.17-2.17,2.17h-76c-1.2,0-2.17-.97-2.17-2.17v-35.6c0-1.2.97-2.17,2.17-2.17h76c1.2,0,2.17.97,2.17,2.17v35.6Z" style="fill:#cae3f4;"/><path d="M422.74,233.11c.24-.35.45-.73.63-1.12l-1.37.38.74.74Z" style="fill:#66cb92;"/><path d="M418.43,236.09c.12-.03.25-.06.37-.1l-.27-.27-.1.36Z" style="fill:#66cb92;"/><path d="M404.22,231.6h-79.9c-1.46,0-2.65-1.19-2.65-2.65v-35.6c0-1.46,1.19-2.65,2.65-2.65h92.36c1.46,0,2.65,1.19,2.65,2.65v25.18l4.71,1.68v-26.86c0-4.05-3.3-7.35-7.35-7.35h-92.36c-4.05,0-7.35,3.3-7.35,7.35v35.6c0,4.05,3.3,7.35,7.35,7.35h81.58l-1.68-4.7Z" style="fill:#66cb92;"/><path d="M294.22,185.53h-76c-4.32,0-7.83,3.51-7.83,7.83v35.6c0,4.32,3.51,7.83,7.83,7.83h76c4.32,0,7.83-3.51,7.83-7.83v-35.6c0-4.32-3.51-7.83-7.83-7.83ZM296.39,228.96c0,1.2-.97,2.17-2.17,2.17h-76c-1.2,0-2.17-.97-2.17-2.17v-35.6c0-1.2.97-2.17,2.17-2.17h76c1.2,0,2.17.97,2.17,2.17v35.6Z" style="fill:#cae3f4;"/><path d="M337.2,211.34c.85.35,1.78.52,2.79.52.92,0,1.8-.17,2.65-.52.85-.35,1.59-.84,2.23-1.47.64-.63,1.15-1.39,1.54-2.27.39-.88.58-1.85.58-2.92s-.17-2.11-.52-3.01c-.35-.9-.83-1.67-1.45-2.31-.62-.64-1.36-1.14-2.22-1.49-.86-.35-1.8-.53-2.81-.53s-1.94.18-2.79.53c-.85.35-1.58.85-2.2,1.49-.62.64-1.1,1.41-1.45,2.31-.35.9-.52,1.9-.52,3.01s.17,2.04.52,2.92c.35.88.83,1.64,1.45,2.27.62.63,1.35,1.12,2.2,1.47ZM337.99,202.99c.11-.45.25-.8.44-1.07.19-.27.41-.45.68-.56s.56-.16.88-.16.62.05.89.16.51.29.71.56c.2.27.36.62.47,1.07.11.45.17,1.01.17,1.69,0,.64-.06,1.17-.17,1.6s-.27.77-.47,1.02c-.2.25-.44.43-.71.54s-.57.16-.89.16-.61-.05-.88-.16-.49-.29-.68-.54c-.19-.25-.33-.59-.44-1.02s-.16-.96-.16-1.6c0-.68.05-1.24.16-1.69Z" style="fill:#66cb92;"/><path d="M361.78,214.6c-.62-.64-1.36-1.14-2.22-1.49-.86-.35-1.8-.53-2.81-.53s-1.94.18-2.79.53-1.58.85-2.2,1.49c-.62.64-1.1,1.41-1.45,2.31-.35.9-.52,1.9-.52,3.01s.17,2.04.52,2.93.83,1.65,1.45,2.28c.62.63,1.35,1.12,2.2,1.47.85.35,1.78.52,2.79.52.92,0,1.8-.17,2.65-.52.85-.35,1.59-.84,2.23-1.47.64-.63,1.15-1.39,1.54-2.28s.58-1.86.58-2.93-.17-2.11-.52-3.01c-.35-.9-.83-1.67-1.45-2.31ZM358.82,221.52c-.11.43-.27.77-.47,1.02-.2.25-.44.43-.71.54-.27.11-.57.16-.89.16s-.61-.05-.88-.16c-.27-.11-.49-.29-.68-.54-.19-.25-.33-.59-.44-1.02s-.16-.96-.16-1.6.05-1.22.16-1.67c.11-.45.25-.8.44-1.07.19-.27.41-.45.68-.56.27-.11.56-.16.88-.16s.62.05.89.16c.27.11.51.29.71.56.2.27.36.62.47,1.07.11.45.17,1,.17,1.67s-.06,1.17-.17,1.6Z" style="fill:#66cb92;"/><path d="M358.11,197.62c-.52,0-.93.1-1.22.29-.29.19-.54.4-.74.63l-21.96,28.22h4.64c.43,0,.79-.08,1.09-.25.3-.17.55-.38.75-.63l21.96-28.26h-4.52Z" style="fill:#66cb92;"/><path d="M424.27,234.75l-.69-.69,1.28-.36,10.7-2.98c1.19-.34,1.87-1.58,1.53-2.76-.2-.69-.71-1.24-1.38-1.48v-.09l-10.24-3.66-4.39-1.57-16.68-5.96c-1.16-.42-2.44.18-2.86,1.34-.18.49-.18,1.03,0,1.52l5.46,15.28,1.57,4.39,4.16,11.64c.32.89,1.16,1.48,2.1,1.48.98-.03,1.82-.69,2.08-1.63l3.35-11.69.1-.34.25.25,15,15c.42.42.99.65,1.59.65.59,0,1.17-.23,1.59-.65,0,0,0,0,.01-.01.87-.88.86-2.29-.01-3.16l-14.51-14.51Z" style="fill:#0070ba;"/><path d="M402.02,204.82v-7.19c0-.77-.63-1.4-1.4-1.4s-1.4.63-1.4,1.4v7.19c0,.77.63,1.4,1.4,1.4s1.4-.63,1.4-1.4Z" style="fill:#0070ba;"/><path d="M392.15,207.93c.26.26.61.4.98.4h.03c.37,0,.72-.14.99-.41.27-.27.42-.62.41-1,0-.37-.15-.72-.41-.99l-5.11-5.08c-.47-.4-1.24-.4-1.76.05-.58.5-.65,1.39-.15,1.97l5.03,5.05Z" style="fill:#0070ba;"/><path d="M382.45,214.41c0,.77.63,1.4,1.4,1.4h7.19c.77,0,1.4-.63,1.4-1.4s-.63-1.4-1.4-1.4h-7.19c-.77,0-1.4.63-1.4,1.4Z" style="fill:#0070ba;"/><path d="M388,228.37h.05s.05,0,.05,0c.35.02.71-.1.98-.34l5.05-5.03c.26-.26.41-.62.41-.99s-.15-.73-.41-1c-.27-.27-.63-.41-1-.41s-.72.14-1,.41l-5.08,5.1c-.54.54-.54,1.43,0,1.97.22.18.58.31.93.28Z" style="fill:#0070ba;"/><path d="M413.24,200.4c-.38,0-.74.16-1.01.44l-5.12,5.1c-.55.56-.55,1.44,0,1.99.26.26.61.41.99.41h.03c.37,0,.73-.15.99-.41l5.21-5.11c.25-.26.39-.62.38-1,0-.38-.16-.74-.44-1.01-.27-.26-.62-.4-1-.4,0,0-.02,0-.03,0Z" style="fill:#0070ba;"/></svg>