<?xml version="1.0" standalone="no"?>
<!DOCTYPE svg PUBLIC "-//W3C//DTD SVG 1.1//EN" "http://www.w3.org/Graphics/SVG/1.1/DTD/svg11.dtd" >
<svg xmlns="http://www.w3.org/2000/svg">
<defs>
  <font id="openproject-icon-font" horiz-adv-x="2048">
    <font-face font-family="openproject-icon-font"
      units-per-em="1024" ascent="924"
      descent="100" />
    <missing-glyph horiz-adv-x="0" />
    <glyph glyph-name="zoom-out"
      unicode="&#xF101;"
      horiz-adv-x="1024" d="M994 96L722 344C722 346 722 346 720 346C772 412 802 494 802 584C802 804 622 982 402 982S4 804 4 584S182 186 402 186C482 186 556 210 618 250C620 246 622 242 626 240L896 -8C926 -36 966 -38 986 -16L1008 8C1028 30 1022 70 994 96zM402 290C240 290 108 422 108 584S240 878 402 878C566 878 696 746 696 584S566 290 402 290zM244 638H562V554H244z" />
    <glyph glyph-name="zoom-out-1"
      unicode="&#x7A;&#x6F;&#x6F;&#x6D;&#x2D;&#x6F;&#x75;&#x74;"
      horiz-adv-x="1024" d="M994 96L722 344C722 346 722 346 720 346C772 412 802 494 802 584C802 804 622 982 402 982S4 804 4 584S182 186 402 186C482 186 556 210 618 250C620 246 622 242 626 240L896 -8C926 -36 966 -38 986 -16L1008 8C1028 30 1022 70 994 96zM402 290C240 290 108 422 108 584S240 878 402 878C566 878 696 746 696 584S566 290 402 290zM244 638H562V554H244z" />
    <glyph glyph-name="zoom-in"
      unicode="&#xF102;"
      horiz-adv-x="1024" d="M994 96L722 344C722 346 722 346 720 346C772 412 802 494 802 584C802 804 622 982 402 982S4 804 4 584S182 186 402 186C482 186 556 210 618 250C620 246 622 242 626 240L896 -8C926 -36 966 -38 986 -16L1008 8C1028 30 1022 70 994 96zM402 290C240 290 108 422 108 584S240 878 402 878C566 878 696 746 696 584S566 290 402 290zM444 758H362V638H244V554H362V440H444V554H562V638H444z" />
    <glyph glyph-name="zoom-in-1"
      unicode="&#x7A;&#x6F;&#x6F;&#x6D;&#x2D;&#x69;&#x6E;"
      horiz-adv-x="1024" d="M994 96L722 344C722 346 722 346 720 346C772 412 802 494 802 584C802 804 622 982 402 982S4 804 4 584S182 186 402 186C482 186 556 210 618 250C620 246 622 242 626 240L896 -8C926 -36 966 -38 986 -16L1008 8C1028 30 1022 70 994 96zM402 290C240 290 108 422 108 584S240 878 402 878C566 878 696 746 696 584S566 290 402 290zM444 758H362V638H244V554H362V440H444V554H562V638H444z" />
    <glyph glyph-name="zoom-auto"
      unicode="&#xF103;"
      horiz-adv-x="1024" d="M938.8 533.5999999999999L822.4 533.5999999999999L822.4 723.4000000000001L629.4 723.4000000000001L629.4 838.6L938.8 838.6zM208.4 533.5999999999999L92 533.5999999999999L92 838.6L405.4 838.6L405.4 723.4000000000001L208.4 723.4000000000001zM938.8 -10L629.4 -10L629.4 108.3999999999999L822.4 108.3999999999999L822.4 316.2000000000001L938.8 316.2000000000001zM405.4 -10L92 -10L92 316.2000000000001L208.4 316.2000000000001L208.4 108.3999999999999L405.4 108.3999999999999z" />
    <glyph glyph-name="zoom-auto-1"
      unicode="&#x7A;&#x6F;&#x6F;&#x6D;&#x2D;&#x61;&#x75;&#x74;&#x6F;"
      horiz-adv-x="1024" d="M938.8 533.5999999999999L822.4 533.5999999999999L822.4 723.4000000000001L629.4 723.4000000000001L629.4 838.6L938.8 838.6zM208.4 533.5999999999999L92 533.5999999999999L92 838.6L405.4 838.6L405.4 723.4000000000001L208.4 723.4000000000001zM938.8 -10L629.4 -10L629.4 108.3999999999999L822.4 108.3999999999999L822.4 316.2000000000001L938.8 316.2000000000001zM405.4 -10L92 -10L92 316.2000000000001L208.4 316.2000000000001L208.4 108.3999999999999L405.4 108.3999999999999z" />
    <glyph glyph-name="zen-mode"
      unicode="&#xF104;"
      horiz-adv-x="1024" d="M320 924V988H0V668H64V880L294 642L346 694L108 924zM960 72L730 310L678 258L916 28H704V-36H1024V284H960zM960 988H704V924H916L678 694L730 642L960 880V668H1024V988zM294 310L64 72V284H0V-36H320V28H108L346 258z" />
    <glyph glyph-name="zen-mode-1"
      unicode="&#x7A;&#x65;&#x6E;&#x2D;&#x6D;&#x6F;&#x64;&#x65;"
      horiz-adv-x="1024" d="M320 924V988H0V668H64V880L294 642L346 694L108 924zM960 72L730 310L678 258L916 28H704V-36H1024V284H960zM960 988H704V924H916L678 694L730 642L960 880V668H1024V988zM294 310L64 72V284H0V-36H320V28H108L346 258z" />
    <glyph glyph-name="yes"
      unicode="&#xF105;"
      horiz-adv-x="1024" d="M352 8L26 380C-12 412 0 470 38 502C84 534 140 528 180 488L346 304L844 912C876 950 940 956 986 930C1030 904 1036 848 1004 808z" />
    <glyph glyph-name="yes-1"
      unicode="&#x79;&#x65;&#x73;"
      horiz-adv-x="1024" d="M352 8L26 380C-12 412 0 470 38 502C84 534 140 528 180 488L346 304L844 912C876 950 940 956 986 930C1030 904 1036 848 1004 808z" />
    <glyph glyph-name="workflow"
      unicode="&#xF106;"
      horiz-adv-x="1024" d="M874 394L868 382C832 220 684 110 514 110C426 110 342 146 278 202L360 260L56 402L84 76L154 122C248 28 376 -28 514 -28C762 -28 972 132 1014 370L1020 394zM156 552C192 714 340 832 510 832C598 832 682 800 746 744L664 688L968 566L940 884L870 832C776 926 648 980 510 980C262 980 52 804 10 566L4 524H150z" />
    <glyph glyph-name="workflow-1"
      unicode="&#x77;&#x6F;&#x72;&#x6B;&#x66;&#x6C;&#x6F;&#x77;"
      horiz-adv-x="1024" d="M874 394L868 382C832 220 684 110 514 110C426 110 342 146 278 202L360 260L56 402L84 76L154 122C248 28 376 -28 514 -28C762 -28 972 132 1014 370L1020 394zM156 552C192 714 340 832 510 832C598 832 682 800 746 744L664 688L968 566L940 884L870 832C776 926 648 980 510 980C262 980 52 804 10 566L4 524H150z" />
    <glyph glyph-name="work-packages"
      unicode="&#xF107;"
      horiz-adv-x="1024" d="M832 348V540H576V604H768V988H320V604H512V540H192V348H0V-36H448V348H256V476H768V348H576V-36H1024V348zM384 284V220H64V284zM384 860V924H704V860zM960 220H640V284H960z" />
    <glyph glyph-name="work-packages-1"
      unicode="&#x77;&#x6F;&#x72;&#x6B;&#x2D;&#x70;&#x61;&#x63;&#x6B;&#x61;&#x67;&#x65;&#x73;"
      horiz-adv-x="1024" d="M832 348V540H576V604H768V988H320V604H512V540H192V348H0V-36H448V348H256V476H768V348H576V-36H1024V348zM384 284V220H64V284zM384 860V924H704V860zM960 220H640V284H960z" />
    <glyph glyph-name="wiki2"
      unicode="&#xF108;"
      horiz-adv-x="1024" d="M478 814C356 884 138 884 138 884V272S356 272 478 202zM546 814C668 884 886 884 886 884V272S668 272 546 202zM954 816V194L546 136H478L70 194V816H2V136L478 68H546L1022 136V816z" />
    <glyph glyph-name="wiki2-1"
      unicode="&#x77;&#x69;&#x6B;&#x69;&#x32;"
      horiz-adv-x="1024" d="M478 814C356 884 138 884 138 884V272S356 272 478 202zM546 814C668 884 886 884 886 884V272S668 272 546 202zM954 816V194L546 136H478L70 194V816H2V136L478 68H546L1022 136V816z" />
    <glyph glyph-name="wiki"
      unicode="&#xF109;"
      horiz-adv-x="1024" d="M512 700C512 860 156 892 0 892V188H64V124C192 124 448 162 448 60H576C576 162 832 124 960 124V188H1024V892C868 892 512 860 512 700zM64 828C96 828 124 826 152 824H174C300 814 432 788 446 712C448 708 448 704 448 700V224C354 278 180 284 64 284zM960 284C844 284 670 278 576 224V700C576 742 644 824 960 828z" />
    <glyph glyph-name="wiki-1"
      unicode="&#x77;&#x69;&#x6B;&#x69;"
      horiz-adv-x="1024" d="M512 700C512 860 156 892 0 892V188H64V124C192 124 448 162 448 60H576C576 162 832 124 960 124V188H1024V892C868 892 512 860 512 700zM64 828C96 828 124 826 152 824H174C300 814 432 788 446 712C448 708 448 704 448 700V224C354 278 180 284 64 284zM960 284C844 284 670 278 576 224V700C576 742 644 824 960 828z" />
    <glyph glyph-name="wiki-edit"
      unicode="&#xF10A;"
      horiz-adv-x="1024" d="M512 710C512 870 156 902 0 902V198H32C44 198 54 196 64 196V134C192 134 448 172 448 70H576V710C576 752 644 834 960 838V456H1024V902C868 902 512 870 512 710zM448 262V232C354 288 180 292 64 294V838C96 836 124 836 152 834C156 834 162 832 168 832H174C300 824 432 796 446 722C448 716 448 712 448 710zM654 126L644 64L636 2L698 10L762 20L708 74zM958 216L940 234L778 74L762 92L922 252L886 288L726 128L708 146L868 306L850 324L672 146L778 38zM942 376C932 386 916 386 906 378V374L904 376L870 340L978 234L1012 268C1012 270 1014 270 1014 270C1024 280 1024 296 1014 306z" />
    <glyph glyph-name="wiki-edit-1"
      unicode="&#x77;&#x69;&#x6B;&#x69;&#x2D;&#x65;&#x64;&#x69;&#x74;"
      horiz-adv-x="1024" d="M512 710C512 870 156 902 0 902V198H32C44 198 54 196 64 196V134C192 134 448 172 448 70H576V710C576 752 644 834 960 838V456H1024V902C868 902 512 870 512 710zM448 262V232C354 288 180 292 64 294V838C96 836 124 836 152 834C156 834 162 832 168 832H174C300 824 432 796 446 722C448 716 448 712 448 710zM654 126L644 64L636 2L698 10L762 20L708 74zM958 216L940 234L778 74L762 92L922 252L886 288L726 128L708 146L868 306L850 324L672 146L778 38zM942 376C932 386 916 386 906 378V374L904 376L870 340L978 234L1012 268C1012 270 1014 270 1014 270C1024 280 1024 296 1014 306z" />
    <glyph glyph-name="watching"
      unicode="&#xF10B;"
      horiz-adv-x="1024" d="M512 625.3333333333334C288.0512 625.3333333333334 170.6666666666667 459.6629333333334 170.6666666666667 433.3333333333334C170.6666666666667 407.072 288.0512 241.3333333333334 512 241.3333333333334C735.9146666666667 241.3333333333334 853.3333333333333 407.072 853.3333333333333 433.3333333333334C853.3333333333333 459.6629333333334 735.9146666666667 625.3333333333334 512 625.3333333333334zM512 285.664C428.2026666666667 285.664 360.2773333333334 351.7674666666667 360.2773333333334 433.3333333333334C360.2773333333334 514.8992000000001 428.2026666666667 581.0705066666667 512 581.0705066666667C595.7973333333333 581.0705066666667 663.6885333333332 514.8992000000001 663.6885333333332 433.3333333333334C663.6885333333332 351.7674666666667 595.7973333333333 285.664 512 285.664zM512 433.3333333333334C498.1077333333333 448.6592 534.6304 507.1846400000001 512 507.1846400000001C470.0842666666666 507.1846400000001 436.1216 474.0970666666666 436.1216 433.3333333333334C436.1216 392.5696000000001 470.0842666666666 359.4816000000001 512 359.4816000000001C553.8815999999999 359.4816000000001 587.8783999999999 392.5696000000001 587.8783999999999 433.3333333333334C587.8783999999999 452.0896 523.8101333333333 420.3370666666667 512 433.3333333333334z" />
    <glyph glyph-name="watching-1"
      unicode="&#x77;&#x61;&#x74;&#x63;&#x68;&#x69;&#x6E;&#x67;"
      horiz-adv-x="1024" d="M512 625.3333333333334C288.0512 625.3333333333334 170.6666666666667 459.6629333333334 170.6666666666667 433.3333333333335C170.6666666666667 407.072 288.0512 241.3333333333334 512 241.3333333333334C735.9146666666667 241.3333333333334 853.3333333333333 407.072 853.3333333333333 433.3333333333335C853.3333333333333 459.6629333333334 735.9146666666667 625.3333333333334 512 625.3333333333334zM512 285.664C428.2026666666667 285.664 360.2773333333334 351.7674666666667 360.2773333333334 433.3333333333335C360.2773333333334 514.8992000000001 428.2026666666667 581.0705066666667 512 581.0705066666667C595.7973333333333 581.0705066666667 663.6885333333332 514.8992000000001 663.6885333333332 433.3333333333335C663.6885333333332 351.7674666666667 595.7973333333333 285.664 512 285.664zM512 433.3333333333335C498.1077333333333 448.6592 534.6304 507.1846400000001 512 507.1846400000001C470.0842666666666 507.1846400000001 436.1216 474.0970666666666 436.1216 433.3333333333335C436.1216 392.5696000000001 470.0842666666666 359.4816000000002 512 359.4816000000002C553.8815999999999 359.4816000000002 587.8783999999999 392.5696000000001 587.8783999999999 433.3333333333335C587.8783999999999 452.0896 523.8101333333333 420.3370666666667 512 433.3333333333335z" />
    <glyph glyph-name="watched"
      unicode="&#xF10C;"
      horiz-adv-x="1024" d="M2 510V470C238 78 786 78 1022 470V510C786 902 238 902 2 510zM512 254C382 254 276 360 276 490S382 724 512 724S748 620 748 490S642 254 512 254zM630 490C630 424 576 372 512 372S394 424 394 490C394 554 448 608 512 608S630 554 630 490z" />
    <glyph glyph-name="watched-1"
      unicode="&#x77;&#x61;&#x74;&#x63;&#x68;&#x65;&#x64;"
      horiz-adv-x="1024" d="M2 510V470C238 78 786 78 1022 470V510C786 902 238 902 2 510zM512 254C382 254 276 360 276 490S382 724 512 724S748 620 748 490S642 254 512 254zM630 490C630 424 576 372 512 372S394 424 394 490C394 554 448 608 512 608S630 554 630 490z" />
    <glyph glyph-name="warning"
      unicode="&#xF10D;"
      horiz-adv-x="1024" d="M1006 114L858 394C822 462 762 572 726 640L578 914C542 982 482 982 446 914L298 640C262 572 202 460 166 392L18 114C-18 46 14 -14 92 -14H932C1010 -14 1042 46 1006 114zM582 126H442V266H582zM582 338H442V618H582z" />
    <glyph glyph-name="warning-1"
      unicode="&#x77;&#x61;&#x72;&#x6E;&#x69;&#x6E;&#x67;"
      horiz-adv-x="1024" d="M1006 114L858 394C822 462 762 572 726 640L578 914C542 982 482 982 446 914L298 640C262 572 202 460 166 392L18 114C-18 46 14 -14 92 -14H932C1010 -14 1042 46 1006 114zM582 126H442V266H582zM582 338H442V618H582z" />
    <glyph glyph-name="view-timeline"
      unicode="&#xF10E;"
      horiz-adv-x="1024" d="M88 836H346V734H88zM204 630H932V528H204zM542 424H738V322H542zM106 218H834V116H106zM0 836H66V116H0zM958 836H1024V116H958z" />
    <glyph glyph-name="view-timeline-1"
      unicode="&#x76;&#x69;&#x65;&#x77;&#x2D;&#x74;&#x69;&#x6D;&#x65;&#x6C;&#x69;&#x6E;&#x65;"
      horiz-adv-x="1024" d="M88 836H346V734H88zM204 630H932V528H204zM542 424H738V322H542zM106 218H834V116H106zM0 836H66V116H0zM958 836H1024V116H958z" />
    <glyph glyph-name="view-split2"
      unicode="&#xF10F;"
      horiz-adv-x="1024" d="M1024 733.9C1024 733.9 1024 733.9 1024 733.9C1024 627.04 1024 567.6800000000001 1024 555.8C1024 555.8 1024 555.8 1024 555.8C837 555.8 733.12 555.8 712.34 555.8C712.34 555.8 712.34 555.8 712.34 555.8C712.34 662.6600000000001 712.34 722.02 712.34 733.9C712.34 733.9 712.34 733.9 712.34 733.9C899.34 733.9 1003.22 733.9 1024 733.9zM1024 511.28C1024 511.28 1024 511.28 1024 511.28C1024 404.4400000000001 1024 345.06 1024 333.2000000000001C1024 333.2000000000001 1024 333.2000000000001 1024 333.2000000000001C837 333.2000000000001 733.12 333.2000000000001 712.34 333.2000000000001C712.34 333.2000000000001 712.34 333.2000000000001 712.34 333.2000000000001C712.34 440.04 712.34 499.42 712.34 511.28C712.34 511.28 712.34 511.28 712.34 511.28C899.34 511.28 1003.22 511.28 1024 511.28zM1024 288.68C1024 288.68 1024 288.68 1024 288.68C1024 181.8200000000001 1024 122.46 1024 110.58C1024 110.58 1024 110.58 1024 110.58C837 110.58 733.12 110.58 712.34 110.58C712.34 110.58 712.34 110.58 712.34 110.58C712.34 217.4400000000001 712.34 276.8 712.34 288.68C712.34 288.68 712.34 288.68 712.34 288.68C899.34 288.68 1003.22 288.68 1024 288.68zM591.24 583.86L311.6600000000001 733.9L32.06 583.86L311.6600000000001 428.48L311.6600000000001 428.48L591.24 583.86zM356.18 90.1L623.3 233.02L623.3 500.16L356.18 351.4600000000001L356.18 351.4600000000001L356.18 90.1zM0 500.16L0 233.02L267.14 90.1L267.14 351.4600000000001L267.14 351.4600000000001L0 500.16z" />
    <glyph glyph-name="view-split2-1"
      unicode="&#x76;&#x69;&#x65;&#x77;&#x2D;&#x73;&#x70;&#x6C;&#x69;&#x74;&#x32;"
      horiz-adv-x="1024" d="M1024 733.9C1024 733.9 1024 733.9 1024 733.9C1024 627.04 1024 567.6800000000001 1024 555.8C1024 555.8 1024 555.8 1024 555.8C837 555.8 733.12 555.8 712.34 555.8C712.34 555.8 712.34 555.8 712.34 555.8C712.34 662.6600000000001 712.34 722.02 712.34 733.9C712.34 733.9 712.34 733.9 712.34 733.9C899.34 733.9 1003.22 733.9 1024 733.9zM1024 511.28C1024 511.28 1024 511.28 1024 511.28C1024 404.4400000000001 1024 345.06 1024 333.2000000000001C1024 333.2000000000001 1024 333.2000000000001 1024 333.2000000000001C837 333.2000000000001 733.12 333.2000000000001 712.34 333.2000000000001C712.34 333.2000000000001 712.34 333.2000000000001 712.34 333.2000000000001C712.34 440.04 712.34 499.42 712.34 511.28C712.34 511.28 712.34 511.28 712.34 511.28C899.34 511.28 1003.22 511.28 1024 511.28zM1024 288.68C1024 288.68 1024 288.68 1024 288.68C1024 181.8200000000001 1024 122.46 1024 110.58C1024 110.58 1024 110.58 1024 110.58C837 110.58 733.12 110.58 712.34 110.58C712.34 110.58 712.34 110.58 712.34 110.58C712.34 217.4400000000001 712.34 276.8 712.34 288.68C712.34 288.68 712.34 288.68 712.34 288.68C899.34 288.68 1003.22 288.68 1024 288.68zM591.24 583.86L311.6600000000001 733.9L32.06 583.86L311.6600000000001 428.48L311.6600000000001 428.48L591.24 583.86zM356.18 90.1L623.3 233.02L623.3 500.16L356.18 351.4600000000001L356.18 351.4600000000001L356.18 90.1zM0 500.16L0 233.02L267.14 90.1L267.14 351.4600000000001L267.14 351.4600000000001L0 500.16z" />
    <glyph glyph-name="view-split"
      unicode="&#xF110;"
      horiz-adv-x="1024" d="M0 796H384V668H0zM0 604H384V476H0zM0 412H384V284H0zM0 220H384V92H0zM448 796H1024V92H448z" />
    <glyph glyph-name="view-split-1"
      unicode="&#x76;&#x69;&#x65;&#x77;&#x2D;&#x73;&#x70;&#x6C;&#x69;&#x74;"
      horiz-adv-x="1024" d="M0 796H384V668H0zM0 604H384V476H0zM0 412H384V284H0zM0 220H384V92H0zM448 796H1024V92H448z" />
    <glyph glyph-name="view-split-viewer-table"
      unicode="&#xF111;"
      horiz-adv-x="1024" d="M586.9 571.11L307.32 721.15L27.72 571.11L307.32 415.73zM351.84 77.35L618.96 220.27V487.41L351.8400000000001 338.7100000000001zM-4.34 487.41V220.27L262.8 77.35V338.7100000000001zM1002.644 178.61V72.136H690.64V178.61H1002.644zM1002.644 313.006V206.53H690.64V313.006H1002.644zM1002.644 448.164V341.688H690.64V448.164H1002.644zM1002.644 583.322V476.848H690.64V583.3199999999999H1002.644zM1002.644 724.698V618.222H690.64V724.7H1002.644z" />
    <glyph glyph-name="view-split-viewer-table-1"
      unicode="&#x76;&#x69;&#x65;&#x77;&#x2D;&#x73;&#x70;&#x6C;&#x69;&#x74;&#x2D;&#x76;&#x69;&#x65;&#x77;&#x65;&#x72;&#x2D;&#x74;&#x61;&#x62;&#x6C;&#x65;"
      horiz-adv-x="1024" d="M586.9 571.11L307.32 721.15L27.72 571.11L307.32 415.73zM351.84 77.35L618.96 220.27V487.41L351.8400000000001 338.7100000000001zM-4.34 487.41V220.27L262.8 77.35V338.7100000000001zM1002.644 178.61V72.136H690.64V178.61H1002.644zM1002.644 313.006V206.53H690.64V313.006H1002.644zM1002.644 448.164V341.688H690.64V448.164H1002.644zM1002.644 583.322V476.848H690.64V583.3199999999999H1002.644zM1002.644 724.698V618.222H690.64V724.7H1002.644z" />
    <glyph glyph-name="view-model"
      unicode="&#xF112;"
      horiz-adv-x="1024" d="M956.72 685.34L512 924L67.28 685.34L512 438.2L512 438.2L956.72 685.34zM582.82 -100L1007.72 127.3200000000001L1007.72 552.22L582.82 315.7000000000001L582.82 315.7000000000001L582.82 -100zM16.28 552.22L16.28 127.3200000000001L441.18 -100L441.18 315.7000000000001L441.18 315.7000000000001L16.28 552.22z" />
    <glyph glyph-name="view-model-1"
      unicode="&#x76;&#x69;&#x65;&#x77;&#x2D;&#x6D;&#x6F;&#x64;&#x65;&#x6C;"
      horiz-adv-x="1024" d="M956.72 685.34L512 924L67.28 685.34L512 438.2L512 438.2L956.72 685.34zM582.82 -100L1007.72 127.3200000000001L1007.72 552.22L582.82 315.7000000000001L582.82 315.7000000000001L582.82 -100zM16.28 552.22L16.28 127.3200000000001L441.18 -100L441.18 315.7000000000001L441.18 315.7000000000001L16.28 552.22z" />
    <glyph glyph-name="view-list"
      unicode="&#xF113;"
      horiz-adv-x="1024" d="M0 796H1024V668H0zM0 604H1024V476H0zM0 412H1024V284H0zM0 220H1024V92H0z" />
    <glyph glyph-name="view-list-1"
      unicode="&#x76;&#x69;&#x65;&#x77;&#x2D;&#x6C;&#x69;&#x73;&#x74;"
      horiz-adv-x="1024" d="M0 796H1024V668H0zM0 604H1024V476H0zM0 412H1024V284H0zM0 220H1024V92H0z" />
    <glyph glyph-name="view-fullscreen"
      unicode="&#xF114;"
      horiz-adv-x="1024" d="M0 796H1024V92H0z" />
    <glyph glyph-name="view-fullscreen-1"
      unicode="&#x76;&#x69;&#x65;&#x77;&#x2D;&#x66;&#x75;&#x6C;&#x6C;&#x73;&#x63;&#x72;&#x65;&#x65;&#x6E;"
      horiz-adv-x="1024" d="M0 796H1024V92H0z" />
    <glyph glyph-name="view-card"
      unicode="&#xF115;"
      horiz-adv-x="1024" d="M477.86 889.86C477.86 889.86 477.86 889.86 477.86 889.86C477.86 726.02 477.86 635 477.86 616.8C477.86 616.8 477.86 616.8 477.86 616.8C191.14 616.8 31.86 616.8 0 616.8C0 616.8 0 616.8 0 616.8C0 780.64 0 871.66 0 889.86C0 889.86 0 889.86 0 889.86C286.7200000000001 889.86 446 889.86 477.86 889.86zM477.86 548.54C477.86 548.54 477.86 548.54 477.86 548.54C477.86 384.7000000000001 477.86 293.68 477.86 275.4600000000001C477.86 275.4600000000001 477.86 275.4600000000001 477.86 275.4600000000001C191.14 275.4600000000001 31.86 275.4600000000001 0 275.4600000000001C0 275.4600000000001 0 275.4600000000001 0 275.4600000000001C0 439.3 0 530.3199999999999 0 548.54C0 548.54 0 548.54 0 548.54C286.7200000000001 548.54 446 548.54 477.86 548.54zM1024 548.54C1024 548.54 1024 548.54 1024 548.54C1024 384.7000000000001 1024 293.68 1024 275.4600000000001C1024 275.4600000000001 1024 275.4600000000001 1024 275.4600000000001C737.28 275.4600000000001 578 275.4600000000001 546.14 275.4600000000001C546.14 275.4600000000001 546.14 275.4600000000001 546.14 275.4600000000001C546.14 439.3 546.14 530.3199999999999 546.14 548.54C546.14 548.54 546.14 548.54 546.14 548.54C832.86 548.54 992.14 548.54 1024 548.54zM477.86 207.2000000000001C477.86 207.2000000000001 477.86 207.2000000000001 477.86 207.2000000000001C477.86 43.36 477.86 -47.66 477.86 -65.86C477.86 -65.86 477.86 -65.86 477.86 -65.86C191.14 -65.86 31.86 -65.86 0 -65.86C0 -65.86 0 -65.86 0 -65.86C0 97.98 0 189 0 207.2000000000001C0 207.2000000000001 0 207.2000000000001 0 207.2000000000001C286.7200000000001 207.2000000000001 446 207.2000000000001 477.86 207.2000000000001zM1024 889.86C1024 889.86 1024 889.86 1024 889.86C1024 726.02 1024 635 1024 616.8C1024 616.8 1024 616.8 1024 616.8C737.28 616.8 578 616.8 546.14 616.8C546.14 616.8 546.14 616.8 546.14 616.8C546.14 780.64 546.14 871.66 546.14 889.86C546.14 889.86 546.14 889.86 546.14 889.86C832.86 889.86 992.14 889.86 1024 889.86z" />
    <glyph glyph-name="view-card-1"
      unicode="&#x76;&#x69;&#x65;&#x77;&#x2D;&#x63;&#x61;&#x72;&#x64;"
      horiz-adv-x="1024" d="M477.86 889.86C477.86 889.86 477.86 889.86 477.86 889.86C477.86 726.02 477.86 635 477.86 616.8C477.86 616.8 477.86 616.8 477.86 616.8C191.14 616.8 31.86 616.8 0 616.8C0 616.8 0 616.8 0 616.8C0 780.64 0 871.66 0 889.86C0 889.86 0 889.86 0 889.86C286.7200000000001 889.86 446 889.86 477.86 889.86zM477.86 548.54C477.86 548.54 477.86 548.54 477.86 548.54C477.86 384.7000000000001 477.86 293.68 477.86 275.4600000000001C477.86 275.4600000000001 477.86 275.4600000000001 477.86 275.4600000000001C191.14 275.4600000000001 31.86 275.4600000000001 0 275.4600000000001C0 275.4600000000001 0 275.4600000000001 0 275.4600000000001C0 439.3 0 530.3199999999999 0 548.54C0 548.54 0 548.54 0 548.54C286.7200000000001 548.54 446 548.54 477.86 548.54zM1024 548.54C1024 548.54 1024 548.54 1024 548.54C1024 384.7000000000001 1024 293.68 1024 275.4600000000001C1024 275.4600000000001 1024 275.4600000000001 1024 275.4600000000001C737.28 275.4600000000001 578 275.4600000000001 546.14 275.4600000000001C546.14 275.4600000000001 546.14 275.4600000000001 546.14 275.4600000000001C546.14 439.3 546.14 530.3199999999999 546.14 548.54C546.14 548.54 546.14 548.54 546.14 548.54C832.86 548.54 992.14 548.54 1024 548.54zM477.86 207.2000000000001C477.86 207.2000000000001 477.86 207.2000000000001 477.86 207.2000000000001C477.86 43.36 477.86 -47.66 477.86 -65.86C477.86 -65.86 477.86 -65.86 477.86 -65.86C191.14 -65.86 31.86 -65.86 0 -65.86C0 -65.86 0 -65.86 0 -65.86C0 97.98 0 189 0 207.2000000000001C0 207.2000000000001 0 207.2000000000001 0 207.2000000000001C286.7200000000001 207.2000000000001 446 207.2000000000001 477.86 207.2000000000001zM1024 889.86C1024 889.86 1024 889.86 1024 889.86C1024 726.02 1024 635 1024 616.8C1024 616.8 1024 616.8 1024 616.8C737.28 616.8 578 616.8 546.14 616.8C546.14 616.8 546.14 616.8 546.14 616.8C546.14 780.64 546.14 871.66 546.14 889.86C546.14 889.86 546.14 889.86 546.14 889.86C832.86 889.86 992.14 889.86 1024 889.86z" />
    <glyph glyph-name="user"
      unicode="&#xF116;"
      horiz-adv-x="1024" d="M990 208C960 254 860 284 760 324C662 366 638 380 638 380L636 476S674 504 686 594C708 588 734 630 734 652C736 672 732 730 702 724C708 768 712 808 710 830C704 906 628 986 512 986S320 906 314 830C312 808 316 768 322 724C292 730 288 672 290 652C290 630 316 588 338 594C350 504 388 476 388 476L386 380S362 366 264 324C164 284 64 254 34 208C6 166 14 -34 14 -34H1010S1018 166 990 208z" />
    <glyph glyph-name="user-1"
      unicode="&#x75;&#x73;&#x65;&#x72;"
      horiz-adv-x="1024" d="M990 208C960 254 860 284 760 324C662 366 638 380 638 380L636 476S674 504 686 594C708 588 734 630 734 652C736 672 732 730 702 724C708 768 712 808 710 830C704 906 628 986 512 986S320 906 314 830C312 808 316 768 322 724C292 730 288 672 290 652C290 630 316 588 338 594C350 504 388 476 388 476L386 380S362 366 264 324C164 284 64 254 34 208C6 166 14 -34 14 -34H1010S1018 166 990 208z" />
    <glyph glyph-name="user-plus"
      unicode="&#xF117;"
      horiz-adv-x="1024" d="M690 96H562V350H690V356C648 374 636 382 636 382V476S674 504 684 594C708 588 732 628 734 650C734 672 730 730 702 724C708 768 712 806 710 828C702 904 628 984 512 984S322 904 314 828C312 806 316 768 322 724C294 730 290 672 290 650C292 628 316 588 340 594C350 504 388 476 388 476V382S364 366 264 326C166 284 66 256 36 210C10 168 18 -32 18 -32H690V96zM880 32H754V414H880zM626 158V286H1008V158z" />
    <glyph glyph-name="user-plus-1"
      unicode="&#x75;&#x73;&#x65;&#x72;&#x2D;&#x70;&#x6C;&#x75;&#x73;"
      horiz-adv-x="1024" d="M690 96H562V350H690V356C648 374 636 382 636 382V476S674 504 684 594C708 588 732 628 734 650C734 672 730 730 702 724C708 768 712 806 710 828C702 904 628 984 512 984S322 904 314 828C312 806 316 768 322 724C294 730 290 672 290 650C292 628 316 588 340 594C350 504 388 476 388 476V382S364 366 264 326C166 284 66 256 36 210C10 168 18 -32 18 -32H690V96zM880 32H754V414H880zM626 158V286H1008V158z" />
    <glyph glyph-name="user-missing"
      unicode="&#xF118;"
      horiz-adv-x="1024" d="M598.2762666666666 709.72288C656.4266666666666 767.8702933333334 750.9887999999999 767.8702933333334 809.7237333333334 709.72288C867.8698666666666 651.57504 867.8698666666666 556.42496 809.7237333333334 498.27712C750.9887999999999 440.1301333333334 657.0111999999999 440.1301333333334 598.2762666666666 498.27712C540.1301333333333 557.0120533333334 540.1301333333333 651.57504 598.2762666666666 709.72288zM721.8218666666667 709.72288H690.6922666666666C681.8815999999999 709.72288 680.7082666666666 704.4364800000001 680.7082666666666 701.4997333333333V698.5629866666667L687.1679999999999 581.68064C688.3455999999999 573.4579200000001 691.8655999999999 571.6957866666667 698.3296 571.6957866666667H714.7733333333333C721.2330666666667 571.6957866666667 724.7573333333332 573.4579200000001 725.3461333333332 582.2681600000001L731.8058666666667 695.0391466666667L732.3946666666667 698.5629866666667V701.4997333333333C732.3946666666667 704.4364800000001 731.2213333333334 709.72288 721.8218666666667 709.72288zM677.184 521.184C677.184 505.3256533333333 690.1034666666666 492.4053333333333 706.5514666666666 492.4053333333333C722.4106666666667 492.4053333333333 735.9189333333334 505.3256533333333 735.9189333333334 521.184C735.9189333333334 537.62944 722.9952 550.5514666666667 706.5514666666666 550.5514666666667C690.1034666666666 550.5514666666667 677.184 537.62944 677.184 521.184zM469.3333333333333 668C488.0512 668 505.0325333333333 664.5934933333333 519.9189333333334 658.7451733333334C514.7647999999999 641.39648 512 623.0212266666667 512 604C512 539.81568 543.4965333333333 482.9888 591.872 448.1258666666667C586.4703999999999 441.4101333333333 579.6992 436.7722666666667 573.4656 438.4362666666667C566.2847999999999 385.7301333333334 543.5434666666666 369.3333333333334 543.5434666666666 369.3333333333334L544.7381333333333 313.1157333333333C544.7381333333333 313.1157333333333 559.1039999999999 304.9152000000001 617.7536 280.3178666666668C629.1157333333333 275.8720000000001 640.4778666666666 271.6352000000001 651.5498666666666 267.5050666666667C698.8117333333332 249.8837333333334 740.8512000000001 234.2122666666668 755.3962666666666 212.3882666666667C772.1557333333333 187.7909333333335 767.3685333333333 70.6666666666667 767.3685333333333 70.6666666666667H171.29984C171.29984 70.6666666666667 166.5122133333333 187.7909333333335 183.26912 212.3882666666667C197.8141866666667 234.2122666666668 239.8545066666667 249.8837333333334 287.1150933333334 267.5050666666667C298.1905066666667 271.6352000000001 309.55264 275.8720000000001 320.9152 280.3178666666668C379.5643733333333 304.9152000000001 393.9272533333334 313.1157333333333 393.9272533333334 313.1157333333333L395.1240533333333 369.3333333333334C395.1240533333333 369.3333333333334 372.38272 385.7301333333334 365.2010666666667 438.4362666666667C352.0349866666666 434.9248 336.47488 459.5178666666667 336.47488 472.4032C335.27808 484.1152000000001 337.6721066666667 518.0808533333334 355.6258133333334 514.5672533333334C352.0349866666666 540.3345066666667 349.64096 563.75936 350.8381866666667 576.6429866666667C354.4290133333333 621.1502933333334 399.91168 668 469.3333333333333 668z" />
    <glyph glyph-name="user-missing-1"
      unicode="&#x75;&#x73;&#x65;&#x72;&#x2D;&#x6D;&#x69;&#x73;&#x73;&#x69;&#x6E;&#x67;"
      horiz-adv-x="1024" d="M598.2762666666666 709.72288C656.4266666666666 767.8702933333334 750.9887999999999 767.8702933333334 809.7237333333334 709.72288C867.8698666666666 651.57504 867.8698666666666 556.42496 809.7237333333334 498.27712C750.9887999999999 440.1301333333334 657.0111999999999 440.1301333333334 598.2762666666666 498.27712C540.1301333333333 557.0120533333334 540.1301333333333 651.57504 598.2762666666666 709.72288zM721.8218666666667 709.72288H690.6922666666666C681.8815999999999 709.72288 680.7082666666666 704.4364800000001 680.7082666666666 701.4997333333333V698.5629866666667L687.1679999999999 581.68064C688.3455999999999 573.4579200000001 691.8655999999999 571.6957866666667 698.3296 571.6957866666667H714.7733333333333C721.2330666666667 571.6957866666667 724.7573333333332 573.4579200000001 725.3461333333332 582.2681600000001L731.8058666666667 695.0391466666667L732.3946666666667 698.5629866666667V701.4997333333333C732.3946666666667 704.4364800000001 731.2213333333334 709.72288 721.8218666666667 709.72288zM677.184 521.184C677.184 505.3256533333333 690.1034666666666 492.4053333333333 706.5514666666666 492.4053333333333C722.4106666666667 492.4053333333333 735.9189333333334 505.3256533333333 735.9189333333334 521.184C735.9189333333334 537.62944 722.9952 550.5514666666667 706.5514666666666 550.5514666666667C690.1034666666666 550.5514666666667 677.184 537.62944 677.184 521.184zM469.3333333333333 668C488.0512 668 505.0325333333333 664.5934933333333 519.9189333333334 658.7451733333334C514.7647999999999 641.39648 512 623.0212266666667 512 604C512 539.81568 543.4965333333333 482.9888 591.872 448.1258666666667C586.4703999999999 441.4101333333333 579.6992 436.7722666666667 573.4656 438.4362666666667C566.2847999999999 385.7301333333334 543.5434666666666 369.3333333333335 543.5434666666666 369.3333333333335L544.7381333333333 313.1157333333333C544.7381333333333 313.1157333333333 559.1039999999999 304.9152000000001 617.7536 280.3178666666668C629.1157333333333 275.8720000000002 640.4778666666666 271.6352000000001 651.5498666666666 267.5050666666667C698.8117333333332 249.8837333333334 740.8512000000001 234.2122666666668 755.3962666666666 212.3882666666667C772.1557333333333 187.7909333333335 767.3685333333333 70.6666666666667 767.3685333333333 70.6666666666667H171.29984C171.29984 70.6666666666667 166.5122133333333 187.7909333333335 183.26912 212.3882666666667C197.8141866666667 234.2122666666668 239.8545066666667 249.8837333333334 287.1150933333334 267.5050666666667C298.1905066666667 271.6352000000001 309.55264 275.8720000000002 320.9152000000001 280.3178666666668C379.5643733333333 304.9152000000001 393.9272533333334 313.1157333333333 393.9272533333334 313.1157333333333L395.1240533333333 369.3333333333335C395.1240533333333 369.3333333333335 372.38272 385.7301333333334 365.2010666666667 438.4362666666667C352.0349866666666 434.9248 336.47488 459.5178666666667 336.47488 472.4032C335.27808 484.1152000000001 337.6721066666667 518.0808533333334 355.6258133333334 514.5672533333334C352.0349866666666 540.3345066666667 349.64096 563.75936 350.8381866666667 576.6429866666667C354.4290133333333 621.1502933333334 399.91168 668 469.3333333333333 668z" />
    <glyph glyph-name="user-minus"
      unicode="&#xF119;"
      horiz-adv-x="1024" d="M590 170V232H930C892 268 806 296 720 330C624 370 602 384 602 384V476S636 504 648 590C670 584 694 624 696 644C696 664 692 720 664 714C670 758 674 796 672 816C666 888 592 966 482 966C370 966 298 888 290 816C288 796 292 758 298 714C270 720 266 664 268 644C268 624 292 584 314 590C326 504 362 476 362 476L360 384S338 370 242 330C148 292 50 264 22 218C-4 178 4 -14 4 -14H590V170zM652 48V170H1022V48z" />
    <glyph glyph-name="user-minus-1"
      unicode="&#x75;&#x73;&#x65;&#x72;&#x2D;&#x6D;&#x69;&#x6E;&#x75;&#x73;"
      horiz-adv-x="1024" d="M590 170V232H930C892 268 806 296 720 330C624 370 602 384 602 384V476S636 504 648 590C670 584 694 624 696 644C696 664 692 720 664 714C670 758 674 796 672 816C666 888 592 966 482 966C370 966 298 888 290 816C288 796 292 758 298 714C270 720 266 664 268 644C268 624 292 584 314 590C326 504 362 476 362 476L360 384S338 370 242 330C148 292 50 264 22 218C-4 178 4 -14 4 -14H590V170zM652 48V170H1022V48z" />
    <glyph glyph-name="upload"
      unicode="&#xF11A;"
      horiz-adv-x="1024" d="M1014 576C992 700 866 760 750 750C712 966 364 968 334 748C248 750 184 694 164 610C74 598 8 532 4 438C-2 338 92 270 182 264C212 262 212 308 182 310C10 318 10 558 182 568H184C194 568 202 572 204 584C206 594 208 604 210 612C228 668 268 702 326 704H354C368 702 374 712 374 724C376 724 376 726 376 728C384 918 696 918 710 728V722C712 720 712 718 714 716C714 714 716 714 716 712C718 712 718 712 718 710C722 706 728 704 736 704H738C984 750 1066 404 826 334V332C798 324 810 282 838 290C966 328 1038 442 1014 576zM546 578C536 592 518 592 508 578C468 522 426 466 386 410C380 400 382 390 388 384C392 380 398 376 406 376H486V92C486 64 504 42 528 42C550 42 568 64 568 92V376H648C664 376 678 396 668 410C628 466 588 522 546 578z" />
    <glyph glyph-name="upload-1"
      unicode="&#x75;&#x70;&#x6C;&#x6F;&#x61;&#x64;"
      horiz-adv-x="1024" d="M1014 576C992 700 866 760 750 750C712 966 364 968 334 748C248 750 184 694 164 610C74 598 8 532 4 438C-2 338 92 270 182 264C212 262 212 308 182 310C10 318 10 558 182 568H184C194 568 202 572 204 584C206 594 208 604 210 612C228 668 268 702 326 704H354C368 702 374 712 374 724C376 724 376 726 376 728C384 918 696 918 710 728V722C712 720 712 718 714 716C714 714 716 714 716 712C718 712 718 712 718 710C722 706 728 704 736 704H738C984 750 1066 404 826 334V332C798 324 810 282 838 290C966 328 1038 442 1014 576zM546 578C536 592 518 592 508 578C468 522 426 466 386 410C380 400 382 390 388 384C392 380 398 376 406 376H486V92C486 64 504 42 528 42C550 42 568 64 568 92V376H648C664 376 678 396 668 410C628 466 588 522 546 578z" />
    <glyph glyph-name="upload-arrow"
      unicode="&#xF11B;"
      horiz-adv-x="896" d="M56 7.7888H840C854.8544 7.7888 869.0944 2.112 879.5968 -7.9936C890.0992 -18.1056 896 -31.8144 896 -46.1056C896 -60.3968 890.0992 -74.1056 879.5968 -84.2175999999999C869.0944 -94.3232 854.8544 -100 840 -100H56C41.147904 -100 26.904064 -94.3232 16.402048 -84.2175999999999C5.8999936 -74.1056 0 -60.3968 0 -46.1056C0 -31.8144 5.8999936 -18.1056 16.402048 -7.9936C26.904064 2.112 41.147904 7.7888 56 7.7888zM210.38912 542.91008L391.9968 717.63712L391.9968 115.3664L503.9968 115.3664L503.9968 717.63712L685.6064 542.91008L764.7872 619.11744L447.9968 923.999973346304L131.20512 619.11744L210.38912 542.91008z" />
    <glyph glyph-name="upload-arrow-1"
      unicode="&#x75;&#x70;&#x6C;&#x6F;&#x61;&#x64;&#x2D;&#x61;&#x72;&#x72;&#x6F;&#x77;"
      horiz-adv-x="896" d="M56 7.7888H840C854.8544 7.7888 869.0944 2.112 879.5968 -7.9936C890.0992 -18.1056 896 -31.8144 896 -46.1056C896 -60.3968 890.0992 -74.1056 879.5968 -84.2175999999999C869.0944 -94.3232 854.8544 -100 840 -100H56C41.147904 -100 26.904064 -94.3232 16.402048 -84.2175999999999C5.8999936 -74.1056 0 -60.3968 0 -46.1056C0 -31.8144 5.8999936 -18.1056 16.402048 -7.9936C26.904064 2.112 41.147904 7.7888 56 7.7888zM210.38912 542.91008L391.9968 717.63712L391.9968 115.3664L503.9968 115.3664L503.9968 717.63712L685.6064 542.91008L764.7872 619.11744L447.9968 923.999973346304L131.20512 619.11744L210.38912 542.91008z" />
    <glyph glyph-name="up-down-stepper"
      unicode="&#xF11C;"
      horiz-adv-x="1024" d="M803.0250666666667 492.6570666666667C808.7082666666666 485.7962666666667 811.3834666666667 477.1776 810.5002666666666 468.5418666666667C809.6213333333333 459.9104 805.2522666666666 451.9146666666667 798.2805333333333 446.1760000000001C791.3087999999999 440.4416000000001 782.2634666666665 437.3952000000001 772.9749333333332 437.6597333333334C763.6864 437.9242666666667 754.8501333333334 441.4784 748.2709333333333 447.6010666666667L554.6666666666666 628.2722133333334L361.0641066666667 447.6010666666667L357.6256 444.7680000000001C350.2741333333334 439.4645333333334 341.03424 436.9685333333334 331.7828266666667 437.7920000000001C322.53184 438.6154666666667 313.9630933333333 442.6901333333334 307.8165333333334 449.1968000000001C301.6704 455.7034666666667 298.4081066666667 464.1472000000001 298.6914133333334 472.8128C298.9751466666667 481.4826666666667 302.784 489.7258666666667 309.344 495.8656L528.8063999999999 700.6702933333333L532.2453333333333 703.50336C539.2810666666667 708.59776 548.0704 711.1210666666667 556.9578666666666 710.5992533333333C565.8496 710.0778666666668 574.2293333333333 706.5472 580.5269333333333 700.6702933333333L799.9914666666666 495.8656L803.0250666666667 492.6570666666667zM306.30784 246.0096000000001C300.62336 252.8704 297.9502933333333 261.4890666666668 298.8317866666667 270.1248000000001C299.7128533333334 278.7562666666668 304.0823466666667 286.7520000000001 311.0528 292.4906666666667C318.0232533333333 298.2250666666667 327.0715733333334 301.2714666666667 336.3601066666667 301.0069333333334C345.6490666666667 300.7424000000001 354.4814933333334 297.1882666666668 361.0641066666667 291.0656L554.6666666666666 110.3936000000001L748.2709333333333 291.0656L751.7055999999999 293.8986666666667C759.0613333333333 299.2021333333334 768.2986666666667 301.6981333333333 777.5488 300.8746666666667C786.8032 300.0512000000001 795.3706666666667 295.9765333333334 801.5146666666666 289.4698666666667C807.6629333333333 282.9632000000001 810.9269333333333 274.5194666666667 810.6410666666667 265.8538666666667C810.3594666666665 257.184 806.5493333333334 248.9408000000001 799.9914666666666 242.8010666666667L580.5269333333333 37.9968000000001L577.088 35.1637333333333C570.0522666666666 30.0693333333334 561.2629333333333 27.5477333333333 552.3754666666666 28.0682666666667C543.4837333333332 28.5888 535.1039999999999 32.1173333333334 528.8063999999999 37.9968000000001L309.344 242.8010666666667L306.30784 246.0096000000001z" />
    <glyph glyph-name="up-down-stepper-1"
      unicode="&#x75;&#x70;&#x2D;&#x64;&#x6F;&#x77;&#x6E;&#x2D;&#x73;&#x74;&#x65;&#x70;&#x70;&#x65;&#x72;"
      horiz-adv-x="1024" d="M803.0250666666667 492.6570666666667C808.7082666666666 485.7962666666667 811.3834666666667 477.1776 810.5002666666666 468.5418666666667C809.6213333333333 459.9104 805.2522666666666 451.9146666666667 798.2805333333333 446.1760000000001C791.3087999999999 440.4416000000001 782.2634666666665 437.3952000000001 772.9749333333332 437.6597333333334C763.6864 437.9242666666667 754.8501333333334 441.4784 748.2709333333333 447.6010666666667L554.6666666666666 628.2722133333334L361.0641066666667 447.6010666666667L357.6256 444.7680000000001C350.2741333333334 439.4645333333334 341.03424 436.9685333333335 331.7828266666667 437.7920000000001C322.53184 438.6154666666667 313.9630933333333 442.6901333333334 307.8165333333334 449.1968000000001C301.6704 455.7034666666667 298.4081066666667 464.1472000000001 298.6914133333334 472.8128C298.9751466666667 481.4826666666667 302.784 489.7258666666667 309.344 495.8656L528.8063999999999 700.6702933333333L532.2453333333333 703.50336C539.2810666666667 708.59776 548.0704 711.1210666666667 556.9578666666666 710.5992533333333C565.8496 710.0778666666668 574.2293333333333 706.5472 580.5269333333333 700.6702933333333L799.9914666666666 495.8656L803.0250666666667 492.6570666666667zM306.30784 246.0096000000001C300.62336 252.8704 297.9502933333333 261.4890666666668 298.8317866666667 270.1248000000001C299.7128533333334 278.7562666666668 304.0823466666667 286.7520000000001 311.0528 292.4906666666667C318.0232533333333 298.2250666666667 327.0715733333334 301.2714666666667 336.3601066666667 301.0069333333334C345.6490666666668 300.7424000000001 354.4814933333334 297.1882666666668 361.0641066666667 291.0656L554.6666666666666 110.3936000000001L748.2709333333333 291.0656L751.7055999999999 293.8986666666667C759.0613333333333 299.2021333333334 768.2986666666667 301.6981333333333 777.5488 300.8746666666667C786.8032 300.0512000000001 795.3706666666667 295.9765333333334 801.5146666666666 289.4698666666667C807.6629333333333 282.9632000000001 810.9269333333333 274.5194666666667 810.6410666666667 265.8538666666667C810.3594666666665 257.1840000000001 806.5493333333334 248.9408000000001 799.9914666666666 242.8010666666667L580.5269333333333 37.9968000000001L577.088 35.1637333333333C570.0522666666666 30.0693333333334 561.2629333333333 27.5477333333333 552.3754666666666 28.0682666666667C543.4837333333332 28.5888 535.1039999999999 32.1173333333334 528.8063999999999 37.9968000000001L309.344 242.8010666666667L306.30784 246.0096000000001z" />
    <glyph glyph-name="unwatched"
      unicode="&#xF11D;"
      horiz-adv-x="1024" d="M2 508V470C238 78 786 78 1022 470V508C786 902 238 902 2 508zM512 254C382 254 276 360 276 490S382 724 512 724S748 620 748 490S642 254 512 254z" />
    <glyph glyph-name="unwatched-1"
      unicode="&#x75;&#x6E;&#x77;&#x61;&#x74;&#x63;&#x68;&#x65;&#x64;"
      horiz-adv-x="1024" d="M2 508V470C238 78 786 78 1022 470V508C786 902 238 902 2 508zM512 254C382 254 276 360 276 490S382 724 512 724S748 620 748 490S642 254 512 254z" />
    <glyph glyph-name="unordered-list"
      unicode="&#xF11E;"
      horiz-adv-x="1024" d="M320 860H1024V732H320zM196 796C196 742 152 700 100 700C46 700 4 742 4 796S46 892 100 892C152 892 196 850 196 796zM320 540H1024V412H320zM196 476C196 422 152 380 100 380C46 380 4 422 4 476S46 572 100 572C152 572 196 530 196 476zM320 220H1024V92H320zM196 156C196 102 152 60 100 60C46 60 4 102 4 156S46 252 100 252C152 252 196 210 196 156z" />
    <glyph glyph-name="unordered-list-1"
      unicode="&#x75;&#x6E;&#x6F;&#x72;&#x64;&#x65;&#x72;&#x65;&#x64;&#x2D;&#x6C;&#x69;&#x73;&#x74;"
      horiz-adv-x="1024" d="M320 860H1024V732H320zM196 796C196 742 152 700 100 700C46 700 4 742 4 796S46 892 100 892C152 892 196 850 196 796zM320 540H1024V412H320zM196 476C196 422 152 380 100 380C46 380 4 422 4 476S46 572 100 572C152 572 196 530 196 476zM320 220H1024V92H320zM196 156C196 102 152 60 100 60C46 60 4 102 4 156S46 252 100 252C152 252 196 210 196 156z" />
    <glyph glyph-name="unlocked"
      unicode="&#xF11F;"
      horiz-adv-x="1024" d="M736 958C578 958 448 828 448 670V570H0V-6H704V570H576V670C576 758 648 830 736 830S896 758 896 670V570H1024V670C1024 828 894 958 736 958zM402 122H294L322 274C306 282 294 300 294 320C294 350 318 374 348 374S402 350 402 320C402 300 390 282 374 274z" />
    <glyph glyph-name="unlocked-1"
      unicode="&#x75;&#x6E;&#x6C;&#x6F;&#x63;&#x6B;&#x65;&#x64;"
      horiz-adv-x="1024" d="M736 958C578 958 448 828 448 670V570H0V-6H704V570H576V670C576 758 648 830 736 830S896 758 896 670V570H1024V670C1024 828 894 958 736 958zM402 122H294L322 274C306 282 294 300 294 320C294 350 318 374 348 374S402 350 402 320C402 300 390 282 374 274z" />
    <glyph glyph-name="unit"
      unicode="&#xF120;"
      horiz-adv-x="1024" d="M960 860C960 790 760 732 512 732S64 790 64 860S264 988 512 988S960 930 960 860zM512 668C472 668 192 672 64 758V604C64 534 264 476 512 476S960 534 960 604V758C832 672 552 668 512 668zM512 412C472 412 192 416 64 502V348C64 278 264 220 512 220S960 278 960 348V502C832 416 552 412 512 412zM512 156C472 156 192 160 64 246V92C64 22 264 -36 512 -36S960 22 960 92V246C832 160 552 156 512 156z" />
    <glyph glyph-name="unit-1"
      unicode="&#x75;&#x6E;&#x69;&#x74;"
      horiz-adv-x="1024" d="M960 860C960 790 760 732 512 732S64 790 64 860S264 988 512 988S960 930 960 860zM512 668C472 668 192 672 64 758V604C64 534 264 476 512 476S960 534 960 604V758C832 672 552 668 512 668zM512 412C472 412 192 416 64 502V348C64 278 264 220 512 220S960 278 960 348V502C832 416 552 412 512 412zM512 156C472 156 192 160 64 246V92C64 22 264 -36 512 -36S960 22 960 92V246C832 160 552 156 512 156z" />
    <glyph glyph-name="undo"
      unicode="&#xF121;"
      horiz-adv-x="1024" d="M176 596C196 646 228 690 266 730C350 814 462 860 580 860S810 814 894 730S1024 536 1024 416C1024 298 978 186 894 104C880 90 862 84 846 84C828 84 810 90 798 104C770 130 770 174 798 200C856 258 888 334 888 416S856 576 798 634S662 724 580 724S422 692 364 634C320 590 292 538 280 478L426 314H0V792z" />
    <glyph glyph-name="undo-1"
      unicode="&#x75;&#x6E;&#x64;&#x6F;"
      horiz-adv-x="1024" d="M176 596C196 646 228 690 266 730C350 814 462 860 580 860S810 814 894 730S1024 536 1024 416C1024 298 978 186 894 104C880 90 862 84 846 84C828 84 810 90 798 104C770 130 770 174 798 200C856 258 888 334 888 416S856 576 798 634S662 724 580 724S422 692 364 634C320 590 292 538 280 478L426 314H0V792z" />
    <glyph glyph-name="underline"
      unicode="&#xF122;"
      horiz-adv-x="1024" d="M158 448V988H278V448C278 410 284 376 294 346C304 314 320 288 340 264C360 242 384 224 414 212C442 200 476 194 512 194C550 194 582 200 610 212C640 224 664 242 684 264S720 314 730 344C740 376 746 410 746 446V988H866V448C866 396 858 348 842 304C826 262 802 224 772 192S704 134 660 116S568 88 512 88C458 88 408 98 364 116S284 160 252 192C222 224 198 262 182 304C166 348 158 396 158 448zM108 28H916V-36H108z" />
    <glyph glyph-name="underline-1"
      unicode="&#x75;&#x6E;&#x64;&#x65;&#x72;&#x6C;&#x69;&#x6E;&#x65;"
      horiz-adv-x="1024" d="M158 448V988H278V448C278 410 284 376 294 346C304 314 320 288 340 264C360 242 384 224 414 212C442 200 476 194 512 194C550 194 582 200 610 212C640 224 664 242 684 264S720 314 730 344C740 376 746 410 746 446V988H866V448C866 396 858 348 842 304C826 262 802 224 772 192S704 134 660 116S568 88 512 88C458 88 408 98 364 116S284 160 252 192C222 224 198 262 182 304C166 348 158 396 158 448zM108 28H916V-36H108z" />
    <glyph glyph-name="types"
      unicode="&#xF123;"
      horiz-adv-x="1024" d="M1022 794L830 986H576L2 412L448 -34L1022 540zM770 632C714 632 668 678 668 734S714 836 770 836C826 834 870 790 870 734S826 632 770 632z" />
    <glyph glyph-name="types-1"
      unicode="&#x74;&#x79;&#x70;&#x65;&#x73;"
      horiz-adv-x="1024" d="M1022 794L830 986H576L2 412L448 -34L1022 540zM770 632C714 632 668 678 668 734S714 836 770 836C826 834 870 790 870 734S826 632 770 632z" />
    <glyph glyph-name="two-factor-authentification"
      unicode="&#xF124;"
      horiz-adv-x="1024" d="M227.2264533333333 625.1754666666667C243.88224 626.0825600000001 260.5179733333333 623.0724266666666 275.7653333333334 616.39168C291.0122666666666 609.71136 304.4347733333333 599.552 314.92736 586.74944C325.4203733333333 573.9473066666667 332.6839466666667 558.8680533333334 336.12032 542.7524266666667C339.5566933333334 526.6372266666667 339.0673066666667 509.94688 334.69312 494.0565333333333C330.49984 478.8202666666667 322.8509866666667 464.736 312.3362133333333 452.8618666666667L241.45152 358.8842666666667H300.7722666666666C321.7181866666666 358.8842666666667 338.69824 342.1205333333334 338.69824 321.4442666666667C338.69824 300.7637333333334 321.7181866666666 284 300.7722666666666 284H165.92512C151.5835733333333 284 138.4686933333333 291.9872000000001 132.0328533333333 304.6378666666667C125.5965866666667 317.2928000000001 126.9410133333333 332.4480000000001 135.5063466666667 343.8058666666667L252.4864 498.8979200000001C253.2270933333334 499.87968 254.016 500.8256 254.85056 501.7309866666667C257.9933866666667 505.1421866666667 260.27136 509.2411733333333 261.4958933333333 513.6908800000001C262.7208533333333 518.1405866666666 262.8578133333333 522.8142933333334 261.89568 527.3262933333333C260.93312 531.83872 258.8996266666667 536.0610133333333 255.9616 539.64544C253.0235733333334 543.2302933333334 249.2650666666667 546.07488 244.9962666666667 547.9453866666668C240.72704 549.8158933333334 236.0686933333334 550.6589866666667 231.4052266666667 550.4046933333334C226.7413333333334 550.1508266666667 222.2058666666667 548.8068266666667 218.17088 546.4840533333333C214.1358933333334 544.16128 210.71744 540.9258666666667 208.19712 537.0436266666667C205.6763733333334 533.1618133333334 204.12544 528.7441066666668 203.6718933333333 524.15488C201.6384 503.57376 183.08992 488.5184 162.2429866666667 490.5237333333334C141.3960533333333 492.5333333333333 126.1448533333333 510.84416 128.1787733333333 531.42528C129.7984 547.8161066666667 135.33696 563.5925333333333 144.3396266666667 577.4570666666667C153.3422933333333 591.3211733333334 165.5509333333333 602.8770133333334 179.9607466666667 611.17312C194.3709866666667 619.4688 210.57024 624.2679466666667 227.2264533333333 625.1754666666667zM363.9825066666666 587.6974933333333C363.9825066666666 608.3763200000001 380.9621333333334 625.1396266666667 401.9080533333334 625.1396266666667H536.7552C557.7002666666666 625.1396266666667 574.6815999999999 608.3763200000001 574.6815999999999 587.6974933333333C574.6815999999999 567.0186666666667 557.7002666666666 550.2553600000001 536.7552 550.2553600000001H439.8336V492.0128H503.0442666666667C523.9893333333333 492.0128 540.9706666666666 475.2490666666667 540.9706666666666 454.5685333333333C540.9706666666666 433.8922666666667 523.9893333333333 417.1285333333334 503.0442666666667 417.1285333333334H439.8336V321.4442666666667C439.8336 300.7637333333334 422.8539733333334 284 401.9080533333334 284C380.9621333333334 284 363.9825066666666 300.7637333333334 363.9825066666666 321.4442666666667V587.6974933333333zM734.8138666666666 383.8442666666668V321.4442666666667C734.8138666666666 300.7637333333334 751.7909333333333 284 772.736 284C793.6853333333333 284 810.6623999999999 300.7637333333334 810.6623999999999 321.4442666666667V521.1336533333333C810.6623999999999 548.7176533333334 799.5647999999999 575.1722666666667 779.8058666666667 594.6769066666667C760.0512 614.1819733333334 733.2565333333333 625.1396266666667 705.3141333333333 625.1396266666667C677.3717333333333 625.1396266666667 650.5770666666666 614.1819733333334 630.8224 594.6769066666667C611.0634666666666 575.1722666666667 599.9658666666667 548.7176533333334 599.9658666666667 521.1336533333333V321.4442666666667C599.9658666666667 300.7637333333334 616.9429333333333 284 637.8922666666666 284C658.8373333333333 284 675.8144 300.7637333333334 675.8144 321.4442666666667V383.8442666666668H734.8138666666666zM705.3141333333333 550.2553600000001C697.4890666666666 550.2553600000001 689.9882666666667 547.1872000000001 684.4543999999999 541.7258666666667C678.9248 536.2645333333334 675.8144 528.8571733333333 675.8144 521.1336533333333V458.7285333333334H734.8138666666666V521.1336533333333C734.8138666666666 528.8571733333333 731.7034666666666 536.2645333333334 726.1738666666666 541.7258666666667C720.64 547.1872000000001 713.1392000000001 550.2553600000001 705.3141333333333 550.2553600000001z" />
    <glyph glyph-name="two-factor-authentification-1"
      unicode="&#x74;&#x77;&#x6F;&#x2D;&#x66;&#x61;&#x63;&#x74;&#x6F;&#x72;&#x2D;&#x61;&#x75;&#x74;&#x68;&#x65;&#x6E;&#x74;&#x69;&#x66;&#x69;&#x63;&#x61;&#x74;&#x69;&#x6F;&#x6E;"
      horiz-adv-x="1024" d="M227.2264533333333 625.1754666666667C243.88224 626.0825600000001 260.5179733333333 623.0724266666666 275.7653333333334 616.39168C291.0122666666666 609.71136 304.4347733333333 599.552 314.92736 586.74944C325.4203733333333 573.9473066666667 332.6839466666667 558.8680533333334 336.12032 542.7524266666667C339.5566933333334 526.6372266666667 339.0673066666667 509.94688 334.69312 494.0565333333333C330.49984 478.8202666666667 322.8509866666667 464.736 312.3362133333333 452.8618666666667L241.45152 358.8842666666667H300.7722666666666C321.7181866666666 358.8842666666667 338.69824 342.1205333333334 338.69824 321.4442666666667C338.69824 300.7637333333334 321.7181866666666 284 300.7722666666666 284H165.92512C151.5835733333333 284 138.4686933333333 291.9872000000001 132.0328533333333 304.6378666666667C125.5965866666667 317.2928000000001 126.9410133333333 332.4480000000001 135.5063466666667 343.8058666666667L252.4864 498.8979200000001C253.2270933333334 499.87968 254.016 500.8256 254.85056 501.7309866666667C257.9933866666667 505.1421866666667 260.27136 509.2411733333333 261.4958933333333 513.6908800000001C262.7208533333333 518.1405866666666 262.8578133333333 522.8142933333334 261.8956800000001 527.3262933333333C260.93312 531.83872 258.8996266666667 536.0610133333333 255.9616 539.64544C253.0235733333334 543.2302933333334 249.2650666666667 546.07488 244.9962666666667 547.9453866666668C240.72704 549.8158933333334 236.0686933333334 550.6589866666667 231.4052266666667 550.4046933333334C226.7413333333334 550.1508266666667 222.2058666666667 548.8068266666667 218.17088 546.4840533333333C214.1358933333334 544.16128 210.71744 540.9258666666667 208.19712 537.0436266666667C205.6763733333334 533.1618133333334 204.12544 528.7441066666668 203.6718933333333 524.15488C201.6384 503.57376 183.08992 488.5184 162.2429866666667 490.5237333333334C141.3960533333333 492.5333333333333 126.1448533333333 510.84416 128.1787733333333 531.42528C129.7984 547.8161066666667 135.33696 563.5925333333333 144.3396266666667 577.4570666666667C153.3422933333333 591.3211733333334 165.5509333333333 602.8770133333334 179.9607466666667 611.17312C194.3709866666667 619.4688 210.57024 624.2679466666667 227.2264533333333 625.1754666666667zM363.9825066666666 587.6974933333333C363.9825066666666 608.3763200000001 380.9621333333334 625.1396266666667 401.9080533333334 625.1396266666667H536.7552C557.7002666666666 625.1396266666667 574.6815999999999 608.3763200000001 574.6815999999999 587.6974933333333C574.6815999999999 567.0186666666667 557.7002666666666 550.2553600000001 536.7552 550.2553600000001H439.8336V492.0128H503.0442666666667C523.9893333333333 492.0128 540.9706666666666 475.2490666666667 540.9706666666666 454.5685333333333C540.9706666666666 433.8922666666668 523.9893333333333 417.1285333333334 503.0442666666667 417.1285333333334H439.8336V321.4442666666667C439.8336 300.7637333333334 422.8539733333334 284 401.9080533333334 284C380.9621333333334 284 363.9825066666666 300.7637333333334 363.9825066666666 321.4442666666667V587.6974933333333zM734.8138666666666 383.8442666666668V321.4442666666667C734.8138666666666 300.7637333333334 751.7909333333333 284 772.736 284C793.6853333333333 284 810.6623999999999 300.7637333333334 810.6623999999999 321.4442666666667V521.1336533333333C810.6623999999999 548.7176533333334 799.5647999999999 575.1722666666667 779.8058666666667 594.6769066666667C760.0512 614.1819733333334 733.2565333333333 625.1396266666667 705.3141333333333 625.1396266666667C677.3717333333333 625.1396266666667 650.5770666666666 614.1819733333334 630.8224 594.6769066666667C611.0634666666666 575.1722666666667 599.9658666666667 548.7176533333334 599.9658666666667 521.1336533333333V321.4442666666667C599.9658666666667 300.7637333333334 616.9429333333333 284 637.8922666666666 284C658.8373333333333 284 675.8144 300.7637333333334 675.8144 321.4442666666667V383.8442666666668H734.8138666666666zM705.3141333333333 550.2553600000001C697.4890666666666 550.2553600000001 689.9882666666667 547.1872000000001 684.4543999999999 541.7258666666667C678.9248 536.2645333333334 675.8144 528.8571733333333 675.8144 521.1336533333333V458.7285333333334H734.8138666666666V521.1336533333333C734.8138666666666 528.8571733333333 731.7034666666666 536.2645333333334 726.1738666666666 541.7258666666667C720.64 547.1872000000001 713.1392000000001 550.2553600000001 705.3141333333333 550.2553600000001z" />
    <glyph glyph-name="two-factor-authentication"
      unicode="&#xF125;"
      horiz-adv-x="1024" d="M822 584V680C822 850 682 986 512 986S202 850 202 680V584H134V-34H890V584H822zM684 584H340V680C340 772 418 848 512 848S684 772 684 680V584zM428.8 104H295.4L328.2 289C309.4 300.8 295.4 319.4 295.4 345.2000000000001C295.4 382.6 325.8 410.8000000000001 361 410.8000000000001C398.4 410.8000000000001 428.8 382.8000000000001 428.8 345.2000000000001C428.8 319.4000000000001 414.8 300.8000000000001 393.6 289L428.8 104zM728.6 106.3999999999999H595.2L628 291.3999999999999C609.2 303.1999999999998 595.2 321.7999999999999 595.2 347.5999999999999C595.2 384.9999999999999 625.6 413.2 660.8000000000001 413.2C698.2 413.2 728.6 385.2 728.6 347.5999999999999C728.6 321.8 714.6 303.2 693.4 291.3999999999999L728.6 106.3999999999999z" />
    <glyph glyph-name="two-factor-authentication-1"
      unicode="&#x74;&#x77;&#x6F;&#x2D;&#x66;&#x61;&#x63;&#x74;&#x6F;&#x72;&#x2D;&#x61;&#x75;&#x74;&#x68;&#x65;&#x6E;&#x74;&#x69;&#x63;&#x61;&#x74;&#x69;&#x6F;&#x6E;"
      horiz-adv-x="1024" d="M822 584V680C822 850 682 986 512 986S202 850 202 680V584H134V-34H890V584H822zM684 584H340V680C340 772 418 848 512 848S684 772 684 680V584zM428.8 104H295.4L328.2 289C309.4 300.8 295.4 319.4 295.4 345.2000000000001C295.4 382.6 325.8 410.8000000000002 361 410.8000000000002C398.4 410.8000000000002 428.8 382.8000000000002 428.8 345.2000000000001C428.8 319.4000000000001 414.8 300.8000000000002 393.6 289L428.8 104zM728.6 106.3999999999999H595.2L628 291.3999999999999C609.2 303.1999999999998 595.2 321.7999999999999 595.2 347.5999999999999C595.2 384.9999999999999 625.6 413.2 660.8000000000001 413.2C698.2 413.2 728.6 385.2 728.6 347.5999999999999C728.6 321.8 714.6 303.2 693.4 291.3999999999999L728.6 106.3999999999999z" />
    <glyph glyph-name="training-consulting"
      unicode="&#xF126;"
      horiz-adv-x="1024" d="M6 848V80H1024V848zM294 112H26S20 220 38 240C44 246 58 258 70 264V784H960V144H556V112zM550 240C532 264 480 278 428 304C378 322 364 336 364 336V386S384 400 390 450C396 444 410 464 410 476S410 520 390 514C390 540 396 560 396 572C396 616 352 656 294 656C230 656 192 610 186 572C186 560 186 540 192 514C172 520 172 488 172 476S186 444 198 444C204 392 224 380 224 380V328L160 296C128 284 96 272 70 258C58 252 44 246 38 232C26 208 26 104 26 104H564V136C556 176 556 226 550 240zM570 432L512 368L602 412C620 406 640 400 660 400H762C852 400 922 470 922 560C922 648 852 720 762 720H660C570 720 500 648 500 560C500 508 524 456 570 432zM660 694H762C832 694 890 636 890 566S832 438 762 438H660C588 438 532 496 532 566S588 694 660 694zM608 616H806V598H608zM608 572H806V552H608zM608 534H806V514H608z" />
    <glyph glyph-name="training-consulting-1"
      unicode="&#x74;&#x72;&#x61;&#x69;&#x6E;&#x69;&#x6E;&#x67;&#x2D;&#x63;&#x6F;&#x6E;&#x73;&#x75;&#x6C;&#x74;&#x69;&#x6E;&#x67;"
      horiz-adv-x="1024" d="M6 848V80H1024V848zM294 112H26S20 220 38 240C44 246 58 258 70 264V784H960V144H556V112zM550 240C532 264 480 278 428 304C378 322 364 336 364 336V386S384 400 390 450C396 444 410 464 410 476S410 520 390 514C390 540 396 560 396 572C396 616 352 656 294 656C230 656 192 610 186 572C186 560 186 540 192 514C172 520 172 488 172 476S186 444 198 444C204 392 224 380 224 380V328L160 296C128 284 96 272 70 258C58 252 44 246 38 232C26 208 26 104 26 104H564V136C556 176 556 226 550 240zM570 432L512 368L602 412C620 406 640 400 660 400H762C852 400 922 470 922 560C922 648 852 720 762 720H660C570 720 500 648 500 560C500 508 524 456 570 432zM660 694H762C832 694 890 636 890 566S832 438 762 438H660C588 438 532 496 532 566S588 694 660 694zM608 616H806V598H608zM608 572H806V552H608zM608 534H806V514H608z" />
    <glyph glyph-name="today-arrows"
      unicode="&#xF127;"
      horiz-adv-x="1024" d="M175.92832 273.7045333333333C168.91264 266.2976000000001 168.91264 254.2912 175.92832 246.8885333333334C182.944 239.4816000000001 194.3189333333334 239.4816000000001 201.3346133333333 246.8885333333334L345.0538666666667 398.5898666666667C352.0695466666667 405.9968 352.0695466666667 418.0032000000001 345.0538666666667 425.4101333333333L201.3346133333333 577.1127466666667C194.3189333333334 584.5179733333333 182.944 584.5179733333333 175.92832 577.1127466666667C168.91264 569.7070933333334 168.91264 557.7002666666667 175.92832 550.29504L306.9448533333333 412L175.92832 273.7045333333333zM848.0725333333332 577.1123200000001C855.0869333333333 569.7070933333334 855.0869333333333 557.7002666666667 848.0725333333332 550.29504L717.056 412L848.0725333333332 273.7045333333333C855.0869333333333 266.2976000000001 855.0869333333333 254.2912 848.0725333333332 246.8885333333334C841.0538666666666 239.4816000000001 829.6789333333332 239.4816000000001 822.6645333333332 246.8885333333334L678.9461333333334 398.5898666666667C671.9317333333333 405.9968 671.9317333333333 418.0032000000001 678.9461333333334 425.4101333333333L822.6645333333332 577.1123200000001C829.6789333333332 584.5179733333333 841.0538666666666 584.5179733333333 848.0725333333332 577.1123200000001zM619.7888 412C619.7888 349.1605333333335 571.5285333333334 298.2208000000001 512 298.2208000000001C452.4714666666666 298.2208000000001 404.2103466666666 349.1605333333335 404.2103466666666 412C404.2103466666666 474.8394666666667 452.4714666666666 525.77792 512 525.77792C571.5285333333334 525.77792 619.7888 474.8394666666667 619.7888 412z" />
    <glyph glyph-name="today-arrows-1"
      unicode="&#x74;&#x6F;&#x64;&#x61;&#x79;&#x2D;&#x61;&#x72;&#x72;&#x6F;&#x77;&#x73;"
      horiz-adv-x="1024" d="M175.92832 273.7045333333333C168.91264 266.2976000000001 168.91264 254.2912 175.92832 246.8885333333334C182.944 239.4816000000001 194.3189333333334 239.4816000000001 201.3346133333333 246.8885333333334L345.0538666666667 398.5898666666667C352.0695466666667 405.9968 352.0695466666667 418.0032000000001 345.0538666666667 425.4101333333333L201.3346133333333 577.1127466666667C194.3189333333334 584.5179733333333 182.944 584.5179733333333 175.92832 577.1127466666667C168.91264 569.7070933333334 168.91264 557.7002666666667 175.92832 550.29504L306.9448533333333 412L175.92832 273.7045333333333zM848.0725333333332 577.1123200000001C855.0869333333333 569.7070933333334 855.0869333333333 557.7002666666667 848.0725333333332 550.29504L717.056 412L848.0725333333332 273.7045333333333C855.0869333333333 266.2976000000001 855.0869333333333 254.2912 848.0725333333332 246.8885333333334C841.0538666666666 239.4816000000001 829.6789333333332 239.4816000000001 822.6645333333332 246.8885333333334L678.9461333333334 398.5898666666667C671.9317333333333 405.9968 671.9317333333333 418.0032000000001 678.9461333333334 425.4101333333333L822.6645333333332 577.1123200000001C829.6789333333332 584.5179733333333 841.0538666666666 584.5179733333333 848.0725333333332 577.1123200000001zM619.7888 412C619.7888 349.1605333333335 571.5285333333334 298.2208000000001 512 298.2208000000001C452.4714666666666 298.2208000000001 404.2103466666666 349.1605333333335 404.2103466666666 412C404.2103466666666 474.8394666666667 452.4714666666666 525.77792 512 525.77792C571.5285333333334 525.77792 619.7888 474.8394666666667 619.7888 412z" />
    <glyph glyph-name="to-fullscreen"
      unicode="&#xF128;"
      horiz-adv-x="1024" d="M174 -10.6000000000001L430 -10.6000000000001L430 53.3999999999999L218 53.3999999999999L456 283.4000000000001L404 335.4000000000001L174 97.3999999999999L174 309.4000000000001L110 309.4000000000001L110 -10.6000000000001zM640 467.4L870 705.4000000000001L870 493.4L934 493.4L934 813.4000000000001L614 813.4000000000001L614 749.4000000000001L826 749.4000000000001L588 519.4000000000001z" />
    <glyph glyph-name="to-fullscreen-1"
      unicode="&#x74;&#x6F;&#x2D;&#x66;&#x75;&#x6C;&#x6C;&#x73;&#x63;&#x72;&#x65;&#x65;&#x6E;"
      horiz-adv-x="1024" d="M174 -10.6000000000001L430 -10.6000000000001L430 53.3999999999999L218 53.3999999999999L456 283.4000000000001L404 335.4000000000001L174 97.3999999999999L174 309.4000000000001L110 309.4000000000001L110 -10.6000000000001zM640 467.4L870 705.4000000000001L870 493.4L934 493.4L934 813.4000000000001L614 813.4000000000001L614 749.4000000000001L826 749.4000000000001L588 519.4000000000001z" />
    <glyph glyph-name="time"
      unicode="&#xF129;"
      horiz-adv-x="1024" d="M512 836C710 836 872 674 872 476S710 116 512 116S152 278 152 476S314 836 512 836M512 984C232 984 4 756 4 476S232 -32 512 -32S1020 196 1020 476S792 984 512 984zM520 486C498 486 482 502 482 522V670C482 690 498 708 520 708C540 708 556 690 556 670V522C556 502 540 486 520 486zM704 338C696 338 688 340 682 346L496 494C480 506 478 530 490 546C504 562 526 564 542 552L728 404C744 390 746 368 734 352C726 342 716 338 704 338z" />
    <glyph glyph-name="time-1"
      unicode="&#x74;&#x69;&#x6D;&#x65;"
      horiz-adv-x="1024" d="M512 836C710 836 872 674 872 476S710 116 512 116S152 278 152 476S314 836 512 836M512 984C232 984 4 756 4 476S232 -32 512 -32S1020 196 1020 476S792 984 512 984zM520 486C498 486 482 502 482 522V670C482 690 498 708 520 708C540 708 556 690 556 670V522C556 502 540 486 520 486zM704 338C696 338 688 340 682 346L496 494C480 506 478 530 490 546C504 562 526 564 542 552L728 404C744 390 746 368 734 352C726 342 716 338 704 338z" />
    <glyph glyph-name="time-tracking-stop"
      unicode="&#xF12A;"
      horiz-adv-x="1024" d="M567.980032 679.5642368C695.697408 679.5642368 800.19456 575.067904 800.19456 447.34848C800.19456 319.631104 695.697408 215.133952 567.980032 215.133952C554.708992 215.133952 541.687808 216.264448 529.0106880000001 218.427136V121.974528C541.794304 120.454912 554.799104 119.6684799999999 567.980032 119.6684799999999C748.589056 119.6684799999999 895.6600320000001 266.739456 895.6600320000001 447.34848C895.6600320000001 627.9611904000001 748.589056 775.0301184 567.980032 775.0301184C395.8501376000001 775.0301184 254.1862912000001 641.4489088 241.2609536 472.55936H337.1352064C349.8020864 588.5363712 448.7782400000001 679.5642368 567.980032 679.5642368zM548.630528 477.019904C548.630528 468.881152 552.73472 461.770496 559.333376 457.62944L677.638144 363.4951679999999C681.508864 359.6244479999999 686.665728 358.334208 691.826688 358.334208C699.568128 358.334208 706.019328 360.914688 711.180288 367.365888C718.917632 377.683712 717.627392 391.876352 707.309568 400.9080320000001L596.361216 489.1891199999999V572.4878335999999C596.361216 585.3885952 586.039296 596.9991168 573.140992 596.9991168C558.948352 596.9991168 548.630528 585.3885952 548.630528 572.4878335999999V477.019904zM140.8598016 406.38848V78.70848H468.54144V406.38848H140.8598016z" />
    <glyph glyph-name="time-tracking-stop-1"
      unicode="&#x74;&#x69;&#x6D;&#x65;&#x2D;&#x74;&#x72;&#x61;&#x63;&#x6B;&#x69;&#x6E;&#x67;&#x2D;&#x73;&#x74;&#x6F;&#x70;"
      horiz-adv-x="1024" d="M567.980032 679.5642368C695.697408 679.5642368 800.19456 575.067904 800.19456 447.34848C800.19456 319.631104 695.697408 215.133952 567.980032 215.133952C554.708992 215.133952 541.687808 216.264448 529.0106880000001 218.427136V121.974528C541.794304 120.454912 554.799104 119.6684799999999 567.980032 119.6684799999999C748.589056 119.6684799999999 895.6600320000001 266.739456 895.6600320000001 447.34848C895.6600320000001 627.9611904000001 748.589056 775.0301184 567.980032 775.0301184C395.8501376000001 775.0301184 254.1862912000001 641.4489088 241.2609536 472.55936H337.1352064C349.8020864 588.5363712 448.7782400000001 679.5642368 567.980032 679.5642368zM548.630528 477.019904C548.630528 468.881152 552.73472 461.770496 559.333376 457.62944L677.638144 363.4951679999999C681.508864 359.6244479999999 686.665728 358.334208 691.826688 358.334208C699.568128 358.334208 706.019328 360.914688 711.180288 367.365888C718.917632 377.683712 717.627392 391.876352 707.309568 400.9080320000001L596.361216 489.1891199999999V572.4878335999999C596.361216 585.3885952 586.039296 596.9991168 573.140992 596.9991168C558.948352 596.9991168 548.630528 585.3885952 548.630528 572.4878335999999V477.019904zM140.8598016 406.38848V78.70848H468.54144V406.38848H140.8598016z" />
    <glyph glyph-name="time-tracking-start"
      unicode="&#xF12B;"
      horiz-adv-x="983.04" d="M542.4291840000001 691.054336C670.14656 691.054336 774.6437119999999 586.5575936 774.6437119999999 458.841856C774.6437119999999 331.120384 670.14656 226.6273279999999 542.4291840000001 226.6273279999999C521.8508800000001 226.6273279999999 501.874688 229.33888 482.840576 234.426112L384.4829184 171.83104C431.357952 145.919744 485.21216 131.161856 542.4291840000001 131.161856C723.0423040000001 131.161856 870.1091839999999 278.2287360000001 870.1091839999999 458.841856C870.1091839999999 639.45088 723.0423040000001 786.519808 542.4291840000001 786.519808C371.7419008 786.519808 231.0119424 655.1684608 216.0627712 488.288L312.4092928 426.9749760000001C310.9629952 437.3992960000001 310.2154752 448.036608 310.2154752 458.841856C310.2154752 586.5575936 414.711808 691.054336 542.4291840000001 691.054336zM523.07968 488.51328C523.07968 480.374528 527.183872 473.259776 533.7825280000001 469.11872L652.087296 374.984448C655.958016 371.1137279999999 661.11488 369.823488 666.27584 369.823488C674.01728 369.823488 680.46848 372.403968 685.62944 378.855168C693.366784 389.1770880000001 692.08064 403.365632 681.75872 412.397312L570.810368 500.6784V583.9775232C570.810368 596.8782848000001 560.492544 608.4892159999999 547.590144 608.4892159999999C533.397504 608.4892159999999 523.07968 596.8782848000001 523.07968 583.9775232V488.51328zM112.9398272 67.944192V484.99072L440.6190080000001 276.467456L112.9398272 67.944192z" />
    <glyph glyph-name="time-tracking-start-1"
      unicode="&#x74;&#x69;&#x6D;&#x65;&#x2D;&#x74;&#x72;&#x61;&#x63;&#x6B;&#x69;&#x6E;&#x67;&#x2D;&#x73;&#x74;&#x61;&#x72;&#x74;"
      horiz-adv-x="983.04" d="M542.4291840000001 691.054336C670.14656 691.054336 774.6437119999999 586.5575936 774.6437119999999 458.841856C774.6437119999999 331.120384 670.14656 226.6273279999999 542.4291840000001 226.6273279999999C521.8508800000001 226.6273279999999 501.874688 229.33888 482.840576 234.426112L384.4829184 171.83104C431.357952 145.919744 485.21216 131.161856 542.4291840000001 131.161856C723.0423040000001 131.161856 870.1091839999999 278.2287360000001 870.1091839999999 458.841856C870.1091839999999 639.45088 723.0423040000001 786.519808 542.4291840000001 786.519808C371.7419008 786.519808 231.0119424 655.1684608 216.0627712 488.288L312.4092928 426.9749760000001C310.9629952 437.3992960000001 310.2154752 448.036608 310.2154752 458.841856C310.2154752 586.5575936 414.711808 691.054336 542.4291840000001 691.054336zM523.07968 488.51328C523.07968 480.374528 527.183872 473.259776 533.7825280000001 469.11872L652.087296 374.984448C655.958016 371.1137279999999 661.11488 369.823488 666.27584 369.823488C674.01728 369.823488 680.46848 372.403968 685.62944 378.855168C693.366784 389.1770880000001 692.08064 403.365632 681.75872 412.397312L570.810368 500.6784V583.9775232C570.810368 596.8782848000001 560.492544 608.4892159999999 547.590144 608.4892159999999C533.397504 608.4892159999999 523.07968 596.8782848000001 523.07968 583.9775232V488.51328zM112.9398272 67.944192V484.99072L440.6190080000001 276.4674560000001L112.9398272 67.944192z" />
    <glyph glyph-name="time-tracking-running"
      unicode="&#xF12C;"
      horiz-adv-x="1024" d="M806.965248 426.86848C806.965248 554.587904 702.468096 659.0842368 574.75072 659.0842368C447.033344 659.0842368 342.5357824 554.587904 342.5357824 426.86848C342.5357824 369.7538560000001 363.4356224 317.28 397.9657216000001 276.717312C380.8800768000001 291.942144 358.3578112 301.1909120000001 333.6749056 301.1909120000001C313.6397312 301.1909120000001 295.0279168 295.096064 279.5917312000001 284.659456C258.7582464 327.7002240000001 247.0699008 375.951104 247.0699008 426.86848C247.0699008 607.4811904000001 394.1388288 754.5501184 574.75072 754.5501184C755.3597440000001 754.5501184 902.43072 607.4811904000001 902.43072 426.86848C902.43072 246.259456 755.3597440000001 99.1884799999999 574.75072 99.1884799999999C547.016704 99.1884799999999 520.073216 102.657792 494.329856 109.1827199999999C536.813568 116.379392 569.868288 151.285504 574.255104 194.658048L574.75072 194.653952C702.468096 194.653952 806.965248 299.1511039999999 806.965248 426.86848zM566.099968 437.1494400000001C559.505408 441.290496 555.39712 448.401152 555.39712 456.539904V552.0078336C555.39712 564.9085952 565.7190400000001 576.5191167999999 579.91168 576.5191167999999C592.809984 576.5191167999999 603.131904 564.9085952 603.131904 552.0078336V468.70912L714.080256 380.4280320000001C724.39808 371.396352 725.68832 357.203712 717.94688 346.8858879999999C712.790016 340.4346880000001 706.338816 337.854208 698.5973759999999 337.854208C693.436416 337.854208 688.275456 339.144448 684.404736 343.015168L566.099968 437.1494400000001zM437.108736 204.504832C437.108736 227.12704 455.4465280000001 245.464832 478.068736 245.464832C500.690944 245.464832 519.028736 227.12704 519.028736 204.504832C519.028736 181.8826240000001 500.690944 163.5448320000001 478.068736 163.5448320000001C455.4465280000001 163.5448320000001 437.108736 181.8826240000001 437.108736 204.504832zM189.270016 245.464832C166.6482176 245.464832 148.310016 227.12704 148.310016 204.504832C148.310016 181.8826240000001 166.6482176 163.5448320000001 189.270016 163.5448320000001C211.8914048 163.5448320000001 230.230016 181.8826240000001 230.230016 204.504832C230.230016 227.12704 211.8914048 245.464832 189.270016 245.464832zM292.7099904 204.504832C292.7099904 227.12704 311.0486016 245.464832 333.6699904 245.464832C356.2913792 245.464832 374.6299904000001 227.12704 374.6299904000001 204.504832C374.6299904000001 181.8826240000001 356.2913792 163.5448320000001 333.6699904 163.5448320000001C311.0486016 163.5448320000001 292.7099904 181.8826240000001 292.7099904 204.504832z" />
    <glyph glyph-name="time-tracking-running-1"
      unicode="&#x74;&#x69;&#x6D;&#x65;&#x2D;&#x74;&#x72;&#x61;&#x63;&#x6B;&#x69;&#x6E;&#x67;&#x2D;&#x72;&#x75;&#x6E;&#x6E;&#x69;&#x6E;&#x67;"
      horiz-adv-x="1024" d="M806.965248 426.86848C806.965248 554.587904 702.468096 659.0842368 574.75072 659.0842368C447.033344 659.0842368 342.5357824 554.587904 342.5357824 426.86848C342.5357824 369.7538560000001 363.4356224 317.28 397.9657216000001 276.717312C380.8800768000001 291.942144 358.3578112 301.1909120000001 333.6749056 301.1909120000001C313.6397312000001 301.1909120000001 295.0279168 295.096064 279.5917312000001 284.659456C258.7582464 327.7002240000001 247.0699008 375.951104 247.0699008 426.86848C247.0699008 607.4811904000001 394.1388288 754.5501184 574.75072 754.5501184C755.3597440000001 754.5501184 902.43072 607.4811904000001 902.43072 426.86848C902.43072 246.259456 755.3597440000001 99.1884799999999 574.75072 99.1884799999999C547.016704 99.1884799999999 520.073216 102.657792 494.329856 109.1827199999999C536.813568 116.379392 569.868288 151.285504 574.255104 194.658048L574.75072 194.653952C702.468096 194.653952 806.965248 299.1511039999999 806.965248 426.86848zM566.099968 437.1494400000001C559.505408 441.290496 555.39712 448.401152 555.39712 456.539904V552.0078336C555.39712 564.9085952 565.7190400000001 576.5191167999999 579.91168 576.5191167999999C592.809984 576.5191167999999 603.131904 564.9085952 603.131904 552.0078336V468.70912L714.080256 380.4280320000001C724.39808 371.396352 725.68832 357.203712 717.94688 346.8858879999999C712.790016 340.4346880000001 706.338816 337.8542080000001 698.5973759999999 337.8542080000001C693.436416 337.8542080000001 688.275456 339.144448 684.404736 343.015168L566.099968 437.1494400000001zM437.108736 204.504832C437.108736 227.12704 455.4465280000001 245.464832 478.068736 245.464832C500.690944 245.464832 519.028736 227.12704 519.028736 204.504832C519.028736 181.8826240000001 500.690944 163.5448320000001 478.068736 163.5448320000001C455.4465280000001 163.5448320000001 437.108736 181.8826240000001 437.108736 204.504832zM189.270016 245.464832C166.6482176 245.464832 148.310016 227.12704 148.310016 204.504832C148.310016 181.8826240000001 166.6482176 163.5448320000001 189.270016 163.5448320000001C211.8914048 163.5448320000001 230.230016 181.8826240000001 230.230016 204.504832C230.230016 227.12704 211.8914048 245.464832 189.270016 245.464832zM292.7099904 204.504832C292.7099904 227.12704 311.0486016 245.464832 333.6699904 245.464832C356.2913792 245.464832 374.6299904000001 227.12704 374.6299904000001 204.504832C374.6299904000001 181.8826240000001 356.2913792 163.5448320000001 333.6699904 163.5448320000001C311.0486016 163.5448320000001 292.7099904 181.8826240000001 292.7099904 204.504832z" />
    <glyph glyph-name="ticket"
      unicode="&#xF12D;"
      horiz-adv-x="1024" d="M906 752L668 988H118V-36H906V752zM210 56V896H630L814 712V56H210z" />
    <glyph glyph-name="ticket-1"
      unicode="&#x74;&#x69;&#x63;&#x6B;&#x65;&#x74;"
      horiz-adv-x="1024" d="M906 752L668 988H118V-36H906V752zM210 56V896H630L814 712V56H210z" />
    <glyph glyph-name="ticket-note"
      unicode="&#xF12E;"
      horiz-adv-x="1024" d="M164 896H584L794 686L860 750L622 988H72V-36H326V56H164zM730 582H584C462 582 364 484 364 362C364 254 444 162 548 144V-6L744 142C860 148 952 246 952 362C952 484 852 582 730 582zM730 216H718L620 142V216H584C502 216 438 282 438 362C438 444 502 510 584 510H730C812 510 878 444 878 362C878 282 812 216 730 216z" />
    <glyph glyph-name="ticket-note-1"
      unicode="&#x74;&#x69;&#x63;&#x6B;&#x65;&#x74;&#x2D;&#x6E;&#x6F;&#x74;&#x65;"
      horiz-adv-x="1024" d="M164 896H584L794 686L860 750L622 988H72V-36H326V56H164zM730 582H584C462 582 364 484 364 362C364 254 444 162 548 144V-6L744 142C860 148 952 246 952 362C952 484 852 582 730 582zM730 216H718L620 142V216H584C502 216 438 282 438 362C438 444 502 510 584 510H730C812 510 878 444 878 362C878 282 812 216 730 216z" />
    <glyph glyph-name="ticket-minus"
      unicode="&#xF12F;"
      horiz-adv-x="1024" d="M644 214V300H962V214zM854 752L618 988H68V-36H856V138H764V56H160V896H580L764 712V376H856V752z" />
    <glyph glyph-name="ticket-minus-1"
      unicode="&#x74;&#x69;&#x63;&#x6B;&#x65;&#x74;&#x2D;&#x6D;&#x69;&#x6E;&#x75;&#x73;"
      horiz-adv-x="1024" d="M644 214V300H962V214zM854 752L618 988H68V-36H856V138H764V56H160V896H580L764 712V376H856V752z" />
    <glyph glyph-name="ticket-edit"
      unicode="&#xF130;"
      horiz-adv-x="1024" d="M430 0L442 86L454 174L528 100L602 24L516 12zM850 322L628 100L602 124L826 348L776 396L552 174L528 198L750 422L726 446L478 198L628 50L874 298zM952 372C966 384 966 406 952 420L852 520C838 532 816 534 804 520C802 518 802 518 802 516L800 518L754 470L902 320L950 368L948 370C950 370 952 370 952 372zM576 896L788 686L852 750L616 988H66V-36H320V56H158V896z" />
    <glyph glyph-name="ticket-edit-1"
      unicode="&#x74;&#x69;&#x63;&#x6B;&#x65;&#x74;&#x2D;&#x65;&#x64;&#x69;&#x74;"
      horiz-adv-x="1024" d="M430 0L442 86L454 174L528 100L602 24L516 12zM850 322L628 100L602 124L826 348L776 396L552 174L528 198L750 422L726 446L478 198L628 50L874 298zM952 372C966 384 966 406 952 420L852 520C838 532 816 534 804 520C802 518 802 518 802 516L800 518L754 470L902 320L950 368L948 370C950 370 952 370 952 372zM576 896L788 686L852 750L616 988H66V-36H320V56H158V896z" />
    <glyph glyph-name="ticket-down"
      unicode="&#xF131;"
      horiz-adv-x="1024" d="M838 194L922 340H854V576H648V340H584L668 194L754 48zM612 896L824 686L888 750L652 988H102V-36H556V56H194V896z" />
    <glyph glyph-name="ticket-down-1"
      unicode="&#x74;&#x69;&#x63;&#x6B;&#x65;&#x74;&#x2D;&#x64;&#x6F;&#x77;&#x6E;"
      horiz-adv-x="1024" d="M838 194L922 340H854V576H648V340H584L668 194L754 48zM612 896L824 686L888 750L652 988H102V-36H556V56H194V896z" />
    <glyph glyph-name="ticket-checked"
      unicode="&#xF132;"
      horiz-adv-x="1024" d="M558 -36L364 184C344 206 348 238 374 256C398 274 436 270 456 248L554 136L850 498C870 522 906 526 932 510C958 492 964 460 944 436zM576 896L786 686L852 750L614 988H64V-36H318V56H156V896z" />
    <glyph glyph-name="ticket-checked-1"
      unicode="&#x74;&#x69;&#x63;&#x6B;&#x65;&#x74;&#x2D;&#x63;&#x68;&#x65;&#x63;&#x6B;&#x65;&#x64;"
      horiz-adv-x="1024" d="M558 -36L364 184C344 206 348 238 374 256C398 274 436 270 456 248L554 136L850 498C870 522 906 526 932 510C958 492 964 460 944 436zM576 896L786 686L852 750L614 988H64V-36H318V56H156V896z" />
    <glyph glyph-name="text"
      unicode="&#xF133;"
      horiz-adv-x="1024" d="M274 -34V26C332 28 366 32 378 38C388 42 396 52 400 66C406 88 408 150 408 254V692C408 810 408 878 406 892H302C250 892 202 890 162 886C146 886 138 884 136 880C132 878 128 870 126 856C120 822 116 784 116 740H56C54 840 52 896 52 910C50 930 48 954 44 978L50 986C74 984 98 982 124 980C166 980 246 978 364 978H660C782 978 864 980 904 980C928 982 950 984 972 986L980 978C976 948 972 922 972 900C972 896 970 844 968 740H908C908 778 904 814 898 850C896 866 892 878 890 880C886 884 878 884 866 886C826 890 778 892 722 892H618C616 874 616 808 616 692V256C616 150 618 86 624 66C628 52 634 44 646 38C656 32 692 28 750 26V-34C656 -30 576 -28 512 -28C444 -28 364 -30 274 -34z" />
    <glyph glyph-name="text-1"
      unicode="&#x74;&#x65;&#x78;&#x74;"
      horiz-adv-x="1024" d="M274 -34V26C332 28 366 32 378 38C388 42 396 52 400 66C406 88 408 150 408 254V692C408 810 408 878 406 892H302C250 892 202 890 162 886C146 886 138 884 136 880C132 878 128 870 126 856C120 822 116 784 116 740H56C54 840 52 896 52 910C50 930 48 954 44 978L50 986C74 984 98 982 124 980C166 980 246 978 364 978H660C782 978 864 980 904 980C928 982 950 984 972 986L980 978C976 948 972 922 972 900C972 896 970 844 968 740H908C908 778 904 814 898 850C896 866 892 878 890 880C886 884 878 884 866 886C826 890 778 892 722 892H618C616 874 616 808 616 692V256C616 150 618 86 624 66C628 52 634 44 646 38C656 32 692 28 750 26V-34C656 -30 576 -28 512 -28C444 -28 364 -30 274 -34z" />
    <glyph glyph-name="team-planner"
      unicode="&#xF134;"
      horiz-adv-x="1024" d="M170.66688 796C135.33376 796 106.6912 765.92512 106.6912 728.8256C106.6912 691.72608 135.33376 661.6512 170.66688 661.6512H415.74336C441.80416 681.39328 474.95424 693.6 512.07296 693.6C549.19168 693.6 582.34176 681.39328 608.40256 661.6512H792.9728C828.3072 661.6512 856.9536 691.72608 856.9536 728.8256C856.9536 765.92512 828.3072 796 792.9728 796H170.66688zM246.92928 583.73824H361.7344C359.30816 575.2115200000001 357.69792 566.45952 356.97536 557.5871999999999C355.64224 545.63648 356.65664 532.45696 357.53088 523.03808C357.76384 520.5305599999999 358.02816 517.9180799999999 358.31488 515.23648C353.00288 506.74624 350.14592 498.33728 348.54144 492.76864C343.94432 476.81344 343.02656 459.98784 343.02656 451.00288V449.38944H246.92928C211.5968 449.38944 182.9536 479.46432 182.9536 516.56384C182.9536 553.66336 211.5968 583.73824 246.92928 583.73824zM63.97568 371.4764800000001H379.41696C383.11808 359.5993600000001 387.46112 349.5846400000001 391.92384 341.25632C393.39456 338.512 394.86656 335.9718400000001 396.31744 333.6288V330.44736C387.04384 326.0198400000001 374.77952 320.2995200000001 358.77888 313.0560000000001C346.42752 307.46368 333.98272 302.28928 321.29344 297.01248L320.73408 296.7795200000001C308.1600000000001 291.5513600000001 295.06496 286.10176 282.99264 280.4928C270.9984 274.9248 258.52224 268.5248000000001 247.29856 260.9792C238.53952 255.0912 228.7936 247.3536000000001 220.4512 237.1264H63.97568C28.64288 237.1264 0 267.2000000000001 0 304.3020800000001C0 341.4016000000001 28.64288 371.4764800000001 63.97568 371.4764800000001zM339.52512 249.5232C329.3446400000001 245.2928000000001 319.51872 241.2032000000001 310.336 237.1264C284.69568 225.7408000000001 264.07232 214.4128 254.75584 200.096C241.0528 175.968 244.09792 28 244.09792 28H780.0512C780.0512 28 783.0912 175.968 769.3888 200.096C756.736 219.5392000000001 723.2256 233.472 684.6208 249.5232C672.1216 254.7200000000001 659.0912 260.1408 646.0608 266.0416C592.76992 290.16512 579.06688 298.20736 579.06688 298.20736V351.2838400000001C579.06688 351.2838400000001 598.86016 367.36768 604.9504 418.83584C617.13152 415.61856 630.83456 438.13632 632.35712 451.00288C632.35712 463.87008 629.312 496.03776 614.0864 492.82112C614.41216 495.57632 614.73792 498.2944 615.05856 500.96576C617.7312 523.2473600000001 620.01344 542.27776 618.65408 552.33088C615.60896 595.7568 574.4992 642.4 512.07296 642.4C463.95456 642.4 428.50112 614.68736 413.3824 582.09664C408.88704 572.40576 406.19008 562.2841599999999 405.49184 552.33088C405.18464 550.0576 405.06304 547.3248 405.09056 544.19968C405.18464 533.5052800000001 407.01888 518.20992 409.08672 500.96832L410.05952 492.82112C407.73888 493.31136 405.70112 492.9792 403.9136 492.0192C393.97632 486.67968 391.7888 461.90912 391.7888 451.00288C393.31136 438.13632 405.49184 415.61856 419.19488 418.83584C421.792 397.57376 426.88128 382.16192 431.86432 371.4764800000001C438.5152 357.21664 444.97728 351.37536 445.07776 351.28512L445.07904 298.20736C445.07904 298.20736 444.22272 297.7049600000001 442.1056 296.57408C435.7536 293.18144 418.05312 284.1337600000001 378.08512 266.0416C377.2710400000001 265.6704 376.45632 265.3056000000001 375.64224 264.9408C363.42784 259.4624 351.24096 254.3936 339.52512 249.5232zM1007.264 194.8672C1009.4272 190.976 1011.7184 186.8544000000001 1014.528 182.4064C1026.7072 161.4976 1023.6608 28 1023.6608 28H845.5168C850.0864 216.1792 831.8144 248.3456 824.2048 259.6032C817.1584 271.6992 794.8224 274.112 772.832 276.48C756.8 278.208 740.9536 279.9168 731.328 285.34016L770.912 319.1161600000001C770.912 319.1161600000001 752.64 333.59168 748.0768 378.62592C735.8912 375.40928 725.2352 396.31808 723.712 407.57696C723.712 418.83584 725.2352 449.39456 738.9376 446.17792C735.8912 468.69504 734.368 487.99552 735.8912 499.2544C738.9376 537.85536 775.4816 579.67296 831.8144 579.67296C888.1536 579.67296 924.6912 537.85536 927.7376 499.2544C929.088 489.2704 926.848 472.9632 924.1984 453.696C923.8592 451.23584 923.5136 448.72768 923.168 446.17792C936.8768 449.39456 939.9168 418.83584 938.4 407.57696C938.4 396.31808 926.2144 375.40928 915.5584 378.62592C909.4656 333.59168 891.1936 319.1161600000001 891.1936 319.1161600000001L892.7168 270.8672000000001C892.7168 270.8672000000001 903.3792 262.8224 952.1024 241.9136C990.5984 224.8576000000001 997.696 212.0896 1007.264 194.8672zM339.52512 249.5232C339.52576 249.5232 339.52512 249.5232 339.52512 249.5232z" />
    <glyph glyph-name="team-planner-1"
      unicode="&#x74;&#x65;&#x61;&#x6D;&#x2D;&#x70;&#x6C;&#x61;&#x6E;&#x6E;&#x65;&#x72;"
      horiz-adv-x="1024" d="M170.66688 796C135.33376 796 106.6912 765.92512 106.6912 728.8256C106.6912 691.72608 135.33376 661.6512 170.66688 661.6512H415.74336C441.80416 681.39328 474.95424 693.6 512.07296 693.6C549.19168 693.6 582.34176 681.39328 608.40256 661.6512H792.9728C828.3072 661.6512 856.9536 691.72608 856.9536 728.8256C856.9536 765.92512 828.3072 796 792.9728 796H170.66688zM246.92928 583.73824H361.7344C359.30816 575.2115200000001 357.69792 566.45952 356.97536 557.5871999999999C355.64224 545.63648 356.65664 532.45696 357.53088 523.03808C357.76384 520.5305599999999 358.02816 517.9180799999999 358.31488 515.23648C353.00288 506.74624 350.14592 498.33728 348.54144 492.76864C343.94432 476.81344 343.02656 459.98784 343.02656 451.00288V449.38944H246.92928C211.5968 449.38944 182.9536 479.46432 182.9536 516.56384C182.9536 553.66336 211.5968 583.73824 246.92928 583.73824zM63.97568 371.4764800000001H379.41696C383.11808 359.5993600000001 387.46112 349.5846400000001 391.92384 341.25632C393.39456 338.512 394.86656 335.9718400000001 396.31744 333.6288V330.44736C387.04384 326.0198400000001 374.77952 320.2995200000001 358.77888 313.0560000000001C346.42752 307.46368 333.98272 302.28928 321.29344 297.01248L320.73408 296.7795200000001C308.1600000000001 291.5513600000001 295.06496 286.10176 282.99264 280.4928C270.9984 274.9248 258.52224 268.5248000000001 247.29856 260.9792C238.53952 255.0912 228.7936 247.3536000000001 220.4512 237.1264H63.97568C28.64288 237.1264 0 267.2000000000001 0 304.3020800000001C0 341.4016000000001 28.64288 371.4764800000001 63.97568 371.4764800000001zM339.52512 249.5232C329.3446400000001 245.2928000000001 319.51872 241.2032000000001 310.336 237.1264C284.69568 225.7408000000001 264.07232 214.4128 254.75584 200.096C241.0528 175.968 244.09792 28 244.09792 28H780.0512C780.0512 28 783.0912 175.968 769.3888 200.096C756.736 219.5392000000001 723.2256 233.472 684.6208 249.5232C672.1216 254.7200000000001 659.0912 260.1408 646.0608 266.0416C592.76992 290.16512 579.06688 298.20736 579.06688 298.20736V351.2838400000001C579.06688 351.2838400000001 598.86016 367.36768 604.9504 418.83584C617.13152 415.61856 630.83456 438.13632 632.35712 451.00288C632.35712 463.87008 629.312 496.03776 614.0864 492.82112C614.41216 495.57632 614.73792 498.2944 615.05856 500.96576C617.7312 523.2473600000001 620.01344 542.27776 618.65408 552.33088C615.60896 595.7568 574.4992 642.4 512.07296 642.4C463.95456 642.4 428.50112 614.68736 413.3824 582.09664C408.88704 572.40576 406.19008 562.2841599999999 405.49184 552.33088C405.18464 550.0576 405.06304 547.3248 405.09056 544.19968C405.18464 533.5052800000001 407.01888 518.20992 409.08672 500.96832L410.05952 492.82112C407.73888 493.31136 405.70112 492.9792 403.9136 492.0192C393.97632 486.67968 391.7888 461.90912 391.7888 451.00288C393.31136 438.13632 405.49184 415.61856 419.19488 418.83584C421.792 397.57376 426.88128 382.16192 431.86432 371.4764800000001C438.5152 357.21664 444.97728 351.37536 445.07776 351.28512L445.07904 298.20736C445.07904 298.20736 444.22272 297.7049600000001 442.1056 296.57408C435.7536 293.18144 418.05312 284.1337600000001 378.08512 266.0416C377.2710400000001 265.6704 376.45632 265.3056000000001 375.64224 264.9408C363.42784 259.4624 351.24096 254.3936 339.52512 249.5232zM1007.264 194.8672C1009.4272 190.976 1011.7184 186.8544000000001 1014.528 182.4064C1026.7072 161.4976 1023.6608 28 1023.6608 28H845.5168C850.0864 216.1792 831.8144 248.3456 824.2048 259.6032C817.1584 271.6992 794.8224 274.112 772.832 276.48C756.8 278.2080000000001 740.9536 279.9168 731.328 285.3401600000001L770.912 319.1161600000001C770.912 319.1161600000001 752.64 333.59168 748.0768 378.62592C735.8912 375.40928 725.2352 396.31808 723.712 407.57696C723.712 418.83584 725.2352 449.39456 738.9376 446.17792C735.8912 468.69504 734.368 487.99552 735.8912 499.2544C738.9376 537.85536 775.4816 579.67296 831.8144 579.67296C888.1536 579.67296 924.6912 537.85536 927.7376 499.2544C929.088 489.2704 926.848 472.9632 924.1984 453.696C923.8592 451.23584 923.5136 448.72768 923.168 446.17792C936.8768 449.39456 939.9168 418.83584 938.4 407.57696C938.4 396.31808 926.2144 375.40928 915.5584 378.62592C909.4656 333.59168 891.1936 319.1161600000001 891.1936 319.1161600000001L892.7168 270.8672000000001C892.7168 270.8672000000001 903.3792 262.8224 952.1024 241.9136C990.5984 224.8576000000001 997.696 212.0896 1007.264 194.8672zM339.52512 249.5232C339.52576 249.5232 339.52512 249.5232 339.52512 249.5232z" />
    <glyph glyph-name="sum-sign"
      unicode="&#xF135;"
      horiz-adv-x="1024" d="M386.5450666666667 604.2231466666667C371.91168 604.2231466666667 358.7101866666667 604.64 346.94016 605.4737066666667C335.1701333333333 606.5856 323.24096 608.11392 311.15264 610.0590933333333C324.51328 603.9453866666666 336.12416 597.27616 345.9857066666667 590.05056C356.16512 583.1031466666667 365.7088 575.0442666666668 374.6158933333334 565.87392L512.5162666666666 414.9781333333334C522.3765333333333 404.9728 528.7424 397.0538666666667 531.6053333333333 391.2170666666667C534.4682666666666 385.6576 536.0554666666667 380.6570666666667 536.3754666666666 376.2112C536.3754666666666 370.3744000000001 534.9418666666666 364.2602666666667 532.0789333333332 357.8688C529.2159999999999 351.4773333333334 522.6965333333333 343.2810666666667 512.5162666666666 333.2757333333334L357.4378666666667 166.1248000000001C348.21248 156.6741333333333 340.25984 149.1733333333334 333.57952 143.6138666666668C327.2170666666667 138.3317333333333 320.6958933333333 133.8858666666668 314.0155733333334 130.2762666666666C325.7856 131.6629333333334 336.76032 132.6357333333334 346.94016 133.1946666666667C357.1195733333333 133.7493333333334 366.8219733333334 134.0266666666667 376.0473600000001 134.0266666666667H725.3333333333333V70.6666666666667H213.3333333333333V101.0965333333334C213.3333333333333 107.2106666666667 214.9239466666667 113.1840000000001 218.1051733333333 119.0208C221.6042666666667 125.1349333333333 225.73952 130.4128000000001 230.51136 134.8586666666668L455.2576 368.7061333333334L224.7854933333333 609.64224C221.6042666666667 612.69888 218.90048 616.3114666666667 216.6737066666667 620.48C214.4469333333333 624.6485333333334 213.3333333333333 628.8170666666667 213.3333333333333 632.9851733333334V668H725.3333333333333V604.2231466666667H386.5450666666667z" />
    <glyph glyph-name="sum-sign-1"
      unicode="&#x73;&#x75;&#x6D;&#x2D;&#x73;&#x69;&#x67;&#x6E;"
      horiz-adv-x="1024" d="M386.5450666666667 604.2231466666667C371.91168 604.2231466666667 358.7101866666667 604.64 346.94016 605.4737066666667C335.1701333333333 606.5856 323.24096 608.11392 311.15264 610.0590933333333C324.51328 603.9453866666666 336.12416 597.27616 345.9857066666667 590.05056C356.16512 583.1031466666667 365.7088 575.0442666666668 374.6158933333334 565.87392L512.5162666666666 414.9781333333334C522.3765333333333 404.9728 528.7424 397.0538666666667 531.6053333333333 391.2170666666667C534.4682666666666 385.6576 536.0554666666667 380.6570666666667 536.3754666666666 376.2112C536.3754666666666 370.3744000000001 534.9418666666666 364.2602666666667 532.0789333333332 357.8688C529.2159999999999 351.4773333333334 522.6965333333333 343.2810666666667 512.5162666666666 333.2757333333334L357.4378666666667 166.1248000000001C348.2124800000001 156.6741333333333 340.25984 149.1733333333334 333.57952 143.6138666666668C327.2170666666667 138.3317333333333 320.6958933333333 133.8858666666668 314.0155733333334 130.2762666666666C325.7856 131.6629333333334 336.76032 132.6357333333334 346.94016 133.1946666666667C357.1195733333333 133.7493333333334 366.8219733333334 134.0266666666667 376.0473600000001 134.0266666666667H725.3333333333333V70.6666666666667H213.3333333333333V101.0965333333334C213.3333333333333 107.2106666666667 214.9239466666667 113.1840000000001 218.1051733333333 119.0208C221.6042666666667 125.1349333333333 225.73952 130.4128000000001 230.51136 134.8586666666668L455.2576 368.7061333333334L224.7854933333333 609.64224C221.6042666666667 612.69888 218.90048 616.3114666666667 216.6737066666667 620.48C214.4469333333333 624.6485333333334 213.3333333333333 628.8170666666667 213.3333333333333 632.9851733333334V668H725.3333333333333V604.2231466666667H386.5450666666667z" />
    <glyph glyph-name="sum-error"
      unicode="&#xF136;"
      horiz-adv-x="1024" d="M581.2736 709.72288C643.2981333333332 767.8702933333334 744.1664000000001 767.8702933333334 806.8138666666666 709.72288C868.8383999999999 651.57504 868.8383999999999 556.42496 806.8138666666666 498.27712C744.1664000000001 440.1301333333334 643.9253333333334 440.1301333333334 581.2736 498.27712C519.2490666666666 557.0120533333334 519.2490666666666 651.57504 581.2736 709.72288zM713.0538666666666 709.72288H679.8506666666666C670.4512 709.72288 669.2010666666666 704.4364800000001 669.2010666666666 701.4997333333333V698.5629866666667L676.0917333333333 581.68064C677.3461333333332 573.4579200000001 681.1050666666666 571.6957866666667 687.9957333333333 571.6957866666667H705.5360000000001C712.4266666666667 571.6957866666667 716.1855999999999 573.4579200000001 716.8127999999999 582.2681600000001L723.7034666666666 695.0391466666667L724.3306666666667 698.5629866666667V701.4997333333333C724.3306666666667 704.4364800000001 723.0805333333333 709.72288 713.0538666666666 709.72288zM665.4421333333332 521.184C665.4421333333332 505.3256533333333 679.2234666666666 492.4053333333333 696.768 492.4053333333333C713.6810666666667 492.4053333333333 728.0895999999999 505.3256533333333 728.0895999999999 521.184C728.0895999999999 537.62944 714.3082666666666 550.5514666666667 696.768 550.5514666666667C679.2234666666666 550.5514666666667 665.4421333333332 537.62944 665.4421333333332 521.184zM170.6666666666667 668H500.8981333333334C493.376 648.04864 489.2714666666666 626.5834666666667 489.2458666666666 604.2231466666667H355.4257066666667C339.81696 604.2231466666667 325.7352533333334 604.64 313.1805866666666 605.4737066666667C300.62592 606.5856 287.90144 608.11392 275.0071466666667 610.0590933333333C289.2586666666666 603.9453866666666 301.64352 597.27616 312.16256 590.05056C323.0208 583.1031466666667 333.2002133333333 575.0442666666668 342.7012266666667 565.87392L489.7962666666666 414.9781333333334C500.3136 404.9728 507.1018666666666 397.0538666666667 510.1568 391.2170666666667C513.2074666666666 385.6576 514.9055999999999 380.6570666666667 515.2426666666667 376.2112C515.2426666666667 370.3744000000001 513.7194666666667 364.2602666666667 510.6645333333333 357.8688C507.6096 351.4773333333334 500.6549333333333 343.2810666666667 489.7962666666666 333.2757333333334L324.3780266666667 166.1248000000001C314.5378133333333 156.6741333333333 306.0548266666667 149.1733333333334 298.9290666666667 143.6138666666668C292.1429333333333 138.3317333333333 285.18656 133.8858666666668 278.0612266666667 130.2762666666666C290.6158933333333 131.6629333333334 302.3223466666667 132.6357333333334 313.1805866666666 133.1946666666667C324.0388266666667 133.7493333333334 334.3880533333334 134.0266666666667 344.2282666666667 134.0266666666667H716.8V70.6666666666667H170.6666666666667V101.0965333333334C170.6666666666667 107.2106666666667 172.3630933333333 113.1840000000001 175.7563733333333 119.0208C179.4888533333333 125.1349333333333 183.90016 130.4128000000001 188.9898666666667 134.8586666666668L428.7189333333334 368.7061333333334L182.8821333333333 609.64224C179.4888533333333 612.69888 176.6045866666667 616.3114666666667 174.2293333333333 620.48C171.85408 624.6485333333334 170.6666666666667 628.8170666666667 170.6666666666667 632.9851733333334V668z" />
    </font>
</defs>
</svg>
