<svg xmlns="http://www.w3.org/2000/svg" viewBox="0 0 512 512"><path d="M256-19C122-19 13 90 13 224s109 243 243 243 243-109 243-243S390-19 256-19zm0 448c-112 0-205-93-205-205S144 19 256 19s205 93 205 205-93 205-205 205zm0-368c-90 0-163 73-163 163s73 163 163 163 163-73 163-163S346 61 256 61zm0 32c10 0 16 3 22 9 7 7 10 13 10 23 0 19-13 32-32 32s-32-13-32-32c0-10 3-16 10-23 6-6 12-9 22-9zm51 256c-6 3-13 0-19-7v-3c-13-19-22-45-32-70-10 25-19 51-32 73v4c-6 6-13 9-19 6-3-3-7-10-3-16 0-3 0-3 3-6 13-26 25-55 32-84v-48c-26 0-51-3-77-6-6 0-13-6-13-13 0-6 7-13 13-13 64 7 125 7 189 0 6 0 13 4 16 13 0 7-7 13-13 13-26 3-51 3-77 3v45c7 32 19 58 32 83 0 3 3 3 3 7 4 9 4 16-3 19z"/></svg>