<svg width="16" height="16" viewBox="0 0 16 16" fill="none" xmlns="http://www.w3.org/2000/svg">
<path fill-rule="evenodd" clip-rule="evenodd" d="M8.52559 0.0176067C10.657 0.176162 12.6003 1.15921 14.0108 2.77647C15.4213 4.39374 16.1109 6.45496 15.9855 8.5796C15.672 12.7972 12.1615 16 7.99274 16H7.42855C5.07774 15.8097 2.915 14.6364 1.53586 12.7338L2.82097 11.7507C3.94936 13.2728 5.67328 14.1925 7.52258 14.3193C11.0331 14.573 14.1048 11.941 14.3243 8.45276C14.4496 6.77207 13.9168 5.1548 12.7884 3.85465C11.66 2.58621 10.1241 1.79343 8.40022 1.69829C6.20613 1.53974 4.07473 2.52278 2.78962 4.2986L3.82398 4.80598L0.470161 7.50143L0 2.87161L1.3478 3.53754C2.915 1.19092 5.64194 -0.17266 8.52559 0.0176067ZM7.29397 8.77277C7.11282 8.65903 7 8.46369 7 8.24016V5.61811C7 5.26378 7.28346 4.94488 7.67323 4.94488C8.02756 4.94488 8.31102 5.26378 8.31102 5.61811V7.90602L11.3583 10.3307C11.6417 10.5787 11.6772 10.9685 11.4646 11.252C11.3228 11.4291 11.1457 11.5 10.9331 11.5C10.7913 11.5 10.6496 11.4646 10.5433 11.3583L7.29397 8.77277Z" fill="black"/>
</svg>
