<svg width="16" height="16" viewBox="0 0 16 16" fill="none" xmlns="http://www.w3.org/2000/svg">
<path d="M4.8 6.07692H11.2V7.61538H4.8V6.07692ZM14.48 6.84615H16C16 4.72308 14.208 3 12 3H8.8V4.46154H12C13.368 4.46154 14.48 5.53077 14.48 6.84615ZM1.52 6.84615C1.52 5.53077 2.632 4.46154 4 4.46154H7.2V3H4C1.792 3 0 4.72308 0 6.84615C0 8.96923 1.792 10.6923 4 10.6923H7.2V9.23077H4C2.632 9.23077 1.52 8.16154 1.52 6.84615ZM13.6 6.84615H12V9.15385H9.6V10.6923H12V13H13.6V10.6923H16V9.15385H13.6V6.84615Z" fill="black"/>
</svg>
