<svg width="16" height="10" viewBox="0 0 16 10" fill="none" xmlns="http://www.w3.org/2000/svg">
<path d="M4.8 3.07692H11.2V4.61538H4.8V3.07692ZM14.48 3.84615H16C16 1.72308 14.208 0 12 0H8.8V1.46154H12C13.368 1.46154 14.48 2.53077 14.48 3.84615ZM1.52 3.84615C1.52 2.53077 2.632 1.46154 4 1.46154H7.2V0H4C1.792 0 0 1.72308 0 3.84615C0 5.96923 1.792 7.69231 4 7.69231H7.2V6.23077H4C2.632 6.23077 1.52 5.16154 1.52 3.84615ZM13.6 3.84615H12V6.15385H9.6V7.69231H12V10H13.6V7.69231H16V6.15385H13.6V3.84615Z" fill="black"/>
</svg>
