<svg width="16" height="16" viewBox="0 0 16 16" fill="none" xmlns="http://www.w3.org/2000/svg">
<path d="M3.11125 16C2.4853 16 1.85935 15.7017 1.296 15.0718L1.20211 15.0055C0.607457 14.3756 -1.1765 11.7898 1.20211 9.13776C2.37456 7.79782 4.00326 6.10349 5.72839 4.30885L5.80283 4.2314L8.68219 1.1815C10.4348 -0.674957 11.718 -0.243993 13.7211 1.77822C16.0684 4.13195 16.5065 6.48567 15.4737 7.71226C15.1878 8.06439 14.7324 8.58559 14.1904 9.19035L13.1364 8.13643C13.6647 7.54899 14.1057 7.04778 14.3783 6.71773C14.6913 6.31992 14.7226 4.92757 12.7196 2.90536C12.5391 2.71937 12.3784 2.53821 12.23 2.37091C11.4261 1.46475 10.9832 0.965384 9.71501 2.30864C8.74479 3.33632 7.77457 4.36401 6.83564 5.32539C5.08299 7.14869 3.45552 8.87255 2.26622 10.1986C0.889134 11.7567 1.57768 13.2153 2.23492 13.8784L2.32882 13.9778C2.86087 14.5414 3.29904 14.7071 4.08147 13.8784C4.16562 13.7892 4.2867 13.6659 4.43586 13.5139C4.67504 13.2702 4.98639 12.953 5.33337 12.5855C6.92954 10.9611 9.8715 7.91117 10.4661 7.11554C10.6539 6.88349 10.9356 6.25362 10.6539 6.02156C10.3097 5.69005 9.62112 6.35307 9.43333 6.58513C7.51692 8.70731 5.06173 11.229 4.69202 11.6087L4.64482 11.6572C4.36315 11.9556 3.89369 11.9556 3.61201 11.6572C3.33033 11.3257 3.33033 10.8616 3.61201 10.5633L3.65946 10.5144C4.02996 10.1339 6.48231 7.61521 8.36922 5.52429C9.71501 4.03249 10.9356 4.19825 11.6242 4.86127C12.5005 5.6569 12.2814 7.215 11.6242 8.11008C11.1 8.77636 9.39053 10.5586 7.48843 12.5417C7.1192 12.9267 6.74267 13.3192 6.36618 13.7126C5.77153 14.2762 5.33337 14.7403 5.11429 14.9723C4.45704 15.6685 3.79979 16 3.11125 16Z" fill="black"/>
<path d="M12.75 10H11.25V12.25H9V13.75H11.25V16H12.75V13.75H15V12.25H12.75V10Z" fill="black"/>
</svg>
