<svg width="24" height="24" viewBox="0 0 24 24" fill="none" xmlns="http://www.w3.org/2000/svg">
<path d="M11.1724 11.0138C13.0018 11.0138 14.4848 9.44374 14.4848 7.50692C14.4848 5.5701 13.0018 4 11.1724 4C9.34304 4 7.86005 5.5701 7.86005 7.50692C7.86005 9.44374 9.34304 11.0138 11.1724 11.0138Z" fill="black"/>
<path d="M8.25889 15.8957C8.26899 15.6108 8.35866 15.3354 8.51656 15.1045C8.67446 14.8735 8.89349 14.6972 9.14597 14.598C9.39845 14.4988 9.67305 14.4811 9.93504 14.5471C10.197 14.6131 10.4347 14.7598 10.6179 14.9688L12.4954 17.1059L15.8224 13.1767C14.4481 12.2071 12.8286 11.7008 11.1773 11.7245C10.0317 11.6938 8.89378 11.9292 7.84338 12.4141C6.79298 12.899 5.85566 13.6215 5.0973 14.5311C5.03315 14.6216 4.99896 14.732 5.00002 14.8452V17.6209C4.99991 17.8887 5.09838 18.1461 5.27455 18.3384C5.45072 18.5307 5.69072 18.6428 5.94363 18.6508H10.1121L8.61882 16.9514C8.49544 16.8097 8.40005 16.6433 8.33824 16.462C8.27644 16.2807 8.24945 16.0882 8.25889 15.8957Z" fill="black"/>
<path d="M16.4109 18.6508C16.6638 18.6428 16.9038 18.5307 17.08 18.3384C17.2562 18.1461 17.3546 17.8887 17.3545 17.6209V15.6846L14.8593 18.6508H16.4109Z" fill="black"/>
<path d="M18.8478 11.7605C18.8 11.7149 18.7442 11.6797 18.6835 11.657C18.6229 11.6343 18.5585 11.6246 18.4943 11.6285C18.4301 11.6323 18.3672 11.6496 18.3093 11.6793C18.2514 11.7091 18.1997 11.7507 18.1571 11.8017L12.5051 18.4963L9.97587 15.6176C9.93436 15.5662 9.88369 15.524 9.82675 15.4933C9.76981 15.4627 9.70773 15.4442 9.64405 15.4389C9.58036 15.4337 9.51632 15.4417 9.45558 15.4627C9.39484 15.4836 9.3386 15.517 9.29005 15.561C9.24447 15.6089 9.20828 15.6658 9.18359 15.7286C9.15889 15.7913 9.14618 15.8586 9.14618 15.9266C9.14618 15.9946 9.15889 16.0619 9.18359 16.1247C9.20828 16.1874 9.24447 16.2444 9.29005 16.2922L12.5392 20L18.8818 12.4712C18.9636 12.3709 19.0057 12.241 18.9994 12.1086C18.993 11.9763 18.9387 11.8516 18.8478 11.7605Z" fill="black"/>
</svg>
