<svg width="16" height="17" viewBox="0 0 16 17" fill="none" xmlns="http://www.w3.org/2000/svg">
<path fill-rule="evenodd" clip-rule="evenodd" d="M6.63514 1.81892C6.28032 1.81892 5.94003 1.96277 5.68914 2.21881C5.43825 2.47486 5.2973 2.82213 5.2973 3.18423V7.28016C5.2973 7.64226 5.43825 7.98954 5.68914 8.24558C5.94003 8.50163 6.28032 8.64547 6.63514 8.64547H14.6622C15.017 8.64547 15.3573 8.50163 15.6082 8.24558C15.859 7.98954 16 7.64226 16 7.28016V3.18423C16 2.82213 15.859 2.47486 15.6082 2.21881C15.3573 1.96277 15.017 1.81892 14.6622 1.81892H13.8782C13.5234 1.81885 13.1832 1.67495 12.9323 1.41889L12.3785 0.853649C12.1276 0.597586 11.7874 0.453691 11.4326 0.453613H9.86468C9.50989 0.453691 9.16966 0.597586 8.91882 0.853649L8.36496 1.41889C8.11412 1.67495 7.7739 1.81885 7.41911 1.81892H6.63514ZM6.96959 3.18423C6.88089 3.18423 6.79582 3.14827 6.7331 3.08426C6.67037 3.02025 6.63514 2.93343 6.63514 2.84291C6.63514 2.75238 6.67037 2.66556 6.7331 2.60155C6.79582 2.53754 6.88089 2.50158 6.96959 2.50158C7.0583 2.50158 7.14337 2.53754 7.20609 2.60155C7.26882 2.66556 7.30405 2.75238 7.30405 2.84291C7.30405 2.93343 7.26882 3.02025 7.20609 3.08426C7.14337 3.14827 7.0583 3.18423 6.96959 3.18423ZM12.9899 4.89087C12.9899 5.52455 12.7432 6.13227 12.3041 6.58035C11.8651 7.02843 11.2696 7.28016 10.6486 7.28016C10.0277 7.28016 9.43222 7.02843 8.99316 6.58035C8.5541 6.13227 8.30743 5.52455 8.30743 4.89087C8.30743 4.25719 8.5541 3.64946 8.99316 3.20139C9.43222 2.75331 10.0277 2.50158 10.6486 2.50158C11.2696 2.50158 11.8651 2.75331 12.3041 3.20139C12.7432 3.64946 12.9899 4.25719 12.9899 4.89087ZM12.321 4.89088C12.321 5.34351 12.1448 5.7776 11.8312 6.09766C11.5175 6.41771 11.0922 6.59752 10.6487 6.59752C10.2052 6.59752 9.7798 6.41771 9.46618 6.09766C9.15256 5.7776 8.97637 5.34351 8.97637 4.89088C8.97637 4.43826 9.15256 4.00417 9.46618 3.68411C9.7798 3.36405 10.2052 3.18425 10.6487 3.18425C11.0922 3.18425 11.5175 3.36405 11.8312 3.68411C12.1448 4.00417 12.321 4.43826 12.321 4.89088ZM1.10328 6.43891C0.493956 6.43891 0 6.93287 0 7.54219C0 8.15152 0.493956 8.64547 1.10328 8.64547H3.00483C3.61415 8.64547 4.10811 8.15152 4.10811 7.54219C4.10811 6.93287 3.61415 6.43891 3.00483 6.43891H1.10328ZM2.05408 11.183C2.05408 10.5737 2.54803 10.0797 3.15736 10.0797H11.2433L9.83111 11.3063C9.10342 11.9383 8.17199 12.2863 7.20816 12.2863H3.15736C2.54803 12.2863 2.05408 11.7923 2.05408 11.183ZM12.5367 11.3697C12.7478 11.1543 13.09 11.1543 13.3011 11.3697L14.8981 12.9995C15.1092 13.2149 15.1092 13.5642 14.8981 13.7796L13.3011 15.4094C13.09 15.6248 12.7478 15.6248 12.5367 15.4094L10.9397 13.7796C10.7286 13.5642 10.7286 13.2149 10.9397 12.9995L12.5367 11.3697ZM13.9127 10.7456C13.3638 10.1855 12.474 10.1855 11.9251 10.7456L10.3281 12.3754C9.77929 12.9355 9.77929 13.8436 10.3281 14.4037L11.9251 16.0335C12.474 16.5936 13.3638 16.5936 13.9127 16.0335L15.5096 14.4037C16.0585 13.8436 16.0585 12.9355 15.5096 12.3754L13.9127 10.7456Z" fill="black"/>
</svg>
