<svg xmlns="http://www.w3.org/2000/svg" width="16" height="16" viewBox="0 0 16 16" fill="none"><path fill="#000" fill-rule="evenodd" d="M5.863 1.471c-.296 0-.58.12-.789.333a1.15 1.15 0 0 0-.326.805v3.413c0 .302.117.591.326.805.21.213.493.333.789.333h6.689c.296 0 .579-.12.788-.333a1.15 1.15 0 0 0 .327-.805V2.61a1.15 1.15 0 0 0-.327-.804 1.104 1.104 0 0 0-.788-.334h-.653c-.296 0-.58-.12-.789-.333L10.65.667A1.103 1.103 0 0 0 9.86.333H8.554c-.296 0-.58.12-.788.334l-.462.47a1.104 1.104 0 0 1-.788.334h-.653ZM6.14 2.61a.276.276 0 0 1-.197-.083.287.287 0 0 1 0-.403.276.276 0 0 1 .394 0 .287.287 0 0 1 0 .403.276.276 0 0 1-.197.083Zm5.017 1.422c0 .528-.205 1.035-.571 1.408a1.931 1.931 0 0 1-1.38.583c-.517 0-1.013-.21-1.38-.583a2.012 2.012 0 0 1-.57-1.408c0-.528.205-1.034.57-1.408a1.931 1.931 0 0 1 1.38-.583c.518 0 1.014.21 1.38.583.366.374.571.88.571 1.408Zm-.557 0c0 .377-.147.74-.408 1.006a1.38 1.38 0 0 1-.986.416c-.37 0-.724-.15-.985-.416a1.437 1.437 0 0 1-.408-1.006c0-.377.146-.739.408-1.005a1.38 1.38 0 0 1 .985-.417c.37 0 .724.15.986.417.261.266.408.628.408 1.005Zm-9.348 1.29a.92.92 0 1 0 0 1.84h1.584a.92.92 0 0 0 0-1.84H1.253Zm.792 3.954a.92.92 0 0 1 .92-.92h6.738L8.526 9.377a3.333 3.333 0 0 1-2.186.817H2.964a.92.92 0 0 1-.919-.92Zm8.736.155a.444.444 0 0 1 .637 0l1.33 1.358c.176.18.176.471 0 .65l-1.33 1.359a.444.444 0 0 1-.637 0L9.45 11.438a.466.466 0 0 1 0-.65l1.33-1.358Zm1.146-.52a1.155 1.155 0 0 0-1.656 0l-1.33 1.358a1.213 1.213 0 0 0 0 1.69l1.33 1.359a1.155 1.155 0 0 0 1.656 0l1.331-1.358a1.213 1.213 0 0 0 0-1.69l-1.33-1.359Z" clip-rule="evenodd"/></svg>
