<svg xmlns="http://www.w3.org/2000/svg" viewBox="0 0 512 512"><path d="M67 476V-28h186c36 0 65 3 90 9 24 7 44 16 60 28 15 11 27 26 34 42 7 17 10 36 10 57 0 11-1 22-5 32-3 11-8 21-15 30s-16 17-27 25c-11 7-24 14-40 19 34 8 59 22 75 40s24 42 24 70c0 22-4 42-12 60-9 19-21 35-37 49-16 13-36 24-60 32-23 8-50 11-81 11zm117-294h62c12 0 24-1 35-2 10-2 19-6 27-10 7-5 13-11 16-19 4-8 6-17 6-30 0-11-1-21-4-29s-8-14-14-19c-7-4-15-8-24-10-10-2-21-3-35-3h-69zm0 206h83c15 0 28-2 38-6 9-4 17-9 23-15 5-6 9-13 11-21s3-16 3-24c0-9-1-18-4-25-2-7-6-14-12-19s-14-9-24-12c-9-2-21-4-36-4h-82z"/></svg>