<svg xmlns="http://www.w3.org/2000/svg" viewBox="0 0 512 512"><path d="M256 125c-64 0-112 48-112 109 0 38 19 70 51 92v58h125v-58c32-19 51-54 51-92-3-58-51-109-115-109zm42 185v55h-87v-55c-29-16-45-41-45-73 0-48 42-87 90-87s90 39 90 87c0 32-20 57-48 73zM256 90c3 0 10-4 10-10v-90c0-6-4-9-10-9-3 0-10 3-10 9v87c0 9 7 13 10 13zm83 12l48-73c3-3 3-10 0-13s-9 0-13 3l-48 74c-3 3-3 9 0 13 4 3 10 0 13-4zm141 7c-3-3-6-7-13-3l-77 41c-3 3-6 10-3 13s7 6 13 3l77-41c3-4 6-7 3-13zm-307-7c3 4 9 7 13 4 3-4 3-10 0-13l-48-74c-4-6-10-6-13-3s-3 10 0 13zm-128 7c-7-3-13-3-13 0-3 6 0 9 3 13l77 41c6 3 10 3 13-3 3-3 0-10-3-13zm275 285H192v35c0 19 16 32 32 32v16h64v-16c16 0 29-13 29-29v-38z"/></svg>