<svg viewBox="0 0 512 512" xmlns="http://www.w3.org/2000/svg"><path d="m445.80273 56.996094c-126.74933.0028-253.49876-.0069-380.248042.01172-22.530291 2.718871-38.158694 18.671975-37.839844 39.888672.0036 105.392914-.0085 210.786044.01292 316.178824 2.664007 22.57046 18.647075 38.25228 39.889029 37.9286 126.450357-.003 252.900857.007 379.351117-.0116 22.59362-2.50826 38.3561-18.69231 38.03601-39.88836-.00066-105.39111.009-210.78238-.0141-316.173373-2.61333-22.267761-18.20963-37.929138-39.18708-37.934441zm-379.230464 34.457031c126.657754.0028 253.315734-.0069 379.973354.01171 5.24232 1.269893 3.90388 6.06231 4.0013 10.022665-.003 103.68601.007 207.37225-.0117 311.05812-1.27108 5.24202-6.06174 3.90387-10.02266 4.0013-124.77911-.003-249.55844.007-374.337418-.0116-5.217882-1.25983-3.903003-5.9801-4.003205-9.92278.0027-103.71935-.0067-207.43891.0116-311.158122.0091-1.980636 1.608777-3.826098 3.619104-3.951152.255527-.03488.512198-.0437.769688-.0501zm32.035156 56.187495 79.541018 103.78126-78.10547 101.61914 26.81836 21.63476 95.53125-123.2207-96.9336-125.4082zm135.416018 230.19532h162.60547v-34.45703h-162.60547z"/></svg>