<svg xmlns="http://www.w3.org/2000/svg" viewBox="0 0 512 512"><path d="M278 61V26H0v48h278zm0 51V99H0v48h243c13-9 23-19 35-25zM0 170v48h198c7-16 16-32 26-48zm192 70H0v48h189v-13c0-9 0-22 3-35zM0 314v48h208c-6-16-13-32-16-48zm224 70H0v48h278c-22-13-38-29-54-48zm134-253c-76 0-137 64-137 144s61 144 137 144c77 0 138-64 138-144s-61-144-138-144zm7 227v26h-16v-26c-16 0-32-6-42-12l7-16c9 6 22 12 38 12 19 0 32-9 32-25s-10-23-29-32c-25-10-45-23-45-45s16-38 39-42v-28h16v25c16 0 25 3 35 10l-6 16c-7-3-16-10-32-10-20 0-29 13-29 23 0 12 9 19 32 28 25 10 41 26 41 48 0 23-16 42-41 48z"/></svg>