<svg xmlns="http://www.w3.org/2000/svg" viewBox="0 0 512 512"><path d="M70 260c0-9 4-16 10-21 7-4 17-7 31-7l15-1v-5c0-5-1-9-4-12-2-3-6-4-12-4-4 0-9 0-13 2-4 1-8 3-12 4l-6-13c5-3 10-4 16-6 6-1 11-2 16-2 11 0 20 3 26 8 5 5 8 12 8 23v60h-13l-4-13h-1c-4 6-8 9-13 11-4 2-10 3-16 3-9 0-16-2-21-7-4-5-7-11-7-20zm19 0c0 4 2 7 4 10 2 2 6 3 11 3 6 0 12-2 16-6s6-9 6-16v-8l-11 1c-9 0-15 2-20 4-4 3-6 7-6 12zm83 26V161h19v29c0 3 0 6-1 10v9h1c6-9 14-14 26-14 11 0 20 4 26 12s9 20 9 34c0 15-3 26-9 34s-15 12-26 12-20-4-26-12h-2l-3 11zm19-45c0 11 1 19 5 24 3 4 9 7 17 7 6 0 11-3 15-8 3-5 5-13 5-23 0-20-7-30-21-30-7 0-13 2-16 6-3 5-5 12-5 23v1zm78 1c0-15 4-27 11-35s17-12 31-12c10 0 18 2 26 6l-6 15c-8-3-15-5-20-5-15 0-23 10-23 31 0 10 2 17 6 22s9 7 17 7 16-2 23-6v17c-3 2-7 3-10 4-4 1-9 1-14 1-14 0-24-4-31-11-7-8-10-20-10-34zm243 125H0V81h512v286zM33 334h446V114H33z"/></svg>