<svg xmlns="http://www.w3.org/2000/svg" viewBox="0 0 512 512"><path d="M515 80l-3-26H54v215l32-32V112h397v240H179l-32 32h368zm-365-6c4 0 10 3 10 9 0 7-6 10-10 10-3 0-9-3-9-10 0-6 3-9 9-9zm-28 0c6 0 9 3 9 9 0 7-3 10-9 10-7 0-10-3-10-10 0-6 3-9 10-9zm-29 0c6 0 9 3 9 9 0 7-3 10-9 10-7 0-10-3-10-10 0-6 7-9 10-9zm208 86h112v22H301zm0 35h150v23H301zm0 39h131v22H301zm0 32h112v22H301zm-125 25c3 0 3 0 0 0h16c35 0 67-29 67-67 0-6 0-13-3-16l-32 38-38-9-10-39 35-35c-6 0-9-3-16-3-38 0-67 29-67 67 0 7 0 16 3 23L13 368c-13 13-16 35-3 48 12 13 35 10 48-3l22-23z"/></svg>