<svg xmlns="http://www.w3.org/2000/svg" viewBox="0 0 512 512"><path d="M448 290c-28-29-57-44-86-44-30 0-53 15-68 30l-6-7 13-18 63-39 90-146v-98L258 228 62-32v98l89 146 61 39 14 19-6 7c-15-15-38-31-68-31s-59 15-87 44c-48 51-48 108-34 142 13 30 43 48 70 48 13 0 56-30 58-33l23-34 75-102 78 105 23 34c2 1 42 30 56 30 27 0 54-18 66-48 15-34 16-91-32-142zM118 417c-16 19-33 16-42-4-8-20-7-56 25-89 18-19 35-29 50-29 17 0 30 11 38 20l-23 34-9 12v1zm319-4c-5 11-12 18-20 18-6 0-14-5-20-12l-39-55v-3l-28-36-6-10c8-9 22-20 38-20 15 0 32 10 50 29 32 33 34 69 25 89z"/></svg>