<svg width="16" height="16" viewBox="0 0 16 16" fill="none" xmlns="http://www.w3.org/2000/svg">
<path fill-rule="evenodd" clip-rule="evenodd" d="M9.92724 1.03835C11.3117 -0.346116 13.5632 -0.346116 14.9617 1.03835C16.3461 2.42281 16.3461 4.6883 14.9617 6.07276C13.5632 7.45723 11.3257 7.45723 9.92724 6.07276C8.54277 4.67431 8.54277 2.42281 9.92724 1.03835ZM12.8688 1.03835H12.1276C11.9178 1.03835 11.8899 1.16421 11.8899 1.23413V1.30405L12.0437 4.08697C12.0717 4.28275 12.1556 4.3247 12.3094 4.3247H12.701C12.8548 4.3247 12.9387 4.28275 12.9527 4.07298L13.1065 1.38796L13.1205 1.30405V1.23413C13.1205 1.16421 13.0925 1.03835 12.8688 1.03835ZM11.806 5.52737C11.806 5.90495 12.1136 6.21261 12.5052 6.21261C12.8828 6.21261 13.2044 5.90495 13.2044 5.52737C13.2044 5.1358 12.8968 4.82814 12.5052 4.82814C12.1136 4.82814 11.806 5.1358 11.806 5.52737Z" fill="black"/>
<path fill-rule="evenodd" clip-rule="evenodd" d="M8.88856 6.22222C8.33062 5.47941 8 4.5561 8 3.55556L4.74074 3.55556V1.77778H1.8963V3.55556H0V16H14.2222V7.63019C13.922 7.76136 13.6045 7.86032 13.2741 7.92271V15.1111H0.948148V6.22222H8.88856ZM2.84444 2.66667H3.79259V4.44444H2.84444V2.66667Z" fill="black"/>
<path d="M12.3259 7.99846C11.6446 7.98062 11.0014 7.80943 10.4296 7.51814V8.88889H12.3259V7.99846Z" fill="black"/>
<path d="M6.63704 8.88889H4.74074V7.11111H6.63704V8.88889Z" fill="black"/>
<path d="M9.48148 8.88889H7.58519V7.11111H9.48148V8.88889Z" fill="black"/>
<path d="M1.8963 11.5556V9.77778H3.79259V11.5556H1.8963Z" fill="black"/>
<path d="M6.63704 11.5556H4.74074V9.77778H6.63704V11.5556Z" fill="black"/>
<path d="M9.48148 11.5556H7.58519V9.77778H9.48148V11.5556Z" fill="black"/>
<path d="M10.4296 11.5556V9.77778H12.3259V11.5556H10.4296Z" fill="black"/>
<path d="M1.8963 14.2222V12.4444H3.79259V14.2222H1.8963Z" fill="black"/>
<path d="M6.63704 14.2222H4.74074V12.4444H6.63704V14.2222Z" fill="black"/>
<path d="M9.48148 14.2222H7.58519V12.4444H9.48148V14.2222Z" fill="black"/>
</svg>
