<svg xmlns="http://www.w3.org/2000/svg" viewBox="0 0 512 512"><path d="M416 71H96c0 1-1 2-1 3v372c0 19 12 34 26 34h269c15 0 27-15 27-34V74c0-1-1-2-1-3zM178 422c0 13-8 24-18 24s-18-11-18-24V139c0-13 8-24 18-24s18 11 18 24zm97 0c0 13-8 24-17 24-10 0-18-11-18-24V139c0-13 8-24 18-24 9 0 17 11 17 24zm95 0c0 13-8 24-18 24s-18-11-18-24V139c0-13 8-24 18-24s18 11 18 24zm60-385c0-13-10-23-23-23H105c-13 0-23 10-23 23 0 6 3 11 6 16h336c3-5 6-10 6-16zM238-8h36c7 0 12-5 12-12s-5-12-12-12h-36c-7 0-12 5-12 12s5 12 12 12z"/></svg>