<svg width="14" height="16" viewBox="0 0 14 16" fill="none" xmlns="http://www.w3.org/2000/svg">
<path fill-rule="evenodd" clip-rule="evenodd" d="M0.874939 14.3158H13.1249C13.357 14.3158 13.5796 14.4045 13.7437 14.5624C13.9078 14.7204 13.9999 14.9346 13.9999 15.1579C13.9999 15.3812 13.9078 15.5954 13.7437 15.7534C13.5796 15.9113 13.357 16 13.1249 16H0.874939C0.642875 16 0.420315 15.9113 0.256221 15.7534C0.0921264 15.5954 -6.10352e-05 15.3812 -6.10352e-05 15.1579C-6.10352e-05 14.9346 0.0921264 14.7204 0.256221 14.5624C0.420315 14.4045 0.642875 14.3158 0.874939 14.3158ZM7.87494 9.41053L10.7126 6.68042L11.9498 7.87116L6.99994 12.6349L2.05006 7.87116L3.28731 6.68042L6.12494 9.41053V0H7.87494V9.41053Z" fill="black"/>
</svg>
