<svg xmlns="http://www.w3.org/2000/svg" viewBox="0 0 512 512">
  <path style=" stroke:none;fill-rule:evenodd;fill:rgb(0%,0%,0%);fill-opacity:1;" d="M 220.71875 145.367188 L 35.273438 145.367188 C 25.675781 145.367188 16.472656 149.023438 9.6875 155.535156 C 2.902344 162.046875 -0.910156 170.878906 -0.910156 180.089844 L -0.910156 457.890625 C -0.910156 467.101562 2.902344 475.933594 9.6875 482.445312 C 16.472656 488.957031 25.675781 492.613281 35.273438 492.613281 L 469.464844 492.613281 C 479.058594 492.613281 488.265625 488.957031 495.054688 482.445312 C 501.835938 475.933594 505.652344 467.101562 505.652344 457.890625 L 505.652344 249.679688 C 495.246094 261.734375 483.046875 272.25 469.464844 280.816406 L 469.464844 457.890625 L 35.273438 457.890625 L 35.273438 195.890625 L 242.058594 333.226562 C 245.082031 335.246094 248.683594 336.324219 252.371094 336.324219 C 256.058594 336.324219 259.65625 335.246094 262.683594 333.226562 L 321.476562 294.175781 C 309.035156 289.199219 297.371094 282.730469 286.707031 275.007812 L 252.371094 297.804688 L 75.078125 180.089844 L 224.277344 180.089844 C 221.941406 169.320312 220.710938 158.144531 220.710938 146.691406 C 220.710938 146.25 220.710938 145.804688 220.71875 145.367188 Z M 220.71875 145.367188 "/>
  <path style=" stroke:none;fill-rule:nonzero;fill:rgb(0%,0%,0%);fill-opacity:1;" d="M 381.703125 19.089844 C 310.277344 19.089844 252.371094 76.835938 252.371094 148.046875 C 252.371094 219.261719 310.277344 277 381.703125 277 C 453.125 277 511.03125 219.261719 511.03125 148.046875 C 511.03125 76.835938 453.125 19.089844 381.703125 19.089844 Z M 372.460938 85.875 C 372.460938 84.601562 373.5 83.566406 374.777344 83.566406 L 388.625 83.566406 C 389.902344 83.566406 390.9375 84.601562 390.9375 85.875 C 390.9375 116.445312 390.9375 133.589844 390.9375 164.167969 C 390.9375 165.433594 389.902344 166.46875 388.625 166.46875 L 374.777344 166.46875 C 373.5 166.46875 372.460938 165.433594 372.460938 164.167969 Z M 381.703125 212.527344 C 378.074219 212.453125 374.621094 210.960938 372.082031 208.382812 C 369.546875 205.800781 368.125 202.324219 368.125 198.707031 C 368.125 195.09375 369.546875 191.621094 372.082031 189.035156 C 374.621094 186.453125 378.074219 184.96875 381.703125 184.890625 C 385.328125 184.96875 388.78125 186.453125 391.320312 189.035156 C 393.855469 191.621094 395.273438 195.09375 395.273438 198.707031 C 395.273438 202.324219 393.855469 205.800781 391.320312 208.382812 C 388.78125 210.960938 385.328125 212.453125 381.703125 212.527344 Z M 381.703125 212.527344 "/>
</svg>
