<svg xmlns="http://www.w3.org/2000/svg" viewBox="0 0 16 16"><path d="M16 8c0 4.418-3.582 8-8 8s-8-3.582-8-8 3.582-8 8-8 8 3.582 8 8Zm-8.191 5.854c.064.195.312.195.376 0l1.948-6.081c.044-.138-.051-.291-.191-.291H6.045c-.14 0-.235.146-.191.291h.007Zm-1.35-.285c.14.188.414.021.344-.208L4.982 7.634c-.025-.09-.102-.145-.191-.145h-2.54c-.172 0-.261.215-.153.354Zm2.738-.215c-.07.229.197.396.344.208l4.361-5.726c.108-.139.013-.354-.153-.354h-2.54c-.083 0-.159.055-.191.146Zm.165-9.208c-.031-.083-.101-.139-.184-.139H6.822c-.083 0-.159.056-.185.139l-.764 2.175c-.05.139.045.292.185.292h3.884c.14 0 .235-.153.185-.292Zm-4.38 2.328.764-2.175c.051-.139-.045-.292-.185-.292H3.62c-.121 0-.242.09-.319.174L2.034 6.28c-.089.145.007.34.166.34h2.597c.083 0 .16-.056.185-.139Zm8.984-.202-1.267-2.098C12.616 4.083 12.501 4 12.38 4h-1.941c-.14 0-.236.153-.185.292l.764 2.175c.032.083.102.139.185.139H13.8v.007c.159 0 .255-.195.166-.341Z"/></svg>