<svg width="16" height="16" viewBox="0 0 16 16" fill="none" xmlns="http://www.w3.org/2000/svg">
<path fill-rule="evenodd" clip-rule="evenodd" d="M8 16C12.4183 16 16 12.4183 16 8C16 3.58172 12.4183 0 8 0C3.58172 0 0 3.58172 0 8C0 12.4183 3.58172 16 8 16ZM6.25434 6.63325L5.66343 8.17455V8.17947C5.64373 8.23856 5.58464 8.27796 5.52062 8.27796H3.51153C3.38842 8.27796 3.31455 8.14008 3.38349 8.03667L4.36342 6.54954C4.42251 6.49045 4.51607 6.42643 4.60963 6.42643H6.11153C6.21987 6.42643 6.29373 6.53477 6.25434 6.63325ZM3.43269 9.14448L6.8058 13.2021C6.91414 13.335 7.12588 13.2168 7.07171 13.0543L5.66337 8.99675C5.64368 8.93273 5.58459 8.89334 5.51565 8.89334H3.55087C3.41791 8.89334 3.34897 9.04599 3.43269 9.14448ZM9.05134 6.52475L9.64225 8.06604C9.68165 8.16453 9.60778 8.27286 9.49945 8.27286H6.49565C6.38732 8.27286 6.31345 8.16453 6.35285 8.06604L6.94376 6.52475C6.96346 6.46566 7.02255 6.42626 7.08656 6.42626H8.90854C8.97255 6.42626 9.02672 6.46566 9.05134 6.52475ZM6.34299 9.09527L7.84981 13.404C7.89906 13.5419 8.0911 13.5419 8.14035 13.404L9.64717 9.09527C9.68164 8.99678 9.60777 8.88845 9.49944 8.88845H6.48579C6.37746 8.88845 6.3036 8.99186 6.33807 9.09527H6.34299ZM12.6117 8.0316C12.6806 8.135 12.6068 8.27288 12.4836 8.27288V8.26796H10.4746C10.4105 8.26796 10.3564 8.22857 10.3317 8.16947L9.74084 6.62818C9.70144 6.5297 9.77531 6.42136 9.88364 6.42136H11.3855C11.4791 6.42136 11.5677 6.48045 11.6318 6.54447L12.6117 8.0316ZM10.3317 8.99186L8.92335 13.0494C8.86919 13.212 9.07601 13.3301 9.18926 13.1972L12.5624 9.13959C12.6461 9.0411 12.5722 8.88845 12.4442 8.88845H10.4794C10.4154 8.88845 10.3563 8.92785 10.3317 8.99186ZM8.0468 3.24031C8.19945 4.04789 8.31271 4.15623 9.12029 4.3138C9.13998 4.31873 9.15968 4.3335 9.15968 4.3532C9.1646 4.38274 9.14983 4.40736 9.12029 4.41229C8.31271 4.56494 8.20437 4.6782 8.0468 5.48578C8.04187 5.50547 8.0271 5.52517 8.0074 5.52517C7.97786 5.53009 7.95324 5.51532 7.94831 5.48578C7.79566 4.6782 7.6824 4.56986 6.87482 4.41229C6.85513 4.40736 6.83543 4.39259 6.83543 4.37289C6.83051 4.34335 6.84528 4.31873 6.87482 4.3138C7.6824 4.16115 7.79074 4.04789 7.94831 3.24031C7.95324 3.22062 7.96801 3.20092 7.98771 3.20092C8.01725 3.196 8.04187 3.21077 8.0468 3.24031ZM3.88581 5.41681C3.07823 5.25923 2.96498 5.1509 2.81232 4.34332C2.8074 4.31377 2.78278 4.299 2.75323 4.30392C2.73354 4.30392 2.71876 4.32362 2.71384 4.34332C2.55626 5.1509 2.44793 5.26415 1.64035 5.41681C1.61081 5.42173 1.59603 5.44635 1.60096 5.4759C1.60096 5.49559 1.62065 5.51037 1.64035 5.51529C2.44793 5.67287 2.56119 5.7812 2.71384 6.58878C2.71876 6.61832 2.74339 6.6331 2.77293 6.62817C2.79263 6.62817 2.8074 6.60848 2.81232 6.58878C2.9699 5.7812 3.07823 5.66794 3.88581 5.51529C3.91536 5.51037 3.93013 5.48575 3.92521 5.4562C3.92521 5.4365 3.90551 5.42173 3.88581 5.41681ZM13.2863 4.34332C13.4389 5.1509 13.5522 5.25923 14.3597 5.41681C14.3794 5.42173 14.3991 5.4365 14.3991 5.4562C14.4041 5.48575 14.3893 5.51037 14.3597 5.51529C13.5522 5.66794 13.4438 5.7812 13.2863 6.58878C13.2813 6.60848 13.2666 6.62817 13.2469 6.62817C13.2173 6.6331 13.1927 6.61832 13.1878 6.58878C13.0351 5.7812 12.9219 5.67287 12.1143 5.51529C12.0946 5.51037 12.0749 5.49559 12.0749 5.4759C12.07 5.44635 12.0847 5.42173 12.1143 5.41681C12.9219 5.26415 13.0302 5.1509 13.1878 4.34332C13.1927 4.32362 13.2075 4.30392 13.2272 4.30392C13.2567 4.299 13.2813 4.31377 13.2863 4.34332Z" fill="black"/>
</svg>
