<svg xmlns="http://www.w3.org/2000/svg" viewBox="0 0 512 512"><path d="M448 86L329-32H54v512h394zM100 434V14h210l92 92v328z"/><g aria-label="BCF" style="line-height:1.25" font-weight="700" font-size="121.691" font-family="Arial" letter-spacing="0" word-spacing="0" stroke-width="3.042"><path d="M142.65 305.176h32.152q9.547 0 14.21.965 4.719.9 8.395 3.86 3.731 2.96 6.2 7.916 2.47 4.89 2.47 11.004 0 6.628-3.073 12.162-3.018 5.534-8.23 8.3 7.352 2.51 11.302 8.56 3.95 6.048 3.95 14.22 0 6.435-2.578 12.549-2.524 6.048-6.968 9.716-4.39 3.604-10.864 4.44-4.06.515-19.587.644H142.65zm16.24 15.7v21.815h10.645q9.492 0 11.796-.321 4.17-.58 6.53-3.347 2.413-2.83 2.413-7.4 0-4.375-2.084-7.078-2.03-2.767-6.09-3.346-2.415-.322-13.882-.322zm0 37.517v25.225h15.034q8.779 0 11.138-.58 3.621-.772 5.87-3.732 2.305-3.024 2.305-8.043 0-4.248-1.755-7.208-1.756-2.96-5.103-4.311-3.292-1.351-14.375-1.351zM275.263 364.828l15.747 5.855q-3.621 15.444-12.07 22.973-8.396 7.465-21.344 7.465-16.021 0-26.336-12.806-10.315-12.87-10.315-35.135 0-23.552 10.37-36.55 10.37-13.063 27.269-13.063 14.759 0 23.976 10.231 5.487 6.05 8.23 17.375l-16.076 4.504q-1.426-7.336-5.98-11.583-4.5-4.247-10.973-4.247-8.944 0-14.54 7.53-5.542 7.528-5.542 24.388 0 17.889 5.487 25.482t14.265 7.593q6.475 0 11.138-4.826 4.664-4.826 6.694-15.186zM305.11 399.512v-94.336h55.142v15.958H321.35v22.33h33.578v15.958h-33.578v40.09z" style="-inkscape-font-specification:'Arial Bold'"/></g></svg>