<svg xmlns="http://www.w3.org/2000/svg" viewBox="0 0 512 512"><path d="M159 221h186v31H159zm1-61h186v32H160zm0-61h186v32H160zm290-13L332-32H57v512h393V86zM103 434V14h210l91 92v328H103zm92-117c-3-2-7-4-11-6-5-1-10-2-16-2h-30v93h17v-33h13c6 0 11-1 15-2 5-2 9-4 12-7 3-2 5-5 6-9 2-4 3-8 3-12 0-5-1-9-2-12-2-4-4-7-7-10zm-10 29c-1 2-2 4-3 5-2 1-4 3-6 3-2 1-5 2-8 2h-13v-34h13c3 0 6 1 8 1 2 1 4 2 6 4 1 1 2 3 3 5s1 4 1 6c0 3 0 5-1 8zm101-24c-4-4-9-7-15-10-5-2-12-3-19-3h-35v93h35c7 0 14-2 19-4 6-2 11-5 15-9s8-9 10-15 3-12 3-19c0-6-1-13-3-18-2-6-6-11-10-15zm-7 47c-1 4-3 7-5 10-3 3-6 5-10 7-3 1-7 2-12 2h-18v-65h18c5 0 9 0 12 2 4 1 7 4 10 6 2 3 4 7 5 11 2 4 3 8 3 13s-1 10-3 14zm92-46v-14h-58v93h17v-38h35v-14h-35v-27z"/></svg>