<svg xmlns="http://www.w3.org/2000/svg" viewBox="0 0 512 512"><path d="M193 379c-1 0-3 0-4 1s-2 2-4 3c-1 1-3 2-5 3-3 1-6 2-9 2-4 0-7-1-10-3-3-1-5-3-7-6-2-2-4-6-5-9-1-4-2-9-2-14s1-9 2-13 2-7 4-10c2-2 5-5 8-6s6-2 10-2 6 0 8 1 4 1 6 2c1 1 3 2 4 3 1 0 2 1 3 1s2-1 3-1 1-1 2-2l6-8c-4-5-9-8-14-10-6-2-12-4-19-4s-14 2-20 4c-6 3-10 6-14 10-4 5-7 10-9 16s-3 12-3 19c0 8 1 15 3 21 3 6 6 11 9 15 4 4 9 7 14 10 5 2 11 3 17 3 3 0 6 0 10-1 3 0 6-1 9-2 4-2 7-3 10-5s5-5 8-8l-7-8c-1-1-2-2-4-2zm81-22c-2-2-5-4-8-5-2-1-5-3-8-4s-6-2-9-2c-3-1-5-2-7-3s-4-2-5-4c-2-1-2-3-2-5 0-3 1-5 3-7 3-2 7-3 11-3 3 0 5 0 8 1 2 0 4 1 5 2 2 1 3 1 5 2 1 1 2 1 3 1s2 0 3-1c1 0 1-1 2-2l5-8c-3-3-8-6-13-8-6-2-12-4-18-4s-11 1-16 3c-4 1-8 3-11 6s-5 6-7 9-2 7-2 11 0 8 2 11c1 3 3 5 5 7s5 4 8 5c2 1 5 3 8 4s6 2 9 2c3 1 5 2 7 3s4 2 6 4c1 1 1 3 1 5v5l-3 3c-1 1-3 2-5 3-2 0-4 1-7 1s-6-1-8-1c-3-1-5-2-6-3-2-1-4-2-5-3-1 0-2-1-4-1-1 0-2 0-3 1s-2 1-3 2l-5 9c2 2 4 3 6 5 3 1 6 2 8 4 3 1 6 1 9 2 4 1 7 1 10 1 6 0 12-1 16-2 5-2 9-4 12-7 4-3 6-6 8-10s2-8 2-13c0-4 0-7-2-10-1-2-3-4-5-6zm92-48c-2 0-3 0-4 1-2 1-2 2-3 3l-18 51c-1 3-2 6-3 8-1 3-1 6-2 9-1-3-1-6-2-9-1-2-2-5-3-8l-18-51c0-1-1-2-2-3s-3-1-4-1h-19l37 95h21l38-95zm87-222L334-32H59v512h394V87h-1zM105 434V14h210l92 92v328H105z"/></svg>