<svg xmlns="http://www.w3.org/2000/svg" viewBox="0 0 512 512"><path d="M142 402l31-48-29-45h17c1 0 2 0 2 1 1 0 1 0 2 1l21 34v-2c1 0 1-1 1-1l20-31c1-1 2-2 3-2h17l-30 44 31 49h-18c-1 0-2-1-2-1l-2-2-22-36v2l-1 1-20 33c-1 0-1 1-2 2-1 0-2 1-3 1zm96 0v-93h17v78h37v15h-54zm59-12l5-8s1-1 2-1c0-1 1-1 2-1s2 0 3 1 3 2 5 3c1 1 3 2 6 3 2 1 5 1 8 1 5 0 8-1 11-3s4-6 4-10c0-2 0-4-2-6-1-2-3-3-4-4-3-1-5-2-7-3-3 0-6-1-8-2-3-1-5-2-8-3s-5-3-7-5-3-4-5-7c-1-3-2-6-2-10s1-7 2-10c2-4 4-6 6-9 3-2 6-4 10-6 4-1 8-2 13-2s10 1 15 3c5 1 9 4 12 7l-4 8-2 2h-2c-1 0-2 0-3-1-1 0-3-1-4-2s-3-1-5-2-4-1-7-1c-2 0-4 0-6 1s-3 1-5 2c-1 1-2 3-2 4-1 1-1 3-1 5s0 4 2 5c1 2 2 3 4 4s5 2 7 3c3 0 5 1 8 2s5 2 8 3c2 2 5 3 7 5s3 4 5 7c1 2 2 6 2 10s-1 8-3 11c-1 4-3 7-6 10s-6 5-10 6c-4 2-9 3-14 3-3 0-6-1-8-1l-9-3c-2-1-5-2-7-4-2-1-4-3-6-5zM157 221h185v31H157zm1-61h185v32H158zm0-61h185v32H158zm289-13L329-32H54v512h394V86zM100 434V14h210l92 92v328H100z"/></svg>