<svg width="24" height="24" viewBox="0 0 24 24" fill="none" xmlns="http://www.w3.org/2000/svg">
<path d="M18 14.125L15.5415 18.6875L14.2829 16.4062L13.0537 14.125H13.9902V10.4375H17.0049V14.125H18Z" fill="black"/>
<path d="M16.5659 8.71875L13.4634 5.4375H7.34634V18.5625H12.6439V20H6V4H14.0488L17.5024 7.71875L16.5659 8.71875Z" fill="black"/>
<path fill-rule="evenodd" clip-rule="evenodd" d="M9.2544 6.70666C9.35264 6.75706 9.45089 6.80746 9.52457 6.85786C9.59826 6.93347 9.64738 7.00907 9.67194 7.10988C9.72107 7.18548 9.72107 7.28629 9.72107 7.4123C9.72107 7.5131 9.72107 7.61391 9.67194 7.71472C9.64738 7.81552 9.57369 7.89113 9.50001 7.94153C9.42632 8.01714 9.35264 8.06754 9.22983 8.11794C9.13158 8.14315 8.98421 8.16835 8.83683 8.16835H8.54209V9H8.09998V6.65625H8.83683C9.00877 6.65625 9.13159 6.68146 9.2544 6.70666ZM9.20519 7.71472C9.22976 7.68952 9.25432 7.63912 9.27888 7.58871C9.30344 7.51311 9.30344 7.46271 9.30344 7.3871C9.30344 7.3367 9.30344 7.28629 9.27888 7.23589C9.25432 7.18549 9.22975 7.13508 9.20519 7.10988C9.15607 7.05948 9.10695 7.03428 9.05782 7.00908C9.02362 7.00908 8.99472 7.00365 8.96373 6.99783C8.92796 6.99111 8.88941 6.98388 8.83676 6.98388H8.54202V7.84073H8.83676C8.91815 7.84073 8.96583 7.82343 9.02169 7.80317C9.03326 7.79897 9.04518 7.79465 9.05782 7.79033C9.09057 7.79033 9.12332 7.76793 9.15607 7.74552C9.17244 7.73432 9.18882 7.72312 9.20519 7.71472Z" fill="black"/>
<path fill-rule="evenodd" clip-rule="evenodd" d="M11.3913 6.73185C11.5387 6.80746 11.6615 6.88306 11.7597 6.98387C11.858 7.08468 11.9316 7.21069 12.0053 7.3619C12.0545 7.4879 12.079 7.66431 12.079 7.81552C12.079 7.99194 12.0545 8.14315 12.0053 8.29435C11.9316 8.44556 11.858 8.57157 11.7597 8.67238C11.6615 8.77319 11.5387 8.84879 11.3913 8.89919C11.2439 8.9496 11.0965 9 10.9246 9H10.0649V6.65625H10.9246C11.0965 6.65625 11.2439 6.68145 11.3913 6.73185ZM11.5878 8.16834C11.5632 8.26915 11.5141 8.34475 11.4404 8.42036C11.3913 8.49596 11.3176 8.54636 11.2193 8.59677C11.1456 8.62197 11.0474 8.64717 10.9246 8.64717H10.4825V7.00906H10.9246C11.0228 7.00906 11.1456 7.00906 11.2193 7.05947C11.3176 7.08467 11.3913 7.16027 11.4404 7.21068C11.5141 7.28628 11.5632 7.38709 11.5878 7.4879V8.16834Z" fill="black"/>
<path d="M13.8475 7.00907V6.65625H12.3983V9H12.8404V8.04234H13.6755V7.68952H12.8404V7.00907H13.8475Z" fill="black"/>
</svg>
