<?xml version="1.0" encoding="UTF-8" standalone="no"?>
<!DOCTYPE svg PUBLIC "-//W3C//DTD SVG 1.1//EN" "http://www.w3.org/Graphics/SVG/1.1/DTD/svg11.dtd">
<svg version="1.1" xmlns="http://www.w3.org/2000/svg" xmlns:xlink="http://www.w3.org/1999/xlink" preserveAspectRatio="xMidYMid meet" viewBox="0 0 512 512" width="512" height="512"><defs><path d="M12 68.89C12 108.71 12 427.29 12 467.11C12 498.2 37.8 524 68.89 524C108.71 524 427.29 524 467.11 524C498.2 524 524 498.2 524 467.11C524 453.84 524 387.47 524 268L467.11 268L467.11 467.11L68.89 467.11L68.89 68.89L268 68.89L268 12L68.89 12C30.96 29.2 12 48.16 12 68.89ZM324.89 68.89L426.89 68.89L162.56 333.22L202.78 373.44L467.11 109.11L467.11 211.11L524 211.11L524 12L324.89 12L324.89 68.89Z" id="a4ClflbBbj"></path><path d="M12 20C12 25.6 12 70.4 12 76C12 80.37 15.63 84 20 84C25.6 84 70.4 84 76 84C80.37 84 84 80.37 84 76C84 74.13 84 64.8 84 48L76 48L76 76L20 76L20 20L48 20L48 12L20 12C14.67 14.42 12 17.09 12 20ZM56 20L70.34 20L33.17 57.17L38.83 62.83L76 25.66L76 40L84 40L84 12L56 12L56 20Z" id="aH6E9REk8"></path></defs><g><g><g><use xlink:href="#a4ClflbBbj" opacity="1" fill="#000000" fill-opacity="1"></use><g><use xlink:href="#a4ClflbBbj" opacity="1" fill-opacity="0" stroke="#000000" stroke-width="1" stroke-opacity="0"></use></g></g><g><use xlink:href="#aH6E9REk8" opacity="1" fill="#000000" fill-opacity="1"></use><g><use xlink:href="#aH6E9REk8" opacity="1" fill-opacity="0" stroke="#000000" stroke-width="1" stroke-opacity="0"></use></g></g></g></g></svg>