<svg xmlns="http://www.w3.org/2000/svg" viewBox="0 0 512 512"><path d="M512 327l-105-62v34H0v56h407v33zM76 91c2-2 4-3 5-5 0 7-1 15-1 26v92h23V62H84L42 95l12 14c12-10 20-16 22-18zm105 92l-2-2h-22c-2 15-3 31-7 49h16c8-19 12-35 15-47zm119 1h-68v-1l25-24c11-10 19-19 24-25s8-12 10-18c3-5 4-12 4-18 0-12-4-21-12-28s-19-10-32-10c-8 0-16 1-24 4-7 3-15 7-23 14l13 15c6-5 12-9 17-11s11-3 16-3c7 0 12 2 16 6 4 3 6 9 6 15 0 5-1 9-3 13-1 4-4 9-7 13-4 5-11 13-22 24l-37 37v17h97zm48-1l-1-2h-22c-2 15-4 31-8 49h17c8-19 11-35 14-47zm103 12c10-7 14-18 14-32 0-9-3-17-8-22-5-6-14-10-25-11v-1c9-2 17-6 22-12s8-14 8-23c0-10-4-19-12-25s-20-9-34-9c-17 0-32 4-45 14l11 16c7-4 13-7 18-9 5-1 10-2 15-2 8 0 14 1 18 5 4 3 6 8 6 14 0 16-12 23-34 23h-13v19h12c13 0 23 2 29 6 6 3 9 9 9 16 0 9-3 15-8 19-6 4-14 6-25 6-6 0-13 0-19-2-7-2-14-4-20-7v21c11 5 24 7 40 7 18 0 32-4 41-11z"/></svg>