<svg xmlns="http://www.w3.org/2000/svg" viewBox="0 0 512 512"><path d="M269 387c0-4-1-8-2-12s-1-7-2-10-3-7-5-10c-3-4-5-6-6-9l-8-8c-3-4-6-6-8-8-2-1-5-4-9-7s-7-5-9-6c-1-2-5-4-9-7-5-3-8-5-9-6-3 0-8-1-14-1-11 0-21 1-31 2-9 2-20 4-30 8-11 3-20 7-28 13-8 5-15 12-20 21s-8 19-8 31c0 13 4 24 10 34 7 11 16 19 27 24 11 6 22 11 34 13 12 3 24 5 37 5 11 0 22-1 32-4 10-2 19-6 28-11s16-12 22-21c5-9 8-19 8-31zm-35-247c0-11-1-23-4-36-4-13-8-25-14-37s-14-22-24-30-21-12-34-12c-18 0-31 7-41 20s-15 29-15 47c0 9 1 18 4 28 2 10 5 20 10 30 4 10 10 19 16 27s13 14 22 19 18 7 28 7c18 0 32-5 40-17 8-11 12-27 12-46zM197 5h125l-39 22h-38c13 9 24 21 31 36 7 16 11 32 11 48 0 15-2 27-6 38-5 11-10 20-16 26l-19 19c-7 5-12 11-16 17-5 6-7 13-7 20 0 5 2 9 5 14s7 9 12 14c5 4 11 9 17 14 6 4 12 10 18 15 6 6 12 13 17 19 5 7 9 15 12 25 3 9 5 19 5 30 0 30-13 57-40 81-29 25-69 37-120 37-11 0-23-1-34-3-12-2-23-5-35-9-12-5-22-10-31-17s-16-15-22-25c-6-11-9-22-9-35 0-12 4-25 11-39 6-12 15-22 27-31s26-16 42-21c15-4 30-8 44-10s28-3 43-4c-12-16-18-30-18-42v-7c1-2 1-4 2-6 0-1 1-3 2-6 1-2 1-4 2-6-8 1-14 2-20 2-29 0-53-10-73-28-20-19-31-43-31-71 0-26 9-50 28-71 18-21 40-35 66-41 18-4 36-5 54-5zm297 73v36h-73v73h-37v-73h-73V78h73V5h37v73z"/></svg>