<svg xmlns="http://www.w3.org/2000/svg" viewBox="0 0 512 512"><path d="M0 376V72h41v136h164V72h42v304h-42V238H41v138zm308-76l16-7c3-1 6-2 9-2 2 0 5 1 7 2s4 3 5 6c0 0 1 1 1 2 0 0 1 1 1 2l7 14c3 5 7 9 11 14 5 5 11 8 18 11 8 4 16 5 27 5s20-2 28-5 15-8 20-13c5-6 9-12 12-19s4-14 4-20c0-8-1-16-3-23-2-6-6-12-12-17s-13-9-23-12-23-4-39-4v-27c13-1 24-2 33-5 9-2 16-6 22-11s10-10 12-17c3-6 4-13 4-21 0-9-1-17-4-23-3-7-6-12-11-16-5-5-11-8-17-10-7-2-14-3-22-3-7 0-14 1-21 3-7 3-12 6-17 10s-10 9-13 14c-3 6-6 12-8 18-1 4-2 7-5 9-2 2-5 3-8 3h-3s-1 0-2-1l-20-3c2-14 6-26 11-37 6-10 13-19 22-27 9-7 19-12 30-16s23-6 36-6 25 2 36 6c11 3 21 9 29 16 8 6 14 15 18 24 5 10 7 21 7 32 0 10-1 19-4 26-2 8-6 14-10 20-5 6-10 11-17 15-6 4-14 7-22 9 20 6 35 14 44 27 10 12 15 27 15 46 0 14-3 26-8 38-5 11-13 20-22 28s-20 14-32 18c-12 5-25 7-39 7-17 0-30-2-42-6-11-4-21-10-29-17s-14-16-19-25c-5-10-10-21-13-32z"/></svg>