<svg xmlns="http://www.w3.org/2000/svg" viewBox="0 0 512 512"><path d="M117 18c7-7 16-13 25-19 10-6 20-11 31-16 10-4 22-8 35-10 13-3 26-4 41-4 20 0 39 3 55 8 17 6 31 13 43 23s21 23 27 37c7 14 10 30 10 48 0 17-2 33-8 46-5 13-11 24-19 33-8 10-17 18-26 25-10 7-18 13-27 20-8 6-15 12-21 17-5 6-8 13-9 21l-8 51h-58l-6-57v-6c0-11 2-19 7-27 5-7 12-14 19-21 8-7 16-13 25-19 8-7 16-13 24-21 7-7 13-15 18-24 5-10 7-21 7-33 0-9-1-16-4-23-4-6-8-12-13-17s-12-8-19-11c-8-2-16-3-25-3-13 0-24 1-33 4s-17 6-23 9c-7 4-12 7-16 10-5 3-9 5-12 5-8 0-14-4-18-11zm72 409c0-7 2-14 4-20 2-7 5-12 9-17 4-4 9-8 15-11 5-3 11-4 17-4 7 0 14 1 20 4s11 7 16 11c4 5 8 10 11 17 2 6 4 13 4 20 0 8-2 15-4 21-3 6-7 12-11 16-5 5-10 9-16 11-6 3-13 4-20 4-6 0-12-1-17-4-6-2-11-6-15-11-4-4-7-10-9-16s-4-13-4-21z"/></svg>