<svg xmlns="http://www.w3.org/2000/svg" viewBox="0 0 512 512"><path d="M21.276 139.317v243.805h472.546V139.317zm62.663 29.162h43.831v43.829H83.94zm61.638 0h43.829v43.829h-43.829zm59.58 0h43.831v43.829h-43.83zm61.638 0h43.829v43.829h-43.829zm58.897 1.37h43.828v43.828h-43.828zm61.635 0h43.831v43.828h-43.83zM105.171 231.77H149v43.83h-43.829zm61.636 0h43.831v43.83h-43.831zm59.582 0h43.829v43.83h-43.829zm61.636 0h43.828v43.83h-43.828zm58.896 1.37h43.831v43.829h-43.83zM83.94 297.228h43.831v43.831H83.94zm61.638 0H363.36v43.831H145.577zm241.75 1.37h43.831v43.831h-43.83z" fill="#1a1a1a"/><path style="line-height:normal;font-variant-ligatures:normal;font-variant-position:normal;font-variant-caps:normal;font-variant-numeric:normal;font-variant-alternates:normal;font-feature-settings:normal;text-indent:0;text-align:start;text-decoration-line:none;text-decoration-style:solid;text-decoration-color:#000;text-transform:none;text-orientation:mixed;white-space:normal;shape-padding:0;isolation:auto;mix-blend-mode:normal;solid-color:#000;solid-opacity:1" d="M457.579 41.665L22.567 435.963l37.277 35.457 435.012-394.3z" color="#000" font-weight="400" font-family="sans-serif" overflow="visible"/></svg>