<svg xmlns="http://www.w3.org/2000/svg" viewBox="0 0 512 512"><path d="M182 336h253c26 0 45-19 45-45V99c0-25-19-45-45-45H77c-26 0-45 20-45 45v192c0 26 19 45 45 45zM64 291V99c0-6 6-13 13-13h358c7 0 13 7 13 13v192c0 7-6 13-13 13H77c-7 0-13-6-13-13zm150 80v-9H13v16c0 9 6 16 16 16h451c10 0 16-7 16-16v-16H298v9m-138-96c0-51 42-93 96-93 51 0 96 42 96 93h58v-35h-32c-4-6-4-13-7-19l29-19-22-32-29 22c-7-6-13-10-16-16l16-29-35-19-16 29c-7-3-16-3-23-7v-32h-38v36c-7 0-13 0-19 3l-16-29-32 19 16 26c-10 3-16 9-23 16l-25-19-23 32 26 16c-3 6-7 16-10 22h-22v35z"/></svg>