<svg xmlns="http://www.w3.org/2000/svg" viewBox="0 0 512 512"><path d="M176 275H80c-18 0-32-15-32-32v-38c0-17 14-32 32-32h96c12 0 21 7 27 16h51c-7-36-39-64-78-64H80c-44 0-80 36-80 80v38c0 44 36 80 80 80h96c40 0 74-31 79-70h-49c-5 13-16 22-30 22zm256-150h-96c-39 0-71 28-78 64h51c6-9 15-16 27-16h96c18 0 32 15 32 32v32c0 18-14 32-32 32h-96c-12 0-21-6-27-16h-51c7 37 39 64 78 64h96c44 0 80-36 80-80v-32c0-44-36-80-80-80zm-94 128c17 0 30-14 30-32 0-17-13-32-30-32H173c-16 0-29 15-29 32 0 18 14 32 31 32h163z"/></svg>