<?xml version="1.0" encoding="UTF-8" standalone="no"?>
<svg version="1.1" xmlns="http://www.w3.org/2000/svg" xmlns:xlink="http://www.w3.org/1999/xlink" preserveAspectRatio="xMidYMid meet" viewBox="0 0 512 512" width="512" height="512"><defs><path d="M305.49 21.75C285.26 35.94 269.49 56.1 260.18 79.68C250.87 103.27 248.43 129.22 253.18 154.26C257.92 179.3 269.64 202.29 286.85 220.35C304.06 238.4 325.98 250.69 349.85 255.67C373.71 260.65 398.45 258.1 420.94 248.33C443.42 238.56 462.63 222.01 476.15 200.79C489.67 179.56 496.89 154.6 496.89 129.08C496.89 94.84 483.92 62.01 460.85 37.81C437.78 13.6 406.48 0 373.85 0C349.52 0 325.73 7.57 305.49 21.75ZM312.33 134.52L326.3 119.86L356.27 151.29L421.4 82.98L435.42 97.6L356.27 180.61L312.33 134.52Z" id="c5l6RvMSXm"></path><path d="M425.12 381.87C425.12 399.73 418.61 416.91 406.92 429.89C395.23 442.87 379.25 450.67 362.25 451.68C362 451.68 360.74 451.71 358.48 451.76C192.38 451.76 100.1 451.76 81.65 451.76C64.62 451.76 48.24 444.93 35.87 432.67C23.5 420.4 16.07 403.64 15.1 385.81C15.1 385.54 15.06 384.22 15 381.85C15 283.14 15 228.31 15 217.34C15 201.49 22.38 186.73 34.64 177.71C34.84 177.58 35.81 176.93 37.56 175.76C142.35 110.38 200.56 74.06 212.21 66.8C214.24 65.53 216.52 64.78 218.87 64.59C221.23 64.4 223.59 64.78 225.78 65.7C225.93 65.77 226.64 66.14 227.92 66.8C229.86 68.01 230.93 68.68 231.15 68.81C227.22 79.03 224.27 89.77 222.4 100.91C222.24 100.81 221.46 100.33 220.06 99.45L54.13 202.93L220.06 293.73C257.83 273.06 278.81 261.57 283 259.27C292.84 266.84 303.56 273.2 314.97 278.17C306.19 282.98 235.96 321.43 227.18 326.24C225.35 327.23 223.36 327.84 221.31 328.01C219.26 328.19 217.2 327.92 215.24 327.25C215.09 327.18 214.32 326.85 212.95 326.24L45.76 234.7C45.76 322.99 45.76 372.04 45.76 381.85C45.76 391.3 49.15 400.4 55.25 407.35C61.35 414.3 69.72 418.59 78.69 419.37C78.89 419.37 79.87 419.42 81.65 419.5C247.75 419.5 340.02 419.5 358.48 419.5C367.49 419.49 376.17 415.94 382.79 409.53C389.42 403.13 393.5 394.34 394.24 384.92C394.25 384.72 394.29 383.69 394.36 381.85C394.36 326.14 394.36 295.19 394.36 289C405 287.51 415.29 284.89 425.12 281.24C425.12 301.37 425.12 371.81 425.12 381.87Z" id="a4PYmIsQeI"></path><path d="M116.85 504.06C106.4 498.84 97.3 491.24 90.3 481.88C117.4 481.88 334.25 481.88 361.36 481.88C389.32 481.88 416.13 470.78 435.9 451.01C455.67 431.24 466.77 404.43 466.77 376.47C466.77 358.4 466.77 213.83 466.77 195.76C485.05 209.49 496.89 231.36 496.89 256C496.89 268.04 496.89 364.42 496.89 376.47C496.89 412.41 482.61 446.89 457.19 472.3C431.78 497.72 397.3 512 361.36 512C347.3 512 277.03 512 150.53 512C135.05 510.2 123.82 507.55 116.85 504.06Z" id="d4x8IoCxAy"></path></defs><g><g><g><use xlink:href="#c5l6RvMSXm" opacity="1" fill="#333333" fill-opacity="1"></use><g><use xlink:href="#c5l6RvMSXm" opacity="1" fill-opacity="0" stroke="#000000" stroke-width="1" stroke-opacity="0"></use></g></g><g><use xlink:href="#a4PYmIsQeI" opacity="1" fill="#333333" fill-opacity="1"></use><g><use xlink:href="#a4PYmIsQeI" opacity="1" fill-opacity="0" stroke="#000000" stroke-width="1" stroke-opacity="0"></use></g></g><g><use xlink:href="#d4x8IoCxAy" opacity="1" fill="#333333" fill-opacity="1"></use><g><use xlink:href="#d4x8IoCxAy" opacity="1" fill-opacity="0" stroke="#000000" stroke-width="1" stroke-opacity="0"></use></g></g></g></g></svg>