<svg width="10" height="12" viewBox="0 0 10 12" fill="none" xmlns="http://www.w3.org/2000/svg">
<path d="M5 2.625C3.91803 2.625 3.03279 3.46875 3.03279 4.5C3.03279 5.53125 3.91803 6.375 5 6.375C6.08197 6.375 6.96721 5.53125 6.96721 4.5C6.96721 3.46875 6.08197 2.625 5 2.625ZM8.93443 4.5C8.93443 4.24219 8.90984 4.00781 8.86066 3.77344L9.5 3.11719L8.56557 2.92969C8.34426 2.48438 8.04918 2.08594 7.65574 1.75781L7.77869 0.867188L6.91803 1.24219C6.47541 1.00781 5.98361 0.84375 5.46721 0.796875L5 0L4.53279 0.796875C4.01639 0.84375 3.52459 1.00781 3.08197 1.24219L2.22131 0.867188L2.34426 1.75781C1.95082 2.08594 1.65574 2.48438 1.43443 2.92969L0.5 3.11719L1.13934 3.77344C1.09016 4.00781 1.06557 4.24219 1.06557 4.5C1.06557 4.75781 1.09016 4.99219 1.13934 5.22656L0.5 5.88281L1.43443 6.07031C1.65574 6.51562 1.95082 6.91406 2.34426 7.24219L2.46721 7.35938L1.85246 12L5 9L8.14754 12L7.53279 7.35938L7.65574 7.24219C8.04918 6.91406 8.34426 6.51562 8.56557 6.07031L9.5 5.88281L8.86066 5.22656C8.90984 4.99219 8.93443 4.75781 8.93443 4.5ZM5 7.125C3.47541 7.125 2.2459 5.95312 2.2459 4.5C2.2459 3.04688 3.47541 1.875 5 1.875C6.52459 1.875 7.7541 3.04688 7.7541 4.5C7.7541 5.95312 6.52459 7.125 5 7.125Z" fill="#333333"/>
</svg>
