<svg height="512" viewBox="0 0 512 512" width="512" xmlns="http://www.w3.org/2000/svg"><path d="m235.875 101.32227 100.72778 79.0332-.44141-60.86328c23.13659.73788 37.00455 10.98752 39.00504 33.16882s4.71836 204.54797 4.71836 204.54797c-29.37044 10.15753-47.70629 27.50612-47.5757 60.67021s30.59599 60.71692 64.08456 60.87053c33.48858.15361 61.1051-29.64185 61.76857-58.98025.66348-29.3384-12.79095-51.46209-43.91415-61.70502 0 0-1.19223-201.97801-7.85241-231.43227-6.66018-29.45427-40.12229-43.090743-70.54286-43.899489l-.44922-60.515894zm-174.779828-1.29862c.150864 29.57707 17.36017 56.06187 47.234908 64.43143l-1.29492 191.86133c-29.296165 10.39833-46.487158 26.82563-46.289888 63.30668.197271 36.48105 36.713369 60.86945 65.601168 60.62955 28.8878-.23989 59.57587-28.61509 59.96256-59.90126.38668-31.28618-12.46396-52.64567-44.19572-63.2381.4006-64.24283.33418-128.48745.68945-192.73047 22.52072-7.20135 43.67994-30.84782 43.94056-62.54208.26062-31.694257-29.03958-60.771589-62.93381-61.190419-33.894227-.41883-62.865172 29.79627-62.714308 59.373339zm65.217328-24.965056c15.03882.470687 26.31439 13.676635 26.26445 27.945606-.0499 14.26897-9.99282 29.31808-27.21172 29.27119s-29.371506-13.38125-29.414546-29.12376c-.04304-15.742514 15.322996-28.563723 30.361816-28.093036zm25.48579 344.368276c-.51677 14.9946-14.01128 26.70158-27.78729 26.63085-13.77601-.0707-29.011453-11.12196-28.98562-27.07515.02583-15.9532 11.76572-30.13687 28.90423-30.18299 17.13851-.0461 28.38545 15.63269 27.86868 30.62729zm273.86966-.75504c-.19737 16.6479-13.36729 28.58635-28.97657 28.33208-15.60929-.25427-29.27678-13.76284-29.00027-29.53405s13.64733-27.63791 29.87373-27.64289c16.2264-.005 28.30048 12.19696 28.10311 28.84486z"/></svg>