<svg xmlns="http://www.w3.org/2000/svg" viewBox="0 0 512 512"><path d="M326 282H35V67c0-6 7-13 13-13h374c7 0 13 7 13 13v61h26V67c0-19-16-35-35-35H45c-19 0-35 16-35 35v240c0 19 16 35 35 35h281zm-35 80H179c-9 0-16 6-16 16 0 9 7 16 16 16h112c10 0 16-7 16-16 0-10-9-16-16-16zm205-199c-3-3-6-3-10-6H374c-6 0-9 3-16 6-3 3-6 10-6 16v218c0 13 10 22 22 22h106c13 0 22-9 22-22V179c0-6-3-13-6-16zm-10 215H371V186h115zm-76-208l3-4h25c4 0 4 0 4 4 0 3-4 3-4 3h-22c-3 0-6 0-6-3zm19 240c-3 0-7 0-7-4-3-3-3-6-3-9 0-7 7-13 13-13s13 6 13 13c0 3-3 6-3 9-7 0-10 4-13 4zm13-237c3 0 3 0 3-3 0-4-3-4-3-4h-26c-3 0-3 0-3 4 0 3 3 3 3 3"/></svg>