<svg width="24" height="24" viewBox="0 0 24 24" fill="none" xmlns="http://www.w3.org/2000/svg">
<path d="M13.6982 12.0013C13.6982 11.0623 12.9481 10.3126 12.0091 10.3126C11.0702 10.3126 10.3205 11.0623 10.3205 12.0013C10.3205 12.9402 11.0702 13.6903 12.0091 13.6903C12.9481 13.6903 13.6982 12.9402 13.6982 12.0013Z" fill="black"/>
<path d="M8.50997 12.0013C8.50997 11.5899 8.18749 11.2678 7.77611 11.2678C7.36473 11.2678 7.04262 11.5899 7.04262 12.0013C7.04262 12.4127 7.36473 12.7352 7.77611 12.7352C8.18749 12.7352 8.50997 12.4127 8.50997 12.0013Z" fill="black"/>
<path d="M16.9574 12.0013C16.9574 11.5899 16.6349 11.2678 16.2235 11.2678C15.8122 11.2678 15.49 11.5899 15.49 12.0013C15.49 12.4127 15.8121 12.7352 16.2235 12.7352C16.6349 12.7352 16.9574 12.4127 16.9574 12.0013Z" fill="black"/>
<path fill-rule="evenodd" clip-rule="evenodd" d="M12 4C10.4178 4 8.87103 4.46919 7.55544 5.34824C6.23985 6.22729 5.21447 7.47672 4.60897 8.93853C4.00347 10.4003 3.84504 12.0089 4.15372 13.5607C4.4624 15.1126 5.22433 16.538 6.34315 17.6569C7.46197 18.7757 8.88743 19.5376 10.4393 19.8463C11.9911 20.155 13.5997 19.9965 15.0615 19.391C16.5233 18.7855 17.7727 17.7602 18.6518 16.4446C19.5308 15.129 20 13.5822 20 12C20 9.87827 19.1571 7.84344 17.6569 6.34315C16.1566 4.84285 14.1217 4 12 4ZM9.38431 11.2557C9.71105 10.1132 10.7653 9.27 12.0091 9.27C13.2438 9.27 14.2927 10.1005 14.6278 11.2301C14.917 10.6379 15.5248 10.2252 16.2235 10.2252C17.1983 10.2252 18 11.0265 18 12.0013C18 12.9761 17.1983 13.7778 16.2235 13.7778C15.5248 13.7778 14.917 13.3648 14.6278 12.7725C14.2927 13.9022 13.2438 14.733 12.0091 14.733C10.7653 14.733 9.71106 13.8894 9.38431 12.7469C9.10033 13.353 8.48494 13.7778 7.77611 13.7778C6.80131 13.7778 6 12.9761 6 12.0013C6 11.0265 6.80131 10.2252 7.77611 10.2252C8.48494 10.2252 9.10033 10.6497 9.38431 11.2557Z" fill="black"/>
</svg>
