<svg width="18" height="10" viewBox="0 0 18 10" fill="none" xmlns="http://www.w3.org/2000/svg">
<path d="M9.01372 0.899994C7.14796 0.899994 5.56658 2.16485 5.07646 3.87859C4.65049 2.9696 3.7274 2.33277 2.66417 2.33277C1.20197 2.33277 0 3.53474 0 4.99694C0 6.45914 1.20197 7.66166 2.66417 7.66166C3.7274 7.66166 4.65049 7.02444 5.07646 6.11529C5.56658 7.82916 7.14796 9.09444 9.01372 9.09444C10.8657 9.09444 12.439 7.84824 12.9417 6.1537C13.3755 7.04221 14.2872 7.66166 15.3353 7.66166C16.7975 7.66166 18 6.45914 18 4.99694C18 3.53474 16.7975 2.33277 15.3353 2.33277C14.2872 2.33277 13.3755 2.95183 12.9417 3.84018C12.439 2.14577 10.8657 0.899994 9.01372 0.899994ZM9.01372 2.46392C10.4222 2.46392 11.5473 3.58851 11.5473 4.99694C11.5473 6.40537 10.4222 7.53051 9.01372 7.53051C7.60529 7.53051 6.48071 6.40537 6.48071 4.99694C6.48071 3.58851 7.60529 2.46392 9.01372 2.46392ZM2.66417 3.8967C3.28123 3.8967 3.76495 4.37987 3.76495 4.99694C3.76495 5.61401 3.28123 6.09773 2.66417 6.09773C2.0471 6.09773 1.56393 5.61401 1.56393 4.99694C1.56393 4.37987 2.0471 3.8967 2.66417 3.8967ZM15.3353 3.8967C15.9524 3.8967 16.4361 4.37987 16.4361 4.99694C16.4361 5.61401 15.9524 6.09773 15.3353 6.09773C14.7182 6.09773 14.235 5.61401 14.235 4.99694C14.235 4.37987 14.7182 3.8967 15.3353 3.8967Z" fill="black"/>
</svg>
