<svg width="16" height="16" viewBox="0 0 16 16" fill="none" xmlns="http://www.w3.org/2000/svg">
<path fill-rule="evenodd" clip-rule="evenodd" d="M8 0C6.41775 0 4.87103 0.469192 3.55544 1.34824C2.23985 2.22729 1.21447 3.47672 0.608967 4.93853C0.00346625 6.40034 -0.15496 8.00887 0.153721 9.56072C0.462403 11.1126 1.22433 12.538 2.34315 13.6569C3.46197 14.7757 4.88743 15.5376 6.43928 15.8463C7.99113 16.155 9.59966 15.9965 11.0615 15.391C12.5233 14.7855 13.7727 13.7602 14.6518 12.4446C15.5308 11.129 16 9.58225 16 8C16 5.87827 15.1571 3.84344 13.6569 2.34315C12.1566 0.842854 10.1217 0 8 0ZM5.38431 7.25573C5.71105 6.11324 6.76531 5.27 8.00915 5.27C9.24378 5.27 10.2927 6.10052 10.6278 7.23012C10.917 6.63789 11.5248 6.22519 12.2235 6.22519C13.1983 6.22519 14 7.0265 14 8.0013C14 8.9761 13.1983 9.77777 12.2235 9.77777C11.5248 9.77777 10.917 9.36481 10.6278 8.77247C10.2927 9.90216 9.24378 10.733 8.00915 10.733C6.76531 10.733 5.71106 9.88944 5.38431 8.74686C5.10033 9.35296 4.48494 9.77777 3.77611 9.77777C2.80131 9.77777 2 8.9761 2 8.0013C2 7.0265 2.80131 6.22519 3.77611 6.22519C4.48494 6.22519 5.10033 6.64974 5.38431 7.25573ZM9.69819 8.0013C9.69819 7.06234 8.9481 6.31262 8.00915 6.31262C7.0702 6.31262 6.32047 7.06234 6.32047 8.0013C6.32047 8.94025 7.0702 9.69034 8.00915 9.69034C8.9481 9.69034 9.69819 8.94025 9.69819 8.0013ZM4.50997 8.0013C4.50997 7.58992 4.18749 7.26781 3.77611 7.26781C3.36473 7.26781 3.04262 7.58992 3.04262 8.0013C3.04262 8.41267 3.36473 8.73516 3.77611 8.73516C4.18749 8.73516 4.50997 8.41267 4.50997 8.0013ZM12.9574 8.0013C12.9574 7.58992 12.6349 7.26781 12.2235 7.26781C11.8122 7.26781 11.49 7.58992 11.49 8.0013C11.49 8.41267 11.8121 8.73516 12.2235 8.73516C12.6349 8.73516 12.9574 8.41267 12.9574 8.0013Z" fill="black"/>
</svg>
