<?xml version="1.0" encoding="UTF-8"?>
<svg xmlns="http://www.w3.org/2000/svg" xmlns:xlink="http://www.w3.org/1999/xlink" viewBox="0 0 512 512" version="1.1" width="50px" height="50px">
<g id="surface1">
<path style=" fill-rule:evenodd;" d="M 30 5 L 23 9 L 22.996094 41.796875 L 22.996094 46 L 30 43 Z M 21 16 L 20.75 16.03125 L 20.25 16.101563 L 20.003906 16.140625 L 19.761719 16.179688 L 19.269531 16.265625 L 19.03125 16.3125 L 18.789063 16.359375 L 18.550781 16.410156 L 18.3125 16.464844 L 18.078125 16.519531 L 17.375 16.695313 L 17.144531 16.757813 L 16.917969 16.824219 L 16.6875 16.890625 L 16.464844 16.953125 L 16.238281 17.027344 L 16.015625 17.097656 L 15.796875 17.171875 L 15.574219 17.246094 L 15.355469 17.324219 L 15.140625 17.402344 L 14.921875 17.484375 L 14.707031 17.566406 L 14.496094 17.652344 L 14.28125 17.734375 L 14.074219 17.824219 L 13.867188 17.910156 L 13.6875 17.992188 C 13.679688 17.996094 13.671875 18 13.660156 18 L 13.660156 18.003906 C 13.652344 18.007813 13.644531 18.011719 13.636719 18.015625 L 13.457031 18.09375 L 13.253906 18.1875 L 13.050781 18.285156 L 12.855469 18.382813 L 12.457031 18.578125 L 12.265625 18.683594 L 12.070313 18.785156 L 11.6875 18.996094 L 11.5 19.105469 L 11.132813 19.324219 L 10.949219 19.4375 L 10.769531 19.546875 L 10.589844 19.660156 L 10.410156 19.78125 L 10.234375 19.894531 L 9.890625 20.136719 L 9.722656 20.253906 L 9.554688 20.378906 L 9.386719 20.5 L 9.222656 20.625 L 9.0625 20.75 L 8.898438 20.878906 L 8.429688 21.265625 L 8.125 21.53125 L 7.976563 21.664063 L 7.828125 21.800781 L 7.539063 22.074219 L 7.398438 22.210938 L 7.261719 22.347656 L 6.988281 22.628906 L 6.855469 22.769531 L 6.726563 22.914063 L 6.59375 23.058594 L 6.34375 23.347656 L 6.222656 23.496094 L 6.101563 23.640625 L 5.867188 23.9375 L 5.75 24.089844 L 5.640625 24.234375 L 5.421875 24.539063 L 5.316406 24.691406 L 5.214844 24.84375 L 5.113281 25 L 5.015625 25.152344 L 4.820313 25.464844 L 4.730469 25.617188 L 4.640625 25.773438 L 4.554688 25.933594 L 4.382813 26.246094 L 4.304688 26.40625 L 4.226563 26.5625 L 4.148438 26.722656 L 4.074219 26.886719 L 4.003906 27.046875 L 3.9375 27.203125 L 3.867188 27.367188 L 3.804688 27.53125 L 3.742188 27.691406 L 3.679688 27.855469 L 3.625 28.015625 L 3.515625 28.34375 L 3.46875 28.503906 L 3.421875 28.671875 L 3.375 28.832031 L 3.332031 29 L 3.292969 29.160156 L 3.257813 29.328125 L 3.21875 29.492188 L 3.1875 29.65625 L 3.15625 29.824219 L 3.085938 30.316406 L 3.0625 30.484375 L 3.046875 30.652344 L 3.03125 30.8125 L 3.023438 30.980469 L 3.011719 31.144531 L 3.007813 31.3125 L 3 31.476563 L 3 31.8125 L 3.007813 31.984375 L 3.011719 32.15625 L 3.019531 32.324219 L 3.03125 32.492188 L 3.078125 32.996094 L 3.101563 33.164063 L 3.121094 33.328125 L 3.148438 33.496094 L 3.175781 33.660156 L 3.203125 33.828125 L 3.238281 33.988281 L 3.273438 34.152344 L 3.351563 34.480469 L 3.390625 34.640625 L 3.53125 35.121094 L 3.582031 35.28125 L 3.691406 35.59375 L 3.75 35.75 L 3.9375 36.21875 L 4.148438 36.675781 L 4.296875 36.980469 L 4.378906 37.125 L 4.460938 37.277344 L 4.542969 37.421875 L 4.628906 37.574219 L 4.71875 37.71875 L 4.804688 37.863281 L 4.992188 38.152344 L 5.089844 38.296875 L 5.1875 38.4375 L 5.390625 38.71875 L 5.496094 38.855469 L 5.605469 38.996094 L 5.714844 39.128906 L 5.828125 39.265625 L 5.9375 39.402344 L 6.054688 39.535156 L 6.175781 39.671875 L 6.296875 39.800781 L 6.417969 39.933594 L 6.542969 40.0625 L 6.671875 40.191406 L 6.796875 40.320313 L 6.929688 40.449219 L 7.195313 40.699219 L 7.617188 41.0625 L 7.742188 41.167969 C 7.746094 41.171875 7.753906 41.179688 7.757813 41.183594 L 7.761719 41.183594 L 7.78125 41.199219 L 7.90625 41.300781 L 8.054688 41.421875 L 8.203125 41.535156 L 8.355469 41.652344 L 8.507813 41.765625 L 8.664063 41.878906 L 8.984375 42.105469 L 9.148438 42.214844 L 9.476563 42.425781 L 9.8125 42.636719 L 9.984375 42.738281 L 10.160156 42.84375 L 10.316406 42.929688 C 10.324219 42.933594 10.328125 42.9375 10.335938 42.941406 L 10.339844 42.941406 C 10.34375 42.945313 10.351563 42.949219 10.359375 42.953125 L 10.515625 43.042969 L 10.695313 43.140625 L 10.875 43.234375 L 11.0625 43.328125 L 11.246094 43.421875 L 11.433594 43.515625 L 11.625 43.609375 L 11.816406 43.695313 L 12.011719 43.78125 L 12.203125 43.871094 L 12.402344 43.953125 L 12.601563 44.039063 L 12.800781 44.121094 L 13.003906 44.203125 L 13.625 44.4375 L 13.839844 44.511719 L 14.050781 44.582031 L 14.265625 44.65625 L 14.480469 44.726563 L 14.699219 44.796875 L 14.921875 44.859375 L 15.140625 44.925781 L 15.363281 44.992188 L 15.589844 45.054688 L 15.816406 45.113281 L 16.277344 45.230469 L 16.511719 45.285156 L 16.746094 45.34375 L 16.980469 45.394531 L 17.457031 45.496094 L 17.941406 45.589844 L 18.1875 45.628906 L 18.4375 45.671875 L 18.683594 45.714844 L 18.9375 45.753906 L 19.1875 45.789063 L 19.441406 45.828125 L 19.695313 45.859375 L 19.953125 45.890625 L 20.214844 45.921875 L 20.472656 45.949219 L 20.734375 45.972656 L 21 46 L 21 40 C 20.523438 39.941406 20.0625 39.867188 19.609375 39.785156 C 19.160156 39.707031 18.726563 39.613281 18.300781 39.511719 C 17.875 39.410156 17.464844 39.300781 17.066406 39.179688 C 16.667969 39.058594 16.285156 38.929688 15.914063 38.792969 C 15.542969 38.65625 15.1875 38.507813 14.84375 38.355469 C 14.5 38.203125 14.171875 38.039063 13.859375 37.875 C 13.542969 37.707031 13.242188 37.53125 12.953125 37.351563 C 12.667969 37.171875 12.398438 36.984375 12.140625 36.792969 C 11.894531 36.605469 11.664063 36.417969 11.445313 36.222656 L 11.417969 36.199219 L 11.390625 36.171875 C 11.175781 35.980469 10.972656 35.78125 10.785156 35.578125 C 10.589844 35.367188 10.410156 35.152344 10.246094 34.933594 C 10.078125 34.714844 9.929688 34.492188 9.796875 34.269531 C 9.535156 33.820313 9.332031 33.363281 9.199219 32.898438 C 9.132813 32.667969 9.085938 32.4375 9.050781 32.207031 C 9.050781 32.203125 9.050781 32.203125 9.046875 32.199219 C 9.015625 31.964844 9 31.730469 9 31.5 C 9 31.257813 9.023438 31.015625 9.0625 30.769531 C 9.097656 30.527344 9.15625 30.28125 9.234375 30.035156 C 9.308594 29.789063 9.402344 29.542969 9.511719 29.296875 C 9.621094 29.050781 9.75 28.804688 9.894531 28.5625 C 10.039063 28.320313 10.199219 28.074219 10.375 27.835938 C 10.554688 27.597656 10.746094 27.359375 10.953125 27.125 C 11.160156 26.886719 11.382813 26.65625 11.621094 26.429688 C 11.859375 26.203125 12.109375 25.980469 12.375 25.765625 C 12.640625 25.546875 12.917969 25.332031 13.210938 25.125 C 13.503906 24.921875 13.804688 24.71875 14.125 24.527344 C 14.441406 24.335938 14.769531 24.148438 15.109375 23.96875 C 15.453125 23.789063 15.804688 23.617188 16.167969 23.457031 C 16.53125 23.296875 16.90625 23.144531 17.289063 23 C 17.671875 22.855469 18.066406 22.722656 18.46875 22.601563 C 18.875 22.480469 19.289063 22.367188 19.707031 22.265625 C 20.128906 22.164063 20.5625 22.078125 21 22 Z M 32 16 L 32 22 C 32.4375 22.074219 32.902344 22.1875 33.375 22.328125 C 33.84375 22.472656 34.3125 22.644531 34.765625 22.828125 C 35.214844 23.011719 35.640625 23.210938 36.019531 23.410156 C 36.402344 23.613281 36.738281 23.8125 37 24 L 33 27 L 47 29 L 47 17 L 42.5 20 L 42.378906 19.910156 L 42.253906 19.824219 L 42.128906 19.734375 L 42.003906 19.648438 L 41.875 19.5625 L 41.75 19.476563 L 41.621094 19.390625 L 41.488281 19.308594 L 41.359375 19.222656 L 41.222656 19.140625 L 41.09375 19.058594 L 40.953125 18.972656 L 40.820313 18.890625 L 40.683594 18.8125 L 40.542969 18.734375 L 40.402344 18.652344 L 40.121094 18.496094 L 39.972656 18.421875 L 39.683594 18.265625 L 39.535156 18.191406 L 39.386719 18.121094 L 39.234375 18.046875 L 39.085938 17.972656 L 38.933594 17.90625 L 38.777344 17.832031 L 38.621094 17.765625 L 38.464844 17.695313 L 37.984375 17.496094 L 37.820313 17.433594 L 37.65625 17.367188 L 37.488281 17.308594 L 37.324219 17.246094 L 37.15625 17.183594 L 36.8125 17.066406 L 36.640625 17.011719 L 36.464844 16.953125 L 36.285156 16.898438 L 36.109375 16.84375 L 35.933594 16.792969 L 35.75 16.738281 L 35.566406 16.6875 L 35.199219 16.59375 L 35.011719 16.546875 L 34.628906 16.453125 L 34.4375 16.410156 L 34.246094 16.371094 L 34.046875 16.328125 L 33.851563 16.292969 L 33.652344 16.253906 L 33.453125 16.21875 L 33.046875 16.148438 L 32.839844 16.113281 L 32.632813 16.082031 L 32.421875 16.054688 L 32.214844 16.027344 Z "/>
</g>
</svg>
