<svg xmlns="http://www.w3.org/2000/svg" viewBox="0 0 512 512"><path d="M244 291c-23 0-43-7-58-15l-10 41c13 7 36 14 59 15v33h34v-36c40-7 62-33 62-64s-17-50-58-65c-30-11-42-18-42-30 0-10 7-19 30-19 25 0 41 8 50 11l10-39c-11-5-27-10-50-11V81h-34v33c-38 7-59 31-59 62 0 34 25 51 62 64 26 8 37 17 37 30 0 14-13 21-33 21zM448 59C403 8 341-23 273-28 181-34 94 9 44 83L1 62l15 146 107-85-33-16c41-56 109-87 179-82 55 3 104 28 140 68 36 41 53 92 49 145-7 110-105 193-217 185-59-4-114-33-150-81l-41 31c44 60 113 97 188 103h18c133 0 245-101 255-234 4-67-18-132-63-183z"/></svg>