<svg xmlns="http://www.w3.org/2000/svg" viewBox="0 0 512 512"><path d="M2 352V99h20c4 0 7 3 8 7l3 22c8-10 18-17 28-23s22-9 36-9c10 0 20 2 29 6s16 11 23 19c6 8 11 18 14 30s5 26 5 41c0 14-2 27-6 39-3 12-9 23-16 31-7 9-15 16-25 21s-22 8-35 8c-11 0-21-2-29-6-9-4-16-9-22-17v84zm33-109c6 8 13 14 20 17s15 5 24 5c18 0 31-6 41-19 9-12 14-30 14-54 0-12-1-23-3-31-3-9-6-17-10-22-4-6-9-10-15-13-6-2-13-4-20-4-11 0-21 3-29 8s-15 12-22 21zm172 45V99h19c4 0 6 1 7 2 2 2 3 4 3 7l3 29c6-13 14-23 24-30 9-7 20-11 33-11 5 0 10 1 14 2 5 1 8 3 12 5l-4 23c-1 3-3 5-6 5-2 0-4-1-8-2s-9-2-15-2c-12 0-21 4-29 10-8 7-14 17-20 30v121zm137-98c0-13 2-26 6-37s10-21 17-30c8-8 17-15 28-19 11-5 24-8 37-8 12 0 22 2 31 6 10 4 18 9 25 17 7 7 13 16 16 26 4 11 6 22 6 36 0 5 0 9-1 10-1 2-4 3-7 3H377c0 12 2 22 5 31s7 16 12 22 12 10 19 13 15 4 24 4c8 0 16-1 22-3s11-4 15-6 8-4 11-6 5-3 7-3c3 0 5 1 7 3l9 12c-4 5-9 10-15 14-5 3-12 6-18 9-7 2-13 4-20 5s-14 2-21 2c-13 0-25-2-36-7-11-4-21-11-29-19-8-9-14-19-18-32-5-12-7-27-7-43zm34-17h103c0-8-1-15-3-21-3-7-6-12-10-17s-9-8-15-11c-6-2-12-4-20-4-16 0-29 5-38 14-9 10-15 23-17 39z"/></svg>