<svg xmlns="http://www.w3.org/2000/svg" viewBox="0 0 512 512"><path d="M256-30C115-30 1 84 1 224s114 254 255 254 255-114 255-254S397-30 256-30zm102 366c0 2 0 5-2 7v-1c-12 9-12 35-27 41-8 4-7-7-4-11 5-6-2-10 1-16-3-1-6-8-6-11 3-1 5-3 5-2 1-1 5-8 5-9 1 6-7 17-4 22 1 0 1 0 3-2 0 3 0 6 2 9-4-14 10-14 17-23 2-3 6-12 9-13 2 2 2 5 1 8 1-2 0 0 0 1zm71-164c-5-9-9-23-17-29 2 2 2 4 1 7-4-1-8-4-10-7 0-2 4 2 2-3-7 1-12-6-17-10-9-1-19 7-29 2-2-2-4-9-8-5-2 2-4 2-6 2-11-4-16-13-25-13 0 4 7 10 10 12 4 2 7 13 8 4 6 3 1 11 10 8 7 3 5-8 7-11 2 1 3 6 4 8 4 3 9 2 12 5 4 4 7 11 6 16-4-1-1 4-4 8-2 4-2 5-4 9-4 1-10 3-9 9-3 4-31 24-35 18s-5-16-9-23c-6-2-17-16-19-21 1-10-24-28-28-29 3 13 14 20 19 30 5 9 13 29 19 31 12-1 18 19 24 23 8 6 24-12 31-10 0 9 0 12-3 22-5 21-15 30-27 46-7 10-12 17-17 27-4 9 8 26 5 31 2 13-2 21-14 28-8 5-16 10-13 19 3 10-9 11-10 17-4 8-9 13-15 16-4 1-8 1-12 1-7 0-15-1-22-1-10-12-20-25-30-37-6-7-15-20-5-29 1-6-6-20-10-25-5-9-30-28-20-39 1-6-5-13-5-19-5-4-10 6-15-3-6-9-16-7-24-1-2 1-25 5-27 3-17-15-22-40-16-60 2-9 2-24 9-30 3-9 13-18 18-25 3-4 8-4 11-8 6-6 8-13 15-19 6-5 21-14 9-16 4-7 12-15 15-23 4-3 12-2 17-4 4-9 5-8 4-14 1-3 11-6 14-6 4-2 8-6 12-9 16-4 33-7 50-7 93 0 170 68 184 156-4-8-8-18-11-22zM253 60c1 0 1-1 2-2-6 2-3-4-8 2 1 5-5 9-2 14 5 5 11-3 17-4 0 4 12 3 14 4-3-1 1-1 0 0 11-7-23-14-23-14zm-9 33c0-3-3-3-5-7 5-5-3-2 1-8-2-1-4-1-7 0-1 4 2 3-3 2-1 4 4 6 3 10 0-1-1-1-2-1-1 3 0 2 0 6-8-1-4-7-10-15 6-5-12-14-10-17-12 4 10 17 7 20-6-3-2 1-5 5-6 6-5 8-13 5 0-6 15 0 8-13-4-5-7-13-13-8-7 4-18 6-23 15-3 3-23 19-23 20 8 6 39-19 46-11 0 5-6 9-6 14 2 1 3 3 5 3 10-2 8 5 15 7 13 3 3 1 11-7 2-2 16-2 17 2 0-3 6-1 0 0 6-1 12 5 17 1 3-4 5-3 8-1 11 8 7-23 7-25-3 3-26 5-25 3zm-49-5c-2 1-3 1-4 1 1-3 5-15 8-15 0 4-4 10-4 14zm0 0c0-3-2 0 0 0zm98-28c1-1 1-4 3-4-2-8-10-1-10 4 3 4 16 10 17 14-3 1 1 10 6 10 3 3 7 3 11 2-1-8-21-23-27-26zm16 24c-4 0 2 2 0 0zm9-23c-3-1-6-8-9-9-1 2-1 2-1 3 0-1 1 2 0 0 1 2 7 9 10 6zM179 72c-1 1-2 1-3 2h-1c2 0 3-3 4-2z"/></svg>