<svg xmlns="http://www.w3.org/2000/svg" viewBox="0 0 512 512"><path d="M250 125c74 0 133 60 133 134 0 73-59 133-133 133s-134-60-134-133c0-74 60-134 134-134m0-67C139 58 50 148 50 259c0 110 89 200 200 200s200-90 200-200c0-111-89-201-200-201zm-11 210c-9 0-16-7-16-16v-34c0-9 7-16 16-16 10 0 17 7 17 16v34c0 9-7 16-17 16zm55 44c-4 0-8-1-11-4l-54-43c-7-6-9-16-3-24 6-7 17-8 24-2l54 43c7 6 8 16 3 24-4 4-9 6-13 6zm197-162c29-45 24-105-15-144S377-38 332-9zm-470 0C-8 105-3 45 36 6s99-44 144-15zm421 321c-7 6-17 6-24 0l-47-47c-7-7-7-18 0-24 6-7 17-7 23 0l48 47c6 7 6 17 0 24zm-372 0c7 6 17 6 24 0l47-47c7-7 7-18 0-24-6-7-17-7-23 0l-48 47c-6 7-6 17 0 24z"/></svg>