<svg width="16" height="16" viewBox="0 0 16 16" fill="none" xmlns="http://www.w3.org/2000/svg">
<path d="M14.6343 16L7.67075 8.82415H4.0026V7.17585H6.07103L4.47132 5.52756H4.0026C3.36619 5.52756 2.75585 5.78805 2.30584 6.25172C1.85583 6.71539 1.60302 7.34427 1.60302 8C1.60302 8.65573 1.85583 9.28461 2.30584 9.74828C2.75585 10.212 3.36619 10.4724 4.0026 10.4724H6.40218V12.1207H4.0026C3.02898 12.1216 2.0885 11.7564 1.35753 11.0937C0.626559 10.4311 0.155306 9.51642 0.0321393 8.52129C-0.0910271 7.52616 0.142354 6.51891 0.688518 5.68843C1.23468 4.85795 2.05611 4.26128 2.99878 4.0103L0.236864 1.16534L1.36866 0L15.7661 14.8347L14.6351 15.9992V16H14.6343ZM14.5095 11.2084L13.3673 10.0323C13.7876 9.73232 14.1039 9.30181 14.2701 8.80357C14.4363 8.30534 14.4437 7.76544 14.2912 7.26258C14.1387 6.75972 13.8343 6.3202 13.4223 6.0081C13.0104 5.696 12.5125 5.52764 12.0012 5.52756H9.60161V3.87926H12.0012C12.8286 3.87936 13.6357 4.14391 14.3111 4.63643C14.9865 5.12894 15.497 5.82519 15.7722 6.6292C16.0475 7.43321 16.0739 8.30539 15.8479 9.12553C15.6219 9.94568 15.1546 10.6734 14.5103 11.2084H14.5095Z" fill="black"/>
</svg>
