<svg xmlns="http://www.w3.org/2000/svg" viewBox="0 0 512 512"><path d="M478 403c-10-14-41-24-72-37-30-13-38-17-38-17v-31s12-9 15-37c7 2 15-11 15-18 1-7-1-25-9-23 1-14 3-27 2-33-2-25-26-50-62-50s-59 25-61 50c-1 6 0 19 2 33-9-2-10 16-10 23 1 7 8 20 16 18 3 28 15 37 15 37l-1 31s-7 4-38 17c-30 13-62 23-71 37-8 14-6 77-6 77h308s3-63-5-77zm-293-93c1-3 2-7 2-11s-1-8-2-11c-2-4-4-7-6-10-3-2-6-4-10-6-3-1-7-2-11-2-3 0-6 1-9 2-3 2-6 4-8 6-2 3-4 6-5 10-1 3-2 7-2 11s1 8 2 11c1 4 3 7 5 9 2 3 5 5 8 6 3 2 6 3 9 3 4 0 8-1 11-3 4-1 7-3 10-6 2-2 4-5 6-9zm-47-119c1 12 2 24 4 36h33c2-13 3-24 5-36 1-11 1-22 1-34V47h-45v110c0 12 0 23 2 34zM74 14h210l105 105 33-32L303-32H28v512h80v-46H74z"/></svg>