<?xml version="1.0" encoding="utf-8"?>
<!-- Generator: Adobe Illustrator 23.0.6, SVG Export Plug-In . SVG Version: 6.00 Build 0)  -->
<svg version="1.1" id="Ebene_1" xmlns="http://www.w3.org/2000/svg" xmlns:xlink="http://www.w3.org/1999/xlink" x="0px" y="0px"
	 width="22px" height="22px" viewBox="0 0 22 22" enable-background="new 0 0 22 22" xml:space="preserve">
<rect x="20" y="20" width="2" height="2"/>
<rect x="20" y="16" width="2" height="2"/>
<rect x="20" y="12" width="2" height="2"/>
<rect x="20" y="8" width="2" height="2"/>
<rect x="20" y="4" width="2" height="2"/>
<rect x="20" width="2" height="2"/>
<rect x="16" y="20" width="2" height="2"/>
<rect x="12" y="20" width="2" height="2"/>
<rect x="8" y="20" width="2" height="2"/>
<rect x="4" y="20" width="2" height="2"/>
<rect y="20" width="2" height="2"/>
<rect x="16" y="16" width="2" height="2"/>
<rect x="12" y="16" width="2" height="2"/>
<rect x="16" y="12" width="2" height="2"/>
<rect x="16" y="8" width="2" height="2"/>
<rect x="16" y="4" width="2" height="2"/>
<rect x="12" y="12" width="2" height="2"/>
<rect x="12" y="8" width="2" height="2"/>
<rect x="8" y="16" width="2" height="2"/>
<rect x="8" y="12" width="2" height="2"/>
<rect x="4" y="16" width="2" height="2"/>
</svg>
