<svg width="16" height="16" viewBox="0 0 16 16" fill="none" xmlns="http://www.w3.org/2000/svg">
<path d="M6.25383 1.53601H16V3.04001H6.25383V1.53601ZM6.25383 7.64801H16V9.15201H6.25383V7.64801ZM6.25383 13.376H16V14.848H6.25383V13.376ZM1.56818 16L0.100004 14.336C-0.0561844 14.176 -0.0249467 13.92 0.16248 13.76C0.349906 13.632 0.631045 13.664 0.787234 13.824L1.53694 14.688L3.75482 11.904C3.87977 11.744 4.16091 11.712 4.34833 11.84C4.53576 11.968 4.59823 12.224 4.44205 12.384L1.56818 16ZM1.56818 10.528L0.100004 8.83201C-0.0561844 8.67201 -0.0249467 8.41601 0.16248 8.28801C0.349906 8.16001 0.631045 8.19201 0.787234 8.35201L1.53694 9.21601L3.75482 6.43201C3.87977 6.27201 4.16091 6.20801 4.34833 6.33601C4.53576 6.46401 4.59823 6.72001 4.44205 6.91201L1.56818 10.528Z" fill="black"/>
<path d="M0.100004 2.83201L1.56818 4.52801L4.44205 0.912006C4.59823 0.720006 4.53576 0.464007 4.34833 0.336007C4.16091 0.208007 3.87977 0.272006 3.75482 0.432006L1.53694 3.21601L0.787234 2.35201C0.631045 2.19201 0.349906 2.16001 0.16248 2.28801C-0.0249467 2.41601 -0.0561844 2.67201 0.100004 2.83201Z" fill="black"/>
</svg>
