<svg xmlns="http://www.w3.org/2000/svg" viewBox="0 0 512 512"><path d="M482 174h-71c-4-13-10-26-17-38l47-47c11-11 11-29 0-40l-20-20c-11-11-29-11-40 0l-48 48c-13-8-27-13-42-17V-2c0-16-12-28-28-28h-28c-16 0-28 12-28 28v62c-17 4-32 11-46 19l-40-40c-11-11-29-11-40 0L61 59c-11 11-11 29 0 40l41 41c-9 15-15 31-19 49H30c-16 0-28 12-28 28v28c0 16 12 28 28 28h57c5 17 13 33 23 47l-39 39c-11 11-11 29 0 40l20 20c11 11 29 11 40 0l43-43c14 7 30 12 47 15v59c0 16 12 28 28 28h28c16 0 28-12 28-28v-66c15-5 28-12 40-21l46 46c11 11 29 11 40 0l20-20c11-11 11-29 0-40l-50-50c6-12 11-26 14-40h67c16 0 28-12 28-28v-28c0-16-12-29-28-29zM249 295c-39 0-71-32-71-71s32-71 71-71 71 32 71 71-32 71-71 71z"/></svg>