<svg xmlns="http://www.w3.org/2000/svg" viewBox="0 0 512 512"><path d="m71.28998,158.59047c38.5055,0 70.41001,30.80402 70.41001,70.41001c0,38.50456 -31.9045,70.40906 -70.41001,70.40906c-38.5055,0 -70.41001,-31.9045 -70.41001,-70.40906c0,-39.60598 31.9045,-70.41001 70.41001,-70.41001zm182.62601,0c39.60504,0 70.41001,30.80402 70.41001,70.41001c0,38.50456 -30.80497,70.40906 -70.41001,70.40906c-38.5055,0 -70.41001,-31.9045 -70.41001,-70.40906c0.00095,-39.60598 31.9045,-70.41001 70.41001,-70.41001zm187.02699,0c38.5055,0 70.41001,30.80402 70.41001,70.41001c0,38.50456 -31.9045,70.40906 -70.41001,70.40906c-38.50456,0 -70.40906,-31.9045 -70.40906,-70.40906c-0.00095,-39.60598 31.90356,-70.41001 70.40906,-70.41001z"/></svg>
