<svg xmlns="http://www.w3.org/2000/svg" viewBox="0 0 512 512"><path d="M256 32C115 32 0 147 0 288v128h512V288c0-141-115-256-256-256zm-2 64c18 0 32 14 32 32 0 8-3 16-9 22s-14 10-23 10c-17 0-31-14-32-31 0-19 14-33 32-33zM65 330h-2c-10-1-17-5-23-12-5-7-8-15-7-23 2-17 16-29 32-29h4c8 1 16 5 21 12s8 15 7 24c-2 16-15 28-32 28zm59-100c-7 9-17 14-27 14-6 0-13-2-18-6-7-4-12-11-13-20-2-8 0-17 5-24 9-14 30-18 44-9 15 11 18 30 9 45zm56-51c-4 2-9 4-15 4-11 0-22-7-28-17-8-16-3-35 13-43 15-9 36-2 44 13s2 34-14 43zm76 221c-26 0-48-22-48-48s22-48 48-48 48 22 48 48-22 48-48 48zm97-240l-49 150c-12-13-29-22-48-22-3 0-6 1-8 1l75-142c8-16 21-26 28-23s8 19 2 36zm34 68c-5-7-7-16-6-24 2-9 6-16 13-21 15-10 35-6 45 8 5 6 7 15 5 23-1 8-6 16-13 21-5 4-12 6-18 6-11 0-20-5-26-13zm76 103c-5 4-12 6-18 6-11 0-20-5-26-13-5-7-7-16-6-24 2-9 6-16 13-21 15-10 35-6 45 8 5 6 7 15 5 23-1 8-6 16-13 21z"/></svg>