<svg xmlns="http://www.w3.org/2000/svg" viewBox="0 0 512 512"><path d="M512 207H345c-13-5-27-11-41-15-16-5-32-10-47-15s-29-11-41-17-21-14-29-23c-7-8-10-19-10-32 0-10 2-20 6-29 5-9 11-16 19-23 9-7 19-12 30-16 12-4 25-6 40-6 17 0 31 2 44 6 12 4 23 8 32 13 9 4 16 8 22 12 7 3 12 5 17 5 8 0 13-3 17-11l19-32c-18-17-40-31-66-41s-55-15-87-15c-28 0-53 4-75 12s-41 18-56 31-26 28-34 46c-8 17-12 35-12 53 0 22 4 40 11 55 8 15 17 28 30 38 1 2 3 3 4 4H0v46h242c10 3 19 6 28 9 16 4 29 10 41 16 12 7 22 14 30 23 7 9 11 21 11 34 0 11-2 22-7 32-4 9-10 18-18 26-9 7-19 13-32 17-13 5-28 7-45 7-20 0-36-3-49-7-14-4-25-10-34-15-9-6-17-11-24-15-6-5-13-7-18-7-6 0-11 1-15 3-4 3-7 6-9 10l-21 33c20 18 43 32 72 44 28 11 59 17 94 17 30 0 57-4 80-12 22-9 42-20 58-34s28-31 36-51c8-19 12-40 12-63 0-20-4-37-11-51-3-6-7-11-10-16h101z"/></svg>