<svg width="16" height="16" viewBox="0 0 16 16" fill="none" xmlns="http://www.w3.org/2000/svg">
<path d="M2.66667 2C2.11459 2 1.66705 2.46992 1.66705 3.0496C1.66705 3.62928 2.11459 4.0992 2.66667 4.0992H6.49599C6.90319 3.79073 7.42116 3.6 8.00114 3.6C8.58112 3.6 9.09909 3.79073 9.50629 4.0992H12.3902C12.9423 4.0992 13.3899 3.62928 13.3899 3.0496C13.3899 2.46992 12.9423 2 12.3902 2H2.66667Z" fill="black"/>
<path d="M3.85827 5.31659H5.6521C5.61419 5.44982 5.58903 5.58657 5.57774 5.7252C5.55691 5.91193 5.57276 6.11786 5.58642 6.26503C5.59006 6.30421 5.59419 6.34503 5.59867 6.38693C5.51567 6.51959 5.47103 6.65098 5.44596 6.73799C5.37413 6.98729 5.35979 7.25019 5.35979 7.39058V7.41579H3.85827C3.3062 7.41579 2.85865 6.94587 2.85865 6.36619C2.85865 5.78651 3.3062 5.31659 3.85827 5.31659Z" fill="black"/>
<path d="M0.99962 8.63318H5.92839C5.98622 8.81876 6.05408 8.97524 6.12381 9.10537C6.14679 9.14825 6.16979 9.18794 6.19246 9.22455V9.27426C6.04756 9.34344 5.85593 9.43282 5.60592 9.546C5.41293 9.63338 5.21848 9.71423 5.02021 9.79668L5.01147 9.80032C4.815 9.88201 4.61039 9.96716 4.42176 10.0548C4.23435 10.1418 4.03941 10.2418 3.86404 10.3597C3.72718 10.4517 3.5749 10.5726 3.44455 10.7324H0.99962C0.447545 10.7324 0 10.2625 0 9.68278C0 9.1031 0.447545 8.63318 0.99962 8.63318Z" fill="black"/>
<path d="M5.30508 10.5387C5.14601 10.6048 4.99248 10.6687 4.849 10.7324C4.44837 10.9103 4.12613 11.0873 3.98056 11.311C3.76645 11.688 3.81403 14 3.81403 14H12.1883C12.1883 14 12.2358 11.688 12.0217 11.311C11.824 11.0072 11.3004 10.7895 10.6972 10.5387C10.5019 10.4575 10.2983 10.3728 10.0947 10.2806C9.26203 9.90367 9.04792 9.77801 9.04792 9.77801V8.94869C9.04792 8.94869 9.35719 8.69738 9.45235 7.89319C9.64268 7.94346 9.85679 7.59162 9.88058 7.39058C9.88058 7.18953 9.833 6.68691 9.5951 6.73717C9.60019 6.69412 9.60528 6.65165 9.61029 6.60991C9.65205 6.26176 9.68771 5.96441 9.66647 5.80733C9.61889 5.1288 8.97655 4.4 8.00114 4.4C7.24929 4.4 6.69533 4.83301 6.4591 5.34224C6.38886 5.49366 6.34672 5.65181 6.33581 5.80733C6.33101 5.84285 6.32911 5.88555 6.32954 5.93438C6.33101 6.10148 6.35967 6.34047 6.39198 6.60987L6.40718 6.73717C6.37092 6.72951 6.33908 6.7347 6.31115 6.7497C6.15588 6.83313 6.1217 7.22017 6.1217 7.39058C6.14549 7.59162 6.33581 7.94346 6.54992 7.89319C6.5905 8.22541 6.67002 8.46622 6.74788 8.63318C6.8518 8.85599 6.95277 8.94726 6.95434 8.94867L6.95436 9.77801C6.95436 9.77801 6.94098 9.78586 6.9079 9.80353C6.80865 9.85654 6.53208 9.99791 5.90758 10.2806C5.89486 10.2864 5.88213 10.2921 5.86941 10.2978C5.67856 10.3834 5.48814 10.4626 5.30508 10.5387Z" fill="black"/>
<path d="M15.7385 11.3927C15.7723 11.4535 15.8081 11.5179 15.852 11.5874C16.0423 11.9141 15.9947 14 15.9947 14H13.2112C13.2826 11.0597 12.9971 10.5571 12.8782 10.3812C12.7681 10.1922 12.4191 10.1545 12.0755 10.1175C11.825 10.0905 11.5774 10.0638 11.427 9.97906L12.0455 9.45131C12.0455 9.45131 11.76 9.22513 11.6887 8.52147C11.4983 8.57173 11.3318 8.24503 11.308 8.06911C11.308 7.89319 11.3318 7.41571 11.5459 7.46597C11.4983 7.11414 11.4745 6.81257 11.4983 6.63665C11.5459 6.03351 12.1169 5.38011 12.9971 5.38011C13.8774 5.38011 14.4483 6.03351 14.4959 6.63665C14.517 6.79265 14.482 7.04745 14.4406 7.3485C14.4353 7.38694 14.4299 7.42613 14.4245 7.46597C14.6387 7.41571 14.6862 7.89319 14.6625 8.06911C14.6625 8.24503 14.4721 8.57173 14.3056 8.52147C14.2104 9.22513 13.9249 9.45131 13.9249 9.45131L13.9487 10.2052C13.9487 10.2052 14.1153 10.3309 14.8766 10.6576C15.4781 10.9241 15.589 11.1236 15.7385 11.3927Z" fill="black"/>
<path d="M5.30508 10.5387C5.30509 10.5387 5.30508 10.5387 5.30508 10.5387Z" fill="black"/>
</svg>
