<svg width="16" height="12" viewBox="0 0 16 12" fill="none" xmlns="http://www.w3.org/2000/svg">
<path d="M2.66667 0C2.11459 0 1.66705 0.469922 1.66705 1.0496C1.66705 1.62928 2.11459 2.0992 2.66667 2.0992H6.49599C6.90319 1.79073 7.42116 1.6 8.00114 1.6C8.58112 1.6 9.09909 1.79073 9.50629 2.0992H12.3902C12.9423 2.0992 13.3899 1.62928 13.3899 1.0496C13.3899 0.469922 12.9423 0 12.3902 0H2.66667Z" fill="white"/>
<path d="M3.85827 3.31659H5.6521C5.61419 3.44982 5.58903 3.58657 5.57774 3.7252C5.55691 3.91193 5.57276 4.11787 5.58642 4.26503C5.59006 4.30421 5.59419 4.34503 5.59867 4.38693C5.51567 4.51959 5.47103 4.65098 5.44596 4.73799C5.37413 4.98729 5.35979 5.25019 5.35979 5.39058V5.41579H3.85827C3.3062 5.41579 2.85865 4.94587 2.85865 4.36619C2.85865 3.78651 3.3062 3.31659 3.85827 3.31659Z" fill="white"/>
<path d="M0.99962 6.63318H5.92839C5.98622 6.81876 6.05408 6.97524 6.12381 7.10537C6.14679 7.14825 6.16979 7.18794 6.19246 7.22455V7.27426C6.04756 7.34344 5.85593 7.43282 5.60592 7.546C5.41293 7.63338 5.21848 7.71423 5.02021 7.79668L5.01147 7.80032C4.815 7.88201 4.61039 7.96716 4.42176 8.05476C4.23435 8.1418 4.03941 8.24177 3.86404 8.35971C3.72718 8.45175 3.5749 8.57261 3.44455 8.73238H0.99962C0.447545 8.73238 0 8.26246 0 7.68278C0 7.1031 0.447545 6.63318 0.99962 6.63318Z" fill="white"/>
<path d="M5.30508 8.53867C5.14601 8.60482 4.99248 8.66866 4.849 8.73238C4.44837 8.91032 4.12613 9.08733 3.98056 9.311C3.76645 9.68796 3.81403 12 3.81403 12H12.1883C12.1883 12 12.2358 9.68796 12.0217 9.311C11.824 9.00723 11.3004 8.78951 10.6972 8.53867C10.5019 8.45747 10.2983 8.37281 10.0947 8.28063C9.26203 7.90367 9.04792 7.77801 9.04792 7.77801V6.94869C9.04792 6.94869 9.35719 6.69738 9.45235 5.89319C9.64268 5.94346 9.85679 5.59162 9.88058 5.39058C9.88058 5.18953 9.833 4.68691 9.5951 4.73717C9.60019 4.69412 9.60528 4.65165 9.61029 4.60991C9.65205 4.26176 9.68771 3.96441 9.66647 3.80733C9.61889 3.1288 8.97655 2.4 8.00114 2.4C7.24929 2.4 6.69533 2.83301 6.4591 3.34224C6.38886 3.49366 6.34672 3.65181 6.33581 3.80733C6.33101 3.84285 6.32911 3.88555 6.32954 3.93438C6.33101 4.10148 6.35967 4.34047 6.39198 4.60987L6.40718 4.73717C6.37092 4.72951 6.33908 4.7347 6.31115 4.7497C6.15588 4.83313 6.1217 5.22017 6.1217 5.39058C6.14549 5.59162 6.33581 5.94346 6.54992 5.89319C6.5905 6.22541 6.67002 6.46622 6.74788 6.63318C6.8518 6.85599 6.95277 6.94726 6.95434 6.94867L6.95436 7.77801C6.95436 7.77801 6.94098 7.78586 6.9079 7.80353C6.80865 7.85654 6.53208 7.99791 5.90758 8.28063C5.89486 8.28639 5.88213 8.29212 5.86941 8.29782C5.67856 8.38337 5.48814 8.46256 5.30508 8.53867Z" fill="white"/>
<path d="M15.7385 9.39271C15.7723 9.45354 15.8081 9.51792 15.852 9.58743C16.0423 9.91414 15.9947 12 15.9947 12H13.2112C13.2826 9.05969 12.9971 8.55707 12.8782 8.38115C12.7681 8.19216 12.4191 8.15455 12.0755 8.1175C11.825 8.0905 11.5774 8.0638 11.427 7.97906L12.0455 7.45131C12.0455 7.45131 11.76 7.22513 11.6887 6.52147C11.4983 6.57173 11.3318 6.24503 11.308 6.06911C11.308 5.89319 11.3318 5.41571 11.5459 5.46597C11.4983 5.11414 11.4745 4.81257 11.4983 4.63665C11.5459 4.03351 12.1169 3.38011 12.9971 3.38011C13.8774 3.38011 14.4483 4.03351 14.4959 4.63665C14.517 4.79265 14.482 5.04745 14.4406 5.3485C14.4353 5.38694 14.4299 5.42613 14.4245 5.46597C14.6387 5.41571 14.6862 5.89319 14.6625 6.06911C14.6625 6.24503 14.4721 6.57173 14.3056 6.52147C14.2104 7.22513 13.9249 7.45131 13.9249 7.45131L13.9487 8.20524C13.9487 8.20524 14.1153 8.33089 14.8766 8.65759C15.4781 8.92405 15.589 9.12364 15.7385 9.39271Z" fill="white"/>
<path d="M5.30508 8.53867C5.30509 8.53867 5.30508 8.53868 5.30508 8.53867V8.53867Z" fill="white"/>
</svg>
