<svg width="14" height="16" viewBox="0 0 14 16" fill="none" xmlns="http://www.w3.org/2000/svg">
<path fill-rule="evenodd" clip-rule="evenodd" d="M0.875 14.3158H13.125C13.3571 14.3158 13.5796 14.4045 13.7437 14.5624C13.9078 14.7204 14 14.9346 14 15.1579C14 15.3812 13.9078 15.5954 13.7437 15.7534C13.5796 15.9113 13.3571 16 13.125 16H0.875C0.642936 16 0.420376 15.9113 0.256282 15.7534C0.0921874 15.5954 0 15.3812 0 15.1579C0 14.9346 0.0921874 14.7204 0.256282 14.5624C0.420376 14.4045 0.642936 14.3158 0.875 14.3158Z" fill="black"/>
<path d="M3.28733 5.95453L6.12495 3.22442L6.12495 12.6349L7.87495 12.6349L7.87495 3.22442L10.7126 5.95453L11.9498 4.76379L6.99995 4.16464e-07L2.05008 4.76379L3.28733 5.95453Z" fill="black"/>
</svg>
