<svg xmlns="http://www.w3.org/2000/svg" viewBox="0 0 512 512"><path d="M293.45 176.445l-139.79-75.02-139.8 75.02 139.8 77.69z" fill="#333"/><path d="M293.45 176.445l-139.79-75.02-139.8 75.02 139.8 77.69z" fill="none"/><path d="M175.92 423.325l133.56-71.46v-133.57l-133.56 74.35z" fill="#333"/><path d="M175.92 423.325l133.56-71.46v-133.57l-133.56 74.35z" fill="none"/><path d="M-2.17 218.295v133.57l133.57 71.46v-130.68z" fill="#333"/><path d="M-2.17 218.295v133.57l133.57 71.46v-130.68z" fill="none"/><path d="M501.322 372.695v53.237H345.32v-53.237h156.002z" fill="#333"/><path d="M501.322 372.695v53.237H345.32v-53.237h156.002z" fill="none"/><path d="M501.322 305.497v53.238H345.32v-53.238h156.002z" fill="#333"/><path d="M501.322 305.497v53.238H345.32v-53.238h156.002z" fill="none"/><g><path d="M501.322 237.918v53.238H345.32v-53.238h156.002z" fill="#333"/><path d="M501.322 237.918v53.238H345.32v-53.238h156.002z" fill="none"/></g><g><path d="M501.322 305.115v53.238H345.32v-53.238h156.002z" fill="none"/></g><g><path d="M501.322 170.339v53.237H345.32V170.34h156.002z" fill="#333"/><path d="M501.322 170.339v53.237H345.32V170.34h156.002z" fill="none"/></g><g><path d="M501.322 99.651v53.238H345.32V99.65h156.002z" fill="#333"/><path d="M501.322 99.651v53.238H345.32V99.65h156.002z" fill="none"/></g></svg>