<svg width="24" height="24" viewBox="0 0 24 24" fill="none" xmlns="http://www.w3.org/2000/svg">
<path d="M12 7C6.7512 7 4 10.8829 4 11.5C4 12.1155 6.7512 16 12 16C17.248 16 20 12.1155 20 11.5C20 10.8829 17.248 7 12 7ZM12 14.961C10.036 14.961 8.444 13.4117 8.444 11.5C8.444 9.5883 10.036 8.03741 12 8.03741C13.964 8.03741 15.5552 9.5883 15.5552 11.5C15.5552 13.4117 13.964 14.961 12 14.961ZM12 11.5C11.6744 11.1408 12.5304 9.76911 12 9.76911C11.0176 9.76911 10.2216 10.5446 10.2216 11.5C10.2216 12.4554 11.0176 13.2309 12 13.2309C12.9816 13.2309 13.7784 12.4554 13.7784 11.5C13.7784 11.0604 12.2768 11.8046 12 11.5Z" fill="black"/>
</svg>
