<?xml version="1.0" encoding="UTF-8"?><svg id="b" xmlns="http://www.w3.org/2000/svg" viewBox="0 0 1000 1000"><path d="M821.56,342.7l-.13-.1c-20.34-14.71-27.66-42.02-17.36-64.99,8.41-18.76,7.33-39.73-2.96-57.52-10.29-17.8-27.91-29.2-48.36-31.28-25.03-2.55-45.04-22.56-47.59-47.59-2.08-20.45-13.48-38.08-31.28-48.36-17.8-10.28-38.76-11.36-57.58-2.93-22.91,10.27-50.22,2.96-64.93-17.39l-.1-.14c-12.04-16.64-30.72-26.18-51.26-26.18s-39.22,9.54-51.26,26.19l-.1,.13c-14.72,20.34-42.02,27.66-64.99,17.36-18.76-8.41-39.73-7.33-57.52,2.96-17.8,10.29-29.2,27.91-31.28,48.36-2.55,25.03-22.56,45.04-47.59,47.59-20.45,2.08-38.08,13.48-48.36,31.28-10.29,17.8-11.36,38.76-2.93,57.58,10.27,22.91,2.96,50.22-17.39,64.93l-.14,.1c-16.64,12.04-26.18,30.72-26.18,51.26s9.54,39.22,26.19,51.26l.13,.1c20.34,14.71,27.66,42.02,17.36,64.99-8.41,18.76-7.33,39.73,2.96,57.52,10.29,17.8,27.91,29.2,48.36,31.28,25.03,2.55,45.04,22.56,47.59,47.59,1.07,10.52,4.62,20.27,10.22,28.68l-101.57,175.93c-5.61,9.71,3.16,21.41,14.05,18.75l95.7-23.32,27.65,94.54c3.15,10.76,17.66,12.51,23.27,2.79l118.26-204.83c5.61,1.6,11.51,2.45,17.57,2.45s11.95-.85,17.57-2.45l118.26,204.83c5.61,9.71,20.12,7.97,23.27-2.79l27.65-94.54,95.7,23.32c10.89,2.65,19.66-9.04,14.05-18.75l-101.57-175.93c5.6-8.41,9.15-18.17,10.22-28.68,2.55-25.03,22.56-45.04,47.59-47.59,20.45-2.08,38.08-13.48,48.36-31.28,10.29-17.8,11.36-38.76,2.93-57.58-10.27-22.91-2.96-50.22,17.39-64.93l.14-.1c16.64-12.04,26.18-30.72,26.18-51.26s-9.54-39.22-26.19-51.26Zm-5.86,94.41h0l-.14,.1c-24.16,17.48-32.85,49.91-20.63,77.18,7.08,15.79,6.17,33.44-2.49,48.43-8.66,14.98-23.5,24.58-40.72,26.34-29.73,3.03-53.5,26.8-56.53,56.53-1.75,17.22-11.35,32.06-26.34,40.72-14.98,8.66-32.64,9.57-48.48,2.46-27.21-12.2-59.65-3.51-77.13,20.65l-.1,.13c-10.13,14.01-25.86,22.04-43.15,22.04s-33.02-8.04-43.15-22.05l-.1-.14c-12.16-16.81-31.56-26.13-51.42-26.13-8.69,0-17.47,1.78-25.76,5.5-15.79,7.08-33.44,6.17-48.43-2.49-14.98-8.66-24.58-23.5-26.34-40.72-3.03-29.73-26.8-53.5-56.53-56.53-17.22-1.75-32.06-11.35-40.72-26.34-8.66-14.98-9.57-32.64-2.46-48.48,12.2-27.21,3.51-59.65-20.65-77.13l-.13-.1c-14.01-10.13-22.04-25.86-22.04-43.15s8.04-33.02,22.05-43.15l.14-.1c24.16-17.48,32.85-49.91,20.63-77.18-7.08-15.79-6.17-33.44,2.49-48.43,8.66-14.98,23.5-24.58,40.72-26.34,29.73-3.03,53.5-26.8,56.53-56.53,1.75-17.22,11.35-32.06,26.34-40.72,14.98-8.66,32.64-9.57,48.48-2.46,27.21,12.2,59.65,3.51,77.13-20.65l.1-.13c10.13-14.01,25.86-22.04,43.15-22.04s33.02,8.04,43.15,22.05l.1,.14c12.16,16.81,31.56,26.13,51.42,26.13,8.69,0,17.47-1.78,25.76-5.5,15.79-7.08,33.44-6.17,48.43,2.49,14.98,8.66,24.58,23.5,26.34,40.72,3.03,29.73,26.8,53.5,56.53,56.53,17.22,1.75,32.06,11.35,40.72,26.34,8.66,14.98,9.57,32.64,2.46,48.48-12.2,27.21-3.51,59.65,20.65,77.13l.13,.1c14.01,10.13,22.04,25.86,22.04,43.15s-8.04,33.02-22.04,43.15Z" style="fill:#0070ba;"/><path d="M500,638.26c-65.26,0-126.61-25.41-172.75-71.56s-71.56-107.49-71.56-172.75,25.41-126.61,71.56-172.75,107.49-71.56,172.75-71.56,126.61,25.41,172.75,71.56,71.56,107.49,71.56,172.75-25.41,126.61-71.56,172.75-107.49,71.56-172.75,71.56Zm0-478.61c-129.2,0-234.31,105.11-234.31,234.31s105.11,234.31,234.31,234.31,234.31-105.11,234.31-234.31-105.11-234.31-234.31-234.31Z" style="fill:#66cb92;"/><path d="M500,591.65c-4.15,0-8.35-.13-12.48-.39-2.76-.17-4.85-2.54-4.68-5.3s2.54-4.85,5.3-4.68c4.84,.3,9.76,.42,14.6,.35,2.77-.04,5.03,2.17,5.07,4.93s-2.17,5.03-4.93,5.07c-.96,.01-1.92,.02-2.88,.02Zm37.56-3.66c-2.34,0-4.43-1.65-4.9-4.03-.54-2.71,1.23-5.34,3.94-5.87,4.76-.94,9.54-2.08,14.2-3.39,2.66-.74,5.42,.81,6.16,3.46,.75,2.66-.81,5.42-3.46,6.16-4.91,1.38-9.95,2.58-14.96,3.57-.33,.06-.65,.1-.97,.1Zm-84.26-2.04c-.4,0-.81-.05-1.21-.15-4.96-1.23-9.93-2.68-14.77-4.3-2.62-.88-4.03-3.71-3.16-6.33,.88-2.62,3.71-4.03,6.33-3.16,4.6,1.54,9.31,2.91,14.02,4.08,2.68,.67,4.31,3.38,3.64,6.06-.57,2.27-2.61,3.79-4.85,3.79Zm131.49-13.91c-1.85,0-3.62-1.03-4.49-2.8-1.22-2.48-.19-5.47,2.29-6.69,4.35-2.13,8.67-4.47,12.84-6.94,2.38-1.41,5.44-.62,6.85,1.76,1.41,2.38,.62,5.44-1.76,6.85-4.4,2.6-8.95,5.06-13.53,7.31-.71,.35-1.46,.51-2.2,.51Zm-177.89-4.33c-.82,0-1.65-.2-2.41-.62-4.47-2.47-8.9-5.15-13.17-7.96-2.31-1.52-2.94-4.62-1.42-6.93,1.52-2.31,4.62-2.94,6.93-1.42,4.05,2.67,8.26,5.22,12.5,7.56,2.42,1.34,3.29,4.38,1.96,6.79-.91,1.65-2.62,2.58-4.38,2.58Zm219.42-23.23c-1.4,0-2.79-.58-3.78-1.72-1.81-2.08-1.59-5.24,.5-7.05,3.66-3.18,7.24-6.54,10.65-10,1.94-1.97,5.1-1.99,7.07-.05,1.97,1.94,1.99,5.1,.05,7.07-3.59,3.64-7.36,7.18-11.21,10.53-.95,.82-2.11,1.23-3.28,1.23Zm-259.56-6.33c-1.24,0-2.49-.46-3.46-1.39-3.69-3.53-7.28-7.25-10.69-11.06-1.84-2.06-1.66-5.22,.39-7.06s5.22-1.67,7.06,.39c3.23,3.61,6.65,7.15,10.15,10.5,1.99,1.91,2.06,5.07,.15,7.07-.98,1.03-2.3,1.54-3.61,1.54Zm292.68-30.93c-.97,0-1.95-.28-2.81-.87-2.28-1.55-2.88-4.66-1.32-6.95,2.73-4.02,5.34-8.18,7.74-12.39,1.37-2.4,4.43-3.23,6.82-1.86,2.4,1.37,3.23,4.43,1.86,6.82-2.53,4.43-5.28,8.82-8.16,13.05-.97,1.42-2.54,2.19-4.14,2.19Zm-323.94-7.89c-1.68,0-3.33-.85-4.27-2.39-2.66-4.36-5.19-8.87-7.5-13.42-1.25-2.46-.27-5.47,2.19-6.72,2.46-1.25,5.47-.27,6.72,2.19,2.2,4.32,4.59,8.6,7.12,12.74,1.44,2.36,.7,5.43-1.66,6.87-.81,.5-1.71,.73-2.6,.73Zm346.42-36.62c-.55,0-1.11-.09-1.65-.28-2.61-.91-3.98-3.77-3.06-6.37,1.6-4.57,3.04-9.27,4.29-13.96,.71-2.67,3.45-4.26,6.11-3.55,2.67,.71,4.26,3.44,3.55,6.11-1.31,4.94-2.83,9.89-4.52,14.71-.72,2.06-2.65,3.35-4.72,3.35Zm-366.68-8.92c-2.16,0-4.15-1.41-4.79-3.58-1.45-4.89-2.73-9.91-3.79-14.91-.57-2.7,1.15-5.36,3.85-5.93,2.7-.58,5.36,1.15,5.93,3.85,1.01,4.75,2.22,9.51,3.6,14.15,.78,2.65-.73,5.43-3.37,6.21-.47,.14-.95,.21-1.42,.21Zm376.91-39.86c-.13,0-.26,0-.39-.02-2.75-.21-4.81-2.62-4.6-5.37,.37-4.82,.56-9.73,.56-14.59,0-3.64-.11-7.33-.31-10.95-.16-2.76,1.95-5.12,4.7-5.28,2.78-.17,5.12,1.95,5.28,4.7,.22,3.81,.33,7.69,.33,11.52,0,5.12-.2,10.29-.59,15.36-.2,2.62-2.39,4.62-4.98,4.62Zm-384.75-9.36c-2.69,0-4.92-2.15-5-4.86-.05-1.91-.08-3.85-.08-5.77,0-3.2,.08-6.43,.23-9.61,.13-2.76,2.45-4.89,5.23-4.75,2.76,.13,4.89,2.48,4.75,5.23-.14,3.02-.22,6.09-.22,9.13,0,1.82,.03,3.67,.08,5.48,.08,2.76-2.09,5.06-4.85,5.14-.05,0-.1,0-.15,0Zm4.97-49.6c-.38,0-.76-.04-1.14-.13-2.69-.63-4.36-3.32-3.73-6.01,1.16-4.98,2.54-9.97,4.08-14.83,.84-2.63,3.65-4.09,6.28-3.25,2.63,.84,4.09,3.65,3.25,6.28-1.47,4.62-2.77,9.35-3.87,14.08-.54,2.31-2.59,3.86-4.86,3.86Zm374.87-1.82c-2.25,0-4.3-1.53-4.85-3.82-1.15-4.71-2.5-9.43-4.01-14.04-.86-2.62,.57-5.45,3.19-6.31,2.62-.86,5.45,.57,6.31,3.19,1.59,4.85,3.02,9.83,4.23,14.79,.65,2.68-.99,5.39-3.67,6.04-.4,.1-.8,.14-1.19,.14Zm-357.32-44.84c-.79,0-1.6-.19-2.35-.59-2.44-1.3-3.36-4.33-2.06-6.77,2.41-4.51,5.02-8.98,7.77-13.28,1.49-2.33,4.58-3.01,6.91-1.52,2.33,1.49,3.01,4.58,1.52,6.91-2.61,4.09-5.09,8.33-7.38,12.61-.9,1.69-2.63,2.65-4.42,2.65Zm339.32-1.63c-1.77,0-3.48-.94-4.39-2.6-2.32-4.25-4.84-8.46-7.49-12.53-1.51-2.31-.86-5.41,1.46-6.92,2.31-1.51,5.41-.86,6.92,1.46,2.79,4.28,5.45,8.72,7.89,13.2,1.32,2.42,.43,5.46-1.99,6.79-.76,.42-1.58,.61-2.39,.61Zm-310.35-38.95c-1.22,0-2.44-.44-3.4-1.34-2.02-1.88-2.14-5.04-.26-7.07,3.48-3.74,7.14-7.39,10.9-10.85,2.03-1.87,5.2-1.74,7.07,.29,1.87,2.03,1.74,5.19-.29,7.07-3.57,3.29-7.05,6.75-10.35,10.3-.98,1.06-2.32,1.59-3.66,1.59Zm281-1.34c-1.32,0-2.65-.52-3.63-1.56-3.34-3.52-6.85-6.95-10.45-10.2-2.05-1.85-2.21-5.01-.36-7.06,1.85-2.05,5.01-2.21,7.06-.36,3.79,3.42,7.49,7.04,11,10.74,1.9,2,1.81,5.17-.19,7.07-.97,.92-2.2,1.37-3.44,1.37Zm-242.63-30.49c-1.66,0-3.28-.82-4.23-2.33-1.47-2.33-.78-5.42,1.56-6.9,4.32-2.73,8.8-5.32,13.31-7.7,2.44-1.29,5.47-.35,6.76,2.09,1.29,2.44,.35,5.47-2.09,6.76-4.28,2.26-8.53,4.72-12.63,7.31-.83,.52-1.75,.77-2.67,.77Zm203.96-.97c-.9,0-1.81-.24-2.62-.75-4.13-2.55-8.41-4.97-12.72-7.19-2.45-1.26-3.42-4.28-2.15-6.73,1.26-2.45,4.28-3.42,6.73-2.15,4.54,2.34,9.05,4.89,13.4,7.58,2.35,1.45,3.08,4.53,1.62,6.88-.95,1.53-2.58,2.37-4.26,2.37Zm-158.73-19.95c-2.13,0-4.1-1.37-4.77-3.51-.82-2.64,.65-5.44,3.28-6.26,4.88-1.52,9.87-2.87,14.85-4.01,2.69-.61,5.37,1.07,5.99,3.76,.61,2.69-1.07,5.37-3.76,5.99-4.73,1.08-9.47,2.36-14.09,3.8-.5,.16-1,.23-1.49,.23Zm113.28-.55c-.48,0-.96-.07-1.45-.21-4.64-1.4-9.39-2.63-14.13-3.67-2.7-.59-4.41-3.25-3.82-5.95,.59-2.7,3.25-4.41,5.95-3.82,4.99,1.09,10,2.39,14.89,3.86,2.64,.8,4.14,3.59,3.34,6.23-.65,2.16-2.64,3.56-4.78,3.56Zm-64.18-8.01c-2.66,0-4.88-2.1-4.99-4.79-.12-2.76,2.02-5.09,4.78-5.21,5.08-.22,10.3-.24,15.38-.07,2.76,.09,4.92,2.41,4.83,5.17s-2.4,4.91-5.17,4.83c-4.83-.16-9.78-.14-14.61,.07-.07,0-.15,0-.22,0Z" style="fill:#66cb92;"/><g><g><path d="M428.2,357.37l18.16-47.38c1.19-3.1-1.1-6.43-4.42-6.43h-46.18c-2.84,0-5.69,1.9-7.58,3.79l-30.21,45.72c-2.08,3.15,.18,7.35,3.95,7.35h61.85c1.96,0,3.72-1.21,4.42-3.04Z" style="fill:#0070ba;"/><path d="M359.58,387.14l103.83,124.76c3.37,4.05,9.85,.39,8.12-4.59l-43.39-124.76c-.66-1.9-2.46-3.18-4.48-3.18h-60.44c-4.02,0-6.21,4.68-3.64,7.77Z" style="fill:#0070ba;"/></g><g><path d="M550.6,353.98l-18.16-47.38c-.7-1.83-2.46-3.04-4.42-3.04h-56.03c-1.96,0-3.72,1.21-4.42,3.04l-18.16,47.38c-1.19,3.1,1.1,6.43,4.42,6.43h92.36c3.32,0,5.61-3.33,4.42-6.43Z" style="fill:#0070ba;"/><path d="M449.14,385.67l46.39,132.55c1.48,4.23,7.46,4.23,8.94,0l46.39-132.55c1.08-3.08-1.21-6.3-4.47-6.3h-92.78c-3.26,0-5.55,3.22-4.47,6.3Z" style="fill:#0070ba;"/></g><g><path d="M638.08,360.42c3.78,0,6.03-4.2,3.95-7.35l-30.21-45.72c-1.9-1.9-4.74-3.79-7.58-3.79h-46.18c-3.32,0-5.61,3.33-4.42,6.43l18.16,47.38c.7,1.83,2.46,3.04,4.42,3.04h61.85Z" style="fill:#0070ba;"/><path d="M571.86,382.55l-43.39,124.76c-1.73,4.98,4.74,8.64,8.12,4.59l103.83-124.76c2.57-3.09,.37-7.77-3.64-7.77h-60.44c-2.02,0-3.81,1.28-4.48,3.18Z" style="fill:#0070ba;"/></g></g></svg>