<?xml version="1.0" encoding="UTF-8" standalone="no"?>
<svg
   xmlns:dc="http://purl.org/dc/elements/1.1/"
   xmlns:cc="http://creativecommons.org/ns#"
   xmlns:rdf="http://www.w3.org/1999/02/22-rdf-syntax-ns#"
   xmlns:svg="http://www.w3.org/2000/svg"
   xmlns="http://www.w3.org/2000/svg"
   xmlns:sodipodi="http://sodipodi.sourceforge.net/DTD/sodipodi-0.dtd"
   xmlns:inkscape="http://www.inkscape.org/namespaces/inkscape"
   viewBox="0 0 500 500"
   version="1.1"
   id="svg861"
   sodipodi:docname="icon_logo.svg"
   inkscape:version="1.0.2 (e86c8708, 2021-01-15)">
  <metadata
     id="metadata867">
    <rdf:RDF>
      <cc:Work
         rdf:about="">
        <dc:format>image/svg+xml</dc:format>
        <dc:type
           rdf:resource="http://purl.org/dc/dcmitype/StillImage" />
      </cc:Work>
    </rdf:RDF>
  </metadata>
  <defs
     id="defs865" />
  <sodipodi:namedview
     pagecolor="#ffffff"
     bordercolor="#666666"
     borderopacity="1"
     objecttolerance="10"
     gridtolerance="10"
     guidetolerance="10"
     inkscape:pageopacity="0"
     inkscape:pageshadow="2"
     inkscape:window-width="1792"
     inkscape:window-height="1067"
     id="namedview863"
     showgrid="false"
     inkscape:zoom="1.346"
     inkscape:cx="250"
     inkscape:cy="250"
     inkscape:window-x="0"
     inkscape:window-y="25"
     inkscape:window-maximized="0"
     inkscape:current-layer="svg861" />
  <path
     d="m 267.98948,387.74784 v 0 a 4.9312711,5.0968082 0 0 0 0,0.66712 28.761445,29.726934 0 0 0 57.49708,0 3.3047262,3.415662 0 0 0 0,-0.74718 v 0 -71.16852 h -57.49708 z"
     style="fill:#0770b8;stroke-width:2.62479"
     id="path857" />
  <path
     d="M 402.16653,3.4858609 H 363.82654 A 95.346514,98.547187 0 0 0 267.98948,101.95299 V 221.39442 H 99.319355 A 95.346514,98.547187 0 0 0 3.4822955,319.86155 v 79.25404 a 96.327605,99.561212 0 0 0 95.8370595,99.64126 h 38.339985 a 96.327605,99.561212 0 0 0 95.83706,-99.64126 v -79.25404 c 0,-1.30756 0,-3.36229 0,-3.36229 h -57.49707 v 82.72307 a 38.882169,40.187399 0 0 1 -38.33999,40.21408 H 99.319355 A 38.882169,40.187399 0 0 1 60.979367,399.22233 V 319.96829 A 37.901078,39.173374 0 0 1 99.319355,280.92834 H 402.16653 a 96.301787,99.534527 0 0 0 95.83706,-99.61458 V 101.95299 A 95.346514,98.547187 0 0 0 402.16653,3.4858609 Z M 440.50652,181.20702 a 38.856351,40.160714 0 0 1 -38.33999,40.1874 H 325.61565 V 101.95299 a 37.901078,39.173374 0 0 1 38.33998,-39.039947 h 38.33999 a 37.901078,39.173374 0 0 1 38.2109,39.039947 z"
     style="fill:#0770b8;stroke-width:2.62479"
     id="path859" />
</svg>
