<svg xmlns="http://www.w3.org/2000/svg" viewBox="0 0 500 500">
  <path d="M267.99 387.748a4.931 5.097 0 0 0 0 .667 28.761 29.727 0 0 0 57.497 0 3.305 3.416 0 0 0 0-.747v-71.169h-57.498z"
        style="fill:#fff;stroke-width:2.62479"/>
  <path d="M402.167 3.486h-38.34a95.347 98.547 0 0 0-95.838 98.467v119.441H99.32a95.347 98.547 0 0 0-95.837 98.468v79.254a96.328 99.561 0 0 0 95.837 99.64h38.34a96.328 99.561 0 0 0 95.837-99.64v-82.617H176v82.723a38.882 40.187 0 0 1-38.34 40.214H99.32a38.882 40.187 0 0 1-38.34-40.214v-79.254a37.901 39.173 0 0 1 38.34-39.04h302.848a96.302 99.535 0 0 0 95.837-99.614v-79.361a95.347 98.547 0 0 0-95.837-98.467Zm38.34 177.721a38.856 40.16 0 0 1-38.34 40.187h-76.551V101.953a37.901 39.173 0 0 1 38.34-39.04h38.34a37.901 39.173 0 0 1 38.21 39.04z"
        style="fill:#fff;stroke-width:2.62479"/>
</svg>
