<svg width="166" height="188" viewBox="0 0 166 188" fill="none" xmlns="http://www.w3.org/2000/svg">
<path d="M60.2541 170.276C63.4198 170.276 65.9861 167.709 65.9861 164.544C65.9861 161.378 63.4198 158.812 60.2541 158.812C57.0884 158.812 54.5221 161.378 54.5221 164.544C54.5221 167.709 57.0884 170.276 60.2541 170.276Z" fill="#308720"/>
<path d="M60.2541 140.712C63.4198 140.712 65.9861 138.145 65.9861 134.98C65.9861 131.814 63.4198 129.248 60.2541 129.248C57.0884 129.248 54.5221 131.814 54.5221 134.98C54.5221 138.145 57.0884 140.712 60.2541 140.712Z" fill="#308720"/>
<path d="M60.2541 111.148C63.4198 111.148 65.9861 108.582 65.9861 105.416C65.9861 102.25 63.4198 99.684 60.2541 99.684C57.0884 99.684 54.5221 102.25 54.5221 105.416C54.5221 108.582 57.0884 111.148 60.2541 111.148Z" fill="#308720"/>
<path d="M147.854 161.954H101.82C100.471 161.954 99.3779 163.047 99.3779 164.396V164.69C99.3779 166.038 100.471 167.132 101.82 167.132H147.854C149.203 167.132 150.296 166.038 150.296 164.69V164.396C150.296 163.047 149.203 161.954 147.854 161.954Z" fill="#2F6EB4"/>
<path d="M82.89 161.954H82.596C81.2473 161.954 80.154 163.047 80.154 164.396V164.69C80.154 166.038 81.2473 167.132 82.596 167.132H82.89C84.2387 167.132 85.332 166.038 85.332 164.69V164.396C85.332 163.047 84.2387 161.954 82.89 161.954Z" fill="#2F6EB4"/>
<path d="M99.3779 134.98C99.3811 135.665 99.6548 136.322 100.139 136.806C100.624 137.291 101.281 137.565 101.966 137.568H117.346C117.481 137.568 117.613 137.529 117.726 137.456C117.839 137.383 117.929 137.278 117.984 137.155C118.039 137.032 118.058 136.896 118.038 136.763C118.018 136.629 117.959 136.505 117.87 136.404L114.522 132.626C114.455 132.554 114.375 132.497 114.285 132.458C114.195 132.419 114.098 132.399 114 132.4H101.966C101.282 132.403 100.627 132.676 100.142 133.159C99.6578 133.642 99.3832 134.296 99.3779 134.98Z" fill="#2F6EB4"/>
<path d="M136.458 137.568H147.708C148.054 137.577 148.399 137.518 148.721 137.392C149.044 137.266 149.338 137.077 149.586 136.835C149.834 136.594 150.031 136.305 150.166 135.987C150.301 135.668 150.37 135.325 150.37 134.979C150.37 134.633 150.301 134.29 150.166 133.971C150.031 133.652 149.834 133.363 149.586 133.122C149.338 132.881 149.044 132.692 148.721 132.566C148.399 132.44 148.054 132.38 147.708 132.39H139.88C139.783 132.39 139.686 132.41 139.597 132.45C139.508 132.489 139.428 132.547 139.362 132.62L135.94 136.4C135.849 136.5 135.789 136.625 135.768 136.758C135.746 136.892 135.764 137.029 135.819 137.153C135.874 137.277 135.963 137.382 136.077 137.456C136.19 137.53 136.323 137.57 136.458 137.57V137.568Z" fill="#2F6EB4"/>
<path d="M82.89 132.39H82.596C81.2473 132.39 80.154 133.483 80.154 134.832V135.126C80.154 136.475 81.2473 137.568 82.596 137.568H82.89C84.2387 137.568 85.332 136.475 85.332 135.126V134.832C85.332 133.483 84.2387 132.39 82.89 132.39Z" fill="#2F6EB4"/>
<path d="M165.52 114.636V95.4797C165.517 93.8363 164.863 92.2611 163.701 91.0991C162.539 89.9371 160.964 89.2828 159.32 89.2797H149.47C149.205 89.2797 148.951 89.385 148.763 89.5726C148.576 89.7601 148.47 90.0144 148.47 90.2797C148.47 90.5449 148.576 90.7992 148.763 90.9868C148.951 91.1743 149.205 91.2797 149.47 91.2797H159.314C160.428 91.2797 161.496 91.7222 162.284 92.5098C163.072 93.2975 163.514 94.3658 163.514 95.4797V114.636C163.514 115.75 163.072 116.818 162.284 117.606C161.496 118.393 160.428 118.836 159.314 118.836H150.25C149.985 118.836 149.731 118.941 149.543 119.129C149.356 119.316 149.25 119.57 149.25 119.836C149.25 120.101 149.356 120.355 149.543 120.543C149.731 120.73 149.985 120.836 150.25 120.836H159.314C160.428 120.836 161.496 121.278 162.284 122.066C163.072 122.853 163.514 123.922 163.514 125.036V144.2C163.514 145.314 163.072 146.382 162.284 147.169C161.496 147.957 160.428 148.4 159.314 148.4H47.4363C46.3224 148.4 45.2541 147.957 44.4664 147.169C43.6788 146.382 43.2363 145.314 43.2363 144.2V125.044C43.2363 123.93 43.6788 122.861 44.4664 122.074C45.2541 121.286 46.3224 120.844 47.4363 120.844H103.186C103.451 120.844 103.706 120.738 103.893 120.551C104.081 120.363 104.186 120.109 104.186 119.844C104.186 119.578 104.081 119.324 103.893 119.137C103.706 118.949 103.451 118.844 103.186 118.844H47.4363C46.3224 118.844 45.2541 118.401 44.4664 117.613C43.6788 116.826 43.2363 115.758 43.2363 114.644V95.4797C43.2363 94.3658 43.6788 93.2975 44.4664 92.5098C45.2541 91.7222 46.3224 91.2797 47.4363 91.2797H104.922C105.187 91.2797 105.442 91.1743 105.629 90.9868C105.817 90.7992 105.922 90.5449 105.922 90.2797C105.922 90.0144 105.817 89.7601 105.629 89.5726C105.442 89.385 105.187 89.2797 104.922 89.2797H47.4363C45.7927 89.2823 44.2173 89.9364 43.0551 91.0985C41.893 92.2607 41.2389 93.8361 41.2363 95.4797V114.636C41.2372 115.67 41.4968 116.687 41.9914 117.596C42.486 118.504 43.2 119.274 44.0683 119.836C43.2 120.397 42.486 121.168 41.9914 122.076C41.4968 122.984 41.2372 124.001 41.2363 125.036V144.2C41.2372 145.234 41.4968 146.251 41.9914 147.16C42.486 148.068 43.2 148.838 44.0683 149.4C43.2 149.961 42.486 150.732 41.9914 151.64C41.4968 152.548 41.2372 153.565 41.2363 154.6V173.756C41.2363 175.4 41.8895 176.977 43.0522 178.14C44.2149 179.302 45.7919 179.956 47.4363 179.956H57.7343V181.516C57.7343 183.107 58.3664 184.633 59.4916 185.758C60.6168 186.883 62.143 187.516 63.7343 187.516H77.6523C79.2436 187.516 80.7697 186.883 81.8949 185.758C83.0201 184.633 83.6523 183.107 83.6523 181.516V179.956H123.1V181.516C123.1 183.107 123.732 184.633 124.858 185.758C125.983 186.883 127.509 187.516 129.1 187.516H143.016C144.608 187.516 146.134 186.883 147.259 185.758C148.384 184.633 149.016 183.107 149.016 181.516V179.956H159.314C160.958 179.952 162.533 179.298 163.695 178.136C164.857 176.974 165.511 175.399 165.514 173.756V154.6C165.513 153.565 165.253 152.548 164.758 151.639C164.263 150.731 163.549 149.961 162.68 149.4C163.549 148.838 164.263 148.068 164.758 147.16C165.253 146.252 165.513 145.234 165.514 144.2V125.044C165.513 124.009 165.253 122.992 164.758 122.083C164.263 121.175 163.549 120.405 162.68 119.844C163.551 119.282 164.267 118.511 164.764 117.601C165.26 116.692 165.52 115.672 165.52 114.636ZM163.52 154.6V173.756C163.52 174.87 163.078 175.938 162.29 176.725C161.502 177.513 160.434 177.956 159.32 177.956H47.4363C46.3224 177.956 45.2541 177.513 44.4664 176.725C43.6788 175.938 43.2363 174.87 43.2363 173.756V154.6C43.2363 153.486 43.6788 152.417 44.4664 151.63C45.2541 150.842 46.3224 150.4 47.4363 150.4H159.314C159.866 150.399 160.413 150.507 160.923 150.718C161.434 150.928 161.897 151.238 162.288 151.628C162.679 152.018 162.989 152.481 163.2 152.991C163.411 153.501 163.52 154.048 163.52 154.6Z" fill="#2F6EB4"/>
<path d="M82.89 102.826H82.596C81.2473 102.826 80.154 103.919 80.154 105.268V105.562C80.154 106.911 81.2473 108.004 82.596 108.004H82.89C84.2387 108.004 85.332 106.911 85.332 105.562V105.268C85.332 103.919 84.2387 102.826 82.89 102.826Z" fill="#2F6EB4"/>
<path d="M157.148 101.946C156.91 101.43 156.529 100.994 156.05 100.69C155.571 100.385 155.014 100.225 154.446 100.228H143.092V56.5997C143.092 55.8083 142.777 55.0494 142.218 54.4896C141.658 53.9298 140.9 53.6148 140.108 53.6137H113.842C113.05 53.6143 112.291 53.929 111.731 54.4889C111.172 55.0488 110.857 55.808 110.856 56.5997V100.228H99.5042C98.9361 100.226 98.3793 100.386 97.8992 100.69C97.4191 100.994 97.0356 101.428 96.7937 101.942C96.5518 102.456 96.4615 103.029 96.5336 103.592C96.6056 104.156 96.8368 104.687 97.2002 105.124L124.68 138.144C124.96 138.482 125.312 138.755 125.709 138.942C126.107 139.129 126.541 139.225 126.98 139.225C127.42 139.225 127.854 139.129 128.251 138.942C128.649 138.755 129 138.482 129.28 138.144L156.74 105.124C157.106 104.689 157.339 104.158 157.411 103.595C157.484 103.031 157.392 102.459 157.148 101.946Z" fill="#2F6EB4"/>
<path d="M18.9061 99.4361C18.1164 99.4356 17.3591 99.122 16.8001 98.5641L7.9801 89.7421C7.5134 89.2757 7.2148 88.6675 7.13118 88.0131C7.04756 87.3586 7.18365 86.6949 7.5181 86.1261L7.5621 86.0501L11.5621 81.3581C10.5016 79.4069 9.63673 77.3556 8.9801 75.2341L2.8101 74.7801L2.7261 74.7581C2.08378 74.5952 1.51413 74.2228 1.10732 73.6997C0.700518 73.1766 0.479799 72.5328 0.480103 71.8701V58.5541C0.480145 57.8915 0.700995 57.2479 1.10775 56.7249C1.5145 56.2018 2.08395 55.8293 2.7261 55.6661L2.8101 55.6441L8.9681 55.2001C9.62508 53.0788 10.4899 51.0275 11.5501 49.0761L7.5501 44.3841L7.5061 44.3081C7.17199 43.7392 7.03609 43.0756 7.1197 42.4212C7.20331 41.7668 7.5017 41.1587 7.9681 40.6921L16.7881 31.8721C17.2545 31.4024 17.8639 31.1011 18.5203 31.0156C19.1768 30.9302 19.843 31.0654 20.4141 31.4001L20.4881 31.4441L25.1801 35.4441C27.1317 34.3849 29.1829 33.5208 31.3041 32.8641L31.7581 26.7061L31.7801 26.6201C31.9441 25.9782 32.3172 25.4091 32.8405 25.0028C33.3638 24.5964 34.0076 24.3759 34.6701 24.3761H47.9841C48.6467 24.3759 49.2904 24.5964 49.8137 25.0028C50.337 25.4091 50.7101 25.9782 50.8741 26.6201L50.8961 26.7061L51.3501 32.8641C53.4713 33.5208 55.5225 34.3849 57.4741 35.4441L62.1661 31.4441L62.2401 31.4001C62.8096 31.0664 63.4736 30.931 64.1283 31.0149C64.7829 31.0989 65.3913 31.3975 65.8581 31.8641L74.6781 40.6841C75.1445 41.1507 75.4429 41.7588 75.5265 42.4132C75.6101 43.0676 75.4742 43.7312 75.1401 44.3001L75.0961 44.3761L71.0961 49.0681C72.1598 51.0215 73.0274 53.0756 73.6861 55.2001L79.8441 55.6541L79.9281 55.6761C80.5703 55.8393 81.1397 56.2118 81.5465 56.7349C81.9532 57.2579 82.1741 57.9015 82.1741 58.5641V71.8801C82.1745 72.5425 81.9541 73.1861 81.5477 73.7092C81.1413 74.2322 80.5721 74.6048 79.9301 74.7681L79.8441 74.7901L73.6861 75.2441C72.9592 77.5903 71.9788 79.8504 70.7621 81.9841C70.6964 82.0981 70.609 82.198 70.5047 82.2782C70.4004 82.3584 70.2813 82.4173 70.1543 82.4514C70.0273 82.4856 69.8948 82.4944 69.7643 82.4774C69.6339 82.4603 69.5081 82.4178 69.3941 82.3521C69.2801 82.2864 69.1802 82.199 69.1 82.0947C69.0198 81.9904 68.961 81.8713 68.9268 81.7443C68.8926 81.6173 68.8838 81.4848 68.9008 81.3543C68.9179 81.2239 68.9604 81.0981 69.0261 80.9841C70.2799 78.7862 71.2662 76.4463 71.9641 74.0141L72.1641 73.3441L79.5041 72.8001C79.6991 72.7348 79.8687 72.6099 79.9889 72.443C80.1091 72.2761 80.1739 72.0758 80.1741 71.8701V58.5541C80.1739 58.3484 80.1091 58.1481 79.9889 57.9812C79.8687 57.8143 79.6991 57.6894 79.5041 57.6241L72.1561 57.0821L71.9561 56.4121C71.2578 53.9801 70.2715 51.6401 69.0181 49.4421L68.6701 48.8421L73.4421 43.2301C73.5323 43.0464 73.5628 42.8392 73.5295 42.6373C73.4961 42.4354 73.4006 42.249 73.2561 42.1041L64.4361 33.2841C64.2909 33.1395 64.1041 33.0438 63.9019 33.0105C63.6997 32.9771 63.4921 33.0078 63.3081 33.0981L57.6981 37.8701L57.0981 37.5221C54.9003 36.2682 52.5603 35.2819 50.1281 34.5841L49.4561 34.3841L48.9141 27.0341C48.849 26.8391 48.724 26.6697 48.5571 26.5498C48.3901 26.4299 48.1897 26.3656 47.9841 26.3661H34.6701C34.4646 26.3659 34.2643 26.4303 34.0974 26.5501C33.9305 26.67 33.8055 26.8393 33.7401 27.0341L33.2001 34.3841L32.5301 34.5841C30.0976 35.2811 27.7576 36.2675 25.5601 37.5221L24.9601 37.8701L19.3501 33.0981C19.1664 33.0079 18.9592 32.9774 18.7573 33.0107C18.5554 33.0441 18.369 33.1397 18.2241 33.2841L9.4001 42.0961C9.25566 42.241 9.16008 42.4274 9.12674 42.6293C9.09339 42.8312 9.12394 43.0384 9.2141 43.2221L13.9861 48.8341L13.6381 49.4341C12.3847 51.6321 11.3984 53.972 10.7001 56.4041L10.5001 57.0741L3.1521 57.6161C2.95711 57.6814 2.78755 57.8064 2.66734 57.9732C2.54713 58.1401 2.48234 58.3405 2.4821 58.5461V71.8621C2.48234 72.0678 2.54713 72.2681 2.66734 72.435C2.78755 72.6019 2.95711 72.7268 3.1521 72.7921L10.5001 73.3341L10.7001 74.0041C11.3989 76.436 12.3852 78.7758 13.6381 80.9741L13.9861 81.5741L9.2001 87.2001C9.10993 87.3838 9.07939 87.591 9.11274 87.7929C9.14608 87.9948 9.24166 88.1812 9.3861 88.3261L18.2081 97.1461C18.3525 97.2914 18.5388 97.3877 18.7408 97.4214C18.9429 97.4552 19.1504 97.4246 19.3341 97.3341L24.9441 92.5621L25.5441 92.9081C27.7426 94.162 30.0832 95.1484 32.5161 95.8461C32.7712 95.9193 32.9869 96.0909 33.1155 96.323C33.2442 96.5552 33.2753 96.829 33.2021 97.0841C33.1289 97.3392 32.9574 97.5549 32.7252 97.6835C32.493 97.8121 32.2192 97.8433 31.9641 97.7701C29.603 97.0929 27.3228 96.1601 25.1641 94.9881L20.4721 98.9881L20.3981 99.0321C19.9451 99.2961 19.4304 99.4355 18.9061 99.4361ZM41.3281 85.0881C37.3968 85.0889 33.5536 83.9239 30.2845 81.7403C27.0154 79.5568 24.4672 76.4529 22.9622 72.8211C21.4572 69.1893 21.0631 65.1928 21.8295 61.3369C22.596 57.4811 24.4887 53.9392 27.2682 51.1591C30.0478 48.379 33.5893 46.4855 37.445 45.7183C41.3007 44.9511 45.2973 45.3444 48.9294 46.8487C52.5615 48.3529 55.6659 50.9005 57.8501 54.1692C60.0343 57.4378 61.2001 61.2808 61.2001 65.2121C61.1938 70.4809 59.0982 75.5321 55.373 79.2581C51.6477 82.9841 46.5969 85.0807 41.3281 85.0881ZM41.3281 47.3361C37.7924 47.3353 34.3359 48.383 31.3956 50.3468C28.4554 52.3106 26.1636 55.1021 24.81 58.3685C23.4564 61.6348 23.1018 65.2292 23.7911 68.6971C24.4804 72.165 26.1826 75.3505 28.6824 77.8509C31.1823 80.3513 34.3675 82.0543 37.8352 82.7443C41.3029 83.4344 44.8974 83.0806 48.164 81.7278C51.4307 80.3749 54.2228 78.0837 56.1872 75.1439C58.1516 72.2041 59.2001 68.7478 59.2001 65.2121C59.1943 60.4736 57.3096 55.9307 53.9593 52.5797C50.6091 49.2287 46.0666 47.343 41.3281 47.3361Z" fill="#2F6EB4"/>
<path d="M123.078 30.5097L119.026 30.7997C118.593 32.3077 117.98 33.7581 117.2 35.1197L119.83 38.2097C119.964 38.4366 120.018 38.7014 119.984 38.9625C119.95 39.2236 119.831 39.466 119.644 39.6517L114.356 44.9417C114.169 45.1259 113.927 45.2436 113.666 45.2769C113.406 45.3101 113.141 45.257 112.914 45.1257L109.824 42.4957C108.465 43.2719 107.017 43.8823 105.512 44.3137L105.214 48.3657C105.149 48.6215 105 48.8483 104.791 49.0102C104.583 49.1721 104.326 49.2599 104.062 49.2597H96.0861C95.822 49.2599 95.5654 49.1721 95.3568 49.0102C95.1482 48.8483 94.9994 48.6215 94.9341 48.3657L94.6361 44.3137C93.1313 43.8819 91.6837 43.2716 90.3241 42.4957L87.2341 45.1257C87.0067 45.257 86.7425 45.3101 86.482 45.2769C86.2216 45.2436 85.9792 45.1259 85.7921 44.9417L80.5041 39.6517C80.3195 39.4648 80.2014 39.2225 80.1678 38.9621C80.1342 38.7016 80.187 38.4373 80.3181 38.2097L82.9481 35.1197C82.1712 33.7577 81.5608 32.3073 81.1301 30.7997L77.0781 30.5017C76.8222 30.4363 76.5954 30.2876 76.4335 30.079C76.2716 29.8704 76.1839 29.6137 76.1841 29.3497V21.3737C76.1839 21.1096 76.2716 20.853 76.4335 20.6444C76.5954 20.4358 76.8222 20.287 77.0781 20.2217L81.1301 19.9237C81.5618 18.4189 82.1722 16.9713 82.9481 15.6117L80.3181 12.5217C80.187 12.2941 80.1342 12.0298 80.1678 11.7693C80.2014 11.5088 80.3195 11.2666 80.5041 11.0797L85.8001 5.79967C85.987 5.61514 86.2292 5.49702 86.4897 5.46342C86.7502 5.42982 87.0145 5.48261 87.2421 5.61368L90.3321 8.24368C91.6917 7.46775 93.1393 6.85741 94.6441 6.42568L94.9421 2.37368C95.0074 2.11782 95.1562 1.89103 95.3648 1.72914C95.5734 1.56724 95.83 1.47946 96.0941 1.47968H104.078C104.342 1.47946 104.599 1.56724 104.807 1.72914C105.016 1.89103 105.165 2.11782 105.23 2.37368L105.528 6.42568C107.033 6.85705 108.481 7.46741 109.84 8.24368L112.922 5.59968C113.15 5.46861 113.414 5.41582 113.674 5.44942C113.935 5.48302 114.177 5.60114 114.364 5.78568L119.652 11.0797C119.839 11.2653 119.958 11.5078 119.992 11.7688C120.026 12.0299 119.971 12.2948 119.838 12.5217L117.2 15.6117C117.976 16.9713 118.586 18.4189 119.018 19.9237L123.07 20.2217C123.326 20.287 123.553 20.4358 123.715 20.6444C123.877 20.853 123.964 21.1096 123.964 21.3737V29.3577C123.965 29.6207 123.878 29.8765 123.718 30.085C123.557 30.2934 123.332 30.4428 123.078 30.5097ZM100.078 14.0457C97.8392 14.0457 95.6506 14.7096 93.789 15.9534C91.9275 17.1973 90.4765 18.9652 89.6198 21.0337C88.763 23.1022 88.5388 25.3782 88.9756 27.5741C89.4124 29.77 90.4905 31.787 92.0736 33.3701C93.6568 34.9533 95.6738 36.0314 97.8697 36.4682C100.066 36.9049 102.342 36.6808 104.41 35.824C106.479 34.9672 108.246 33.5163 109.49 31.6547C110.734 29.7932 111.398 27.6046 111.398 25.3657C111.398 22.3634 110.205 19.4841 108.083 17.3612C105.96 15.2383 103.08 14.0457 100.078 14.0457Z" fill="#A3C2DA"/>
<path d="M104.07 50.2598H96.0861C95.6001 50.2598 95.1279 50.0981 94.744 49.8C94.3602 49.502 94.0865 49.0846 93.9661 48.6138L93.9441 48.5278L93.6881 45.0698C92.571 44.7079 91.4871 44.2509 90.4481 43.7038L87.8161 45.9438L87.7401 45.9878C87.3224 46.2328 86.8353 46.3323 86.355 46.2708C85.8748 46.2092 85.4285 45.9901 85.0861 45.6478L79.8001 40.3578C79.4577 40.0154 79.2386 39.5691 79.1771 39.0888C79.1156 38.6086 79.2151 38.1215 79.4601 37.7038L79.5041 37.6298L81.7401 34.9998C81.1935 33.9606 80.7365 32.8767 80.3741 31.7598L76.9161 31.5038L76.8321 31.4818C76.3605 31.3624 75.9423 31.089 75.6438 30.705C75.3452 30.321 75.1835 29.8482 75.1841 29.3618V21.3738C75.1838 20.8875 75.3457 20.4149 75.6442 20.031C75.9427 19.647 76.3607 19.3735 76.8321 19.2538L76.9181 19.2318L80.3741 18.9778C80.7365 17.8603 81.1935 16.7757 81.7401 15.7358L79.5001 13.1038L79.4561 13.0278C79.2116 12.6097 79.1128 12.1224 79.175 11.6421C79.2373 11.1618 79.4571 10.7157 79.8001 10.3738L85.0901 5.08382C85.4325 4.74147 85.8788 4.52238 86.3591 4.46085C86.8393 4.39933 87.3264 4.49884 87.7441 4.74382L87.8201 4.78782L90.4521 7.02782C91.4913 6.48123 92.5752 6.02424 93.6921 5.66182L93.9441 2.19982L93.9661 2.11382C94.0861 1.64261 94.3596 1.2248 94.7435 0.926365C95.1275 0.627934 95.5998 0.465889 96.0861 0.465819H104.07C104.559 0.463294 105.035 0.624914 105.421 0.924798C105.807 1.22468 106.081 1.64548 106.2 2.11982L106.222 2.20582L106.478 5.66182C107.595 6.02424 108.679 6.48123 109.718 7.02782L112.352 4.78782L112.426 4.74382C112.844 4.49884 113.331 4.39933 113.811 4.46085C114.291 4.52238 114.738 4.74147 115.08 5.08382L120.36 10.3738C120.702 10.7162 120.922 11.1625 120.983 11.6428C121.045 12.1231 120.945 12.6102 120.7 13.0278L120.656 13.1038L118.416 15.7358C118.963 16.7757 119.42 17.8603 119.782 18.9778L123.24 19.2318L123.324 19.2538C123.795 19.3735 124.213 19.647 124.512 20.031C124.81 20.4149 124.972 20.8875 124.972 21.3738V29.3578C124.973 29.8442 124.811 30.317 124.512 30.701C124.214 31.085 123.796 31.3584 123.324 31.4778L123.24 31.4998L119.782 31.7558C119.42 32.8727 118.963 33.9566 118.416 34.9958L120.656 37.6298L120.7 37.7038C120.945 38.1215 121.045 38.6086 120.983 39.0888C120.922 39.5691 120.702 40.0154 120.36 40.3578L115.07 45.6478C114.728 45.9901 114.281 46.2092 113.801 46.2708C113.321 46.3323 112.834 46.2328 112.416 45.9878L112.342 45.9438L109.708 43.7038C108.669 44.2504 107.585 44.7074 106.468 45.0698L106.212 48.5278L106.19 48.6118C106.071 49.0834 105.797 49.5016 105.413 49.8001C105.029 50.0986 104.557 50.2604 104.07 50.2598ZM95.9221 48.1658C95.9395 48.1938 95.9637 48.217 95.9923 48.2334C96.0209 48.2498 96.0531 48.2589 96.0861 48.2598H104.07C104.103 48.26 104.136 48.2514 104.165 48.2349C104.194 48.2184 104.217 48.1946 104.234 48.1658L104.574 43.5438L105.244 43.3438C106.672 42.9352 108.046 42.3564 109.336 41.6198L109.946 41.2718L113.474 44.2718C113.506 44.2807 113.54 44.281 113.572 44.2725C113.604 44.2641 113.633 44.2473 113.656 44.2238L118.946 38.9338C118.97 38.9105 118.986 38.8813 118.995 38.8493C119.003 38.8173 119.003 38.7837 118.994 38.7518L115.994 35.2238L116.342 34.6238C117.079 33.334 117.658 31.9601 118.066 30.5318L118.266 29.8618L122.888 29.5218C122.916 29.5043 122.939 29.4802 122.956 29.4516C122.972 29.423 122.981 29.3908 122.982 29.3578V21.3738C122.981 21.3408 122.972 21.3086 122.956 21.28C122.939 21.2514 122.916 21.2273 122.888 21.2098L118.266 20.8698L118.066 20.1998C117.657 18.7717 117.079 17.3978 116.342 16.1078L116 15.4978L119 11.9698C119.009 11.938 119.009 11.9043 119.001 11.8723C118.992 11.8403 118.976 11.8111 118.952 11.7878L113.656 6.49782C113.633 6.47435 113.604 6.45753 113.572 6.4491C113.54 6.44066 113.506 6.44091 113.474 6.44982L109.946 9.44982L109.336 9.10182C108.046 8.36526 106.672 7.78644 105.244 7.37782L104.574 7.17782L104.234 2.55582C104.217 2.52784 104.193 2.50462 104.164 2.48822C104.135 2.47182 104.103 2.46275 104.07 2.46182H96.0861C96.0531 2.46275 96.0209 2.47182 95.9923 2.48822C95.9637 2.50462 95.9395 2.52784 95.9221 2.55582L95.5821 7.17782L94.9121 7.37782C93.4841 7.78681 92.1102 8.36561 90.8201 9.10182L90.2101 9.44982L86.6821 6.44982C86.6502 6.44091 86.6166 6.44066 86.5846 6.4491C86.5526 6.45753 86.5234 6.47435 86.5001 6.49782L81.2101 11.7878C81.1866 11.8111 81.1698 11.8403 81.1614 11.8723C81.1529 11.9043 81.1532 11.938 81.1621 11.9698L84.1621 15.4978L83.8141 16.1078C83.0786 17.3981 82.5004 18.7719 82.0921 20.1998L81.8921 20.8698L77.2701 21.2098C77.2421 21.2273 77.2189 21.2514 77.2025 21.28C77.1861 21.3086 77.177 21.3408 77.1761 21.3738V29.3578C77.177 29.3908 77.1861 29.423 77.2025 29.4516C77.2189 29.4802 77.2421 29.5043 77.2701 29.5218L81.8921 29.8618L82.0921 30.5318C82.5016 31.9597 83.0804 33.3334 83.8161 34.6238L84.1641 35.2238L81.1641 38.7518C81.1552 38.7837 81.1549 38.8173 81.1634 38.8493C81.1718 38.8813 81.1886 38.9105 81.2121 38.9338L86.5021 44.2238C86.5254 44.2473 86.5546 44.2641 86.5866 44.2725C86.6185 44.281 86.6522 44.2807 86.6841 44.2718L90.2121 41.2718L90.8221 41.6198C92.1122 42.356 93.4861 42.9348 94.9141 43.3438L95.5841 43.5438L95.9221 48.1658ZM100.078 37.6858C97.6414 37.6858 95.2595 36.9633 93.2335 35.6095C91.2074 34.2558 89.6284 32.3317 88.6959 30.0805C87.7634 27.8293 87.5194 25.3521 87.9948 22.9623C88.4702 20.5725 89.6435 18.3772 91.3665 16.6543C93.0895 14.9313 95.2847 13.7579 97.6746 13.2825C100.064 12.8072 102.542 13.0511 104.793 13.9836C107.044 14.9161 108.968 16.4952 110.322 18.5212C111.676 20.5472 112.398 22.9291 112.398 25.3658C112.394 28.6321 111.095 31.7636 108.786 34.0733C106.476 36.3829 103.344 37.6821 100.078 37.6858ZM100.078 15.0458C98.037 15.0458 96.0417 15.6511 94.3446 16.785C92.6475 17.919 91.3247 19.5308 90.5436 21.4165C89.7626 23.3023 89.5582 25.3773 89.9564 27.3791C90.3546 29.381 91.3375 31.2199 92.7807 32.6632C94.224 34.1064 96.0629 35.0893 98.0648 35.4875C100.067 35.8857 102.142 35.6813 104.027 34.9002C105.913 34.1192 107.525 32.7964 108.659 31.0993C109.793 29.4022 110.398 27.4069 110.398 25.3658C110.395 22.6298 109.307 20.0067 107.372 18.072C105.437 16.1373 102.814 15.049 100.078 15.0458Z" fill="#2F6EB4"/>
</svg>
