<?xml version="1.0" encoding="utf-8"?>
<!-- Generator: Adobe Illustrator 24.1.0, SVG Export Plug-In . SVG Version: 6.00 Build 0)  -->
<svg version="1.1" id="Ebene_1" xmlns="http://www.w3.org/2000/svg" xmlns:xlink="http://www.w3.org/1999/xlink" x="0px" y="0px"
	 viewBox="0 0 1000 1000" style="enable-background:new 0 0 1000 1000;" xml:space="preserve">
<style type="text/css">
	.st0{fill:none;}
	.st1{fill:#FFFFFF;}
	.st2{fill:#0070BA;}
	.st3{fill:#66CB92;}
	.st4{fill:#9FCDE0;}
</style>
<g>
	<circle class="st0" cx="271" cy="356.7" r="89.4"/>
	<path class="st0" d="M564.7,209c28.5,0,51.6-23.1,51.6-51.6c0-28.5-23.1-51.6-51.6-51.6c-28.5,0-51.6,23.1-51.6,51.6
		C513.1,185.9,536.3,209,564.7,209z"/>
	<path class="st0" d="M786.8,629.8l23.8,0c0,0,0,0,0,0c0-2.7,2.2-4.9,4.9-5l-0.8-28.5L786.8,629.8z"/>
	<path class="st0" d="M582.3,594.6l-1.8,30.2c2.6,0.2,4.7,2.3,4.7,5c0,0,0,0,0,0l26.4,0L582.3,594.6z"/>
	<path class="st0" d="M450.8,178.2l23.1,1.7l1,3.4c2,7.1,4.9,14,8.6,20.5l1.7,3l-15,17.6c-0.1,0.3,0,0.7,0.3,1l26.4,26.4
		c0.2,0.2,0.6,0.3,0.9,0.2l17.7-15l3,1.7c6.4,3.7,13.3,6.6,20.4,8.6l3.3,1l1.7,23.1c0.2,0.3,0.5,0.5,0.9,0.5h39.9h0
		c0.3,0,0.7-0.2,0.8-0.5l1.7-23.1l3.4-1c7.1-2,14-4.9,20.5-8.6l3-1.7l17.6,15c0.3,0.1,0.7,0,1-0.3l26.4-26.4
		c0.2-0.2,0.3-0.6,0.2-0.9l-15-17.6l1.7-3c3.7-6.4,6.6-13.3,8.6-20.5l1-3.4l23.1-1.7c0.3-0.2,0.5-0.5,0.5-0.9v-39.9
		c0-0.3-0.2-0.7-0.5-0.8l-23.1-1.7l-1-3.4c-2-7.1-4.9-14-8.6-20.5l-1.7-3l15-17.6c0.1-0.3,0-0.7-0.2-0.9l-26.4-26.4
		c-0.2-0.2-0.6-0.3-0.9-0.2l-17.6,15l-3-1.7c-6.4-3.7-13.3-6.6-20.5-8.6l-3.4-1l-1.7-23.1c-0.2-0.3-0.5-0.5-0.8-0.5h-39.9
		c-0.3,0-0.6,0.2-0.8,0.5l-1.6,23.1l-3.4,1c-7.1,2-14,4.9-20.5,8.6l-3,1.7l-17.7-15c-0.3-0.1-0.7,0-1,0.3l-26.4,26.4
		c-0.2,0.2-0.3,0.6-0.2,0.9l15,17.6l-1.7,3.1c-3.7,6.4-6.6,13.3-8.6,20.5l-1,3.4l-23.1,1.7c-0.3,0.2-0.5,0.5-0.5,0.8v39.9
		C450.3,177.7,450.5,178.1,450.8,178.2z M564.7,95.9c34,0,61.6,27.6,61.6,61.6S598.7,219,564.7,219c-34,0-61.6-27.6-61.6-61.6
		S530.8,95.9,564.7,95.9z"/>
	<path class="st1" d="M860.9,782.6H301.5c-11.6,0-21,9.4-21,21v95.8c0,11.6,9.4,21,21,21H358h119.6h207.2h119.6h56.5
		c11.6,0,21-9.4,21-21v-95.8C881.9,792.1,872.5,782.6,860.9,782.6z M365.6,885.5c-17.7,0-32.2-14.4-32.2-32.2s14.4-32.2,32.2-32.2
		c17.7,0,32.2,14.4,32.2,32.2S383.3,885.5,365.6,885.5z M491,854.1c0,6.7-5.5,12.2-12.2,12.2h-1.5c-6.7,0-12.2-5.5-12.2-12.2v-1.5
		c0-6.7,5.5-12.2,12.2-12.2h1.5c6.7,0,12.2,5.5,12.2,12.2V854.1z M815.8,854.1c0,6.7-5.5,12.2-12.2,12.2H573.4
		c-6.7,0-12.2-5.5-12.2-12.2v-1.5c0-6.7,5.5-12.2,12.2-12.2h230.2c6.7,0,12.2,5.5,12.2,12.2V854.1z"/>
	<path class="st1" d="M478.8,847.4h-1.5c-2.9,0-5.2,2.3-5.2,5.2v1.5c0,2.9,2.3,5.2,5.2,5.2h1.5c2.9,0,5.2-2.3,5.2-5.2v-1.5
		C484,849.7,481.7,847.4,478.8,847.4z"/>
	<path class="st1" d="M803.6,847.4H573.4c-2.9,0-5.2,2.3-5.2,5.2v1.5c0,2.9,2.3,5.2,5.2,5.2h230.2c2.9,0,5.2-2.3,5.2-5.2v-1.5
		C808.8,849.7,806.5,847.4,803.6,847.4z"/>
	<path class="st2" d="M877.7,777.6c8.5-5.5,14.2-15.1,14.2-26v-95.8c0-10.9-5.6-20.5-14.2-26c8.5-5.5,14.2-15.1,14.2-26V508
		c0-17.1-13.9-31-31-31h-49.2c-2.8,0-5,2.2-5,5s2.2,5,5,5h0.1h49.1c11.6,0,21,9.4,21,21v95.8c0,11.6-9.4,21-21,21h-45.3
		c0,0-0.1,0-0.1,0c-2.7,0.1-4.9,2.3-4.9,5c0,0,0,0,0,0c0,2.8,2.2,5,5,5h45.1c0.1,0,0.1,0,0.2,0c11.6,0,21,9.4,21,21v95.8
		c0,11.6-9.4,21-21,21H301.5c-11.6,0-21-9.4-21-21v-95.8c0-11.6,9.4-21,21-21h219.8c0.1,0,0.1,0,0.2,0h58.8c2.8,0,5-2.2,5-5
		c0,0,0,0,0,0c0-2.7-2.1-4.8-4.7-5c-0.1,0-0.2,0-0.3,0H301.5c-11.6,0-21-9.4-21-21V508c0-11.6,9.4-21,21-21h287.1h0.3
		c2.8,0,5-2.2,5-5s-2.2-5-5-5H301.5c-17.1,0-31,13.9-31,31v95.8c0,10.9,5.6,20.5,14.2,26c-8.5,5.5-14.2,15.1-14.2,26v95.8
		c0,10.9,5.7,20.5,14.2,26c-8.5,5.5-14.2,15.1-14.2,26v95.8c0,17.1,13.9,31,31,31H353v7.8c0,16.5,13.5,30,30,30h69.6
		c16.5,0,30-13.5,30-30v-7.8h197.2v7.8c0,16.5,13.5,30,30,30h69.6c16.5,0,30-13.5,30-30v-7.8h51.5c17.1,0,31-13.9,31-31v-95.8
		C891.9,792.8,886.3,783.1,877.7,777.6z M881.9,899.4c0,11.6-9.4,21-21,21h-56.5H684.8H477.6H358h-56.5c-11.6,0-21-9.4-21-21v-95.8
		c0-11.6,9.4-21,21-21h559.4c11.6,0,21,9.4,21,21V899.4z M799.4,938.2c0,11-9,20-20,20h-69.6c-11,0-20-9-20-20v-7.8h109.6V938.2z
		 M472.6,938.2c0,11-9,20-20,20H383c-11,0-20-9-20-20v-7.8h109.6V938.2z"/>
	<path class="st3" d="M365.6,828.2c-13.9,0-25.2,11.3-25.2,25.2s11.3,25.2,25.2,25.2c13.9,0,25.2-11.3,25.2-25.2
		S379.5,828.2,365.6,828.2z"/>
	<path class="st2" d="M365.6,821.2c-17.7,0-32.2,14.4-32.2,32.2s14.4,32.2,32.2,32.2c17.7,0,32.2-14.4,32.2-32.2
		S383.3,821.2,365.6,821.2z M365.6,878.5c-13.9,0-25.2-11.3-25.2-25.2s11.3-25.2,25.2-25.2c13.9,0,25.2,11.3,25.2,25.2
		S379.5,878.5,365.6,878.5z"/>
	<path class="st2" d="M803.6,840.4H573.4c-6.7,0-12.2,5.5-12.2,12.2v1.5c0,6.7,5.5,12.2,12.2,12.2h230.2c6.7,0,12.2-5.5,12.2-12.2
		v-1.5C815.8,845.9,810.3,840.4,803.6,840.4z M808.8,854.1c0,2.9-2.3,5.2-5.2,5.2H573.4c-2.9,0-5.2-2.3-5.2-5.2v-1.5
		c0-2.9,2.3-5.2,5.2-5.2h230.2c2.9,0,5.2,2.3,5.2,5.2V854.1z"/>
	<path class="st2" d="M478.8,840.4h-1.5c-6.7,0-12.2,5.5-12.2,12.2v1.5c0,6.7,5.5,12.2,12.2,12.2h1.5c6.7,0,12.2-5.5,12.2-12.2v-1.5
		C491,845.9,485.5,840.4,478.8,840.4z M484,854.1c0,2.9-2.3,5.2-5.2,5.2h-1.5c-2.9,0-5.2-2.3-5.2-5.2v-1.5c0-2.9,2.3-5.2,5.2-5.2
		h1.5c2.9,0,5.2,2.3,5.2,5.2V854.1z"/>
	<path class="st1" d="M710.7,721.3c-0.6,0.7-1.2,1.3-1.9,1.9c-2.7,2.3-6,3.5-9.5,3.5c-0.5,0-0.9,0-1.4-0.1c-4-0.4-7.6-2.2-10.1-5.3
		l-76.1-91.5l-26.4,0c0,2.8-2.2,5-5,5h-58.8c-0.1,0-0.1,0-0.2,0H301.5c-11.6,0-21,9.4-21,21v95.8c0,11.6,9.4,21,21,21h559.4
		c11.6,0,21-9.4,21-21v-95.8c0-11.6-9.4-21-21-21c-0.1,0-0.1,0-0.2,0h-45.1c-2.8,0-5-2.2-5-5l-23.8,0L710.7,721.3z M365.6,737.7
		c-17.7,0-32.2-14.4-32.2-32.2c0-17.7,14.4-32.2,32.2-32.2c17.7,0,32.2,14.4,32.2,32.2C397.8,723.3,383.3,737.7,365.6,737.7z
		 M491,706.2c0,6.7-5.5,12.2-12.2,12.2h-1.5c-6.7,0-12.2-5.5-12.2-12.2v-1.5c0-6.7,5.5-12.2,12.2-12.2h1.5c6.7,0,12.2,5.5,12.2,12.2
		V706.2z M647.1,718.5h-72.9c-7.1,0-12.9-5.8-13-12.9c0-7.1,5.8-13,13-13h60.2c1.9,0,3.5,1.6,3.5,3.5s-1.6,3.5-3.5,3.5h-60.2
		c-3.3,0-6,2.7-6,5.9c0,3.3,2.7,5.9,6,5.9h72.9c1.9,0,3.5,1.6,3.5,3.5S649,718.5,647.1,718.5z M815.8,705.5c0,7.1-5.8,12.9-13,12.9
		h-58.2c-1.9,0-3.5-1.6-3.5-3.5s1.6-3.5,3.5-3.5h58.2c3.3,0,5.9-2.7,6-5.9c0-3.3-2.7-5.9-6-5.9h-41.1c-1.9,0-3.5-1.6-3.5-3.5
		s1.6-3.5,3.5-3.5h41.1C810,692.6,815.8,698.4,815.8,705.5z"/>
	<path class="st1" d="M478.8,699.6h-1.5c-2.9,0-5.2,2.3-5.2,5.2v1.5c0,2.9,2.3,5.2,5.2,5.2h1.5c2.9,0,5.2-2.3,5.2-5.2v-1.5
		C484,701.9,481.7,699.6,478.8,699.6z"/>
	<path class="st3" d="M365.6,680.4c-13.9,0-25.2,11.3-25.2,25.2s11.3,25.2,25.2,25.2c13.9,0,25.2-11.3,25.2-25.2
		S379.5,680.4,365.6,680.4z"/>
	<path class="st2" d="M365.6,673.4c-17.7,0-32.2,14.4-32.2,32.2c0,17.7,14.4,32.2,32.2,32.2c17.7,0,32.2-14.4,32.2-32.2
		C397.8,687.8,383.3,673.4,365.6,673.4z M365.6,730.7c-13.9,0-25.2-11.3-25.2-25.2s11.3-25.2,25.2-25.2c13.9,0,25.2,11.3,25.2,25.2
		S379.5,730.7,365.6,730.7z"/>
	<path class="st2" d="M647.1,711.5h-72.9c-3.3,0-5.9-2.7-6-5.9c0-3.3,2.7-5.9,6-5.9h60.2c1.9,0,3.5-1.6,3.5-3.5s-1.6-3.5-3.5-3.5
		h-60.2c-7.1,0-13,5.8-13,13c0,7.1,5.8,12.9,13,12.9h72.9c1.9,0,3.5-1.6,3.5-3.5S649,711.5,647.1,711.5z"/>
	<path class="st2" d="M758.2,696.1c0,1.9,1.6,3.5,3.5,3.5h41.1c3.3,0,6,2.7,6,5.9c0,3.3-2.7,5.9-6,5.9h-58.2c-1.9,0-3.5,1.6-3.5,3.5
		s1.6,3.5,3.5,3.5h58.2c7.1,0,12.9-5.8,13-12.9c0-7.1-5.8-12.9-13-12.9h-41.1C759.8,692.6,758.2,694.1,758.2,696.1z"/>
	<path class="st2" d="M478.8,692.6h-1.5c-6.7,0-12.2,5.5-12.2,12.2v1.5c0,6.7,5.5,12.2,12.2,12.2h1.5c6.7,0,12.2-5.5,12.2-12.2v-1.5
		C491,698,485.5,692.6,478.8,692.6z M484,706.2c0,2.9-2.3,5.2-5.2,5.2h-1.5c-2.9,0-5.2-2.3-5.2-5.2v-1.5c0-2.9,2.3-5.2,5.2-5.2h1.5
		c2.9,0,5.2,2.3,5.2,5.2V706.2z"/>
	<path class="st1" d="M280.5,508v95.8c0,11.6,9.4,21,21,21h278.8c0.1,0,0.2,0,0.3,0l1.8-30.2l-32-38.4c-2.2-2.7-3.4-6-3.4-9.5
		c0-4,1.5-7.7,4.4-10.6c2.8-2.8,6.6-4.4,10.5-4.4H586l2.6-44.8H301.5C289.9,487,280.5,496.4,280.5,508z M465.1,557
		c0-6.7,5.5-12.2,12.2-12.2h1.5c6.7,0,12.2,5.5,12.2,12.2v1.5c0,6.7-5.5,12.2-12.2,12.2h-1.5c-6.7,0-12.2-5.5-12.2-12.2V557z
		 M365.6,525.5c17.7,0,32.2,14.4,32.2,32.2s-14.4,32.2-32.2,32.2c-17.7,0-32.2-14.4-32.2-32.2S347.9,525.5,365.6,525.5z"/>
	<path class="st1" d="M477.3,563.6h1.5c2.9,0,5.2-2.3,5.2-5.2V557c0-2.9-2.3-5.2-5.2-5.2h-1.5c-2.9,0-5.2,2.3-5.2,5.2v1.5
		C472.1,561.3,474.4,563.6,477.3,563.6z"/>
	<path class="st1" d="M846.1,535.2c6.3,5.3,7.2,14.7,1.9,21l-33.3,40.1l0.8,28.5c0,0,0.1,0,0.1,0h45.3c11.6,0,21-9.4,21-21V508
		c0-11.6-9.4-21-21-21h-49.1l1.2,44.7h23.6C840,531.7,843.4,532.9,846.1,535.2z"/>
	<path class="st3" d="M340.4,557.7c0,13.9,11.3,25.2,25.2,25.2c13.9,0,25.2-11.3,25.2-25.2s-11.3-25.2-25.2-25.2
		C351.7,532.5,340.4,543.8,340.4,557.7z"/>
	<path class="st2" d="M365.6,589.9c17.7,0,32.2-14.4,32.2-32.2s-14.4-32.2-32.2-32.2c-17.7,0-32.2,14.4-32.2,32.2
		S347.9,589.9,365.6,589.9z M390.8,557.7c0,13.9-11.3,25.2-25.2,25.2c-13.9,0-25.2-11.3-25.2-25.2s11.3-25.2,25.2-25.2
		C379.5,532.5,390.8,543.8,390.8,557.7z"/>
	<path class="st2" d="M477.3,570.6h1.5c6.7,0,12.2-5.5,12.2-12.2V557c0-6.7-5.5-12.2-12.2-12.2h-1.5c-6.7,0-12.2,5.5-12.2,12.2v1.5
		C465.1,565.2,470.6,570.6,477.3,570.6z M472.1,557c0-2.9,2.3-5.2,5.2-5.2h1.5c2.9,0,5.2,2.3,5.2,5.2v1.5c0,2.9-2.3,5.2-5.2,5.2
		h-1.5c-2.9,0-5.2-2.3-5.2-5.2V557z"/>
	<path class="st4" d="M363,938.2c0,11,9,20,20,20h69.6c11,0,20-9,20-20v-7.8H363V938.2z"/>
	<path class="st4" d="M689.8,938.2c0,11,9,20,20,20h69.6c11,0,20-9,20-20v-7.8H689.8V938.2z"/>
	<path class="st4" d="M585.4,541.8h-23.6c-1.3,0-2.5,0.5-3.5,1.4c-0.9,0.9-1.4,2.2-1.4,3.5c0,1.1,0.4,2.2,1.1,3.1l25.1,30.2
		l41.5,49.8l70.8,85.1c0.8,1,2,1.6,3.3,1.8c1.3,0.1,2.6-0.3,3.6-1.1c0.2-0.2,0.4-0.4,0.6-0.6l70.8-85.1l40.5-48.7l26.1-31.3
		c1.7-2.1,1.5-5.2-0.6-6.9c-0.9-0.7-2-1.1-3.2-1.1h-23.3h-43.5V313.6c0-2.7-2.2-4.9-4.9-4.9H633.5c0,0,0,0,0,0
		c-1.3,0-2.6,0.5-3.5,1.4c-0.9,0.9-1.4,2.2-1.4,3.5l-5,0h5v228.1H585.4z"/>
	<path class="st2" d="M551.3,536.1c-2.8,2.8-4.4,6.6-4.4,10.6c0,3.5,1.2,6.8,3.4,9.5l32,38.4l29.3,35.2l76.1,91.5
		c2.6,3.1,6.1,5,10.1,5.3c0.5,0,0.9,0.1,1.4,0.1c3.5,0,6.8-1.2,9.5-3.5c0.7-0.6,1.3-1.2,1.9-1.9l76.1-91.5l27.9-33.6l33.3-40.1
		c5.3-6.3,4.4-15.8-1.9-21c-2.7-2.2-6.1-3.5-9.5-3.5H813h-33.2V313.6c0-8.2-6.7-14.9-14.9-14.9H633.5c0,0,0,0,0,0
		c-4,0-7.7,1.5-10.5,4.4c-2.8,2.8-4.4,6.6-4.4,10.6v218.1H586h-24.2C557.9,531.8,554.1,533.3,551.3,536.1z M623.6,313.6l5,0
		c0-1.3,0.5-2.5,1.4-3.5c0.9-0.9,2.2-1.4,3.5-1.4c0,0,0,0,0,0h131.3c2.7,0,4.9,2.2,4.9,4.9v228.1h43.5h23.3c1.1,0,2.3,0.4,3.2,1.1
		c2.1,1.7,2.4,4.9,0.6,6.9l-26.1,31.3l-40.5,48.7L703,714.9c-0.2,0.2-0.4,0.4-0.6,0.6c-1,0.8-2.3,1.2-3.6,1.1
		c-1.3-0.1-2.5-0.7-3.3-1.8l-70.8-85.1L583.2,580l-25.1-30.2c-0.7-0.9-1.1-2-1.1-3.1c0-1.3,0.5-2.6,1.4-3.5c0.9-0.9,2.2-1.4,3.5-1.4
		h23.6h43.2V313.6H623.6z"/>
	<path class="st2" d="M227,509.9c-12.2-3.5-23.9-8.4-34.9-14.7l-3-1.7l-28,23.9c-1.9,0.9-4.1,0.6-5.6-0.9l-44.1-44.1
		c-1.5-1.5-1.8-3.7-0.9-5.6l23.9-28.1l-1.7-3c-6.3-11-11.2-22.7-14.7-34.8l-1-3.4l-36.8-2.7c-2-0.7-3.3-2.5-3.3-4.7v-66.6
		c0-2.1,1.4-4,3.3-4.7l36.8-2.7l1-3.4c3.5-12.1,8.4-23.9,14.7-34.8l1.7-3l-23.9-28c-0.9-1.9-0.6-4.1,0.9-5.6l44.1-44.1
		c1.5-1.5,3.8-1.8,5.6-0.9l28,23.9l3-1.7c11-6.3,22.7-11.2,34.9-14.7l3.4-1l2.7-36.7c0.7-2,2.5-3.3,4.7-3.3h66.6
		c2.1,0,4,1.4,4.7,3.3l2.7,36.7l3.4,1c12.2,3.5,23.9,8.4,34.9,14.7l3,1.7l28-23.9c1.9-0.9,4.1-0.6,5.6,0.9l44.1,44.1
		c1.5,1.5,1.8,3.8,0.9,5.6l-23.9,28l1.7,3.1c6.3,11,11.2,22.7,14.7,34.8l1,3.3l36.7,2.7c2,0.7,3.3,2.5,3.3,4.7V390
		c0,2.1-1.4,4-3.3,4.7l-36.7,2.7l-1,3.4c-3.5,12.1-8.5,23.9-14.7,34.8c-1.4,2.4-0.5,5.5,1.9,6.8c2.4,1.4,5.5,0.5,6.8-1.9
		c6.1-10.7,11-22,14.7-33.7l30.8-2.2l0.4-0.1c6.6-1.7,11.2-7.6,11.2-14.4v-66.6c0-6.8-4.6-12.8-11.2-14.4l-0.4-0.1l-30.8-2.3
		c-3.3-10.6-7.6-20.9-12.9-30.6l20-23.5l0.2-0.4c3.4-5.8,2.5-13.3-2.3-18.1l-44.1-44.1c-4.8-4.8-12.2-5.7-18.1-2.3l-0.4,0.2
		l-23.5,20c-9.8-5.3-20.1-9.6-30.7-12.9l-2.3-30.8l-0.1-0.4c-1.7-6.6-7.6-11.2-14.4-11.2h-66.6c-6.8,0-12.8,4.6-14.4,11.2l-0.1,0.4
		l-2.3,30.8c-10.6,3.3-20.9,7.6-30.7,12.9l-23.5-20l-0.4-0.2c-5.8-3.4-13.3-2.5-18.1,2.3L104.2,234c-4.8,4.8-5.7,12.2-2.3,18.1
		l0.2,0.4l20,23.5c-5.3,9.7-9.6,20-12.9,30.6l-30.8,2.3l-0.4,0.1c-6.6,1.7-11.2,7.6-11.2,14.4V390c0,6.8,4.6,12.8,11.2,14.4l0.4,0.1
		l30.8,2.3c3.3,10.6,7.6,20.9,12.9,30.6l-20,23.5l-0.2,0.4c-3.4,5.8-2.5,13.3,2.3,18.1l44.1,44.1c2.9,2.9,6.7,4.4,10.5,4.4
		c2.6,0,5.2-0.7,7.5-2l0.4-0.2l23.5-20c10.8,5.9,22.2,10.5,34,13.9c2.7,0.8,5.4-0.8,6.2-3.4C231.2,513.4,229.6,510.6,227,509.9z"/>
	<path class="st2" d="M271,257.3c-54.8,0-99.4,44.6-99.4,99.4s44.6,99.4,99.4,99.4s99.4-44.6,99.4-99.4S325.8,257.3,271,257.3z
		 M271,446.1c-49.3,0-89.4-40.1-89.4-89.4c0-49.3,40.1-89.4,89.4-89.4s89.4,40.1,89.4,89.4C360.4,406,320.3,446.1,271,446.1z"/>
	<path class="st2" d="M564.7,219c34,0,61.6-27.6,61.6-61.6s-27.6-61.6-61.6-61.6c-34,0-61.6,27.6-61.6,61.6S530.8,219,564.7,219z
		 M564.7,105.9c28.5,0,51.6,23.1,51.6,51.6c0,28.5-23.1,51.6-51.6,51.6c-28.5,0-51.6-23.1-51.6-51.6
		C513.1,129,536.3,105.9,564.7,105.9z"/>
	<path class="st2" d="M448.5,188l0.4,0.1l17.3,1.3c1.8,5.6,4.1,11,6.8,16.2l-11.2,13.2l-0.2,0.4c-2.5,4.3-1.8,9.7,1.7,13.2
		l26.5,26.5c3.5,3.5,8.9,4.2,13.2,1.7l0.4-0.2l13.2-11.2c5.2,2.7,10.6,5,16.2,6.8l1.3,17.3l0.1,0.4c1.3,4.8,5.6,8.2,10.6,8.2h39.9
		c0,0,0,0,0,0c5,0,9.4-3.4,10.6-8.2l0.1-0.4l1.3-17.3c5.6-1.8,11-4.1,16.2-6.8l13.2,11.2l0.4,0.2c4.3,2.5,9.7,1.8,13.2-1.7
		l26.5-26.5c3.5-3.5,4.2-8.9,1.7-13.2l-0.2-0.4l-11.2-13.2c2.7-5.2,5-10.6,6.8-16.2l17.3-1.3l0.4-0.1c4.8-1.3,8.2-5.6,8.2-10.6
		v-39.9c0-5-3.4-9.4-8.2-10.6l-0.4-0.1l-17.3-1.3c-1.8-5.6-4.1-11-6.8-16.2l11.2-13.2l0.2-0.4c2.5-4.3,1.8-9.8-1.7-13.3l-26.4-26.4
		c-3.5-3.5-9-4.2-13.3-1.7l-0.4,0.2l-13.2,11.2c-5.2-2.7-10.6-5-16.2-6.8l-1.3-17.3l-0.1-0.4c-1.2-4.8-5.6-8.2-10.6-8.2c0,0,0,0,0,0
		h-40c-4.9,0-9.3,3.4-10.6,8.2l-0.1,0.5l-1.2,17.3c-5.6,1.8-11,4.1-16.2,6.8l-13.2-11.2l-0.4-0.2c-4.3-2.5-9.7-1.8-13.2,1.7
		l-26.5,26.5c-3.5,3.5-4.2,8.9-1.7,13.2l0.2,0.4l11.2,13.2c-2.7,5.2-5,10.6-6.8,16.2l-17.3,1.3l-0.4,0.1c-4.9,1.2-8.2,5.6-8.2,10.6
		v40C440.3,182.4,443.7,186.7,448.5,188z M450.3,137.5c0-0.3,0.2-0.7,0.5-0.8l23.1-1.7l1-3.4c2-7.1,4.9-14,8.6-20.5l1.7-3.1
		l-15-17.6c-0.1-0.3,0-0.7,0.2-0.9l26.4-26.4c0.3-0.3,0.6-0.3,1-0.3l17.7,15l3-1.7c6.4-3.7,13.3-6.6,20.5-8.6l3.4-1l1.6-23.1
		c0.2-0.3,0.5-0.5,0.8-0.5h39.9c0.3,0,0.7,0.2,0.8,0.5l1.7,23.1l3.4,1c7.1,2,14,4.9,20.5,8.6l3,1.7l17.6-15c0.3-0.1,0.7,0,0.9,0.2
		l26.4,26.4c0.2,0.2,0.3,0.6,0.2,0.9l-15,17.6l1.7,3c3.7,6.4,6.6,13.3,8.6,20.5l1,3.4l23.1,1.7c0.3,0.2,0.5,0.5,0.5,0.8v39.9
		c0,0.4-0.2,0.7-0.5,0.9l-23.1,1.7l-1,3.4c-2,7.1-5,14-8.6,20.5l-1.7,3l15,17.6c0.1,0.3,0,0.7-0.2,0.9l-26.4,26.4
		c-0.3,0.3-0.6,0.3-1,0.3l-17.6-15l-3,1.7c-6.4,3.7-13.3,6.6-20.5,8.6l-3.4,1l-1.7,23.1c-0.2,0.3-0.5,0.5-0.8,0.5h0h-39.9
		c-0.4,0-0.7-0.2-0.9-0.5l-1.7-23.1l-3.3-1c-7.1-2-14-5-20.4-8.6l-3-1.7l-17.7,15c-0.3,0.1-0.7,0-0.9-0.2l-26.4-26.4
		c-0.3-0.3-0.3-0.6-0.3-1l15-17.6l-1.7-3c-3.7-6.4-6.6-13.3-8.6-20.5l-1-3.4l-23.1-1.7c-0.3-0.2-0.5-0.5-0.5-0.8V137.5z"/>
</g>
</svg>
