<svg xmlns="http://www.w3.org/2000/svg" viewBox="0 0 1000 1000"><defs><style>.cls-1{fill:#9fcde0;}.cls-1,.cls-3{stroke:#0070ba;}.cls-1,.cls-5{stroke-miterlimit:10;}.cls-1,.cls-3,.cls-4{stroke-width:10px;}.cls-2,.cls-3,.cls-4{fill:#fff;}.cls-3,.cls-4{stroke-linecap:round;stroke-linejoin:round;}.cls-4,.cls-5{stroke:#66cb92;}.cls-5{fill:none;stroke-width:7px;stroke-dasharray:20.32 32.51;}.cls-6{fill:#66cb92;}</style></defs><g id="Ebene_1" data-name="Ebene 1"><path class="cls-1" d="M217.55,873.35,313.26,850l27.65,94.54a12.74,12.74,0,0,0,23.27,2.79l329.2-570.2L532.71,284.4,203.5,854.6A12.74,12.74,0,0,0,217.55,873.35Z"/><path class="cls-1" d="M782.45,873.35,686.74,850l-27.65,94.54a12.74,12.74,0,0,1-23.27,2.79l-329.2-570.2L467.29,284.4,796.5,854.6A12.74,12.74,0,0,1,782.45,873.35Z"/><path class="cls-2" d="M818.63,444.45l-.14.1a58.26,58.26,0,0,0-19,71l0,.06a58.26,58.26,0,0,1-47.27,81.78h0a58.26,58.26,0,0,0-52.06,52.06h0a58.25,58.25,0,0,1-81.78,47.26l-.06,0a58.26,58.26,0,0,0-71,19l-.1.14a58.25,58.25,0,0,1-94.4,0l-.1-.14a58.26,58.26,0,0,0-71-19l-.06,0a58.25,58.25,0,0,1-81.78-47.26h0a58.26,58.26,0,0,0-52.06-52.06h0a58.26,58.26,0,0,1-47.27-81.78l0-.06a58.26,58.26,0,0,0-19-71l-.14-.1a58.26,58.26,0,0,1,0-94.41l.14-.1a58.25,58.25,0,0,0,19-71l0-.05a58.27,58.27,0,0,1,47.27-81.79h0a58.26,58.26,0,0,0,52.06-52h0a58.26,58.26,0,0,1,81.78-47.27l.06,0a58.26,58.26,0,0,0,71-19l.1-.14a58.25,58.25,0,0,1,94.4,0l.1.14a58.26,58.26,0,0,0,71,19l.06,0A58.26,58.26,0,0,1,700.17,145h0a58.26,58.26,0,0,0,52.06,52h0a58.27,58.27,0,0,1,47.27,81.79l0,.05a58.25,58.25,0,0,0,19,71l.14.1A58.26,58.26,0,0,1,818.63,444.45Z"/><path class="cls-3" d="M818.63,444.45l-.14.1a58.26,58.26,0,0,0-19,71l0,.06a58.26,58.26,0,0,1-47.27,81.78h0a58.26,58.26,0,0,0-52.06,52.06h0a58.25,58.25,0,0,1-81.78,47.26l-.06,0a58.26,58.26,0,0,0-71,19l-.1.14a58.25,58.25,0,0,1-94.4,0l-.1-.14a58.26,58.26,0,0,0-71-19l-.06,0a58.25,58.25,0,0,1-81.78-47.26h0a58.26,58.26,0,0,0-52.06-52.06h0a58.26,58.26,0,0,1-47.27-81.78l0-.06a58.26,58.26,0,0,0-19-71l-.14-.1a58.26,58.26,0,0,1,0-94.41l.14-.1a58.25,58.25,0,0,0,19-71l0-.05a58.27,58.27,0,0,1,47.27-81.79h0a58.26,58.26,0,0,0,52.06-52h0a58.26,58.26,0,0,1,81.78-47.27l.06,0a58.26,58.26,0,0,0,71-19l.1-.14a58.25,58.25,0,0,1,94.4,0l.1.14a58.26,58.26,0,0,0,71,19l.06,0A58.26,58.26,0,0,1,700.17,145h0a58.26,58.26,0,0,0,52.06,52h0a58.27,58.27,0,0,1,47.27,81.79l0,.05a58.25,58.25,0,0,0,19,71l.14.1A58.26,58.26,0,0,1,818.63,444.45Z"/><circle class="cls-4" cx="500" cy="397.25" r="239.31"/><circle class="cls-5" cx="500" cy="397.25" r="193.4"/><path class="cls-6" d="M535.36,356.58l93.49,3.69a4.79,4.79,0,0,1,2.63,8.65L555.86,424l25.37,90.06a4.78,4.78,0,0,1-7.41,5.17l-75.76-54.9-77.81,52a4.78,4.78,0,0,1-7.21-5.45l28.8-89-73.46-57.94a4.78,4.78,0,0,1,2.95-8.54l93.57-.12,32.4-87.77a4.78,4.78,0,0,1,9,.17Z"/></g></svg>