<svg width="163" height="190" viewBox="0 0 163 190" fill="none" xmlns="http://www.w3.org/2000/svg">
<path d="M126.848 136.133V144.769C126.852 147.796 125.928 150.751 124.2 153.237H125.186C125.437 153.237 125.678 153.336 125.855 153.514C126.032 153.691 126.132 153.932 126.132 154.183V157.905C126.132 158.029 126.108 158.152 126.06 158.267C126.013 158.381 125.943 158.486 125.855 158.573C125.767 158.661 125.663 158.731 125.548 158.779C125.433 158.826 125.31 158.851 125.186 158.851H117.14C117.058 158.849 116.976 158.837 116.896 158.815C115.995 159.132 115.065 159.361 114.12 159.501C112.688 159.711 111.232 159.711 109.8 159.501C106.263 158.982 103.031 157.208 100.694 154.503C98.3569 151.798 97.0706 148.343 97.0701 144.769V136.133C93.0075 137.419 89.3753 139.794 86.5681 143.001C92.1681 149.983 93.1281 153.931 94.5181 161.669C94.6818 161.683 94.8338 161.76 94.9434 161.882C95.0529 162.005 95.1118 162.164 95.1081 162.329V164.929C96.2821 168.543 96.0781 172.309 96.9681 175.929C97.0347 175.932 97.1015 175.932 97.1681 175.929H126.748C127.296 175.929 127.821 175.711 128.208 175.324C128.595 174.937 128.812 174.412 128.812 173.865V162.335C128.813 162.175 128.872 162.021 128.977 161.901C129.082 161.781 129.226 161.703 129.384 161.68C129.542 161.658 129.703 161.693 129.837 161.779C129.971 161.864 130.07 161.996 130.116 162.149L130.328 162.865C132.995 161.799 135.404 160.177 137.396 158.108C139.388 156.039 140.916 153.57 141.88 150.865C140.706 147.402 138.734 144.264 136.122 141.705C133.511 139.145 130.334 137.236 126.848 136.133Z" fill="#308720"/>
<path d="M97.3135 177.934L94.0415 158.902C92.758 151.441 88.8785 144.673 83.0885 139.795C77.2984 134.917 69.9705 132.243 62.3995 132.244H51.8295C51.8913 132.293 51.9372 132.359 51.9615 132.434L56.4755 159.68C56.8602 160.841 56.9945 162.07 56.8693 163.287C56.7442 164.504 56.3625 165.68 55.7495 166.738L52.7495 171.938C52.6301 172.145 52.4584 172.316 52.2519 172.435C52.0453 172.554 51.811 172.617 51.5725 172.617C51.3341 172.617 51.0998 172.554 50.8932 172.435C50.6866 172.316 50.515 172.145 50.3955 171.938L47.3955 166.738C46.7826 165.68 46.4009 164.504 46.2758 163.287C46.1506 162.07 46.2848 160.841 46.6695 159.68L51.1835 132.434C51.2079 132.359 51.2538 132.293 51.3155 132.244H40.7215C33.152 132.244 25.8261 134.919 20.038 139.797C14.2499 144.675 10.372 151.442 9.08952 158.902L5.81552 177.934C5.59009 179.247 5.65415 180.593 6.0032 181.879C6.35226 183.165 6.9779 184.359 7.83639 185.377C8.69488 186.396 9.7655 187.215 10.9734 187.777C12.1813 188.339 13.4973 188.63 14.8295 188.63H18.8135C19.4281 188.63 20.0262 188.431 20.518 188.063C21.0098 187.694 21.369 187.176 21.5415 186.586L26.5415 169.598C26.603 169.385 26.7394 169.202 26.9257 169.081C27.1119 168.961 27.3354 168.912 27.5548 168.944C27.7742 168.976 27.9747 169.086 28.1193 169.254C28.2639 169.422 28.3429 169.636 28.3415 169.858V185.784C28.3415 186.539 28.6414 187.263 29.1751 187.797C29.7088 188.33 30.4327 188.63 31.1875 188.63H71.9495C72.3236 188.631 72.6941 188.557 73.0399 188.415C73.3856 188.272 73.6999 188.062 73.9646 187.798C74.2293 187.534 74.4392 187.22 74.5825 186.874C74.7258 186.529 74.7995 186.158 74.7995 185.784V169.858C74.7982 169.636 74.8771 169.422 75.0218 169.254C75.1664 169.086 75.3669 168.976 75.5863 168.944C75.8057 168.912 76.0291 168.961 76.2154 169.081C76.4016 169.202 76.5381 169.385 76.5995 169.598L81.5995 186.586C81.7724 187.176 82.1316 187.694 82.6234 188.062C83.1152 188.431 83.713 188.63 84.3275 188.63H88.2995C89.6318 188.63 90.9481 188.339 92.1561 187.777C93.3642 187.216 94.435 186.397 95.2935 185.378C96.1521 184.359 96.7777 183.165 97.1266 181.879C97.4755 180.594 97.5393 179.247 97.3135 177.934ZM73.4375 152.664C73.4375 153.048 73.285 153.416 73.0134 153.688C72.7419 153.96 72.3736 154.112 71.9895 154.112H59.6555C59.2715 154.112 58.9032 153.96 58.6316 153.688C58.3601 153.416 58.2075 153.048 58.2075 152.664V146.958C58.2075 146.574 58.3601 146.206 58.6316 145.934C58.9032 145.663 59.2715 145.51 59.6555 145.51H71.9995C72.3836 145.51 72.7519 145.663 73.0234 145.934C73.295 146.206 73.4475 146.574 73.4475 146.958L73.4375 152.664Z" fill="#A3C2DA"/>
<path d="M151.55 77.8181C151.503 77.821 151.456 77.821 151.41 77.8181C151.147 77.7809 150.91 77.641 150.751 77.4291C150.591 77.2172 150.523 76.9506 150.56 76.6881C150.65 76.0481 150.734 75.3901 150.808 74.7301C150.838 74.4664 150.971 74.2255 151.179 74.0603C151.386 73.8951 151.651 73.8191 151.915 73.8491C152.178 73.879 152.419 74.0125 152.584 74.2201C152.75 74.4277 152.826 74.6924 152.796 74.9561C152.718 75.6341 152.632 76.3101 152.54 76.9681C152.504 77.2048 152.384 77.4208 152.202 77.5768C152.021 77.7328 151.789 77.8184 151.55 77.8181Z" fill="#A3C2DA"/>
<path d="M138.932 109.65C138.749 109.65 138.57 109.6 138.413 109.504C138.257 109.409 138.13 109.273 138.046 109.11C137.961 108.948 137.923 108.765 137.936 108.582C137.948 108.4 138.011 108.224 138.116 108.074C138.952 106.886 139.762 105.658 140.516 104.426C140.659 104.209 140.882 104.056 141.136 104C141.39 103.944 141.656 103.989 141.877 104.126C142.099 104.263 142.258 104.481 142.321 104.734C142.384 104.986 142.347 105.253 142.216 105.478C141.434 106.744 140.602 108.006 139.742 109.224C139.651 109.355 139.53 109.461 139.389 109.535C139.248 109.609 139.091 109.649 138.932 109.65ZM144.8 99.7503C144.631 99.75 144.464 99.7065 144.316 99.624C144.167 99.5415 144.043 99.4226 143.953 99.2786C143.863 99.1346 143.812 98.9702 143.803 98.8008C143.795 98.6314 143.83 98.4626 143.904 98.3103C144.544 97.0063 145.152 95.6663 145.704 94.3303C145.807 94.0855 146.002 93.8914 146.247 93.7907C146.493 93.69 146.768 93.6909 147.013 93.7933C147.258 93.8957 147.452 94.0911 147.553 94.3366C147.653 94.5821 147.653 94.8575 147.55 95.1023C146.976 96.4743 146.35 97.8503 145.694 99.1923C145.612 99.3593 145.485 99.5 145.327 99.5986C145.169 99.6972 144.986 99.7497 144.8 99.7503ZM149.044 89.0523C148.888 89.0523 148.733 89.0156 148.594 88.9452C148.454 88.8747 148.333 88.7724 148.24 88.6465C148.147 88.5206 148.084 88.3747 148.058 88.2204C148.032 88.0662 148.042 87.9079 148.088 87.7583C148.514 86.3723 148.904 84.9583 149.246 83.5443C149.308 83.2865 149.471 83.064 149.697 82.9258C149.923 82.7876 150.195 82.745 150.453 82.8073C150.711 82.8696 150.933 83.0318 151.072 83.2582C151.21 83.4845 151.252 83.7565 151.19 84.0143C150.838 85.4643 150.438 86.9203 149.99 88.3463C149.928 88.5488 149.803 88.7263 149.633 88.8532C149.464 88.9801 149.258 89.0498 149.046 89.0523H149.044Z" fill="#A3C2DA"/>
<path d="M133.25 116.739C133.056 116.738 132.867 116.682 132.704 116.576C132.542 116.471 132.414 116.32 132.336 116.143C132.257 115.966 132.232 115.77 132.263 115.579C132.294 115.388 132.38 115.21 132.51 115.067C132.952 114.581 133.392 114.083 133.816 113.589C133.989 113.387 134.234 113.263 134.499 113.243C134.764 113.223 135.025 113.309 135.227 113.482C135.428 113.655 135.552 113.9 135.572 114.165C135.592 114.43 135.507 114.691 135.334 114.893C134.896 115.401 134.444 115.911 133.992 116.411C133.898 116.514 133.783 116.597 133.655 116.653C133.528 116.71 133.389 116.739 133.25 116.739Z" fill="#A3C2DA"/>
<path d="M24.3842 116.382C24.2439 116.382 24.1051 116.352 23.9769 116.295C23.8487 116.238 23.734 116.154 23.6402 116.05C23.1902 115.548 22.7422 115.034 22.3062 114.522C22.2213 114.422 22.1569 114.306 22.1167 114.181C22.0766 114.056 22.0614 113.924 22.0722 113.793C22.083 113.662 22.1194 113.535 22.1795 113.418C22.2396 113.301 22.322 113.197 22.4222 113.112C22.5224 113.027 22.6384 112.963 22.7635 112.923C22.8886 112.882 23.0203 112.867 23.1513 112.878C23.2822 112.889 23.4097 112.925 23.5266 112.985C23.6434 113.045 23.7473 113.128 23.8322 113.228C24.2542 113.726 24.6902 114.228 25.1282 114.714C25.2573 114.858 25.3419 115.036 25.3719 115.227C25.4019 115.418 25.376 115.613 25.2973 115.789C25.2186 115.966 25.0905 116.116 24.9285 116.221C24.7665 116.326 24.5774 116.382 24.3842 116.382Z" fill="#A3C2DA"/>
<path d="M19.2897 110.022C19.1302 110.022 18.973 109.985 18.831 109.912C18.6891 109.839 18.5666 109.734 18.4737 109.604C17.7217 108.55 16.9877 107.462 16.2937 106.374C16.151 106.15 16.103 105.879 16.1602 105.62C16.2174 105.361 16.3752 105.136 16.5987 104.993C16.8223 104.85 17.0934 104.802 17.3524 104.859C17.6114 104.917 17.837 105.074 17.9797 105.298C18.6557 106.358 19.3697 107.416 20.1017 108.442C20.2081 108.591 20.2713 108.767 20.2845 108.95C20.2977 109.133 20.2604 109.316 20.1765 109.479C20.0927 109.642 19.9656 109.779 19.8092 109.875C19.6528 109.971 19.4731 110.021 19.2897 110.022ZM14.0497 101.518C13.8672 101.518 13.6881 101.468 13.5319 101.374C13.3758 101.279 13.2484 101.144 13.1637 100.982C12.5637 99.838 11.9837 98.662 11.4437 97.486C11.3417 97.2465 11.337 96.9767 11.4307 96.7339C11.5244 96.4911 11.709 96.2943 11.9455 96.1855C12.1819 96.0767 12.4515 96.0643 12.6969 96.151C12.9423 96.2377 13.1442 96.4167 13.2597 96.65C13.7857 97.794 14.3497 98.938 14.9357 100.05C15.016 100.202 15.0556 100.373 15.0505 100.545C15.0454 100.718 14.9959 100.886 14.9068 101.033C14.8176 101.181 14.6919 101.303 14.5417 101.387C14.3916 101.472 14.2221 101.516 14.0497 101.516V101.518ZM10.0197 92.378C9.81422 92.3779 9.61372 92.3145 9.44553 92.1964C9.27733 92.0783 9.1496 91.9113 9.07973 91.718C8.63973 90.5 8.22773 89.256 7.85373 88.02C7.81457 87.894 7.80073 87.7615 7.81299 87.6302C7.82526 87.4988 7.86339 87.3712 7.9252 87.2546C7.987 87.1381 8.07126 87.0349 8.17311 86.9511C8.27496 86.8672 8.3924 86.8044 8.51865 86.7661C8.6449 86.7279 8.77748 86.715 8.90874 86.7282C9.04 86.7414 9.16735 86.7804 9.28346 86.8431C9.39956 86.9057 9.50213 86.9907 9.58524 87.0931C9.66835 87.1956 9.73037 87.3135 9.76773 87.44C10.1317 88.64 10.5337 89.854 10.9677 91.04C11.0224 91.1911 11.0398 91.3532 11.0185 91.5125C10.9972 91.6718 10.9378 91.8236 10.8454 91.9551C10.753 92.0866 10.6302 92.1938 10.4875 92.2678C10.3448 92.3417 10.1864 92.3802 10.0257 92.38L10.0197 92.378ZM7.27973 82.778C7.04954 82.7776 6.82655 82.6978 6.64838 82.552C6.4702 82.4063 6.34777 82.2035 6.30173 81.978C6.03373 80.714 5.79573 79.426 5.59373 78.146C5.55262 77.884 5.61729 77.6163 5.77351 77.402C5.92972 77.1876 6.1647 77.0441 6.42673 77.003C6.68877 76.9619 6.9564 77.0266 7.17075 77.1828C7.38511 77.339 7.52862 77.574 7.56973 77.836C7.76973 79.078 7.99773 80.332 8.25773 81.562C8.31286 81.8214 8.26271 82.092 8.11832 82.3144C7.97392 82.5368 7.7471 82.6928 7.48773 82.748C7.41942 82.7635 7.34975 82.7722 7.27973 82.774V82.778ZM5.87973 72.89C5.62653 72.8907 5.38251 72.7952 5.19691 72.623C5.01131 72.4508 4.89796 72.2145 4.87973 71.962C4.78573 70.674 4.72573 69.362 4.69773 68.072C4.69497 67.9407 4.71811 67.8101 4.76581 67.6877C4.81352 67.5653 4.88487 67.4535 4.97577 67.3587C5.06668 67.2639 5.17538 67.188 5.29565 67.1352C5.41592 67.0824 5.54541 67.0538 5.67673 67.051C5.80805 67.0482 5.93863 67.0714 6.06101 67.1191C6.18339 67.1668 6.29518 67.2381 6.38999 67.329C6.4848 67.42 6.56077 67.5286 6.61357 67.6489C6.66638 67.7692 6.69497 67.8987 6.69773 68.03C6.72373 69.288 6.78373 70.562 6.87573 71.816C6.88526 71.9471 6.86887 72.0787 6.82748 72.2035C6.78609 72.3282 6.72052 72.4436 6.63452 72.5429C6.54852 72.6423 6.44377 72.7238 6.32627 72.7826C6.20877 72.8415 6.08082 72.8766 5.94973 72.886L5.87973 72.89Z" fill="#A3C2DA"/>
<path d="M5.82414 62.8801H5.76214C5.49746 62.8637 5.25016 62.7428 5.07463 62.544C4.8991 62.3452 4.80972 62.0848 4.82614 61.8201C4.86614 61.1481 4.91814 60.4681 4.97814 59.7981C5.00174 59.5329 5.12974 59.2879 5.33396 59.1171C5.53819 58.9463 5.80192 58.8635 6.06714 58.8871C6.33235 58.9107 6.57733 59.0387 6.74817 59.243C6.91902 59.4472 7.00174 59.7109 6.97813 59.9761C6.92013 60.6281 6.87014 61.2901 6.83014 61.9441C6.81379 62.1991 6.70044 62.4382 6.51336 62.6123C6.32628 62.7864 6.07966 62.8822 5.82414 62.8801Z" fill="#A3C2DA"/>
<path d="M143.461 154.268C142.513 148.689 139.618 143.627 135.291 139.98C130.964 136.333 125.484 134.338 119.825 134.348H119.025C121.832 133.044 124.16 130.896 125.686 128.204C127.211 125.511 127.857 122.41 127.533 119.332L126.749 111.822C126.491 109.294 125.587 106.875 124.125 104.797C122.663 102.718 120.691 101.05 118.399 99.9522C118.44 99.656 118.461 99.3573 118.461 99.0582C118.431 97.2831 117.704 95.5911 116.438 94.3465C115.172 93.102 113.468 92.4046 111.692 92.4046C109.917 92.4046 108.213 93.102 106.947 94.3465C105.681 95.5911 104.954 97.2831 104.923 99.0582C104.924 99.4411 104.958 99.8231 105.023 100.2C102.857 101.339 101.006 102.996 99.6346 105.024C98.2636 107.052 97.4154 109.387 97.1655 111.822L96.3835 119.332C96.0589 122.41 96.7046 125.512 98.2301 128.204C99.7556 130.897 102.085 133.045 104.891 134.348H104.091C100.78 134.342 97.5023 135.023 94.4672 136.349C91.4322 137.675 88.7054 139.616 86.4595 142.05C83.3912 138.733 79.6696 136.088 75.5288 134.28C71.388 132.472 66.9178 131.54 62.3995 131.544H60.0295C63.7171 130.102 66.8999 127.608 69.1829 124.372C71.4658 121.137 72.7484 117.302 72.8715 113.344C72.8834 113.271 72.8834 113.196 72.8715 113.122C72.8903 112.281 72.8562 111.439 72.7695 110.602L71.6895 100.25C71.1708 95.2729 68.8264 90.6643 65.109 87.3141C61.3916 83.9639 56.5647 82.1099 51.5605 82.1099C46.5562 82.1099 41.7294 83.9639 38.0119 87.3141C34.2945 90.6643 31.9502 95.2729 31.4315 100.25L30.3555 110.6C30.2687 111.436 30.2346 112.276 30.2535 113.116C30.2405 113.191 30.2405 113.267 30.2535 113.342C30.3756 117.3 31.6576 121.135 33.9403 124.37C36.223 127.606 39.4058 130.1 43.0935 131.542H40.7215C32.987 131.543 25.5016 134.277 19.5874 139.261C13.6732 144.246 9.71056 151.16 8.39947 158.782L5.12547 177.816C4.8825 179.23 4.95126 180.679 5.32694 182.063C5.70262 183.447 6.37615 184.733 7.30042 185.829C8.22468 186.926 9.37738 187.808 10.6779 188.412C11.9784 189.017 13.3953 189.33 14.8295 189.33H18.8135C19.5785 189.327 20.3221 189.078 20.9345 188.619C21.5468 188.161 21.9953 187.517 22.2135 186.784L27.1995 169.8C27.2049 169.774 27.2155 169.75 27.2305 169.728C27.2456 169.706 27.2649 169.687 27.2872 169.673C27.3095 169.659 27.3345 169.649 27.3607 169.644C27.3868 169.64 27.4136 169.64 27.4395 169.646C27.4659 169.648 27.4918 169.655 27.5155 169.667C27.5393 169.679 27.5604 169.695 27.5777 169.715C27.595 169.735 27.6081 169.759 27.6164 169.784C27.6246 169.809 27.6277 169.836 27.6255 169.862V185.788C27.6265 186.728 28.0005 187.63 28.6652 188.294C29.33 188.959 30.2313 189.333 31.1715 189.334H71.9495C72.8896 189.333 73.7909 188.959 74.4557 188.294C75.1205 187.63 75.4944 186.728 75.4955 185.788V169.858C75.4933 169.832 75.4964 169.805 75.5046 169.78C75.5128 169.755 75.5259 169.731 75.5432 169.711C75.5605 169.691 75.5817 169.675 75.6054 169.663C75.6291 169.651 75.655 169.644 75.6815 169.642C75.7074 169.636 75.7341 169.636 75.7603 169.64C75.7864 169.645 75.8114 169.655 75.8337 169.669C75.8561 169.683 75.8753 169.702 75.8904 169.724C75.9055 169.746 75.916 169.77 75.9215 169.796L80.9215 186.784C81.1399 187.517 81.5885 188.161 82.2007 188.619C82.813 189.078 83.5566 189.327 84.3215 189.33H88.2995C89.7333 189.33 91.1498 189.016 92.4498 188.411C93.7498 187.806 94.902 186.925 95.8258 185.828C96.7496 184.731 97.4228 183.446 97.7983 182.062C98.1737 180.679 98.2424 179.229 97.9995 177.816L97.7995 176.652H126.747C127.48 176.651 128.183 176.36 128.701 175.842C129.219 175.323 129.51 174.621 129.511 173.888V162.572L133.065 174.668C133.236 175.24 133.586 175.741 134.064 176.098C134.541 176.456 135.121 176.65 135.717 176.652H138.599C139.668 176.652 140.723 176.419 141.692 175.968C142.66 175.518 143.519 174.861 144.207 174.045C144.896 173.228 145.397 172.271 145.677 171.24C145.957 170.209 146.008 169.129 145.827 168.076L143.461 154.268ZM101.165 129.894C99.9015 128.493 98.9458 126.841 98.3602 125.047C97.7745 123.253 97.5719 121.356 97.7655 119.478L97.8275 118.878C104.635 118.14 111.003 115.158 115.927 110.4C118.55 113.158 121.993 114.997 125.743 115.644L126.143 119.472C126.339 121.349 126.138 123.246 125.554 125.04C124.969 126.835 124.015 128.486 122.751 129.888C121.488 131.29 119.945 132.411 118.221 133.178C116.496 133.945 114.631 134.342 112.743 134.342H111.175C109.289 134.342 107.423 133.946 105.699 133.18C103.975 132.413 102.43 131.294 101.165 129.894ZM51.5655 134.718L55.7855 160.2L55.8115 160.304C56.1643 161.372 56.2872 162.502 56.1721 163.62C56.057 164.738 55.7064 165.819 55.1435 166.792L52.1435 171.992C52.0851 172.092 52.0016 172.174 51.9015 172.232C51.8013 172.289 51.6879 172.319 51.5725 172.319C51.457 172.319 51.3436 172.289 51.2435 172.232C51.1433 172.174 51.0599 172.092 51.0015 171.992L48.0015 166.792C47.4385 165.819 47.088 164.738 46.9728 163.62C46.8577 162.502 46.9806 161.372 47.3335 160.304L47.3515 160.254L51.5655 134.718ZM58.7535 109.852C59.4217 109.852 60.0751 110.05 60.6309 110.421C61.1868 110.792 61.62 111.319 61.876 111.937C62.1319 112.554 62.1989 113.233 62.0687 113.889C61.9384 114.544 61.6166 115.146 61.1441 115.619C60.6715 116.091 60.0695 116.413 59.414 116.543C58.7585 116.674 58.0792 116.607 57.4618 116.351C56.8445 116.095 56.317 115.662 55.9459 115.106C55.5749 114.55 55.3771 113.897 55.3775 113.228C55.3785 112.333 55.7346 111.475 56.3674 110.842C57.0003 110.209 57.8584 109.853 58.7535 109.852ZM61.8395 109.584C60.9183 108.803 59.7352 108.401 58.5288 108.458C57.3224 108.515 56.1826 109.028 55.3395 109.892H47.6275C47.1772 109.43 46.6379 109.064 46.0422 108.817C45.4465 108.569 44.8067 108.445 44.1616 108.452C43.5166 108.459 42.8796 108.597 42.2893 108.857C41.699 109.117 41.1677 109.495 40.7275 109.966L31.6515 112.322C31.6635 111.8 31.6935 111.276 31.7495 110.752L31.8575 109.704C41.3447 108.727 50.2222 104.568 57.0455 97.9042C60.6893 101.82 65.5308 104.415 70.8095 105.28L71.3815 110.758C71.4355 111.274 71.4655 111.792 71.4775 112.308L61.8395 109.584ZM44.2135 109.852C44.8817 109.852 45.5348 110.05 46.0904 110.422C46.6459 110.793 47.0789 111.321 47.3345 111.938C47.5901 112.555 47.6569 113.235 47.5264 113.89C47.3959 114.545 47.074 115.147 46.6014 115.62C46.1287 116.092 45.5267 116.413 44.8713 116.544C44.2159 116.674 43.5366 116.607 42.9194 116.351C42.3022 116.095 41.7747 115.661 41.4038 115.106C41.0329 114.55 40.8351 113.896 40.8355 113.228C40.8365 112.333 41.1928 111.474 41.8262 110.842C42.4595 110.209 43.3181 109.853 44.2135 109.852ZM36.4895 125.316C33.6183 122.124 31.921 118.049 31.6775 113.762L39.6955 111.68C39.5231 112.178 39.4352 112.701 39.4355 113.228C39.4347 113.94 39.5931 114.643 39.8989 115.286C40.2047 115.929 40.6504 116.495 41.2032 116.944C41.756 117.392 42.402 117.711 43.0941 117.878C43.7861 118.045 44.5067 118.055 45.2031 117.908C45.8996 117.76 46.5543 117.459 47.1193 117.026C47.6844 116.593 48.1456 116.039 48.4692 115.405C48.7928 114.771 48.9707 114.073 48.9898 113.361C49.0088 112.65 48.8686 111.943 48.5795 111.292H54.3995C54.0791 112.014 53.9428 112.804 54.0028 113.592C54.0627 114.379 54.317 115.14 54.7429 115.805C55.1687 116.47 55.7529 117.019 56.4431 117.403C57.1333 117.787 57.9079 117.994 58.6976 118.005C59.4873 118.016 60.2674 117.831 60.9682 117.467C61.6689 117.102 62.2683 116.57 62.7128 115.917C63.1573 115.264 63.433 114.512 63.5151 113.726C63.5972 112.941 63.4833 112.147 63.1835 111.416L71.4615 113.75C71.1971 118.558 69.1013 123.082 65.6048 126.393C62.1083 129.703 57.4766 131.549 52.6615 131.55H50.4835C47.8446 131.548 45.2357 130.991 42.8252 129.918C40.4147 128.844 38.2563 127.276 36.4895 125.316ZM94.7575 184.916C93.9654 185.858 92.9767 186.614 91.861 187.132C90.7453 187.65 89.5297 187.918 88.2995 187.916H84.3155C83.8527 187.914 83.403 187.763 83.0325 187.486C82.662 187.208 82.3903 186.82 82.2575 186.376L77.2575 169.388C77.1654 169.052 76.9649 168.756 76.6872 168.545C76.4094 168.335 76.07 168.222 75.7215 168.224C75.6391 168.224 75.5569 168.23 75.4755 168.242C75.0878 168.291 74.7318 168.482 74.4757 168.777C74.2197 169.072 74.0814 169.451 74.0875 169.842V185.768C74.0869 186.337 73.8607 186.883 73.4583 187.285C73.056 187.687 72.5105 187.914 71.9415 187.914H31.1795C30.6105 187.914 30.0649 187.687 29.6626 187.285C29.2603 186.883 29.034 186.337 29.0335 185.768V169.858C29.0336 169.469 28.8935 169.093 28.6388 168.799C28.3842 168.505 28.032 168.312 27.6468 168.256C27.2617 168.201 26.8694 168.286 26.5419 168.496C26.2143 168.706 25.9735 169.027 25.8635 169.4L20.8635 186.388C20.7307 186.832 20.459 187.22 20.0885 187.498C19.718 187.775 19.2682 187.926 18.8055 187.928H14.8295C13.5992 187.928 12.3838 187.659 11.2684 187.14C10.1529 186.621 9.1642 185.865 8.37142 184.924C7.57865 183.983 7.00092 182.881 6.67861 181.693C6.35631 180.506 6.29722 179.263 6.50547 178.05L9.77747 159.018C11.0202 151.715 14.8105 145.089 20.4755 140.316C26.1404 135.542 33.3136 132.931 40.7215 132.944H50.4395L45.9715 159.914C45.5668 161.163 45.429 162.482 45.5668 163.787C45.7046 165.092 46.115 166.354 46.7715 167.49L49.7715 172.69C49.9524 173.003 50.2124 173.263 50.5253 173.443C50.8383 173.623 51.1932 173.718 51.5545 173.718C51.9157 173.718 52.2706 173.623 52.5836 173.443C52.8965 173.263 53.1565 173.003 53.3375 172.69L56.3375 167.49C56.9939 166.354 57.4043 165.092 57.5422 163.787C57.68 162.482 57.5421 161.163 57.1375 159.914L52.6895 132.944H62.3995C69.809 132.929 76.9843 135.54 82.651 140.314C88.3176 145.088 92.1089 151.716 93.3515 159.02L96.6235 178.052C96.8337 179.265 96.7755 180.509 96.4531 181.696C96.1307 182.884 95.5519 183.986 94.7575 184.926V184.916ZM143.145 173.132C142.589 173.797 141.894 174.331 141.108 174.698C140.323 175.064 139.466 175.253 138.599 175.252H135.717C135.423 175.251 135.138 175.155 134.902 174.979C134.667 174.803 134.494 174.556 134.409 174.274L130.787 161.95C130.71 161.667 130.54 161.417 130.306 161.239C130.072 161.062 129.785 160.967 129.491 160.968C129.421 160.968 129.351 160.973 129.281 160.982C128.954 161.024 128.654 161.186 128.439 161.435C128.223 161.684 128.106 162.005 128.111 162.334V173.888C128.111 174.25 127.967 174.596 127.711 174.852C127.456 175.108 127.109 175.252 126.747 175.252H97.5635L94.7315 158.782C93.7323 152.996 91.2005 147.582 87.3995 143.106C89.5155 140.783 92.094 138.929 94.9693 137.662C97.8447 136.394 100.953 135.743 104.095 135.748H119.827C125.156 135.739 130.316 137.618 134.391 141.052C138.466 144.486 141.192 149.253 142.085 154.506L144.459 168.306C144.607 169.159 144.566 170.034 144.339 170.87C144.112 171.705 143.704 172.481 143.145 173.142V173.132Z" fill="#2F6EB4"/>
<path d="M115.934 127.886C115.898 127.801 115.847 127.724 115.782 127.659C115.716 127.594 115.639 127.542 115.554 127.507C115.469 127.472 115.378 127.454 115.286 127.454C115.194 127.454 115.103 127.473 115.018 127.508C113.059 128.319 110.858 128.319 108.9 127.508C108.814 127.47 108.722 127.449 108.629 127.447C108.535 127.445 108.443 127.462 108.356 127.497C108.269 127.531 108.19 127.583 108.123 127.648C108.057 127.714 108.004 127.792 107.968 127.878C107.932 127.964 107.914 128.057 107.914 128.15C107.914 128.244 107.934 128.336 107.97 128.422C108.007 128.508 108.061 128.586 108.128 128.651C108.195 128.716 108.275 128.766 108.362 128.8C109.503 129.273 110.726 129.517 111.962 129.517C113.197 129.517 114.42 129.273 115.562 128.8C115.732 128.728 115.866 128.591 115.936 128.42C116.006 128.249 116.005 128.057 115.934 127.886Z" fill="#2F6EB4"/>
<path d="M108.572 121.2C108.716 121.201 108.857 121.157 108.975 121.074C109.093 120.992 109.183 120.875 109.232 120.74C109.281 120.604 109.287 120.457 109.25 120.318C109.212 120.179 109.133 120.055 109.022 119.962C107.596 118.774 105.892 118.774 104.466 119.962C104.395 120.021 104.337 120.093 104.294 120.175C104.251 120.256 104.225 120.345 104.217 120.437C104.208 120.528 104.218 120.621 104.245 120.708C104.273 120.796 104.317 120.878 104.376 120.948C104.435 121.019 104.507 121.077 104.588 121.12C104.67 121.163 104.759 121.189 104.85 121.198C104.942 121.206 105.034 121.196 105.122 121.169C105.21 121.142 105.291 121.097 105.362 121.038C106.28 120.274 107.208 120.274 108.126 121.038C108.251 121.144 108.409 121.201 108.572 121.2Z" fill="#2F6EB4"/>
<path d="M115.346 121.2C115.509 121.201 115.668 121.144 115.794 121.038C116.71 120.274 117.64 120.274 118.556 121.038C118.698 121.157 118.882 121.214 119.067 121.198C119.252 121.181 119.423 121.091 119.542 120.948C119.66 120.806 119.718 120.622 119.701 120.437C119.684 120.252 119.594 120.081 119.452 119.962C118.026 118.774 116.324 118.774 114.898 119.962C114.787 120.054 114.708 120.178 114.67 120.317C114.632 120.456 114.638 120.603 114.687 120.739C114.736 120.874 114.826 120.991 114.944 121.073C115.061 121.156 115.202 121.2 115.346 121.2Z" fill="#2F6EB4"/>
<path d="M56.8001 122.472C56.7285 122.301 56.5919 122.165 56.4202 122.094C56.2485 122.023 56.0557 122.023 55.8841 122.094C53.1184 123.238 50.0118 123.238 47.2461 122.094C47.1608 122.056 47.0687 122.036 46.9753 122.034C46.8819 122.032 46.789 122.048 46.7022 122.083C46.6153 122.117 46.5363 122.169 46.4696 122.234C46.403 122.3 46.3502 122.378 46.3143 122.464C46.2784 122.551 46.2601 122.643 46.2605 122.737C46.2609 122.83 46.2801 122.922 46.3168 123.008C46.3535 123.094 46.407 123.172 46.4742 123.237C46.5414 123.302 46.6209 123.353 46.7081 123.386C49.818 124.674 53.3122 124.674 56.4221 123.386C56.507 123.351 56.5842 123.3 56.6492 123.235C56.7143 123.17 56.7658 123.093 56.8009 123.008C56.836 122.923 56.854 122.832 56.8539 122.74C56.8538 122.648 56.8355 122.557 56.8001 122.472Z" fill="#2F6EB4"/>
<path d="M71.9998 144.81H59.6558C59.0863 144.811 58.5402 145.037 58.1375 145.44C57.7348 145.842 57.5083 146.389 57.5078 146.958V152.664C57.5083 153.234 57.7348 153.78 58.1375 154.182C58.5402 154.585 59.0863 154.812 59.6558 154.812H71.9998C72.5693 154.812 73.1154 154.585 73.5181 154.182C73.9208 153.78 74.1473 153.234 74.1478 152.664V146.958C74.1473 146.389 73.9208 145.842 73.5181 145.44C73.1154 145.037 72.5693 144.811 71.9998 144.81ZM72.7478 152.664C72.7473 152.862 72.6683 153.052 72.5281 153.192C72.388 153.333 72.198 153.412 71.9998 153.412H59.6558C59.4576 153.412 59.2676 153.333 59.1275 153.192C58.9873 153.052 58.9083 152.862 58.9078 152.664V146.958C58.9083 146.76 58.9873 146.57 59.1275 146.43C59.2676 146.29 59.4576 146.211 59.6558 146.21H71.9998C72.198 146.211 72.388 146.29 72.5281 146.43C72.6683 146.57 72.7473 146.76 72.7478 146.958V152.664Z" fill="#2F6EB4"/>
<path d="M61.4102 149.352H66.7042C66.8899 149.352 67.0679 149.278 67.1992 149.147C67.3305 149.016 67.4042 148.838 67.4042 148.652C67.4042 148.466 67.3305 148.288 67.1992 148.157C67.0679 148.026 66.8899 147.952 66.7042 147.952H61.4102C61.2246 147.952 61.0465 148.026 60.9152 148.157C60.784 148.288 60.7102 148.466 60.7102 148.652C60.7102 148.838 60.784 149.016 60.9152 149.147C61.0465 149.278 61.2246 149.352 61.4102 149.352Z" fill="#2F6EB4"/>
<path d="M69.1662 150.341H61.4102C61.2246 150.341 61.0465 150.414 60.9152 150.546C60.784 150.677 60.7102 150.855 60.7102 151.041C60.7102 151.226 60.784 151.404 60.9152 151.536C61.0465 151.667 61.2246 151.741 61.4102 151.741H69.1662C69.3519 151.741 69.5299 151.667 69.6612 151.536C69.7925 151.404 69.8662 151.226 69.8662 151.041C69.8662 150.855 69.7925 150.677 69.6612 150.546C69.5299 150.414 69.3519 150.341 69.1662 150.341Z" fill="#2F6EB4"/>
<path d="M125.188 152.536H117.14C116.704 152.537 116.285 152.71 115.977 153.019C115.668 153.328 115.495 153.746 115.494 154.182V157.904C115.495 158.341 115.668 158.759 115.977 159.068C116.285 159.376 116.704 159.55 117.14 159.55H125.188C125.625 159.55 126.043 159.376 126.351 159.068C126.66 158.759 126.834 158.341 126.834 157.904V154.182C126.834 153.746 126.66 153.328 126.351 153.019C126.043 152.71 125.625 152.537 125.188 152.536ZM125.434 157.904C125.434 157.937 125.428 157.969 125.415 157.998C125.403 158.028 125.385 158.055 125.362 158.078C125.339 158.101 125.312 158.119 125.282 158.132C125.252 158.144 125.22 158.15 125.188 158.15H117.14C117.108 158.15 117.076 158.144 117.046 158.132C117.016 158.119 116.989 158.101 116.966 158.078C116.943 158.055 116.925 158.028 116.913 157.998C116.901 157.969 116.894 157.937 116.894 157.904V154.182C116.894 154.117 116.92 154.054 116.966 154.008C117.012 153.962 117.075 153.936 117.14 153.936H125.188C125.253 153.936 125.316 153.962 125.362 154.008C125.408 154.054 125.434 154.117 125.434 154.182V157.904Z" fill="#2F6EB4"/>
<path d="M123.244 155.342H118.844C118.658 155.342 118.48 155.416 118.349 155.547C118.218 155.678 118.144 155.856 118.144 156.042C118.144 156.228 118.218 156.406 118.349 156.537C118.48 156.668 118.658 156.742 118.844 156.742H123.244C123.43 156.742 123.608 156.668 123.739 156.537C123.87 156.406 123.944 156.228 123.944 156.042C123.944 155.856 123.87 155.678 123.739 155.547C123.608 155.416 123.43 155.342 123.244 155.342Z" fill="#2F6EB4"/>
<path d="M43.2902 114.486C43.3157 114.546 43.3465 114.604 43.3822 114.658C43.418 114.713 43.4595 114.764 43.5062 114.81C43.6937 114.998 43.948 115.103 44.2132 115.103C44.4784 115.103 44.7327 114.998 44.9202 114.81C44.9669 114.764 45.0091 114.713 45.0462 114.658C45.0819 114.604 45.1127 114.546 45.1382 114.486C45.1629 114.425 45.1817 114.363 45.1942 114.298C45.2223 114.166 45.2223 114.03 45.1942 113.898C45.1816 113.835 45.1629 113.772 45.1382 113.712C45.1132 113.651 45.0824 113.593 45.0462 113.538C45.0086 113.484 44.9665 113.433 44.9202 113.386C44.7804 113.247 44.6025 113.152 44.4089 113.114C44.2153 113.075 44.0146 113.095 43.8322 113.17C43.7714 113.195 43.7131 113.226 43.6582 113.262C43.5485 113.335 43.4546 113.428 43.3822 113.538C43.346 113.593 43.3152 113.651 43.2902 113.712C43.2655 113.772 43.2468 113.835 43.2342 113.898C43.2061 114.03 43.2061 114.166 43.2342 114.298C43.2468 114.363 43.2655 114.425 43.2902 114.486Z" fill="#2F6EB4"/>
<path d="M57.8317 114.487C57.8563 114.547 57.8872 114.605 57.9237 114.659C57.9594 114.714 58.001 114.765 58.0477 114.811C58.0942 114.857 58.1451 114.898 58.1997 114.935C58.2532 114.972 58.311 115.003 58.3717 115.027C58.432 115.053 58.4951 115.072 58.5597 115.085C58.6256 115.098 58.6925 115.104 58.7597 115.105C59.0249 115.105 59.2793 114.999 59.4668 114.812C59.6543 114.624 59.7597 114.37 59.7597 114.105C59.76 114.038 59.754 113.971 59.7417 113.905C59.7284 113.841 59.709 113.779 59.6837 113.719C59.6595 113.657 59.6286 113.599 59.5917 113.545C59.4819 113.38 59.3259 113.252 59.1433 113.176C58.9607 113.1 58.7596 113.08 58.5657 113.119C58.5013 113.132 58.4383 113.151 58.3777 113.177C58.3173 113.201 58.2597 113.232 58.2057 113.269C58.1507 113.304 58.0997 113.346 58.0537 113.393C58.0075 113.439 57.9659 113.49 57.9297 113.545C57.8928 113.599 57.8619 113.657 57.8377 113.719C57.8123 113.779 57.7929 113.841 57.7797 113.905C57.7544 114.037 57.7544 114.172 57.7797 114.305C57.7913 114.367 57.8087 114.428 57.8317 114.487Z" fill="#2F6EB4"/>
<path d="M25.7059 60.9105C27.7699 61.6365 29.6699 61.9985 31.3499 61.9985C33.6419 61.9985 35.5279 61.3245 36.8619 59.9985L38.4459 58.4145C38.7935 58.0663 39.0588 57.6447 39.2222 57.1805C39.3855 56.7164 39.4429 56.2216 39.3899 55.7324C39.337 55.2432 39.1751 54.7721 38.9162 54.3537C38.6573 53.9353 38.308 53.5802 37.8939 53.3145L31.6819 49.3385C31.0485 48.9377 30.298 48.7636 29.5529 48.8446C28.8078 48.9256 28.1123 49.257 27.5799 49.7845L24.9799 52.3845C24.7495 52.6137 24.4474 52.7569 24.1241 52.7901C23.8008 52.8232 23.4759 52.7442 23.2039 52.5665C18.0728 49.1433 13.6719 44.7363 10.2559 39.6005C10.0793 39.3284 10.0011 39.0041 10.0342 38.6814C10.0673 38.3587 10.2098 38.0571 10.4379 37.8265L13.0379 35.2265C13.5654 34.6941 13.8967 33.9985 13.9777 33.2534C14.0587 32.5083 13.8846 31.7578 13.4839 31.1245L9.51787 24.9245C9.25067 24.5086 8.89321 24.1583 8.47203 23.8996C8.05085 23.6409 7.57678 23.4804 7.08505 23.43C6.59332 23.3797 6.09657 23.4408 5.6317 23.6088C5.16683 23.7768 4.74579 24.0474 4.39987 24.4005L2.84187 25.9785C0.53187 28.2885 0.19987 32.2505 1.92587 37.1285C3.58587 41.8385 6.96787 46.9005 11.4519 51.3845C15.9359 55.8685 20.9999 59.2505 25.7059 60.9105Z" fill="#2F6EB4"/>
<path d="M140.103 53.0845C140.118 53.1002 140.131 53.1169 140.143 53.1345L142.781 55.6005C143.449 56.226 144.329 56.574 145.243 56.574C146.158 56.574 147.038 56.226 147.705 55.6005L161.199 42.9785C160.862 42.8002 160.485 42.7069 160.103 42.7065H130.399C130.017 42.7069 129.641 42.8002 129.303 42.9785L139.999 53.0005C140.037 53.0248 140.072 53.053 140.103 53.0845Z" fill="#2F6EB4"/>
<path d="M138.6 53.6005L128.312 43.9725C128.133 44.3111 128.04 44.6879 128.04 45.0705V62.8005C128.04 63.1832 128.133 63.5601 128.312 63.8985L138.6 53.6005Z" fill="#2F6EB4"/>
<path d="M148.663 56.6242C147.737 57.4932 146.514 57.9768 145.243 57.9768C143.973 57.9768 142.75 57.4932 141.823 56.6242L139.623 54.5602L129.295 64.8862C129.634 65.0654 130.011 65.1588 130.393 65.1582H160.099C160.482 65.1588 160.859 65.0654 161.197 64.8862L150.869 54.5602L148.663 56.6242Z" fill="#2F6EB4"/>
<path d="M162.186 43.9681L151.892 53.6001L162.188 63.8941C162.366 63.5569 162.459 63.1815 162.46 62.8001V45.0661C162.46 44.6832 162.366 44.3062 162.186 43.9681Z" fill="#2F6EB4"/>
<path d="M59.0301 34.9483V44.4683C59.0234 45.0816 59.2022 45.6827 59.5431 46.1927C59.8839 46.7027 60.3708 47.0978 60.9401 47.3263C61.3201 47.4859 61.7279 47.5689 62.1401 47.5703C62.544 47.5691 62.9436 47.4877 63.3158 47.3308C63.6879 47.1739 64.0252 46.9446 64.3081 46.6563L76.0001 34.9583H101.318C105.865 34.9583 110.226 33.1521 113.441 29.9369C116.656 26.7218 118.462 22.3612 118.462 17.8143C118.462 13.2674 116.656 8.90678 113.441 5.69166C110.226 2.47653 105.865 0.670294 101.318 0.670294H59.6321C55.1346 0.666435 50.8158 2.43002 47.6065 5.58087C44.3973 8.73173 42.5547 13.0175 42.476 17.5142C42.3973 22.011 44.0888 26.3586 47.1858 29.6199C50.2828 32.8811 54.5373 34.7948 59.0321 34.9483H59.0301ZM59.6301 2.07029H101.318C105.494 2.07029 109.498 3.72903 112.451 6.68161C115.403 9.63418 117.062 13.6387 117.062 17.8143C117.062 21.9899 115.403 25.9944 112.451 28.947C109.498 31.8996 105.494 33.5583 101.318 33.5583H75.4281L63.3201 45.6663C63.083 45.9027 62.7811 46.0635 62.4526 46.1285C62.1241 46.1934 61.7837 46.1595 61.4745 46.0311C61.1652 45.9027 60.901 45.6855 60.7151 45.407C60.5292 45.1285 60.43 44.8011 60.4301 44.4663V33.5583H59.6301C55.4545 33.5583 51.45 31.8996 48.4974 28.947C45.5448 25.9944 43.8861 21.9899 43.8861 17.8143C43.8861 13.6387 45.5448 9.63418 48.4974 6.68161C51.45 3.72903 55.4545 2.07029 59.6301 2.07029Z" fill="#2F6EB4"/>
<path d="M69.4978 19.3021C69.5354 19.3923 69.5816 19.4787 69.6358 19.5601C69.6895 19.6425 69.7519 19.7189 69.8218 19.7881C70.104 20.069 70.4857 20.2272 70.8838 20.2281C70.9819 20.228 71.0798 20.2179 71.1758 20.1981C71.2717 20.1792 71.3654 20.1511 71.4558 20.1141C71.5467 20.0765 71.6338 20.0303 71.7158 19.9761C71.7975 19.9207 71.8739 19.8577 71.9438 19.7881C72.0138 19.7189 72.0761 19.6425 72.1298 19.5601C72.2385 19.3969 72.3146 19.2142 72.3538 19.0221C72.3737 18.9253 72.3837 18.8268 72.3838 18.7281C72.3828 18.3305 72.2246 17.9495 71.9438 17.6681C71.8739 17.5984 71.7975 17.5355 71.7158 17.4801C71.6337 17.4265 71.5466 17.381 71.4558 17.3441C71.3658 17.3055 71.272 17.2767 71.1758 17.2581C70.9346 17.2094 70.6852 17.2204 70.4492 17.2901C70.2132 17.3598 69.9978 17.4861 69.8218 17.6581C69.7523 17.7277 69.69 17.804 69.6358 17.8861C69.5266 18.0497 69.4505 18.2332 69.4118 18.4261C69.3925 18.5222 69.3831 18.62 69.3838 18.7181C69.3832 18.8168 69.3926 18.9153 69.4118 19.0121C69.4307 19.1114 69.4595 19.2085 69.4978 19.3021Z" fill="#2F6EB4"/>
<path d="M79.0899 19.3023C79.1271 19.3934 79.1733 19.4805 79.2279 19.5623C79.282 19.6444 79.3443 19.7208 79.4139 19.7903C79.4844 19.8588 79.5607 19.921 79.6419 19.9763C79.7235 20.0301 79.8098 20.0763 79.8999 20.1143C80.0816 20.1904 80.2768 20.2292 80.4739 20.2283C80.5725 20.2279 80.6709 20.2186 80.7679 20.2003C80.8638 20.1808 80.9575 20.152 81.0479 20.1143C81.1386 20.0763 81.2256 20.0301 81.3079 19.9763C81.4712 19.8663 81.6118 19.7257 81.7219 19.5623C81.7757 19.48 81.8219 19.393 81.8599 19.3023C81.8969 19.2119 81.925 19.1182 81.9439 19.0223C81.9638 18.9256 81.9738 18.8271 81.9739 18.7283C81.9739 18.6302 81.9639 18.5324 81.9439 18.4363C81.907 18.2432 81.8315 18.0595 81.7219 17.8963C81.667 17.8142 81.604 17.7379 81.5339 17.6683C81.465 17.5982 81.3893 17.5353 81.3079 17.4803C81.2256 17.4265 81.1386 17.3803 81.0479 17.3423C80.9575 17.3053 80.8637 17.2772 80.7679 17.2583C80.5746 17.2183 80.3752 17.2183 80.1819 17.2583C80.0855 17.2775 79.991 17.3056 79.8999 17.3423C79.8098 17.3804 79.7235 17.4265 79.6419 17.4803C79.5602 17.5357 79.4838 17.5987 79.4139 17.6683C79.3438 17.7374 79.2815 17.8138 79.2279 17.8963C79.173 17.9773 79.1267 18.0637 79.0899 18.1543C79.0522 18.2453 79.0234 18.3398 79.0039 18.4363C78.9839 18.5324 78.9738 18.6302 78.9739 18.7283C78.9739 18.8271 78.984 18.9256 79.0039 19.0223C79.0234 19.1182 79.0522 19.212 79.0899 19.3023Z" fill="#2F6EB4"/>
<path d="M88.6819 19.3023C88.7188 19.3925 88.7644 19.4789 88.8179 19.5603C88.9286 19.7244 89.0699 19.8656 89.2339 19.9763C89.3155 20.0301 89.4019 20.0763 89.4919 20.1143C89.5831 20.1511 89.6775 20.1792 89.7739 20.1983C89.87 20.2183 89.9678 20.2284 90.0659 20.2283C90.1647 20.2283 90.2632 20.2182 90.3599 20.1983C90.4558 20.1795 90.5495 20.1513 90.6399 20.1143C90.7306 20.0763 90.8176 20.0301 90.8999 19.9763C91.064 19.8663 91.2047 19.7249 91.3139 19.5603C91.3681 19.479 91.4143 19.3926 91.4519 19.3023C91.4887 19.2117 91.5175 19.118 91.5379 19.0223C91.5562 18.9254 91.5655 18.827 91.5659 18.7283C91.5656 18.6303 91.5563 18.5326 91.5379 18.4363C91.5172 18.3401 91.4884 18.2458 91.4519 18.1543C91.4143 18.0641 91.3681 17.9777 91.3139 17.8963C91.2591 17.8148 91.1968 17.7385 91.1279 17.6683C91.0584 17.5987 90.982 17.5364 90.8999 17.4823C90.8181 17.4278 90.731 17.3815 90.6399 17.3443C90.5499 17.3058 90.4561 17.2769 90.3599 17.2583C90.1666 17.2183 89.9672 17.2183 89.7739 17.2583C89.6772 17.2772 89.5827 17.306 89.4919 17.3443C89.4015 17.3815 89.3151 17.4278 89.2339 17.4823C89.1514 17.5359 89.075 17.5983 89.0059 17.6683C88.9358 17.7379 88.8728 17.8142 88.8179 17.8963C88.7644 17.9777 88.7188 18.0641 88.6819 18.1543C88.6434 18.245 88.6146 18.3396 88.5959 18.4363C88.5759 18.5324 88.5659 18.6302 88.5659 18.7283C88.566 18.8271 88.576 18.9256 88.5959 19.0223C88.6145 19.1185 88.6433 19.2123 88.6819 19.3023Z" fill="#2F6EB4"/>
</svg>
