<svg width="190" height="179" viewBox="0 0 190 179" fill="none" xmlns="http://www.w3.org/2000/svg">
<path d="M21.2081 159.67C24.7427 159.67 27.6081 156.804 27.6081 153.27C27.6081 149.735 24.7427 146.87 21.2081 146.87C17.6735 146.87 14.8081 149.735 14.8081 153.27C14.8081 156.804 17.6735 159.67 21.2081 159.67Z" fill="#308720"/>
<path d="M21.2081 126.667C24.7427 126.667 27.6081 123.802 27.6081 120.267C27.6081 116.733 24.7427 113.867 21.2081 113.867C17.6735 113.867 14.8081 116.733 14.8081 120.267C14.8081 123.802 17.6735 126.667 21.2081 126.667Z" fill="#308720"/>
<path d="M21.2081 93.2659C24.7427 93.2659 27.6081 90.4005 27.6081 86.8659C27.6081 83.3313 24.7427 80.4659 21.2081 80.4659C17.6735 80.4659 14.8081 83.3313 14.8081 86.8659C14.8081 90.4005 17.6735 93.2659 21.2081 93.2659Z" fill="#308720"/>
<path d="M170.142 150.462H90.4443C89.6993 150.462 88.9848 150.758 88.458 151.284C87.9312 151.811 87.6353 152.526 87.6353 153.271C87.6353 154.016 87.9312 154.73 88.458 155.257C88.9848 155.784 89.6993 156.08 90.4443 156.08H170.142C170.887 156.08 171.602 155.784 172.129 155.257C172.655 154.73 172.951 154.016 172.951 153.271C172.951 152.526 172.655 151.811 172.129 151.284C171.602 150.758 170.887 150.462 170.142 150.462Z" fill="#2F6EB4"/>
<path d="M46.3139 156.078C47.8647 156.078 49.1219 154.82 49.1219 153.27C49.1219 151.719 47.8647 150.462 46.3139 150.462C44.763 150.462 43.5059 151.719 43.5059 153.27C43.5059 154.82 44.763 156.078 46.3139 156.078Z" fill="#2F6EB4"/>
<path d="M57.5026 156.038C59.0334 155.79 60.0729 154.347 59.8244 152.816C59.5759 151.286 58.1336 150.246 56.6028 150.495C55.072 150.743 54.0325 152.185 54.281 153.716C54.5294 155.247 55.9718 156.286 57.5026 156.038Z" fill="#2F6EB4"/>
<path d="M67.7785 156.078C69.3293 156.078 70.5865 154.82 70.5865 153.27C70.5865 151.719 69.3293 150.462 67.7785 150.462C66.2276 150.462 64.9705 151.719 64.9705 153.27C64.9705 154.82 66.2276 156.078 67.7785 156.078Z" fill="#2F6EB4"/>
<path d="M87.6362 120.268C87.6394 121.01 87.9354 121.72 88.4598 122.244C88.9842 122.769 89.6946 123.065 90.4362 123.068H170.142C170.887 123.068 171.602 122.772 172.129 122.245C172.655 121.718 172.951 121.004 172.951 120.259C172.951 119.514 172.655 118.799 172.129 118.273C171.602 117.746 170.887 117.45 170.142 117.45H90.4442C90.0748 117.45 89.7091 117.524 89.368 117.666C89.0269 117.808 88.7171 118.015 88.4563 118.277C88.1955 118.539 87.9889 118.849 87.8482 119.191C87.7075 119.533 87.6354 119.899 87.6362 120.268Z" fill="#2F6EB4"/>
<path d="M46.3139 123.075C47.8647 123.075 49.1219 121.818 49.1219 120.267C49.1219 118.717 47.8647 117.459 46.3139 117.459C44.763 117.459 43.5059 118.717 43.5059 120.267C43.5059 121.818 44.763 123.075 46.3139 123.075Z" fill="#2F6EB4"/>
<path d="M57.0458 123.075C58.5966 123.075 59.8538 121.818 59.8538 120.267C59.8538 118.717 58.5966 117.459 57.0458 117.459C55.495 117.459 54.2378 118.717 54.2378 120.267C54.2378 121.818 55.495 123.075 57.0458 123.075Z" fill="#2F6EB4"/>
<path d="M67.7785 123.075C69.3293 123.075 70.5865 121.818 70.5865 120.267C70.5865 118.717 69.3293 117.459 67.7785 117.459C66.2276 117.459 64.9705 118.717 64.9705 120.267C64.9705 121.818 66.2276 123.075 67.7785 123.075Z" fill="#2F6EB4"/>
<path d="M189.91 97.5578V76.1738C189.908 74.37 189.191 72.6406 187.917 71.3642C186.642 70.0879 184.914 69.3685 183.11 69.3638H174.2C173.935 69.3638 173.681 69.4691 173.493 69.6567C173.305 69.8442 173.2 70.0986 173.2 70.3638C173.2 70.629 173.305 70.8833 173.493 71.0709C173.681 71.2584 173.935 71.3638 174.2 71.3638H183.1C184.374 71.368 185.594 71.8764 186.493 72.7779C187.393 73.6793 187.899 74.9003 187.9 76.1738V97.5578C187.899 98.8312 187.393 100.052 186.493 100.954C185.594 101.855 184.374 102.364 183.1 102.368H150.654C150.389 102.368 150.135 102.473 149.947 102.661C149.759 102.848 149.654 103.103 149.654 103.368C149.654 103.633 149.759 103.887 149.947 104.075C150.135 104.262 150.389 104.368 150.654 104.368H183.1C184.372 104.371 185.591 104.878 186.49 105.778C187.39 106.677 187.896 107.896 187.9 109.168V130.358C187.899 131.687 187.37 132.96 186.43 133.9C185.491 134.84 184.217 135.368 182.888 135.37H7.0881C5.75932 135.368 4.48542 134.84 3.54583 133.9C2.60624 132.96 2.07769 131.687 2.0761 130.358V109.176C2.07979 107.904 2.58669 106.685 3.48607 105.786C4.38544 104.886 5.6042 104.379 6.8761 104.376H110.84C111.105 104.376 111.36 104.27 111.547 104.083C111.735 103.895 111.84 103.641 111.84 103.376C111.84 103.111 111.735 102.856 111.547 102.669C111.36 102.481 111.105 102.376 110.84 102.376H6.9001C5.62663 102.372 4.40667 101.863 3.50713 100.962C2.60758 100.06 2.10168 98.8392 2.1001 97.5658V76.1738C2.10168 74.9003 2.60758 73.6793 3.50713 72.7779C4.40667 71.8764 5.62663 71.368 6.9001 71.3638H86.4661C86.7313 71.3638 86.9857 71.2584 87.1732 71.0709C87.3607 70.8833 87.4661 70.629 87.4661 70.3638C87.4661 70.0986 87.3607 69.8442 87.1732 69.6567C86.9857 69.4691 86.7313 69.3638 86.4661 69.3638H6.9001C5.09636 69.3685 3.368 70.0879 2.0935 71.3642C0.818994 72.6406 0.102208 74.37 0.100098 76.1738V97.5578C0.101141 98.7244 0.401616 99.8713 0.972761 100.889C1.54391 101.906 2.3666 102.759 3.3621 103.368C2.36778 103.975 1.54579 104.827 0.974693 105.842C0.403593 106.858 0.102468 108.003 0.100098 109.168V130.358C0.0997743 131.568 0.412739 132.758 1.00854 133.811C1.60435 134.865 2.4627 135.746 3.5001 136.37C2.46297 136.994 1.60483 137.875 1.00906 138.928C0.413295 139.982 0.100165 141.172 0.100098 142.382V163.362C0.102215 165.221 0.841657 167.003 2.1562 168.318C3.47075 169.632 5.25305 170.372 7.1121 170.374H18.5241V172.812C18.5241 174.403 19.1562 175.929 20.2815 177.054C21.4067 178.18 22.9328 178.812 24.5241 178.812H41.2221C42.8134 178.812 44.3395 178.18 45.4647 177.054C46.59 175.929 47.2221 174.403 47.2221 172.812V170.374H142.788V172.812C142.788 174.403 143.42 175.929 144.545 177.054C145.671 178.18 147.197 178.812 148.788 178.812H165.486C167.077 178.812 168.604 178.18 169.729 177.054C170.854 175.929 171.486 174.403 171.486 172.812V170.374H182.898C184.757 170.372 186.539 169.632 187.854 168.318C189.169 167.003 189.908 165.221 189.91 163.362V142.382C189.91 141.172 189.597 139.982 189.001 138.928C188.405 137.875 187.547 136.994 186.51 136.37C187.548 135.746 188.406 134.865 189.002 133.811C189.597 132.758 189.91 131.568 189.91 130.358V109.176C189.908 108.011 189.607 106.866 189.036 105.85C188.464 104.835 187.642 103.983 186.648 103.376C187.645 102.767 188.468 101.912 189.039 100.893C189.611 99.8743 189.91 98.7258 189.91 97.5578ZM187.91 142.382V163.362C187.909 164.691 187.38 165.964 186.44 166.904C185.501 167.844 184.227 168.372 182.898 168.374H7.0981C5.76932 168.372 4.49542 167.844 3.55583 166.904C2.61624 165.964 2.08769 164.691 2.0861 163.362V142.382C2.08821 141.053 2.61694 139.78 3.55642 138.84C4.49589 137.901 5.76948 137.372 7.0981 137.37H182.898C184.227 137.372 185.5 137.901 186.44 138.84C187.379 139.78 187.908 141.053 187.91 142.382Z" fill="#2F6EB4"/>
<path d="M90.4443 89.6738H98.1463C98.272 89.6746 98.3956 89.6417 98.5042 89.5784C98.6128 89.5152 98.7025 89.4239 98.7638 89.3142C98.8251 89.2045 98.8558 89.0803 98.8527 88.9546C98.8497 88.8289 98.8129 88.7064 98.7463 88.5998L96.0743 84.3818C96.0113 84.2822 95.9242 84.2001 95.8211 84.1431C95.718 84.0861 95.6021 84.0561 95.4843 84.0558H90.4443C89.6993 84.0558 88.9848 84.3517 88.458 84.8785C87.9312 85.4053 87.6353 86.1198 87.6353 86.8648C87.6353 87.6098 87.9312 88.3243 88.458 88.8511C88.9848 89.3779 89.6993 89.6738 90.4443 89.6738Z" fill="#2F6EB4"/>
<path d="M163.304 89.6737H170.142C170.887 89.6737 171.602 89.3777 172.129 88.8509C172.655 88.3241 172.951 87.6096 172.951 86.8646C172.951 86.1197 172.655 85.4052 172.129 84.8784C171.602 84.3516 170.887 84.0556 170.142 84.0556H165.984C165.865 84.0544 165.747 84.0837 165.642 84.1408C165.537 84.1978 165.448 84.2807 165.384 84.3816L162.712 88.5997C162.645 88.7062 162.607 88.829 162.603 88.9552C162.599 89.0815 162.63 89.2063 162.691 89.3166C162.753 89.4269 162.843 89.5185 162.952 89.5817C163.062 89.6449 163.186 89.6774 163.312 89.6757L163.304 89.6737Z" fill="#2F6EB4"/>
<path d="M46.3139 89.674C47.8647 89.674 49.1219 88.4168 49.1219 86.866C49.1219 85.3152 47.8647 84.058 46.3139 84.058C44.763 84.058 43.5059 85.3152 43.5059 86.866C43.5059 88.4168 44.763 89.674 46.3139 89.674Z" fill="#2F6EB4"/>
<path d="M57.0458 89.674C58.5966 89.674 59.8538 88.4168 59.8538 86.866C59.8538 85.3152 58.5966 84.058 57.0458 84.058C55.495 84.058 54.2378 85.3152 54.2378 86.866C54.2378 88.4168 55.495 89.674 57.0458 89.674Z" fill="#2F6EB4"/>
<path d="M67.7785 89.674C69.3293 89.674 70.5865 88.4168 70.5865 86.866C70.5865 85.3152 69.3293 84.058 67.7785 84.058C66.2276 84.058 64.9705 85.3152 64.9705 86.866C64.9705 88.4168 66.2276 89.674 67.7785 89.674Z" fill="#2F6EB4"/>
<path d="M130.8 46.6456C129.681 46.6454 128.595 47.0177 127.711 47.7036C126.828 48.3896 126.198 49.3503 125.921 50.4339C125.645 51.5176 125.737 52.6626 126.183 53.6882C126.629 54.7138 127.404 55.5615 128.386 56.0976V61.1516C128.377 61.4794 128.433 61.8057 128.552 62.1113C128.671 62.4168 128.85 62.6954 129.079 62.9305C129.307 63.1657 129.58 63.3526 129.882 63.4802C130.184 63.6079 130.509 63.6737 130.837 63.6737C131.165 63.6737 131.489 63.6079 131.791 63.4802C132.093 63.3526 132.367 63.1657 132.595 62.9305C132.824 62.6954 133.003 62.4168 133.122 62.1113C133.241 61.8057 133.297 61.4794 133.288 61.1516V56.0556C134.249 55.5042 135.001 54.6513 135.428 53.6291C135.854 52.6069 135.932 51.4724 135.649 50.4015C135.365 49.3307 134.736 48.3832 133.86 47.706C132.983 47.0287 131.908 46.6595 130.8 46.6556V46.6456Z" fill="#308720"/>
<path d="M179.162 8.95569C147.975 -2.73731 113.608 -2.73731 82.4204 8.95569C82.4204 85.2477 130.8 109.448 130.8 109.448C130.8 109.448 179.172 85.2477 179.172 8.95569H179.162ZM130.762 20.9157H130.838C140.172 20.9557 147.752 28.3917 147.752 37.5297H143.02C143.02 30.9837 137.538 25.6577 130.79 25.6377C124.044 25.6577 118.56 30.9837 118.56 37.5297H113.838C113.838 28.3997 121.42 20.9557 130.752 20.9157H130.762ZM152.326 67.1437C152.326 67.7802 152.074 68.3907 151.623 68.8408C151.173 69.2908 150.563 69.5437 149.926 69.5437H111.662C111.026 69.5437 110.415 69.2908 109.965 68.8408C109.515 68.3907 109.262 67.7802 109.262 67.1437V42.7997C109.262 42.1632 109.515 41.5527 109.965 41.1026C110.415 40.6525 111.026 40.3997 111.662 40.3997H149.918C150.555 40.3997 151.165 40.6525 151.615 41.1026C152.066 41.5527 152.318 42.1632 152.318 42.7997L152.326 67.1437Z" fill="#308720"/>
</svg>
