<?xml version="1.0" standalone="no"?>
<!DOCTYPE svg PUBLIC "-//W3C//DTD SVG 1.1//EN" "http://www.w3.org/Graphics/SVG/1.1/DTD/svg11.dtd">
<svg xmlns="http://www.w3.org/2000/svg">
<metadata>Generated by Fontastic.me</metadata>
<defs>
<font id="openproject-icon-font" horiz-adv-x="512">
<font-face font-family="openproject-icon-font" units-per-em="512" ascent="480" descent="-32"/>
<missing-glyph horiz-adv-x="512" />

<glyph unicode="&#57344;" d="M512 320l-192 0 0 192-128 0 0-192-192 0 0-128 192 0 0-192 128 0 0 192 192 0z"/>
<glyph unicode="&#57345;" d="M256 512c-141 0-256-115-256-256 0-141 115-256 256-256 141 0 256 115 256 256 0 141-115 256-256 256z m171-305l-122 0 0-122-98 0 0 122-122 0 0 98 122 0 0 122 98 0 0-122 122 0z"/>
<glyph unicode="&#57346;" d="M176 320l64 0 0-64-64 0z m96 0l64 0 0-64-64 0z m96 0l64 0 0-64-64 0z m-288-96l64 0 0-64-64 0z m96 0l64 0 0-64-64 0z m96 0l64 0 0-64-64 0z m96 0l64 0 0-64-64 0z m-288-96l64 0 0-64-64 0z m96 0l64 0 0-64-64 0z m96 0l64 0 0-64-64 0z m160 320l0 64-96 0 0-64-160 0 0 64-96 0 0-64-64 0 0-448 480 0 0 448z m-64 32l32 0 0-64-32 0z m-256 0l32 0 0-64-32 0z m352-448l-416 0 0 320 416 0z"/>
<glyph unicode="&#57347;" d="M32 160l0-96 192 0 0 96z m96-64l-64 0 0 32 64 0z m64 0l-19 0 0 32 19 0z m96 64l0-96 192 0 0 96z m96-64l-64 0 0 32 64 0z m64 0l-19 0 0 32 19 0z m-128 160l0-96 192 0 0 96z m96-64l-64 0 0 32 64 0z m64 0l-19 0 0 32 19 0z m-192 160l0-96 192 0 0 96z m96-64l-64 0 0 32 64 0z m64 0l-19 0 0 32 19 0z m-416-32l0-96 192 0 0 96z m96-64l-64 0 0 32 64 0z m64 0l-19 0 0 32 19 0z m-192 160l0-96 192 0 0 96z m96-64l-64 0 0 32 64 0z m64 0l-19 0 0 32 19 0z m-128 160l0-96 192 0 0 96z m96-64l-64 0 0 32 64 0z m64 0l-19 0 0 32 19 0z"/>
<glyph unicode="&#57348;" d="M512 376l-162 136-2-64c-250 12-283-147-284-179 60 125 252 52 279 51l-2-64z m-164 61l-4-115c1 29 2 59 4 115z m-179-245l2 64-171-120 162-136 4 115c-1-14-1-31-2-51 250-12 283 147 284 179-60-125-252-52-279-51z"/>
<glyph unicode="&#57349;" d="M0 248l126 140 0-66c251 0 270-165 270-198-54 132-270 66-270 66l0-66z m512 239l0-462-363 0 0 77 36 0 0-38 291 0 0 385-291 0 0-39-36 0 0 77z"/>
<glyph unicode="&#57350;" d="M444 448l-376 0-68-175 0-209 512 0 0 209z m-92-140c0-57-43-104-96-104-53 0-96 47-96 104l-112 0 41 105 334 0 41-105z"/>
<glyph unicode="&#57351;" d="M512 102l-154 154 154 154-102 102-154-154-154 154-102-102 154-154-154-154 102-102 154 154 154-154z"/>
<glyph unicode="&#57352;" d="M512 96l-352 0 0 416 229 0 123-132z m-288 64l224 0 0 195-87 93-137 0z m128-160l-352 0 0 416 160 0 0-64-96 0 0-288 224 0 0 32 64 0z m-96 384l128 0 0-32-128 0z m0-64l160 0 0-32-160 0z m0-64l160 0 0-32-160 0z m-160 32l64 0 0-32-64 0z m0-64l96 0 0-32-96 0z m0-64l96 0 0-32-96 0z"/>
<glyph unicode="&#57353;" d="M232 282l209 183c15 14 43 14 59 0 16-14 16-37 0-52l-180-157 180-157c16-14 16-37 0-52-8-7-19-10-30-10-11 0-21 3-29 10l-209 183c-8 7-13 16-13 26 0 10 5 19 13 26z m-220 0l209 183c16 14 44 14 59 0 17-14 17-37 0-52l-179-157 179-157c17-14 17-37 0-52-8-7-18-10-29-10-11 0-22 3-30 10l-209 183c-8 7-12 16-12 26 0 10 4 19 12 26z"/>
<glyph unicode="&#57354;" d="M280 282l-209 183c-15 14-43 14-59 0-16-14-16-37 0-52l180-157-180-157c-16-14-16-37 0-52 8-7 19-10 30-10 11 0 21 3 29 10l209 183c8 7 13 16 13 26 0 10-5 19-13 26z m220 0l-209 183c-16 14-44 14-59 0-17-14-17-37 0-52l179-157-179-157c-17-14-17-37 0-52 8-7 18-10 29-10 11 0 22 3 30 10l209 183c8 7 12 16 12 26 0 10-4 19-12 26z"/>
<glyph unicode="&#57355;" d="M352 224l64 0 0-192-64 0z m-64-64l192 0 0-64-192 0z m39-96l-236 0 0 384 165 0 12-13 0-83 77 0 12-13 0-83 59 0 0 109-136 147-248 0 0-512 295 0z"/>
<glyph unicode="&#57356;" d="M171 64l42 0 0-43-42 0z m-43 43l43 0 0-43-43 0z m-43 384l43 0 0-43-43 0z m214-427l42 0 0-43-42 0z m42 43l43 0 0-43-43 0z m128 128l0 42-42 0 0 128-43 0 0 43-43 0 0-43-170 0 0 43-43 0 0-43-43 0 0-128-42 0 0-42-43 0 0-128 43 0 0 85 42 0 0-85 43 0 0 42 256 0 0-42 43 0 0 85 42 0 0-85 43 0 0 128z m-341 0l0 85 43 0 0-85z m213 0l0 85 43 0 0-85z m43 256l43 0 0-43-43 0z"/>
<glyph unicode="&#57357;" d="M249 497c31 0 56-25 56-56l0-178c0-31-25-56-56-56l-178 0c-31 0-56 25-56 56l0 178c0 31 25 56 56 56l178 0m-184-176l190 0 0 62-190 0 0-62m184 191l-178 0c-39 0-71-32-71-71l0-178c0-39 32-71 71-71l178 0c39 0 71 32 71 71l0 178c0 39-32 71-71 71z m-169-176l0 32 160 0 0-32z m361-48l-178 0c-39 0-71-29-71-64l0-160c0-35 32-64 71-64l178 0c39 0 71 29 71 64l0 160c0 35-32 64-71 64z m7-163l-77 0 0-77-38 0 0 77-77 0 0 38 77 0 0 77 38 0 0-77 77 0z"/>
<glyph unicode="&#57358;" d="M39 394l197 0-78 79-119 0z m434-355l-434 0-39 276 512 0z m0 315l-434 0 0 40 434 0z"/>
<glyph unicode="&#57359;" d="M0 266l0-20c118-200 394-200 512 0l0 20c-118 200-394 200-512 0z m256-122c-62 0-112 50-112 112 0 62 50 112 112 112 62 0 112-50 112-112 0-62-50-112-112-112z"/>
<glyph unicode="&#57360;" d="M465 495c0 0-82-93-170-106-9-29-14-60-14-92 0-31 5-62 14-92 88-13 170-106 170-106 63 108 63 288 0 396z m-215-406c-19 19-28 67-27 109l27 0c0 35 0 85 0 109 0 21 0 50 0 73-75 0-179 0-179 0-39 0-71-41-71-91 0-50 32-91 71-91l52 0c9-23 20-53 20-72 0-37 35-109 71-109 36 0 71 36 36 72z m-179 146c-19 0-35 20-35 45 0 25 16 45 35 45z"/>
<glyph unicode="&#57361;" d="M0 512l32 0 0-512-32 0z m64-384l288 0 0-128-288 0z m0 192l384 0 0-128-384 0z m16 192l160 0 0-128-160 0z"/>
<glyph unicode="&#57362;" d="M512 248l-122 136 0-64c-243 0-262-160-262-192 53 128 262 64 262 64l0-64z m-512 200l0-384 384 0 0 64-39 0 0-32-307 0 0 320 307 0 0-32 39 0 0 64z"/>
<glyph unicode="&#57363;" d="M176 307c18 0 32-15 32-32l0-38c0-17-14-32-32-32l-96 0c-18 0-32 15-32 32l0 38c0 17 14 32 32 32l96 0m0 48l-96 0c-44 0-80-36-80-80l0-38c0-44 36-80 80-80l96 0c44 0 80 36 80 80l0 38c0 44-36 80-80 80z m256-48c18 0 32-15 32-32l0-32c0-18-14-32-32-32l-96 0c-18 0-32 14-32 32l0 32c0 17 14 32 32 32l96 0m0 48l-96 0c-44 0-80-36-80-80l0-32c0-44 36-80 80-80l96 0c44 0 80 36 80 80l0 32c0 44-36 80-80 80z m-64-96c0-18-14-32-32-32l-160 0c-18 0-32 14-32 32 0 17 14 32 32 32l160 0c18 0 32-15 32-32z"/>
<glyph unicode="&#57364;" d="M372 24l0 0 0-24 62 0 0 88z m-186 40l-92 0 0 384 172 0 89-92 43 46-106 110-260 0 0-512 154 0z m288 12c-8 15-36 24-64 37-27 13-34 17-34 17l0 30c0 0 10 9 13 37 7-2 14 11 14 18 0 6-1 25-9 23 2 14 3 26 3 33-3 24-24 49-56 49-32 0-53-25-56-49 0-7 1-19 3-33-8 2-9-17-9-23 0-7 7-20 14-18 3-28 13-37 13-37l0-30c0 0-7-5-34-17-28-13-56-22-65-37-7-13-5-76-5-76l278 0c0 0 2 63-6 76z m-295 14c-21 0-37 17-37 37 0 22 16 38 37 38 21 0 38-17 38-38 0-20-17-37-38-37z m22 131c-1-8-2-9-9-9l-26 0c-6 0-8 1-9 9l-10 175c0 7 0 6 0 9 0 5 4 5 8 5l48 0c3 0 9 0 9-5 0-3 0-2-1-9z"/>
<glyph unicode="&#57365;" d="M372 24l0 0 0-24 62 0 0 88z m-186 40l-92 0 0 384 172 0 89-92 43 46-106 110-260 0 0-512 154 0z m288 12c-8 15-36 24-64 37-27 13-34 17-34 17l0 30c0 0 10 9 13 37 7-2 14 11 14 18 0 6-1 25-9 23 2 14 3 26 3 33-3 24-24 49-56 49-32 0-53-25-56-49 0-7 1-19 3-33-8 2-9-17-9-23 0-7 7-20 14-18 3-28 13-37 13-37l0-30c0 0-7-5-34-17-28-13-56-22-65-37-7-13-5-76-5-76l278 0c0 0 2 63-6 76z"/>
<glyph unicode="&#57366;" d="M186 64l-92 0 0 384 172 0 89-92 43 46-106 110-260 0 0-512 154 0z m-26 86l0-14c81-135 271-135 352 0l0 14c-81 135-271 135-352 0z m176-88c-45 0-81 36-81 81 0 45 36 81 81 81 45 0 81-36 81-81 0-45-36-81-81-81z m41 81c0-23-19-41-41-41-22 0-41 18-41 41 0 22 19 40 41 40 22 0 41-18 41-40z"/>
<glyph unicode="&#57367;" d="M275 200c0-13-2-15-14-15l-48 0c-13 0-15 2-15 15l0 89c0 17 24 20 48 29 24 9 48 23 48 62 0 32-20 50-56 50-42 0-77-23-84-23-3 0-7 3-7 7l-18 48c-1 3-1 5-1 8 0 19 80 42 125 42 81 0 131-56 131-133 0-92-69-116-109-131z m-36-200c-32 0-57 28-57 60 0 34 25 60 57 60 32 0 57-27 57-60 0-32-26-60-57-60z"/>
<glyph unicode="&#57368;" d="M505 155c-9 16-9 25-42 39-33 14-41 19-41 19l0 31c0 0 12 10 16 39 7-2 16 12 16 19 0 7-1 27-10 25 1 14 3 27 2 34-2 26-27 52-66 52-38 0-63-26-66-52 0-7 1-20 3-34-10 2-11-18-11-25 1-7 9-21 17-19 4-29 16-39 16-39l-28-21c16-9 56-4 64-17 5-8 18-28 14-151l123 0c0 0 2 86-7 100z m-144 11c-11 18-49 28-85 44-37 15-46 20-46 20l0 35c0 0 14 11 18 44 9-2 18 13 18 21 1 8-1 29-11 27 2 16 3 31 2 39-2 28-30 58-73 58-43 0-71-30-73-58-1-8 0-22 3-39-11 2-13-19-12-27 0-8 9-23 18-21 4-33 18-44 18-44l0-35c0 0-9-5-46-20-37-16-74-26-85-44-10-15-7-111-7-111l368 0c0 0 2 96-7 111z"/>
<glyph unicode="&#57370;" d="M336 320c0-44-36-80-80-80-44 0-80 36-80 80 0 44 36 80 80 80 44 0 80-36 80-80z m80 0c0 11-1 21-3 31l26 28-38 8c-9 19-21 36-37 50l5 38-35-16c-18 10-38 17-59 19l-19 34-19-34c-21-2-41-9-59-19l-35 16 5-38c-16-14-28-31-37-50l-38-8 26-28c-2-10-3-20-3-31 0-11 1-21 3-31l-26-28 38-8c9-19 21-36 37-50l5-5-25-198 128 128 128-128-25 198 5 5c16 14 28 31 37 50l38 8-26 28c2 10 3 20 3 31z m-160-112c-62 0-112 50-112 112 0 62 50 112 112 112 62 0 112-50 112-112 0-62-50-112-112-112z"/>
<glyph unicode="&#57371;" d="M478 397l0-346-444 0 0 346 444 0m34 51l-512 0 0-448 512 0z m-270-345l-51 125-50-118-49 113-22-94c-1-6-6-10-11-7-4 2-6 9-5 16l33 143 54-124 50 119 46-112 36 165c1 7 6 10 11 8 4-2 7-9 5-16z m-242 409l512 0 0-115-512 0z m451-204c0-35-28-64-64-64-35 0-64 29-64 64 0 35 29 64 64 64 36 0 64-29 64-64z m-134-148l64 0 0-64-64 0z m74 0l64 0 0-64-64 0z"/>
<glyph unicode="&#57372;" d="M256 512c-141 0-256-115-256-256 0-141 115-256 256-256 141 0 256 115 256 256 0 141-115 256-256 256z m70-389c0 0 0 0 0 0 2 0 2 0 3 2 0-4 1-6 2-9-4 14 11 14 17 23 3 3 7 12 10 13 1-2 2-5 1-8 1 2 0 0 0-1 0-2-1-5-2-8-1 1-1 1-1 2-11-9-11-35-26-42-9-3-8 8-5 12 5 6-1 10 2 15-1 0-1 1-1 1 0 0 0 0 0 0 0 0 0 0 0 0-3 0-6 7-6 11 4 1 5 3 6 2 1 1 4 7 4 8 1-5-7-17-4-21z m115 163c-4 8-8 18-11 23-6 9-9 22-17 29 2-2 2-5 1-7-4 1-8 3-10 7-1 2 4-2 1 3-6-1-11 6-16 9-10 2-20-6-30-1-2 2-4 9-7 5-2-3-4-3-7-2-11 4-15 13-25 13 0-4 7-10 10-12 5-3 8-13 8-4 6-3 2-11 11-8 6-3 5 8 6 11 2-1 3-6 5-8 3-3 8-2 12-5 4-5 6-11 5-16-4 0-1-5-3-8-3-4-2-5-4-9-5-2-10-4-9-10-3-3-32-24-35-18-5 7-6 16-10 24-5 1-17 16-19 21 2 10-24 28-28 29 3-13 14-20 20-30 4-9 12-29 19-32 11 1 18-19 24-23 7-6 23 12 30 10 1-9 1-12-2-22-6-21-15-30-28-47-7-9-11-16-17-27-4-8 8-26 5-31 2-13-1-22-13-28-9-5-17-10-14-20 3-9-9-11-10-16-4-9-9-14-15-17-4 0-8-1-12-1-7 0-15 1-22 2-10 12-20 25-30 37-6 7-15 20-6 29 1 6-6 20-9 25-5 9-30 29-21 39 2 7-4 14-4 19-5 4-11-5-16 4-5 9-15 7-24 1-1-2-24-5-26-3-18 15-23 40-17 61 2 8 3 24 9 29 3 9 13 18 19 26 3 4 7 4 11 8 5 6 7 13 14 19 7 5 21 14 9 16 5 7 13 15 16 24 4 3 12 2 16 4 4 8 6 8 5 13 0 4 11 6 13 7 5 2 9 6 12 9 17 4 33 7 51 7 93 0 171-69 185-158z m-184 123c0-6 11-5 13-6-3 2 1 2 0 0 10 12-21 24-22 24 1 1 2 2 2 4-6-4-2 7-7-4 1-9-5-15-2-24 5-9 11 5 16 6z m-24-15c-6 4-2-1-6-6-5-6-5-8-13-5-1 7 16 1 8 14-3 7-7 14-14 10-7-5-19-8-24-17-3-4-24-21-24-22 8-7 41 20 49 12-1-5-7-10-7-15 2-1 3-4 6-4 10 2 8-6 15-8 14-3 4 0 12 8 3 3 17 3 18-2 0 3 6 1 0 0 7 1 13-6 18-1 3 4 6 3 8 1 12-9 8 26 9 27-4-2-28-5-28-2 0 3-3 3-4 7 4 5-4 2 0 9-2 1-4 1-7 0-1-4 2-3-3-2-2-4 4-7 3-11 0 0-1 1-2 1-1-3 0-3 0-7-8 1-4 7-11 17 6 5-13 15-10 18-14-4 11-18 7-22z m-25-5c-1-1-3-1-4-1 1 3 6 16 9 17 0-5-4-12-5-16z m-14 4c1 4-2 1 0 0z m94 19c-3-1 1-10 5-10 4-2 7-3 11-1-1 7-19 21-25 24 1 1 1 4 3 3-2 8-10 2-10-3 3-4 15-10 16-13z m21-14c-4-1 2-3 0 0z m16 14c-3 1-6 8-10 9 0-2 0-2 0-3 0 1 1-2 0 0 1-2 7-10 10-6z m-147-2c-1-1-2-2-3-2 0 0 0 0 0-1 1 0 2 3 3 3z"/>
<glyph unicode="&#57373;" d="M160 48l0 106c-91 13-160 77-160 154 0 86 86 156 192 156l128 0c106 0 192-70 192-156 0-83-80-151-181-156z m32 364c-71 0-128-47-128-104 0-57 57-104 128-104l32 0 0-52 85 52 11 0c71 0 128 47 128 104 0 57-57 104-128 104z"/>
<glyph unicode="&#57374;" d="M448 320l64 64-64 64-160 0 0 64-64 0 0-64-128 0 0-128 128 0 0-32-160 0-64-64 64-64 160 0 0-160 64 0 0 160 128 0 0 128-128 0 0 32z"/>
<glyph unicode="&#57375;" d="M444 411l0-310-376 0 0 310 376 0m68 69l-512 0 0-448 512 0z m-400-256l32 0 0-96-32 0z m64 32l32 0 0-128-32 0z m64-32l32 0 0-96-32 0z m64 96l32 0 0-192-32 0z m64-96l32 0 0-96-32 0z"/>
<glyph unicode="&#57376;" d="M256 448c-141 0-256-115-256-256l0-128 512 0 0 128c0 141-115 256-256 256z m-2-64c18 0 32-14 32-32 0-8-3-16-9-22-6-6-14-10-23-10l0 0c-17 0-31 14-32 31 0 19 14 33 32 33z m-189-234l-2 0c-10 1-17 5-23 12-5 7-8 15-7 23 2 17 16 29 32 29l4 0c8-1 16-5 21-12 5-7 8-15 7-24-2-16-15-28-32-28z m59 100c-7-9-17-14-27-14-6 0-13 2-18 6-7 4-11 11-13 20-2 8 0 17 5 24 9 14 30 18 44 9 15-11 18-30 9-45z m56 51c-4-2-9-4-15-4-11 0-22 7-28 17-8 16-3 35 13 43 15 9 36 2 44-13 8-15 2-34-14-43z m76-221c-26 0-48 22-48 48 0 26 22 48 48 48 26 0 48-22 48-48 0-26-22-48-48-48z m97 240l-49-150c-12 13-29 22-48 22-3 0-6-1-8-1l75 142c8 16 21 26 28 23 7-3 8-19 2-36z m34-68c-5 7-7 16-6 24 2 9 6 16 13 21 14 10 35 6 45-8 5-6 7-15 5-23-1-8-6-16-13-21-6-4-12-6-18-6-11 0-20 5-26 13z m76-103c-6-4-12-6-18-6-11 0-20 5-26 13-5 7-7 16-6 24 2 9 6 16 13 21 14 10 35 6 45-8 5-6 7-15 5-23-1-8-6-16-13-21z"/>
<glyph unicode="&#57377;" d="M317 512l-269 0 0-512 416 0 0 365z m83-448l-288 0 0 384 179 0 13-13 0-83 83 0 13-13z"/>
<glyph unicode="&#57378;" d="M352 24l0 0 0-24 64 0 0 88z m-192 40l-96 0 0 384 179 0 91-91 45 45-110 110-269 0 0-512 160 0z m78-64l-133 151c-14 15-11 38 6 50 18 12 43 9 57-6l68-76 203 248c13 16 39 20 56 8 18-12 22-34 9-50z"/>
<glyph unicode="&#57379;" d="M384 24l0 0 0-24 64 0 0 88z m-192 40l-96 0 0 384 179 0 91-92 46 46-111 110-269 0 0-512 160 0z m30-63l6 47 7 47 40-40 40-40-46-7z m227 175l-120-121-14 14 121 120-27 27-121-121-13 14 121 120-14 14-134-134 81-81 134 134z m56 26c7 7 6 19-1 26l-53 54c-8 7-20 7-27 0 0 0-1-1-1-1l0 0-26-26 80-80 26 26 0 0c0 0 1 1 2 1z"/>
<glyph unicode="&#57380;" d="M177 92l-118 0 0 360 165 0 101-102 0-78 59 0 0 102-135 138-249 0 0-480 266 0 0 60z m159-92l0 65c-45 8-80 48-80 95 0 53 43 96 96 96l64 0c53 0 96-43 96-96 0-51-40-93-90-96z m16 224c-35 0-64-29-64-64 0-35 29-64 64-64l16 0 0-32 43 32 5 0c35 0 64 29 64 64 0 35-29 64-64 64z"/>
<glyph unicode="&#57381;" d="M256 448c106 0 192-86 192-192 0-106-86-192-192-192-106 0-192 86-192 192 0 106 86 192 192 192m0 64c-141 0-256-115-256-256 0-141 115-256 256-256 141 0 256 115 256 256 0 141-115 256-256 256z m0-256c-9 0-16 10-16 21l0 86c0 11 7 21 16 21 9 0 16-10 16-21l0-86c0-11-7-21-16-21z m95-64c-4 0-8 1-11 4l-92 64c-7 5-9 15-2 22 6 7 17 8 25 3l92-64c8-6 9-16 3-23-4-4-9-6-15-6z"/>
<glyph unicode="&#57382;" d="M512 416l-96 96-128 0-288-288 224-224 288 288z m-127-82c-28 0-51 23-51 51 0 28 23 51 51 51 28 0 51-23 51-51 0-28-23-51-51-51z"/>
<glyph unicode="&#57384;" d="M505 67l-75 146c-18 36-48 94-66 129l-75 143c-18 36-48 36-66 0l-75-143c-18-36-48-95-66-130l-75-145c-18-36-1-67 38-67l141 0c38 0 102 0 140 0l141 0c39 0 56 31 38 67z m-217-3l-64 0 0 64 64 0z m0 112l-64 0 0 160 64 0z"/>
<glyph unicode="&#57385;" d="M256 507l-256-74 0-355 256-73 256 73 0 355z m-20-455l-197 56 0 273 197-57z m237 56l-197-56 0 272 197 57z m-217 252l-187 53 187 54 187-54z"/>
<glyph unicode="&#57386;" d="M0 384l256-128 256 128-256 128z m256-175l-158 79-98-32 256-128 256 128-90 34z m0-128l-158 79-98-32 256-128 256 128-90 34z"/>
<glyph unicode="&#57387;" d="M284 185l0 28 57 0 0 57 114 0 0 86c0 15-13 28-28 28l-171 0c-16 0-37 10-47 21l-12 14c-11 12-32 22-48 22l-92 0c-16 0-29-13-29-29l0-284c0-16 13-28 29-28l227 0z m200 0l-57 0 0 57-57 0 0-57-57 0 0-57 57 0 0-57 57 0 0 57 57 0z"/>
<glyph unicode="&#57388;" d="M341 384l-170 0 0 28 170 0z m143-114l-456 0 0 29 456 0z m-86 57l-313 0 0 29 313 0z m57-114l-398 0 0 29 398 0z m-57-57l-284 0 0 29 284 0z m29-56l-370 0 0 28 370 0z"/>
<glyph unicode="&#57389;" d="M28 384l456 0 0 28-456 0z m0-57l456 0 0 29-456 0z m0-57l456 0 0 29-456 0z m0-57l456 0 0 29-456 0z m0-57l456 0 0 29-456 0z m0-56l456 0 0 28-456 0z"/>
<glyph unicode="&#57390;" d="M341 384l-313 0 0 28 313 0z m143-57l-456 0 0 29 456 0z m-114-57l-342 0 0 29 342 0z m85-57l-427 0 0 29 427 0z m-114-57l-313 0 0 29 313 0z m86-56l-399 0 0 28 399 0z"/>
<glyph unicode="&#57391;" d="M62 488l0 0 0 0z m194-80c27 0 49-22 49-48 0-18-10-34-25-42l0-224c50 9 90 43 117 70l-43 0 50 97 46-97 0 0-27 0c-3-10-6-20-10-29-8-21-21-39-36-55-16-15-34-28-55-36-20-9-42-14-66-14-24 0-46 5-66 14-21 8-39 21-55 36-15 16-28 34-36 55-4 9-7 19-10 29l-28 0 50 97 46-97-41 0c26-27 66-61 116-70l0 224c-15 8-25 24-25 42 0 26 22 48 49 48z m0-24c-13 0-24-11-24-24 0-14 11-25 24-25 13 0 24 11 24 25 0 13-11 24-24 24z m0 0z"/>
<glyph unicode="&#57392;" d="M171 384l313 0 0 28-313 0z m-143-57l456 0 0 29-456 0z m114-57l342 0 0 29-342 0z m-85-57l427 0 0 29-427 0z m114-57l313 0 0 29-313 0z m-86-56l399 0 0 28-399 0z"/>
<glyph unicode="&#57393;" d="M51 216l133-62-36-25c29-25 66-40 104-40 74 0 140 48 155 119l2 5 65 0 0 0c-3-11-13-47-13-48-25-51-46-82-97-109-48-26-66-24-112-27l0 0c-60 5-56 1-124 37-13 7-23 19-34 28l-30-20z m199 253l0 0c60-5 57-1 125-37 12-6 22-18 33-27l30 22 13-139-133 54 36 24c-31 23-28 23-75 36-10 3-19 2-29 3-9-1-18 0-27-3-74-19-115-56-130-132l-65 0c9 70 48 134 110 170 22 12 48 17 72 26z"/>
<glyph unicode="&#57394;" d="M251 381c30 0 58-11 80-29l31 46c-30 24-69 39-111 39-99 0-180-81-180-180 0-6 0-11 1-16l25-42 30 47c0 4-1 7-1 11 0 68 56 124 125 124m-207-124l111-1c13-1 17-9 11-20l-56-84c-6-11-17-10-24 0l-53 86c-6 10-2 19 11 19z m0 0z m362 69c9-14 18-27 26-42 0-1 1-15 0-15-1-12 0-25-3-36-15-50-31-84-76-114-43-28-58-26-101-30l0 0c-47 0-73 13-111 38l32 47c21-19 49-30 79-30 69 0 125 56 125 125-1 7 0 3-1 10z m53-58c13 0 18 9 11 19l-53 86c-7 11-17 11-24 0l-55-84c-7-10-3-19 10-19z"/>
<glyph unicode="&#57395;" d="M251 57c-26 0-52 5-77 16-24 10-45 24-63 42-19 19-33 40-43 64l52 22c8-17 18-32 31-45 13-14 28-24 45-31 35-15 76-15 111 0 17 7 32 17 45 31 13 13 23 28 30 45l53-22c-10-24-24-45-43-64-18-18-39-32-63-42-25-11-51-16-78-16m78 383c24-11 45-25 63-43 19-18 33-40 43-63l-53-23c-7 17-17 33-30 46-13 13-28 23-45 30l-27 8-57 0c-33-7-46-17-72-38-13-13-23-29-31-46l-52 23c10 23 24 45 43 63 18 18 39 32 63 43 49 20 106 20 155 0z m50-214c5-7 12-7 16 0l30 43c4 6 12 17 16 23l30 44c4 6 2 11-6 11l-155 0c-8 0-11-5-7-11l30-44c5-6 12-17 16-23z m-256 43l28-38c5-7 13-17 17-23l29-39c5-6 2-11-5-11l-156 0c-7 0-10 5-5 11l29 39c4 6 12 16 17 23l29 38c4 7 12 7 17 0z m0 0z"/>
<glyph unicode="&#57396;" d="M28 484l444 0 0-444-444 0z m167-102l90-91-179 0 0-58 180 0-91-92 79 0 120 121-120 120z"/>
<glyph unicode="&#57397;" d="M398 185l-313 0 0 142 313 0z m57 114l0 85-427 0 0-256 427 0 0 57 29 0 0 114z m-85-86l-256 0 0 86 256 0z"/>
<glyph unicode="&#57398;" d="M341 142l-28 29 0 284 28 0z m-142 29l-28-29 0 313 28 0z m-57 313l0-456 114 143 114-143 0 456z"/>
<glyph unicode="&#57399;" d="M217 482l88 0c28-11 57-20 83-34 50-27 89-97 99-149 6-28 0-58 0-88-11-27-19-56-33-83-27-50-97-89-149-99-29-6-59 0-88 0-97 40-60 15-119 63-90 90-90 236 0 327l36 29z m75-76l-47 0c-14 0-16-8-16-13 0-2 0-2 0-4l10-181 2-8 9-7c15-1 4 0 32 0 9 0 15 2 17 16l9 175 1 5c0 2 0 2 0 4 0 5-2 13-17 13z m0 0z m-23-246l-18-3-24-24c-5-24-5-12 0-36l24-24 18-3c25 0 45 20 45 45 0 25-20 45-45 45z m0 0z"/>
<glyph unicode="&#57400;" d="M287 207c-1-8-3-8-9-8l-24 0c-6 0-8 0-9 8l-9 164c0 7 0 6 0 8 0 6 4 6 7 6l45 0c3 0 8 0 8-6 0-2 0-1 0-8z m-21-124c-20 0-36 17-36 35 0 21 16 36 36 36 20 0 35-16 35-36 0-18-16-35-35-35m-4 399l0 0c77-3 148-37 192-102 37-55 34-76 40-130l0 0c-4-77-37-148-103-192-54-37-75-34-129-39l0 0c-77 3-148 36-192 102-37 54-34 75-40 129l0 0c3 77 37 148 102 192 25 17 55 24 83 35z m0-34c-109 0-198-89-198-198 0-109 89-198 198-198 109 0 198 89 198 198 0 109-89 198-198 198z"/>
<glyph unicode="&#57401;" d="M408 423c65-62 77-123 49-155-43-48-88-93-134-139-15-16-37-42-57-56l-16 0-6 4c-8 8-8 21 0 29 1 2 146 146 182 188 9 10 10 47-46 100-28 28-12 16-47 37-7-3-15-5-21-9-16-9-79-76-94-92-49-47-94-92-127-127-38-40-18-79-1-96l3-3c15-15 27-19 48 3 7 6 19 18 35 34 44 42 126 122 142 142 7 12 3 4 9 23l-3 6-9 2c-7-3-13-6-19-10-11-8-19-20-28-29-37-37-74-74-111-110-8-8-21-8-29 0-7 8-7 21 1 29 1 1 75 72 131 132 37 38 71 34 90 17 42-47-5-92-37-124-39-40-69-69-109-107-15-15-28-28-34-34-18-18-37-27-55-27-18 0-35 8-51 25l-2 2c-17 16-66 84 0 153 33 35 79 80 127 128 26 26 53 52 80 79 49 49 84 38 139-15z"/>
<glyph unicode="&#57402;" d="M52 464l24 0 11-7 291-292c13-12 23-8 23 9l0 211c0 18 14 32 32 32 18 0 32-14 32-32l0-352-352 0-12 3-17 17c-4 16-4 8 0 25l17 17 12 2 211 0c17 0 22 10 9 23l-292 292c-12 12-12 33 0 45z"/>
<glyph unicode="&#57403;" d="M110 183l-73 0 0 146 73 0z m146 0l-110 0 0 146 110 0z m0 219l0-292 219 146z"/>
<glyph unicode="&#57404;" d="M96 64l341 192-341 192z"/>
<glyph unicode="&#57405;" d="M129 482l33 0 14-8 215-188c8-7 12-17 12-27 0-10-4-19-12-27l-215-188c-19-11-9-7-31-11l0 0c-21 2-28 8-40 24l0 28 10 12 185 162-185 162-10 12 0 28 10 13z"/>
<glyph unicode="&#57406;" d="M484 254c0-13-11-24-24-24-13 0-24 11-24 24 0 13 11 24 24 24 13 0 24-11 24-24m-55 54c0-13-10-24-24-24-13 0-23 11-23 24 0 14 10 24 23 24 14 0 24-10 24-24m-54 55c0-14-11-24-24-24-13 0-24 10-24 24 0 13 11 24 24 24 13 0 24-11 24-24m-54 54c0-13-11-24-24-24-13 0-24 11-24 24 0 13 11 24 24 24 13 0 24-11 24-24m84-193c14 0 24-11 24-24 0-13-10-24-24-24-13 0-23 11-23 24 0 13 10 24 23 24m-54-55c13 0 24-10 24-23 0-14-11-24-24-24-13 0-24 10-24 24 0 13 11 23 24 23m-54-54c13 0 24-11 24-24 0-13-11-24-24-24-13 0-24 11-24 24 0 13 11 24 24 24m79 156c10-9 10-24 0-34-9-9-24-9-33 0-10 10-10 25 0 34 9 9 24 9 33 0m-76 0c9-9 9-24 0-34-10-9-25-9-34 0-10 10-10 25 0 34 9 9 24 9 34 0m-77 0c9-9 9-24 0-34-9-9-25-9-34 0-9 10-9 25 0 34 9 9 25 9 34 0m-77 0c9-9 9-24 0-34-9-9-24-9-34 0-9 10-9 25 0 34 10 9 25 9 34 0m-77 0c10-9 10-24 0-34-9-9-24-9-34 0-9 10-9 25 0 34 10 9 25 9 34 0"/>
<glyph unicode="&#57407;" d="M318 431l155-156c1 0 1 0 1-1 1 0 1-1 2-2 0 0 1-1 1-1 1-1 1-2 2-3 0 0 0-1 1-2 0 0 0-1 0-1 1-1 1-1 1-1 0-1 0-2 0-2 1-1 1-2 1-3 0-1 0-1 0-2 1-1 1-2 1-3 0 0 0-1 0-2 0-1 0-2 0-3 0 0 0-1 0-2-1-1-1-1-1-2 0-1 0-2 0-2-1-1-1-2-1-3 0 0 0-1-1-1 0 0 0-1 0-1-1-1-1-2-1-2-1-1-1-2-2-3 0 0-1-1-1-1-1-1-1-2-2-3 0 0 0 0-1-1l-155-155c-7-7-15-10-24-10-9 0-17 3-24 10-12 13-12 34 0 47l99 99-308 0c-32 1-46 46-15 62 4 3 10 3 15 4l308 0-99 99c-12 13-12 34 0 47 13 13 34 13 48 0z"/>
<glyph unicode="&#57408;" d="M262 482c77-3 148-37 192-102 37-55 34-75 39-130l0 0c-3-77-36-148-102-192-54-36-75-34-129-39-128 0-232 103-232 231 0 128 104 232 232 232z m0 0z m-59-106l96-95-188 0 0-61 188 0-96-96 84 0 126 126-126 126z"/>
<glyph unicode="&#57409;" d="M398 185l-313 0 0 142 313 0z m57 114l0 85-427 0 0-256 427 0 0 57 29 0 0 114z m-341-86l114 86 28-29 114 29-114-86-28 29z"/>
<glyph unicode="&#57410;" d="M484 484l-456 0 0-456 456 0z m-29-427l-398 0 0 398 398 0z m-193 111c22 0 34 8 34 23l0 1c0 14-11 23-35 23l-54 0 0-47z m-10 98c22 0 34 7 34 22l0 1c0 14-11 22-33 22l-46 0 0-45z m-115 103l132 0c33 0 56-8 71-23 10-11 17-24 17-42l0-1c0-30-17-48-40-58 31-10 51-28 51-63l0-1c0-44-36-71-98-71l-133 0z"/>
<glyph unicode="&#57411;" d="M105 30l-60 0 0 452 60 0z m271 271l-120 0 0 91 120 0z m-240-271l331 0 0 452-331 0z"/>
<glyph unicode="&#57412;" d="M105 30l-60 0 0 452 60 0z m302 452l0-181-46 30-45-30 0 181-180 0 0-452 331 0 0 452z"/>
<glyph unicode="&#57413;" d="M370 284l-171 0 0 86 171 0z m-256 29l-57 0 0 28 57 0z m0-142l-57 0 0 28 57 0z m313 313l-370 0 0-114-29 0 0-86 29 0 0-56-29 0 0-86 29 0 0-114 427 0 0 399z"/>
<glyph unicode="&#57414;" d="M255 482c-116 0-210-86-210-191 0-63 34-119 86-154l-43-109 142 73c8-1 17-1 25-1 116 0 211 85 211 191 0 105-95 191-211 191"/>
<glyph unicode="&#57415;" d="M484 484l-456 0 0-342 114 0 0-110 160 110 182 0z m-57-57l0-228-144 0-20-11-64-43 0 54-114 0 0 228z"/>
<glyph unicode="&#57416;" d="M427 341l-29 0 0-28c0-44-41-85-85-85l-131 0-40-41 0-16c0-29 29-57 57-57l142 0 86-86 0 86c28 0 57 28 57 57l0 113c0 29-29 57-57 57m-114 143l-228 0c-28 0-57-29-57-57l0-114c0-29 29-57 57-57 6 0-13 0 0 0l0-85 86 85 142 0c28 0 57 28 57 57l0 114c0 28-29 57-57 57"/>
<glyph unicode="&#57417;" d="M256 484c39 0 74-16 100-42 32-33 37-57 42-101l0 0c-5-44 0-23-16-64-10-20-24-37-41-49l0-57-171 0 0 10c0 25 0 47 0 47-17 13-31 29-41 49-23 54-20 92 9 144 4 8 11 14 17 21 26 26 61 42 101 42z m0-29c-31 0-59-12-81-33-21-22-33-50-33-81 0-18 4-35 12-51 8-15 19-29 33-39 10-7 11-9 12-52l114 0 0 43 11 8c14 11 25 24 33 40 8 16 12 33 12 51 0 31-11 59-33 81-21 21-50 33-80 33z m-86-398l29 0 0-29 113 0 0 29 29 0 0 28-171 0z m0 57l171 0 0 28-171 0z m0 57l29 0 0-86-29 0z m142 0l29 0 0-86-29 0z"/>
<glyph unicode="&#57418;" d="M161 249l-33-8-11 42 59 17 40 0 0-200-55 0z m194 3l-93 0 0 47 154 0 0-42-88-157-61 0z m86-195l-370 0 0 284 370 0z m-313 398l28 0 0-57-28 0z m228 0l28 0 0-57-28 0z m56-28l0 57-85 0 0-57-142 0 0 57-85 0 0-57-57 0 0-399 426 0 0 399z"/>
<glyph unicode="&#57419;" d="M407 332c-14-8-34-20-45-27-11-7-21 1-21 16l0 63c0 16-12 28-28 28l-256 0c-16 0-29-12-29-28l0-256c0-16 13-28 29-28l256 0c16 0 28 12 28 28l0 64c0 16 10 23 21 16 11-7 31-19 45-27l52-31c14-8 25-2 25 13l0 187c0 15-11 22-25 14z"/>
<glyph unicode="&#57420;" d="M85 484c30 0 0 0 0 0l0-456 1 0c-29 0-58 29-58 60l0 339c0 34 28 57 57 57m399-200l-57 0 0 86 28 0c29 0 29-31 29-31z m0-142l-57 0 0-85 28 0c29 0 29 27 29 27z m0 29l-57 0 0 85 57 0z m-143 28l-170 0c0 0-2 18 3 25 5 8 22 13 39 20 17 7 21 10 21 10l1 16c0 0-7 5-9 21-4-1-8 6-8 10 0 3 0 13 5 12-1 8-2 15-1 18 1 13 14 27 34 27 20 0 33-14 34-27 0-3 0-10-1-18 5 1 5-9 5-12 0-4-4-11-8-10-2-15-9-20-9-20l0-17c0 0 4-2 22-9 17-7 34-13 39-21 5-7 3-25 3-25m-1 285l-226 0 0-456 227 0c30 0 57 23 57 57l0 339c0 31-28 60-58 60"/>
<glyph unicode="&#57421;" d="M455 85l-398 0 0 342 398 0z m-427-28l456 0 0 398-456 0z m313 227l-85 0 0 29 85 0z m-129 17l-65-45c-3-1-5-2-8-2-5 0-9 2-12 6-4 6-3 15 4 20l47 32-47 29c-6 4-9 13-4 20 4 7 13 9 19 5l66-41c4-2 6-7 6-12 0-4-2-9-6-12m-127-187l342 0 0 284-342 0z"/>
<glyph unicode="&#57422;" d="M438 96c8 0 15-7 15-15l0-30c0-9-7-15-15-15l-392 0-11 4c-8 20-4 7-4 41l4 10 11 5z m-257 30c8 0 19 5 24 12l4 4c5 7 5 17-1 23l-46 48c-6 6-15 5-20-1l-3-3c-6-7-15-17-20-23l-46-49c-6-6-4-11 4-11z m279 342c17-17 18-44 4-62l0-1-4-4-219-219-67 67 219 219c0 0 0 0 0 0 0 0 0 0 0 0l4 4 1 0c18 14 45 13 62-4z"/>
<glyph unicode="&#57423;" d="M465 100c9 0 16-7 16-16l0-32-5-11-11-5-416 0-11 5c-9 21-5 7-5 43 0 9 7 16 16 16z m0 0z m-249 380l89 0 142-337-99 0-24 60-129 0-24-60-97 0z m44-110l-38-95 75 0z"/>
<glyph unicode="&#57424;" d="M351 378l122-95c6-5 10-13 11-22 0-8-4-16-10-22l-122-105c-6-5-12-7-19-7-8 0-16 3-21 10-11 12-9 30 3 40l95 83-94 73c-13 10-15 28-5 40 9 12 27 15 40 5z m-150-5c10-12 8-30-5-40l-94-73 95-83c12-10 14-28 3-40-5-7-13-10-21-10-7 0-13 2-19 7l-122 105c-6 6-10 14-10 22 1 9 5 17 11 22l122 95c13 10 31 7 40-5z"/>
<glyph unicode="&#57425;" d="M253 404c-99 0-180-81-180-180 0-100 81-181 180-181 100 0 181 81 181 181 0 99-81 180-181 180m0-60c67 0 121-54 121-120 0-67-54-121-121-121-66 0-120 54-120 121 0 66 54 120 120 120m-9-129c-9 0-15 7-15 15l0 30c0 8 6 15 15 15 8 0 15-7 15-15l0-30c0-8-7-15-15-15m49-39c-4 0-7 1-10 3l-49 39c-6 5-7 15-2 21 5 7 15 8 21 3l49-40c7-5 8-14 2-21-3-3-7-5-11-5m164 276c35-36 40-90 13-130l-142 143c40 26 94 22 129-13z m-267 13l-143-143c-26 40-22 94 13 130 35 35 90 39 130 13z m236-433c-6-6-15-6-21 0l-43 43c-6 6-6 15 0 21 6 6 16 6 22 0l42-42c6-6 6-16 0-22m-335 0c6-6 16-6 22 0l42 43c6 6 6 15 0 21-6 6-15 6-21 0l-43-42c-6-6-6-16 0-22"/>
<glyph unicode="&#57426;" d="M313 469l-114 0 0-142-57 0 114-114 114 114-57 0z m110-113l-53 0 0-29 34 0 37-85-100 0c0-47-38-86-85-86-47 0-85 39-85 86l-99 0 36 85 34 0 0 29-53 0-61-143 0-170 456 0 0 170z"/>
<glyph unicode="&#57427;" d="M199 228l114 0 0 142 57 0-114 114-114-114 57 0z m114 113l-114 0 0-28 114 0z m110 0l-82 0 0-28 63 0 37-85-100 0c0-48-38-86-85-86-47 0-85 38-85 86l-99 0 36 85 63 0 0 28-82 0-61-142 0-171 456 0 0 171z"/>
<glyph unicode="&#57428;" d="M56 484c15 0 28-13 28-28 0-2-1-4-2-6l29-20 361-48-38-185-235-10-19-59c9-7 16-17 18-28l145 0c5 20 23 35 45 35 25 0 46-21 46-46 0-26-21-46-46-46-20 0-36 11-43 28l-150 0c-7-17-24-28-43-28-26 0-48 21-48 47 0 26 22 47 48 47 0 0 1 0 1 0l16 49-17-1-57 222-33 22c-2 0-4-1-6-1-15 0-28 13-28 28 0 15 13 28 28 28z"/>
<glyph unicode="&#57429;" d="M370 28l-313 0 0 370 114 0 0-57-57 0 0-256 199 0 0 29 57 0z m-171 143l0 256 114 0 0-86 85 0 0-170z m147 313l-204 0 0-370 313 0 0 252z"/>
<glyph unicode="&#57430;" d="M455 57l-256 0 0 199 194 0 62-53z m-284 85l-86 0 0 228 256 0 0-86-170 0z m113 313l-28-57-85 0-29 57z m119-171l-5 0 0 171-92 0 7 29-199 0 7-29-93 0 0-370 143 0 0-57 313 0 0 188z m24-142l-199 0 0 29 199 0z m0-57l-199 0 0 29 199 0z m-57 114l-142 0 0 29 142 0z"/>
<glyph unicode="&#57431;" d="M57 455l284 0c16 0 29-13 29-28l0-48c64-6 114-60 114-125 0-66-50-119-114-126l0-43-2-11-16-15-11-2-284 0-11 2-15 15-3 11 0 342c0 15 13 28 29 28z m313-132l0-138c32 6 57 35 57 69 0 34-25 62-57 69z m0 0z m-270 75c-8 0-15-6-15-14l0-256c0-8 7-14 15-14 7 0 14 6 14 14l0 256c0 8-7 14-14 14z"/>
<glyph unicode="&#57432;" d="M417 97c-4-9-11-15-17-15-6 0-13 4-18 10l-34 48 0 2-24 32-5 8c7 8 18 18 33 18 13 0 28-9 43-25 28-30 29-60 22-78m-277-3c-14-17-29-15-37 3-7 18-6 48 22 78 16 16 30 25 44 25 14 0 26-10 33-18l-21-29-8-11 0-1z m286 110c-24 25-49 38-74 38-27 0-46-13-60-26l-4 6 11 16 54 34 79 126 0 86-171-226-170 226 0-86 77-126 53-34 12-16-4-7c-14 13-34 27-60 27-26 0-51-13-75-38-42-44-42-94-30-124 11-25 37-41 61-41 12 0 49 26 51 28l19 30 66 89 67-92 20-29c2-1 37-26 48-26 24 0 48 16 58 41 13 30 14 80-28 124"/>
<glyph unicode="&#57433;" d="M156 427c0-29 0 0 0 0l0-57 57 0 0 57 86 0 0-57 57 0 0 57c0 0 0-29 0 0 0 57-29 57-57 57l-86 0c-57 0-57-29-57-57m200-327c0-8-7-15-15-15-7 0-14 7-14 15l0 210c0 8 7 15 14 15 8 0 15-7 15-15z m-86 0c0-8-6-15-14-15-8 0-14 7-14 15l0 210c0 8 6 15 14 15 8 0 14-7 14-15z m-85 0c0-8-7-15-14-15-8 0-15 7-15 15l0 210c0 8 7 15 15 15 7 0 14-7 14-15z m256 284c0 8-7 14-14 14l-342 0c-7 0-14-6-14-14l0-28c0-8 7-15 14-15 8 0 15-6 15-14l0-284c0-8 6-15 14-15l284 0c8 0 14 7 14 15l0 284c0 8 7 14 15 14 7 0 14 7 14 15z"/>
<glyph unicode="&#57434;" d="M258 478c15-2 31 0 45-5 101-31 144-73 175-174 4-15 3-30 4-45l0 0c-1-15 0-31-4-45-31-101-74-144-175-175-14-4-30-3-45-4-15 1-30 0-45 4-101 31-143 74-174 175-5 14-3 30-5 45l0 0c3 74 35 143 99 186 24 16 53 22 80 33z m0-34c-105 0-190-86-190-190 0-105 85-190 190-190 105 0 190 85 190 190 0 104-85 190-190 190z m0 0z m110-129l-49 48-61-61-61 61-48-48 61-61-61-61 48-49 61 62 61-62 49 49-62 61z"/>
<glyph unicode="&#57435;" d="M284 171l0 28 171 0 0 142c0 16-13 29-28 29l-171 0c-16 0-37 9-47 21l-12 14c-11 12-32 22-48 22l-92 0c-16 0-29-13-29-29l0-284c0-16 13-29 29-29l227 0z m29 0l171 0 0-57-171 0z"/>
<glyph unicode="&#57436;" d="M400 198c-17 0-33-5-45-14l-151 78 149 77c13-10 29-16 47-16 44 0 80 36 80 80 0 43-36 79-80 79-43 0-79-36-79-79 0-1 0-2 0-3l-149-78c-13 10-29 16-47 16-44 0-80-35-80-79 0-44 36-80 80-80 20 0 38 8 52 20l145-75c-1-2-1-3-1-5 0-44 36-79 79-79 44 0 80 35 80 79 0 44-36 79-80 79"/>
<glyph unicode="&#57437;" d="M416 48l-320 0 0 64 320 0z m-320 0l-64 0 0 128 64 0z m384 0l-64 0 0 128 64 0z m-64 288l-64 0 0 128-192 0 0-128-64 0 167-166z"/>
<glyph unicode="&#57438;" d="M30 31l11 73 10 74 64-63 63-63-74-11z m359 274l-190-190-21 21 190 190-43 43-190-190-21 21 190 190-21 21-211-211 127-127 211 211z m87 42c11 11 11 30-1 41l-84 85c-12 12-30 12-41 1-1-1-2-2-2-3l-1 0-40-40 126-127 41 41-1 0c1 1 2 1 3 2"/>
<glyph unicode="&#57439;" d="M271 90c-20 0-36 16-36 35 0 20 16 36 36 36 20 0 35-16 35-36 0-19-16-35-35-35m22 118c0-8-1-9-8-9l-31 0c-8 0-9 1-9 9l0 52c0 10 15 12 30 17 15 5 30 14 30 36 0 20-12 30-35 30-26 0-48-14-53-14-2 0-4 3-4 5l-11 28c-1 2-1 3-1 5 0 11 50 25 78 25 51 0 82-33 82-79 0-54-43-68-68-77z m-31 274l0 0c77-3 148-37 192-102 37-55 34-76 40-130l0 0c-4-77-37-148-103-192-54-37-75-34-129-39l0 0c-77 3-148 36-192 102-37 54-34 75-40 129l0 0c3 77 37 148 102 192 25 17 55 24 83 35z m0-34c-109 0-198-89-198-198 0-109 89-198 198-198 109 0 198 89 198 198 0 109-89 198-198 198z"/>
<glyph unicode="&#57440;" d="M362 464c7 0 13 0 21-1 44-4 95-45 101-123l0-26c-5-74-62-166-226-281-164 115-220 207-226 281l0 26c6 78 57 119 102 123 7 1 14 1 20 1 52 0 76-22 104-56 28 34 53 56 104 56"/>
<glyph unicode="&#57441;" d="M181 136c0-34-21-61-45-61-25 0-46 27-46 61l0 60c0 33 21 60 46 60 24 0 45-27 45-60z m241 0c0-34-21-61-46-61-24 0-45 27-45 61l0 60c0 33 21 60 45 60 25 0 46-27 46-60z m45 15c-8 0-15 6-15 15l0 60c0 110-84 196-190 196-110 0-202-90-202-196l0-60c0-9-7-15-15-15-8 0-15 6-15 15l0 60c0 122 106 226 232 226 123 0 220-99 220-226l0-60c0-9-7-15-15-15"/>
<glyph unicode="&#57442;" d="M228 313c0-16-13-29-29-29l-142 0c-16 0-29 13-29 29l0 142c0 16 13 29 29 29l142 0c16 0 29-13 29-29z m256 0c0-16-13-29-29-29l-142 0c-16 0-29 13-29 29l0 142c0 16 13 29 29 29l142 0c16 0 29-13 29-29z m-256-256c0-16-13-29-29-29l-142 0c-16 0-29 13-29 29l0 142c0 16 13 29 29 29l142 0c16 0 29-13 29-29z m256 0c0-16-13-29-29-29l-142 0c-16 0-29 13-29 29l0 142c0 16 13 29 29 29l142 0c16 0 29-13 29-29z"/>
<glyph unicode="&#57443;" d="M142 398c0-15-13-28-28-28l-57 0c-16 0-29 13-29 28l0 57c0 16 13 29 29 29l57 0c15 0 28-13 28-29z m0-170c0-16-13-29-28-29l-57 0c-16 0-29 13-29 29l0 56c0 16 13 29 29 29l57 0c15 0 28-13 28-29z m0-171c0-16-13-29-28-29l-57 0c-16 0-29 13-29 29l0 57c0 15 13 28 29 28l57 0c15 0 28-13 28-28z m171 341c0-15-13-28-29-28l-56 0c-16 0-29 13-29 28l0 57c0 16 13 29 29 29l56 0c16 0 29-13 29-29z m0-170c0-16-13-29-29-29l-56 0c-16 0-29 13-29 29l0 56c0 16 13 29 29 29l56 0c16 0 29-13 29-29z m0-171c0-16-13-29-29-29l-56 0c-16 0-29 13-29 29l0 57c0 15 13 28 29 28l56 0c16 0 29-13 29-28z m171 341c0-15-13-28-29-28l-57 0c-15 0-28 13-28 28l0 57c0 16 13 29 28 29l57 0c16 0 29-13 29-29z m0-170c0-16-13-29-29-29l-57 0c-15 0-28 13-28 29l0 56c0 16 13 29 28 29l57 0c16 0 29-13 29-29z m0-171c0-16-13-29-29-29l-57 0c-15 0-28 13-28 29l0 57c0 15 13 28 28 28l57 0c16 0 29-13 29-28z"/>
<glyph unicode="&#57444;" d="M191 239l48-48-100-100 58-57-163 0 0 163 57-58z m287 239l-163 0 58-57-100-100 48-48 100 100 57-58z"/>
<glyph unicode="&#57445;" d="M30 105c0-16 14-30 30-30l392 0c16 0 30 14 30 30l0 241c0 17-14 30-30 30l-181 0c-17 0-39 11-50 23l-13 15c-11 13-33 23-50 23l-98 0c-16 0-30-14-30-30z"/>
<glyph unicode="&#57446;" d="M219 451c78-27 155 10 155 10l122-193c0 0-78-37-155-10-85 30-123 18-159-26l92-149 2-7-3-15-6-6c-3-2-7-3-11-3-13 4-7 1-17 10l-206 334c-6 10-3 22 7 28 6 4 14 4 20 0 36 44 75 56 159 27z"/>
<glyph unicode="&#57447;" d="M228 484l199 0-171-171 142 0-284-285 114 228-143 0z"/>
<glyph unicode="&#57448;" d="M398 185l-313 0 0 142 313 0z m57 114l0 85-427 0 0-256 427 0 0 57 29 0 0 114z m-171-86l-170 0 0 86 85 0z"/>
<glyph unicode="&#57449;" d="M217 482l88 0c28-11 57-20 83-34 50-27 89-97 99-149 6-28 0-58 0-88-11-27-19-56-33-83-27-50-97-89-149-99-29-6-59 0-88 0-97 40-60 15-119 63-90 90-90 236 0 327l36 29z m43-76c-22 0-91-12-91-34 0-2 0-5 2-7l11-29c1-6 7-11 12-11 3 0 6 1 12 4 9 4 26 11 44 11 30 0 30-18 30-24 0-19-10-26-27-32-3-1-6-2-9-3-16-5-7-1-25-13-8-27-3-6-3-65l1-8 9-8c18-2 5-1 40-1l8 1 8 8c2 16 1 5 1 33 27 9 72 28 72 87 0 55-38 91-95 91z m-9-246c-25 0-45-20-45-45 0-25 20-45 45-45 25 0 45 20 45 45 0 25-20 45-45 45z"/>
<glyph unicode="&#57450;" d="M263 467l88-67 0 60 60 0 0-106 85-65-37-48-25 19 0-220-342 0 0 220-25-19-37 48z m0-80l-138-105 0-208 78 0 0 127 120 0 0-127 77 0 0 208z"/>
<glyph unicode="&#57451;" d="M316 70l-120 0 0 151 120 0z m91 284l0 108-60 0 0-62-86 67-231-178 44-48 32 19 0-220 331 0 0 220 24-19 33 48z"/>
<glyph unicode="&#57452;" d="M484 441l-456 0 0-370 456 0z m-57-313l-342 0 0 256 342 0z m-192 192c0-23-20-43-43-43-24 0-43 20-43 43 0 24 19 43 43 43 23 0 43-19 43-43m-121-164l284 0 0 104-45 81-61-132-36 37c0 0-50-18-66-47-27 14-41 0-41 0z"/>
<glyph unicode="&#57453;" d="M291 249c0-16-12-28-28-28-16 0-28 12-28 28 0 16 12 28 28 28 16 0 28-12 28-28m-92-93l199 0 0 73-31 57-43-93-25 26c0 0-35-13-47-33-18 10-28 0-28 0z m228-28l-256 0 0 171 256 0z m-313 114l-29 0 0 142 285 0 0-28-256 0z m313 114l0 85-399 0 0-256 86 0 0-114 370 0 0 285z"/>
<glyph unicode="&#57454;" d="M272 338c-17 0-30 14-30 30 0 16 13 29 30 29 16 0 29-13 29-29 0-16-13-30-29-30m50-194c0-4 0-5-5-5l-90 0c-5 0-5 1-5 5l0 23c0 4 0 5 5 5l22 0 0 110-23 0c-4 0-5 1-5 5l0 23c0 4 1 5 5 5l64 0c4 0 5-1 5-5l0-138 22 0c5 0 5-1 5-5z m-60 338l0 0c77-3 148-37 192-102 37-55 34-76 40-130l0 0c-4-77-37-148-103-192-54-37-75-34-129-39l0 0c-77 3-148 36-192 102-37 54-34 75-40 129l0 0c3 77 37 148 102 192 25 17 55 24 83 35z m0-34c-109 0-198-89-198-198 0-109 89-198 198-198 109 0 198 89 198 198 0 109-89 198-198 198z"/>
<glyph unicode="&#57455;" d="M424 414c90-90 90-236 0-326-90-90-236-90-326 0-90 90-90 236 0 326 90 90 236 90 326 0z m0 0z m-167 28l-17-3-24-24c-5-23-5-11 0-35l24-23c23-5 11-5 34 0l24 23c5 24 5 12 0 35l-24 24z m23-103l-80 0c-9 0-14-4-14-14l0-29c0-9 5-13 14-13l21 0 0-123-21 0-6-1-7-7c-2-16 0-4 0-35l0-6 7-7 6-1 114 0c10 0 14 5 14 14l0 29c0 9-4 14-14 14l-21 0 0 165c0 10-4 14-13 14z"/>
<glyph unicode="&#57456;" d="M484 484l-456 0 0-456 456 0z m-29-427l-398 0 0 398 398 0z m-129 284l15 57-85 0-16-57z m-93-28l-62-199 85 0 62 199z"/>
<glyph unicode="&#57458;" d="M484 484l-456 0 0-456 456 0z m-29-427l-398 0 0 398 398 0z m-307 92l40 47c25-20 54-31 84-31 19 0 29 7 29 18l0 1c0 10-8 16-43 24-55 13-98 29-98 82l0 1c0 48 38 82 100 82 44 0 79-11 107-34l-36-51c-24 17-50 26-72 26-18 0-26-8-26-17l0-1c0-11 8-17 44-25 60-13 97-32 97-80l0-1c0-53-42-84-105-84-46 0-89 14-121 43m279 79l-342 0 0 28 342 0z"/>
<glyph unicode="&#57459;" d="M256 218l203 179c-1 1-2 1-4 1l-398 0c-1 0-2 0-3 0z m228 152c0 3-1 6-2 9l-144-126 142-124c2 4 4 8 4 13z m-453 11c-2-4-3-7-3-11l0-228c0-4 1-8 3-11l143 122z m286-147l-61-54-61 54-140-120c1 0 1 0 2 0l397 0z"/>
<glyph unicode="&#57460;" d="M370 373l117-117-117-117 0 89-171 0 0 56 171 0z m-342 111l285 0 0-143-57 0 0 86-171 0 0-342 171 0 0 86 57 0 0-143-285 0z"/>
<glyph unicode="&#57461;" d="M172 434l0-78c-36-27-59-69-59-117 3-34 1-47 24-81 45-67 137-84 203-39 39 26 65 73 64 120 0 12 0 24-4 35-8 21-18 41-31 59-6 10-16 15-24 23l0 78c73-36 107-84 124-163 2-10 2-21 2-32l1 0 0 0c-3-70-34-136-94-176-51-34-70-32-120-37-70 3-136 34-176 94-34 51-32 70-37 119 0 87 52 162 127 195z m130-212c0-17-14-30-30-30l-27 0c-17 0-30 13-30 30l0 230c0 16 13 30 30 30l27 0c16 0 30-14 30-30z"/>
<glyph unicode="&#57462;" d="M484 71l-143 0 0 114 143 0z m-29 114l-28 0 0 28-29 0 0-28-28 0 0 57 85 0z m-142 28l28 0 0 57 114 0 0 86c0 15-13 28-28 28l-171 0c-16 0-37 10-47 21l-12 14c-11 12-32 22-48 22l-92 0c-16 0-29-13-29-29l0-284c0-16 13-28 29-28l256 0z"/>
<glyph unicode="&#57463;" d="M331 306l-150 0 0 42c0 40 34 74 75 74 41 0 75-34 75-74z m-54-211l-50 0 13 69c-8 5-13 13-13 22 0 14 11 25 25 25 14 0 25-11 25-25 0-9-5-17-13-22z m115 211l0 42c0 74-61 134-136 134-75 0-136-60-136-134l0-42-30 0 0-271 332 0 0 271z"/>
<glyph unicode="&#57464;" d="M256 292c-27 0-50 22-50 49 0 28 23 50 50 50 27 0 50-22 50-50 0-27-23-49-50-49m0 192c-63 0-156-29-156-143 0-57 125-256 156-313 31 57 156 256 156 313 0 114-93 143-156 143"/>
<glyph unicode="&#57465;" d="M85 484l329 0 0-45-24 0c-3-86-35-142-89-161l0-47c54-18 85-73 89-158l24 0 0-45-329 0 0 45 29 0c4 85 35 140 89 158l0 47c-54 19-86 75-89 161l-29 0z m283-45l-232 0c4-56 11-99 60-133 8-5 20-8 30-10l0-82c-70-15-84-79-90-141l27 0c57 67 26 32 91 107 64-75 34-40 91-107l23 0c-3 59-21 123-81 138l-9 3 0 82c42 8 66 36 79 76 5 14 6 30 9 44z m-65-93l-94 0 23-27 24-28 23 28z"/>
<glyph unicode="&#57466;" d="M277 429c0-8-7-15-15-15-8 0-15 7-15 15l0 39c0 8 7 16 15 16 8 0 15-8 15-16z m-93-8c4-7 2-17-5-21-7-4-16-1-21 6l-19 34c-4 7-2 17 5 21 7 4 16 1 20-7z m-65-51c7-4 10-13 6-20-4-7-14-10-21-5l-33 19c-8 4-11 13-7 20 4 7 14 10 21 5z m-36-79c8 0 15-7 15-15 0-8-7-15-15-15l-39 0-11 5-5 10 0 0 5 10 11 5z m8-87c8 4 17 2 21-5 4-7 1-16-6-21l-33-19c-8-4-17-2-21 5-4 7-2 16 6 21z m51-71c4 7 14 10 20 6 7-4 10-13 5-21l-19-33c-4-8-13-10-20-6-7 4-10 13-5 21z m79-36c0 8 7 15 15 15 8 0 15-7 15-15l0-39c0-8-7-15-15-15-8 0-15 7-15 15z m87 8c-4 8-2 17 5 21 7 4 16 1 21-6l19-33c4-8 2-17-5-21-7-4-16-2-21 6z m71 51c-7 4-10 14-6 21 4 7 13 9 21 5l33-20c8-4 11-13 6-20-4-7-13-10-20-5z m75 109l11-4 4-11 0 0-4-10c-23-9-7-4-50-4-8 0-15 6-15 14 0 8 7 15 15 15z m-47 57c-8-4-17-2-21 5-4 7-1 17 6 21l33 19c8 4 17 2 21-5 4-7 2-16-6-20z m-51 71c-4-7-14-10-21-6-7 4-9 14-4 21l19 33c4 8 13 11 20 7 7-4 10-14 5-21z"/>
<glyph unicode="&#57467;" d="M142 398c0-15-13-28-28-28l-57 0c-16 0-29 13-29 28l0 57c0 16 13 29 29 29l57 0c15 0 28-13 28-29z m0-170c0-16-13-29-28-29l-57 0c-16 0-29 13-29 29l0 56c0 16 13 29 29 29l57 0c15 0 28-13 28-29z m0-171c0-16-13-29-28-29l-57 0c-16 0-29 13-29 29l0 57c0 15 13 28 29 28l57 0c15 0 28-13 28-28z m342 341c0-15-13-28-29-28l-227 0c-16 0-29 13-29 28l0 57c0 16 13 29 29 29l227 0c16 0 29-13 29-29z m0-170c0-16-13-29-29-29l-227 0c-16 0-29 13-29 29l0 56c0 16 13 29 29 29l227 0c16 0 29-13 29-29z m0-171c0-16-13-29-29-29l-227 0c-16 0-29 13-29 29l0 57c0 15 13 28 29 28l227 0c16 0 29-13 29-28z"/>
<glyph unicode="&#57468;" d="M484 398c0-15-13-28-29-28l-398 0c-16 0-29 13-29 28l0 57c0 16 13 29 29 29l398 0c16 0 29-13 29-29z m0-170c0-16-13-29-29-29l-398 0c-16 0-29 13-29 29l0 56c0 16 13 29 29 29l398 0c16 0 29-13 29-29z m0-171c0-16-13-29-29-29l-398 0c-16 0-29 13-29 29l0 57c0 15 13 28 29 28l398 0c16 0 29-13 29-28z"/>
<glyph unicode="&#57469;" d="M495 392c0-17-14-31-31-31l-271 0c-16 0-30 14-30 31 0 16 14 30 30 30l271 0c17 0 31-14 31-30m0-151c0-17-14-30-31-30l-271 0c-16 0-30 13-30 30 0 16 14 30 30 30l271 0c17 0 31-14 31-30m0-151c0-16-14-30-31-30l-271 0c-16 0-30 14-30 30 0 17 14 30 30 30l271 0c17 0 31-13 31-30m-418 392l19 0 0-108-23 0 0 63c0 1 0 2 0 4 0 2 1 4 1 6 0 2 0 4 0 6 0 2 0 3 0 5 0 0-1-1-1-1-2-2-3-3-5-4 0-1-1-2-2-2l-12-10-11 13z m26-277l-72 0 0 16 25 27c3 3 6 6 9 9 2 3 5 6 7 9 1 2 3 5 4 8 1 3 1 6 1 9 0 4-1 7-3 9-2 2-5 3-9 3-3 0-7-1-11-3-3-2-7-5-11-8l-12 14c2 2 4 4 7 6 2 2 5 4 7 5 3 1 7 3 10 3 4 1 7 2 12 2 5 0 10-1 14-2 4-2 7-4 10-6 3-3 5-6 7-10 1-4 2-8 2-13 0-4-1-8-2-12-2-3-4-7-6-11-3-4-6-7-9-11-3-4-7-7-11-11l-13-13 0-1 44 0z m-38-64c5 0 10-1 14-2 4-1 8-3 11-5 3-2 6-5 7-8 2-3 3-7 3-11 0-4-1-7-2-10-1-3-3-6-5-8-2-2-4-4-7-5-3-2-6-3-9-4l0 0c8-1 15-4 19-8 5-4 7-10 7-17 0-5-1-9-2-13-2-4-5-8-8-11-4-2-8-5-14-6-11-3-5-2-18-3l0 0c-11 1-6 0-17 2-5 0-9 2-14 4l0 19c2-1 5-2 7-3 3-1 5-1 7-2 3-1 5-1 8-1 2-1 4-1 6-1 5 0 8 1 11 1 3 1 5 2 7 4 1 1 2 3 3 5 1 2 1 4 1 6 0 2 0 4-1 6-1 2-2 4-5 5-2 1-4 2-7 3-4 0-8 1-13 1l-7 0 0 16 7 0c5 0 8 0 11 1 3 1 6 2 8 3 1 2 3 3 3 5 1 2 2 4 2 6 0 4-2 7-4 9-2 2-6 3-11 3-3 0-5 0-7 0-2-1-4-1-6-2-1-1-3-2-4-3-2 0-3-1-4-2l-12 15c2 2 5 3 7 4 2 2 5 3 8 4 3 1 6 1 9 2 3 0 7 1 11 1z"/>
<glyph unicode="&#57470;" d="M71 441c24 0 43-19 43-43 0-23-19-42-43-42-23 0-43 19-43 42 0 24 20 43 43 43z m413-57c0-16-13-28-29-28l-256 0c-16 0-28 12-28 28 0 16 12 28 28 28l256 0c16 0 29-12 29-28m-370-128c0-24-19-43-43-43-23 0-43 19-43 43 0 24 20 43 43 43 24 0 43-19 43-43m370-14c0-16-13-29-29-29l-256 0c-16 0-28 13-28 29 0 15 12 28 28 28l256 0c16 0 29-13 29-28m-370-128c0-24-19-43-43-43-23 0-43 19-43 43 0 23 20 42 43 42 24 0 43-19 43-42m370-14c0-16-13-29-29-29l-256 0c-16 0-28 13-28 29 0 15 12 28 28 28l256 0c16 0 29-13 29-28"/>
<glyph unicode="&#57471;" d="M185 186l-137 91 208 169 208-169-137-91 157-136 0 240-228 194-228-194 0-240z m273-152l-163 143-78 0-163-143z"/>
<glyph unicode="&#57472;" d="M28 455l0-341 143-57 0 341z m313 0l0-341 143-57 0 341z m-28 0l0-341-114-57 0 341z"/>
<glyph unicode="&#57473;" d="M313 256c0-31-26-57-57-57-31 0-57 26-57 57l0 171c0 31 26 57 57 57 31 0 57-26 57-57z m85 0l0 57-28 0 0-57c0-63-51-114-114-114-63 0-114 51-114 114l0 57-28 0 0-57c0-69 49-126 114-139l0-32-86-28 0-29 228 0 0 29-86 28 0 32c65 13 114 70 114 139"/>
<glyph unicode="&#57474;" d="M402 219l-292 0 0 74 292 0z m37 256l-366 0c-20 0-36-16-36-36l0-366c0-20 16-36 36-36l366 0c20 0 36 16 36 36l0 366c0 20-16 36-36 36"/>
<glyph unicode="&#57475;" d="M28 313l456 0 0-114-456 0z"/>
<glyph unicode="&#57476;" d="M356 114l-200 0 0 284 200 0z m-100-65c-12 0-22 10-22 22 0 12 10 22 22 22 12 0 22-10 22-22 0-12-10-22-22-22m-43 406l86 0c8 0 14-6 14-14 0-8-6-14-14-14l-86 0c-8 0-14 6-14 14 0 8 6 14 14 14m143 29l-200 0c-31 0-56-26-56-57l0-342c0-31 25-57 56-57l200 0c31 0 56 26 56 57l0 342c0 31-25 57-56 57"/>
<glyph unicode="&#57477;" d="M398 114l-284 0 0 313 284 0z m-114-57l-56 0 0 28 56 0z m114 427l-284 0c-32 0-57-26-57-57l0-342c0-31 25-57 57-57l284 0c32 0 57 26 57 57l0 342c0 31-25 57-57 57"/>
<glyph unicode="&#57478;" d="M455 398l-28 0 0 29 28 0z m0-85l-28 0 0 28 28 0z m0-85l-28 0 0 28 28 0z m0-86l-28 0 0 29 28 0z m0-85l-28 0 0 28 28 0z m-57 227l-284 0 0 143 284 0z m0-199l-284 0 0 143 284 0z m-313 313l-28 0 0 29 28 0z m0-85l-28 0 0 28 28 0z m0-85l-28 0 0 28 28 0z m0-86l-28 0 0 29 28 0z m0-85l-28 0 0 28 28 0z m-57-29l456 0 0 456-456 0z"/>
<glyph unicode="&#57479;" d="M151 422l0-267c-5 1-10 2-15 2-42 0-76-27-76-61 0-33 34-60 76-60 39 0 70 24 74 54l1 0 0 283 181 37 0-194c-5 0-10 1-16 1-41 0-75-27-75-60 0-34 34-61 75-61 39 0 71 24 75 55l1 0 0 331z"/>
<glyph unicode="&#57480;" d="M419 439c0 26-17 34-38 19l-120-89c-21-15-38-25-38-21 0 4-21 7-46 7l-37 0c-26 0-47-21-47-47l0-102c0-26 21-37 47-37l37 0c25 0 46-4 46-2 0 1 17-13 38-28l120-90c21-15 38-8 38 18z"/>
<glyph unicode="&#57481;" d="M402 219l-109 0 0-109-74 0 0 109-109 0 0 74 109 0 0 109 74 0 0-109 109 0z m37 256l-366 0c-20 0-36-16-36-36l0-366c0-20 16-36 36-36l366 0c20 0 36 16 36 36l0 366c0 20-16 36-36 36"/>
<glyph unicode="&#57482;" d="M211 484l87 0c96-40 59-15 117-63 89-89 89-233 0-322-58-48-21-23-117-62-29 0-59-6-87 0-91 18-162 89-180 180-6 28 0 58 0 87 30 85 35 95 98 146z m-33-91l0-266c152 89 76 45 228 133l-114 67z"/>
<glyph unicode="&#57483;" d="M305 482l163-163c-118-39-62-7-163-108l27-27-27-81-124 123 43-42c-75-75-17-20-194-141 120 179 65 120 140 195l-82 81 82 27 27-27 81 82z"/>
<glyph unicode="&#57484;" d="M402 24c-20-4-151 1-257 122-113 127-102 271-97 280 9 17 27 36 51 51 3 2 7 3 11 4 15 3 30-6 40-12l5-3c13-8 29-94 29-105-1-12-14-24-47-53 9-32 38-76 61-102 21-24 67-65 99-79 28 25 42 37 54 40 1 0 3 0 5 0 10-1 94-27 100-41l2-6c7-12 17-33 3-51-18-22-39-38-57-45z"/>
<glyph unicode="&#57485;" d="M28 398c0-15 13-28 29-28l199 0c16 0 28 13 28 28 0 16-12 29-28 29l-199 0c-16 0-29-13-29-29m114-142c0 16-13 28-28 28l-57 0c-16 0-29-12-29-28 0-16 13-28 29-28l57 0c15 0 28 12 28 28m-114-142c0-16 13-29 29-29l199 0c16 0 28 13 28 29 0 15-12 28-28 28l-199 0c-16 0-29-13-29-28m342 170l-142 0 0-56 142 0z m114-28l-114 85 0-170z"/>
<glyph unicode="&#57486;" d="M484 398c0-15-13-28-29-28l-199 0c-16 0-28 13-28 28 0 16 12 29 28 29l199 0c16 0 29-13 29-29m0-284c0-16-13-29-29-29l-199 0c-16 0-28 13-28 29 0 15 12 28 28 28l199 0c16 0 29-13 29-28m0 142c0 16-13 28-29 28l-57 0c-15 0-28-12-28-28 0-16 13-28 28-28l57 0c16 0 29 12 29 28m-342 28l142 0 0-56-142 0z m-114-28l114 85 0-170z"/>
<glyph unicode="&#57487;" d="M448 480l-288 0 0-2c-54-7-96-54-96-110 0-56 42-103 96-110l0-226 64 0 0 384 64 0 0-384 64 0 0 384 96 0z"/>
<glyph unicode="&#57488;" d="M473 482l15-8c19-19-4-43-4-43-44-43-87-87-130-130-14-14-20-18-31-37-13-21-25-44-35-66l-78 78c0 0 68 27 92 51 34 35 69 69 104 104 14 14 27 30 43 42z m-443-435c61 15 55 65 91 151 18 42 65 54 65 54l78-78c0 0 0-167-234-127"/>
<glyph unicode="&#57489;" d="M427 85l-342 0 0 313 29 0 0-28 28 0 0 28 57 0 0-28 29 0 0 28 56 0 0-28 29 0 0 28 57 0 0-28 28 0 0 28 29 0z m-29 370l0 29-28 0 0-29-57 0 0 29-29 0 0-29-56 0 0 29-29 0 0-29-57 0 0 29-28 0 0-29-86 0 0-427 456 0 0 427z"/>
<glyph unicode="&#57490;" d="M252 482l0 0c15-2 31 0 45-5 100-30 142-72 173-172 4-15 3-30 4-45l0 0c-3-74-35-142-98-184-52-36-72-33-124-38-122 0-222 99-222 222 3 73 35 142 98 184 24 16 53 22 79 33z m134-131l-225-225c26-17 57-28 91-28 90 0 162 72 162 162 0 34-11 65-28 91z m-134 71c-89 0-162-73-162-162 0-34 11-65 28-91l225 225c-26 17-57 28-91 28z m0 0z"/>
<glyph unicode="&#57491;" d="M451 178l-27 0 0 42 27 0z m-81 135l-228 0 0 114 142 0 0-86 86 0z m0-142l0-86-228 0 0 143 228 0z m-285 85l-28 0 0 28 28 0z m370 57l-57 0 0 52-89 90-195 0 0-142-57 0-29-29 0-142 86 0 0-85 284 0 0 85 86 0 0 142z m-114-142l-170 0 0 28 170 0z m0-57l-170 0 0 28 170 0z"/>
<glyph unicode="&#57492;" d="M313 427c16 0 37-10 47-22l105-127c10-12 10-32 0-44l-105-127c-12-14-30-19-47-22l-256 0-11 3-15 15-3 11 0 284 3 11 15 15 11 3z"/>
<glyph unicode="&#57493;" d="M268 484l10-6 127-106c14-12 19-29 22-46l0-257-3-11-15-15-11-2-284 0-11 2-15 15-3 11 0 256c0 16 10 37 22 47l127 106 10 6z"/>
<glyph unicode="&#57494;" d="M114 484l284 0 11-3 15-15 3-11 0-256c0-16-10-37-22-47l-127-105c-17-10-6-6-34-6l-10 6-127 105c-14 12-19 30-22 47l0 256 3 11 15 15z"/>
<glyph unicode="&#57495;" d="M188 427l256 0 11-3 16-15 2-11 0-284-2-11-16-15-11-3-256 0c-15 0-36 10-46 22l-106 127c-10 12-10 32 0 44l106 127c16 14 5 7 34 20z"/>
<glyph unicode="&#57496;" d="M455 142l-142 0 0 29 142 0z m-256 313l142 0 0-28-142 0z m0-313l-142 0 0 29 142 0z m199 57l0 85-114 0 0 29 86 0 0 171-199 0 0-171 85 0 0-29-142 0 0-85-86 0 0-171 200 0 0 171-86 0 0 57 228 0 0-57-86 0 0-171 200 0 0 171z"/>
<glyph unicode="&#57497;" d="M221 414l0 0 15-69c-54-7-80-32-80-74l71 0 0-190-188 0 0 151c2 64 17 123 78 157 20 11 44 14 66 21z m229 0l0 0 15-69c-53-13-26 0-75-45l-5-29 71 0 0-190-188 0 0 151c2 64 17 123 78 157 20 11 44 14 66 21z"/>
<glyph unicode="&#57498;" d="M226 422c52-5 49-1 108-33 12-6 20-17 30-25 18-17 31-37 41-59l77 87 0-211-188 0 65 72c-6 26-18 50-37 69-30 29-57 36-96 39-74-5-112-40-133-108-4-12-4-42 0-54 15-49 21-44 44-79l0-23c-6-13-15-16-28-18l0 0c-22 3-35 18-46 38-12 23-22 46-29 70-4 13-4 26-4 39 0 51 21 102 57 138 35 35 48 32 100 54z"/>
<glyph unicode="&#57499;" d="M256 480c-60 0-117-24-158-66l-66 66 0-192 192 0-81 81c30 30 70 47 113 47 88 0 160-72 160-160 0-88-72-160-160-160-57 0-110 31-139 80l-55-32c40-69 114-112 194-112 124 0 224 101 224 224 0 123-100 224-224 224"/>
<glyph unicode="&#57500;" d="M482 482l-452 0 0-452 452 0z m-60-392l-332 0 0 332 332 0z m-241 61l-30 0 0 210 30 0z m90 0l-30 0 0 210 30 0z m90 0l-30 0 0 210 30 0z m-150 165c0-8-7-15-15-15l-60 0c-9 0-16 7-16 15 0 9 7 15 16 15l60 0c8 0 15-6 15-15m90-90c0-8-7-15-15-15l-60 0c-8 0-15 7-15 15 0 8 7 15 15 15l60 0c8 0 15-7 15-15m91 60c0-8-7-15-16-15l-60 0c-8 0-15 7-15 15 0 8 7 15 15 15l60 0c9 0 16-7 16-15"/>
<glyph unicode="&#57501;" d="M371 480l0 0c20-2 10 0 30-4l-62-61 15-68 67-14 61 60c4-19 3-9 4-29l0 0c-3-61-36-96-93-113-7-3-15-2-23-3-19 2-9 0-28 4 0 0-1-2-1-2l-211-209-20-15-45-3-19 12c-21 21-18 59 7 84l208 207c-16 49 0 104 45 134 12 9 28 12 41 18z"/>
<glyph unicode="&#57502;" d="M172 341l17 0c10 0 18-7 18-17l0-38c9-3 18-6 26-11 31 31 17 22 35 33l13 1c9-6 16-14 22-22l0-13c-12-17-3-4-33-35 8-15 4-7 11-24l43 0 7-1 9-9c3-13 2-5 2-24l-2-7-9-9c-20-5-5-2-48-2-5-17-2-8-9-24l31-31c7-7 7-18 0-25-14-13-7-9-18-16l-13 0c-17 11-4 3-34 32-7-5-16-9-24-12 0-43 2-28-2-48l-9-9c-12-3-4-2-24-2l-7 2-9 9c-4 19-2 5-2 43-10 2-19 5-28 9l-27-26c-6-7-17-7-24 0l-13 12c-6 7-6 18 0 25l24 24c-6 8-11 18-14 29l-35 0-7 1-9 9c-2 13-1 5-1 24l1 7 9 9c18 4 5 2 40 2 2 10 6 20 11 30l-25 25c-6 6-6 18 0 24l13 13c6 6 17 6 24 0l25-25c8 5 18 9 28 12l0 38c0 10 8 17 17 17z m9-113c-24 0-44-19-44-43 0-24 20-44 44-44 24 0 43 20 43 44 0 24-19 43-43 43z m195 256l11 0 8-4c6-15 3-5 3-32 11-4 6-1 16-6 21 20 11 15 27 22 11-5 6-2 16-12 4-4 4-11 0-15l-19-19c3-4 5-9 7-15l28 0 8-3c4-11 3-5 3-19l-3-8c-16-6-5-3-35-3-3-10-1-5-5-15l19-20c5-4 5-11 1-16l-8-7c-5-5-12-5-16 0l-18 18c-5-4-10-6-15-8l0-26c0-7-5-12-11-12l-11 0-8 4c-6 15-4 5-4 31-12 3-6 1-18 6-19-19-9-14-24-20-11 2-16 9-19 18 6 15 1 6 18 23-7 12-4 6-9 19l-22 0-8 3c-5 11-3 5-3 19l3 8c14 5 5 3 29 3 4 13 1 7 7 19-18 18-13 9-19 24 2 10 9 15 19 19 14-6 5-2 23-19 12 6 6 3 18 7l0 24 3 8z m6-72c-16 0-28-13-28-28 0-15 12-28 28-28l10 3 15 14c3 15 3 7 0 22l-15 14z"/>
<glyph unicode="&#57503;" d="M237 482l26 0 9-2 14-13c5-28 2-7 2-65 13-4 25-9 37-15l42 42c10 10 26 10 36 0l18-18c9-9 9-25 0-35l-42-42c11-22 6-11 15-34l63 0 10-2 13-13c4-18 2-7 2-35l-2-10-13-13c-29-6-7-2-70-2-6-24-2-13-12-36 47-46 33-27 50-52l0-19c-8-13-19-23-32-32l-19 0c-24 16-6 4-48 46-11-7-23-13-36-18l0-59c0-14-11-25-25-25l-25 0c-14 0-25 11-25 25l0 53c-15 2-29 7-41 13l-39-38c-9-10-25-10-35 0-20 20-13 11-23 26l0 19c14 22 3 6 39 42-15 27-9 13-20 42l-50 0-10 2-14 13c-3 18-1 7-1 35l1 10 14 13c25 6 6 2 57 2 3 16 9 30 17 44l-37 36c-9 10-9 26 0 35 20 21 11 14 26 24l19 0c23-15 6-3 44-41 13 7 26 13 40 17l0 55 2 10 14 13z m13-163c-35 0-63-28-63-63 0-35 28-63 63-63 35 0 63 28 63 63 0 35-28 63-63 63z"/>
<glyph unicode="&#57504;" d="M455 92c0-3-3-7-7-7l-100 0c-3 0-7 4-7 7l0 15c0 4 4 7 7 7l100 0c4 0 7-3 7-7z m-284 0c0-3-4-7-7-7l-100 0c-4 0-7 4-7 7l0 15c0 4 3 7 7 7l100 0c3 0 7-3 7-7z m284 221l0 71c0 8-6 14-14 14l-14 0 0 29 28 0 0 28-114 0 0-28 29 0 0-29-14 0c-8 0-15-6-15-14l0-71-28 0 0 28c0 16-13 29-29 29l-56 0c-16 0-29-13-29-29l0-28-28 0 0 71c0 8-7 14-15 14l-14 0 0 29 29 0 0 28-114 0 0-28 28 0 0-29-14 0c-8 0-14-6-14-14l0-71c-16 0-29-13-29-29l0-199c0-15 13-28 29-28l114 0c15 0 28 13 28 28l0 171 43 0c-8 0-14-6-14-14 0-8 6-14 14-14l28 0c8 0 14 6 14 14 0 8-6 14-14 14l43 0 0-171c0-15 13-28 28-28l114 0c16 0 29 13 29 28l0 199c0 16-13 29-29 29"/>
<glyph unicode="&#57505;" d="M226 482l0 0c13-1 27 0 39-4 24-8 49-15 70-30 58-38 99-117 85-188-8-42-9-40-24-70 90-90 64-52 96-101l0-34c-9-19-22-24-42-28-5 1-11 1-17 3-5 3-10 6-15 10-28 27-55 56-83 84-32-23-71-31-109-34-13 2-27 0-40 4-86 27-126 67-152 153-4 12-3 26-4 39l0 0c3 65 31 125 86 162 22 15 47 20 70 30z m0-60c-75 0-136-61-136-136 0-75 61-135 136-135 32 3 44 1 76 23 62 41 77 127 36 188-26 39-43 39-85 57z"/>
<glyph unicode="&#57506;" d="M85 398l342 0 0-227-342 0z m399-284l0 341-456 0 0-341 143 0 0-29-57 0 0-28 284 0 0 28-57 0 0 29z"/>
<glyph unicode="&#57507;" d="M256 142l-57 0 0-57 57 0z m142 114l-284 0 0 199 284 0z m-57-199l-170 0 0 114 170 0z m-313 427l0-456 399 0 57 57 0 399z"/>
<glyph unicode="&#57508;" d="M454 60l11-5 4-10-4-11-11-5-391 0c-9 0-16 7-16 16 0 8 7 15 16 15z m-152 422l0 0c15-3 8 0 21-9l123-124c12-12 12-32 0-44l-188-190c-12-12-35-25-52-25l-46 0c-16 0-40 13-51 25l-70 74c-12 12-12 31 0 43l241 241 10 7z m-132-164l-110-110 70-72c6-6 22-16 30-16l46 0c9 0 21 10 27 16l58 61z"/>
<glyph unicode="&#57510;" d="M372 114c-2 142-116 256-258 258l0 55c170-2 311-143 313-313z m-108 0c-1 28-18 77-45 105-28 28-77 45-105 45l0 55c114-1 204-91 205-205z m-108 0c-23 0-42 19-42 42 0 23 19 42 42 42 23 0 42-19 42-42 0-23-19-42-42-42m242 370l-284 0c-47 0-86-39-86-86l0-284c0-47 39-86 86-86l284 0c47 0 86 39 86 86l0 284c0 47-39 86-86 86"/>
<glyph unicode="&#57511;" d="M298 452c-94 0-172-66-192-153l-76 1 103-165 106 162-70 1c18 54 68 94 129 94 75 0 136-62 136-137 0-76-61-137-136-137-28 0-54 8-76 23l-33-51c31-20 69-32 109-32 108 0 197 88 197 197 0 108-89 197-197 197"/>
<glyph unicode="&#57512;" d="M416 194l68-44 0-67-68-45-67 45 0 67z m0-21l-48-33 48-33 49 33z m-38 205l-59 40 59 39 59-39z m0 106l-81-55 0-81 81-54 81 54 0 81z m-209-119l140-93 0-141-140-93-141 93 0 141z m0-46l-103-68 103-68 102 68z"/>
<glyph unicode="&#57513;" d="M249 469l55-157 166-3-133-100 48-159-136 95-136-95 48 159-133 100 167 3z"/>
<glyph unicode="&#57514;" d="M259 458l39-114c5-14 22-27 38-27l120-2c16-1 19-9 6-18l-96-73c-14-11-16-28-14-44l35-116c4-15-3-20-16-11l-98 69c-13 9-34 9-47 0l-99-69c-13-9-20-4-15 11l35 116c4 17-3 32-15 44l-96 73c-12 9-10 17 6 18l121 2c15 0 32 13 37 27l40 114c5 15 13 15 19 0z m0 0z"/>
<glyph unicode="&#57515;" d="M482 452l-452 0 0-392 452 0z m-60-332l-332 0 0 272 332 0z m-87 65l-62 64-59-59-57 56-23-42c-4-8-13-10-21-6-7 4-10 13-6 20l42 78 65-64 60 61 53-56 51 101c4 8 13 10 20 7 8-4 11-13 7-20z"/>
<glyph unicode="&#57516;" d="M469 420l-426 0 0-249 426 0z m-28-221l-370 0 0 192 370 0z m-191 19l-43 69-42-65-41 63-18-52c-1-4-5-6-9-5-4 1-5 6-4 9l27 80 45-69 42 66 38-62 30 92c1 3 5 5 9 4 4-1 6-5 5-9z m49-133l-57 0 0 114 57 0z m-142-57l-28 0 113 89 0-30z m226 0l28 0-112 89 0-30z m-84 370l-57 0 0 86 57 0z m170 0l-426 0 0 57 426 0z m-67-80c0-21-16-37-37-37-21 0-38 16-38 37 0 21 17 38 38 38 21 0 37-17 37-38m-46-90l-29 0 0 28 29 0z m56 0l-28 0 0 28 28 0z"/>
<glyph unicode="&#57517;" d="M154 394l42-187 160-92c-38-41-33-43-102-68-13-5-29-4-43-5l0 0c-12 1-25 0-37 3-81 25-115 59-140 141-4 11-3 24-4 36 0 80 52 148 124 172z m0 0z m162 75c-22 8-45 13-70 13-21 0-42-4-62-10l46-205z m30-49c73-33 107-77 125-155 2-10 1-21 2-31l0 0c-3-44 0-40-22-92-4-10-11-18-17-27l-178 102z"/>
<glyph unicode="&#57518;" d="M484 57l-456 0 0 28 456 0z m-342 57l-114 0 0 256 114 0z m171 0l-114 0 0 142 114 0z m171 0l-114 0 0 341 114 0z"/>
<glyph unicode="&#57519;" d="M54 478l0 0c22-2 11-1 33-2 19-1 55-1 108-1l132 0c55 0 92 0 110 1 20 1 10 0 30 2l0 0 4-3c-6-36-5-71-5-107l-27 0c-2 33-1 17-5 49-1 8-2 12-4 14-24 6-50 4-75 5l-46 0c-2-95-1-191-1-286 3-22-10-84 13-97 12-8 33-5 47-6l0-27c-75 3-39 2-107 3-69-1-33 0-107-3l0 27c26 1 42 3 47 5 5 3 8 7 10 14 2 9 3 37 3 84l0 196c0 53 0 83-1 90l-46 0c-24 0-45-1-63-3-7 0-11-1-12-2-1-2-3-5-4-12-3-15-4-32-5-51l-27 0c-1 45-1 70-2 76-1 20 0 10-3 31l0 0z"/>
<glyph unicode="&#57520;" d="M368 481c14 3 28-8 32-25 3-14-1-27-9-33l10 2c15 3 31-8 35-25 4-15-3-29-15-35l5 1c17 4 34-7 38-25 4-17-7-34-24-38l-47-11 0-2 38 9c15 4 30-8 35-25 4-17-5-34-21-38-131-30-84-16-142-35 23-7 31-51 35-67 5-21 10-53 5-75-2-8-7-16-10-24-26-15-13-12-37-13l-3 1c-12 25-18 64-33 86-10 14-24 25-36 37-23 23-46 45-69 68-2 6-90-1-91 5-3 61-4 85-4 153 43 3 53 41 137 69 27 10 63 17 93 22z"/>
<glyph unicode="&#57521;" d="M197 480l25-5c8-11 18-21 24-33 15-27 19-83 17-112 0-8-4-27-14-33 65 1 13 0 155 14 17 2 32-12 34-31 2-19-10-36-27-37l-40-4 0-2 51 5c19 2 36-12 38-30 2-19-12-36-31-38l-4 0c14-3 25-15 27-31 2-19-10-35-27-37l-11-1c11-4 19-15 21-30 2-19-9-35-23-37-63-5-124-15-186-19l-1 0c-38 2-37 0-80 10-12 3-23 8-35 11-10 2-20 3-30 4l-16-2c0 62 0 112 0 171 11 13 30 9 41 21 1 2 2 4 3 6 6 11 12 23 18 35 17 33 35 66 48 100 3 12 4 98 4 98l3 2z"/>
<glyph unicode="&#57522;" d="M286 422c52 0 102-21 139-58 37-37 57-86 57-138 0-52-20-102-57-139-6-5-14-8-22-8-7 0-15 3-21 8-12 12-12 31 0 43 26 26 40 60 40 96 0 36-14 70-40 96-26 25-60 39-96 39-36 0-70-14-96-39-19-19-31-43-37-69l65-72-188 0 0 211 77-87c10 22 23 42 41 59 37 37 86 58 138 58z m0 0z"/>
<glyph unicode="&#57523;" d="M484 484l-456 0 0-456 456 0z m-29-427l-398 0 0 398 398 0z m-313 213l0 125 63 0 0-124c0-32 16-48 41-48 25 0 41 15 41 46l0 126 63 0 0-124c0-72-41-103-104-103-64 0-104 32-104 102m228-156l-228 0 0 28 228 0z"/>
<glyph unicode="&#57524;" d="M228 358c0 15-11 21-23 11l-74-54c-13-9-23-15-23-13 0 3-13 4-28 4l-23 0c-16 0-29-12-29-28l0-63c0-15 13-22 29-22l23 0c15 0 28-2 28-2 0 1 10-7 23-16l74-56c12-9 23-4 23 11z m56-108c0-10-5-18-12-24l20-20c13 11 21 26 21 44 0 17-8 33-21 43l-20-20c7-5 12-14 12-23m86 0c0-33-14-63-37-84l20-20c28 26 45 63 45 104 0 40-17 77-45 103l-20-20c23-21 37-50 37-83m45 162c42-41 69-99 69-162-7-63-2-59-41-129-7-13-19-23-28-34l-21 20c38 36 61 86 61 143 0 56-23 106-61 143z"/>
<glyph unicode="&#57525;" d="M341 424c0 23-15 31-34 17l-111-82c-18-13-34-22-34-19 0 4-19 7-43 7l-34 0c-23 0-42-20-42-43l0-94c0-23 19-34 42-34l34 0c24 0 43-3 43-2 0 1 16-11 34-25l111-83c19-14 34-7 34 16z m86-163c0-14-8-27-20-34l32-31c18 16 30 39 30 65 0 27-12 50-30 65l-32-30c12-8 20-20 20-35"/>
<glyph unicode="&#57526;" d="M252 480c15-2 30 0 44-4 99-31 141-73 172-172 4-14 2-29 4-44l0 0c-2-15 0-30-4-44-31-99-73-141-172-172-14-4-29-2-44-4l0 0c-15 2-30 0-44 4-99 31-141 73-172 172-4 14-2 29-4 44 0 121 99 220 220 220z m0 0z m0-64c-86 0-156-70-156-156 0-86 70-156 156-156 86 0 156 70 156 156 0 86-70 156-156 156z m0 0z m3-152c-9 0-16 7-16 16l0 64c0 9 7 16 16 16 9 0 16-7 16-16l0-64c0-9-7-16-16-16m80-64c-3 0-7 1-10 3l-80 64c-7 6-8 16-2 23 5 7 15 8 22 3l80-64c7-6 8-16 3-23-4-4-8-6-13-6"/>
<glyph unicode="&#57527;" d="M299 171l170 0 0-57-170 0z m57-86l-256 0 0 342 158 0 98-97 0-131 56 0 0 154-130 131-239 0 0-456 369 0 0 57z"/>
<glyph unicode="&#57528;" d="M219 85l-134 0 0 342 159 0 97-97 0-17 57 0 0 40-130 131-240 0 0-456 245 0-53 56z m65 189l143 0 0-114 57 0c-83-88-42-44-124-132l0 0c-83 87-42 43-124 132l48 0z"/>
<glyph unicode="&#57529;" d="M384 85l-256 0 0 342 159 0 12-12 0-74 73 0 12-11z m-74 399l-239 0 0-456 370 0 0 325z m46-256l-200 0 0 28 200 0z m-86 85l-114 0 0 28 114 0z m86-171l-200 0 0 29 200 0z"/>
<glyph unicode="&#57531;" d="M355 469l1 0c67-4 105-37 125-102 4-13 3-63 3-69l-57 0 0 44c-2 41-32 66-71 70-75-8-72-57-72-114l57 0 0-256-313 0 0 256 200 0 0 44c1 42 20 81 56 106 14 9 31 12 46 19z m-172-259c-13 0-24-11-24-24 0-9 6-16 13-21l-13-66 48 0-12 66c7 5 12 12 12 21 0 13-10 24-24 24z"/>
<glyph unicode="&#57532;" d="M250 484l0 0c44-2 79-27 88-70 1-10-1-27-3-47 12 3 14-23 14-33-4-14-1-6-14-23l-8-2c-4-19-7-38-22-52l1-43c17-9 36-17 54-25 45-18 89-31 102-52 12-34 10-72 9-107l-442 0c0 12 0 2-1 28l0 1c1 26 0 54 9 78 14 21 58 34 102 52 45 19 55 25 55 25l1 43c-16 14-18 34-22 52-11-3-21 16-22 25-1 10 1 36 14 33-6 42-7 79 35 103 10 6 21 8 31 12z"/>
<glyph unicode="&#57533;" d="M237 472l0 0c37-1 66-20 81-55 7-16 1-40-1-56l7-2c7-23 6-13 6-29 0-9-10-26-20-24-5-37-21-49-21-49l1-41c0 0 10-6 51-23 38-16 76-27 92-44l-148 0 0-107-258 0c0 0-3 84 8 102 13 19 55 31 97 49 42 17 52 23 52 23l0 41c-14 13-16 32-20 49l-8 2c-13 16-9 8-13 22-1 9 1 34 13 31-2 19-4 35-3 44 9 44 29 51 66 65z m75-350l161 0 0-54-161 0z"/>
<glyph unicode="&#57534;" d="M250 484l0 0c44-2 79-27 88-70 1-10-1-27-3-47 12 3 14-23 14-33-1-9-12-28-22-25-5-40-22-52-22-52l1-43c0 0 5-3 23-11l0-3-57 0 0-113 57 0 0-57-300 0c0 0-4 89 8 107 14 21 58 34 102 52 45 19 55 25 55 25l1 43c-16 14-18 34-22 52l-8 2c-14 17-10 9-14 23-1 10 1 36 14 33-6 42-7 79 35 103 10 6 21 8 31 12z m164-426l-56 0 0 171 56 0z m-113 114l170 0 0-57-170 0z"/>
<glyph unicode="&#57535;" d="M427 85l-342 0 0 285 342 0z m-342 342l29 0 0-29-29 0z m57 0l29 0 0-29-29 0z m57 0l29 0 0-29-29 0z m256 57l-427 0 0-456 456 0 0 456z m-226-342l-58 88-45-67-24 16 69 103 55-83 58 117 61-121 43 43 20-21-71-70-53 106z"/>
<glyph unicode="&#57536;" d="M427 85l-342 0 0 285 342 0z m-342 342l29 0 0-29-29 0z m57 0l29 0 0-29-29 0z m57 0l29 0 0-29-29 0z m256 57l-427 0 0-456 456 0 0 456z m-57-200l-199 0 0 29 199 0z m-234 0l-43 0 0 29 43 0z m234-56l-199 0 0 28 199 0z m-234 0l-43 0 0 28 43 0z m234-57l-199 0 0 28 199 0z m-234 0l-43 0 0 28 43 0z"/>
<glyph unicode="&#57537;" d="M427 85l-342 0 0 285 342 0z m-342 342l29 0 0-29-29 0z m57 0l29 0 0-29-29 0z m57 0l29 0 0-29-29 0z m256 57l-427 0 0-456 456 0 0 456z m-57-200l-199 0 0 57 199 0z m0-170l-199 0 0 142 199 0z m-227 0l-57 0 0 227 57 0z"/>
<glyph unicode="&#57538;" d="M220 398l65 0c21-5 42-8 63-16 48-19 73-42 108-81 8-9 13-20 20-30l0-17c-42-69-110-117-191-127-22-3-43 0-65 0-21 5-43 8-63 16-48 19-73 42-108 80-8 10-14 21-21 31l0 17c42 66 65 75 129 111z m32-32c-57 0-103-46-103-104 0-57 46-103 103-103 57 0 104 46 104 103 0 58-47 104-104 104z m52-104c0-28-23-51-52-51-28 0-51 23-51 51 0 29 23 52 51 52 29 0 52-23 52-52"/>
<glyph unicode="&#57539;" d="M455 171c-51-1-129-3-171-27l0 212c0 18 31 55 171 56z m-398 241c14 0 27 0 39-1 2 0 4 0 7-1 1 0 2 0 2 0 56-4 116-15 122-49 0-2 1-4 1-5l0-212c-42 24-120 26-171 27z m199-56c0 71-158 85-228 85l0-313 15 0c5 0 9 0 14 0l0-28c57 0 171 17 171-29l56 0c0 46 114 29 171 29l0 28c5 0 9 0 14 0l15 0 0 313c-70 0-228-14-228-85"/>
<glyph unicode="&#57540;" d="M226 482l0 0c13-1 27 0 39-4 86-26 126-66 153-152 4-13 2-27 4-40 0-35-10-67-26-96l86-86c18-17 18-46 0-64-19-13-9-8-32-13-5 1-11 1-17 3-5 3-10 6-15 10-28 27-55 56-83 84-32-23-71-31-109-34-13 2-27 0-40 4-86 27-126 67-152 153-4 12-3 26-4 39l0 0c3 65 31 125 86 162 22 15 47 20 70 30z m0-60c-75 0-136-61-136-136 0-75 61-135 136-135 32 3 44 1 76 23 62 41 77 127 36 188-26 39-43 39-85 57z m-84-106l181 0 0-60-181 0z"/>
<glyph unicode="&#57541;" d="M226 482l0 0c13-1 27 0 39-4 86-26 126-66 153-152 4-13 2-27 4-40 0-35-10-67-26-96l86-86c18-17 18-46 0-64-19-13-9-8-32-13-5 1-11 1-17 3-5 3-10 6-15 10-28 27-55 56-83 84-32-23-71-31-109-34-13 2-27 0-40 4-86 27-126 67-152 153-4 12-3 26-4 39l0 0c3 65 31 125 86 162 22 15 47 20 70 30z m0-60c-75 0-136-61-136-136 0-75 61-135 136-135 32 3 44 1 76 23 62 41 77 127 36 188-26 39-43 39-85 57z m97-106l-60 0 0 60-61 0 0-60-60 0 0-60 60 0 0-60 61 0 0 60 60 0z"/>
<glyph unicode="&#57542;" d="M468 477c17-11 20-32 8-48l-243-309-122 143c-12 15-9 37 6 48 16 12 40 9 52-5l62-73 186 237c12 15 35 18 51 7z m-41-449l-57 0 0 29 28 0 0 28 29 0z m-228 0l-57 0 0 29 57 0z m114 0l-57 0 0 29 57 0z m-228 0l-57 0 0 57 29 0 0-28 28 0z m-28 228l-29 0 0 57 29 0z m0-114l-29 0 0 57 29 0z m0 228l-29 0 0 57 57 0 0-29-28 0z m142 28l-57 0 0 29 57 0z m114 0l-57 0 0 29 57 0z m114-14l-29 0 0 14-14 0 0 29 43 0z m0-128l-29 0 0 57 29 0z m0-114l-29 0 0 57 29 0z"/>
<glyph unicode="&#57543;" d="M468 477c17-11 20-32 8-48l-243-309-122 143c-12 15-9 37 6 48 16 12 40 9 52-5l62-73 186 237c12 15 35 18 51 7z m-41-50l-399 0 0-399 399 0z m-29-370l-341 0 0 341 341 0z"/>
<glyph unicode="&#57544;" d="M467 459c20-12 24-37 10-55l-291-355-146 165c-15 17-12 41 7 55l15 7 33-4c44-32 10-6 88-93l223 272c14 17 42 21 61 8z"/>
<glyph unicode="&#57383;" d="M241 406c-54 31-151 31-151 31l0-271c0 0 97 0 151-31z m30 0c54 31 151 31 151 31l0-271c0 0-97 0-151-31z m181 1l0-276-181-26-30 0-181 26 0 276-30 0 0-302 211-30 30 0 211 30 0 302z"/>
<glyph unicode="&#57545;" d="M233 352c0 2 0 4-1 6 0 2 0 5-1 7-1 1-1 3-2 5-1 2-2 4-3 6-1 2-3 3-4 5-1 2-3 3-5 5-1 2-3 3-5 5-2 1-4 2-6 4-2 1-4 3-6 4-2 1-5 3-7 4-2 1-5 2-7 3-3 1-5 3-8 4-3 1-6 2-8 3-3 1-6 2-9 3-3 1-6 1-9 2-3 1-6 2-9 3-3 0-6 1-9 2-4 1-7 1-10 2-3 1-6 1-10 2-3 0-6 1-9 1-3 1-7 1-10 2-3 0-6 1-10 1-3 0-6 1-9 1-3 1-7 1-10 1-3 1-6 1-9 1-3 0-6 0-9 1-3 0-6 0-9 0-3 0-6 1-9 1-2 0-5 0-8 0-3 0-5 0-8 0-2 0-5 0-7 0-2 0-5 0-7 0l0-309 15 0c0 0 0 0 0 0 0 0 0 0 0 0 1 0 1 0 1 0 0 0 0 0 0 0 1 0 1 0 1 0 0 0 0 0 0 0 1 0 1 0 1 0 0 0 0 0 0 0 0 0 1 0 1 0 0 0 0 0 0 0 0 0 1 0 1 0 0 0 0 0 0 0 0 0 0 0 1 0 0 0 0 0 0 0 0 0 0 0 1 0 0 0 0 0 0 0 0 0 0 0 0 0 1 0 1 0 1 0 0 0 0 0 0 0 0 0 1 0 1 0 0 0 0 0 0 0 0 0 0 0 1 0 0 0 0 0 0 0 0 0 0 0 1 0 0 0 0 0 0 0 0 0 0 0 0 0 1 0 1 0 1 0 0 0 0 0 0 0 0 0 1 0 1 0 0 0 0 0 0 0 0 0 1 0 1 0 0 0 0 0 0 0l0-28c2 0 4 0 6 0 2 0 4 0 6 0 2 0 4 0 6 0 2 0 4 0 6 0 3 0 5 1 7 1 2 0 5 0 7 0 2 0 5 0 7 0 2 0 5 1 7 1 2 0 5 0 7 0 3 0 5 0 7 0 3 0 5 1 8 1 2 0 5 0 7 0 2 0 5 0 7 0 3 0 5 0 7 0 3 0 5 0 7 0 3 0 5 0 7 0 2 0 5-1 7-1 2 0 4 0 6 0 3 0 5-1 7-1 2 0 4 0 6-1 2 0 4 0 6-1 1 0 3 0 5-1 2 0 3-1 5-1 2-1 3-1 5-2 1-1 2-1 4-2 1-1 2-1 4-2 1-1 2-2 3-3 1 0 2-1 3-2 0-1 1-2 2-3 0-1 1-2 1-4 1-1 1-2 1-3 1-2 1-3 1-4l58 0c0 0 0 1 0 2 0 0 0 1 0 2 0 0 0 1 1 2 0 0 0 1 0 1 0 1 0 2 1 2 0 1 0 1 0 2 1 0 1 1 1 1 1 1 1 1 1 2 1 0 1 1 1 1 1 0 1 1 2 1 0 1 0 1 1 1 0 1 1 1 1 1 1 1 2 1 3 2 1 1 2 1 4 2 1 1 3 1 4 2 1 0 2 1 3 1 0 0 2 0 3 0 1 1 3 1 5 1 2 1 3 1 5 1 1 1 3 1 3 1 1 0 2 0 2 0 1 0 2 1 2 1 1 0 2 0 2 0 1 0 1 1 1 1l1 7 1 7 3 13 3 14c0 0 0 1 0 3 1 2 1 4 1 4-12 2-26 0-38-2-11-3-19-6-19-6 0 68-1 112-2 144 0 32 0 52 3 70 3 21 49 35 93 43 45 8 88 11 88 11l0-73 0-73c0 0 5 4 10 6 5 2 13 1 13 1l1 35 0 31 0 50 0 50c-3 0-5 0-7 0-3 0-5 0-8 0-2 0-5 0-7 0-3 0-6 0-9 0-2 0-5-1-8-1-3 0-6 0-9 0-3 0-6-1-9-1-3 0-6 0-10-1-3 0-6 0-9-1-3 0-7 0-10-1-3 0-6-1-10-1-3-1-6-1-9-2-3 0-7-1-10-1-3-1-6-1-10-2-3-1-6-1-9-2-3-1-6-2-9-2-4-1-6-2-10-3-3-1-6-1-8-2-3-1-6-2-9-3-3-1-6-2-8-3-3-1-6-3-8-4-3-1-5-2-7-3-3-1-5-3-7-4-3-1-5-3-7-4-2-2-4-3-6-4-1-2-3-4-5-5-1-2-3-3-4-5-2-2-3-3-4-5-1-2-2-4-3-6-1-2-2-4-2-5-1-2-1-5-2-7 0-2 0-4 0-6z m-204 56c7 0 14 0 21 0 6-1 13-1 19-1 1-1 2-1 4-1 1 0 2 0 3 0 1 0 1 0 2 0 0 0 0 0 1 0 28-2 58-6 81-13 23-8 40-19 43-36 0-1 0-2 0-3 1 0 1-1 1-2l0-210c-22 12-52 19-84 22-32 4-65 5-91 5l0 239z m287-334l4 31 5 31 27-27 26-26-31-5z m149 114l-80-80-10 10 80 80-17 17-80-80-9 9 80 80-9 9-89-89 54-54 89 89z m38 19c5 4 5 12 0 17l-36 36c-2 3-17 1-17 0 0 0-1-1-1-1l0 0-17-17 53-54 17 17 0 1c0 0 1 0 1 1z"/>
<glyph unicode="&#57546;" d="M380 482l-33 0-14-8-215-188c-8-7-13-17-13-27 0-10 5-19 13-27l215-188c19-11 9-7 31-11l0 0c20 2 27 8 39 24l0 28-9 12-185 162 185 162 9 12 0 28-9 13z"/>
<glyph unicode="&#57547;" d="M30 383l0-33 8-14 188-215c7-8 17-12 27-12 10 0 19 4 27 12l188 215c11 19 7 9 11 31l0 0c-2 21-8 28-24 40l-28 0-12-10-162-185-162 185-12 10-28 0-13-10z"/>
<glyph unicode="&#57548;" d="M30 132l0 33 8 14 188 215c7 8 17 13 27 13 10 0 19-5 27-13l188-215c11-19 7-9 11-31l0 0c-2-20-8-27-24-39l-28 0-12 9-162 185-162-185-12-9-28 0-13 9z"/>
<glyph unicode="&#57549;" d="M458 86l-192 340-192-340z"/>
<glyph unicode="&#57550;" d="M437 448l-341-192 341-192z"/>
<glyph unicode="&#57551;" d="M74 426l192-340 192 340z"/>
<glyph unicode="&#57530;" d="M455 427c0-32-89-57-199-57-110 0-199 25-199 57 0 31 89 57 199 57 110 0 199-26 199-57m-199-86c-18 0-142 2-199 40l0-68c0-32 89-57 199-57 110 0 199 25 199 57l0 68c-57-38-181-40-199-40m0-113c-18 0-142 1-199 39l0-68c0-31 89-57 199-57 110 0 199 26 199 57l0 68c-57-38-181-39-199-39m0-114c-18 0-142 1-199 40l0-69c0-31 89-57 199-57 110 0 199 26 199 57l0 69c-57-39-181-40-199-40"/>
<glyph unicode="&#57552;" d="M57 503l169 0 92-106 0-132c20 38 93 43 121 13 10-10 22-30 24-43 2-26-7-70-36-82-15-6-30-9-46-11l-22 3-21-22 16-15-31-33-18 15-18-16 1-32c-37-14-36-5-60-34l0 0-50 14c18 66 18 64 69 109l-190 0z m348-253l-11-1c-4-2-6-4-8-8l0-10c2-4 5-6 9-8l10 1c4 1 6 4 8 8l0 10-4 5z m-196 207l-112 0 0-280 181 0 0 200-8 10-52 0 0 60z m-11-70l0-23-81 0 0 23z m60-70l0-23-141 0 0 23z m0-70l0-23-141 0 0 23z"/>
<glyph unicode="&#57553;" d="M227 451c22-1 41-9 57-25 8-8 14-17 18-27l27 9-27-58-59 27 27 10c-2 6-6 11-11 16-9 9-20 13-32 14-6 0-12-1-17-3-6-2-12-5-16-10-5-4-8-9-10-14-3-5-4-12-4-18-1-6 1-12 2-17 2-5 5-9 8-13 18 1 35-2 52-7 19-6 36-16 52-30 14-13 24-27 32-43 8-17 13-36 13-58 2-18-1-35-7-52-4-11-9-20-15-30l68 0 0 36 119-72-119-72 0 36-355 0 0 72 195 0c12 4 22 12 30 20 8 9 15 19 19 30 3 9 4 19 4 30 0 12-3 23-8 33-4 9-10 17-19 25-8 8-18 14-29 18-10 2-20 4-31 3-22-1-42-9-58-26-8-9-14-19-18-29l49-16-105-52-51 104 48-16c7 18 18 35 32 50 18 19 40 32 65 40-1 3-2 5-3 7-3 10-5 19-4 29-1 12 2 23 6 33 4 8 10 16 17 24 9 8 18 14 29 17 9 4 18 5 29 5z"/>
<glyph unicode="&#57554;" d="M105 312l143-143 143 143z"/>
<glyph unicode="&#57555;" d="M319 383l-142-142 142-143z"/>
<glyph unicode="&#57556;" d="M391 169l-143 143-143-143z"/>
<glyph unicode="&#57557;" d="M177 98l142 143-142 142z"/>
<glyph unicode="&#57558;" d="M61 122l0 243 33 0 0-108 131 0 0 108 33 0 0-243-33 0 0 111-131 0 0-111z m262 181l72 63 24 0 0-221 48 0 0-23-130 0 0 23 52 0 0 166c0 5 0 10 1 15l-44-37c-1-1-2-2-3-2-1-1-2-1-3-1-2 0-4 1-5 1-1 1-2 2-3 3z"/>
<glyph unicode="&#57559;" d="M61 122l0 243 33 0 0-108 131 0 0 108 33 0 0-243-33 0 0 111-131 0 0-111z m245 0l0 10c0 2 0 4 1 6 1 3 3 5 4 7l78 78c7 7 13 13 18 19 5 6 10 12 14 18 4 7 6 13 8 19 2 6 3 13 3 20 0 7-1 14-3 19-2 5-5 10-9 13-4 4-9 7-14 8-6 2-11 3-17 3-6 0-12-1-17-3-6-2-10-4-14-7-4-4-8-7-10-12-3-4-5-9-6-14-1-4-2-6-4-8-2-1-5-2-8-2 0 0-1 0-1 0-1 0-2 0-2 1l-16 2c1 11 4 21 9 30 4 8 10 15 17 21 7 6 15 11 24 14 9 2 19 4 29 4 11 0 20-2 29-5 9-3 17-7 23-13 7-6 12-13 16-21 4-9 6-18 6-29 0-9-2-17-4-25-3-8-7-15-11-22-5-7-11-14-17-21-6-7-12-13-19-20l-64-66c5 1 9 2 14 3 4 1 9 1 13 1l82 0c3 0 6-1 8-3 1-2 2-4 2-7l0-18-162 0z"/>
<glyph unicode="&#57560;" d="M61 122l0 243 33 0 0-108 131 0 0 108 33 0 0-243-33 0 0 111-131 0 0-111z m246 61l12 5c3 1 5 2 8 2 2 0 4-1 6-2 1-1 3-2 4-4 0-1 0-1 0-2 1 0 1-1 1-1 2-4 3-7 6-11 2-5 5-8 9-12 4-4 9-7 14-9 6-3 13-4 22-4 8 0 16 1 22 4 6 3 12 7 16 11 4 4 7 9 9 15 3 5 4 11 4 16 0 6-1 12-3 18-2 5-5 10-9 14-5 4-11 7-19 9-8 2-18 4-31 4l0 21c10 1 19 2 26 4 7 2 13 5 18 9 5 3 8 8 10 13 2 5 3 11 3 17 0 7-1 14-3 19-2 5-6 9-9 13-4 3-9 6-14 7-5 2-11 3-17 3-6 0-12-1-17-3-5-2-10-4-14-7-4-4-7-7-10-12-3-4-5-9-6-14-1-4-2-6-4-8-2-1-4-2-7-2-1 0-1 0-2 0-1 0-1 0-2 1l-16 2c2 11 5 21 9 30 5 8 10 15 17 21 7 6 15 11 24 14 9 2 19 4 30 4 10 0 19-1 28-4 9-3 16-8 23-13 6-6 11-12 15-20 3-7 5-16 5-25 0-8-1-15-3-21-2-6-5-11-8-16-4-5-8-9-14-12-5-3-11-5-17-7 16-5 28-12 35-21 8-10 12-23 12-37 0-12-2-22-6-31-5-9-10-16-18-23-7-6-16-11-25-14-10-3-21-5-32-5-13 0-24 2-33 5-9 3-17 7-23 13-7 6-12 13-16 20-4 8-8 17-10 26z"/>
<glyph unicode="&#57561;" d="M53 123l0 208 16 0c4 0 6-1 7-5l3-18c6 8 14 14 22 19 9 5 19 7 30 7 9 0 17-1 24-5 7-3 14-8 19-15 5-7 9-15 12-25 2-10 4-21 4-34 0-12-2-22-5-32-3-10-7-19-13-26-6-7-13-13-21-17-9-4-18-6-28-6-10 0-18 1-25 5-7 3-13 7-18 13l0-69z m27 90c5-6 10-11 16-14 6-3 13-4 20-4 15 0 26 5 34 16 8 10 12 25 12 44 0 10-1 19-3 26-2 7-5 13-8 18-3 5-7 8-12 10-5 2-11 4-17 4-9 0-17-2-24-7-6-4-12-9-18-17z m142-37l0 155 16 0c3 0 5 0 6-1 1-1 1-3 2-6l2-23c5 10 12 19 20 24 8 6 17 9 27 9 5 0 9 0 12-1 4-1 7-2 10-4l-4-20c0-2-2-4-5-4-1 0-3 1-6 2-3 1-7 2-13 2-9 0-17-3-23-9-7-5-12-14-17-24l0-100-27 0z m113 81c0 11 1 21 5 30 3 10 8 18 14 25 6 7 14 12 23 16 9 4 19 6 31 6 9 0 17-2 25-5 8-3 15-7 21-13 5-6 10-13 13-22 3-9 5-19 5-30 0-4-1-7-1-8-1-2-3-2-6-2l-103 0c0-10 2-19 4-26 3-7 6-13 10-18 4-5 10-8 16-11 5-2 12-3 20-3 6 0 12 0 17 2 5 2 9 3 13 5 4 2 6 4 9 5 2 2 4 2 6 2 2 0 4 0 5-2l8-10c-3-4-7-8-12-11-5-3-10-5-15-7-6-2-11-4-17-5-6-1-11-1-17-1-11 0-21 2-30 5-9 4-17 9-23 16-7 7-12 16-16 26-3 11-5 23-5 36z m28 14l84 0c0 6 0 12-2 17-2 6-4 10-8 14-3 4-7 7-12 9-5 2-10 3-17 3-13 0-23-4-31-11-7-8-12-19-14-32z"/>
<glyph unicode="&#57562;" d="M218 34l-153 0 0 444 153 0z m-136 17l119 0 0 410-119 0z m358-17l-153 0 0 444 153 0z m-136 17l119 0 0 410-119 0z"/>
<glyph unicode="&#57563;" d="M406 34l-153 0 0 444 153 0z m-136 17l119 0 0 410-119 0z m-86 137l-114 68 114 68z"/>
<glyph unicode="&#57564;" d="M236 34l-154 0 0 444 154 0z m-137 17l119 0 0 410-119 0z m210 273l114-68-114-68z"/>
<glyph unicode="&#57565;" d="M188 345l68 112 68-112z m59 51l18 0 0-329-18 0z"/>
<glyph unicode="&#57566;" d="M324 183l-68-115-68 115z m-77 278l18 0 0-330-18 0z"/>
<glyph unicode="&#57567;" d="M102 442l145-242 146 242z m-25 15l170-285 171 285z m170-228l-119 199 239 0z m-34 42l69 0 0-210-69 0z"/>
<glyph unicode="&#57567;" d="M102 442l145-242 146 242z m-25 15l170-285 171 285z m170-228l-119 199 239 0z m-25 24l51 0 0-174-51 0z m60-181l-69 0 0 189 69 0z m-52 17l35 0 0 157-35 0z"/>
<glyph unicode="&#57567;" d="M212 261l54 0 0-184-54 0z m198 132l-171-183-171 183z"/>
<glyph unicode="&#57568;" d="M0 433l128 0 0-51-128 0z m0-102l128 0 0-51-128 0z m0-102l128 0 0-52-128 0z m0-103l128 0 0-51-128 0z m189 307l128 0 0-51-128 0z m0-102l128 0 0-51-128 0z m0-102l128 0 0-52-128 0z m0-103l128 0 0-51-128 0z m195 307l128 0 0-51-128 0z m0-102l128 0 0-51-128 0z m0-102l128 0 0-52-128 0z m0-103l128 0 0-51-128 0z m-234 307l17 0 0-358-17 0z m193 0l17 0 0-358-17 0z"/>
<glyph unicode="&#57569;" d="M0 433l94 0 0-51-94 0z m0-102l94 0 0-51-94 0z m0-102l94 0 0-52-94 0z m0-103l94 0 0-51-94 0z m282 307l230 0 0-358-230 0z m-123 0l94 0 0-51-94 0z m0-102l94 0 0-51-94 0z m0-102l94 0 0-52-94 0z m0-103l94 0 0-51-94 0z m-41 307l17 0 0-358-17 0z"/>
<glyph unicode="&#57570;" d="M44 433l128 0 0-51-128 0z m58-102l366 0 0-51-366 0z m169-102l99 0 0-52-99 0z m-218-103l365 0 0-51-365 0z m-44 307l17 0 0-358-17 0z m479 0l17 0 0-358-17 0z"/>
<glyph unicode="&#57571;" d="M174 387l51 0 0-51-51 0z m0-114l51 0 0-51-51 0z m0-116l51 0 0-51-51 0z m85 176l52 0 0-51-52 0z m0-118l52 0 0-51-52 0z"/>
<glyph unicode="&#57567;" d="M212 261l54 0 0-184-54 0z m198 132l-171-183-171 183z"/>
<glyph unicode="&#57572;" d="M171 131l-69-114-68 114z m-77 122l17 0 0-137-17 0z m254 126l68 113 69-113z m60 51l17 0 0-177-17 0z m-213-70l128 0 0-41-128 0z m0-89l128 0 0-37-128 0z m0-85l128 0 0-38-128 0z"/>
<glyph unicode="&#57573;" d="M174 435l171 0 0-56-171 0z m0-150l171 0 0-51-171 0z m0-114l171 0 0-52-171 0z m290-104l-8 0 0 17 17 0 0-9c0-3-4-8-9-8z m-25 0l-17 0 0 17 17 0z m-35 0l-17 0 0 17 17 0z m-34 0l-17 0 0 17 17 0z m-34 0l-17 0 0 17 17 0z m-34 0l-17 0 0 17 17 0z m-34 0l-17 0 0 17 17 0z m-34 0l-17 0 0 17 17 0z m-34 0l-17 0 0 17 17 0z m-34 0l-18 0 0 17 18 0z m-35 0l-17 0 0 17 17 0z m-34 0l-17 0 0 17 17 0z m-34 0l-8 0c-6 0-9 3-9 8l0 9 17 0z m0 35l-17 0 0 19 17 0z m0 36l-17 0 0 19 17 0z m0 38l-17 0 0 19 17 0z m0 36l-17 0 0 18 17 0z m0 35l-17 0 0 19 17 0z m0 38l-17 0 0 19 17 0z m0 36l-17 0 0 8c0 6 3 9 9 9l8 0z m376 0l-17 0 0 17 17 0z m-35 0l-17 0 0 17 17 0z m-34 0l-17 0 0 17 17 0z m-34 0l-17 0 0 17 17 0z m-34 0l-17 0 0 17 17 0z m-34 0l-17 0 0 17 17 0z m-34 0l-17 0 0 17 17 0z m-34 0l-17 0 0 17 17 0z m-34 0l-18 0 0 17 18 0z m-35 0l-17 0 0 17 17 0z m-34 0l-17 0 0 17 17 0z m376 0l-17 0 0 17 8 0c5 0 9-3 9-9z m0-219l-17 0 0 19 17 0z m0 36l-17 0 0 19 17 0z m0 38l-17 0 0 19 17 0z m0 36l-17 0 0 18 17 0z m0 35l-17 0 0 19 17 0z m0 38l-17 0 0 19 17 0z"/>
<glyph unicode="&#57575;" d="M63 381l384 0 0-35-384 0z m0-60l384 0 0-34-384 0z m97 184l0-95-97 0z m-97-387l384 0 0-34-384 0z m0-60l384 0 0-34-384 0z m97 184l0-95-97 0z"/>
<glyph unicode="&#57576;" d="M227 174l-68-114-69 114z m-77 278l17 0 0-329-17 0z m111-114l68 114 69-114z m60 51l17 0 0-329-17 0z"/>
<glyph unicode="&#57574;" d="M210 328l84 0 0-279-84 0z m256 128l-213-277-215 277z"/>
<glyph unicode="&#57577;" d="M317 512l-269 0 0-512 416 0 0 365z m83-448l-288 0 0 384 179 0 13-13 0-83 83 0 13-13z m-259 26l0 92 29 0c6 0 12 0 16-3 3-3 9-3 12-6 4-3 7-7 7-10 0-3 3-6 3-13 0-3 0-9-3-12 0-4-3-7-7-10-3-3-6-3-12-6-7-4-10-4-16-4l-13 0 0-32-16 0z m16 44l13 0c3 0 6 0 9 0 3 0 3 4 7 4 3 0 3 3 3 6 0 3 0 3 0 6 0 4 0 4 0 7 0 3-3 3-3 6 0 3-4 3-7 3-3 0-6 0-9 0l-13 0z m61-44l0 92 35 0c6 0 13 0 19-3 6-3 10-6 16-9 6-4 6-10 10-16 3-7 3-13 3-20 0-6 0-12-3-19-4-6-7-9-10-16-3-6-10-3-16-6-6-3-13-3-19-3z m19 12l19 0c3 0 10 0 13 4 3 0 6 3 9 6 4 3 4 6 7 10 3 3 3 9 3 12 0 4 0 10-3 13-3 3-7 10-10 13-3 3-6 6-9 6-4 0-7 4-13 4l-16 0z m77-12l0 92 57 0 0-12-41 0 0-29 35 0 0-13-35 0 0-38z"/>
<glyph unicode="&#57579;" d="M317 512l-269 0 0-512 416 0 0 365z m83-448l-288 0 0 384 179 0 13-13 0-83 83 0 13-13z m-259 26l0 92 29 0c6 0 12 0 16-3 3-3 9-3 12-6 4-3 7-7 7-10 0-3 3-6 3-13 0-3 0-9-3-12 0-4-3-7-7-10-3-3-6-3-12-6-7-4-10-4-16-4l-13 0 0-32-16 0z m16 44l13 0c3 0 6 0 9 0 3 0 3 4 7 4 3 0 3 3 3 6 0 3 0 3 0 6 0 4 0 4 0 7 0 3-3 3-3 6 0 3-4 3-7 3-3 0-6 0-9 0l-13 0z m61-44l0 92 35 0c6 0 13 0 19-3 6-3 10-6 16-9 6-4 6-10 10-16 3-7 3-13 3-20 0-6 0-12-3-19-4-6-7-9-10-16-3-6-10-3-16-6-6-3-13-3-19-3z m19 12l19 0c3 0 10 0 13 4 3 0 6 3 9 6 4 3 4 6 7 10 3 3 3 9 3 12 0 4 0 10-3 13-3 3-7 10-10 13-3 3-6 6-9 6-4 0-7 4-13 4l-16 0z m77-12l0 92 57 0 0-12-41 0 0-29 35 0 0-13-35 0 0-38z m-176 166l233 0 0-16-233 0z m0 54l233 0 0-16-233 0z m3 58l118 0 0-16-118 0z"/>
<glyph unicode="&#57509;" d="M150 89c0-33-27-61-61-61-33 0-61 28-61 61 0 34 28 61 61 61 34 0 61-27 61-61m177-57l-80 0c-1 57-24 111-64 151-40 41-94 63-151 64l0 80c162-2 293-133 295-295m157 0l-81 0c-2 204-167 369-370 372l0 80c247-3 448-204 451-452"/>
<glyph unicode="&#57580;" d="M317 512l-269 0 0-512 416 0 0 365z m83-448l-288 0 0 384 179 0 13-13 0-83 83 0 13-13z m-189 54c0-16-13-28-29-28-16 0-28 12-28 28 0 16 12 29 28 29 16 0 29-13 29-29z m77-25l-35 0c0 25-10 51-29 70-19 19-42 29-70 29l0 35c73 0 134-61 134-134z m74 0l-36 0c0 93-76 169-169 169l0 36c112 0 201-93 205-205z"/>
<glyph unicode="&#57581;" d="M317 512l-269 0 0-512 416 0 0 365z m83-448l-288 0 0 384 179 0 13-13 0-83 83 0 13-13z m-266 70c0 7 0 13 4 20 3 6 6 9 9 16 3 3 10 6 16 9 7 3 13 3 19 3 7 0 13 0 20-3 6-3 9-6 12-9l-6-7c0 0 0 0-3 0 0 0-3 0-3 0 0 0-4 0-4 3 0 4-6 0-9 0-3 0-7 0-10 0-3 0-9 0-13-3-3-3-3 0-6-3-3-3-3-6-6-10 0-3-4-9-4-12 0-7 0-10 4-13 0-3 3-7 6-10 3-3 6-6 10-6 3 0 6-3 9-3 3 0 3 0 7 0 3 0 3 0 6 0 3 0 3 0 3 3 0 3 3 3 3 3 0 0 4 0 4 0l6-6c-3-4-10-10-13-10-6-3-13-3-19-3-6 0-13 0-19 3-7 3-7 0-13 6-6 7-6 10-10 16 0 4 0 10 0 16z m84-35l6 10c0 0 0 0 3 0 0 0 0 0 3 0 0 0 4 0 4 0 0 0 3-3 3-3 3 0 3-4 6-4 3 0 7 0 10 0 6 0 9 0 13 4 3 3 3 6 3 9 0 3 0 3-3 7 0 0-4 3-7 3-3 3-6 3-9 3-4 0-7 0-7 3-3 0-6 3-6 3-3 0-7 4-7 4 0 0-6 6-6 9 0 3-3 7-3 10 0 3 0 6 3 9 3 4 3 7 6 10 4 3 7 3 10 6 3 0 10 4 13 4 6 0 9 0 16-4 3-3 9-3 13-6l-4-10c0 0 0-3-3-3-3 0 0 0-3 0 0 0-3 0-3 0 0 0-3 0-3 3 0 0-4 0-7 4-3 0-3 0-6 0-3 0-3 0-7 0-3 0-3 0-3-4 0 0-3-3-3-3 0 0 0-3 0-3 0-3 0-3 3-6 3-4 3-4 3-4 4 0 4-3 7-3 3 0 6-3 6-3 3 0 7-3 7-3 3 0 6-3 6-3 0 0 3-4 6-7 4-3 4-6 4-9 0-4 0-10-4-13 0-3-3-7-6-10-3-3-6-6-10-6-3 0-9-3-12-3-4 0-7 0-10 0-3 0-6 0-10 3-3 0-6 3-6 3 0 0-3 3-6 3z m67 83l13 0c0 0 3 0 3 0 0 0 3-3 3-3l22-57c0-4 0-4 4-7 3-3 0-3 3-6 0 6 3 9 3 13l22 57c0 0 0 3 4 3 3 0 3 0 3 0l13 0-39-92-16 0z"/>
<glyph unicode="&#57582;" d="M317 512l-269 0 0-512 416 0 0 365z m83-448l-288 0 0 384 179 0 13-13 0-83 83 0 13-13z m-253 26l32 48-29 44 16 0c0 0 4 0 4 0l22-35c0 0 0 0 0 3 0 4 0 0 0 4l19 32c0 0 3 3 3 3l16 0-28-45 32-48-20 0c0 0-3 0-3 0 0 0 0 0-3 3l-19 29-19-32c0 0 0 0-4-3-3-3 0 0-3 0l-16 0z m96 0l0 92 16 0 0-80 39 0 0-12z m58 9l6 10c0 0 0 0 3 0 0 0 0 0 4 0 0 0 3 0 3 0 0 0 3-3 3-3 3 0 3-4 6-4 4 0 7 0 10 0 6 0 10 0 13 4 3 3 3 6 3 9 0 3 0 3-3 7 0 0-3 3-7 3-3 0-3 3-6 3-3 0-6 0-6 3-4 0-7 3-7 3-3 0-6 4-6 4 0 0-3 3-7 6 0 3-3 6-3 10 0 3 0 6 3 9 0 3 4 7 7 10 3 3 6 3 9 6 4 3 10 3 13 3 7 0 10 0 16-3 3-3 10-3 13-6l-3-10c0 0 0-3-3-3-4 0 0 0-4 0 0 0-3 0-3 0 0 0-3 0-3 3 0 3-3 0-6 3-4 0-4 0-7 0-3 0-3 0-6 0-3 0-3 0-3-3 0 0-4-3-4-3 0 0 0-3 0-3 0-3 0-3 4-7 0 0 3-3 3-3 3 0 3-3 6-3 3 0 7-3 7-3 3 0 6-3 6-3 3 0 6-4 6-4 4-3 4-3 7-6 0-3 3-6 3-10 0-3 0-9-3-12 0-4-3-7-7-10-3-3-6-6-9-6-3 0-10-4-13-4-3 0-6 0-10 0-3 0-6 0-9 4-3 0-7 3-7 3-6 3-6 6-9 6z"/>
<glyph unicode="&#57583;" d="M317 512l-269 0 0-512 416 0 0 365z m83-448l-288 0 0 384 179 0 13-13 0-83 83 0 13-13z m-253 26l32 48-29 44 16 0c0 0 4 0 4 0l22-35c0 0 0 0 0 3 0 4 0 0 0 4l19 32c0 0 3 3 3 3l16 0-28-45 32-48-20 0c0 0-3 0-3 0 0 0 0 0-3 3l-19 29-19-32c0 0 0 0-4-3-3-3 0 0-3 0l-16 0z m96 0l0 92 16 0 0-80 39 0 0-12z m58 9l6 10c0 0 0 0 3 0 0 0 0 0 4 0 0 0 3 0 3 0 0 0 3-3 3-3 3 0 3-4 6-4 4 0 7 0 10 0 6 0 10 0 13 4 3 3 3 6 3 9 0 3 0 3-3 7 0 0-3 3-7 3-3 0-3 3-6 3-3 0-6 0-6 3-4 0-7 3-7 3-3 0-6 4-6 4 0 0-3 3-7 6 0 3-3 6-3 10 0 3 0 6 3 9 0 3 4 7 7 10 3 3 6 3 9 6 4 3 10 3 13 3 7 0 10 0 16-3 3-3 10-3 13-6l-3-10c0 0 0-3-3-3-4 0 0 0-4 0 0 0-3 0-3 0 0 0-3 0-3 3 0 3-3 0-6 3-4 0-4 0-7 0-3 0-3 0-6 0-3 0-3 0-3-3 0 0-4-3-4-3 0 0 0-3 0-3 0-3 0-3 4-7 0 0 3-3 3-3 3 0 3-3 6-3 3 0 7-3 7-3 3 0 6-3 6-3 3 0 6-4 6-4 4-3 4-3 7-6 0-3 3-6 3-10 0-3 0-9-3-12 0-4-3-7-7-10-3-3-6-6-9-6-3 0-10-4-13-4-3 0-6 0-10 0-3 0-6 0-9 4-3 0-7 3-7 3-6 3-6 6-9 6z m-160 157l233 0 0-16-233 0z m0 54l233 0 0-16-233 0z m0 58l118 0 0-16-118 0z"/>
<glyph unicode="&#57369;" d="M29 86l0 336 89 0 0-35-44 0 0-269 44 0 0-35-89 0z m109 87c0 9 3 16 6 22 3 7 13 7 19 7 10 0 16-4 23-7 6-3 6-16 6-22 0-10-3-16-6-23-4-6-13-6-20-6-6 0-16 3-19 6-3 4-9 13-9 23z m89 0c0 9 3 16 7 22 3 7 12 7 19 7 9 0 16-4 22-7 7-3 7-13 7-19 0-10-4-16-7-22-3-7-13-7-19-7-6 0-16 3-19 7-3 3-10 9-10 19z m90 0c0 9 3 16 6 22 3 7 13 7 19 7 10 0 16-4 23-7 6-3 6-13 6-19 0-10-3-16-6-22-3-7-13-7-19-7-7 0-16 3-20 7-3 3-9 9-9 19z m73-51l45 0 0 265-45 0 0 35 90 0 0-336-86 0 0 36z"/>
<glyph unicode="&#57578;" d="M432 32l-352 0c-26 0-48 22-48 48l0 352c0 26 22 48 48 48l352 0c26 0 48-22 48-48l0-352c0-26-22-48-48-48z m-352 416c-10 0-16-6-16-16l0-352c0-10 6-16 16-16l352 0c10 0 16 6 16 16l0 352c0 10-6 16-16 16z m64-330c-3 0-10-3-19-3-19 0-32 13-32 32 0 19 13 32 32 32 6 0 13-3 16-3l-3-10c-4 0-7 4-13 4-13 0-23-10-23-23 0-13 10-22 23-22 6 0 9 3 13 3z m29 77l0-19 16 0 0-10-16 0 0-32c0-6 3-12 9-12 4 0 7 0 7 0l0-10c-3 0-7 0-10 0-6 0-9 3-13 3-3 7-6 13-6 19l0 36-10 0 0 9 10 0 0 13z m29-38c0 6 0 13 0 19l9 0 0-13c3 10 10 13 16 13 0 0 3 0 3 0l0-10c0 0-3 0-3 0-6 0-13-6-16-16 0 0 0-3 0-6l0-32-9 0z m41 48l13 0 0-90-13 0z m64-23l0-28 29 0 0-7-29 0 0-29-9 0 0 29-29 0 0 7 29 0 0 28z"/>
<glyph unicode="&#57584;" d="M160 195l0 74c-61 9-106 51-106 105 0 58 58 106 128 106l87 0c70 0 128-48 128-106 0-57-55-102-122-105z m22 250c-48 0-86-32-86-71 0-38 38-70 86-70l23 0 0-35 57 35 7 0c48 0 86 32 86 70 0 39-41 71-89 71z m138-359c-48 4-86 36-86 77 0 42 41 77 92 77l61 0c51 0 93-35 93-77 0-38-32-70-77-77l0-51z m6 128c-35 0-60-22-60-51 0-29 28-51 60-51l7 0 41-26 0 26 16 0c36 0 61 22 61 51 0 29-29 51-61 51z m-131 208c10 7 23 10 35 10 10 0 20-3 26-6 6-7 10-13 10-20 0-3 0-6-4-9-3-3-3-10-6-13-3-3-6-6-13-10-3-3-6-6-9-9 0-3-4-7-4-10l0-3-12 0 0 3c0 7 0 10 3 13 3 3 3 10 9 13 7 6 10 9 13 13 3 3 3 6 3 9 0 3 0 7-3 10-3 3-9 3-16 3-3 0-9 0-13 0-3 0-9-3-12-6z m19-96c0 7 4 13 13 13 3 0 7 0 10-3 3-3 3-6 3-10 0-3 0-6-3-9-7-3-10-3-13-3-3 0-6 0-10 3 0 3 0 6 0 9z m132-188c0 3 0 3 3 6 3 3 3 3 6 3 3 0 3 0 7-3 0 0 3-3 3-6 0-4 0-4-3-7 0 0-4-3-7-3-3 0-3 0-6 3 0 0-3 3-3 7z m0 60l16 0-4-44-12 0z"/>
<glyph unicode="&#57585;" d="M448 320l64 64-64 64-160 0 0 64-64 0 0-64-128 0 0-128 128 0 0-32-160 0-64-64 64-64 160 0 0-160 64 0 0 160 128 0 0 128-128 0 0 32z m-323 29l25 67 10 0 29-67-13 0-6 22-29 0-7-22z m19 29l22 0-6 19c-3 6-3 9-6 13 0-4-4-10-4-13z m83-29l0 6c-3-6-9-6-16-6-3 0-6 0-9 3-4 0-7 3-7 10-3 3-3 6-3 12 0 4 0 10 0 13 3 3 3 7 6 10 4 3 7 3 10 3 3 0 6 0 10-3 6 0 6-3 9-3l0 25 10 0 0-67-10 0z m-29 25c0-6 0-9 4-12 3-4 6-4 9-4 3 0 7 0 10 4 3 0 6 6 6 12 0 7-3 10-3 13 0 3-6 7-10 7-3 0-6 0-9-4-3-3-7-9-7-16z m48-25l0 51 10 0 0-6c0 3 3 3 6 6 4 0 7 3 10 3 3 0 6 0 10-3 3 0 3-3 6-6 0 3 6 6 13 6 6 0 9 0 13-3 0-3 0-7 0-13l0-35-7 0 0 32c0 3 0 6 0 6 0 0 0 3-3 3-3 0-3 0-6 0-4 0-7 0-10-3-3-3-3-3-3-9l0-29-7 0 0 32c0 3 0 6-3 9-3 4-3 4-6 4-3 0-3 0-7-4-3 0-3-3-6-6-3-3 0-6 0-10l0-25z m80 61l0 9 10 0 0-9z m0-61l0 51 10 0 0-51z m23 0l0 51 6 0 0-6c3 6 10 9 16 9 3 0 7 0 10-3 3 0 3-3 6-3 3 0 3-3 3-7 0 0 0-3 0-9l0-32-9 0 0 32c0 3 0 6 0 6 0 3-3 3-3 3-4 0-4 0-7 0-3 0-6 0-9-3-4-3-4-6-4-13l0-25z"/>
<glyph unicode="&#57586;" d="M448 320l64 64-64 64-160 0 0 64-64 0 0-64-128 0 0-128 128 0 0-32-160 0-64-64 64-64 160 0 0-160 64 0 0 160 128 0 0 128-128 0 0 32z m-288-61l10 0 0-38c0-7 0-13-4-16-3-3-3-10-9-13-3-3-10-3-16-3-7 0-13 0-16 3-3 3-7 3-7 10 0 6-3 9-3 16l0 41 10 0 0-38c0-7 0-10 3-13 0-3 3-6 6-6 4 0 7-4 10-4 6 0 13 0 13 4 0 3 3 6 3 16z m19-54l10 0c0-3 3-7 3-7 0-3 3-3 10-3 3 0 6 0 9 3 3 0 3 4 3 7 0 3 0 3-3 3 0 0-3 3-9 3-7 0-10 3-13 3-3 0-3 4-7 4 0 3-3 6-3 6 0 3 0 3 0 6 0 4 3 4 3 4 0 0 4 3 7 3 3 0 3 0 6 0 3 0 7 0 10-3 3 0 6-4 6-4 0-3 3-3 3-6l-3 0c0 3 0 3-3 6-3 4-6 4-10 4-3 0-6 0-6-4 0-3-3-3-3-3 0 0 0-3 0-3 0 0 3-3 3-3 0 0 3 0 6-3 7 0 10-4 13-4 3 0 3-3 7-3 3 0 3-3 3-6 0-3 0-7-3-7 0-6-4-6-7-9-3 0-6-3-9-3-7 0-13 0-16 3-4 3-7 9-7 16z m87 0l9 0c0-7-3-10-6-13-3-3-10-3-13-3-6 0-13 3-16 6-10 3-13 10-13 19 0 10 3 16 7 20 3 3 9 6 16 6 6 0 12-3 16-6 3-4 6-10 6-20 0 0 0 0 0-3l-35 0c0-6 3-9 3-13 3-3 6-3 10-3 3 0 6 0 6 3 0 4 6 4 10 7z m-29 13l29 0c0 3 0 6-4 9-3 3-6 7-12 7-4 0-7 0-10-4 0-3-3-6-3-12z m48-29l0 51 6 0 0-6c3 3 3 6 7 6 3 0 3 3 6 3 3 0 6 0 10-3l-7-10c-3 0-3 4-6 4-3 0-3 0-7-4 0 0-3-3-3-3 0-3 0-6 0-9l0-26-6 0z"/>
<glyph unicode="&#57587;" d="M326 499l-140 0c-26 0-42-16-42-32l0-419c0-19 19-35 42-35l144 0c22 0 41 16 41 35l0 419c-3 16-19 32-45 32z m-28-35l70-96 74 96z m0-144l70-96 74 96z m0-147l70-96 74 96z m-228 291l74-96 70 96z m0-144l74-96 70 96z m0-147l74-96 70 96z m250 227c0-35-29-64-64-64-35 0-64 29-64 64 0 35 29 64 64 64 35 0 64-29 64-64z m0-144c0-35-29-64-64-64-35 0-64 29-64 64 0 35 29 64 64 64 35 0 64-29 64-64z m0-147c0-36-29-64-64-64-35 0-64 28-64 64 0 35 29 64 64 64 35 0 64-29 64-64z"/>
<glyph unicode="&#57589;" d="M256 384c0 80-179 96-256 96l0-352 16 0c6 0 10 0 16 0l0-32c64 0 192 19 192-32l64 0c0 51 128 32 192 32l0 32c6 0 10 0 16 0l16 0 0 352c-77 0-256-16-256-96z m-224 64c16 0 29 0 45-3 3 0 6 0 6 0 0 0 3 0 3 0 64-3 132-19 138-55 0-3 0-3 0-6l0-237c-48 29-134 29-192 29z m448-272c-58 0-144-3-192-29l0 237c0 22 35 64 192 64z m-384 90l-16-48-19 0 51 153 26 0 54-153-22 0-20 48z m51 16l-16 44c-3 10-3 20-6 29-3-9-7-19-10-29l-16-44z m179-52l87 125-80 0 0 16 105 0 0-13-86-121 86 0 0-16-112 0z"/>
<glyph unicode="&#57588;" d="M400 496l-51 0c-45 0-80-35-80-80l0-128-87 0c-3 0-6 0-6 0-3 0-10 0-13 0l-48 0c-45 0-83-35-83-80l0-102c0-45 35-80 80-80l51 0c45 0 80 35 80 80l0 102c0 10-3 19-3 26l29 0 0-93c0-16 13-26 25-26 16 0 26 13 26 26l0 96 16 0c3 0 6 0 10 0l51 0c45 0 80 35 80 80l0 99c3 45-32 80-77 80z m-211-390c0-13-13-26-26-26l-48 0c-16 0-25 13-25 26l0 102c0 16 12 26 25 26l51 0c16 0 26-13 26-26l0-102z m237 208c0-16-13-26-26-26l-51 0c-3 0-3 0-7 0 0 0 0 0 4 0l-4 0c-12 3-19 13-19 26l0 102c0 13 13 26 26 26l51 0c13 0 26-13 26-26z"/>
<glyph unicode="&#57590;" d="M392 437l45-45-317-317-45 45z m-272 0l317-317-45-45-317 317z"/>
<glyph unicode="&#57593;" d="M134 330l119 105c0 0 0 0-3 0l-234 0z m132 86c0 3 0 3 0 6l-84-73 84-74c0 3 3 7 3 7l0 134z m-266 6c0 0 0-3 0-6l0-134c0-4 0-4 0-7l83 71z m170-83l-36-32-35 32-83-70 234 0z m96-320l-116 131c-12 13-9 32 7 45 13 10 35 7 48-6l57-67 176 214c13 13 32 16 48 6 16-9 20-28 7-44z"/>
<glyph unicode="&#57594;" d="M477 419l-458 0 0-272 144 0 0 29-115 0 0 211 19 0 189-176 189 179 19 0 0-211-29 0 0-29 61 0 0 269z m-221-169l-147 137 291 0z m141-23c-10 7-23 3-29-3l-102-118-36 35c-6 6-19 9-28 3-10-6-10-16-4-22l68-71 134 154c6 6 3 16-3 22z"/>
<glyph unicode="&#57591;" d="M512 188c0-29-10-53-30-73-20-20-44-30-72-30l-291 0c-32 0-61 12-84 35-23 24-35 52-35 85 0 23 6 45 19 64 13 20 29 34 50 44-1 5-1 9-1 11 0 38 14 70 40 97 27 26 59 40 97 40 28 0 53-8 76-24 23-15 40-36 50-61 13 11 27 17 44 17 19 0 35-7 49-20 13-14 20-30 20-49 0-13-4-25-11-37 23-5 42-17 57-35 15-19 22-40 22-64z"/>
<glyph unicode="&#57592;" d="M0 384l32 0 0-384-32 0z m128 0l32 0 0-384-32 0z m-96-352l96 0 0-32-96 0z m0 64l96 0 0-32-96 0z m0 64l96 0 0-32-96 0z m0 64l96 0 0-32-96 0z m0 64l96 0 0-32-96 0z m0 96l96 0 0-64-96 0z m32 0l32 0 0-384-32 0z m128-32l32 0 0-352-32 0z m32-320l96 0 0-32-96 0z m0 64l96 0 0-32-96 0z m0 64l96 0 0-32-96 0z m0 64l96 0 0-32-96 0z m0 64l96 0 0-32-96 0z m0 64l96 0 0-32-96 0z m64 0l32 0 0-352-32 0z m64 96l32 0 0-448-32 0z m128 0l32 0 0-448-32 0z m-96-416l96 0 0-32-96 0z m0 64l96 0 0-32-96 0z m0 64l96 0 0-32-96 0z m0 64l96 0 0-32-96 0z m0 64l96 0 0-32-96 0z m0 160l96 0 0-64-96 0z m32-64l32 0 0-384-32 0z m-32-32l96 0 0-32-96 0z"/>
<glyph unicode="&#57595;" d="M452 390c7-39 2-76-14-110-16-34-42-54-77-60-22-4-44-4-66-1 0 0-61-99-61-99 0 0-36-6-36-6 0 0-53-85-53-85-5-10-12-15-23-17 0 0-39-7-39-7-4-1-8-1-12 2-3 3-5 7-6 11 0 0-8 51-8 51-3 10-1 19 6 28 0 0 132 198 132 198-8 17-14 37-19 61-6 37 3 68 27 96 24 28 56 45 95 52 36 7 69-1 100-23 30-22 48-53 54-91m-64-39c10 15 14 32 11 50-3 18-12 32-27 42-14 11-30 15-47 12-17-4-30-13-41-28-2-4-4-8-6-12-1-4-1-7 0-10 1-3 2-6 2-8 1-3 3-5 7-9 4-3 7-6 9-8 3-1 6-4 11-8 6-4 10-6 12-8 2-2 6-5 11-9 6-4 10-7 12-8 3-1 6-3 10-6 4-3 7-4 10-4 2 0 5 0 8 0 4 1 7 2 10 5 2 2 5 5 8 9"/>
<glyph unicode="&#57457;" d="M379 480c15-6 31-11 45-18 27-15 47-51 53-80 3-15 0-31 0-47-12-32-26-71-63-85-21-7-44-9-66-14l-33 7-34-34 24-24-50-50-26 25-28-25 0-50c-82-29-55-6-94-50l0 0-75 25c52 157 6 56 208 258-2 11-8 22-7 33 3 41 15 90 55 111 14 7 30 12 44 18z m-14-81c-8-8-8-22 0-31 9-8 23-8 31 0 9 9 9 23 0 31-8 9-22 9-31 0z"/>
<glyph unicode="&#57596;" d="M32 448l448 0 0-352-448 0z"/>
<glyph unicode="&#57597;" d="M32 448l192 0 0-64-192 0z m0-96l192 0 0-64-192 0z m0-96l192 0 0-64-192 0z m0-96l192 0 0-64-192 0z m224 288l224 0 0-352-224 0z"/>
<glyph unicode="&#57598;" d="M32 448l448 0 0-64-448 0z m0-96l448 0 0-64-448 0z m0-96l448 0 0-64-448 0z m0-96l448 0 0-64-448 0z"/>
<glyph unicode="&#57599;" d="M294 480c-99 0-182-70-204-163l-80 0 108-173 112 173-73 0c19 57 73 99 137 99 80 0 144-64 144-144 0-80-64-144-144-144-28 0-57 10-80 26l-35-55c32-22 74-35 115-35 116 0 208 93 208 208 0 115-92 208-208 208z m4-230c-10 0-16 9-16 16l0 64c0 9 6 16 16 16 9 0 16-7 16-16l0-64c0-7-10-16-16-16z m80-64c-4 0-7 0-10 3l-80 64c-10 6-10 16-3 22 3 10 13 10 22 3l80-64c7-6 10-16 3-22-6-3-9-6-12-6z"/>
<glyph unicode="&#57600;" d="M416 480l0 32-32 0 0-32-64 0 0 32-32 0 0-32-64 0 0 32-32 0 0-32-64 0 0 32-32 0 0-32-96 0 0-480 512 0 0 480z m32-416l-384 0 0 352 32 0 0-32 32 0 0 32 64 0 0-32 32 0 0 32 64 0 0-32 32 0 0 32 64 0 0-32 32 0 0 32 32 0z m-205 42l0 27c-19 1-38 6-48 12l8 34c12-7 29-13 48-13 16 0 28 7 28 18 0 11-10 18-31 25-31 11-52 25-52 53 0 25 18 45 49 51l0 28 28 0 0-26c19-1 32-5 42-9l-8-33c-8 3-21 10-42 10-19 0-25-8-25-16 0-10 10-16 35-25 34-12 48-28 48-54 0-25-18-47-51-53l0-29z"/>
<glyph unicode="&#57601;" d="M200 452l312 0 0-47-312 0z m0-191l312 0 0-46-312 0z m0-178l312 0 0-47-312 0z m-150-83l-47 52c-5 6-4 14 2 18 6 4 15 3 20-2l24-27 71 87c4 5 13 7 19 3 6-4 8-12 3-18z m0 171l-47 53c-5 5-4 13 2 17 6 5 15 4 20-2l24-26 71 86c4 6 13 7 19 3 6-4 8-12 3-17z m23 186c-39 0-72 32-72 72 0 39 33 72 72 72 40 0 73-33 73-72 0-40-33-72-73-72z m0 121c-27 0-49-22-49-49 0-28 22-50 49-50 28 0 50 22 50 50 0 27-22 49-50 49z"/>
<glyph unicode="&#57603;" d="M237 122l0 30c-21 1-42 7-54 14l9 38c14-8 33-14 53-14 19 0 31 7 31 19 0 13-10 20-34 28-34 12-57 28-57 59 0 28 20 50 54 57l0 30 31 0 0-28c21-1 36-6 46-11l-9-36c-8 4-23 11-46 11-21 0-27-9-27-18 0-10 11-17 38-27 38-14 53-31 53-60 0-29-20-53-57-59l0-33-31 0z m20-102c-6 0-12 0-17 0-69 5-132 39-173 94l38 29c33-44 83-71 138-75 103-7 193 69 200 170 3 49-13 97-46 134-32 37-78 60-128 63-73 5-142-32-177-95l-42 24c44 79 131 125 222 119 63-4 120-33 161-79 42-47 62-107 58-169-9-122-112-215-234-215z m-221 246l-14 135 112-57z"/>
<glyph unicode="&#57602;" d="M77 218c0 9 3 16 9 20 7 5 17 7 31 8l14 0 0 5c0 5-1 9-3 12-3 3-7 4-13 4-4 0-8-1-12-2-4-1-8-3-12-4l-6 13c5 2 10 4 16 5 5 2 10 2 15 2 11 0 20-2 25-7 6-5 9-12 9-23l0-58-14 0-3 12-1 0c-4-5-8-9-12-11-5-1-10-2-17-2-8 0-15 2-19 6-5 5-7 12-7 20z m18 0c0-4 1-7 4-9 2-2 5-3 10-3 7 0 12 2 16 5 4 4 6 9 6 16l0 7-11 0c-9 0-15-2-19-4-4-3-6-7-6-12z m81-25l0 122 18 0 0-29c0-2 0-5 0-10-1-4-1-7-1-8l1 0c6 9 14 13 26 13 10 0 19-4 25-12 6-7 9-18 9-32 0-15-3-26-9-34-6-7-15-11-26-11-11 0-19 4-25 11l-1 0-4-10-13 0z m18 44c0-11 2-19 5-23 3-5 9-7 16-7 7 0 12 2 15 7 3 5 5 13 5 23 0 19-7 29-20 29-8 0-13-2-16-6-3-5-5-12-5-22z m76-1c0 14 4 26 11 33 7 8 17 12 30 12 9 0 18-2 25-5l-6-15c-7 3-14 5-19 5-15 0-22-10-22-30 0-10 2-17 5-22 4-5 10-7 17-7 8 0 16 2 23 6l0-16c-3-2-7-3-11-4-3-1-8-1-13-1-13 0-23 3-30 11-7 8-10 19-10 33z m236-122l-497 0 0 278 497 0z m-465 32l433 0 0 214-433 0z"/>
</font>
</defs>
</svg>
