<?xml version="1.0" standalone="no"?> 
<!DOCTYPE svg PUBLIC "-//W3C//DTD SVG 1.1//EN" "http://www.w3.org/Graphics/SVG/1.1/DTD/svg11.dtd" >
<svg xmlns="http://www.w3.org/2000/svg">
<defs>
  <font id="openproject-icon-font" horiz-adv-x="512">
    <font-face font-family="openproject-icon-font"
      units-per-em="512" ascent="412"
      descent="100" />
    <missing-glyph horiz-adv-x="0" />
    <glyph glyph-name="accessibility"
      unicode="&#xF101;"
      horiz-adv-x="512" d=" M256 431C122 431 13 322 13 188S122 -55 256 -55S499 54 499 188S390 431 256 431zM256 -17C144 -17 51 76 51 188S144 393 256 393S461 300 461 188S368 -17 256 -17zM256 351C166 351 93 278 93 188S166 25 256 25S419 98 419 188S346 351 256 351zM256 319C266 319 272 316 278 310C285 303 288 297 288 287C288 268 275 255 256 255S224 268 224 287C224 297 227 303 234 310C240 316 246 319 256 319zM307 63C301 60 294 63 288 70V73C275 92 266 118 256 143C246 118 237 92 224 70V66C218 60 211 57 205 60C202 63 198 70 202 76C202 79 202 79 205 82C218 108 230 137 237 166V214C211 214 186 217 160 220C154 220 147 226 147 233C147 239 154 246 160 246C224 239 285 239 349 246C355 246 362 242 365 233C365 226 358 220 352 220C326 217 301 217 275 217V172C282 140 294 114 307 89C307 86 310 86 310 82C314 73 314 66 307 63z" />
    <glyph glyph-name="add"
      unicode="&#xF102;"
      horiz-adv-x="512" d=" M288 220V444H224V220H0V156H224V-68H288V156H512V220z" />
    <glyph glyph-name="align-center"
      unicode="&#xF103;"
      horiz-adv-x="512" d=" M352 332H160V364H352zM512 204H0V236H512zM416 268H64V300H416zM480 140H32V172H480zM416 76H96V108H416zM448 12H32V44H448z" />
    <glyph glyph-name="align-justify"
      unicode="&#xF104;"
      horiz-adv-x="512" d=" M0 332H512V364H0zM0 268H512V300H0zM0 204H512V236H0zM0 140H512V172H0zM0 76H512V108H0zM0 12H512V44H0z" />
    <glyph glyph-name="align-left"
      unicode="&#xF105;"
      horiz-adv-x="512" d=" M352 332H0V364H352zM512 268H0V300H512zM384 204H0V236H384zM480 140H0V172H480zM352 76H0V108H352zM448 12H0V44H448z" />
    <glyph glyph-name="align-right"
      unicode="&#xF106;"
      horiz-adv-x="512" d=" M160 332H512V364H160zM0 268H512V300H0zM128 204H512V236H128zM32 140H512V172H32zM160 76H512V108H160zM64 12H512V44H64z" />
    <glyph glyph-name="arrow-down1"
      unicode="&#xF107;"
      horiz-adv-x="512" d=" M226 34L12 274C-4 292 -4 324 12 342C29 361 56 361 72 342L256 136L439 342C456 361 483 361 500 342C508 333 512 321 512 308S508 283 500 274L286 34C278 25 267 20 256 20C244 20 234 25 226 34z" />
    <glyph glyph-name="arrow-down2"
      unicode="&#xF108;"
      horiz-adv-x="512" d=" M512 415L256 -39L0 415z" />
    <glyph glyph-name="arrow-left-right"
      unicode="&#xF109;"
      horiz-adv-x="512" d=" M511 306L330 438L327 376C48 387 10 233 9 202C76 323 291 253 322 251L320 189zM327 365L322 253C323 282 325 311 327 365zM190 125L192 187L1 70L182 -62L187 50C186 36 186 20 185 0C464 -11 502 143 503 174C436 53 221 123 190 125z" />
    <glyph glyph-name="arrow-left1"
      unicode="&#xF10A;"
      horiz-adv-x="512" d=" M7 167C6 168 6 169 5 170C5 170 4 171 4 172S3 173 3 174V175C3 176 2 177 2 177C2 178 1 179 1 180V183C1 184 1 184 0 185V188V191C1 192 1 193 1 194V196C1 197 2 198 2 199S3 201 3 201V202C3 203 4 204 4 204C4 205 5 206 5 206C6 207 6 208 7 209C7 210 8 210 8 211L10 213L11 214L186 390C201 404 225 404 239 390C254 375 254 351 239 337L128 225H475C488 225 499 219 506 209C510 203 512 196 512 188C512 178 508 168 501 162C494 155 485 151 475 151H128L239 39C254 25 254 1 239 -14C232 -21 223 -25 213 -25S194 -21 186 -14L11 162L10 163C10 164 9 164 8 165C8 166 7 166 7 167z" />
    <glyph glyph-name="arrow-left2"
      unicode="&#xF10B;"
      horiz-adv-x="512" d=" M97 218L341 432C360 448 392 448 410 432C429 415 429 388 410 371L201 188L410 5C429 -12 429 -39 410 -56C401 -64 389 -68 376 -68S350 -64 341 -56L97 158C88 166 83 177 83 188S88 210 97 218z" />
    <glyph glyph-name="arrow-left3"
      unicode="&#xF10C;"
      horiz-adv-x="512" d=" M483 -68L29 188L483 444z" />
    <glyph glyph-name="arrow-left4"
      unicode="&#xF10D;"
      horiz-adv-x="512" d=" M384 444L128 188L384 -68z" />
    <glyph glyph-name="arrow-right2"
      unicode="&#xF10E;"
      horiz-adv-x="512" d=" M410 218L166 432C148 448 116 448 97 432C78 415 78 388 97 371L307 188L97 5C78 -12 78 -39 97 -56C106 -64 119 -68 132 -68S157 -64 166 -56L410 158C419 166 425 177 425 188S419 210 410 218z" />
    <glyph glyph-name="arrow-right3"
      unicode="&#xF10F;"
      horiz-adv-x="512" d=" M505 167C506 168 506 169 507 170C507 170 508 171 508 172S509 173 509 174V175S510 176 510 177S511 179 511 180V183C511 184 511 184 512 185V188V191C511 192 511 193 511 194V196C511 197 510 198 510 199S509 201 509 201V202C509 203 508 204 508 204C508 205 507 206 507 206C506 207 506 208 505 209C505 210 504 210 504 211L502 213L501 214L326 390C311 404 287 404 273 390C258 375 258 351 273 337L384 225H37C24 225 13 219 6 209C2 203 0 196 0 188C0 178 4 168 11 162C18 155 27 151 37 151H384L273 39C258 25 258 1 273 -14C280 -21 290 -25 299 -25C309 -25 318 -21 326 -14L501 162L502 163L504 165C504 166 505 166 505 167z" />
    <glyph glyph-name="arrow-right4"
      unicode="&#xF110;"
      horiz-adv-x="512" d=" M85 124H0V252H85zM256 124H128V252H256zM256 316V60L512 188z" />
    <glyph glyph-name="arrow-right5"
      unicode="&#xF111;"
      horiz-adv-x="512" d=" M128 -68L384 188L128 444z" />
    <glyph glyph-name="arrow-right6"
      unicode="&#xF112;"
      horiz-adv-x="512" d=" M0 444V-68H512V444zM283 49H192L297 155H90V222H297L192 327H283L422 188z" />
    <glyph glyph-name="arrow-right7"
      unicode="&#xF113;"
      horiz-adv-x="512" d=" M29 -68L483 188L29 444z" />
    <glyph glyph-name="arrow-thin"
      unicode="&#xF114;"
      horiz-adv-x="512" d=" M369 217L143 444L110 411L329 192L110 -28L143 -61L369 170L395 192z" />
    <glyph glyph-name="arrow-up1"
      unicode="&#xF115;"
      horiz-adv-x="512" d=" M226 342L12 102C-4 84 -4 52 12 34C29 15 56 15 72 34L256 240L439 34C456 15 483 15 500 34C508 43 512 55 512 68S508 93 500 102L286 342C278 351 267 356 256 356C244 356 234 351 226 342z" />
    <glyph glyph-name="arrow-up2"
      unicode="&#xF116;"
      horiz-adv-x="512" d=" M512 -39L256 415L0 -39z" />
    <glyph glyph-name="assigned-to-me"
      unicode="&#xF117;"
      horiz-adv-x="512" d=" M480 9C471 23 440 33 409 46S371 63 371 63V94S382 103 386 131C393 129 401 142 401 149S400 174 391 172C393 186 394 199 394 205C391 230 368 255 332 255S273 230 271 205C270 199 271 186 273 172C264 174 263 156 263 149C264 142 271 129 278 131C282 103 294 94 294 94L293 63S286 59 255 46S193 23 184 9C176 -4 178 -68 178 -68H486S489 -5 480 9zM281 398L386 293L419 325L301 444H26V-68H127V-22H72V398z" />
    <glyph glyph-name="attachment"
      unicode="&#xF118;"
      horiz-adv-x="512" d=" M100 -53C80 -53 60 -44 42 -25L39 -23C20 -4 -37 74 39 154C77 195 130 247 186 302L278 394C334 450 375 437 439 376C514 305 528 234 495 197C452 147 289 -16 282 -23C273 -32 258 -32 249 -23S240 1 249 10C251 11 418 179 460 227C470 239 471 281 407 342C370 378 359 408 311 360C280 329 249 298 219 269C163 214 111 162 73 122C29 75 51 31 72 11L75 8C92 -9 106 -14 131 11C138 18 153 32 171 50C222 99 316 191 335 215C341 222 350 241 341 248C330 258 308 238 302 231C236 162 150 79 149 78C140 69 125 69 116 78C107 88 107 102 116 111C117 112 203 195 268 263C311 308 350 303 372 283C400 259 393 212 372 185C352 161 278 89 204 16C185 -1 171 -15 164 -22C143 -43 122 -53 100 -53z" />
    <glyph glyph-name="attention"
      unicode="&#xF119;"
      horiz-adv-x="512" d=" M261 4C239 4 222 22 222 43C222 65 239 82 261 82C282 82 300 65 300 43C300 22 282 4 261 4zM283 140C282 132 281 131 274 131H247C241 131 239 132 238 140L228 321C227 329 227 327 227 330C227 336 232 336 235 336H285C288 336 294 336 294 330V321zM256 443C115 443 1 329 1 188S115 -67 256 -67S511 47 511 188S397 443 256 443zM256 -29C136 -29 39 68 39 188S136 405 256 405S473 308 473 188S376 -29 256 -29z" />
    <glyph glyph-name="back-up"
      unicode="&#xF11A;"
      horiz-adv-x="512" d=" M224 220V156H448V92H512V220zM192 76V300L0 188z" />
    <glyph glyph-name="backlogs"
      unicode="&#xF11B;"
      horiz-adv-x="512" d=" M511 31L383 108V70H340C346 80 352 90 356 102C363 120 366 138 364 158C364 181 359 202 350 220C341 237 330 252 315 266C299 282 280 292 260 299C242 305 224 307 204 306C201 310 197 315 195 320C193 326 192 332 192 338C192 345 194 352 197 358C199 364 202 368 207 373S218 382 225 384C230 386 236 387 243 387C257 386 268 382 278 372C283 366 287 361 289 355L260 344L324 315L353 377L324 367C320 378 313 388 305 397C288 414 267 423 243 423C232 423 222 422 212 419C201 415 190 408 181 399C173 392 167 383 163 374C158 363 155 352 156 339C155 328 157 318 161 308C162 305 163 302 165 300C138 292 114 278 94 257C78 240 67 222 60 202L8 220L62 109L175 164L123 182C127 193 133 203 142 212C160 230 180 240 205 241C217 242 228 240 238 237C250 233 260 226 269 218C279 209 285 201 290 191S298 168 298 156C299 144 297 133 294 123C289 112 282 101 274 91C264 81 254 74 242 69H1V-8H383V-47z" />
    <glyph glyph-name="billing-information"
      unicode="&#xF11C;"
      horiz-adv-x="512" d=" M416 412V444H384V412H320V444H288V412H224V444H192V412H128V444H96V412H0V-68H512V412zM448 -4H64V348H96V316H128V348H192V316H224V348H288V316H320V348H384V316H416V348H448zM243 38V65C224 66 205 71 195 77L203 111C215 104 232 98 251 98C267 98 279 105 279 116S269 134 248 141C217 152 196 166 196 194C196 219 214 239 245 245V273H273V247C292 246 305 242 315 238L307 205C299 208 286 215 265 215C246 215 240 207 240 199C240 189 250 183 275 174C309 162 323 146 323 120C323 95 305 73 272 67V38z" />
    <glyph glyph-name="bold"
      unicode="&#xF11D;"
      horiz-adv-x="512" d=" M67 -64V440H253C289 440 318 437 343 431C367 424 387 415 403 403C418 392 430 377 437 361C444 344 447 325 447 304C447 293 446 282 442 272C439 261 434 251 427 242S411 225 400 217C389 210 376 203 360 198C394 190 419 176 435 158S459 116 459 88C459 66 455 46 447 28C438 9 426 -7 410 -21C394 -34 374 -45 350 -53C327 -61 300 -64 269 -64zM184 230H246C258 230 270 231 281 232C291 234 300 238 308 242C315 247 321 253 324 261C328 269 330 278 330 291C330 302 329 312 326 320S318 334 312 339C305 343 297 347 288 349C278 351 267 352 253 352H184zM184 24H267C282 24 295 26 305 30C314 34 322 39 328 45C333 51 337 58 339 66S342 82 342 90C342 99 341 108 338 115C336 122 332 129 326 134S312 143 302 146C293 148 281 150 266 150H184z" />
    <glyph glyph-name="budget"
      unicode="&#xF11E;"
      horiz-adv-x="512" d=" M32 92V-4H224V92zM128 28H64V60H128zM192 28H173V60H192zM288 92V-4H480V92zM384 28H320V60H384zM448 28H429V60H448zM320 188V92H512V188zM416 124H352V156H416zM480 124H461V156H480zM288 284V188H480V284zM384 220H320V252H384zM448 220H429V252H448zM32 188V92H224V188zM128 124H64V156H128zM192 124H173V156H192zM0 284V188H192V284zM96 220H32V252H96zM160 220H141V252H160zM32 380V284H224V380zM128 316H64V348H128zM192 316H173V348H192z" />
    <glyph glyph-name="bug"
      unicode="&#xF11F;"
      horiz-adv-x="512" d=" M213 -46V-3H171V-46zM171 -3V39H128V-3zM86 422V379H128V422zM299 -46H341V-3H299zM341 -3H384V39H341zM469 167V209H426V337H384V379H341V337H171V379H128V337H86V209H43V167H1V39H43V124H86V39H128V82H384V39H426V124H469V39H511V167zM128 167V252H171V167zM341 167V252H384V167zM426 422H384V379H426z" />
    <glyph glyph-name="calendar"
      unicode="&#xF120;"
      horiz-adv-x="512" d=" M240 188H176V252H240zM336 188H272V252H336zM432 188H368V252H432zM144 92H80V156H144zM240 92H176V156H240zM336 92H272V156H336zM432 92H368V156H432zM144 -4H80V60H144zM240 -4H176V60H240zM336 -4H272V60H336zM432 380V444H336V380H176V444H80V380H16V-68H496V380zM368 412H400V348H368zM112 412H144V348H112zM464 -36H48V284H464z" />
    <glyph glyph-name="calendar2"
      unicode="&#xF121;"
      horiz-adv-x="512" d=" M150 180L112 171L100 219L166 237H211V12H150V180zM367 184H263V236H436V189L337 12H268zM432 380V444H336V380H176V444H80V380H16V-68H496V380zM368 412H400V348H368zM112 412H144V348H112zM464 -36H48V284H464z" />
    <glyph glyph-name="camera"
      unicode="&#xF122;"
      horiz-adv-x="512" d=" M426 274C410 264 388 251 375 243C362 236 352 244 352 261V332C352 350 338 364 320 364H32C14 364 0 350 0 332V44C0 26 14 12 32 12H320C338 12 352 26 352 44V116C352 134 362 142 375 134S410 113 426 104L485 68C500 59 512 66 512 84V157V293C512 311 500 318 485 309z" />
    <glyph glyph-name="cancel"
      unicode="&#xF123;"
      horiz-adv-x="512" d=" M256 233L96 393L51 345L211 188L51 31L96 -17L256 143L416 -17L461 31L301 188L461 345L416 393z" />
    <glyph glyph-name="cart"
      unicode="&#xF124;"
      horiz-adv-x="512" d=" M468 112L511 325L96 381L63 403C63 405 64 408 64 410C64 428 50 442 32 442C15 442 1 428 1 410C1 393 15 378 32 378C35 378 37 379 39 380L78 354L143 98L162 99L145 43H143C112 43 88 19 88 -11C88 -42 112 -66 143 -66C165 -66 184 -53 193 -33H365C373 -52 392 -66 414 -66C444 -66 468 -42 468 -13C468 17 444 41 414 41C389 41 368 23 363 0H196C193 13 186 24 176 32L197 100z" />
    <glyph glyph-name="changeset-down"
      unicode="&#xF125;"
      horiz-adv-x="512" d=" M384 268H320V428H192V268H128L256 140zM444 300H384V268H423L464 172H352C352 119 309 76 256 76S160 119 160 172H48L89 268H128V300H68L0 140V-52H512V140z" />
    <glyph glyph-name="changeset-up"
      unicode="&#xF126;"
      horiz-adv-x="512" d=" M192 284V156H320V316H384L256 444L128 316H192zM444 284H352V252H423L464 156H352C352 103 309 60 256 60S160 103 160 156H48L89 252H160V284H68L0 124V-68H512V124z" />
    <glyph glyph-name="changeset"
      unicode="&#xF127;"
      horiz-adv-x="512" d=" M444 364H68L0 204V12H512V204zM352 236C352 183 309 140 256 140S160 183 160 236H48L89 332H423L464 236z" />
    <glyph glyph-name="chart1"
      unicode="&#xF128;"
      horiz-adv-x="512" d=" M443 341V35H69V341H443M511 409H1V-33H511zM346 108L276 181L209 113L144 177L118 129C113 121 103 117 95 122C86 126 83 137 88 145L136 233L208 161L276 229L337 166L394 281C398 289 408 292 417 288C425 284 429 274 424 265z" />
    <glyph glyph-name="chart2"
      unicode="&#xF129;"
      horiz-adv-x="512" d=" M144 340C61 312 2 235 2 143C2 28 95 -65 209 -65C278 -65 338 -31 376 20L192 125zM330 426C305 435 278 441 250 441C225 441 201 437 179 429L231 195zM365 370L261 137L466 20C494 58 510 105 510 156C510 253 450 336 365 370z" />
    <glyph glyph-name="chart3"
      unicode="&#xF12A;"
      horiz-adv-x="512" d=" M512 -36H0V-4H512zM128 28H0V316H128zM320 28H192V188H320zM512 28H384V412H512z" />
    <glyph glyph-name="checkmark"
      unicode="&#xF12B;"
      horiz-adv-x="512" d=" M176 -45L13 139C-4 158 0 185 21 200S73 212 90 193L173 100L421 403C437 422 468 427 489 412C511 398 516 371 500 351z" />
    <glyph glyph-name="close"
      unicode="&#xF12C;"
      horiz-adv-x="512" d=" M256 233L96 393L51 345L211 188L51 31L96 -17L256 143L416 -17L461 31L301 188L461 345L416 393z" />
    <glyph glyph-name="code-tag"
      unicode="&#xF12D;"
      horiz-adv-x="512" d=" M343 43C334 43 325 47 319 55C307 68 309 88 322 100L430 193L323 275C309 286 307 306 318 320C328 334 349 337 362 326L500 219C507 213 512 204 512 195C512 185 508 176 501 170L364 51C358 46 350 43 343 43zM169 43C162 43 154 46 148 51L11 170C4 176 0 185 0 195C0 204 5 213 12 219L150 326C163 337 184 334 194 320C205 306 203 286 189 275L82 193L190 100C203 88 205 68 193 55C187 47 178 43 169 43z" />
    <glyph glyph-name="color-text"
      unicode="&#xF12E;"
      horiz-adv-x="512" d=" M511 -46C511 -56 503 -64 493 -64H19C9 -64 1 -56 1 -46V-10C1 0 9 9 19 9H493C503 9 511 0 511 -10zM209 440H311L473 57H360L332 125H185L158 57H47zM302 207L259 315L216 207z" />
    <glyph glyph-name="color-underline"
      unicode="&#xF12F;"
      horiz-adv-x="512" d=" M484 -49C484 -58 476 -66 467 -66H21C12 -66 4 -58 4 -49V-15C4 -5 12 3 21 3H467C476 3 484 -5 484 -15zM175 37C184 37 197 43 202 50L206 55C212 63 212 74 205 81L153 135C146 142 136 142 130 135L127 131C121 124 110 112 104 105L51 49C45 42 47 37 57 37zM496 355C513 376 512 407 492 426C473 446 442 447 421 430V431L416 426L166 176L242 100L492 350L497 355z" />
    <glyph glyph-name="column-left"
      unicode="&#xF130;"
      horiz-adv-x="512" d=" M445 -68H268V444H445V-68zM287 -48H425V424H287zM188 61L57 189L188 317z" />
    <glyph glyph-name="column-right"
      unicode="&#xF131;"
      horiz-adv-x="512" d=" M62 445H239V-67H62zM220 425H82V-48H220zM319 317L450 189L319 61z" />
    <glyph glyph-name="columns"
      unicode="&#xF132;"
      horiz-adv-x="512" d=" M286 445H463V-67H286zM443 425H306V-48H444V425zM46 444H223V-68H46zM203 424H65V-48H203z" />
    <glyph glyph-name="compare2"
      unicode="&#xF133;"
      horiz-adv-x="512" d=" M175 73H334V34H175zM274 265V325H235V265H175V226H235V166H274V226H334V265zM453 325L334 444H59V-68H453zM105 -22V398H315L407 306V-22H105z" />
    <glyph glyph-name="concept"
      unicode="&#xF134;"
      horiz-adv-x="512" d=" M256 287C192 287 144 239 144 178C144 140 163 108 195 86V28H320V86C352 105 371 140 371 178C368 236 320 287 256 287zM298 102V47H211V102C182 118 166 143 166 175C166 223 208 262 256 262S346 223 346 175C346 143 326 118 298 102zM256 322C259 322 266 326 266 332V422C266 428 262 431 256 431C253 431 246 428 246 422V335C246 326 253 322 256 322zM339 310L387 383C390 386 390 393 387 396S378 396 374 393L326 319C323 316 323 310 326 306C330 303 336 306 339 310zM480 303C477 306 474 310 467 306L390 265C387 262 384 255 387 252S394 246 400 249L477 290C480 294 483 297 480 303zM173 310C176 306 182 303 186 306C189 310 189 316 186 319L138 393C134 399 128 399 125 396S122 386 125 383zM45 303C38 306 32 306 32 303C29 297 32 294 35 290L112 249C118 246 122 246 125 252C128 255 125 262 122 265zM320 18H192V-17C192 -36 208 -49 224 -49V-65H288V-49C304 -49 317 -36 317 -20V18z" />
    <glyph glyph-name="console"
      unicode="&#xF135;"
      horiz-adv-x="512" d=" M0 412V-36H512V412zM480 -4H32V380H480zM64 348V28H448V348zM207 239L133 188C130 186 127 186 124 186C119 186 114 188 111 193C106 200 108 210 115 215L168 251L116 284C108 289 106 298 110 306C115 314 125 316 132 311L206 266C211 263 213 258 214 253C214 247 211 242 207 239zM352 220H256V252H352z" />
    <glyph glyph-name="contacts"
      unicode="&#xF136;"
      horiz-adv-x="512" d=" M64 444C97 444 64 444 64 444V-68H65C32 -68 0 -36 0 -1V380C0 418 31 444 64 444zM512 220H448V316H480C512 316 512 281 512 281zM512 60H448V-36H480C512 -36 512 -5 512 -5zM512 92H448V188H512zM351 444H96V-68H352C385 -68 416 -42 416 -4V377C416 412 384 444 351 444zM352 124H160S158 144 164 152C169 161 189 167 208 175S232 186 232 186V204S225 210 222 227C218 226 213 234 213 238S214 253 219 252C218 261 217 268 218 273C219 287 234 303 256 303S293 287 294 273C295 268 294 261 293 252C298 253 299 242 299 238S294 226 289 227C287 210 280 204 280 204V186S285 183 304 175S342 161 348 152C353 144 352 124 352 124z" />
    <glyph glyph-name="copy"
      unicode="&#xF137;"
      horiz-adv-x="512" d=" M225 158H380V127H225zM463 347L366 444V443V444H139V26H463V347zM177 64V406H350L426 331V64zM306 -30H86V316H126V353H49V-68H344V10H306zM225 239H380V207H225zM225 320H380V288H225z" />
    <glyph glyph-name="cost-reports"
      unicode="&#xF138;"
      horiz-adv-x="512" d=" M443 344V37H68V344H443M511 412H0V-31H511zM136 71H102V173H136zM204 71H170V208H204zM273 71H239V173H273zM341 71H307V276H341zM409 71H375V173H409z" />
    <glyph glyph-name="cost-types"
      unicode="&#xF139;"
      horiz-adv-x="512" d=" M278 351V386H0V338H278zM278 300V313H0V265H243C256 274 266 284 278 290zM0 242V194H198C205 210 214 226 224 242zM192 172H0V124H189V137C189 146 189 159 192 172zM0 98V50H208C202 66 195 82 192 98zM224 28H0V-20H278C256 -7 240 9 224 28zM358 281C282 281 221 217 221 137S282 -7 358 -7C435 -7 496 57 496 137S435 281 358 281zM365 54V28H349V54C333 54 317 60 307 66L314 82C323 76 336 70 352 70C371 70 384 79 384 95S374 118 355 127C330 137 310 150 310 172S326 210 349 214V242H365V217C381 217 390 214 400 207L394 191C387 194 378 201 362 201C342 201 333 188 333 178C333 166 342 159 365 150C390 140 406 124 406 102C406 79 390 60 365 54z" />
    <glyph glyph-name="custom-development"
      unicode="&#xF13A;"
      horiz-adv-x="512" d=" M515 332L512 358H54V143L86 175V300H483V60H179L147 28H515zM150 338C154 338 160 335 160 329C160 322 154 319 150 319C147 319 141 322 141 329C141 335 144 338 150 338zM122 338C128 338 131 335 131 329C131 322 128 319 122 319C115 319 112 322 112 329C112 335 115 338 122 338zM93 338C99 338 102 335 102 329C102 322 99 319 93 319C86 319 83 322 83 329C83 335 90 338 93 338zM301 252H413V230H301zM301 217H451V194H301zM301 178H432V156H301zM301 146H413V124H301zM176 121C179 121 179 121 176 121H192C227 121 259 150 259 188C259 194 259 201 256 204L224 166L186 175L176 214L211 249C205 249 202 252 195 252C157 252 128 223 128 185C128 178 128 169 131 162L13 44C0 31 -3 9 10 -4C22 -17 45 -14 58 -1L80 22z" />
    <glyph glyph-name="custom-fields"
      unicode="&#xF13B;"
      horiz-adv-x="512" d=" M70 152C70 161 74 168 80 173C87 177 97 180 111 180L126 181V186C126 191 125 195 122 198C120 201 116 202 110 202C106 202 101 202 97 200C93 199 89 197 85 196L79 209C84 212 89 213 95 215C101 216 106 217 111 217C122 217 131 214 137 209C142 204 145 197 145 186V126H132L128 139H127C123 133 119 130 114 128C110 126 104 125 98 125C89 125 82 127 77 132C73 137 70 143 70 152zM89 152C89 148 91 145 93 142C95 140 99 139 104 139C110 139 116 141 120 145S126 154 126 161V169L115 168C106 168 100 166 95 164C91 161 89 157 89 152zM172 126V251H191V222C191 219 191 216 190 212V203H191C197 212 205 217 217 217C228 217 237 213 243 205S252 185 252 171C252 156 249 145 243 137S228 125 217 125S197 129 191 137H189L186 126zM191 171C191 160 192 152 196 147C199 143 205 140 213 140C219 140 224 143 228 148C231 153 233 161 233 171C233 191 226 201 212 201C205 201 199 199 196 195C193 190 191 183 191 172V171zM269 170C269 185 273 197 280 205S297 217 311 217C321 217 329 215 337 211L331 196C323 199 316 201 311 201C296 201 288 191 288 170C288 160 290 153 294 148S303 141 311 141S327 143 334 147V130C331 128 327 127 324 126C320 125 315 125 310 125C296 125 286 129 279 136C272 144 269 156 269 170zM512 45H0V331H512V45zM33 78H479V298H33z" />
    <glyph glyph-name="cut"
      unicode="&#xF13C;"
      horiz-adv-x="512" d=" M448 122C420 151 391 166 362 166C332 166 309 151 294 136L288 143L301 161L364 200L454 346V444L258 184L62 444V346L151 200L212 161L226 142L220 135C205 150 182 166 152 166S93 151 65 122C17 71 17 14 31 -20C44 -50 74 -68 101 -68C114 -68 157 -38 159 -35L182 -1L257 101L335 -4L358 -38C360 -39 400 -68 414 -68C441 -68 468 -50 480 -20C495 14 496 71 448 122zM118 -5C102 -24 85 -21 76 -1C68 19 69 55 101 88C119 107 136 117 151 117C168 117 181 106 189 97L166 63L157 51V50zM437 -1C432 -12 425 -19 417 -19C411 -19 403 -14 397 -7L358 48V51L330 87L324 97C332 106 346 117 362 117C377 117 394 107 412 88C444 55 446 19 437 -1z" />
    <glyph glyph-name="delete-folder"
      unicode="&#xF13D;"
      horiz-adv-x="512" d=" M288 92V124H480V284C480 302 466 316 448 316H256C238 316 215 327 203 340L189 356C177 369 154 380 136 380H32C14 380 0 366 0 348V28C0 10 14 -4 32 -4H288zM320 28V92H512V28z" />
    <glyph glyph-name="delete"
      unicode="&#xF13E;"
      horiz-adv-x="512" d=" M416 341H96C96 340 95 339 95 338V-34C95 -53 107 -68 121 -68H390C405 -68 417 -53 417 -34V338C417 339 416 340 416 341zM178 -10C178 -23 170 -34 160 -34S142 -23 142 -10V273C142 286 150 297 160 297S178 286 178 273zM275 -10C275 -23 267 -34 258 -34C248 -34 240 -23 240 -10V273C240 286 248 297 258 297C267 297 275 286 275 273zM370 -10C370 -23 362 -34 352 -34S334 -23 334 -10V273C334 286 342 297 352 297S370 286 370 273zM430 375C430 388 420 398 407 398H105C92 398 82 388 82 375C82 369 85 364 88 359H424C427 364 430 369 430 375zM238 420H274C281 420 286 425 286 432S281 444 274 444H238C231 444 226 439 226 432S231 420 238 420z" />
    <glyph glyph-name="dependency"
      unicode="&#xF13F;"
      horiz-adv-x="512" d=" M416 116C396 116 378 109 363 99L188 189L361 279C376 267 395 260 416 260C467 260 508 302 508 352C508 403 467 444 416 444S324 403 324 352V349L151 259C136 271 117 278 96 278C45 278 4 237 4 186S45 94 96 94C119 94 140 103 156 117L324 29V24C324 -27 365 -68 416 -68S508 -27 508 24C508 74 467 116 416 116z" />
    <glyph glyph-name="design"
      unicode="&#xF140;"
      horiz-adv-x="512" d=" M473 414L488 406C507 387 484 363 484 363C440 320 397 276 354 233C340 219 334 215 323 196C310 175 298 152 288 130L210 208S278 235 302 259C336 294 371 328 406 363C420 377 433 393 449 405zM30 -21C91 -6 85 44 121 130C139 172 186 184 186 184L264 106S264 -61 30 -21" />
    <glyph glyph-name="double-arrow-left"
      unicode="&#xF141;"
      horiz-adv-x="512" d=" M219 215L437 407C454 421 483 421 499 407C516 392 516 367 499 352L311 188L499 24C516 9 516 -15 499 -30C491 -38 480 -42 468 -42C457 -42 446 -38 437 -30L219 161C210 168 206 178 206 188S210 208 219 215zM13 215L232 407C248 421 277 421 293 407C311 392 311 367 293 352L106 188L293 24C311 9 311 -15 293 -30C285 -38 274 -42 262 -42C251 -42 240 -38 232 -30L13 161C5 168 0 178 0 188S5 208 13 215z" />
    <glyph glyph-name="double-arrow-right"
      unicode="&#xF142;"
      horiz-adv-x="512" d=" M293 215L75 407C58 421 29 421 13 407C-4 392 -4 367 13 352L201 188L13 24C-4 9 -4 -15 13 -30C21 -38 32 -42 44 -42C55 -42 66 -38 75 -30L293 161C302 168 306 178 306 188S302 208 293 215zM499 215L280 407C264 421 235 421 219 407C201 392 201 367 219 352L406 188L219 24C201 9 201 -15 219 -30C227 -38 238 -42 250 -42C261 -42 272 -38 280 -30L499 161C507 168 512 178 512 188S507 208 499 215z" />
    <glyph glyph-name="download"
      unicode="&#xF143;"
      horiz-adv-x="512" d=" M439 -50H73V23H439zM73 -50H0V97H73zM512 -50H439V97H512zM439 279H366V426H146V279H73L263 90z" />
    <glyph glyph-name="duplicate"
      unicode="&#xF144;"
      horiz-adv-x="512" d=" M479 29H426V85H381V29H323V-17H381V-68H426V-17H479zM79 398H289L380 306V145H426V325L308 444H33V-68H269V-22H79z" />
    <glyph glyph-name="edit"
      unicode="&#xF145;"
      horiz-adv-x="512" d=" M1 -65L13 18L25 101L96 29L167 -42L84 -53zM404 243L190 30L167 54L380 267L332 314L119 101L96 125L309 338L285 362L48 125L190 -17L427 219zM502 290C514 302 514 323 501 336L406 431C393 444 372 445 360 432L357 429L311 384L453 242L499 287L498 288C499 289 501 289 502 290z" />
    <glyph glyph-name="enterprise"
      unicode="&#xF146;"
      horiz-adv-x="512" d=" M0 348H32V-36H0zM128 348H160V-36H128zM32 -4H128V-36H32zM32 60H128V28H32zM32 124H128V92H32zM32 188H128V156H32zM32 252H128V220H32zM32 348H128V284H32zM64 348H96V-36H64zM192 316H224V-36H192zM224 -4H320V-36H224zM224 60H320V28H224zM224 124H320V92H224zM224 188H320V156H224zM224 252H320V220H224zM224 316H320V284H224zM288 316H320V-36H288zM352 412H384V-36H352zM480 412H512V-36H480zM384 -4H480V-36H384zM384 60H480V28H384zM384 124H480V92H384zM384 188H480V156H384zM384 252H480V220H384zM384 412H480V348H384zM416 348H448V-36H416zM384 316H480V284H384z" />
    <glyph glyph-name="enumerations"
      unicode="&#xF147;"
      horiz-adv-x="512" d=" M200 390H512V343H200zM200 199H512V152H200zM200 20H512V-26H200zM50 -62L3 -10C-2 -5 -1 3 5 8C11 12 20 11 25 6L49 -21L120 66C124 71 133 72 139 68S147 56 142 51zM50 109L3 162C-2 167 -1 175 5 179S20 182 25 177L49 150L120 237C124 242 133 244 139 240S147 228 142 222zM73 294C34 294 1 326 1 366S34 438 73 438C113 438 146 406 146 366S113 294 73 294zM73 416C46 416 24 394 24 366C24 339 46 317 73 317C101 317 123 339 123 366C123 394 101 416 73 416z" />
    <glyph glyph-name="error"
      unicode="&#xF148;"
      horiz-adv-x="512" d=" M436 368C336 467 175 467 76 368S-23 108 76 8C176 -91 336 -91 436 8C535 107 535 269 436 368zM238 354H291C307 354 309 345 309 340V335L308 329L297 137C296 122 290 119 279 119H251C240 119 234 122 232 136L221 335V340C221 345 223 354 238 354zM265 -16C237 -16 215 6 215 33C215 61 237 83 265 83S315 61 315 33C315 6 292 -16 265 -16z" />
    <glyph glyph-name="export-atom"
      unicode="&#xF149;"
      horiz-adv-x="512" d=" M210 41C210 26 198 13 182 13C167 13 154 26 154 41S167 69 182 69C198 69 210 56 210 41zM156 150V113C182 113 207 102 225 84C244 65 254 41 254 15H291C290 89 230 149 156 150zM156 221V185C249 184 325 108 326 15H362C361 128 270 220 156 221zM455 326L336 444H62V-68H455V326zM107 -22V398H317L409 306V-22H107z" />
    <glyph glyph-name="export-csv"
      unicode="&#xF14A;"
      horiz-adv-x="512" d=" M193 33C192 33 190 33 189 32S187 30 185 29C184 28 182 27 180 26C177 25 174 24 171 24C167 24 164 25 161 27C158 28 156 30 154 33C152 35 150 39 149 42C148 46 147 51 147 56S148 65 149 69S151 76 153 79C155 81 158 84 161 85S167 87 171 87S177 87 179 86S183 85 185 84C186 83 188 82 189 81C190 81 191 80 192 80S194 81 195 81S196 82 197 83L203 91C199 96 194 99 189 101C183 103 177 105 170 105S156 103 150 101C144 98 140 95 136 91C132 86 129 81 127 75S124 63 124 56C124 48 125 41 127 35C130 29 133 24 136 20C140 16 145 13 150 10C155 8 161 7 167 7C170 7 173 7 177 8C180 8 183 9 186 10C190 12 193 13 196 15S201 20 204 23L197 31C196 32 195 33 193 33zM274 55C272 57 269 59 266 60C264 61 261 63 258 64S252 66 249 66C246 67 244 68 242 69S238 71 237 73C235 74 235 76 235 78C235 81 236 83 238 85C241 87 245 88 249 88C252 88 254 88 257 87C259 87 261 86 262 85C264 84 265 84 267 83C268 82 269 82 270 82S272 82 273 83C274 83 274 84 275 85L280 93C277 96 272 99 267 101C261 103 255 105 249 105S238 104 233 102C229 101 225 99 222 96S217 90 215 87S213 80 213 76S213 68 215 65C216 62 218 60 220 58S225 54 228 53C230 52 233 50 236 49S242 47 245 47C248 46 250 45 252 44S256 42 258 40C259 39 259 37 259 35V30L256 27C255 26 253 25 251 24C249 24 247 23 244 23S238 24 236 24C233 25 231 26 230 27C228 28 226 29 225 30C224 30 223 31 221 31C220 31 219 31 218 30S216 29 215 28L210 19C212 17 214 16 216 14C219 13 222 12 224 10C227 9 230 9 233 8C237 7 240 7 243 7C249 7 255 8 259 9C264 11 268 13 271 16C275 19 277 22 279 26S281 34 281 39C281 43 281 46 279 49C278 51 276 53 274 55zM366 103C364 103 363 103 362 102C360 101 360 100 359 99L341 48C340 45 339 42 338 40C337 37 337 34 336 31C335 34 335 37 334 40C333 42 332 45 331 48L313 99C313 100 312 101 311 102S308 103 307 103H288L325 8H346L384 103zM453 325L334 444H59V-68H453V325H452zM105 -22V398H315L407 306V-22H105z" />
    <glyph glyph-name="export-pdf-descr"
      unicode="&#xF14B;"
      horiz-adv-x="512" d=" M159 191H345V160H159zM160 252H346V220H160zM160 313H346V281H160zM450 326L332 444H57V-68H450V326zM103 -22V398H313L404 306V-22H103zM195 95C192 97 188 99 184 101C179 102 174 103 168 103H138V10H155V43H168C174 43 179 44 183 45C188 47 192 49 195 52C198 54 200 57 201 61C203 65 204 69 204 73C204 78 203 82 202 85C200 89 198 92 195 95zM185 66C184 64 183 62 182 61C180 60 178 58 176 58C174 57 171 56 168 56H155V90H168C171 90 174 89 176 89C178 88 180 87 182 85C183 84 184 82 185 80S186 76 186 74C186 71 186 69 185 66zM286 90C282 94 277 97 271 100C266 102 259 103 252 103H217V10H252C259 10 266 12 271 14C277 16 282 19 286 23S294 32 296 38S299 50 299 57C299 63 298 70 296 75C294 81 290 86 286 90zM279 43C278 39 276 36 274 33C271 30 268 28 264 26C261 25 257 24 252 24H234V89H252C257 89 261 89 264 87C268 86 271 83 274 81C276 78 278 74 279 70C281 66 282 62 282 57S281 47 279 43zM371 89V103H313V10H330V48H365V62H330V89z" />
    <glyph glyph-name="export-pdf-with-descriptions"
      unicode="&#xF14C;"
      horiz-adv-x="512" d=" M159 191H345V160H159zM160 252H346V220H160zM160 313H346V281H160zM450 326L332 444H57V-68H450V326zM103 -22V398H313L404 306V-22H103zM195 95C192 97 188 99 184 101C179 102 174 103 168 103H138V10H155V43H168C174 43 179 44 183 45C188 47 192 49 195 52C198 54 200 57 201 61C203 65 204 69 204 73C204 78 203 82 202 85C200 89 198 92 195 95zM185 66C184 64 183 62 182 61C180 60 178 58 176 58C174 57 171 56 168 56H155V90H168C171 90 174 89 176 89C178 88 180 87 182 85C183 84 184 82 185 80S186 76 186 74C186 71 186 69 185 66zM286 90C282 94 277 97 271 100C266 102 259 103 252 103H217V10H252C259 10 266 12 271 14C277 16 282 19 286 23S294 32 296 38S299 50 299 57C299 63 298 70 296 75C294 81 290 86 286 90zM279 43C278 39 276 36 274 33C271 30 268 28 264 26C261 25 257 24 252 24H234V89H252C257 89 261 89 264 87C268 86 271 83 274 81C276 78 278 74 279 70C281 66 282 62 282 57S281 47 279 43zM371 89V103H313V10H330V48H365V62H330V89z" />
    <glyph glyph-name="export-pdf"
      unicode="&#xF14D;"
      horiz-adv-x="512" d=" M441 326L322 444H47V-68H441V326zM93 -22V398H303L395 306V-22H93zM186 95C183 97 179 99 175 101C170 102 165 103 158 103H128V10H146V43H158C164 43 170 44 174 45C179 47 182 49 185 52C188 54 191 57 192 61C194 65 194 69 194 73C194 78 194 82 192 85C191 89 189 92 186 95zM176 66C175 64 174 62 173 61C171 60 169 58 167 58C164 57 162 56 158 56H146V90H158C162 90 164 89 167 89C169 88 171 87 173 85C174 84 175 82 176 80S177 76 177 74C177 71 177 69 176 66zM277 90C273 94 268 97 262 100C256 102 250 103 243 103H208V10H243C250 10 256 12 262 14S273 19 277 23S284 32 287 38C289 44 290 50 290 57C290 63 289 70 287 75C284 81 281 86 277 90zM270 43C269 39 267 36 264 33C262 30 259 28 255 26C252 25 248 24 243 24H225V89H243C247 89 252 89 255 87C259 86 262 83 264 81C267 78 269 74 270 70C272 66 272 62 272 57S272 47 270 43zM362 89V103H303V10H321V48H355V62H321V89z" />
    <glyph glyph-name="export-xls-descr"
      unicode="&#xF14E;"
      horiz-adv-x="512" d=" M142 10L173 58L144 103H161C162 103 163 103 163 102C164 102 164 102 165 101L186 67V69C187 69 187 70 187 70L207 101C208 102 209 103 210 103H227L197 59L228 10H210C209 10 208 11 208 11L206 13L184 49V47L183 46L163 13C162 13 162 12 161 11C160 11 159 10 158 10zM238 10V103H255V25H292V10H238zM297 22L302 30S303 31 304 31C304 32 305 32 306 32S308 32 309 31S312 29 314 28C315 27 317 26 320 25C322 24 325 24 328 24C333 24 336 25 339 27S343 33 343 37C343 39 343 41 341 43C340 45 338 46 337 47C334 48 332 49 330 50C327 50 324 51 322 52C319 53 317 54 314 55S309 58 307 60S304 64 302 67C301 70 300 73 300 77S301 84 302 87C304 91 306 93 308 96C311 98 314 100 318 102C322 103 326 104 331 104S341 103 346 101C351 100 355 97 358 94L354 86L352 84H350C349 84 348 84 347 85C346 85 344 86 343 87S340 88 338 89S334 90 331 90C329 90 327 90 325 89S322 88 320 87C319 86 318 84 318 83C317 82 317 80 317 78S317 74 319 73C320 71 321 70 323 69S328 67 330 66C333 66 335 65 338 64S343 62 346 61C348 59 351 58 353 56S356 52 358 49C359 47 360 43 360 39S359 31 357 28C356 24 354 21 351 18S345 13 341 12C337 10 332 9 327 9C324 9 321 10 319 10L310 13C308 14 305 15 303 17C301 18 299 20 297 22zM157 191H342V160H157zM158 252H343V220H158zM158 313H343V281H158zM447 326L329 444H54V-68H448V326zM100 -22V398H310L402 306V-22H100z" />
    <glyph glyph-name="export-xls-with-descriptions"
      unicode="&#xF14F;"
      horiz-adv-x="512" d=" M142 10L173 58L144 103H161C162 103 163 103 163 102C164 102 164 102 165 101L186 67V69C187 69 187 70 187 70L207 101C208 102 209 103 210 103H227L197 59L228 10H210C209 10 208 11 208 11L206 13L184 49V47L183 46L163 13C162 13 162 12 161 11C160 11 159 10 158 10zM238 10V103H255V25H292V10H238zM297 22L302 30S303 31 304 31C304 32 305 32 306 32S308 32 309 31S312 29 314 28C315 27 317 26 320 25C322 24 325 24 328 24C333 24 336 25 339 27S343 33 343 37C343 39 343 41 341 43C340 45 338 46 337 47C334 48 332 49 330 50C327 50 324 51 322 52C319 53 317 54 314 55S309 58 307 60S304 64 302 67C301 70 300 73 300 77S301 84 302 87C304 91 306 93 308 96C311 98 314 100 318 102C322 103 326 104 331 104S341 103 346 101C351 100 355 97 358 94L354 86L352 84H350C349 84 348 84 347 85C346 85 344 86 343 87S340 88 338 89S334 90 331 90C329 90 327 90 325 89S322 88 320 87C319 86 318 84 318 83C317 82 317 80 317 78S317 74 319 73C320 71 321 70 323 69S328 67 330 66C333 66 335 65 338 64S343 62 346 61C348 59 351 58 353 56S356 52 358 49C359 47 360 43 360 39S359 31 357 28C356 24 354 21 351 18S345 13 341 12C337 10 332 9 327 9C324 9 321 10 319 10L310 13C308 14 305 15 303 17C301 18 299 20 297 22zM157 191H342V160H157zM158 252H343V220H158zM158 313H343V281H158zM447 326L329 444H54V-68H448V326zM100 -22V398H310L402 306V-22H100z" />
    <glyph glyph-name="export-xls-with-relations"
      unicode="&#xF150;"
      horiz-adv-x="512" d=" M142 10L173 58L144 103H161C162 103 163 103 163 102C164 102 164 102 165 101L186 67V69C187 69 187 70 187 70L207 101C208 102 209 103 210 103H227L197 59L228 10H210C209 10 208 11 208 11L206 13L184 49V47L183 46L163 13C162 13 162 12 161 11C160 11 159 10 158 10H142zM238 10V103H255V25H292V10H238zM297 22L302 30C302 30 303 31 304 31C304 32 305 32 306 32S308 32 309 31S312 29 314 28C315 27 317 26 320 25C322 24 325 24 328 24C333 24 336 25 339 27S343 33 343 37C343 39 343 41 341 43C340 45 338 46 337 47C334 48 332 49 330 50C327 50 324 51 322 52C319 53 317 54 314 55S309 58 307 60S304 64 302 67C301 70 300 73 300 77S301 84 302 87C304 91 306 93 308 96C311 98 314 100 318 102C322 103 326 104 331 104S341 103 346 101C351 100 355 97 358 94L354 86L352 84H350C349 84 348 84 347 85C346 85 344 86 343 87S340 88 338 89S334 90 331 90C329 90 327 90 325 89S322 88 320 87C319 86 318 84 318 83C317 82 317 80 317 78S317 74 319 73C320 71 321 70 323 69S328 67 330 66C333 66 335 65 338 64S343 62 346 61C348 59 351 58 353 56S356 52 358 49C359 47 360 43 360 39S359 31 357 28C356 24 354 21 351 18S345 13 341 12C337 10 332 9 327 9C324 9 321 10 319 10L310 13C308 14 305 15 303 17C301 18 299 20 297 22zM447 326L329 444H54V-68H448V326H447zM100 -22V398H310L402 306V-22H100z M146.2 303.5H299.4V201.1000000000001H146.2V303.5z M155.4 294.2000000000001H290.1V269.3000000000001H155.4V294.2000000000001z M295.1 264.4L339.5 264.8L339.5 243.4L295 243.4 M367.8 252.2C351.8 241.0000000000001 332.1 221.9 319.8 201.6V302.8C332.1 282.6 351.8 263.4 367.8 252.2z" />
    <glyph glyph-name="export-xls"
      unicode="&#xF151;"
      horiz-adv-x="512" d=" M227 103H211C209 103 208 102 207 101L188 70C187 70 187 69 187 69C187 68 186 68 186 67L165 101C165 102 164 102 164 102C163 103 162 103 161 103H144L173 58L143 10H159C160 10 161 11 161 11L163 13L184 46V47C185 48 185 48 185 49L206 13C207 13 207 12 208 11C209 11 210 10 211 10H228L197 59zM255 103H238V10H292V25H255zM358 49C357 52 355 54 353 56S349 59 346 61C344 62 341 63 338 64C336 65 333 65 331 66C328 67 326 68 324 69S320 71 319 73C318 74 317 76 317 78S318 82 318 83C319 84 320 86 321 87S324 88 325 89C327 90 329 90 332 90C334 90 336 90 338 89S342 87 343 87C345 86 346 85 347 85C348 84 349 84 350 84H352C353 85 354 85 354 86L358 94C355 97 351 100 346 101C342 103 337 104 331 104C326 104 322 103 318 102C315 100 311 98 309 96C306 93 304 90 303 87S301 81 301 77S302 70 303 67S306 62 308 60S312 56 314 55C317 54 320 53 322 52C325 51 328 50 330 50C333 49 335 48 337 47S341 44 342 43C343 41 344 39 344 37C344 33 342 29 340 27C337 25 333 24 328 24C325 24 322 24 320 25L314 28C312 29 311 30 310 31C308 32 307 32 306 32S305 32 304 31C303 31 303 30 302 30L297 22C299 20 301 18 303 17C306 15 308 14 311 13C313 12 316 11 319 10C322 10 325 9 328 9C333 9 337 10 341 12C345 13 349 15 352 18C354 21 356 24 358 28C359 31 360 35 360 39S359 46 358 49zM448 326L329 444H54V-68H448V326zM100 -22V398H310L402 306V-22H100z" />
    <glyph glyph-name="export"
      unicode="&#xF152;"
      horiz-adv-x="512" d=" M512 188L381 320V220H191V156H381V56zM318 -68H0V444H318V284H254V380H64V-4H254V92H318z" />
    <glyph glyph-name="faq"
      unicode="&#xF153;"
      horiz-adv-x="512" d=" M134 117V200C64 210 11 261 11 321C11 389 77 444 158 444H256C338 444 404 389 404 321C404 256 342 202 265 199zM158 403C104 403 60 366 60 321S104 239 158 239H183V199L248 239H256C311 239 355 276 355 321S311 403 256 403zM318 -9C263 -6 218 32 218 79C218 128 266 168 324 168H395C454 168 501 128 501 79C501 36 463 -1 413 -8V-68zM324 138C285 138 254 112 254 79C254 47 285 21 324 21H330L378 -9V21H395C434 21 466 47 466 79C466 112 434 138 395 138zM174 378C186 385 199 388 213 388C225 388 234 385 241 380C249 374 252 366 252 356C252 351 251 347 250 344C249 340 247 337 244 334S236 327 229 321C224 317 220 313 218 311C216 308 215 304 215 299V295H198V301C198 307 199 313 201 317C204 321 208 326 214 331C221 336 226 341 228 344S231 351 231 355C231 360 229 364 226 367C222 369 218 371 211 371C206 371 200 370 196 368C191 367 186 365 181 362zM194 266C194 275 199 280 207 280C212 280 215 279 217 276C219 274 221 271 221 266C221 262 219 259 217 256C215 254 212 252 207 252C203 252 200 254 198 256C195 258 194 262 194 266zM348 48C348 51 349 53 351 55C352 56 355 57 358 57S363 56 365 55C366 53 367 51 367 48S366 43 365 41C363 40 361 39 358 39S352 40 351 41C349 43 348 45 348 48zM348 119H367L364 66H351z" />
    <glyph glyph-name="filter"
      unicode="&#xF154;"
      horiz-adv-x="512" d=" M511 436H1L206 172V-60L306 -11V172z" />
    <glyph glyph-name="flag"
      unicode="&#xF155;"
      horiz-adv-x="512" d=" M378 408S293 368 208 397C115 430 74 417 34 368C27 372 19 373 12 368C1 362 -2 348 4 338L230 -29C234 -35 241 -39 249 -39C253 -39 257 -38 260 -36C271 -29 274 -16 268 -5L167 158C207 206 249 219 341 187C426 157 511 198 511 198z" />
    <glyph glyph-name="folder-add"
      unicode="&#xF156;"
      horiz-adv-x="512" d=" M288 108V140H352V204H480V300C480 318 466 332 448 332H256C238 332 215 343 203 356L189 372C177 385 154 396 136 396H32C14 396 0 382 0 364V44C0 26 14 12 32 12H288zM512 108H448V172H384V108H320V44H384V-20H448V44H512z" />
    <glyph glyph-name="folder-locked"
      unicode="&#xF157;"
      horiz-adv-x="512" d=" M512 -20H352V108H512zM480 108H448V140H416V108H384V172H480zM320 140H352V204H480V300C480 318 466 332 448 332H256C238 332 215 343 203 356L189 372C177 385 154 396 136 396H32C14 396 0 382 0 364V44C0 26 14 12 32 12H320z" />
    <glyph glyph-name="folder-open"
      unicode="&#xF158;"
      horiz-adv-x="512" d=" M40 326H237L158 404H40zM473 -28H40L1 247H512zM473 286H40V326H473z" />
    <glyph glyph-name="folder-remove"
      unicode="&#xF159;"
      horiz-adv-x="512" d=" M288 92V124H480V284C480 302 466 316 448 316H256C238 316 215 327 203 340L189 356C177 369 154 380 136 380H32C14 380 0 366 0 348V28C0 10 14 -4 32 -4H288zM320 28V92H512V28z" />
    <glyph glyph-name="folder"
      unicode="&#xF15A;"
      horiz-adv-x="512" d=" M0 18C0 -1 16 -17 34 -17H478C496 -17 512 -1 512 18V290C512 309 496 324 478 324H273C254 324 229 336 216 350L202 367C189 381 164 392 145 392H34C16 392 0 377 0 358z" />
    <glyph glyph-name="forums"
      unicode="&#xF15B;"
      horiz-adv-x="512" d=" M448 284H416V252C416 203 369 156 320 156H173L128 111V92C128 60 160 28 192 28H352L448 -68V28C480 28 512 60 512 92V220C512 252 480 284 448 284zM320 444H64C32 444 0 412 0 380V252C0 220 32 188 64 188C70 188 49 188 64 188V92L160 188H320C352 188 384 220 384 252V380C384 412 352 444 320 444z" />
    <glyph glyph-name="from-fullscreen"
      unicode="&#xF15C;"
      horiz-adv-x="512" d=" M290 91.6L290 -36.4L322 -36.4L322 69.6L437 -49.4L463 -23.4L344 91.6L450 91.6L450 123.6L290 123.6z M51 336.6L170 221.6L64 221.6L64 189.6L224 189.6L224 349.6L192 349.6L192 243.6L77 362.6z" />
    <glyph glyph-name="getting-started"
      unicode="&#xF15D;"
      horiz-adv-x="512" d=" M512 85L407 147V113H0V57H407V24zM76 321C78 323 80 324 81 326C81 319 80 311 80 300V208H103V350H84L42 317L54 303C66 313 74 319 76 321zM181 229L179 231H157C155 216 154 200 150 182H166C174 201 178 217 181 229zM300 228H232V229L257 253C268 263 276 272 281 278S289 290 291 296C294 301 295 308 295 314C295 326 291 335 283 342S264 352 251 352C243 352 235 351 227 348C220 345 212 341 204 334L217 319C223 324 229 328 234 330S245 333 250 333C257 333 262 331 266 327C270 324 272 318 272 312C272 307 271 303 269 299C268 295 265 290 262 286C258 281 251 273 240 262L203 225V208H300zM348 229L347 231H325C323 216 321 200 317 182H334C342 201 345 217 348 229zM451 217C461 224 465 235 465 249C465 258 462 266 457 271C452 277 443 281 432 282V283C441 285 449 289 454 295S462 309 462 318C462 328 458 337 450 343S430 352 416 352C399 352 384 348 371 338L382 322C389 326 395 329 400 331C405 332 410 333 415 333C423 333 429 332 433 328C437 325 439 320 439 314C439 298 427 291 405 291H392V272H404C417 272 427 270 433 266C439 263 442 257 442 250C442 241 439 235 434 231C428 227 420 225 409 225C403 225 396 225 390 227C383 229 376 231 370 234V213C381 208 394 206 410 206C428 206 442 210 451 217z" />
    <glyph glyph-name="glossar"
      unicode="&#xF15E;"
      horiz-adv-x="512" d=" M256 300C256 380 78 396 0 396V44H32V12C96 12 224 31 224 -20H288C288 31 416 12 480 12V44H512V396C434 396 256 380 256 300zM32 364C48 364 62 363 76 362H87C150 357 216 344 223 306C224 304 224 302 224 300V62C177 89 90 92 32 92zM480 92C422 92 335 89 288 62V300C288 321 322 362 480 364zM97 183L80 135H60L113 288H137L190 135H168L152 183zM148 199L132 242C129 252 127 262 124 270C122 261 119 252 116 243L101 199zM325 147L412 271H333V288H438V276L352 152H439V135H325V147z" />
    <glyph glyph-name="google-plus"
      unicode="&#xF15F;"
      horiz-adv-x="512" d=" M269 25C269 29 268 33 267 37S266 44 265 47S262 54 260 57C257 61 255 63 254 66L246 74C243 78 240 80 238 82C236 83 233 86 229 89S222 94 220 95C219 97 215 99 211 102C206 105 203 107 202 108C199 108 194 109 188 109C177 109 167 108 157 107C148 105 137 103 127 99C116 96 107 92 99 86C91 81 84 74 79 65S71 46 71 34C71 21 75 10 81 0C88 -11 97 -19 108 -24C119 -30 130 -35 142 -37C154 -40 166 -42 179 -42C190 -42 201 -41 211 -38C221 -36 230 -32 239 -27S255 -15 261 -6C266 3 269 13 269 25zM234 272C234 283 233 295 230 308C226 321 222 333 216 345S202 367 192 375S171 387 158 387C140 387 127 380 117 367S102 338 102 320C102 311 103 302 106 292C108 282 111 272 116 262C120 252 126 243 132 235S145 221 154 216S172 209 182 209C200 209 214 214 222 226C230 237 234 253 234 272zM197 407H322L283 385H245C258 376 269 364 276 349C283 333 287 317 287 301C287 286 285 274 281 263C276 252 271 243 265 237L246 218C239 213 234 207 230 201C225 195 223 188 223 181C223 176 225 172 228 167S235 158 240 153C245 149 251 144 257 139C263 135 269 129 275 124C281 118 287 111 292 105C297 98 301 90 304 80C307 71 309 61 309 50C309 20 296 -7 269 -31C240 -56 200 -68 149 -68C138 -68 126 -67 115 -65C103 -63 92 -60 80 -56C68 -51 58 -46 49 -39S33 -24 27 -14C21 -3 18 8 18 21C18 33 22 46 29 60C35 72 44 82 56 91S82 107 98 112C113 116 128 120 142 122S170 125 185 126C173 142 167 156 167 168V175C168 177 168 179 169 181C169 182 170 184 171 187C172 189 172 191 173 193C165 192 159 191 153 191C124 191 100 201 80 219C60 238 49 262 49 290C49 316 58 340 77 361C95 382 117 396 143 402C161 406 179 407 197 407zM494 334V298H421V225H384V298H311V334H384V407H421V334z" />
    <glyph glyph-name="group-by"
      unicode="&#xF160;"
      horiz-adv-x="512" d=" M51 312H460V275H51zM52 248H461V212H52zM154 444V342H52zM51 32H460V-5H51zM52 -32H461V-68H52zM154 164V62H51z" />
    <glyph glyph-name="group"
      unicode="&#xF161;"
      horiz-adv-x="512" d=" M506 93C496 108 496 117 465 130C433 143 426 148 426 148L425 178S437 187 441 215C448 213 456 226 456 233C457 240 455 259 446 257C448 271 450 283 449 290C447 314 423 340 386 340S325 314 323 290C322 283 323 271 325 257C316 259 315 240 315 233C316 226 323 213 331 215C334 187 346 178 346 178L320 157C335 149 373 154 381 141C386 134 398 114 395 -3H512S514 80 506 93zM345 104C334 120 299 130 264 145S220 165 220 165V198S233 208 237 240C245 238 254 252 255 260C255 268 253 288 243 286C245 302 247 316 246 323C244 350 217 379 176 379S108 350 106 323C105 316 107 302 109 286C99 288 97 268 97 260C98 252 106 238 115 240C119 209 132 198 132 198V165S123 160 88 145S18 120 7 104C-2 89 0 -3 0 -3H352S354 89 345 104z" />
    <glyph glyph-name="hamburger"
      unicode="&#xF162;"
      horiz-adv-x="512" d=" M32 348H480V284H32zM32 220H480V156H32zM32 92H480V28H32z" />
    <glyph glyph-name="headline1"
      unicode="&#xF163;"
      horiz-adv-x="512" d=" M0 34V341H41V204H207V341H248V34H207V174H41V34zM330 263L421 342H452V64H512V34H348V64H414V273V292L359 245C358 244 357 243 355 242H351C349 242 347 242 345 243C344 244 342 245 341 246z" />
    <glyph glyph-name="headline2"
      unicode="&#xF164;"
      horiz-adv-x="512" d=" M0 33V339H41V203H206V339H247V33H206V173H41V33zM308 33V46C308 49 308 52 310 54C311 57 312 60 315 62L413 161C421 169 428 177 435 185C442 192 447 200 452 208C457 215 461 223 463 231C466 239 467 247 467 256S465 273 462 280C460 287 456 292 451 297C446 301 440 304 433 307C427 309 419 310 412 310C404 310 397 309 390 306C384 304 378 301 373 297S364 288 360 283C357 277 354 271 353 264C352 260 350 257 348 255C346 254 343 253 339 253H334L314 256C316 270 320 283 325 293C331 304 338 313 347 320C356 328 366 333 377 337C389 341 401 343 414 343S439 341 450 337S471 327 479 320C488 313 494 304 499 293C504 283 506 271 506 257C506 246 504 235 501 226C498 216 493 207 487 198S474 180 467 172C459 164 451 155 443 147L362 64C368 65 374 67 379 68C385 69 391 69 396 69H499C503 69 506 68 508 66C511 63 512 60 512 56V33z" />
    <glyph glyph-name="headline3"
      unicode="&#xF165;"
      horiz-adv-x="512" d=" M0 36V340H41V204H205V340H247V36H205V174H41V36zM308 112L324 119C327 120 330 121 333 121C335 121 338 120 340 119S344 116 345 113C345 113 346 112 346 111C346 111 347 110 347 109L354 95C357 90 361 86 365 81C370 76 376 73 383 70C391 66 399 65 410 65S430 67 438 70S453 78 458 83C463 89 467 95 470 102S474 116 474 122C474 130 473 138 471 145C469 151 465 157 459 162S446 171 436 174S413 178 397 178V205C410 206 421 207 430 210C439 212 446 216 452 221S462 231 464 238C467 244 468 251 468 259C468 268 467 276 464 282C461 289 458 294 453 298C448 303 442 306 436 308C429 310 422 311 414 311C407 311 400 310 393 308C386 305 381 302 376 298S366 289 363 284C360 278 357 272 355 266C354 262 353 259 350 257C348 255 345 254 342 254H339S338 254 337 255L317 258C319 272 323 284 328 295C334 305 341 314 350 322C359 329 369 334 380 338S403 344 416 344S441 342 452 338C463 335 473 329 481 322C489 316 495 307 499 298C504 288 506 277 506 266C506 256 505 247 502 240C500 232 496 226 492 220C487 214 482 209 475 205C469 201 461 198 453 196C473 190 488 182 497 169C507 157 512 142 512 123C512 109 509 97 504 85C499 74 491 65 482 57S462 43 450 39C438 34 425 32 411 32C394 32 381 34 369 38C358 42 348 48 340 55S326 71 321 80C316 90 311 101 308 112z" />
    <glyph glyph-name="headset"
      unicode="&#xF166;"
      horiz-adv-x="512" d=" M477 258C451 364 362 441 256 441S61 364 35 262C16 255 3 239 3 220V166C3 140 22 121 48 121H99V262H67C93 348 166 409 256 409S419 348 445 262H413V121H435C410 60 362 15 298 -1C291 15 275 28 256 28C230 28 208 6 208 -20C208 -33 211 -42 218 -49C227 -62 240 -68 256 -68C278 -68 294 -52 301 -33C381 -17 445 44 470 121C493 124 509 143 509 166V217C509 236 496 255 477 258zM256 50C330 50 387 108 387 175V223C387 294 330 348 256 348S125 294 125 223V175C125 108 182 50 256 50z" />
    <glyph glyph-name="help"
      unicode="&#xF167;"
      horiz-adv-x="512" d=" M117 394C124 401 133 407 142 413C152 419 162 424 173 429C183 433 195 437 208 439C221 442 234 443 249 443C269 443 288 440 304 435C321 429 335 422 347 412S368 389 374 375C381 361 384 345 384 327C384 310 382 294 376 281C371 268 365 257 357 248C349 238 340 230 331 223C321 216 313 210 304 203C296 197 289 191 283 186C278 180 275 173 274 165L266 114H208L202 171V177C202 188 204 196 209 204C214 211 221 218 228 225C236 232 244 238 253 244C261 251 269 257 277 265C284 272 290 280 295 289C300 299 302 310 302 322C302 331 301 338 298 345C294 351 290 357 285 362S273 370 266 373C258 375 250 376 241 376C228 376 217 375 208 372S191 366 185 363C178 359 173 356 169 353C164 350 160 348 157 348C149 348 143 352 139 359zM189 -15C189 -8 191 -1 193 5C195 12 198 17 202 22C206 26 211 30 217 33C222 36 228 37 234 37C241 37 248 36 254 33S265 26 270 22C274 17 278 12 281 5C283 -1 285 -8 285 -15C285 -23 283 -30 281 -36C278 -42 274 -48 270 -52C265 -57 260 -61 254 -63C248 -66 241 -67 234 -67C228 -67 222 -66 217 -63C211 -61 206 -57 202 -52C198 -48 195 -42 193 -36S189 -23 189 -15z" />
    <glyph glyph-name="help1"
      unicode="&#xF168;"
      horiz-adv-x="512" d=" M291 141C291 133 289 132 281 132H247C239 132 238 133 238 141V199C238 210 254 212 271 218C287 223 303 233 303 258C303 279 290 291 265 291C236 291 212 275 207 275C205 275 203 278 202 280L190 311C189 313 189 315 189 316C189 328 244 344 275 344C331 344 366 308 366 257C366 198 318 182 291 173zM266 11C244 11 227 29 227 50C227 72 244 90 266 90S305 72 305 50C305 29 287 11 266 11zM256 443C115 443 1 329 1 188S115 -67 256 -67S511 47 511 188S397 443 256 443zM256 -30C136 -30 38 68 38 188S136 406 256 406S474 308 474 188S376 -30 256 -30z" />
    <glyph glyph-name="help2"
      unicode="&#xF169;"
      horiz-adv-x="512" d=" M437 369C337 469 175 469 75 369C-24 270 -24 108 75 8C175 -92 337 -92 437 8C536 108 536 270 437 369zM245 -17C217 -17 195 6 195 33C195 61 217 83 245 83S295 61 295 33C295 6 272 -17 245 -17zM280 158V131C280 117 275 112 262 112H225C212 112 207 117 207 131V192C207 208 223 213 237 217C240 218 244 219 247 220C266 227 277 235 277 255C277 262 277 282 244 282C224 282 206 274 195 270C189 267 186 266 182 266C176 266 170 271 169 277L156 310C155 313 155 316 155 318C155 342 230 356 255 356C318 356 361 315 361 255C361 189 311 169 280 158z" />
    <glyph glyph-name="hierarchy"
      unicode="&#xF16A;"
      horiz-adv-x="512" d=" M320 124V156H256V252H192V348H160V220H224V28H320V60H256V124z" />
    <glyph glyph-name="home"
      unicode="&#xF16B;"
      horiz-adv-x="512" d=" M415 298V417H349V349L255 423L1 227L48 174L84 196V-47H448V196L475 174L512 227zM316 -14H183V152H316z" />
    <glyph glyph-name="hosting"
      unicode="&#xF16C;"
      horiz-adv-x="512" d=" M512 120C512 91 502 67 482 47S438 17 410 17H119C87 17 58 29 35 52C12 76 0 104 0 137C0 160 6 182 19 201C32 221 48 235 69 245C68 250 68 254 68 256C68 294 82 326 108 353C135 379 167 393 205 393C233 393 258 385 281 369C304 354 321 333 331 308C344 319 358 325 375 325C394 325 410 318 424 305C437 291 444 275 444 256C444 243 440 231 433 219C456 214 475 202 490 184C505 165 512 144 512 120z" />
    <glyph glyph-name="image1"
      unicode="&#xF16D;"
      horiz-adv-x="512" d=" M448 332V44H64V332H448M512 396H0V-20H512zM232 260C232 234 210 212 184 212C157 212 136 234 136 260C136 287 157 308 184 308C210 308 232 287 232 260zM96 76H416V192L365 284L297 135L256 177S200 156 181 124C152 140 136 124 136 124z" />
    <glyph glyph-name="image2"
      unicode="&#xF16E;"
      horiz-adv-x="512" d=" M296 180C296 162 282 148 264 148S232 162 232 180S246 212 264 212S296 198 296 180zM192 76H416V157L381 222L332 118L304 147S265 132 252 110C231 121 220 110 220 110zM448 300V396H0V108H96V-20H512V300zM96 172H64V332H384V300H96zM448 44H160V236H448z" />
    <glyph glyph-name="info1"
      unicode="&#xF16F;"
      horiz-adv-x="512" d=" M323 71C323 67 322 66 317 66H217C212 66 212 67 212 71V97C212 101 212 102 217 102H242V223H217C212 223 211 224 211 229V254C211 259 212 260 217 260H287C291 260 292 259 292 254V102H317C322 102 323 101 323 97V71zM267 285C249 285 234 300 234 318S249 350 267 350S299 336 299 318S285 285 267 285zM256 443C115 443 1 329 1 188S115 -67 256 -67S511 47 511 188S397 443 256 443zM256 -29C136 -29 38 68 38 188S136 406 256 406S474 308 474 188S376 -29 256 -29z" />
    <glyph glyph-name="info2"
      unicode="&#xF170;"
      horiz-adv-x="512" d=" M436 368C337 467 175 467 76 368C-24 269 -24 107 76 8C175 -92 337 -92 436 8C536 107 536 269 436 368zM252 399C279 399 301 377 301 350S279 301 252 301S203 323 203 350S224 399 252 399zM330 40C330 30 325 25 315 25H189C179 25 174 30 174 40V72C174 82 179 87 189 87H212V223H189C178 223 173 228 173 238V270C173 280 178 285 189 285H277C287 285 292 280 292 270V87H315C325 87 330 82 330 72z" />
    <glyph glyph-name="installation-services"
      unicode="&#xF171;"
      horiz-adv-x="512" d=" M182 76H435C461 76 480 95 480 121V313C480 338 461 358 435 358H77C51 358 32 338 32 313V121C32 95 51 76 77 76zM64 121V313C64 319 70 326 77 326H435C442 326 448 319 448 313V121C448 114 442 108 435 108H77C70 108 64 114 64 121zM214 41V50H13V34C13 25 19 18 29 18H480C490 18 496 25 496 34V50H298V41M160 137C160 188 202 230 256 230C307 230 352 188 352 137H410V172H378C374 178 374 185 371 191L400 210L378 242L349 220C342 226 336 230 333 236L349 265L314 284L298 255C291 258 282 258 275 262V294H237V258C230 258 224 258 218 255L202 284L170 265L186 239C176 236 170 230 163 223L138 242L115 210L141 194C138 188 134 178 131 172H109V137z" />
    <glyph glyph-name="italic"
      unicode="&#xF172;"
      horiz-adv-x="512" d=" M105 -55C123 -53 135 -50 142 -45C153 -37 162 -21 169 3L265 349C268 363 271 373 272 379S274 390 274 396C274 408 270 417 262 422C253 427 239 430 218 431V443H412V431C392 428 378 424 370 418S355 397 348 373L252 27C249 14 247 4 245 -4C244 -11 243 -17 243 -22C243 -34 248 -43 257 -47S279 -54 297 -55V-67H105z" />
    <glyph glyph-name="key"
      unicode="&#xF173;"
      horiz-adv-x="512" d=" M452 322C459 283 454 246 438 212S396 158 361 152C339 148 317 148 295 151L234 52L198 46L145 -39C140 -49 133 -54 122 -56L83 -63C79 -64 75 -64 71 -61C68 -58 66 -54 65 -50L57 1C54 11 56 20 63 29L195 227C187 244 181 264 176 288C170 325 179 356 203 384S259 429 298 436C334 443 367 435 398 413C428 391 446 360 452 322M388 283C398 298 402 315 399 333S387 365 372 375C358 386 342 390 325 387C308 383 295 374 284 359L278 347C277 343 277 340 278 337S280 331 280 329C281 326 283 324 287 320C291 317 294 314 296 312C299 311 302 308 307 304C313 300 317 298 319 296S325 291 330 287C336 283 340 280 342 279C345 278 348 276 352 273S359 269 362 269H370C374 270 377 271 380 274C382 276 385 279 388 283" />
    <glyph glyph-name="link"
      unicode="&#xF174;"
      horiz-adv-x="512" d=" M176 137H80C62 137 48 152 48 169V207C48 224 62 239 80 239H176C188 239 197 232 203 223H254C247 259 215 287 176 287H80C36 287 0 251 0 207V169C0 125 36 89 80 89H176C216 89 250 120 255 159H206C201 146 190 137 176 137zM432 287H336C297 287 265 259 258 223H309C315 232 324 239 336 239H432C450 239 464 224 464 207V175C464 157 450 143 432 143H336C324 143 315 149 309 159H258C265 122 297 95 336 95H432C476 95 512 131 512 175V207C512 251 476 287 432 287zM338 159C355 159 368 173 368 191C368 208 355 223 338 223H173C157 223 144 208 144 191C144 173 158 159 175 159H338z" />
    <glyph glyph-name="loading1"
      unicode="&#xF175;"
      horiz-adv-x="512" d=" M288 380C288 370 280 362 271 362S254 370 254 380V425C254 435 262 443 271 443S288 435 288 425zM181 370C186 362 183 351 175 346C167 342 156 345 151 353L129 392C124 401 126 411 135 416C143 421 153 418 158 409zM105 312C114 307 117 296 113 288C108 280 97 277 88 282L50 304C41 309 38 320 43 328C47 336 58 339 67 334zM64 220C74 220 82 212 82 203S74 186 64 186H19C9 186 1 193 1 203C1 212 9 220 19 220zM74 119C82 124 93 122 98 114C102 106 99 95 91 90L52 68C43 63 33 65 28 73C23 82 27 92 35 97zM132 37C137 46 148 49 156 45C164 40 167 29 162 20L140 -18C135 -27 124 -30 116 -25C108 -21 105 -10 110 -1zM224 -4C224 6 232 14 241 14S258 6 258 -4V-49C258 -59 250 -67 241 -67S224 -59 224 -49zM325 6C320 14 322 25 330 30C338 34 349 31 354 23L376 -16C381 -25 379 -35 371 -40C362 -45 352 -42 347 -33zM407 64C398 69 395 80 399 88C404 96 415 99 424 94L462 71C471 67 474 56 469 48C465 40 454 37 445 42zM448 156C438 156 430 164 430 173C430 183 438 190 448 190H493C503 190 511 183 511 173C511 164 503 156 493 156zM438 257C430 252 419 254 414 262C410 270 413 281 421 286L460 308C469 313 479 311 484 303C489 294 486 284 477 279zM380 339C375 330 364 327 356 331C348 336 345 347 350 356L372 394C377 403 388 406 396 401C404 397 407 386 402 377z" />
    <glyph glyph-name="loading2"
      unicode="&#xF176;"
      horiz-adv-x="512" d=" M413 393H440V444H70V393H102C106 297 142 234 203 213V160C142 139 107 77 102 -17H70V-68H440V-17H413C409 77 373 139 313 160V213C374 234 409 297 413 393zM297 138C365 121 385 48 388 -17H363L317 36L260 103L203 36L157 -17H128C131 48 151 121 219 138L228 140V233L219 235C150 252 131 327 128 393H388C385 327 366 252 297 235L287 233V140zM315 289H209L236 258L262 228L288 258z" />
    <glyph glyph-name="location"
      unicode="&#xF177;"
      horiz-adv-x="512" d=" M253 444C183 444 77 412 77 284C77 220 218 -4 253 -68C288 -4 429 220 429 284C429 412 323 444 253 444zM253 228C222 228 197 253 197 284S222 340 253 340S309 315 309 284S284 228 253 228z" />
    <glyph glyph-name="locked"
      unicode="&#xF178;"
      horiz-adv-x="512" d=" M411 242V290C411 375 341 443 256 443S101 375 101 290V242H67V-67H445V242zM280 2H223L237 81C229 86 223 94 223 105C223 121 236 133 251 133C267 133 280 121 280 105C280 94 274 86 265 81zM342 242H170V290C170 336 209 374 256 374S342 336 342 290z" />
    <glyph glyph-name="logout"
      unicode="&#xF179;"
      horiz-adv-x="512" d=" M495 172C495 269 436 352 353 389V302C393 272 419 225 419 172C419 82 346 8 256 8S93 82 93 172C93 225 119 272 159 302V390C76 352 17 269 17 172C17 40 124 -67 256 -67S495 40 495 172zM305 152C305 133 290 118 271 118H241C222 118 207 133 207 152V409C207 428 222 443 241 443H271C290 443 305 428 305 409z" />
    <glyph glyph-name="mail1"
      unicode="&#xF17A;"
      horiz-adv-x="512" d=" M255 145L484 346C482 347 481 347 479 347H29zM511 315C511 319 510 323 509 326L348 184L507 44C510 49 511 54 511 59V315zM2 328C0 324 -1 320 -1 315V59C-1 55 0 50 2 46L163 184zM324 162L255 102L187 163L30 28L31 27H478z" />
    <glyph glyph-name="mail2"
      unicode="&#xF17B;"
      horiz-adv-x="512" d=" M176 106L22 209L256 398L490 209L336 106L512 -47V223L256 441L0 223V-47zM483 -65L300 95H212L29 -65z" />
    <glyph glyph-name="maintenance-support"
      unicode="&#xF17C;"
      horiz-adv-x="512" d=" M150 -30C147 -30 147 -26 144 -26C134 -33 118 -36 106 -36C61 -36 22 2 22 47C22 63 26 79 35 92L32 95C32 98 32 98 29 102C29 105 29 105 26 108C13 92 3 70 3 47C3 -7 48 -52 102 -52C125 -52 144 -46 160 -33C157 -33 154 -30 150 -30zM474 82S470 79 474 82C477 70 480 57 480 47C480 2 442 -36 397 -36C384 -36 371 -33 362 -26C358 -30 352 -30 349 -33C346 -33 346 -33 342 -36C358 -46 374 -52 397 -52C451 -52 496 -7 496 47C496 66 490 82 480 98C477 92 474 86 474 82zM32 281C35 284 35 284 35 287C32 300 29 310 29 322C29 367 67 406 112 406C122 406 134 402 144 399C147 399 150 402 150 402C154 402 157 406 160 406C144 418 128 422 112 422C58 422 13 377 13 322C13 303 19 284 29 268C29 271 29 271 32 274V281zM362 406C365 406 368 402 368 402C378 406 387 409 400 409C445 409 483 370 483 326C483 313 480 300 474 290C477 284 477 284 480 281C480 278 480 278 483 274C483 271 483 271 486 268C496 284 502 303 502 322C502 377 458 422 403 422C384 422 368 415 355 409C355 409 358 406 362 406zM493 143C496 156 496 172 496 188S493 220 493 233C499 204 499 172 493 143zM486 118C483 111 483 108 480 102C483 108 486 114 486 118zM323 422C301 425 278 428 256 428S211 425 189 418C234 431 278 431 323 422zM490 252C493 246 493 239 493 233C493 239 490 246 490 252zM211 -49C224 -52 240 -52 256 -52S288 -49 301 -49C272 -55 240 -55 211 -49zM22 255C19 233 16 210 16 188S19 143 26 121C13 166 13 210 22 255zM326 418C333 415 339 415 342 412C336 415 330 418 326 418zM493 143C493 137 490 130 490 124C490 130 493 137 493 143zM211 -49C205 -49 198 -46 192 -46C198 -46 205 -49 211 -49zM320 -46C314 -49 307 -49 301 -49C307 -49 314 -46 320 -46zM170 412C176 415 179 415 186 418C182 418 176 415 170 412zM342 -36C336 -39 333 -39 326 -42C330 -42 336 -39 342 -36zM186 -42C179 -39 176 -39 170 -36C176 -39 182 -42 186 -42zM26 118C26 114 29 111 29 108S29 105 32 102C29 108 26 114 26 118zM150 -30C154 -33 157 -33 163 -36H166C160 -33 154 -33 150 -30zM480 95C477 92 477 86 474 82C474 86 477 92 480 95zM32 274C32 271 32 271 29 268C29 265 26 262 26 258C26 262 29 268 32 274zM163 412L160 409C157 409 154 406 150 406C154 406 160 409 163 412zM362 406C358 406 355 409 352 409S349 409 346 412C352 409 358 406 362 406zM486 258C486 262 483 265 483 268S483 271 480 274C483 268 486 262 486 258zM486 118V121C490 127 490 134 490 140C496 169 496 201 490 233C490 239 486 246 486 252V255C483 262 483 265 480 271C480 274 480 274 477 278C464 306 448 332 426 358C410 374 390 390 368 399C365 399 362 402 362 402C358 406 352 409 349 412C346 412 346 412 342 415C336 418 330 418 326 422H323C278 434 234 434 192 422H189C182 418 176 415 170 412H163C160 409 154 406 150 406C147 406 144 402 144 402C122 390 102 377 86 358C61 335 45 310 32 281V274C29 268 26 262 26 258V255C13 210 13 166 26 124V121C29 114 29 108 32 105C32 102 32 102 35 98C48 70 64 44 86 18C106 -1 125 -14 147 -26C150 -26 150 -30 154 -30C154 -33 160 -33 163 -36C166 -36 166 -36 170 -39C176 -42 179 -42 186 -46H189C195 -49 202 -49 208 -49C237 -55 269 -55 301 -49C307 -49 314 -46 320 -46H323C330 -42 333 -42 339 -39C342 -39 342 -39 346 -36C374 -23 400 -7 426 15C445 34 458 54 470 76V79C474 82 474 89 477 92C477 95 477 95 480 98C483 108 486 114 486 118zM406 38C387 18 362 2 336 -10L314 44C352 60 381 89 397 127L451 105C442 82 426 60 406 38zM397 246C390 265 378 281 365 297C349 313 333 322 314 329L336 383C362 374 387 358 406 335C426 316 442 290 454 265zM176 383L198 329C163 313 131 281 115 246L61 268C80 319 125 364 176 383zM115 130C122 111 134 95 147 79C163 63 179 54 198 47L176 -7C150 2 125 18 106 41C86 60 70 86 58 111zM170 102C122 150 122 226 170 271C218 319 294 319 339 271C387 223 387 146 339 102C294 57 218 57 170 102z" />
    <glyph glyph-name="meetings"
      unicode="&#xF17D;"
      horiz-adv-x="512" d=" M448 378V122H287L264 110L192 61V122H64V378H448M512 442H0V58H128V-66L308 58H512z" />
    <glyph glyph-name="menu"
      unicode="&#xF17E;"
      horiz-adv-x="512" d=" M0 444H128V316H0zM192 444H320V316H192zM384 444H512V316H384zM0 252H128V124H0zM192 252H320V124H192zM384 252H512V124H384zM0 60H128V-68H0zM192 60H320V-68H192zM384 60H512V-68H384z" />
    <glyph glyph-name="microphone"
      unicode="&#xF17F;"
      horiz-adv-x="512" d=" M320 188C320 153 291 124 256 124S192 153 192 188V380C192 415 221 444 256 444S320 415 320 380zM416 188V252H384V188C384 117 327 60 256 60S128 117 128 188V252H96V188C96 111 151 46 224 31V-4L128 -36V-68H384V-36L288 -4V31C361 46 416 111 416 188z" />
    <glyph glyph-name="milestone"
      unicode="&#xF180;"
      horiz-adv-x="512" d=" M2 188L256 441L509 188L256 -65z" />
    <glyph glyph-name="minus1"
      unicode="&#xF181;"
      horiz-adv-x="512" d=" M0 228H512V148H0z" />
    <glyph glyph-name="minus2"
      unicode="&#xF182;"
      horiz-adv-x="512" d=" M468 443H44C20 443 1 424 1 401V-24C1 -47 20 -66 44 -66H468C492 -66 511 -47 511 -24V401C511 424 492 443 468 443zM426 146H86V231H426z" />
    <glyph glyph-name="mobile"
      unicode="&#xF183;"
      horiz-adv-x="512" d=" M326 130H35V345C35 351 42 358 48 358H422C429 358 435 351 435 345V284H461V345C461 364 445 380 426 380H45C26 380 10 364 10 345V105C10 86 26 70 45 70H326zM291 50H179C170 50 163 44 163 34C163 25 170 18 179 18H291C301 18 307 25 307 34C307 44 298 50 291 50zM496 249C493 252 490 252 486 255H374C368 255 365 252 358 249C355 246 352 239 352 233V15C352 2 362 -7 374 -7H480C493 -7 502 2 502 15V233C502 239 499 246 496 249zM486 34H371V226H486zM410 242L413 246H438C442 246 442 246 442 242C442 239 438 239 438 239H416C413 239 410 239 410 242zM429 2C426 2 422 2 422 6C419 9 419 12 419 15C419 22 426 28 432 28S445 22 445 15C445 12 442 9 442 6C435 6 432 2 429 2zM442 239C445 239 445 239 445 242C445 246 442 246 442 246H416C413 246 413 246 413 242C413 239 416 239 416 239" />
    <glyph glyph-name="modules"
      unicode="&#xF184;"
      horiz-adv-x="512" d=" M256 437L2 364V11L256 -61L510 11V364zM236 -15L41 41V312L236 256zM471 41L276 -15V256L471 312V41zM256 291L70 344L256 397L442 344z" />
    <glyph glyph-name="more"
      unicode="&#xF185;"
      horiz-adv-x="512" d=" M0 -2V378H100V340H50V36H100V-2zM122 94C122 104 125 112 130 117C136 123 143 126 154 126C164 126 172 123 177 117C183 111 185 103 185 94C185 83 183 75 177 70C172 64 164 61 154 61C143 61 136 64 130 69C125 75 122 83 122 94zM225 94C225 104 227 112 233 117C238 123 246 126 256 126S274 123 280 117C285 111 288 103 288 94C288 83 285 75 280 70C274 64 266 61 256 61S238 64 233 69C227 75 225 83 225 94zM327 94C327 104 330 112 335 117C341 123 348 126 358 126C369 126 377 123 382 117C388 111 390 103 390 94C390 83 387 75 382 70C377 64 369 61 358 61C348 61 341 64 335 69C330 75 327 83 327 94zM412 36H462V340H412V378H512V-2H412z" />
    <glyph glyph-name="move"
      unicode="&#xF186;"
      horiz-adv-x="512" d=" M511 188L375 325V260C103 260 81 99 81 67C140 196 375 132 375 132V67zM1 392V-16H341V52H307V18H35V358H307V324H341V392z" />
    <glyph glyph-name="movie"
      unicode="&#xF187;"
      horiz-adv-x="512" d=" M0 444V-68H512V444zM64 -36H32V-4H64zM64 60H32V92H64zM64 156H32V188H64zM64 252H32V284H64zM64 348H32V380H64zM416 -4H96V156H416zM416 220H96V380H416zM480 -36H448V-4H480zM480 60H448V92H480zM480 156H448V188H480zM480 252H448V284H480zM480 348H448V380H480z" />
    <glyph glyph-name="music"
      unicode="&#xF188;"
      horiz-adv-x="512" d=" M134 374V70C128 71 122 71 116 71C69 71 30 40 30 2S69 -66 116 -66C161 -66 197 -39 202 -5V319L409 360V138C403 139 397 140 392 140C344 140 306 109 306 71S344 2 392 2C436 2 472 30 477 64H478V442z" />
    <glyph glyph-name="new-planning-element"
      unicode="&#xF189;"
      horiz-adv-x="512" d=" M64 444H248V316H64zM0 444H32V-68H0zM64 252H512V124H64zM64 60H390V-68H64z" />
    <glyph glyph-name="news"
      unicode="&#xF18A;"
      horiz-adv-x="512" d=" M461 401S376 317 285 304C276 278 270 250 270 221S276 164 285 137C376 125 461 40 461 40C527 139 527 303 461 401zM231 40C214 57 206 101 207 139H231V237V303H67C31 303 2 266 2 221S31 139 67 139H115C124 118 133 91 133 73C133 40 166 -25 199 -25C231 -25 264 8 231 40zM67 172C49 172 35 190 35 213C35 235 49 254 67 254z" />
    <glyph glyph-name="no-hierarchy"
      unicode="&#xF18B;"
      horiz-adv-x="512" d=" M320 316V348H224V28H320V60H256V124H320V156H256V220H320V252H256V316z" />
    <glyph glyph-name="no-zen-mode"
      unicode="&#xF18C;"
      horiz-adv-x="512" d=" M128 338L13 457L-13 431L106 316H0V284H160V444H128zM512 284V316H406L525 431L499 457L384 338V444H352V284zM512 60V92H352V-68H384V38L499 -81L525 -55L406 60zM0 92V60H106L-13 -55L13 -81L128 38V-68H160V92z" />
    <glyph glyph-name="not-supported"
      unicode="&#xF18D;"
      horiz-adv-x="512" d=" M256 442C116 442 2 328 2 188S116 -66 256 -66S510 48 510 188S396 442 256 442zM256 373C294 373 330 361 360 341L103 84C83 114 71 150 71 188C71 290 154 373 256 373zM256 3C217 3 181 15 152 36L408 293C429 263 441 227 441 188C441 86 358 3 256 3z" />
    <glyph glyph-name="notes"
      unicode="&#xF18E;"
      horiz-adv-x="512" d=" M416 412V444H384V412H320V444H288V412H224V444H192V412H128V444H96V412H0V-68H512V412zM448 -4H64V348H96V316H128V348H192V316H224V348H288V316H320V348H384V316H416V348H448z" />
    <glyph glyph-name="openproject"
      unicode="&#xF18F;"
      horiz-adv-x="512" d=" M411 443H357C309 443 270 404 270 356V218H175C172 218 170 217 168 217C164 217 160 218 155 218H101C53 218 14 179 14 131V20C14 -28 53 -67 101 -67H155C203 -67 242 -28 242 20V131C242 141 240 150 237 159H270V58C270 42 283 30 299 30S328 42 328 58V159H345C349 159 353 158 357 158H411C459 158 498 197 498 245V356C498 404 459 443 411 443zM184 20C184 5 171 -8 155 -8H101C85 -8 73 4 73 20V131C73 147 85 159 101 159H155C171 159 184 147 184 131V20zM439 245C439 229 427 217 411 217H357C355 217 353 217 351 218H354H351C338 221 328 231 328 245V356C328 371 341 384 357 384H411C426 384 439 372 439 356z" />
    <glyph glyph-name="ordered-list"
      unicode="&#xF190;"
      horiz-adv-x="512" d=" M160 380H512V316H160zM160 220H512V156H160zM160 60H512V-4H160zM20 374L48 398H61V317H78V305H27V317H45V371C45 373 46 375 46 377L32 366S31 366 31 365H29C28 365 27 365 27 366C26 366 25 366 25 367zM18 145V150V154C19 155 19 156 20 157L48 185C51 187 53 190 55 192C56 194 58 196 59 198C61 200 61 202 62 205C63 207 63 209 63 212C63 214 63 216 62 218C62 219 61 221 59 222C58 223 57 224 55 224C54 225 52 225 50 225C46 225 43 224 40 222C38 220 36 218 35 215C35 213 34 212 33 211S31 210 29 210H27L19 212C20 216 21 220 23 223C25 227 27 230 30 232C32 234 35 236 39 237S46 239 50 239C55 239 59 238 62 237C66 235 69 234 71 231C74 229 76 226 77 223C79 220 79 216 79 212C79 209 79 206 78 203S76 197 74 194C72 192 70 189 68 187C66 184 63 182 61 179L40 158C42 158 44 159 46 159S50 160 52 160H75C77 160 78 159 79 158S81 156 81 154V145zM20 7L27 10C28 10 30 11 31 11S33 10 34 10S35 9 36 8C37 6 37 5 38 3C39 2 40 1 42 0C43 -2 44 -2 46 -3S50 -4 52 -4C55 -4 57 -4 59 -3S63 -1 64 1C66 2 67 4 67 5C68 7 68 9 68 10V16C67 18 66 20 65 21C63 22 61 23 58 24C56 25 52 25 47 25V37C51 37 54 37 57 38C59 38 61 39 63 40C64 42 66 43 66 45C67 47 67 48 67 50C67 55 66 58 63 60C61 63 58 64 54 64S47 63 44 61C42 59 40 56 39 53C39 52 38 50 37 50C36 49 35 49 33 49H31L23 50C24 55 25 59 27 62S31 68 34 70C36 73 40 74 43 75C47 77 50 77 55 77C59 77 63 76 66 75S72 72 75 70C77 68 79 66 80 63C82 60 82 57 82 53C82 50 82 48 81 45C81 43 80 41 78 40C77 38 76 37 74 35L68 32C73 31 77 28 80 24C83 21 84 16 84 11S83 2 82 -1C80 -5 78 -8 75 -10C72 -13 69 -14 65 -16C61 -17 57 -17 53 -17C48 -17 44 -17 40 -16C37 -15 34 -13 31 -11C29 -9 27 -7 25 -3C23 0 22 3 20 7z" />
    <glyph glyph-name="outline"
      unicode="&#xF191;"
      horiz-adv-x="512" d=" M451 239H298V380C298 415 269 444 234 444H64C29 444 0 415 0 380V211C0 175 29 146 64 146H205V-7C205 -40 233 -68 267 -68H451C485 -68 512 -40 512 -7V177C512 211 485 239 451 239zM16 380C16 406 38 428 64 428H234C260 428 282 406 282 380V239H267C233 239 205 211 205 177V162H64C38 162 16 184 16 211zM438 68H375V7H338V68H275V105H338V170H375V105H438zM68 313H230V277H68z" />
    <glyph glyph-name="paragraph-left"
      unicode="&#xF192;"
      horiz-adv-x="512" d=" M512 348C512 330 498 316 480 316H256C238 316 224 330 224 348S238 380 256 380H480C498 380 512 366 512 348zM512 28C512 10 498 -4 480 -4H256C238 -4 224 10 224 28S238 60 256 60H480C498 60 512 46 512 28zM512 188C512 206 498 220 480 220H416C398 220 384 206 384 188S398 156 416 156H480C498 156 512 170 512 188zM128 156V220H288V156zM0 188L128 284V92z" />
    <glyph glyph-name="paragraph-right"
      unicode="&#xF193;"
      horiz-adv-x="512" d=" M0 348C0 330 14 316 32 316H256C274 316 288 330 288 348S274 380 256 380H32C14 380 0 366 0 348zM128 188C128 206 114 220 96 220H32C14 220 0 206 0 188S14 156 32 156H96C114 156 128 170 128 188zM0 28C0 10 14 -4 32 -4H256C274 -4 288 10 288 28S274 60 256 60H32C14 60 0 46 0 28zM384 156V220H224V156zM512 188L384 284V92z" />
    <glyph glyph-name="paragraph"
      unicode="&#xF194;"
      horiz-adv-x="512" d=" M475 443H147V441C85 433 37 380 37 316C37 251 85 199 147 190V-67H220V370H292V-67H365V370H475z" />
    <glyph glyph-name="payment-history"
      unicode="&#xF195;"
      horiz-adv-x="512" d=" M244 121C221 121 201 128 186 136L176 95C189 88 212 81 235 80V47H269V83C309 90 331 116 331 147S314 197 273 212C243 223 231 230 231 242C231 252 238 261 261 261C286 261 302 253 311 250L321 289C310 294 294 299 271 300V331H237V298C199 291 178 267 178 236C178 202 203 185 240 172C266 164 277 155 277 142C277 128 264 121 244 121zM448 353C403 404 341 435 273 440C181 446 94 403 44 329L1 350L16 204L123 289L90 305C131 361 199 392 269 387C324 384 373 359 409 319C445 278 462 227 458 174C451 64 353 -19 241 -11C182 -7 127 22 91 70L50 39C94 -21 163 -58 238 -64H256C389 -64 501 37 511 170C515 237 493 302 448 353z" />
    <glyph glyph-name="phone"
      unicode="&#xF196;"
      horiz-adv-x="512" d=" M481 45L478 51C470 70 373 98 365 99C363 99 361 99 359 98C345 95 331 83 300 56C265 72 218 114 196 140C171 167 141 213 130 247C165 278 180 291 181 306C182 314 165 414 147 425C146 425 144 427 142 428C131 435 114 446 95 442C90 441 86 439 82 437C69 429 38 407 24 379C16 362 12 203 131 68C249 -65 394 -71 416 -66H419C448 -55 473 -27 483 -15C500 6 488 31 481 45z" />
    <glyph glyph-name="pin"
      unicode="&#xF197;"
      horiz-adv-x="512" d=" M321 444L290 349L195 255L164 286L69 255L164 160L132 129L2 -66L195 66L227 97L177 147L321 3L353 97L321 129L416 223L510 255z" />
    <glyph glyph-name="play"
      unicode="&#xF198;"
      horiz-adv-x="512" d=" M436 368C337 468 175 468 76 368C-24 269 -24 107 76 8C175 -92 337 -92 436 8C536 107 536 269 436 368zM298 114L171 39V337L298 262L426 188z" />
    <glyph glyph-name="plugins"
      unicode="&#xF199;"
      horiz-adv-x="512" d=" M176 338L80 220C45 172 64 98 125 47S266 -4 301 41L397 162zM297 422L329 396L256 304L223 329zM416 330L449 304L376 211L343 237zM64 -14L80 -26L134 44L125 47L118 54z" />
    <glyph glyph-name="plus"
      unicode="&#xF19A;"
      horiz-adv-x="512" d=" M469 443H43C20 443 1 424 1 401V-25C1 -48 20 -67 43 -67H469C492 -67 511 -48 511 -25V401C511 424 492 443 469 443zM426 145H299V18H213V145H86V231H213V358H299V231H426z" />
    <glyph glyph-name="pre"
      unicode="&#xF19B;"
      horiz-adv-x="512" d=" M2 60V313H22C26 313 29 310 30 306L33 284C41 294 51 301 61 307S83 316 97 316C107 316 117 314 126 310S142 299 149 291C155 283 160 273 163 261S168 235 168 220C168 206 166 193 162 181C159 169 153 158 146 150C139 141 131 134 121 129S99 121 86 121C75 121 65 123 57 127C48 131 41 136 35 144V60zM35 169C41 161 48 155 55 152S70 147 79 147C97 147 110 153 120 166C129 178 134 196 134 220C134 232 133 243 131 251C128 260 125 268 121 273C117 279 112 283 106 286C100 288 93 290 86 290C75 290 65 287 57 282S42 270 35 261zM207 124V313H226C230 313 232 312 233 311C235 309 236 307 236 304L239 275C245 288 253 298 263 305C272 312 283 316 296 316C301 316 306 315 310 314C315 313 318 311 322 309L318 286C317 283 315 281 312 281C310 281 308 282 304 283S295 285 289 285C277 285 268 281 260 275C252 268 246 258 240 245V124zM344 222C344 235 346 248 350 259S360 280 367 289C375 297 384 304 395 308C406 313 419 316 432 316C444 316 454 314 463 310C473 306 481 301 488 293C495 286 501 277 504 267C508 256 510 245 510 231C510 226 510 222 509 221C508 219 505 218 502 218H377C377 206 379 196 382 187S389 171 394 165S406 155 413 152S428 148 437 148C445 148 453 149 459 151S470 155 474 157S482 161 485 163S490 166 492 166C495 166 497 165 499 163L508 151C504 146 499 141 493 137C488 134 481 131 475 128C468 126 462 124 455 123S441 121 434 121C421 121 409 123 398 128C387 132 377 139 369 147C361 156 355 166 351 179C346 191 344 206 344 222zM378 239H481C481 247 480 254 478 260C475 267 472 272 468 277S459 285 453 288C447 290 441 292 433 292C417 292 404 287 395 278C386 268 380 255 378 239z" />
    <glyph glyph-name="presentation"
      unicode="&#xF19C;"
      horiz-adv-x="512" d=" M77 157C82 155 86 157 88 162L108 220L154 150L201 223L249 145L293 282C294 286 292 290 287 292C283 293 279 291 277 286L244 183L201 253L154 179L104 256L72 167C71 163 73 158 77 157zM304 412V444H240V412H16V92H240V31L113 -68H145L240 -3V-4H304V-3L399 -68H431L304 31V92H496V412zM464 124H48V340H464zM421 258C421 235 402 216 378 216C355 216 336 235 336 258S355 300 378 300C402 300 421 281 421 258zM336 188H368V156H336zM400 188H432V156H400z" />
    <glyph glyph-name="preview"
      unicode="&#xF19D;"
      horiz-adv-x="512" d=" M124 78V64C208 -75 403 -75 486 64V78C403 217 208 217 124 78zM305 -13C259 -13 222 25 222 71S259 154 305 154C352 154 389 117 389 71S352 -13 305 -13zM347 71C347 48 328 29 305 29S264 48 264 71S282 113 305 113S347 94 347 71zM430 325L312 444H37V-68H164V-22H83V398H293L384 306V215H430V325z" />
    <glyph glyph-name="print"
      unicode="&#xF19E;"
      horiz-adv-x="512" d=" M480 252H416V311L316 412H96V252H32L0 220V60H96V-36H416V60H512V220zM64 188H32V220H64zM384 92V-4H128V156H384zM384 252H128V380H288V284H384zM475 100H445V148H475zM352 92H160V124H352zM352 28H160V60H352z" />
    <glyph glyph-name="priority"
      unicode="&#xF19F;"
      horiz-adv-x="512" d=" M256 332C212 332 176 296 176 252S212 172 256 172S336 208 336 252S300 332 256 332zM416 252C416 263 415 273 413 283L439 311L401 319C392 338 380 355 364 369L369 407L334 391C316 401 296 408 275 410L256 444L237 410C216 408 196 401 178 391L143 407L148 369C132 355 120 338 111 319L73 311L99 283C97 273 96 263 96 252S97 231 99 221L73 193L111 185C120 166 132 149 148 135L153 130L128 -68L256 60L384 -68L359 130L364 135C380 149 392 166 401 185L439 193L413 221C415 231 416 241 416 252zM256 140C194 140 144 190 144 252S194 364 256 364S368 314 368 252S318 140 256 140z" />
    <glyph glyph-name="project-types"
      unicode="&#xF1A0;"
      horiz-adv-x="512" d=" M426 325L308 444H33V-68H211V-22H79V398H289L380 306V212H426V325zM262 94L370 40L477 94L370 147zM370 20L303 53L262 40L370 -14L477 40L439 54zM370 -34L303 -1L262 -14L370 -68L477 -14L439 0z" />
    <glyph glyph-name="projects"
      unicode="&#xF1A1;"
      horiz-adv-x="512" d=" M0 316L256 188L512 316L256 444zM256 141L98 220L0 188L256 60L512 188L422 222zM256 13L98 92L0 60L256 -68L512 60L422 94z" />
    <glyph glyph-name="publish"
      unicode="&#xF1A2;"
      horiz-adv-x="512" d=" M256 442C115 442 1 328 1 188S115 -66 256 -66S511 48 511 188S397 442 256 442zM358 76C358 74 358 71 356 69V70C344 61 344 35 329 29C321 25 322 36 325 40C330 46 323 50 326 56C323 57 320 64 320 67C323 68 325 70 325 69C326 70 330 77 330 78C331 72 323 61 326 56C327 56 327 56 329 58C329 55 329 52 331 49C327 63 341 63 348 72C350 75 354 84 357 85C359 83 359 80 358 77C359 79 358 77 358 76zM429 240C424 249 420 263 412 269C414 267 414 265 413 262C409 263 405 266 403 269C403 271 407 267 405 272C398 271 393 278 388 282C379 283 369 275 359 280C357 282 355 289 351 285C349 283 347 283 345 283C334 287 329 296 320 296C320 292 327 286 330 284C334 282 337 271 338 280C344 277 339 269 348 272C355 269 353 280 355 283C357 282 358 277 359 275C363 272 368 273 371 270C375 266 378 259 377 254C373 255 376 250 373 246C371 242 371 241 369 237C365 236 359 234 360 228C357 224 329 204 325 210S320 226 316 233C310 235 299 249 297 254C298 264 273 282 269 283C272 270 283 263 288 253C293 244 301 224 307 222C319 223 325 203 331 199C339 193 355 211 362 209C362 200 362 197 359 187C354 166 344 157 332 141C325 131 320 124 315 114C311 105 323 88 320 83C322 70 318 62 306 55C298 50 290 45 293 36C296 26 284 25 283 19C279 11 274 6 268 3C264 2 260 2 256 2C249 2 241 3 234 3C224 15 214 28 204 40C198 47 189 60 199 69C200 75 193 89 189 94C184 103 159 122 169 133C170 139 164 146 164 152C159 156 154 146 149 155C143 164 133 162 125 156C123 155 100 151 98 153C81 168 76 193 82 213C84 222 84 237 91 243C94 252 104 261 109 268C112 272 117 272 120 276C126 282 128 289 135 295C141 300 156 309 144 311C148 318 156 326 159 334C163 337 171 336 176 338C180 347 181 346 180 352C181 355 191 358 194 358C198 360 202 364 206 367C222 371 239 374 256 374C349 374 426 306 440 218C436 226 432 236 429 240zM253 352C254 352 254 353 255 354C249 352 252 358 247 352C248 347 242 343 245 338C250 333 256 341 262 342C262 338 274 339 276 338C273 339 277 339 276 338C287 345 253 352 253 352zM244 319C244 322 241 322 239 326C244 331 236 328 240 334C238 335 236 335 233 334C232 330 235 331 230 332C229 328 234 326 233 322C233 323 232 323 231 323C230 320 231 321 231 317C223 318 227 324 221 332C227 337 209 346 211 349C199 345 221 332 218 329C212 332 216 328 213 324C207 318 208 316 200 319C200 325 215 319 208 332C204 337 201 345 195 340C188 336 177 334 172 325C169 322 149 306 149 305C157 299 188 324 195 316C195 311 189 307 189 302C191 301 192 299 194 299C204 301 202 294 209 292C222 289 212 291 220 299C222 301 236 301 237 297C237 300 243 298 237 297C243 298 249 292 254 296C257 300 259 299 262 297C273 289 269 320 269 322C266 319 243 317 244 319zM195 324C193 323 192 323 191 323C192 326 196 338 199 338C199 334 195 328 195 324zM195 324C195 327 193 324 195 324zM293 352C294 353 294 356 296 356C294 364 286 357 286 352C289 348 302 342 303 338C300 337 304 328 309 328C312 325 316 325 320 326C319 334 299 349 293 352zM309 328C305 328 311 326 309 328zM318 351C315 352 312 359 309 360C308 358 308 358 308 357C308 358 309 355 308 357C309 355 315 348 318 351zM179 340C178 339 177 339 176 338H175C177 338 178 341 179 340z" />
    <glyph glyph-name="pulldown-up"
      unicode="&#xF1A3;"
      horiz-adv-x="512" d=" M512 60L256 316L0 60z" />
    <glyph glyph-name="pulldown"
      unicode="&#xF1A4;"
      horiz-adv-x="512" d=" M0 316L256 60L512 316z" />
    <glyph glyph-name="quote"
      unicode="&#xF1A5;"
      horiz-adv-x="512" d=" M160 -68V63C69 78 0 157 0 252C0 358 86 444 192 444H320C426 444 512 358 512 252C512 150 432 66 331 60zM192 380C121 380 64 323 64 252S121 124 192 124H224V60L309 124H320C391 124 448 181 448 252S391 380 320 380z" />
    <glyph glyph-name="quote2"
      unicode="&#xF1A6;"
      horiz-adv-x="512" d=" M1 172C1 329 90 383 219 389L237 307C172 299 141 269 141 219H226V-9H1zM275 172C275 329 364 383 493 389L511 307C446 299 415 269 415 219H500V-9H275z" />
    <glyph glyph-name="redo"
      unicode="&#xF1A7;"
      horiz-adv-x="512" d=" M424 248C414 273 398 295 379 315C337 357 281 380 222 380S107 357 65 315S0 218 0 158C0 99 23 43 65 2C72 -5 81 -8 89 -8C98 -8 107 -5 113 2C127 15 127 37 113 50C84 79 68 117 68 158S84 238 113 267S181 312 222 312S301 296 330 267C352 245 366 219 372 189L299 107H512V346z" />
    <glyph glyph-name="relation-follows"
      unicode="&#xF1A8;"
      horiz-adv-x="512" d=" M160 269.1H497.3V43.6999999999999H160V269.0999999999999z M180.4 248.8H476.9V194H180.4V248.8z M5.7 183.1L103.6 183.9L103.6 137L5.6 137 M165.8 156.2C130.6 131.5 87.1 89.5 60.2 44.8V267.5C87.1 223.1 130.6 180.9 165.8 156.2z" />
    <glyph glyph-name="relation-new-child"
      unicode="&#xF1A9;"
      horiz-adv-x="512" d=" M170 274.2000000000001H507.3V48.8H170V274.2z M190.4 253.9H486.9V199.1H190.4V253.9z M15.7 188.2L113.6 189L113.6 142.1L15.6 142.1 M175.8 161.3C140.6 136.6 97.1 94.6 70.2 49.9V272.6C97.1 228.2 140.6 186 175.8 161.3z M43.8 345.4L44.5 142.6L6.6 142.6L6.6 345.6" />
    <glyph glyph-name="relation-precedes"
      unicode="&#xF1AA;"
      horiz-adv-x="512" d=" M287.1 193.6 M221 243.3L222 242.3L223 242.3L222 243.3z M35 274.4H361.2V56.4H35V274.4z M54.7 254.8H341.4V201.8H54.7V254.8z M352 191.2L446.6 192L446.6 146.6L351.9 146.6 M506.8 165.2C472.8 141.3000000000001 430.7000000000001 100.7000000000001 404.7000000000001 57.5V272.9C430.7 229.9 472.8 189.1 506.8 165.2z" />
    <glyph glyph-name="relations"
      unicode="&#xF1AB;"
      horiz-adv-x="512" d=" M154 73.2000000000001C133.9 73.2000000000001 113.8 80.8000000000001 98.5 96.1C83.7 110.9 75.5 130.6 75.5 151.6C75.5 172.5 83.7 192.2 98.5 207.1C129.1 237.7 178.8 237.7 209.4 207.1C224.2 192.3 232.4 172.6 232.4 151.6C232.4 130.7000000000001 224.2 111 209.4 96.1L209.4 96.1L209.4 96.1C194.2 80.9 174.1 73.2000000000001 154 73.2000000000001zM154 193.7C143.2 193.7 132.4 189.6 124.2 181.4C116.3 173.5 111.9 162.9 111.9 151.6C111.9 140.4 116.3 129.8 124.2 121.8C132.1 113.9 142.7 109.5 154 109.5S175.8 113.9 183.8 121.8L183.8 121.8C191.7 129.6999999999999 196.1 140.3 196.1 151.6C196.1 162.8 191.7 173.4 183.8 181.4C175.5 189.6 164.8 193.7 154 193.7z M232.3 138.4C223.6 138.4 216.4 145.3 216.1 154C215.8 163 222.7 170.5 231.7 170.9L296.7000000000001 173.4C305.6 173.7 313.2000000000001 166.8 313.6 157.8C313.9000000000001 148.8 307 141.3 298 140.9L233 138.4C232.8 138.4 232.6 138.4 232.3 138.4z M414.3 122.7000000000001C434.5 142.9 434.5 175.6 414.3 195.7C394.1 215.9 361.4000000000001 215.9 341.3 195.7C321.1 175.5 321.1 142.8000000000001 341.3 122.7000000000001C361.4 102.5 394.1 102.5 414.3 122.7000000000001 M330.3 300.2000000000001C350.5 320.4 350.5 353.1 330.3 373.2000000000001C310.1 393.4 277.4 393.4 257.3 373.2000000000001C237.1 353 237.1 320.3000000000001 257.3 300.2000000000001S310.1 280 330.3 300.2000000000001 M332.3 -58.3000000000001C352.5 -38.1 352.5 -5.4000000000001 332.3 14.6999999999999C312.1 34.9 279.4 34.9 259.3 14.6999999999999S239.1 -38.2 259.3 -58.3000000000001C279.4 -78.5 312.1 -78.5 332.3 -58.3000000000001 M198.8 199.7C195.6 199.7 192.4 200.6 189.5 202.6C182.1 207.7 180.3 217.9 185.4 225.2L222.5 278.6C227.6 286 237.8 287.8 245.1 282.7000000000001C252.5 277.6 254.3 267.4 249.2 260.1L212.1 206.7C209 202.2 203.9 199.7 198.8 199.7z M241 21.1999999999999C236.1 21.1999999999999 231.3 23.4 228.1 27.5999999999999L188.7 79.3C183.3 86.4 184.6 96.5999999999999 191.8 102.0999999999999C198.9 107.4999999999999 209.1 106.1999999999999 214.6 98.9999999999999L254 47.2999999999998C259.4 40.1999999999998 258.1 29.9999999999999 250.9 24.4999999999999C247.8 22.3 244.4 21.1999999999999 241 21.1999999999999z" />
    <glyph glyph-name="reload"
      unicode="&#xF1AC;"
      horiz-adv-x="512" d=" M295 404C192 404 107 332 85 236L2 237L114 56L230 235L153 236C173 295 229 338 294 338C377 338 444 270 444 188C444 105 377 38 294 38C264 38 236 48 212 63L176 8C210 -14 251 -28 294 -28C413 -28 510 69 510 188S413 404 295 404z" />
    <glyph glyph-name="reminder"
      unicode="&#xF1AD;"
      horiz-adv-x="512" d=" M250 287C324 287 383 227 383 153C383 80 324 20 250 20S116 80 116 153C116 227 176 287 250 287M250 354C139 354 50 264 50 153C50 43 139 -47 250 -47S450 43 450 153C450 264 361 354 250 354zM239 144C230 144 223 151 223 160V194C223 203 230 210 239 210C249 210 256 203 256 194V160C256 151 249 144 239 144zM294 100C290 100 286 101 283 104L229 147C222 153 220 163 226 171C232 178 243 179 250 173L304 130C311 124 312 114 307 106C303 102 298 100 294 100zM491 262C520 307 515 367 476 406S377 450 332 421zM21 262C-8 307 -3 367 36 406S135 450 180 421zM442 -59C435 -65 425 -65 418 -59L371 -12C364 -5 364 6 371 12C377 19 388 19 394 12L442 -35C448 -42 448 -52 442 -59zM70 -59C77 -65 87 -65 94 -59L141 -12C148 -5 148 6 141 12C135 19 124 19 118 12L70 -35C64 -42 64 -52 70 -59z" />
    <glyph glyph-name="remove"
      unicode="&#xF1AE;"
      horiz-adv-x="512" d=" M451 -64L4 383L61 440L508 -7zM507 383L60 -64L4 -8L451 439z" />
    <glyph glyph-name="rename"
      unicode="&#xF1AF;"
      horiz-adv-x="512" d=" M448 252L512 316L448 380H288V444H224V380H96V252H224V220H64L0 156L64 92H224V-68H288V92H416V220H288V252z" />
    <glyph glyph-name="reported-by-me"
      unicode="&#xF1B0;"
      horiz-adv-x="512" d=" M478 9C468 23 437 33 406 46C376 59 368 63 368 63V94S380 103 383 131C390 129 398 142 398 149C399 156 397 174 389 172C390 186 392 199 391 205C389 230 365 255 329 255S270 230 268 205C267 199 268 186 270 172C261 174 260 156 260 149C261 142 268 129 276 131C279 103 291 94 291 94L290 63S283 59 252 46C222 33 190 23 181 9C173 -5 175 -68 175 -68H483S486 -5 478 9zM185 102C186 105 187 109 187 113S186 121 185 124C183 128 181 131 179 134C176 136 173 138 169 140C166 141 162 142 158 142C155 142 152 141 149 140C146 138 143 136 141 134C139 131 137 128 136 124C135 121 134 117 134 113S135 105 136 102C137 98 139 95 141 93C143 90 146 88 149 87C152 85 155 84 158 84C162 84 166 85 169 87C173 88 176 90 179 93C181 95 183 98 185 102zM138 221C139 209 140 197 142 185H175C177 198 178 209 180 221C181 232 181 243 181 255V365H136V255C136 243 136 232 138 221zM74 398H284L389 293L422 325L303 444H28V-68H108V-22H74z" />
    <glyph glyph-name="resizer-vertical-lines"
      unicode="&#xF1B1;"
      horiz-adv-x="512" d=" M192 412H224V-100H192V412z M256 412H288V-100H256V412z" />
    <glyph glyph-name="roadmap"
      unicode="&#xF1B2;"
      horiz-adv-x="512" d=" M381 17C369 3 345 -8 327 -8H33C15 -8 0 6 0 24V352C0 369 15 384 33 384H327C345 384 369 373 381 359L502 213C514 199 514 177 502 163z" />
    <glyph glyph-name="rss"
      unicode="&#xF1B3;"
      horiz-adv-x="512" d=" M138 2C138 -36 108 -66 70 -66C33 -66 2 -36 2 2C2 39 33 70 70 70C108 70 138 39 138 2zM336 -62H246C245 2 220 61 175 107C130 152 70 177 6 178V268C187 265 333 119 336 -62zM510 -62H421C418 166 234 350 7 353V442C283 440 507 215 510 -62z" />
    <glyph glyph-name="rubber"
      unicode="&#xF1B4;"
      horiz-adv-x="512" d=" M503 -50C503 -59 496 -67 486 -67H45C36 -67 28 -59 28 -50S36 -33 45 -33H486C496 -33 503 -41 503 -50zM477 293L339 432C332 439 323 443 315 443C306 443 297 440 291 433L19 161C5 148 5 126 19 113L97 30C110 16 136 1 155 1H207C226 1 252 16 265 30L477 244C490 257 490 280 477 293zM237 54C231 47 217 35 207 35H155C145 35 128 47 121 54L43 134L166 259L303 122z" />
    <glyph glyph-name="save"
      unicode="&#xF1B5;"
      horiz-adv-x="512" d=" M256 60H192V-4H256zM0 444V-68H448L512 -4V444zM352 -36H160V92H352zM416 188H96V412H416z" />
    <glyph glyph-name="search"
      unicode="&#xF1B6;"
      horiz-adv-x="512" d=" M497 -2L361 122C361 123 361 123 360 123C386 156 401 197 401 242C401 352 311 441 201 441S2 352 2 242S91 43 201 43C241 43 278 55 309 75C310 73 311 71 313 70L448 -54C463 -68 483 -69 493 -58L504 -46C514 -35 511 -15 497 -2zM201 95C120 95 54 161 54 242S120 389 201 389C283 389 348 323 348 242S283 95 201 95z" />
    <glyph glyph-name="send-mail"
      unicode="&#xF1B7;"
      horiz-adv-x="512" d=" M164 288L308 416H20zM325 396C325 398 325 401 324 403L222 313L322 225C324 228 325 231 325 234zM3 404C2 401 2 399 2 396V234C2 231 3 229 4 226L105 313zM207 299L163 261L120 299L21 214H304zM254 -40L129 101C116 115 119 136 135 148C152 159 175 157 188 142L252 71L442 303C454 318 478 321 495 311C511 300 515 279 503 264z" />
    <glyph glyph-name="server-key"
      unicode="&#xF1B8;"
      horiz-adv-x="512" d=" M511 180C506 200 491 225 471 234C461 239 450 242 439 245L406 244C395 240 385 236 375 231C347 215 340 181 338 153C338 145 342 138 344 130C206 -14 236 57 203 -53L256 -68C283 -37 264 -53 322 -31L321 3L340 21L359 4L394 40L376 56L399 81L423 77C438 80 455 82 469 88C495 98 504 126 512 148C511 159 513 170 511 180zM454 169C448 163 438 162 432 168C425 174 425 183 431 189C437 196 447 196 453 190S460 175 454 169zM46 398H347V313H394V444H0V-68H132V-22H46zM101 191H287V160H101zM102 252H288V220H102zM102 313H288V281H102z" />
    <glyph glyph-name="settings"
      unicode="&#xF1B9;"
      horiz-adv-x="512" d=" M482 238H411C407 251 401 264 394 276L441 323C452 334 452 352 441 363L421 383C410 394 392 394 381 383L333 335C320 343 306 348 291 352V414C291 430 279 442 263 442H235C219 442 207 430 207 414V352C190 348 175 341 161 333L121 373C110 384 92 384 81 373L61 353C50 342 50 324 61 313L102 272C93 257 87 241 83 223H30C14 223 2 211 2 195V167C2 151 14 139 30 139H87C92 122 100 106 110 92L71 53C60 42 60 24 71 13L91 -7C102 -18 120 -18 131 -7L174 36C188 29 204 24 221 21V-38C221 -54 233 -66 249 -66H277C293 -66 305 -54 305 -38V28C320 33 333 40 345 49L391 3C402 -8 420 -8 431 3L451 23C462 34 462 52 451 63L401 113C407 125 412 139 415 153H482C498 153 510 165 510 181V209C510 225 498 238 482 238zM249 117C210 117 178 149 178 188S210 259 249 259S320 227 320 188S288 117 249 117z" />
    <glyph glyph-name="settings2"
      unicode="&#xF1BA;"
      horiz-adv-x="512" d=" M332 143H283C280 152 276 161 271 169L304 201C311 209 311 221 304 229L290 242C282 250 270 250 262 242L230 210C221 215 211 219 201 221V264C201 275 192 283 181 283H162C151 283 143 275 143 264V221C131 218 121 214 111 208L84 236C76 243 64 243 56 236L43 222C35 214 35 202 43 194L71 166C65 156 60 145 58 133H21C11 133 2 124 2 113V94C2 83 11 75 21 75H60C64 63 69 52 76 42L50 16C42 8 42 -4 50 -12L63 -25C71 -33 83 -33 91 -25L120 4C130 -1 141 -4 152 -6V-47C152 -57 161 -66 172 -66H191C202 -66 211 -57 211 -47V-1C220 2 230 7 238 13L269 -18C277 -26 289 -26 297 -18L310 -5C318 3 318 15 310 23L276 57C280 66 284 75 286 84H332C343 84 351 93 351 104V123C351 134 343 143 332 143zM172 60C145 60 123 82 123 109C123 135 145 157 172 157S220 135 220 109C220 82 199 60 172 60zM498 353H467C465 359 462 364 459 369L480 390C485 395 485 403 480 407L471 416C466 421 458 421 454 416L433 395C427 398 421 401 414 403V430C414 437 409 442 402 442H390C383 442 377 437 377 430V403C370 401 364 398 357 394L340 412C335 417 327 417 322 412L314 403C309 398 309 390 314 386L332 368C328 361 325 354 323 346H300C293 346 288 341 288 334V322C288 315 293 309 300 309H325C327 302 331 295 335 289L318 272C313 267 313 259 318 255L327 246C332 241 340 241 344 246L363 265C369 261 376 259 384 258V232C384 225 389 220 396 220H408C415 220 421 225 421 232V261C427 263 433 266 438 270L458 250C463 245 471 245 475 250L484 259C489 264 489 272 484 276L462 298C465 304 467 309 468 316H498C505 316 510 321 510 328V340C510 347 505 353 498 353zM396 300C379 300 365 314 365 331S379 362 396 362S427 348 427 331S413 300 396 300z" />
    <glyph glyph-name="settings3"
      unicode="&#xF1BB;"
      horiz-adv-x="512" d=" M504 347L436 280L361 296L345 371L413 439C402 441 391 443 380 444C309 444 251 386 251 315C251 300 254 286 259 272L27 42C-1 15 -4 -27 19 -51C43 -75 85 -72 113 -44L347 188C348 189 348 190 349 190C358 188 369 186 379 186C450 186 508 243 508 314C508 326 506 337 504 347z" />
    <glyph glyph-name="settings4"
      unicode="&#xF1BC;"
      horiz-adv-x="512" d=" M444 376V0H68V376H444M512 444H0V-68H512zM171 69H137V307H171zM273 69H239V307H273zM375 69H341V307H375zM205 256C205 247 197 239 188 239H119C110 239 102 247 102 256C102 266 110 273 119 273H188C197 273 205 266 205 256zM307 154C307 144 300 137 290 137H222C212 137 205 144 205 154C205 163 212 171 222 171H290C300 171 307 163 307 154zM410 222C410 213 402 205 393 205H324C315 205 307 213 307 222C307 232 315 239 324 239H393C402 239 410 232 410 222z" />
    <glyph glyph-name="shortcuts"
      unicode="&#xF1BD;"
      horiz-adv-x="512" d=" M457 -68H55C25 -68 0 -43 0 -13V389C0 419 25 444 55 444H457C487 444 512 419 512 389V-13C512 -43 487 -68 457 -68zM55 412C42 412 32 402 32 389V-13C32 -26 42 -36 55 -36H457C470 -36 480 -26 480 -13V389C480 402 470 412 457 412zM118 17C114 16 106 13 96 13C73 13 58 29 58 52S74 93 99 93C107 93 114 90 118 89L115 78C112 80 106 81 99 81C81 81 72 69 72 53C72 35 83 24 98 24C106 24 111 26 115 28zM153 113V91H173V80H153V39C153 30 155 24 163 24C167 24 169 25 171 25L172 15C169 14 165 13 160 13C153 13 148 15 145 19C141 23 139 30 139 39V80H127V91H139V109zM188 67V91H200V76H201C204 86 213 93 222 93C224 93 225 92 226 92V79C225 79 223 80 221 80C211 80 204 72 203 62C202 60 202 58 202 55V15H188zM240 127H254V15H240zM318 98V61H354V52H318V15H308V52H272V61H308V98z" />
    <glyph glyph-name="show-all-projects"
      unicode="&#xF1BE;"
      horiz-adv-x="512" d=" M160 380H512V316H160zM160 220H512V156H160zM160 60H512V-4H160zM0 396H96V300H0zM0 236H96V140H0zM0 76H96V-20H0z" />
    <glyph glyph-name="show-more-horizontal"
      unicode="&#xF1BF;"
      horiz-adv-x="512" d=" M71.28998 253.40953C109.79548 253.40953 141.69999 222.60551 141.69999 182.99952C141.69999 144.49496 109.79549 112.59046 71.28998 112.59046C32.78448 112.59046 0.87997 144.49496 0.87997 182.99952C0.87997 222.6055 32.78447 253.40953 71.28998 253.40953zM253.91599 253.40953C293.52103 253.40953 324.326 222.60551 324.326 182.99952C324.326 144.49496 293.52103 112.59046 253.91599 112.59046C215.4104900000001 112.59046 183.50598 144.49496 183.50598 182.99952C183.50693 222.6055 215.41048 253.40953 253.91599 253.40953zM440.9429800000001 253.40953C479.44848 253.40953 511.35299 222.60551 511.35299 182.99952C511.35299 144.49496 479.44849 112.59046 440.9429800000001 112.59046C402.4384200000001 112.59046 370.53392 144.49496 370.53392 182.99952C370.5329700000001 222.6055 402.4374800000001 253.40953 440.9429800000001 253.40953z" />
    <glyph glyph-name="show-more"
      unicode="&#xF1C0;"
      horiz-adv-x="512" d=" M326 348C326 313 298 284 262 284C227 284 198 313 198 348S227 412 262 412C298 412 326 383 326 348zM326 182C326 146 298 118 262 118C227 118 198 146 198 182C198 217 227 246 262 246C298 246 326 217 326 182zM326 12C326 -23 298 -52 262 -52C227 -52 198 -23 198 12S227 76 262 76C298 76 326 47 326 12z" />
    <glyph glyph-name="sort-ascending"
      unicode="&#xF1C1;"
      horiz-adv-x="512" d=" M256 444L182 315H330zM240 315H272V-68H240z" />
    <glyph glyph-name="sort-by"
      unicode="&#xF1C2;"
      horiz-adv-x="512" d=" M363 444L289 315H437zM347 315H379V-68H347zM149 -68L75 61H223zM133 444H165V61H133z" />
    <glyph glyph-name="sort-descending"
      unicode="&#xF1C3;"
      horiz-adv-x="512" d=" M256 -68L182 61H330zM240 444H272V61H240z" />
    <glyph glyph-name="sort-down"
      unicode="&#xF1C4;"
      horiz-adv-x="512" d=" M256 -67L31 323H481zM31 443H481V385H31z" />
    <glyph glyph-name="sort-up"
      unicode="&#xF1C5;"
      horiz-adv-x="512" d=" M256 443L31 53H481zM31 -9H481V-67H31z" />
    <glyph glyph-name="square"
      unicode="&#xF1C6;"
      horiz-adv-x="512" d=" M437 113L361 63V-12L437 -63L512 -12V63zM437 15L382 52L437 89L492 52zM393 439L302 378V286L393 225L485 286V378zM393 320L326 364L393 409L460 364zM158 305L0 200V42L158 -63L315 42V200zM158 101L43 177L158 254L273 177z" />
    <glyph glyph-name="star"
      unicode="&#xF1C7;"
      horiz-adv-x="512" d=" M256 430L319 249L511 245L358 129L413 -54L256 55L99 -54L154 129L1 245L193 249z" />
    <glyph glyph-name="status-reporting"
      unicode="&#xF1C8;"
      horiz-adv-x="512" d=" M374 101V153L448 254H374V305L448 406H374V408C374 428 355 444 331 444H180C156 444 137 428 137 408V406H63L137 305V254H63L137 153V101H63L137 1V-32C137 -52 156 -67 180 -67H331C355 -67 374 -52 374 -32V1L448 101zM324 187C324 150 294 120 257 120S190 150 190 187S220 254 257 254S324 224 324 187zM324 339C324 302 294 272 257 272S190 302 190 339S220 406 257 406S324 376 324 339zM257 -33C220 -33 190 -3 190 34S220 101 257 101S324 71 324 34S294 -33 257 -33z" />
    </font>
</defs>
</svg>
