<?xml version="1.0" standalone="no"?> 
<!DOCTYPE svg PUBLIC "-//W3C//DTD SVG 1.1//EN" "http://www.w3.org/Graphics/SVG/1.1/DTD/svg11.dtd" >
<svg xmlns="http://www.w3.org/2000/svg">
<defs>
  <font id="openproject-icon-font" horiz-adv-x="640">
    <font-face font-family="openproject-icon-font"
      units-per-em="640" ascent="540"
      descent="100" />
    <missing-glyph horiz-adv-x="0" />
    <glyph glyph-name="accessibility"
      unicode="&#xF101;"
      horiz-adv-x="640" d=" M320 563.75C152.5 563.75 16.25 427.5 16.25 260S152.5 -43.75 320 -43.75S623.75 92.5 623.75 260S487.5 563.75 320 563.75zM320 3.75C180 3.75 63.75 120 63.75 260S180 516.25 320 516.25S576.25 400 576.25 260S460 3.75 320 3.75zM320 463.75C207.5 463.75 116.25 372.5 116.25 260S207.5 56.25 320 56.25S523.75 147.5 523.75 260S432.5 463.75 320 463.75zM320 423.75C332.5 423.75 340 420 347.5 412.5C356.25 403.75 360 396.25 360 383.75C360 360 343.75 343.75 320 343.75S280 360 280 383.75C280 396.25 283.75 403.75 292.5 412.5C300 420 307.5 423.75 320 423.75zM383.75 103.75C376.25 100 367.5 103.75 360 112.5V116.25C343.75 140 332.5 172.5 320 203.75C307.5 172.5 296.25 140 280 112.5V107.5C272.5 100 263.75 96.25 256.25 100C252.5 103.75 247.5 112.5 252.5 120C252.5 123.75 252.5 123.75 256.25 127.5C272.5 160 287.5 196.25 296.25 232.5V292.5C263.75 292.5 232.5 296.25 200 300C192.5 300 183.75 307.5 183.75 316.25C183.75 323.75 192.5 332.5 200 332.5C280 323.75 356.25 323.75 436.25 332.5C443.75 332.5 452.5 327.5 456.25 316.25C456.25 307.5 447.5 300 440 300C407.5 296.25 376.25 296.25 343.75 296.25V240C352.5 200 367.5 167.5 383.75 136.25C383.75 132.5 387.5 132.5 387.5 127.5C392.5 116.25 392.5 107.5 383.75 103.75z" />
    <glyph glyph-name="add"
      unicode="&#xF102;"
      horiz-adv-x="640" d=" M360 300V580H280V300H0V220H280V-60H360V220H640V300z" />
    <glyph glyph-name="align-center"
      unicode="&#xF103;"
      horiz-adv-x="640" d=" M440 440H200V480H440zM640 280H0V320H640zM520 360H80V400H520zM600 200H40V240H600zM520 120H120V160H520zM560 40H40V80H560z" />
    <glyph glyph-name="align-justify"
      unicode="&#xF104;"
      horiz-adv-x="640" d=" M0 440H640V480H0zM0 360H640V400H0zM0 280H640V320H0zM0 200H640V240H0zM0 120H640V160H0zM0 40H640V80H0z" />
    <glyph glyph-name="align-left"
      unicode="&#xF105;"
      horiz-adv-x="640" d=" M440 440H0V480H440zM640 360H0V400H640zM480 280H0V320H480zM600 200H0V240H600zM440 120H0V160H440zM560 40H0V80H560z" />
    <glyph glyph-name="align-right"
      unicode="&#xF106;"
      horiz-adv-x="640" d=" M200 440H640V480H200zM0 360H640V400H0zM160 280H640V320H160zM40 200H640V240H40zM200 120H640V160H200zM80 40H640V80H80z" />
    <glyph glyph-name="arrow-down1"
      unicode="&#xF107;"
      horiz-adv-x="640" d=" M282.5 67.5L15 367.5C-5 390 -5 430 15 452.5C36.25 476.25 70 476.25 90 452.5L320 195L548.75 452.5C570 476.25 603.75 476.25 625 452.5C635 441.25 640 426.25 640 410S635 378.75 625 367.5L357.5 67.5C347.5 56.25 333.75 50 320 50C305 50 292.5 56.25 282.5 67.5z" />
    <glyph glyph-name="arrow-down2"
      unicode="&#xF108;"
      horiz-adv-x="640" d=" M640 543.75L320 -23.75L0 543.75z" />
    <glyph glyph-name="arrow-left-right"
      unicode="&#xF109;"
      horiz-adv-x="640" d=" M638.75 407.5L412.5 572.5L408.75 495C60 508.75 12.5 316.25 11.25 277.5C95 428.75 363.75 341.25 402.5 338.75L400 261.25zM408.75 481.25L402.5 341.25C403.75 377.5 406.25 413.75 408.75 481.25zM237.5 181.25L240 258.75L1.25 112.5L227.5 -52.5L233.75 87.5C232.5 70 232.5 50 231.25 25C580 11.25 627.5 203.75 628.75 242.5C545 91.25 276.25 178.75 237.5 181.25z" />
    <glyph glyph-name="arrow-left1"
      unicode="&#xF10A;"
      horiz-adv-x="640" d=" M8.75 233.75C7.5 235 7.5 236.25 6.25 237.5C6.25 237.5 5 238.75 5 240S3.75 241.25 3.75 242.5V243.75C3.75 245 2.5 246.25 2.5 246.25C2.5 247.5 1.25 248.75 1.25 250V253.75C1.25 255 1.25 255 0 256.25V260V263.75C1.25 265 1.25 266.25 1.25 267.5V270C1.25 271.25 2.5 272.5 2.5 273.75S3.75 276.25 3.75 276.25V277.5C3.75 278.75 5 280 5 280C5 281.25 6.25 282.5 6.25 282.5C7.5 283.75 7.5 285 8.75 286.25C8.75 287.5 10 287.5 10 288.75L12.5 291.25L13.75 292.5L232.5 512.5C251.25 530 281.25 530 298.75 512.5C317.5 493.75 317.5 463.75 298.75 446.25L160 306.25H593.75C610 306.25 623.75 298.75 632.5 286.25C637.5 278.75 640 270 640 260C640 247.5 635 235 626.25 227.5C617.5 218.75 606.25 213.75 593.75 213.75H160L298.75 73.75C317.5 56.25 317.5 26.25 298.75 7.5C290 -1.25 278.75 -6.25 266.25 -6.25S242.5 -1.25 232.5 7.5L13.75 227.5L12.5 228.75C12.5 230 11.25 230 10 231.25C10 232.5 8.75 232.5 8.75 233.75z" />
    <glyph glyph-name="arrow-left2"
      unicode="&#xF10B;"
      horiz-adv-x="640" d=" M121.25 297.5L426.25 565C450 585 490 585 512.5 565C536.25 543.75 536.25 510 512.5 488.75L251.25 260L512.5 31.25C536.25 10 536.25 -23.75 512.5 -45C501.25 -55 486.25 -60 470 -60S437.5 -55 426.25 -45L121.25 222.5C110 232.5 103.75 246.25 103.75 260S110 287.5 121.25 297.5z" />
    <glyph glyph-name="arrow-left3"
      unicode="&#xF10C;"
      horiz-adv-x="640" d=" M603.75 -60L36.25 260L603.75 580z" />
    <glyph glyph-name="arrow-left4"
      unicode="&#xF10D;"
      horiz-adv-x="640" d=" M480 580L160 260L480 -60z" />
    <glyph glyph-name="arrow-right2"
      unicode="&#xF10E;"
      horiz-adv-x="640" d=" M512.5 297.5L207.5 565C185 585 145 585 121.25 565C97.5 543.75 97.5 510 121.25 488.75L383.75 260L121.25 31.25C97.5 10 97.5 -23.75 121.25 -45C132.5 -55 148.75 -60 165 -60S196.25 -55 207.5 -45L512.5 222.5C523.75 232.5 531.25 246.25 531.25 260S523.75 287.5 512.5 297.5z" />
    <glyph glyph-name="arrow-right3"
      unicode="&#xF10F;"
      horiz-adv-x="640" d=" M631.25 233.75C632.5 235 632.5 236.25 633.75 237.5C633.75 237.5 635 238.75 635 240S636.25 241.25 636.25 242.5V243.75S637.5 245 637.5 246.25S638.75 248.75 638.75 250V253.75C638.75 255 638.75 255 640 256.25V260V263.75C638.75 265 638.75 266.25 638.75 267.5V270C638.75 271.25 637.5 272.5 637.5 273.75S636.25 276.25 636.25 276.25V277.5C636.25 278.75 635 280 635 280C635 281.25 633.75 282.5 633.75 282.5C632.5 283.75 632.5 285 631.25 286.25C631.25 287.5 630 287.5 630 288.75L627.5 291.25L626.25 292.5L407.5 512.5C388.75 530 358.75 530 341.25 512.5C322.5 493.75 322.5 463.75 341.25 446.25L480 306.25H46.25C30 306.25 16.25 298.75 7.5 286.25C2.5 278.75 0 270 0 260C0 247.5 5 235 13.75 227.5C22.5 218.75 33.75 213.75 46.25 213.75H480L341.25 73.75C322.5 56.25 322.5 26.25 341.25 7.5C350 -1.25 362.5 -6.25 373.75 -6.25C386.25 -6.25 397.5 -1.25 407.5 7.5L626.25 227.5L627.5 228.75L630 231.25C630 232.5 631.25 232.5 631.25 233.75z" />
    <glyph glyph-name="arrow-right4"
      unicode="&#xF110;"
      horiz-adv-x="640" d=" M106.25 180H0V340H106.25zM320 180H160V340H320zM320 420V100L640 260z" />
    <glyph glyph-name="arrow-right5"
      unicode="&#xF111;"
      horiz-adv-x="640" d=" M160 -60L480 260L160 580z" />
    <glyph glyph-name="arrow-right6"
      unicode="&#xF112;"
      horiz-adv-x="640" d=" M0 580V-60H640V580zM353.75 86.25H240L371.25 218.75H112.5V302.5H371.25L240 433.75H353.75L527.5 260z" />
    <glyph glyph-name="arrow-right7"
      unicode="&#xF113;"
      horiz-adv-x="640" d=" M36.25 -60L603.75 260L36.25 580z" />
    <glyph glyph-name="arrow-thin"
      unicode="&#xF114;"
      horiz-adv-x="640" d=" M461.25 296.25L178.75 580L137.5 538.75L411.25 265L137.5 -10L178.75 -51.25L461.25 237.5L493.75 265z" />
    <glyph glyph-name="arrow-up1"
      unicode="&#xF115;"
      horiz-adv-x="640" d=" M282.5 452.5L15 152.5C-5 130 -5 90 15 67.5C36.25 43.75 70 43.75 90 67.5L320 325L548.75 67.5C570 43.75 603.75 43.75 625 67.5C635 78.75 640 93.75 640 110S635 141.25 625 152.5L357.5 452.5C347.5 463.75 333.75 470 320 470C305 470 292.5 463.75 282.5 452.5z" />
    <glyph glyph-name="arrow-up2"
      unicode="&#xF116;"
      horiz-adv-x="640" d=" M640 -23.75L320 543.75L0 -23.75z" />
    <glyph glyph-name="assigned-to-me"
      unicode="&#xF117;"
      horiz-adv-x="640" d=" M600 36.25C588.75 53.75 550 66.25 511.25 82.5S463.75 103.75 463.75 103.75V142.5S477.5 153.75 482.5 188.75C491.25 186.25 501.25 202.5 501.25 211.25S500 242.5 488.75 240C491.25 257.5 492.5 273.75 492.5 281.25C488.75 312.5 460 343.75 415 343.75S341.25 312.5 338.75 281.25C337.5 273.75 338.75 257.5 341.25 240C330 242.5 328.75 220 328.75 211.25C330 202.5 338.75 186.25 347.5 188.75C352.5 153.75 367.5 142.5 367.5 142.5L366.25 103.75S357.5 98.75 318.75 82.5S241.25 53.75 230 36.25C220 20 222.5 -60 222.5 -60H607.5S611.25 18.75 600 36.25zM351.25 522.5L482.5 391.25L523.75 431.25L376.25 580H32.5V-60H158.75V-2.5H90V522.5z" />
    <glyph glyph-name="attachment"
      unicode="&#xF118;"
      horiz-adv-x="640" d=" M125 -41.25C100 -41.25 75 -30 52.5 -6.25L48.75 -3.75C25 20 -46.25 117.5 48.75 217.5C96.25 268.75 162.5 333.75 232.5 402.5L347.5 517.5C417.5 587.5 468.75 571.25 548.75 495C642.5 406.25 660 317.5 618.75 271.25C565 208.75 361.25 5 352.5 -3.75C341.25 -15 322.5 -15 311.25 -3.75S300 26.25 311.25 37.5C313.75 38.75 522.5 248.75 575 308.75C587.5 323.75 588.75 376.25 508.75 452.5C462.5 497.5 448.75 535 388.75 475C350 436.25 311.25 397.5 273.75 361.25C203.75 292.5 138.75 227.5 91.25 177.5C36.25 118.75 63.75 63.75 90 38.75L93.75 35C115 13.75 132.5 7.5 163.75 38.75C172.5 47.5 191.25 65 213.75 87.5C277.5 148.75 395 263.75 418.75 293.75C426.25 302.5 437.5 326.25 426.25 335C412.5 347.5 385 322.5 377.5 313.75C295 227.5 187.5 123.75 186.25 122.5C175 111.25 156.25 111.25 145 122.5C133.75 135 133.75 152.5 145 163.75C146.25 165 253.75 268.75 335 353.75C388.75 410 437.5 403.75 465 378.75C500 348.75 491.25 290 465 256.25C440 226.25 347.5 136.25 255 45C231.25 23.75 213.75 6.25 205 -2.5C178.75 -28.75 152.5 -41.25 125 -41.25z" />
    <glyph glyph-name="attention"
      unicode="&#xF119;"
      horiz-adv-x="640" d=" M326.25 30C298.75 30 277.5 52.5 277.5 78.75C277.5 106.25 298.75 127.5 326.25 127.5C352.5 127.5 375 106.25 375 78.75C375 52.5 352.5 30 326.25 30zM353.75 200C352.5 190 351.25 188.75 342.5 188.75H308.75C301.25 188.75 298.75 190 297.5 200L285 426.25C283.75 436.25 283.75 433.75 283.75 437.5C283.75 445 290 445 293.75 445H356.25C360 445 367.5 445 367.5 437.5V426.25zM320 578.75C143.75 578.75 1.25 436.25 1.25 260S143.75 -58.75 320 -58.75S638.75 83.75 638.75 260S496.25 578.75 320 578.75zM320 -11.25C170 -11.25 48.75 110 48.75 260S170 531.25 320 531.25S591.25 410 591.25 260S470 -11.25 320 -11.25z" />
    <glyph glyph-name="back-up"
      unicode="&#xF11A;"
      horiz-adv-x="640" d=" M280 300V220H560V140H640V300zM240 120V400L0 260z" />
    <glyph glyph-name="backlogs"
      unicode="&#xF11B;"
      horiz-adv-x="640" d=" M638.75 63.75L478.75 160V112.5H425C432.5 125 440 137.5 445 152.5C453.75 175 457.5 197.5 455 222.5C455 251.25 448.75 277.5 437.5 300C426.25 321.25 412.5 340 393.75 357.5C373.75 377.5 350 390 325 398.75C302.5 406.25 280 408.75 255 407.5C251.25 412.5 246.25 418.75 243.75 425C241.25 432.5 240 440 240 447.5C240 456.25 242.5 465 246.25 472.5C248.75 480 252.5 485 258.75 491.25S272.5 502.5 281.25 505C287.5 507.5 295 508.75 303.75 508.75C321.25 507.5 335 502.5 347.5 490C353.75 482.5 358.75 476.25 361.25 468.75L325 455L405 418.75L441.25 496.25L405 483.75C400 497.5 391.25 510 381.25 521.25C360 542.5 333.75 553.75 303.75 553.75C290 553.75 277.5 552.5 265 548.75C251.25 543.75 237.5 535 226.25 523.75C216.25 515 208.75 503.75 203.75 492.5C197.5 478.75 193.75 465 195 448.75C193.75 435 196.25 422.5 201.25 410C202.5 406.25 203.75 402.5 206.25 400C172.5 390 142.5 372.5 117.5 346.25C97.5 325 83.75 302.5 75 277.5L10 300L77.5 161.25L218.75 230L153.75 252.5C158.75 266.25 166.25 278.75 177.5 290C200 312.5 225 325 256.25 326.25C271.25 327.5 285 325 297.5 321.25C312.5 316.25 325 307.5 336.25 297.5C348.75 286.25 356.25 276.25 362.5 263.75S372.5 235 372.5 220C373.75 205 371.25 191.25 367.5 178.75C361.25 165 352.5 151.25 342.5 138.75C330 126.25 317.5 117.5 302.5 111.25H1.25V15H478.75V-33.75z" />
    <glyph glyph-name="bcf"
      unicode="&#xF11C;"
      horiz-adv-x="640" d=" M357.09952 381.8304C376.99712 356.30592 402.83136 315.41376 417.14432 261.1968C431.88224 205.3696 429.96224 160.6528 425.4540800000001 131.28832C431.7964800000001 132.56576 437.12896 133.85728 441.2544000000001 134.9632C453.17632 138.15936 463.41504 143.97312 471.6812800000001 152.24064C479.3139200000001 159.872 485.0214400000001 169.23392 489.20576 179.48672C483.1833600000001 217.26464 474.1952000000001 253.99808 468.5504 275.38688C462.81344 297.11872 452.26496 334.21184 438.3923200000001 370.72256C433.40544 383.85024 427.9846400000001 396.89728 422.2067200000001 409.13408C411.7542400000001 431.2576 400.1241600000001 450.71744 387.7196800000001 463.1232C386.5945600000001 464.2496 385.4540800000001 465.35808 384.3097600000001 466.45504C376.6899200000002 473.75104 368.6617600000001 480.38528 360.3123200000001 486.37312C359.4342400000002 487.00288 358.5600000000001 487.63776 357.6768000000001 488.25344C272.0320000000001 547.7632 153.15968 539.38048 76.87808 463.0976C0.49024 386.70848 -7.81056 267.61088 51.97696 181.93792C52.75648 185.50656 53.61152 189.07392 54.5664 192.64C61.9264 220.11264 84.32128 253.65376 109.69344 285.0892800000001C117.15072 325.43616 144.00896 363.9808000000001 160.00128 379.97184C177.45664 397.42592 216.064 424.21504 256.21632 431.05792C269.92896 433.39392 283.81824 433.39904 297.1084800000001 429.9136C310.0262400000001 426.52672 322.3756800000001 419.85152 333.4387200000001 408.79104C334.96832 407.26144 336.9216000000001 405.26592 339.21152 402.82112C343.96544 397.74592 350.17216 390.7200000000001 357.09952 381.8304 M409.39008 115.58656C377.33504 111.11808 329.0022400000001 109.18656 274.89792 123.904C219.17824 139.05408 181.41312 163.07456 158.23744 181.66144C156.17024 175.52896 154.62272 170.2656 153.51936 166.14144C150.32448 154.21696 150.23872 142.44352 153.2672 131.15136C156.06016 120.7232 161.31456 111.10144 168.0972800000001 102.3488C203.8272 88.67712 240.1344000000001 78.0928 261.4796800000001 72.28928C283.1667200000001 66.3923199999999 320.56704 56.9792 359.1193600000001 50.73792C372.98176 48.49408 386.99136 46.66368 400.48 45.5488C424.86528 43.5392000000001 447.5328 43.88096 464.47744 48.41984C466.01728 48.8320000000001 467.54304 49.26336 469.06752 49.7088000000001C479.19744 52.6617600000001 488.95488 56.2956800000001 498.31296 60.5312C499.3024000000001 60.9792000000001 500.2880000000001 61.41568 501.26336 61.87648C595.62368 106.28864 647.80032 213.4272 619.8809600000001 317.63328C591.92064 421.98272 492.9280000000001 488.71936 388.8396800000001 479.77728C391.5392 477.31712 394.20032 474.79296 396.8128 472.18432C416.9254400000001 452.07296 434.77504 415.90784 449.31072 378.21568C480.52352 351.58144 500.47616 309.05216 506.33088 287.2064000000001C512.7180800000001 263.3625600000001 516.6131200000001 216.5312 502.46272 178.33856C497.63328 165.29536 490.688 153.26208 481.0278400000001 143.49568C471.6326400000001 134.0032 459.67744 126.64704 444.5708800000001 122.59456C442.4780800000001 122.03392 439.7734400000001 121.34272 436.51072 120.5798399999999C429.74208 119.00544 420.5529600000001 117.14176 409.39008 115.58656 M152.64256 203.45344C164.79744 233.44768 187.29216 276.2688 227.08992 315.7683199999999C268.0704 356.4467199999999 307.7568 377.14304 335.43936 387.91936C331.1641600000001 392.77312 327.3792000000001 396.74624 324.3596800000001 399.76448C315.63008 408.49408 305.47712 414.4524799999999 294.1824000000001 417.4796799999999C283.7568 420.27264 272.7948800000001 420.53504 261.82272 419.0323199999999C232.12032 394.92864 204.79744 368.7769599999999 189.1008 353.19296C173.14816 337.36064 146.29888 309.68064 121.61536 279.40992C112.73984 268.5260799999999 104.14976 257.30944 96.44544 246.18496C82.51008 226.07232 71.47264 206.272 66.93248 189.3247999999999C66.52032 187.7900799999999 66.12736 186.24768 65.75232 184.7078399999999C63.24224 174.4601599999999 61.51168 164.1919999999999 60.4992 153.9673599999999C60.39168 152.8895999999999 60.2816 151.8169599999999 60.18944 150.7417599999999C51.4752 46.816 118.1696 -51.93728 222.3744 -79.8592C326.72128 -107.82208 434.01472 -55.45856 478.3168 39.1552C474.83392 38.04416 471.31904 37.00096 467.75424 36.0460800000001C440.27904 28.68352 400.03712 31.3088 360.12416 37.56672C321.45408 23.84896 274.64448 27.8361600000001 252.80128 33.6921600000001C228.95616 40.0819200000001 186.45376 60.1228800000001 160.45184 91.4739200000001C151.56992 102.1785600000001 144.62208 114.2067200000001 140.99456 127.45856C137.46944 140.3392000000001 137.07776 154.3718400000001 141.12256 169.4822400000001C141.68448 171.5750400000001 142.43456 174.2630400000001 143.40736 177.4681600000001C145.42464 184.1190400000001 148.4096 193.00992 152.64256 203.45344" />
    <glyph glyph-name="billing-information"
      unicode="&#xF11D;"
      horiz-adv-x="640" d=" M520 540V580H480V540H400V580H360V540H280V580H240V540H160V580H120V540H0V-60H640V540zM560 20H80V460H120V420H160V460H240V420H280V460H360V420H400V460H480V420H520V460H560zM303.75 72.5V106.25C280 107.5 256.25 113.75 243.75 121.25L253.75 163.75C268.75 155 290 147.5 313.75 147.5C333.75 147.5 348.75 156.25 348.75 170S336.25 192.5 310 201.25C271.25 215 245 232.5 245 267.5C245 298.75 267.5 323.75 306.25 331.25V366.25H341.25V333.75C365 332.5 381.25 327.5 393.75 322.5L383.75 281.25C373.75 285 357.5 293.75 331.25 293.75C307.5 293.75 300 283.75 300 273.75C300 261.25 312.5 253.75 343.75 242.5C386.25 227.5 403.75 207.5 403.75 175C403.75 143.75 381.25 116.25 340 108.75V72.5z" />
    <glyph glyph-name="boards"
      unicode="&#xF11E;"
      horiz-adv-x="640" d=" M170.3725 407.4875V-91.17875H3.1875V407.4875zM170.3725 530.42625V465.95H3.1875V530.425zM403.59375 408.8425V220.89625H236.40625V408.8425zM403.59375 531.54125V464.225H236.40625V531.54125zM640.88125 405.39V61.5175H473.69375V405.39zM640.88125 533.22V464.225H473.69375V533.22z" />
    <glyph glyph-name="bold"
      unicode="&#xF11F;"
      horiz-adv-x="640" d=" M83.75 -55V575H316.25C361.25 575 397.5 571.25 428.75 563.75C458.75 555 483.75 543.75 503.75 528.75C522.5 515 537.5 496.25 546.25 476.25C555 455 558.75 431.25 558.75 405C558.75 391.25 557.5 377.5 552.5 365C548.75 351.25 542.5 338.75 533.75 327.5S513.75 306.25 500 296.25C486.25 287.5 470 278.75 450 272.5C492.5 262.5 523.75 245 543.75 222.5S573.75 170 573.75 135C573.75 107.5 568.75 82.5 558.75 60C547.5 36.25 532.5 16.25 512.5 -1.25C492.5 -17.5 467.5 -31.25 437.5 -41.25C408.75 -51.25 375 -55 336.25 -55zM230 312.5H307.5C322.5 312.5 337.5 313.75 351.25 315C363.75 317.5 375 322.5 385 327.5C393.75 333.75 401.25 341.25 405 351.25C410 361.25 412.5 372.5 412.5 388.75C412.5 402.5 411.25 415 407.5 425S397.5 442.5 390 448.75C381.25 453.75 371.25 458.75 360 461.25C347.5 463.75 333.75 465 316.25 465H230zM230 55H333.75C352.5 55 368.75 57.5 381.25 62.5C392.5 67.5 402.5 73.75 410 81.25C416.25 88.75 421.25 97.5 423.75 107.5S427.5 127.5 427.5 137.5C427.5 148.75 426.25 160 422.5 168.75C420 177.5 415 186.25 407.5 192.5S390 203.75 377.5 207.5C366.25 210 351.25 212.5 332.5 212.5H230z" />
    <glyph glyph-name="budget"
      unicode="&#xF120;"
      horiz-adv-x="640" d=" M40 140V20H280V140zM160 60H80V100H160zM240 60H216.25V100H240zM360 140V20H600V140zM480 60H400V100H480zM560 60H536.25V100H560zM400 260V140H640V260zM520 180H440V220H520zM600 180H576.25V220H600zM360 380V260H600V380zM480 300H400V340H480zM560 300H536.25V340H560zM40 260V140H280V260zM160 180H80V220H160zM240 180H216.25V220H240zM0 380V260H240V380zM120 300H40V340H120zM200 300H176.25V340H200zM40 500V380H280V500zM160 420H80V460H160zM240 420H216.25V460H240z" />
    <glyph glyph-name="bug"
      unicode="&#xF121;"
      horiz-adv-x="640" d=" M266.25 -32.5V21.25H213.75V-32.5zM213.75 21.25V73.75H160V21.25zM107.5 552.5V498.75H160V552.5zM373.75 -32.5H426.25V21.25H373.75zM426.25 21.25H480V73.75H426.25zM586.25 233.75V286.25H532.5V446.25H480V498.75H426.25V446.25H213.75V498.75H160V446.25H107.5V286.25H53.75V233.75H1.25V73.75H53.75V180H107.5V73.75H160V127.5H480V73.75H532.5V180H586.25V73.75H638.75V233.75zM160 233.75V340H213.75V233.75zM426.25 233.75V340H480V233.75zM532.5 552.5H480V498.75H532.5z" />
    <glyph glyph-name="calendar"
      unicode="&#xF122;"
      horiz-adv-x="640" d=" M300 260H220V340H300zM420 260H340V340H420zM540 260H460V340H540zM180 140H100V220H180zM300 140H220V220H300zM420 140H340V220H420zM540 140H460V220H540zM180 20H100V100H180zM300 20H220V100H300zM420 20H340V100H420zM540 500V580H420V500H220V580H100V500H20V-60H620V500zM460 540H500V460H460zM140 540H180V460H140zM580 -20H60V380H580z" />
    <glyph glyph-name="calendar2"
      unicode="&#xF123;"
      horiz-adv-x="640" d=" M187.5 250L140 238.75L125 298.75L207.5 321.25H263.75V40H187.5V250zM458.75 255H328.75V320H545V261.25L421.25 40H335zM540 500V580H420V500H220V580H100V500H20V-60H620V500zM460 540H500V460H460zM140 540H180V460H140zM580 -20H60V380H580z" />
    <glyph glyph-name="camera"
      unicode="&#xF124;"
      horiz-adv-x="640" d=" M532.5 367.5C512.5 355 485 338.75 468.75 328.75C452.5 320 440 330 440 351.25V440C440 462.5 422.5 480 400 480H40C17.5 480 0 462.5 0 440V80C0 57.5 17.5 40 40 40H400C422.5 40 440 57.5 440 80V170C440 192.5 452.5 202.5 468.75 192.5S512.5 166.25 532.5 155L606.25 110C625 98.75 640 107.5 640 130V221.25V391.25C640 413.75 625 422.5 606.25 411.25z" />
    <glyph glyph-name="cancel"
      unicode="&#xF125;"
      horiz-adv-x="640" d=" M320 316.25L120 516.25L63.75 456.25L263.75 260L63.75 63.75L120 3.75L320 203.75L520 3.75L576.25 63.75L376.25 260L576.25 456.25L520 516.25z" />
    <glyph glyph-name="cart"
      unicode="&#xF126;"
      horiz-adv-x="640" d=" M585 165L638.75 431.25L120 501.25L78.75 528.75C78.75 531.25 80 535 80 537.5C80 560 62.5 577.5 40 577.5C18.75 577.5 1.25 560 1.25 537.5C1.25 516.25 18.75 497.5 40 497.5C43.75 497.5 46.25 498.75 48.75 500L97.5 467.5L178.75 147.5L202.5 148.75L181.25 78.75H178.75C140 78.75 110 48.75 110 11.25C110 -27.5 140 -57.5 178.75 -57.5C206.25 -57.5 230 -41.25 241.25 -16.25H456.25C466.25 -40 490 -57.5 517.5 -57.5C555 -57.5 585 -27.5 585 8.75C585 46.25 555 76.25 517.5 76.25C486.25 76.25 460 53.75 453.75 25H245C241.25 41.25 232.5 55 220 65L246.25 150z" />
    <glyph glyph-name="changeset-down"
      unicode="&#xF127;"
      horiz-adv-x="640" d=" M480 360H400V560H240V360H160L320 200zM555 400H480V360H528.75L580 240H440C440 173.75 386.25 120 320 120S200 173.75 200 240H60L111.25 360H160V400H85L0 200V-40H640V200z" />
    <glyph glyph-name="changeset-up"
      unicode="&#xF128;"
      horiz-adv-x="640" d=" M240 380V220H400V420H480L320 580L160 420H240zM555 380H440V340H528.75L580 220H440C440 153.75 386.25 100 320 100S200 153.75 200 220H60L111.25 340H200V380H85L0 180V-60H640V180z" />
    <glyph glyph-name="changeset"
      unicode="&#xF129;"
      horiz-adv-x="640" d=" M555 480H85L0 280V40H640V280zM440 320C440 253.75 386.25 200 320 200S200 253.75 200 320H60L111.25 440H528.75L580 320z" />
    <glyph glyph-name="chart1"
      unicode="&#xF12A;"
      horiz-adv-x="640" d=" M553.75 451.25V68.75H86.25V451.25H553.75M638.75 536.25H1.25V-16.25H638.75zM432.5 160L345 251.25L261.25 166.25L180 246.25L147.5 186.25C141.25 176.25 128.75 171.25 118.75 177.5C107.5 182.5 103.75 196.25 110 206.25L170 316.25L260 226.25L345 311.25L421.25 232.5L492.5 376.25C497.5 386.25 510 390 521.25 385C531.25 380 536.25 367.5 530 356.25z" />
    <glyph glyph-name="chart2"
      unicode="&#xF12B;"
      horiz-adv-x="640" d=" M180 450C76.25 415 2.5 318.75 2.5 203.75C2.5 60 118.75 -56.25 261.25 -56.25C347.5 -56.25 422.5 -13.75 470 50L240 181.25zM412.5 557.5C381.25 568.75 347.5 576.25 312.5 576.25C281.25 576.25 251.25 571.25 223.75 561.25L288.75 268.75zM456.25 487.5L326.25 196.25L582.5 50C617.5 97.5 637.5 156.25 637.5 220C637.5 341.25 562.5 445 456.25 487.5z" />
    <glyph glyph-name="chart3"
      unicode="&#xF12C;"
      horiz-adv-x="640" d=" M640 -20H0V20H640zM160 60H0V420H160zM400 60H240V260H400zM640 60H480V540H640z" />
    <glyph glyph-name="checkmark"
      unicode="&#xF12D;"
      horiz-adv-x="640" d=" M220 -31.25L16.25 198.75C-5 222.5 0 256.25 26.25 275S91.25 290 112.5 266.25L216.25 150L526.25 528.75C546.25 552.5 585 558.75 611.25 540C638.75 522.5 645 488.75 625 463.75z" />
    <glyph glyph-name="close"
      unicode="&#xF12E;"
      horiz-adv-x="640" d=" M320 316.25L120 516.25L63.75 456.25L263.75 260L63.75 63.75L120 3.75L320 203.75L520 3.75L576.25 63.75L376.25 260L576.25 456.25L520 516.25z" />
    <glyph glyph-name="code-tag"
      unicode="&#xF12F;"
      horiz-adv-x="640" d=" M428.75 78.75C417.5 78.75 406.25 83.75 398.75 93.75C383.75 110 386.25 135 402.5 150L537.5 266.25L403.75 368.75C386.25 382.5 383.75 407.5 397.5 425C410 442.5 436.25 446.25 452.5 432.5L625 298.75C633.75 291.25 640 280 640 268.75C640 256.25 635 245 626.25 237.5L455 88.75C447.5 82.5 437.5 78.75 428.75 78.75zM211.25 78.75C202.5 78.75 192.5 82.5 185 88.75L13.75 237.5C5 245 0 256.25 0 268.75C0 280 6.25 291.25 15 298.75L187.5 432.5C203.75 446.25 230 442.5 242.5 425C256.25 407.5 253.75 382.5 236.25 368.75L102.5 266.25L237.5 150C253.75 135 256.25 110 241.25 93.75C233.75 83.75 222.5 78.75 211.25 78.75z" />
    <glyph glyph-name="color-text"
      unicode="&#xF130;"
      horiz-adv-x="640" d=" M638.75 -32.5C638.75 -45 628.75 -55 616.25 -55H23.75C11.25 -55 1.25 -45 1.25 -32.5V12.5C1.25 25 11.25 36.25 23.75 36.25H616.25C628.75 36.25 638.75 25 638.75 12.5zM261.25 575H388.75L591.25 96.25H450L415 181.25H231.25L197.5 96.25H58.75zM377.5 283.75L323.75 418.75L270 283.75z" />
    <glyph glyph-name="color-underline"
      unicode="&#xF131;"
      horiz-adv-x="640" d=" M605 -36.25C605 -47.5 595 -57.5 583.75 -57.5H26.25C15 -57.5 5 -47.5 5 -36.25V6.25C5 18.75 15 28.75 26.25 28.75H583.75C595 28.75 605 18.75 605 6.25zM218.75 71.25C230 71.25 246.25 78.75 252.5 87.5L257.5 93.75C265 103.75 265 117.5 256.25 126.25L191.25 193.75C182.5 202.5 170 202.5 162.5 193.75L158.75 188.75C151.25 180 137.5 165 130 156.25L63.75 86.25C56.25 77.5 58.75 71.25 71.25 71.25zM620 468.75C641.25 495 640 533.75 615 557.5C591.25 582.5 552.5 583.75 526.25 562.5V563.75L520 557.5L207.5 245L302.5 150L615 462.5L621.25 468.75z" />
    <glyph glyph-name="column-left"
      unicode="&#xF132;"
      horiz-adv-x="640" d=" M556.25 -60H335V580H556.25V-60zM358.75 -35H531.25V555H358.75zM235 101.25L71.25 261.25L235 421.25z" />
    <glyph glyph-name="column-right"
      unicode="&#xF133;"
      horiz-adv-x="640" d=" M77.5 581.25H298.75V-58.75H77.5zM275 556.25H102.5V-35H275zM398.75 421.25L562.5 261.25L398.75 101.25z" />
    <glyph glyph-name="columns"
      unicode="&#xF134;"
      horiz-adv-x="640" d=" M357.5 581.25H578.75V-58.75H357.5zM553.75 556.25H382.5V-35H555V556.25zM57.5 580H278.75V-60H57.5zM253.75 555H81.25V-35H253.75z" />
    <glyph glyph-name="compare2"
      unicode="&#xF135;"
      horiz-adv-x="640" d=" M218.75 116.25H417.5V67.5H218.75zM342.5 356.25V431.25H293.75V356.25H218.75V307.5H293.75V232.5H342.5V307.5H417.5V356.25zM566.25 431.25L417.5 580H73.75V-60H566.25zM131.25 -2.5V522.5H393.75L508.75 407.5V-2.5H131.25z" />
    <glyph glyph-name="concept"
      unicode="&#xF136;"
      horiz-adv-x="640" d=" M320 383.75C240 383.75 180 323.75 180 247.5C180 200 203.75 160 243.75 132.5V60H400V132.5C440 156.25 463.75 200 463.75 247.5C460 320 400 383.75 320 383.75zM372.5 152.5V83.75H263.75V152.5C227.5 172.5 207.5 203.75 207.5 243.75C207.5 303.75 260 352.5 320 352.5S432.5 303.75 432.5 243.75C432.5 203.75 407.5 172.5 372.5 152.5zM320 427.5C323.75 427.5 332.5 432.5 332.5 440V552.5C332.5 560 327.5 563.75 320 563.75C316.25 563.75 307.5 560 307.5 552.5V443.75C307.5 432.5 316.25 427.5 320 427.5zM423.75 412.5L483.75 503.75C487.5 507.5 487.5 516.25 483.75 520S472.5 520 467.5 516.25L407.5 423.75C403.75 420 403.75 412.5 407.5 407.5C412.5 403.75 420 407.5 423.75 412.5zM600 403.75C596.25 407.5 592.5 412.5 583.75 407.5L487.5 356.25C483.75 352.5 480 343.75 483.75 340S492.5 332.5 500 336.25L596.25 387.5C600 392.5 603.75 396.25 600 403.75zM216.25 412.5C220 407.5 227.5 403.75 232.5 407.5C236.25 412.5 236.25 420 232.5 423.75L172.5 516.25C167.5 523.75 160 523.75 156.25 520S152.5 507.5 156.25 503.75zM56.25 403.75C47.5 407.5 40 407.5 40 403.75C36.25 396.25 40 392.5 43.75 387.5L140 336.25C147.5 332.5 152.5 332.5 156.25 340C160 343.75 156.25 352.5 152.5 356.25zM400 47.5H240V3.75C240 -20 260 -36.25 280 -36.25V-56.25H360V-36.25C380 -36.25 396.25 -20 396.25 0V47.5z" />
    <glyph glyph-name="console"
      unicode="&#xF137;"
      horiz-adv-x="640" d=" M0 540V-20H640V540zM600 20H40V500H600zM80 460V60H560V460zM258.75 323.75L166.25 260C162.5 257.5 158.75 257.5 155 257.5C148.75 257.5 142.5 260 138.75 266.25C132.5 275 135 287.5 143.75 293.75L210 338.75L145 380C135 386.25 132.5 397.5 137.5 407.5C143.75 417.5 156.25 420 165 413.75L257.5 357.5C263.75 353.75 266.25 347.5 267.5 341.25C267.5 333.75 263.75 327.5 258.75 323.75zM440 300H320V340H440z" />
    <glyph glyph-name="contacts"
      unicode="&#xF138;"
      horiz-adv-x="640" d=" M80 580C121.25 580 80 580 80 580V-60H81.25C40 -60 0 -20 0 23.75V500C0 547.5 38.75 580 80 580zM640 300H560V420H600C640 420 640 376.25 640 376.25zM640 100H560V-20H600C640 -20 640 18.75 640 18.75zM640 140H560V260H640zM438.75 580H120V-60H440C481.25 -60 520 -27.5 520 20V496.25C520 540 480 580 438.75 580zM440 180H200S197.5 205 205 215C211.25 226.25 236.25 233.75 260 243.75S290 257.5 290 257.5V280S281.25 287.5 277.5 308.75C272.5 307.5 266.25 317.5 266.25 322.5S267.5 341.25 273.75 340C272.5 351.25 271.25 360 272.5 366.25C273.75 383.75 292.5 403.75 320 403.75S366.25 383.75 367.5 366.25C368.75 360 367.5 351.25 366.25 340C372.5 341.25 373.75 327.5 373.75 322.5S367.5 307.5 361.25 308.75C358.75 287.5 350 280 350 280V257.5S356.25 253.75 380 243.75S427.5 226.25 435 215C441.25 205 440 180 440 180z" />
    <glyph glyph-name="copy"
      unicode="&#xF139;"
      horiz-adv-x="640" d=" M281.25 222.5H475V183.75H281.25zM578.75 458.75L457.5 580V578.75V580H173.75V57.5H578.75V458.75zM221.25 105V532.5H437.5L532.5 438.75V105zM382.5 -12.5H107.5V420H157.5V466.25H61.25V-60H430V37.5H382.5zM281.25 323.75H475V283.75H281.25zM281.25 425H475V385H281.25z" />
    <glyph glyph-name="cost-reports"
      unicode="&#xF13A;"
      horiz-adv-x="640" d=" M553.75 455V71.25H85V455H553.75M638.75 540H0V-13.75H638.75zM170 113.75H127.5V241.25H170zM255 113.75H212.5V285H255zM341.25 113.75H298.75V241.25H341.25zM426.25 113.75H383.75V370H426.25zM511.25 113.75H468.75V241.25H511.25z" />
    <glyph glyph-name="cost-types"
      unicode="&#xF13B;"
      horiz-adv-x="640" d=" M347.5 463.75V507.5H0V447.5H347.5zM347.5 400V416.25H0V356.25H303.75C320 367.5 332.5 380 347.5 387.5zM0 327.5V267.5H247.5C256.25 287.5 267.5 307.5 280 327.5zM240 240H0V180H236.25V196.25C236.25 207.5 236.25 223.75 240 240zM0 147.5V87.5H260C252.5 107.5 243.75 127.5 240 147.5zM280 60H0V0H347.5C320 16.25 300 36.25 280 60zM447.5 376.25C352.5 376.25 276.25 296.25 276.25 196.25S352.5 16.25 447.5 16.25C543.75 16.25 620 96.25 620 196.25S543.75 376.25 447.5 376.25zM456.25 92.5V60H436.25V92.5C416.25 92.5 396.25 100 383.75 107.5L392.5 127.5C403.75 120 420 112.5 440 112.5C463.75 112.5 480 123.75 480 143.75S467.5 172.5 443.75 183.75C412.5 196.25 387.5 212.5 387.5 240S407.5 287.5 436.25 292.5V327.5H456.25V296.25C476.25 296.25 487.5 292.5 500 283.75L492.5 263.75C483.75 267.5 472.5 276.25 452.5 276.25C427.5 276.25 416.25 260 416.25 247.5C416.25 232.5 427.5 223.75 456.25 212.5C487.5 200 507.5 180 507.5 152.5C507.5 123.75 487.5 100 456.25 92.5z" />
    <glyph glyph-name="cursor"
      unicode="&#xF13C;"
      horiz-adv-x="640" d=" M156.25 274.72844375L156.29723625 45.66259625L213.310755 99.3236375L270.3242737500001 152.98467875L329.5578725000001 45.26445125L388.7914712500001 -62.500015L445.4271050000001 -62.500015C476.5554475 -62.500015 502.0155025 -62.41153875 502.0155025 -62.2788237499999C502.0155025 -62.1461087499999 501.1652600000001 -60.5977687499999 500.17330875 -58.8282374999999C499.1813587500001 -57.05870625 494.17437125 -48.1668099999999 489.1201487500001 -39.0537237499999C480.94836875 -24.322375 409.0083600000001 105.07461375 381.3754625000001 154.6657325000001C375.65994 165.0174912500001 370.88913125 173.6439575000001 370.79466 173.8209100000001C370.70018875 173.9978637500001 409.85860375 174.1748162500001 457.80286375 174.1748162500001L545.00001 174.1748162500001L545.00001 177.2714962500001L545.00001 180.3239375000001L501.40143625 217.1744300000001C477.45292375 237.4798037500001 406.2214525000001 297.7323500000001 343.0672887500001 351.1279612500001C279.9131250000001 404.5235725000001 213.4996975000001 460.7061962500001 195.45565125 475.9684050000001L162.6268225000001 503.7500487500001L159.4620287500001 503.7500487500001L156.25 503.7500487500001L156.25 274.7284400000001z" />
    <glyph glyph-name="custom-development"
      unicode="&#xF13D;"
      horiz-adv-x="640" d=" M643.75 440L640 472.5H67.5V203.75L107.5 243.75V400H603.75V100H223.75L183.75 60H643.75zM187.5 447.5C192.5 447.5 200 443.75 200 436.25C200 427.5 192.5 423.75 187.5 423.75C183.75 423.75 176.25 427.5 176.25 436.25C176.25 443.75 180 447.5 187.5 447.5zM152.5 447.5C160 447.5 163.75 443.75 163.75 436.25C163.75 427.5 160 423.75 152.5 423.75C143.75 423.75 140 427.5 140 436.25C140 443.75 143.75 447.5 152.5 447.5zM116.25 447.5C123.75 447.5 127.5 443.75 127.5 436.25C127.5 427.5 123.75 423.75 116.25 423.75C107.5 423.75 103.75 427.5 103.75 436.25C103.75 443.75 112.5 447.5 116.25 447.5zM376.25 340H516.25V312.5H376.25zM376.25 296.25H563.75V267.5H376.25zM376.25 247.5H540V220H376.25zM376.25 207.5H516.25V180H376.25zM220 176.25C223.75 176.25 223.75 176.25 220 176.25H240C283.75 176.25 323.75 212.5 323.75 260C323.75 267.5 323.75 276.25 320 280L280 232.5L232.5 243.75L220 292.5L263.75 336.25C256.25 336.25 252.5 340 243.75 340C196.25 340 160 303.75 160 256.25C160 247.5 160 236.25 163.75 227.5L16.25 80C0 63.75 -3.75 36.25 12.5 20C27.5 3.75 56.25 7.5 72.5 23.75L100 52.5z" />
    <glyph glyph-name="custom-fields"
      unicode="&#xF13E;"
      horiz-adv-x="640" d=" M87.5 215C87.5 226.25 92.5 235 100 241.25C108.75 246.25 121.25 250 138.75 250L157.5 251.25V257.5C157.5 263.75 156.25 268.75 152.5 272.5C150 276.25 145 277.5 137.5 277.5C132.5 277.5 126.25 277.5 121.25 275C116.25 273.75 111.25 271.25 106.25 270L98.75 286.25C105 290 111.25 291.25 118.75 293.75C126.25 295 132.5 296.25 138.75 296.25C152.5 296.25 163.75 292.5 171.25 286.25C177.5 280 181.25 271.25 181.25 257.5V182.5H165L160 198.75H158.75C153.75 191.25 148.75 187.5 142.5 185C137.5 182.5 130 181.25 122.5 181.25C111.25 181.25 102.5 183.75 96.25 190C91.25 196.25 87.5 203.75 87.5 215zM111.25 215C111.25 210 113.75 206.25 116.25 202.5C118.75 200 123.75 198.75 130 198.75C137.5 198.75 145 201.25 150 206.25S157.5 217.5 157.5 226.25V236.25L143.75 235C132.5 235 125 232.5 118.75 230C113.75 226.25 111.25 221.25 111.25 215zM215 182.5V338.75H238.75V302.5C238.75 298.75 238.75 295 237.5 290V278.75H238.75C246.25 290 256.25 296.25 271.25 296.25C285 296.25 296.25 291.25 303.75 281.25S315 256.25 315 238.75C315 220 311.25 206.25 303.75 196.25S285 181.25 271.25 181.25S246.25 186.25 238.75 196.25H236.25L232.5 182.5zM238.75 238.75C238.75 225 240 215 245 208.75C248.75 203.75 256.25 200 266.25 200C273.75 200 280 203.75 285 210C288.75 216.25 291.25 226.25 291.25 238.75C291.25 263.75 282.5 276.25 265 276.25C256.25 276.25 248.75 273.75 245 268.75C241.25 262.5 238.75 253.75 238.75 240V238.75zM336.25 237.5C336.25 256.25 341.25 271.25 350 281.25S371.25 296.25 388.75 296.25C401.25 296.25 411.25 293.75 421.25 288.75L413.75 270C403.75 273.75 395 276.25 388.75 276.25C370 276.25 360 263.75 360 237.5C360 225 362.5 216.25 367.5 210S378.75 201.25 388.75 201.25S408.75 203.75 417.5 208.75V187.5C413.75 185 408.75 183.75 405 182.5C400 181.25 393.75 181.25 387.5 181.25C370 181.25 357.5 186.25 348.75 195C340 205 336.25 220 336.25 237.5zM640 81.25H0V438.75H640V81.25zM41.25 122.5H598.75V397.5H41.25z" />
    <glyph glyph-name="cut"
      unicode="&#xF13F;"
      horiz-adv-x="640" d=" M560 177.5C525 213.75 488.75 232.5 452.5 232.5C415 232.5 386.25 213.75 367.5 195L360 203.75L376.25 226.25L455 275L567.5 457.5V580L322.5 255L77.5 580V457.5L188.75 275L265 226.25L282.5 202.5L275 193.75C256.25 212.5 227.5 232.5 190 232.5S116.25 213.75 81.25 177.5C21.25 113.75 21.25 42.5 38.75 0C55 -37.5 92.5 -60 126.25 -60C142.5 -60 196.25 -22.5 198.75 -18.75L227.5 23.75L321.25 151.25L418.75 20L447.5 -22.5C450 -23.75 500 -60 517.5 -60C551.25 -60 585 -37.5 600 0C618.75 42.5 620 113.75 560 177.5zM147.5 18.75C127.5 -5 106.25 -1.25 95 23.75C85 48.75 86.25 93.75 126.25 135C148.75 158.75 170 171.25 188.75 171.25C210 171.25 226.25 157.5 236.25 146.25L207.5 103.75L196.25 88.75V87.5zM546.25 23.75C540 10 531.25 1.25 521.25 1.25C513.75 1.25 503.75 7.5 496.25 16.25L447.5 85V88.75L412.5 133.75L405 146.25C415 157.5 432.5 171.25 452.5 171.25C471.25 171.25 492.5 158.75 515 135C555 93.75 557.5 48.75 546.25 23.75z" />
    <glyph glyph-name="delete-folder"
      unicode="&#xF140;"
      horiz-adv-x="640" d=" M360 140V180H600V380C600 402.5 582.5 420 560 420H320C297.5 420 268.75 433.75 253.75 450L236.25 470C221.25 486.25 192.5 500 170 500H40C17.5 500 0 482.5 0 460V60C0 37.5 17.5 20 40 20H360zM400 60V140H640V60z" />
    <glyph glyph-name="delete"
      unicode="&#xF141;"
      horiz-adv-x="640" d=" M520 451.25H120C120 450 118.75 448.75 118.75 447.5V-17.5C118.75 -41.25 133.75 -60 151.25 -60H487.5C506.25 -60 521.25 -41.25 521.25 -17.5V447.5C521.25 448.75 520 450 520 451.25zM222.5 12.5C222.5 -3.75 212.5 -17.5 200 -17.5S177.5 -3.75 177.5 12.5V366.25C177.5 382.5 187.5 396.25 200 396.25S222.5 382.5 222.5 366.25zM343.75 12.5C343.75 -3.75 333.75 -17.5 322.5 -17.5C310 -17.5 300 -3.75 300 12.5V366.25C300 382.5 310 396.25 322.5 396.25C333.75 396.25 343.75 382.5 343.75 366.25zM462.5 12.5C462.5 -3.75 452.5 -17.5 440 -17.5S417.5 -3.75 417.5 12.5V366.25C417.5 382.5 427.5 396.25 440 396.25S462.5 382.5 462.5 366.25zM537.5 493.75C537.5 510 525 522.5 508.75 522.5H131.25C115 522.5 102.5 510 102.5 493.75C102.5 486.25 106.25 480 110 473.75H530C533.75 480 537.5 486.25 537.5 493.75zM297.5 550H342.5C351.25 550 357.5 556.25 357.5 565S351.25 580 342.5 580H297.5C288.75 580 282.5 573.75 282.5 565S288.75 550 297.5 550z" />
    <glyph glyph-name="dependency"
      unicode="&#xF142;"
      horiz-adv-x="640" d=" M520 170C495 170 472.5 161.25 453.75 148.75L235 261.25L451.25 373.75C470 358.75 493.75 350 520 350C583.75 350 635 402.5 635 465C635 528.75 583.75 580 520 580S405 528.75 405 465V461.25L188.75 348.75C170 363.75 146.25 372.5 120 372.5C56.25 372.5 5 321.25 5 257.5S56.25 142.5 120 142.5C148.75 142.5 175 153.75 195 171.25L405 61.25V55C405 -8.75 456.25 -60 520 -60S635 -8.75 635 55C635 117.5 583.75 170 520 170z" />
    <glyph glyph-name="design"
      unicode="&#xF143;"
      horiz-adv-x="640" d=" M591.25 542.5L610 532.5C633.75 508.75 605 478.75 605 478.75C550 425 496.25 370 442.5 316.25C425 298.75 417.5 293.75 403.75 270C387.5 243.75 372.5 215 360 187.5L262.5 285S347.5 318.75 377.5 348.75C420 392.5 463.75 435 507.5 478.75C525 496.25 541.25 516.25 561.25 531.25zM37.5 -1.25C113.75 17.5 106.25 80 151.25 187.5C173.75 240 232.5 255 232.5 255L330 157.5S330 -51.25 37.5 -1.25" />
    <glyph glyph-name="double-arrow-left"
      unicode="&#xF144;"
      horiz-adv-x="640" d=" M273.75 293.75L546.25 533.75C567.5 551.25 603.75 551.25 623.75 533.75C645 515 645 483.75 623.75 465L388.75 260L623.75 55C645 36.25 645 6.25 623.75 -12.5C613.75 -22.5 600 -27.5 585 -27.5C571.25 -27.5 557.5 -22.5 546.25 -12.5L273.75 226.25C262.5 235 257.5 247.5 257.5 260S262.5 285 273.75 293.75zM16.25 293.75L290 533.75C310 551.25 346.25 551.25 366.25 533.75C388.75 515 388.75 483.75 366.25 465L132.5 260L366.25 55C388.75 36.25 388.75 6.25 366.25 -12.5C356.25 -22.5 342.5 -27.5 327.5 -27.5C313.75 -27.5 300 -22.5 290 -12.5L16.25 226.25C6.25 235 0 247.5 0 260S6.25 285 16.25 293.75z" />
    <glyph glyph-name="double-arrow-right"
      unicode="&#xF145;"
      horiz-adv-x="640" d=" M366.25 293.75L93.75 533.75C72.5 551.25 36.25 551.25 16.25 533.75C-5 515 -5 483.75 16.25 465L251.25 260L16.25 55C-5 36.25 -5 6.25 16.25 -12.5C26.25 -22.5 40 -27.5 55 -27.5C68.75 -27.5 82.5 -22.5 93.75 -12.5L366.25 226.25C377.5 235 382.5 247.5 382.5 260S377.5 285 366.25 293.75zM623.75 293.75L350 533.75C330 551.25 293.75 551.25 273.75 533.75C251.25 515 251.25 483.75 273.75 465L507.5 260L273.75 55C251.25 36.25 251.25 6.25 273.75 -12.5C283.75 -22.5 297.5 -27.5 312.5 -27.5C326.25 -27.5 340 -22.5 350 -12.5L623.75 226.25C633.75 235 640 247.5 640 260S633.75 285 623.75 293.75z" />
    <glyph glyph-name="download"
      unicode="&#xF146;"
      horiz-adv-x="640" d=" M548.75 -37.5H91.25V53.75H548.75zM91.25 -37.5H0V146.25H91.25zM640 -37.5H548.75V146.25H640zM548.75 373.75H457.5V557.5H182.5V373.75H91.25L328.75 137.5z" />
    <glyph glyph-name="drag-handle"
      unicode="&#xF147;"
      horiz-adv-x="640" d=" M357.5225 541.92875V424.4287500000001H475.0225V541.92875H357.5225zM163.75 541.25V423.75H281.25V541.25H163.75zM357.5225000000001 280.6787500000001V163.17875H475.0225V280.6787500000001H357.5225000000001zM163.75 280V162.5H281.25V280H163.75zM357.5225000000001 16.92875V-100.57125H475.0225V16.92875H357.5225000000001zM163.75 16.25V-101.25H281.25V16.25H163.75z" />
    <glyph glyph-name="duplicate"
      unicode="&#xF148;"
      horiz-adv-x="640" d=" M598.75 61.25H532.5V131.25H476.25V61.25H403.75V3.75H476.25V-60H532.5V3.75H598.75zM98.75 522.5H361.25L475 407.5V206.25H532.5V431.25L385 580H41.25V-60H336.25V-2.5H98.75z" />
    <glyph glyph-name="edit"
      unicode="&#xF149;"
      horiz-adv-x="640" d=" M1.25 -56.25L16.25 47.5L31.25 151.25L120 61.25L208.75 -27.5L105 -41.25zM505 328.75L237.5 62.5L208.75 92.5L475 358.75L415 417.5L148.75 151.25L120 181.25L386.25 447.5L356.25 477.5L60 181.25L237.5 3.75L533.75 298.75zM627.5 387.5C642.5 402.5 642.5 428.75 626.25 445L507.5 563.75C491.25 580 465 581.25 450 565L446.25 561.25L388.75 505L566.25 327.5L623.75 383.75L622.5 385C623.75 386.25 626.25 386.25 627.5 387.5z" />
    <glyph glyph-name="enterprise"
      unicode="&#xF14A;"
      horiz-adv-x="640" d=" M0 460H40V-20H0zM160 460H200V-20H160zM40 20H160V-20H40zM40 100H160V60H40zM40 180H160V140H40zM40 260H160V220H40zM40 340H160V300H40zM40 460H160V380H40zM80 460H120V-20H80zM240 420H280V-20H240zM280 20H400V-20H280zM280 100H400V60H280zM280 180H400V140H280zM280 260H400V220H280zM280 340H400V300H280zM280 420H400V380H280zM360 420H400V-20H360zM440 540H480V-20H440zM600 540H640V-20H600zM480 20H600V-20H480zM480 100H600V60H480zM480 180H600V140H480zM480 260H600V220H480zM480 340H600V300H480zM480 540H600V460H480zM520 460H560V-20H520zM480 420H600V380H480z" />
    <glyph glyph-name="enumerations"
      unicode="&#xF14B;"
      horiz-adv-x="640" d=" M250 512.5H640V453.75H250zM250 273.75H640V215H250zM250 50H640V-7.5H250zM62.5 -52.5L3.75 12.5C-2.5 18.75 -1.25 28.75 6.25 35C13.75 40 25 38.75 31.25 32.5L61.25 -1.25L150 107.5C155 113.75 166.25 115 173.75 110S183.75 95 177.5 88.75zM62.5 161.25L3.75 227.5C-2.5 233.75 -1.25 243.75 6.25 248.75S25 252.5 31.25 246.25L61.25 212.5L150 321.25C155 327.5 166.25 330 173.75 325S183.75 310 177.5 302.5zM91.25 392.5C42.5 392.5 1.25 432.5 1.25 482.5S42.5 572.5 91.25 572.5C141.25 572.5 182.5 532.5 182.5 482.5S141.25 392.5 91.25 392.5zM91.25 545C57.5 545 30 517.5 30 482.5C30 448.75 57.5 421.25 91.25 421.25C126.25 421.25 153.75 448.75 153.75 482.5C153.75 517.5 126.25 545 91.25 545z" />
    <glyph glyph-name="error"
      unicode="&#xF14C;"
      horiz-adv-x="640" d=" M545 485C420 608.75 218.75 608.75 95 485S-28.75 160 95 35C220 -88.75 420 -88.75 545 35C668.75 158.75 668.75 361.25 545 485zM297.5 467.5H363.75C383.75 467.5 386.25 456.25 386.25 450V443.75L385 436.25L371.25 196.25C370 177.5 362.5 173.75 348.75 173.75H313.75C300 173.75 292.5 177.5 290 195L276.25 443.75V450C276.25 456.25 278.75 467.5 297.5 467.5zM331.25 5C296.25 5 268.75 32.5 268.75 66.25C268.75 101.25 296.25 128.75 331.25 128.75S393.75 101.25 393.75 66.25C393.75 32.5 365 5 331.25 5z" />
    <glyph glyph-name="export-atom"
      unicode="&#xF14D;"
      horiz-adv-x="640" d=" M262.5 76.25C262.5 57.5 247.5 41.25 227.5 41.25C208.75 41.25 192.5 57.5 192.5 76.25S208.75 111.25 227.5 111.25C247.5 111.25 262.5 95 262.5 76.25zM195 212.5V166.25C227.5 166.25 258.75 152.5 281.25 130C305 106.25 317.5 76.25 317.5 43.75H363.75C362.5 136.25 287.5 211.25 195 212.5zM195 301.25V256.25C311.25 255 406.25 160 407.5 43.75H452.5C451.25 185 337.5 300 195 301.25zM568.75 432.5L420 580H77.5V-60H568.75V432.5zM133.75 -2.5V522.5H396.25L511.25 407.5V-2.5H133.75z" />
    <glyph glyph-name="export-bcf"
      unicode="&#xF14E;"
      horiz-adv-x="640" d=" M560 432.5L411.25 580H67.5V-60H560zM125 -2.5V522.5H387.5L502.5 407.5V-2.5z M178.3125 158.53H218.5025Q230.4362500000001 158.53 236.2650000000001 157.32375Q242.16375 156.1987500000001 246.7587500000001 152.49875Q251.4225000000001 148.7987500000001 254.50875 142.6037500000001Q257.5962500000001 136.49125 257.5962500000001 128.84875Q257.5962500000001 120.56375 253.755 113.64625Q249.9825 106.7287500000001 243.4675000000001 103.27125Q252.6575000000001 100.13375 257.5950000000001 92.57125Q262.5325000000001 85.01125 262.5325000000001 74.79625Q262.5325000000001 66.7525 259.31 59.11Q256.1550000000001 51.55 250.6 46.965Q245.1125000000001 42.46 237.02 41.415Q231.945 40.77125 212.53625 40.61H178.3125zM198.6125 138.905V111.63625H211.9187500000001Q223.78375 111.63625 226.66375 112.0375000000001Q231.87625 112.7625000000001 234.82625 116.2212500000001Q237.8425000000001 119.75875 237.8425000000001 125.47125Q237.8425000000001 130.94 235.2375000000001 134.31875Q232.7000000000001 137.7775 227.6250000000001 138.50125Q224.6062500000001 138.90375 210.2725 138.90375zM198.6125 92.00875V60.4775H217.405Q228.37875 60.4775 231.3275 61.2025Q235.85375 62.1675 238.665 65.8675Q241.5462500000001 69.6475 241.5462500000001 75.92125Q241.5462500000001 81.2312500000001 239.3525 84.9312500000001Q237.1575000000001 88.63125 232.97375 90.3200000000001Q228.85875 92.00875 215.005 92.00875zM344.07875 83.965L363.7625 76.64625Q359.2362500000001 57.34125 348.675 47.93Q338.18 38.59875 321.995 38.59875Q301.96875 38.59875 289.075 54.60625Q276.18125 70.69375 276.18125 98.525Q276.18125 127.965 289.14375 144.2125Q302.10625 160.54125 323.23 160.54125Q341.6787500000001 160.54125 353.2 147.7525Q360.0587500000001 140.19 363.4875 126.03375L343.3925 120.40375Q341.61 129.57375 335.9175 134.8825Q330.2925 140.19125 322.20125 140.19125Q311.02125 140.19125 304.02625 130.7787500000001Q297.09875 121.36875 297.09875 100.2937500000001Q297.09875 77.9325000000001 303.9575 68.4412500000001T321.78875 58.9500000000001Q329.8825 58.9500000000001 335.71125 64.9825000000001Q341.54125 71.0150000000001 344.07875 83.965zM381.3875000000001 40.61V158.53H450.315V138.5825H401.6875V110.67H443.66V90.7225H401.6875V40.6099999999999z" />
    <glyph glyph-name="export-csv"
      unicode="&#xF14F;"
      horiz-adv-x="640" d=" M241.25 66.25C240 66.25 237.5 66.25 236.25 65S233.75 62.5 231.25 61.25C230 60 227.5 58.75 225 57.5C221.25 56.25 217.5 55 213.75 55C208.75 55 205 56.25 201.25 58.75C197.5 60 195 62.5 192.5 66.25C190 68.75 187.5 73.75 186.25 77.5C185 82.5 183.75 88.75 183.75 95S185 106.25 186.25 111.25S188.75 120 191.25 123.75C193.75 126.25 197.5 130 201.25 131.25S208.75 133.75 213.75 133.75S221.25 133.75 223.75 132.5S228.75 131.25 231.25 130C232.5 128.75 235 127.5 236.25 126.25C237.5 126.25 238.75 125 240 125S242.5 126.25 243.75 126.25S245 127.5 246.25 128.75L253.75 138.75C248.75 145 242.5 148.75 236.25 151.25C228.75 153.75 221.25 156.25 212.5 156.25S195 153.75 187.5 151.25C180 147.5 175 143.75 170 138.75C165 132.5 161.25 126.25 158.75 118.75S155 103.75 155 95C155 85 156.25 76.25 158.75 68.75C162.5 61.25 166.25 55 170 50C175 45 181.25 41.25 187.5 37.5C193.75 35 201.25 33.75 208.75 33.75C212.5 33.75 216.25 33.75 221.25 35C225 35 228.75 36.25 232.5 37.5C237.5 40 241.25 41.25 245 43.75S251.25 50 255 53.75L246.25 63.75C245 65 243.75 66.25 241.25 66.25zM342.5 93.75C340 96.25 336.25 98.75 332.5 100C330 101.25 326.25 103.75 322.5 105S315 107.5 311.25 107.5C307.5 108.75 305 110 302.5 111.25S297.5 113.75 296.25 116.25C293.75 117.5 293.75 120 293.75 122.5C293.75 126.25 295 128.75 297.5 131.25C301.25 133.75 306.25 135 311.25 135C315 135 317.5 135 321.25 133.75C323.75 133.75 326.25 132.5 327.5 131.25C330 130 331.25 130 333.75 128.75C335 127.5 336.25 127.5 337.5 127.5S340 127.5 341.25 128.75C342.5 128.75 342.5 130 343.75 131.25L350 141.25C346.25 145 340 148.75 333.75 151.25C326.25 153.75 318.75 156.25 311.25 156.25S297.5 155 291.25 152.5C286.25 151.25 281.25 148.75 277.5 145S271.25 137.5 268.75 133.75S266.25 125 266.25 120S266.25 110 268.75 106.25C270 102.5 272.5 100 275 97.5S281.25 92.5 285 91.25C287.5 90 291.25 87.5 295 86.25S302.5 83.75 306.25 83.75C310 82.5 312.5 81.25 315 80S320 77.5 322.5 75C323.75 73.75 323.75 71.25 323.75 68.75V62.5L320 58.75C318.75 57.5 316.25 56.25 313.75 55C311.25 55 308.75 53.75 305 53.75S297.5 55 295 55C291.25 56.25 288.75 57.5 287.5 58.75C285 60 282.5 61.25 281.25 62.5C280 62.5 278.75 63.75 276.25 63.75C275 63.75 273.75 63.75 272.5 62.5S270 61.25 268.75 60L262.5 48.75C265 46.25 267.5 45 270 42.5C273.75 41.25 277.5 40 280 37.5C283.75 36.25 287.5 36.25 291.25 35C296.25 33.75 300 33.75 303.75 33.75C311.25 33.75 318.75 35 323.75 36.25C330 38.75 335 41.25 338.75 45C343.75 48.75 346.25 52.5 348.75 57.5S351.25 67.5 351.25 73.75C351.25 78.75 351.25 82.5 348.75 86.25C347.5 88.75 345 91.25 342.5 93.75zM457.5 153.75C455 153.75 453.75 153.75 452.5 152.5C450 151.25 450 150 448.75 148.75L426.25 85C425 81.25 423.75 77.5 422.5 75C421.25 71.25 421.25 67.5 420 63.75C418.75 67.5 418.75 71.25 417.5 75C416.25 77.5 415 81.25 413.75 85L391.25 148.75C391.25 150 390 151.25 388.75 152.5S385 153.75 383.75 153.75H360L406.25 35H432.5L480 153.75zM566.25 431.25L417.5 580H73.75V-60H566.25V431.25H565zM131.25 -2.5V522.5H393.75L508.75 407.5V-2.5H131.25z" />
    <glyph glyph-name="export-pdf-descr"
      unicode="&#xF150;"
      horiz-adv-x="640" d=" M198.75 263.75H431.25V225H198.75zM200 340H432.5V300H200zM200 416.25H432.5V376.25H200zM562.5 432.5L415 580H71.25V-60H562.5V432.5zM128.75 -2.5V522.5H391.25L505 407.5V-2.5H128.75zM243.75 143.75C240 146.25 235 148.75 230 151.25C223.75 152.5 217.5 153.75 210 153.75H172.5V37.5H193.75V78.75H210C217.5 78.75 223.75 80 228.75 81.25C235 83.75 240 86.25 243.75 90C247.5 92.5 250 96.25 251.25 101.25C253.75 106.25 255 111.25 255 116.25C255 122.5 253.75 127.5 252.5 131.25C250 136.25 247.5 140 243.75 143.75zM231.25 107.5C230 105 228.75 102.5 227.5 101.25C225 100 222.5 97.5 220 97.5C217.5 96.25 213.75 95 210 95H193.75V137.5H210C213.75 137.5 217.5 136.25 220 136.25C222.5 135 225 133.75 227.5 131.25C228.75 130 230 127.5 231.25 125S232.5 120 232.5 117.5C232.5 113.75 232.5 111.25 231.25 107.5zM357.5 137.5C352.5 142.5 346.25 146.25 338.75 150C332.5 152.5 323.75 153.75 315 153.75H271.25V37.5H315C323.75 37.5 332.5 40 338.75 42.5C346.25 45 352.5 48.75 357.5 53.75S367.5 65 370 72.5S373.75 87.5 373.75 96.25C373.75 103.75 372.5 112.5 370 118.75C367.5 126.25 362.5 132.5 357.5 137.5zM348.75 78.75C347.5 73.75 345 70 342.5 66.25C338.75 62.5 335 60 330 57.5C326.25 56.25 321.25 55 315 55H292.5V136.25H315C321.25 136.25 326.25 136.25 330 133.75C335 132.5 338.75 128.75 342.5 126.25C345 122.5 347.5 117.5 348.75 112.5C351.25 107.5 352.5 102.5 352.5 96.25S351.25 83.75 348.75 78.75zM463.75 136.25V153.75H391.25V37.5H412.5V85H456.25V102.5H412.5V136.25z" />
    <glyph glyph-name="export-pdf-with-descriptions"
      unicode="&#xF151;"
      horiz-adv-x="640" d=" M198.75 263.75H431.25V225H198.75zM200 340H432.5V300H200zM200 416.25H432.5V376.25H200zM562.5 432.5L415 580H71.25V-60H562.5V432.5zM128.75 -2.5V522.5H391.25L505 407.5V-2.5H128.75zM243.75 143.75C240 146.25 235 148.75 230 151.25C223.75 152.5 217.5 153.75 210 153.75H172.5V37.5H193.75V78.75H210C217.5 78.75 223.75 80 228.75 81.25C235 83.75 240 86.25 243.75 90C247.5 92.5 250 96.25 251.25 101.25C253.75 106.25 255 111.25 255 116.25C255 122.5 253.75 127.5 252.5 131.25C250 136.25 247.5 140 243.75 143.75zM231.25 107.5C230 105 228.75 102.5 227.5 101.25C225 100 222.5 97.5 220 97.5C217.5 96.25 213.75 95 210 95H193.75V137.5H210C213.75 137.5 217.5 136.25 220 136.25C222.5 135 225 133.75 227.5 131.25C228.75 130 230 127.5 231.25 125S232.5 120 232.5 117.5C232.5 113.75 232.5 111.25 231.25 107.5zM357.5 137.5C352.5 142.5 346.25 146.25 338.75 150C332.5 152.5 323.75 153.75 315 153.75H271.25V37.5H315C323.75 37.5 332.5 40 338.75 42.5C346.25 45 352.5 48.75 357.5 53.75S367.5 65 370 72.5S373.75 87.5 373.75 96.25C373.75 103.75 372.5 112.5 370 118.75C367.5 126.25 362.5 132.5 357.5 137.5zM348.75 78.75C347.5 73.75 345 70 342.5 66.25C338.75 62.5 335 60 330 57.5C326.25 56.25 321.25 55 315 55H292.5V136.25H315C321.25 136.25 326.25 136.25 330 133.75C335 132.5 338.75 128.75 342.5 126.25C345 122.5 347.5 117.5 348.75 112.5C351.25 107.5 352.5 102.5 352.5 96.25S351.25 83.75 348.75 78.75zM463.75 136.25V153.75H391.25V37.5H412.5V85H456.25V102.5H412.5V136.25z" />
    <glyph glyph-name="export-pdf"
      unicode="&#xF152;"
      horiz-adv-x="640" d=" M551.25 432.5L402.5 580H58.75V-60H551.25V432.5zM116.25 -2.5V522.5H378.75L493.75 407.5V-2.5H116.25zM232.5 143.75C228.75 146.25 223.75 148.75 218.75 151.25C212.5 152.5 206.25 153.75 197.5 153.75H160V37.5H182.5V78.75H197.5C205 78.75 212.5 80 217.5 81.25C223.75 83.75 227.5 86.25 231.25 90C235 92.5 238.75 96.25 240 101.25C242.5 106.25 242.5 111.25 242.5 116.25C242.5 122.5 242.5 127.5 240 131.25C238.75 136.25 236.25 140 232.5 143.75zM220 107.5C218.75 105 217.5 102.5 216.25 101.25C213.75 100 211.25 97.5 208.75 97.5C205 96.25 202.5 95 197.5 95H182.5V137.5H197.5C202.5 137.5 205 136.25 208.75 136.25C211.25 135 213.75 133.75 216.25 131.25C217.5 130 218.75 127.5 220 125S221.25 120 221.25 117.5C221.25 113.75 221.25 111.25 220 107.5zM346.25 137.5C341.25 142.5 335 146.25 327.5 150C320 152.5 312.5 153.75 303.75 153.75H260V37.5H303.75C312.5 37.5 320 40 327.5 42.5S341.25 48.75 346.25 53.75S355 65 358.75 72.5C361.25 80 362.5 87.5 362.5 96.25C362.5 103.75 361.25 112.5 358.75 118.75C355 126.25 351.25 132.5 346.25 137.5zM337.5 78.75C336.25 73.75 333.75 70 330 66.25C327.5 62.5 323.75 60 318.75 57.5C315 56.25 310 55 303.75 55H281.25V136.25H303.75C308.75 136.25 315 136.25 318.75 133.75C323.75 132.5 327.5 128.75 330 126.25C333.75 122.5 336.25 117.5 337.5 112.5C340 107.5 340 102.5 340 96.25S340 83.75 337.5 78.75zM452.5 136.25V153.75H378.75V37.5H401.25V85H443.75V102.5H401.25V136.25z" />
    <glyph glyph-name="export-xls-descr"
      unicode="&#xF153;"
      horiz-adv-x="640" d=" M177.5 37.5L216.25 97.5L180 153.75H201.25C202.5 153.75 203.75 153.75 203.75 152.5C205 152.5 205 152.5 206.25 151.25L232.5 108.75V111.25C233.75 111.25 233.75 112.5 233.75 112.5L258.75 151.25C260 152.5 261.25 153.75 262.5 153.75H283.75L246.25 98.75L285 37.5H262.5C261.25 37.5 260 38.75 260 38.75L257.5 41.25L230 86.25V83.75L228.75 82.5L203.75 41.25C202.5 41.25 202.5 40 201.25 38.75C200 38.75 198.75 37.5 197.5 37.5zM297.5 37.5V153.75H318.75V56.25H365V37.5H297.5zM371.25 52.5L377.5 62.5S378.75 63.75 380 63.75C380 65 381.25 65 382.5 65S385 65 386.25 63.75S390 61.25 392.5 60C393.75 58.75 396.25 57.5 400 56.25C402.5 55 406.25 55 410 55C416.25 55 420 56.25 423.75 58.75S428.75 66.25 428.75 71.25C428.75 73.75 428.75 76.25 426.25 78.75C425 81.25 422.5 82.5 421.25 83.75C417.5 85 415 86.25 412.5 87.5C408.75 87.5 405 88.75 402.5 90C398.75 91.25 396.25 92.5 392.5 93.75S386.25 97.5 383.75 100S380 105 377.5 108.75C376.25 112.5 375 116.25 375 121.25S376.25 130 377.5 133.75C380 138.75 382.5 141.25 385 145C388.75 147.5 392.5 150 397.5 152.5C402.5 153.75 407.5 155 413.75 155S426.25 153.75 432.5 151.25C438.75 150 443.75 146.25 447.5 142.5L442.5 132.5L440 130H437.5C436.25 130 435 130 433.75 131.25C432.5 131.25 430 132.5 428.75 133.75S425 135 422.5 136.25S417.5 137.5 413.75 137.5C411.25 137.5 408.75 137.5 406.25 136.25S402.5 135 400 133.75C398.75 132.5 397.5 130 397.5 128.75C396.25 127.5 396.25 125 396.25 122.5S396.25 117.5 398.75 116.25C400 113.75 401.25 112.5 403.75 111.25S410 108.75 412.5 107.5C416.25 107.5 418.75 106.25 422.5 105S428.75 102.5 432.5 101.25C435 98.75 438.75 97.5 441.25 95S445 90 447.5 86.25C448.75 83.75 450 78.75 450 73.75S448.75 63.75 446.25 60C445 55 442.5 51.25 438.75 47.5S431.25 41.25 426.25 40C421.25 37.5 415 36.25 408.75 36.25C405 36.25 401.25 37.5 398.75 37.5L387.5 41.25C385 42.5 381.25 43.75 378.75 46.25C376.25 47.5 373.75 50 371.25 52.5zM196.25 263.75H427.5V225H196.25zM197.5 340H428.75V300H197.5zM197.5 416.25H428.75V376.25H197.5zM558.75 432.5L411.25 580H67.5V-60H560V432.5zM125 -2.5V522.5H387.5L502.5 407.5V-2.5H125z" />
    <glyph glyph-name="export-xls-with-descriptions"
      unicode="&#xF154;"
      horiz-adv-x="640" d=" M177.5 37.5L216.25 97.5L180 153.75H201.25C202.5 153.75 203.75 153.75 203.75 152.5C205 152.5 205 152.5 206.25 151.25L232.5 108.75V111.25C233.75 111.25 233.75 112.5 233.75 112.5L258.75 151.25C260 152.5 261.25 153.75 262.5 153.75H283.75L246.25 98.75L285 37.5H262.5C261.25 37.5 260 38.75 260 38.75L257.5 41.25L230 86.25V83.75L228.75 82.5L203.75 41.25C202.5 41.25 202.5 40 201.25 38.75C200 38.75 198.75 37.5 197.5 37.5zM297.5 37.5V153.75H318.75V56.25H365V37.5H297.5zM371.25 52.5L377.5 62.5S378.75 63.75 380 63.75C380 65 381.25 65 382.5 65S385 65 386.25 63.75S390 61.25 392.5 60C393.75 58.75 396.25 57.5 400 56.25C402.5 55 406.25 55 410 55C416.25 55 420 56.25 423.75 58.75S428.75 66.25 428.75 71.25C428.75 73.75 428.75 76.25 426.25 78.75C425 81.25 422.5 82.5 421.25 83.75C417.5 85 415 86.25 412.5 87.5C408.75 87.5 405 88.75 402.5 90C398.75 91.25 396.25 92.5 392.5 93.75S386.25 97.5 383.75 100S380 105 377.5 108.75C376.25 112.5 375 116.25 375 121.25S376.25 130 377.5 133.75C380 138.75 382.5 141.25 385 145C388.75 147.5 392.5 150 397.5 152.5C402.5 153.75 407.5 155 413.75 155S426.25 153.75 432.5 151.25C438.75 150 443.75 146.25 447.5 142.5L442.5 132.5L440 130H437.5C436.25 130 435 130 433.75 131.25C432.5 131.25 430 132.5 428.75 133.75S425 135 422.5 136.25S417.5 137.5 413.75 137.5C411.25 137.5 408.75 137.5 406.25 136.25S402.5 135 400 133.75C398.75 132.5 397.5 130 397.5 128.75C396.25 127.5 396.25 125 396.25 122.5S396.25 117.5 398.75 116.25C400 113.75 401.25 112.5 403.75 111.25S410 108.75 412.5 107.5C416.25 107.5 418.75 106.25 422.5 105S428.75 102.5 432.5 101.25C435 98.75 438.75 97.5 441.25 95S445 90 447.5 86.25C448.75 83.75 450 78.75 450 73.75S448.75 63.75 446.25 60C445 55 442.5 51.25 438.75 47.5S431.25 41.25 426.25 40C421.25 37.5 415 36.25 408.75 36.25C405 36.25 401.25 37.5 398.75 37.5L387.5 41.25C385 42.5 381.25 43.75 378.75 46.25C376.25 47.5 373.75 50 371.25 52.5zM196.25 263.75H427.5V225H196.25zM197.5 340H428.75V300H197.5zM197.5 416.25H428.75V376.25H197.5zM558.75 432.5L411.25 580H67.5V-60H560V432.5zM125 -2.5V522.5H387.5L502.5 407.5V-2.5H125z" />
    <glyph glyph-name="export-xls-with-relations"
      unicode="&#xF155;"
      horiz-adv-x="640" d=" M177.5 37.5L216.25 97.5L180 153.75H201.25C202.5 153.75 203.75 153.75 203.75 152.5C205 152.5 205 152.5 206.25 151.25L232.5 108.75V111.25C233.75 111.25 233.75 112.5 233.75 112.5L258.75 151.25C260 152.5 261.25 153.75 262.5 153.75H283.75L246.25 98.75L285 37.5H262.5C261.25 37.5 260 38.75 260 38.75L257.5 41.25L230 86.25V83.75L228.75 82.5L203.75 41.25C202.5 41.25 202.5 40 201.25 38.75C200 38.75 198.75 37.5 197.5 37.5H177.5zM297.5 37.5V153.75H318.75V56.25H365V37.5H297.5zM371.25 52.5L377.5 62.5C377.5 62.5 378.75 63.75 380 63.75C380 65 381.25 65 382.5 65S385 65 386.25 63.75S390 61.25 392.5 60C393.75 58.75 396.25 57.5 400 56.25C402.5 55 406.25 55 410 55C416.25 55 420 56.25 423.75 58.75S428.75 66.25 428.75 71.25C428.75 73.75 428.75 76.25 426.25 78.75C425 81.25 422.5 82.5 421.25 83.75C417.5 85 415 86.25 412.5 87.5C408.75 87.5 405 88.75 402.5 90C398.75 91.25 396.25 92.5 392.5 93.75S386.25 97.5 383.75 100S380 105 377.5 108.75C376.25 112.5 375 116.25 375 121.25S376.25 130 377.5 133.75C380 138.75 382.5 141.25 385 145C388.75 147.5 392.5 150 397.5 152.5C402.5 153.75 407.5 155 413.75 155S426.25 153.75 432.5 151.25C438.75 150 443.75 146.25 447.5 142.5L442.5 132.5L440 130H437.5C436.25 130 435 130 433.75 131.25C432.5 131.25 430 132.5 428.75 133.75S425 135 422.5 136.25S417.5 137.5 413.75 137.5C411.25 137.5 408.75 137.5 406.25 136.25S402.5 135 400 133.75C398.75 132.5 397.5 130 397.5 128.75C396.25 127.5 396.25 125 396.25 122.5S396.25 117.5 398.75 116.25C400 113.75 401.25 112.5 403.75 111.25S410 108.75 412.5 107.5C416.25 107.5 418.75 106.25 422.5 105S428.75 102.5 432.5 101.25C435 98.75 438.75 97.5 441.25 95S445 90 447.5 86.25C448.75 83.75 450 78.75 450 73.75S448.75 63.75 446.25 60C445 55 442.5 51.25 438.75 47.5S431.25 41.25 426.25 40C421.25 37.5 415 36.25 408.75 36.25C405 36.25 401.25 37.5 398.75 37.5L387.5 41.25C385 42.5 381.25 43.75 378.75 46.25C376.25 47.5 373.75 50 371.25 52.5zM558.75 432.5L411.25 580H67.5V-60H560V432.5H558.75zM125 -2.5V522.5H387.5L502.5 407.5V-2.5H125z M182.75 404.375H374.25V276.3750000000001H182.75V404.375z M194.25 392.75H362.625V361.6250000000001H194.25V392.75z M368.875 355.5L424.375 356L424.375 329.25L368.75 329.25 M459.75 340.25C439.75 326.25 415.125 302.375 399.75 277V403.5C415.125 378.25 439.75 354.25 459.75 340.25z" />
    <glyph glyph-name="export-xls"
      unicode="&#xF156;"
      horiz-adv-x="640" d=" M283.75 153.75H263.75C261.25 153.75 260 152.5 258.75 151.25L235 112.5C233.75 112.5 233.75 111.25 233.75 111.25C233.75 110 232.5 110 232.5 108.75L206.25 151.25C206.25 152.5 205 152.5 205 152.5C203.75 153.75 202.5 153.75 201.25 153.75H180L216.25 97.5L178.75 37.5H198.75C200 37.5 201.25 38.75 201.25 38.75L203.75 41.25L230 82.5V83.75C231.25 85 231.25 85 231.25 86.25L257.5 41.25C258.75 41.25 258.75 40 260 38.75C261.25 38.75 262.5 37.5 263.75 37.5H285L246.25 98.75zM318.75 153.75H297.5V37.5H365V56.25H318.75zM447.5 86.25C446.25 90 443.75 92.5 441.25 95S436.25 98.75 432.5 101.25C430 102.5 426.25 103.75 422.5 105C420 106.25 416.25 106.25 413.75 107.5C410 108.75 407.5 110 405 111.25S400 113.75 398.75 116.25C397.5 117.5 396.25 120 396.25 122.5S397.5 127.5 397.5 128.75C398.75 130 400 132.5 401.25 133.75S405 135 406.25 136.25C408.75 137.5 411.25 137.5 415 137.5C417.5 137.5 420 137.5 422.5 136.25S427.5 133.75 428.75 133.75C431.25 132.5 432.5 131.25 433.75 131.25C435 130 436.25 130 437.5 130H440C441.25 131.25 442.5 131.25 442.5 132.5L447.5 142.5C443.75 146.25 438.75 150 432.5 151.25C427.5 153.75 421.25 155 413.75 155C407.5 155 402.5 153.75 397.5 152.5C393.75 150 388.75 147.5 386.25 145C382.5 141.25 380 137.5 378.75 133.75S376.25 126.25 376.25 121.25S377.5 112.5 378.75 108.75S382.5 102.5 385 100S390 95 392.5 93.75C396.25 92.5 400 91.25 402.5 90C406.25 88.75 410 87.5 412.5 87.5C416.25 86.25 418.75 85 421.25 83.75S426.25 80 427.5 78.75C428.75 76.25 430 73.75 430 71.25C430 66.25 427.5 61.25 425 58.75C421.25 56.25 416.25 55 410 55C406.25 55 402.5 55 400 56.25L392.5 60C390 61.25 388.75 62.5 387.5 63.75C385 65 383.75 65 382.5 65S381.25 65 380 63.75C378.75 63.75 378.75 62.5 377.5 62.5L371.25 52.5C373.75 50 376.25 47.5 378.75 46.25C382.5 43.75 385 42.5 388.75 41.25C391.25 40 395 38.75 398.75 37.5C402.5 37.5 406.25 36.25 410 36.25C416.25 36.25 421.25 37.5 426.25 40C431.25 41.25 436.25 43.75 440 47.5C442.5 51.25 445 55 447.5 60C448.75 63.75 450 68.75 450 73.75S448.75 82.5 447.5 86.25zM560 432.5L411.25 580H67.5V-60H560V432.5zM125 -2.5V522.5H387.5L502.5 407.5V-2.5H125z" />
    <glyph glyph-name="export"
      unicode="&#xF157;"
      horiz-adv-x="640" d=" M640 260L476.25 425V300H238.75V220H476.25V95zM397.5 -60H0V580H397.5V380H317.5V500H80V20H317.5V140H397.5z" />
    <glyph glyph-name="faq"
      unicode="&#xF158;"
      horiz-adv-x="640" d=" M167.5 171.25V275C80 287.5 13.75 351.25 13.75 426.25C13.75 511.25 96.25 580 197.5 580H320C422.5 580 505 511.25 505 426.25C505 345 427.5 277.5 331.25 273.75zM197.5 528.75C130 528.75 75 482.5 75 426.25S130 323.75 197.5 323.75H228.75V273.75L310 323.75H320C388.75 323.75 443.75 370 443.75 426.25S388.75 528.75 320 528.75zM397.5 13.75C328.75 17.5 272.5 65 272.5 123.75C272.5 185 332.5 235 405 235H493.75C567.5 235 626.25 185 626.25 123.75C626.25 70 578.75 23.75 516.25 15V-60zM405 197.5C356.25 197.5 317.5 165 317.5 123.75C317.5 83.75 356.25 51.25 405 51.25H412.5L472.5 13.75V51.25H493.75C542.5 51.25 582.5 83.75 582.5 123.75C582.5 165 542.5 197.5 493.75 197.5zM217.5 497.5C232.5 506.25 248.75 510 266.25 510C281.25 510 292.5 506.25 301.25 500C311.25 492.5 315 482.5 315 470C315 463.75 313.75 458.75 312.5 455C311.25 450 308.75 446.25 305 442.5S295 433.75 286.25 426.25C280 421.25 275 416.25 272.5 413.75C270 410 268.75 405 268.75 398.75V393.75H247.5V401.25C247.5 408.75 248.75 416.25 251.25 421.25C255 426.25 260 432.5 267.5 438.75C276.25 445 282.5 451.25 285 455S288.75 463.75 288.75 468.75C288.75 475 286.25 480 282.5 483.75C277.5 486.25 272.5 488.75 263.75 488.75C257.5 488.75 250 487.5 245 485C238.75 483.75 232.5 481.25 226.25 477.5zM242.5 357.5C242.5 368.75 248.75 375 258.75 375C265 375 268.75 373.75 271.25 370C273.75 367.5 276.25 363.75 276.25 357.5C276.25 352.5 273.75 348.75 271.25 345C268.75 342.5 265 340 258.75 340C253.75 340 250 342.5 247.5 345C243.75 347.5 242.5 352.5 242.5 357.5zM435 85C435 88.75 436.25 91.25 438.75 93.75C440 95 443.75 96.25 447.5 96.25S453.75 95 456.25 93.75C457.5 91.25 458.75 88.75 458.75 85S457.5 78.75 456.25 76.25C453.75 75 451.25 73.75 447.5 73.75S440 75 438.75 76.25C436.25 78.75 435 81.25 435 85zM435 173.75H458.75L455 107.5H438.75z" />
    <glyph glyph-name="filter"
      unicode="&#xF159;"
      horiz-adv-x="640" d=" M638.75 570H1.25L257.5 240V-50L382.5 11.25V240z" />
    <glyph glyph-name="flag"
      unicode="&#xF15A;"
      horiz-adv-x="640" d=" M472.5 535S366.25 485 260 521.25C143.75 562.5 92.5 546.25 42.5 485C33.75 490 23.75 491.25 15 485C1.25 477.5 -2.5 460 5 447.5L287.5 -11.25C292.5 -18.75 301.25 -23.75 311.25 -23.75C316.25 -23.75 321.25 -22.5 325 -20C338.75 -11.25 342.5 5 335 18.75L208.75 222.5C258.75 282.5 311.25 298.75 426.25 258.75C532.5 221.25 638.75 272.5 638.75 272.5z" />
    <glyph glyph-name="folder-add"
      unicode="&#xF15B;"
      horiz-adv-x="640" d=" M360 160V200H440V280H600V400C600 422.5 582.5 440 560 440H320C297.5 440 268.75 453.75 253.75 470L236.25 490C221.25 506.25 192.5 520 170 520H40C17.5 520 0 502.5 0 480V80C0 57.5 17.5 40 40 40H360zM640 160H560V240H480V160H400V80H480V0H560V80H640z" />
    <glyph glyph-name="folder-locked"
      unicode="&#xF15C;"
      horiz-adv-x="640" d=" M640 0H440V160H640zM600 160H560V200H520V160H480V240H600zM400 200H440V280H600V400C600 422.5 582.5 440 560 440H320C297.5 440 268.75 453.75 253.75 470L236.25 490C221.25 506.25 192.5 520 170 520H40C17.5 520 0 502.5 0 480V80C0 57.5 17.5 40 40 40H400z" />
    <glyph glyph-name="folder-open"
      unicode="&#xF15D;"
      horiz-adv-x="640" d=" M50 432.5H296.25L197.5 530H50zM591.25 -10H50L1.25 333.75H640zM591.25 382.5H50V432.5H591.25z" />
    <glyph glyph-name="folder-remove"
      unicode="&#xF15E;"
      horiz-adv-x="640" d=" M360 140V180H600V380C600 402.5 582.5 420 560 420H320C297.5 420 268.75 433.75 253.75 450L236.25 470C221.25 486.25 192.5 500 170 500H40C17.5 500 0 482.5 0 460V60C0 37.5 17.5 20 40 20H360zM400 60V140H640V60z" />
    <glyph glyph-name="folder"
      unicode="&#xF15F;"
      horiz-adv-x="640" d=" M0 47.5C0 23.75 20 3.75 42.5 3.75H597.5C620 3.75 640 23.75 640 47.5V387.5C640 411.25 620 430 597.5 430H341.25C317.5 430 286.25 445 270 462.5L252.5 483.75C236.25 501.25 205 515 181.25 515H42.5C20 515 0 496.25 0 472.5z" />
    <glyph glyph-name="forums"
      unicode="&#xF160;"
      horiz-adv-x="640" d=" M560 380H520V340C520 278.75 461.25 220 400 220H216.25L160 163.75V140C160 100 200 60 240 60H440L560 -60V60C600 60 640 100 640 140V300C640 340 600 380 560 380zM400 580H80C40 580 0 540 0 500V340C0 300 40 260 80 260C87.5 260 61.25 260 80 260V140L200 260H400C440 260 480 300 480 340V500C480 540 440 580 400 580z" />
    <glyph glyph-name="from-fullscreen"
      unicode="&#xF161;"
      horiz-adv-x="640" d=" M362.5 139.5L362.5 -20.5L402.5 -20.5L402.5 112L546.25 -36.75L578.75 -4.25L430 139.5L562.5 139.5L562.5 179.5L362.5 179.5z M63.75 445.75L212.5 302L80 302L80 262L280 262L280 462L240 462L240 329.5L96.25 478.25z" />
    <glyph glyph-name="getting-started"
      unicode="&#xF162;"
      horiz-adv-x="640" d=" M640 131.25L508.75 208.75V166.25H0V96.25H508.75V55zM95 426.25C97.5 428.75 100 430 101.25 432.5C101.25 423.75 100 413.75 100 400V285H128.75V462.5H105L52.5 421.25L67.5 403.75C82.5 416.25 92.5 423.75 95 426.25zM226.25 311.25L223.75 313.75H196.25C193.75 295 192.5 275 187.5 252.5H207.5C217.5 276.25 222.5 296.25 226.25 311.25zM375 310H290V311.25L321.25 341.25C335 353.75 345 365 351.25 372.5S361.25 387.5 363.75 395C367.5 401.25 368.75 410 368.75 417.5C368.75 432.5 363.75 443.75 353.75 452.5S330 465 313.75 465C303.75 465 293.75 463.75 283.75 460C275 456.25 265 451.25 255 442.5L271.25 423.75C278.75 430 286.25 435 292.5 437.5S306.25 441.25 312.5 441.25C321.25 441.25 327.5 438.75 332.5 433.75C337.5 430 340 422.5 340 415C340 408.75 338.75 403.75 336.25 398.75C335 393.75 331.25 387.5 327.5 382.5C322.5 376.25 313.75 366.25 300 352.5L253.75 306.25V285H375zM435 311.25L433.75 313.75H406.25C403.75 295 401.25 275 396.25 252.5H417.5C427.5 276.25 431.25 296.25 435 311.25zM563.75 296.25C576.25 305 581.25 318.75 581.25 336.25C581.25 347.5 577.5 357.5 571.25 363.75C565 371.25 553.75 376.25 540 377.5V378.75C551.25 381.25 561.25 386.25 567.5 393.75S577.5 411.25 577.5 422.5C577.5 435 572.5 446.25 562.5 453.75S537.5 465 520 465C498.75 465 480 460 463.75 447.5L477.5 427.5C486.25 432.5 493.75 436.25 500 438.75C506.25 440 512.5 441.25 518.75 441.25C528.75 441.25 536.25 440 541.25 435C546.25 431.25 548.75 425 548.75 417.5C548.75 397.5 533.75 388.75 506.25 388.75H490V365H505C521.25 365 533.75 362.5 541.25 357.5C548.75 353.75 552.5 346.25 552.5 337.5C552.5 326.25 548.75 318.75 542.5 313.75C535 308.75 525 306.25 511.25 306.25C503.75 306.25 495 306.25 487.5 308.75C478.75 311.25 470 313.75 462.5 317.5V291.25C476.25 285 492.5 282.5 512.5 282.5C535 282.5 552.5 287.5 563.75 296.25z" />
    <glyph glyph-name="glossar"
      unicode="&#xF163;"
      horiz-adv-x="640" d=" M320 400C320 500 97.5 520 0 520V80H40V40C120 40 280 63.75 280 0H360C360 63.75 520 40 600 40V80H640V520C542.5 520 320 500 320 400zM40 480C60 480 77.5 478.75 95 477.5H108.75C187.5 471.25 270 455 278.75 407.5C280 405 280 402.5 280 400V102.5C221.25 136.25 112.5 140 40 140zM600 140C527.5 140 418.75 136.25 360 102.5V400C360 426.25 402.5 477.5 600 480zM121.25 253.75L100 193.75H75L141.25 385H171.25L237.5 193.75H210L190 253.75zM185 273.75L165 327.5C161.25 340 158.75 352.5 155 362.5C152.5 351.25 148.75 340 145 328.75L126.25 273.75zM406.25 208.75L515 363.75H416.25V385H547.5V370L440 215H548.75V193.75H406.25V208.75z" />
    <glyph glyph-name="google-plus"
      unicode="&#xF164;"
      horiz-adv-x="640" d=" M336.25 56.25C336.25 61.25 335 66.25 333.75 71.25S332.5 80 331.25 83.75S327.5 92.5 325 96.25C321.25 101.25 318.75 103.75 317.5 107.5L307.5 117.5C303.75 122.5 300 125 297.5 127.5C295 128.75 291.25 132.5 286.25 136.25S277.5 142.5 275 143.75C273.75 146.25 268.75 148.75 263.75 152.5C257.5 156.25 253.75 158.75 252.5 160C248.75 160 242.5 161.25 235 161.25C221.25 161.25 208.75 160 196.25 158.75C185 156.25 171.25 153.75 158.75 148.75C145 145 133.75 140 123.75 132.5C113.75 126.25 105 117.5 98.75 106.25S88.75 82.5 88.75 67.5C88.75 51.25 93.75 37.5 101.25 25C110 11.25 121.25 1.25 135 -5C148.75 -12.5 162.5 -18.75 177.5 -21.25C192.5 -25 207.5 -27.5 223.75 -27.5C237.5 -27.5 251.25 -26.25 263.75 -22.5C276.25 -20 287.5 -15 298.75 -8.75S318.75 6.25 326.25 17.5C332.5 28.75 336.25 41.25 336.25 56.25zM292.5 365C292.5 378.75 291.25 393.75 287.5 410C282.5 426.25 277.5 441.25 270 456.25S252.5 483.75 240 493.75S213.75 508.75 197.5 508.75C175 508.75 158.75 500 146.25 483.75S127.5 447.5 127.5 425C127.5 413.75 128.75 402.5 132.5 390C135 377.5 138.75 365 145 352.5C150 340 157.5 328.75 165 318.75S181.25 301.25 192.5 295S215 286.25 227.5 286.25C250 286.25 267.5 292.5 277.5 307.5C287.5 321.25 292.5 341.25 292.5 365zM246.25 533.75H402.5L353.75 506.25H306.25C322.5 495 336.25 480 345 461.25C353.75 441.25 358.75 421.25 358.75 401.25C358.75 382.5 356.25 367.5 351.25 353.75C345 340 338.75 328.75 331.25 321.25L307.5 297.5C298.75 291.25 292.5 283.75 287.5 276.25C281.25 268.75 278.75 260 278.75 251.25C278.75 245 281.25 240 285 233.75S293.75 222.5 300 216.25C306.25 211.25 313.75 205 321.25 198.75C328.75 193.75 336.25 186.25 343.75 180C351.25 172.5 358.75 163.75 365 156.25C371.25 147.5 376.25 137.5 380 125C383.75 113.75 386.25 101.25 386.25 87.5C386.25 50 370 16.25 336.25 -13.75C300 -45 250 -60 186.25 -60C172.5 -60 157.5 -58.75 143.75 -56.25C128.75 -53.75 115 -50 100 -45C85 -38.75 72.5 -32.5 61.25 -23.75S41.25 -5 33.75 7.5C26.25 21.25 22.5 35 22.5 51.25C22.5 66.25 27.5 82.5 36.25 100C43.75 115 55 127.5 70 138.75S102.5 158.75 122.5 165C141.25 170 160 175 177.5 177.5S212.5 181.25 231.25 182.5C216.25 202.5 208.75 220 208.75 235V243.75C210 246.25 210 248.75 211.25 251.25C211.25 252.5 212.5 255 213.75 258.75C215 261.25 215 263.75 216.25 266.25C206.25 265 198.75 263.75 191.25 263.75C155 263.75 125 276.25 100 298.75C75 322.5 61.25 352.5 61.25 387.5C61.25 420 72.5 450 96.25 476.25C118.75 502.5 146.25 520 178.75 527.5C201.25 532.5 223.75 533.75 246.25 533.75zM617.5 442.5V397.5H526.25V306.25H480V397.5H388.75V442.5H480V533.75H526.25V442.5z" />
    <glyph glyph-name="group-by"
      unicode="&#xF165;"
      horiz-adv-x="640" d=" M63.75 415H575V368.75H63.75zM65 335H576.25V290H65zM192.5 580V452.5H65zM63.75 65H575V18.75H63.75zM65 -15H576.25V-60H65zM192.5 230V102.5H63.75z" />
    <glyph glyph-name="group"
      unicode="&#xF166;"
      horiz-adv-x="640" d=" M632.5 141.25C620 160 620 171.25 581.25 187.5C541.25 203.75 532.5 210 532.5 210L531.25 247.5S546.25 258.75 551.25 293.75C560 291.25 570 307.5 570 316.25C571.25 325 568.75 348.75 557.5 346.25C560 363.75 562.5 378.75 561.25 387.5C558.75 417.5 528.75 450 482.5 450S406.25 417.5 403.75 387.5C402.5 378.75 403.75 363.75 406.25 346.25C395 348.75 393.75 325 393.75 316.25C395 307.5 403.75 291.25 413.75 293.75C417.5 258.75 432.5 247.5 432.5 247.5L400 221.25C418.75 211.25 466.25 217.5 476.25 201.25C482.5 192.5 497.5 167.5 493.75 21.25H640S642.5 125 632.5 141.25zM431.25 155C417.5 175 373.75 187.5 330 206.25S275 231.25 275 231.25V272.5S291.25 285 296.25 325C306.25 322.5 317.5 340 318.75 350C318.75 360 316.25 385 303.75 382.5C306.25 402.5 308.75 420 307.5 428.75C305 462.5 271.25 498.75 220 498.75S135 462.5 132.5 428.75C131.25 420 133.75 402.5 136.25 382.5C123.75 385 121.25 360 121.25 350C122.5 340 132.5 322.5 143.75 325C148.75 286.25 165 272.5 165 272.5V231.25S153.75 225 110 206.25S22.5 175 8.75 155C-2.5 136.25 0 21.25 0 21.25H440S442.5 136.25 431.25 155z" />
    <glyph glyph-name="hamburger"
      unicode="&#xF167;"
      horiz-adv-x="640" d=" M40 460H600V380H40zM40 300H600V220H40zM40 140H600V60H40z" />
    <glyph glyph-name="headline1"
      unicode="&#xF168;"
      horiz-adv-x="640" d=" M0 67.5V451.25H51.25V280H258.75V451.25H310V67.5H258.75V242.5H51.25V67.5zM412.5 353.75L526.25 452.5H565V105H640V67.5H435V105H517.5V366.25V390L448.75 331.25C447.5 330 446.25 328.75 443.75 327.5H438.75C436.25 327.5 433.75 327.5 431.25 328.75C430 330 427.5 331.25 426.25 332.5z" />
    <glyph glyph-name="headline2"
      unicode="&#xF169;"
      horiz-adv-x="640" d=" M0 66.25V448.75H51.25V278.75H257.5V448.75H308.75V66.25H257.5V241.25H51.25V66.25zM385 66.25V82.5C385 86.25 385 90 387.5 92.5C388.75 96.25 390 100 393.75 102.5L516.25 226.25C526.25 236.25 535 246.25 543.75 256.25C552.5 265 558.75 275 565 285C571.25 293.75 576.25 303.75 578.75 313.75C582.5 323.75 583.75 333.75 583.75 345S581.25 366.25 577.5 375C575 383.75 570 390 563.75 396.25C557.5 401.25 550 405 541.25 408.75C533.75 411.25 523.75 412.5 515 412.5C505 412.5 496.25 411.25 487.5 407.5C480 405 472.5 401.25 466.25 396.25S455 385 450 378.75C446.25 371.25 442.5 363.75 441.25 355C440 350 437.5 346.25 435 343.75C432.5 342.5 428.75 341.25 423.75 341.25H417.5L392.5 345C395 362.5 400 378.75 406.25 391.25C413.75 405 422.5 416.25 433.75 425C445 435 457.5 441.25 471.25 446.25C486.25 451.25 501.25 453.75 517.5 453.75S548.75 451.25 562.5 446.25S588.75 433.75 598.75 425C610 416.25 617.5 405 623.75 391.25C630 378.75 632.5 363.75 632.5 346.25C632.5 332.5 630 318.75 626.25 307.5C622.5 295 616.25 283.75 608.75 272.5S592.5 250 583.75 240C573.75 230 563.75 218.75 553.75 208.75L452.5 105C460 106.25 467.5 108.75 473.75 110C481.25 111.25 488.75 111.25 495 111.25H623.75C628.75 111.25 632.5 110 635 107.5C638.75 103.75 640 100 640 95V66.25z" />
    <glyph glyph-name="headline3"
      unicode="&#xF16A;"
      horiz-adv-x="640" d=" M0 70V450H51.25V280H256.25V450H308.75V70H256.25V242.5H51.25V70zM385 165L405 173.75C408.75 175 412.5 176.25 416.25 176.25C418.75 176.25 422.5 175 425 173.75S430 170 431.25 166.25C431.25 166.25 432.5 165 432.5 163.75C432.5 163.75 433.75 162.5 433.75 161.25L442.5 143.75C446.25 137.5 451.25 132.5 456.25 126.25C462.5 120 470 116.25 478.75 112.5C488.75 107.5 498.75 106.25 512.5 106.25S537.5 108.75 547.5 112.5S566.25 122.5 572.5 128.75C578.75 136.25 583.75 143.75 587.5 152.5S592.5 170 592.5 177.5C592.5 187.5 591.25 197.5 588.75 206.25C586.25 213.75 581.25 221.25 573.75 227.5S557.5 238.75 545 242.5S516.25 247.5 496.25 247.5V281.25C512.5 282.5 526.25 283.75 537.5 287.5C548.75 290 557.5 295 565 301.25S577.5 313.75 580 322.5C583.75 330 585 338.75 585 348.75C585 360 583.75 370 580 377.5C576.25 386.25 572.5 392.5 566.25 397.5C560 403.75 552.5 407.5 545 410C536.25 412.5 527.5 413.75 517.5 413.75C508.75 413.75 500 412.5 491.25 410C482.5 406.25 476.25 402.5 470 397.5S457.5 386.25 453.75 380C450 372.5 446.25 365 443.75 357.5C442.5 352.5 441.25 348.75 437.5 346.25C435 343.75 431.25 342.5 427.5 342.5H423.75S422.5 342.5 421.25 343.75L396.25 347.5C398.75 365 403.75 380 410 393.75C417.5 406.25 426.25 417.5 437.5 427.5C448.75 436.25 461.25 442.5 475 447.5S503.75 455 520 455S551.25 452.5 565 447.5C578.75 443.75 591.25 436.25 601.25 427.5C611.25 420 618.75 408.75 623.75 397.5C630 385 632.5 371.25 632.5 357.5C632.5 345 631.25 333.75 627.5 325C625 315 620 307.5 615 300C608.75 292.5 602.5 286.25 593.75 281.25C586.25 276.25 576.25 272.5 566.25 270C591.25 262.5 610 252.5 621.25 236.25C633.75 221.25 640 202.5 640 178.75C640 161.25 636.25 146.25 630 131.25C623.75 117.5 613.75 106.25 602.5 96.25S577.5 78.75 562.5 73.75C547.5 67.5 531.25 65 513.75 65C492.5 65 476.25 67.5 461.25 72.5C447.5 77.5 435 85 425 93.75S407.5 113.75 401.25 125C395 137.5 388.75 151.25 385 165z" />
    <glyph glyph-name="headset"
      unicode="&#xF16B;"
      horiz-adv-x="640" d=" M596.25 347.5C563.75 480 452.5 576.25 320 576.25S76.25 480 43.75 352.5C20 343.75 3.75 323.75 3.75 300V232.5C3.75 200 27.5 176.25 60 176.25H123.75V352.5H83.75C116.25 460 207.5 536.25 320 536.25S523.75 460 556.25 352.5H516.25V176.25H543.75C512.5 100 452.5 43.75 372.5 23.75C363.75 43.75 343.75 60 320 60C287.5 60 260 32.5 260 0C260 -16.25 263.75 -27.5 272.5 -36.25C283.75 -52.5 300 -60 320 -60C347.5 -60 367.5 -40 376.25 -16.25C476.25 3.75 556.25 80 587.5 176.25C616.25 180 636.25 203.75 636.25 232.5V296.25C636.25 320 620 343.75 596.25 347.5zM320 87.5C412.5 87.5 483.75 160 483.75 243.75V303.75C483.75 392.5 412.5 460 320 460S156.25 392.5 156.25 303.75V243.75C156.25 160 227.5 87.5 320 87.5z" />
    <glyph glyph-name="help"
      unicode="&#xF16C;"
      horiz-adv-x="640" d=" M146.25 517.5C155 526.25 166.25 533.75 177.5 541.25C190 548.75 202.5 555 216.25 561.25C228.75 566.25 243.75 571.25 260 573.75C276.25 577.5 292.5 578.75 311.25 578.75C336.25 578.75 360 575 380 568.75C401.25 561.25 418.75 552.5 433.75 540S460 511.25 467.5 493.75C476.25 476.25 480 456.25 480 433.75C480 412.5 477.5 392.5 470 376.25C463.75 360 456.25 346.25 446.25 335C436.25 322.5 425 312.5 413.75 303.75C401.25 295 391.25 287.5 380 278.75C370 271.25 361.25 263.75 353.75 257.5C347.5 250 343.75 241.25 342.5 231.25L332.5 167.5H260L252.5 238.75V246.25C252.5 260 255 270 261.25 280C267.5 288.75 276.25 297.5 285 306.25C295 315 305 322.5 316.25 330C326.25 338.75 336.25 346.25 346.25 356.25C355 365 362.5 375 368.75 386.25C375 398.75 377.5 412.5 377.5 427.5C377.5 438.75 376.25 447.5 372.5 456.25C367.5 463.75 362.5 471.25 356.25 477.5S341.25 487.5 332.5 491.25C322.5 493.75 312.5 495 301.25 495C285 495 271.25 493.75 260 490S238.75 482.5 231.25 478.75C222.5 473.75 216.25 470 211.25 466.25C205 462.5 200 460 196.25 460C186.25 460 178.75 465 173.75 473.75zM236.25 6.25C236.25 15 238.75 23.75 241.25 31.25C243.75 40 247.5 46.25 252.5 52.5C257.5 57.5 263.75 62.5 271.25 66.25C277.5 70 285 71.25 292.5 71.25C301.25 71.25 310 70 317.5 66.25S331.25 57.5 337.5 52.5C342.5 46.25 347.5 40 351.25 31.25C353.75 23.75 356.25 15 356.25 6.25C356.25 -3.75 353.75 -12.5 351.25 -20C347.5 -27.5 342.5 -35 337.5 -40C331.25 -46.25 325 -51.25 317.5 -53.75C310 -57.5 301.25 -58.75 292.5 -58.75C285 -58.75 277.5 -57.5 271.25 -53.75C263.75 -51.25 257.5 -46.25 252.5 -40C247.5 -35 243.75 -27.5 241.25 -20S236.25 -3.75 236.25 6.25z" />
    <glyph glyph-name="help1"
      unicode="&#xF16D;"
      horiz-adv-x="640" d=" M363.75 201.25C363.75 191.25 361.25 190 351.25 190H308.75C298.75 190 297.5 191.25 297.5 201.25V273.75C297.5 287.5 317.5 290 338.75 297.5C358.75 303.75 378.75 316.25 378.75 347.5C378.75 373.75 362.5 388.75 331.25 388.75C295 388.75 265 368.75 258.75 368.75C256.25 368.75 253.75 372.5 252.5 375L237.5 413.75C236.25 416.25 236.25 418.75 236.25 420C236.25 435 305 455 343.75 455C413.75 455 457.5 410 457.5 346.25C457.5 272.5 397.5 252.5 363.75 241.25zM332.5 38.75C305 38.75 283.75 61.25 283.75 87.5C283.75 115 305 137.5 332.5 137.5S381.25 115 381.25 87.5C381.25 61.25 358.75 38.75 332.5 38.75zM320 578.75C143.75 578.75 1.25 436.25 1.25 260S143.75 -58.75 320 -58.75S638.75 83.75 638.75 260S496.25 578.75 320 578.75zM320 -12.5C170 -12.5 47.5 110 47.5 260S170 532.5 320 532.5S592.5 410 592.5 260S470 -12.5 320 -12.5z" />
    <glyph glyph-name="help2"
      unicode="&#xF16E;"
      horiz-adv-x="640" d=" M546.25 486.25C421.25 611.25 218.75 611.25 93.75 486.25C-30 362.5 -30 160 93.75 35C218.75 -90 421.25 -90 546.25 35C670 160 670 362.5 546.25 486.25zM306.25 3.75C271.25 3.75 243.75 32.5 243.75 66.25C243.75 101.25 271.25 128.75 306.25 128.75S368.75 101.25 368.75 66.25C368.75 32.5 340 3.75 306.25 3.75zM350 222.5V188.75C350 171.25 343.75 165 327.5 165H281.25C265 165 258.75 171.25 258.75 188.75V265C258.75 285 278.75 291.25 296.25 296.25C300 297.5 305 298.75 308.75 300C332.5 308.75 346.25 318.75 346.25 343.75C346.25 352.5 346.25 377.5 305 377.5C280 377.5 257.5 367.5 243.75 362.5C236.25 358.75 232.5 357.5 227.5 357.5C220 357.5 212.5 363.75 211.25 371.25L195 412.5C193.75 416.25 193.75 420 193.75 422.5C193.75 452.5 287.5 470 318.75 470C397.5 470 451.25 418.75 451.25 343.75C451.25 261.25 388.75 236.25 350 222.5z" />
    <glyph glyph-name="hierarchy"
      unicode="&#xF16F;"
      horiz-adv-x="640" d=" M400 180V220H320V340H240V460H200V300H280V60H400V100H320V180z" />
    <glyph glyph-name="home"
      unicode="&#xF170;"
      horiz-adv-x="640" d=" M518.75 397.5V546.25H436.25V461.25L318.75 553.75L1.25 308.75L60 242.5L105 270V-33.75H560V270L593.75 242.5L640 308.75zM395 7.5H228.75V215H395z" />
    <glyph glyph-name="hosting"
      unicode="&#xF171;"
      horiz-adv-x="640" d=" M640 175C640 138.75 627.5 108.75 602.5 83.75S547.5 46.25 512.5 46.25H148.75C108.75 46.25 72.5 61.25 43.75 90C15 120 0 155 0 196.25C0 225 7.5 252.5 23.75 276.25C40 301.25 60 318.75 86.25 331.25C85 337.5 85 342.5 85 345C85 392.5 102.5 432.5 135 466.25C168.75 498.75 208.75 516.25 256.25 516.25C291.25 516.25 322.5 506.25 351.25 486.25C380 467.5 401.25 441.25 413.75 410C430 423.75 447.5 431.25 468.75 431.25C492.5 431.25 512.5 422.5 530 406.25C546.25 388.75 555 368.75 555 345C555 328.75 550 313.75 541.25 298.75C570 292.5 593.75 277.5 612.5 255C631.25 231.25 640 205 640 175z" />
    <glyph glyph-name="ifc"
      unicode="&#xF172;"
      horiz-adv-x="640" d=" M549.3875 320.5375L414.125 455.8L373.54625 413.6425L321.695 465.2675A804.5875000000001 804.5875000000001 0 0 0 379.4075000000001 525.91A58.16375000000001 58.16375000000001 0 0 0 458.9875 519.146875C487.3925 490.966875 515.5725 462.336875 543.7525 434.156875L609.355 368.554375A61.09374999999999 61.09374999999999 0 0 0 609.355 277.251875C569.2275000000001 237.124375 528.1975000000001 197.896875 489.42125 156.416875A64.02499999999999 64.02499999999999 0 0 0 388.19875 159.7985000000001z M92.87625 119.225L228.13875 -16.0375L268.04125 26.5700000000001L321.245 -26.63375C302.75875 -45.7962499999999 284.72375 -66.9874999999999 264.20875 -85.0224999999999A57.48625000000001 57.48625000000001 0 0 0 186.88375 -82.0917499999999Q106.8525 -3.4142499999999 29.07125 75.7207500000001A59.290000000000006 59.290000000000006 0 0 0 29.07125 158.0057500000001Q92.87 225.4120000000001 160.49625 291.0182500000001C187.77375 317.6195000000002 226.55 313.5620000000001 254.5037500000001 280.6481250000001z M379.8625 287.175L219.35 447.4625L84.0875 312.2L127.14625 271.62125L76.87375 221.57375A763.3374999999999 763.3374999999999 0 0 0 14.8775 279.51125A56.58500000000001 56.58500000000001 0 0 0 19.837125 355.0337500000001Q97.838375 434.1625 177.649625 512.84625A59.51624999999999 59.51624999999999 0 0 0 260.835875 512.84625Q326.2133750000001 447.01875 391.360875 381.19625A61.09374999999999 61.09374999999999 0 0 0 379.8635000000001 287.1887500000001z M262.8625 152.5875L424.275 -8.6L431.038125 -2.0622499999999C470.940625 37.8402500000001 510.843125 77.74275 550.971875 117.4202500000001C557.509625 123.9580000000001 557.9604999999999 128.0158750000001 550.971875 134.32775C539.0236249999999 145.1487500000001 528.4281249999999 156.8715000000001 516.7056249999999 167.6927500000001L566.301875 216.6127500000001A768.975 768.975 0 0 0 625.591875 160.0277500000002A57.48625000000001 57.48625000000001 0 0 0 618.60325 82.9277500000001C592.2270000000001 56.1002500000001 565.3995 29.4990000000001 538.5720000000001 2.8965000000001L468.0095000000001 -67.6659999999999A60.1925 60.1925 0 0 0 377.8345000000001 -67.6659999999999L254.5195000000001 55.6490000000001A61.31875 61.31875 0 0 0 262.8607500000001 152.5877500000001z M250.6875 399.2125L370.6212500000001 279.505L318.32 227.42875C311.7822500000001 234.191875 304.1175 242.3075 295.77625 249.9725L245.5037500000001 300.47125A61.99625 61.99625 0 0 0 250.688875 399.21375z M322.1500000000001 211.2C348.0750000000001 185.725 375.35375 160.025 401.0537500000001 132.9725A60.6425 60.6425 0 0 0 391.359875 42.7975L271.877375 162.055z M142.25 151.0125L261.5075000000001 270.04375L313.1325000000001 219.3200000000001L305.9185000000001 211.6551250000001C283.3747500000001 189.111375 260.8310000000001 166.5676250000001 238.2872500000001 144.023875A61.09374999999999 61.09374999999999 0 0 0 142.2510000000001 151.0125z M498.6625 288.75L381.4350000000001 171.7475000000001L331.83875 222.0200000000001A49.37125 49.37125 0 0 0 335.67125 226.3033750000001C358.2150000000001 248.8471250000001 382.11125 272.9696250000001 405.5575 296.1896250000001A59.74125 59.74125 0 0 0 498.66375 288.7501250000001z" />
    <glyph glyph-name="image1"
      unicode="&#xF173;"
      horiz-adv-x="640" d=" M560 440V80H80V440H560M640 520H0V0H640zM290 350C290 317.5 262.5 290 230 290C196.25 290 170 317.5 170 350C170 383.75 196.25 410 230 410C262.5 410 290 383.75 290 350zM120 120H520V265L456.25 380L371.25 193.75L320 246.25S250 220 226.25 180C190 200 170 180 170 180z" />
    <glyph glyph-name="image2"
      unicode="&#xF174;"
      horiz-adv-x="640" d=" M370 250C370 227.5 352.5 210 330 210S290 227.5 290 250S307.5 290 330 290S370 272.5 370 250zM240 120H520V221.25L476.25 302.5L415 172.5L380 208.75S331.25 190 315 162.5C288.75 176.25 275 162.5 275 162.5zM560 400V520H0V160H120V0H640V400zM120 240H80V440H480V400H120zM560 80H200V320H560z" />
    <glyph glyph-name="import"
      unicode="&#xF175;"
      horiz-adv-x="640" d=" M401.25 260L237.5 425L237.5 300L0 300L0 220L237.5 220L237.5 95z M117.5 580L515 580L515 -60L117.5 -60V140L197.5 140L197.5 20L435 20L435 500L197.5 500L197.5 380H117.5z" />
    <glyph glyph-name="info1"
      unicode="&#xF176;"
      horiz-adv-x="640" d=" M403.75 113.75C403.75 108.75 402.5 107.5 396.25 107.5H271.25C265 107.5 265 108.75 265 113.75V146.25C265 151.25 265 152.5 271.25 152.5H302.5V303.75H271.25C265 303.75 263.75 305 263.75 311.25V342.5C263.75 348.75 265 350 271.25 350H358.75C363.75 350 365 348.75 365 342.5V152.5H396.25C402.5 152.5 403.75 151.25 403.75 146.25V113.75zM333.75 381.25C311.25 381.25 292.5 400 292.5 422.5S311.25 462.5 333.75 462.5S373.75 445 373.75 422.5S356.25 381.25 333.75 381.25zM320 578.75C143.75 578.75 1.25 436.25 1.25 260S143.75 -58.75 320 -58.75S638.75 83.75 638.75 260S496.25 578.75 320 578.75zM320 -11.25C170 -11.25 47.5 110 47.5 260S170 532.5 320 532.5S592.5 410 592.5 260S470 -11.25 320 -11.25z" />
    <glyph glyph-name="info2"
      unicode="&#xF177;"
      horiz-adv-x="640" d=" M545 485C421.25 608.75 218.75 608.75 95 485C-30 361.25 -30 158.75 95 35C218.75 -90 421.25 -90 545 35C670 158.75 670 361.25 545 485zM315 523.75C348.75 523.75 376.25 496.25 376.25 462.5S348.75 401.25 315 401.25S253.75 428.75 253.75 462.5S280 523.75 315 523.75zM412.5 75C412.5 62.5 406.25 56.25 393.75 56.25H236.25C223.75 56.25 217.5 62.5 217.5 75V115C217.5 127.5 223.75 133.75 236.25 133.75H265V303.75H236.25C222.5 303.75 216.25 310 216.25 322.5V362.5C216.25 375 222.5 381.25 236.25 381.25H346.25C358.75 381.25 365 375 365 362.5V133.75H393.75C406.25 133.75 412.5 127.5 412.5 115z" />
    <glyph glyph-name="installation-services"
      unicode="&#xF178;"
      horiz-adv-x="640" d=" M227.5 120H543.75C576.25 120 600 143.75 600 176.25V416.25C600 447.5 576.25 472.5 543.75 472.5H96.25C63.75 472.5 40 447.5 40 416.25V176.25C40 143.75 63.75 120 96.25 120zM80 176.25V416.25C80 423.75 87.5 432.5 96.25 432.5H543.75C552.5 432.5 560 423.75 560 416.25V176.25C560 167.5 552.5 160 543.75 160H96.25C87.5 160 80 167.5 80 176.25zM267.5 76.25V87.5H16.25V67.5C16.25 56.25 23.75 47.5 36.25 47.5H600C612.5 47.5 620 56.25 620 67.5V87.5H372.5V76.25M200 196.25C200 260 252.5 312.5 320 312.5C383.75 312.5 440 260 440 196.25H512.5V240H472.5C467.5 247.5 467.5 256.25 463.75 263.75L500 287.5L472.5 327.5L436.25 300C427.5 307.5 420 312.5 416.25 320L436.25 356.25L392.5 380L372.5 343.75C363.75 347.5 352.5 347.5 343.75 352.5V392.5H296.25V347.5C287.5 347.5 280 347.5 272.5 343.75L252.5 380L212.5 356.25L232.5 323.75C220 320 212.5 312.5 203.75 303.75L172.5 327.5L143.75 287.5L176.25 267.5C172.5 260 167.5 247.5 163.75 240H136.25V196.25z" />
    <glyph glyph-name="italic"
      unicode="&#xF179;"
      horiz-adv-x="640" d=" M131.25 -43.75C153.75 -41.25 168.75 -37.5 177.5 -31.25C191.25 -21.25 202.5 -1.25 211.25 28.75L331.25 461.25C335 478.75 338.75 491.25 340 498.75S342.5 512.5 342.5 520C342.5 535 337.5 546.25 327.5 552.5C316.25 558.75 298.75 562.5 272.5 563.75V578.75H515V563.75C490 560 472.5 555 462.5 547.5S443.75 521.25 435 491.25L315 58.75C311.25 42.5 308.75 30 306.25 20C305 11.25 303.75 3.75 303.75 -2.5C303.75 -17.5 310 -28.75 321.25 -33.75S348.75 -42.5 371.25 -43.75V-58.75H131.25z" />
    <glyph glyph-name="key"
      unicode="&#xF17A;"
      horiz-adv-x="640" d=" M565 427.5C573.75 378.75 567.5 332.5 547.5 290S495 222.5 451.25 215C423.75 210 396.25 210 368.75 213.75L292.5 90L247.5 82.5L181.25 -23.75C175 -36.25 166.25 -42.5 152.5 -45L103.75 -53.75C98.75 -55 93.75 -55 88.75 -51.25C85 -47.5 82.5 -42.5 81.25 -37.5L71.25 26.25C67.5 38.75 70 50 78.75 61.25L243.75 308.75C233.75 330 226.25 355 220 385C212.5 431.25 223.75 470 253.75 505S323.75 561.25 372.5 570C417.5 578.75 458.75 568.75 497.5 541.25C535 513.75 557.5 475 565 427.5M485 378.75C497.5 397.5 502.5 418.75 498.75 441.25S483.75 481.25 465 493.75C447.5 507.5 427.5 512.5 406.25 508.75C385 503.75 368.75 492.5 355 473.75L347.5 458.75C346.25 453.75 346.25 450 347.5 446.25S350 438.75 350 436.25C351.25 432.5 353.75 430 358.75 425C363.75 421.25 367.5 417.5 370 415C373.75 413.75 377.5 410 383.75 405C391.25 400 396.25 397.5 398.75 395S406.25 388.75 412.5 383.75C420 378.75 425 375 427.5 373.75C431.25 372.5 435 370 440 366.25S448.75 361.25 452.5 361.25H462.5C467.5 362.5 471.25 363.75 475 367.5C477.5 370 481.25 373.75 485 378.75" />
    <glyph glyph-name="link"
      unicode="&#xF17B;"
      horiz-adv-x="640" d=" M220 196.25H100C77.5 196.25 60 215 60 236.25V283.75C60 305 77.5 323.75 100 323.75H220C235 323.75 246.25 315 253.75 303.75H317.5C308.75 348.75 268.75 383.75 220 383.75H100C45 383.75 0 338.75 0 283.75V236.25C0 181.25 45 136.25 100 136.25H220C270 136.25 312.5 175 318.75 223.75H257.5C251.25 207.5 237.5 196.25 220 196.25zM540 383.75H420C371.25 383.75 331.25 348.75 322.5 303.75H386.25C393.75 315 405 323.75 420 323.75H540C562.5 323.75 580 305 580 283.75V243.75C580 221.25 562.5 203.75 540 203.75H420C405 203.75 393.75 211.25 386.25 223.75H322.5C331.25 177.5 371.25 143.75 420 143.75H540C595 143.75 640 188.75 640 243.75V283.75C640 338.75 595 383.75 540 383.75zM422.5 223.75C443.75 223.75 460 241.25 460 263.75C460 285 443.75 303.75 422.5 303.75H216.25C196.25 303.75 180 285 180 263.75C180 241.25 197.5 223.75 218.75 223.75H422.5z" />
    <glyph glyph-name="loading1"
      unicode="&#xF17C;"
      horiz-adv-x="640" d=" M360 500C360 487.5 350 477.5 338.75 477.5S317.5 487.5 317.5 500V556.25C317.5 568.75 327.5 578.75 338.75 578.75S360 568.75 360 556.25zM226.25 487.5C232.5 477.5 228.75 463.75 218.75 457.5C208.75 452.5 195 456.25 188.75 466.25L161.25 515C155 526.25 157.5 538.75 168.75 545C178.75 551.25 191.25 547.5 197.5 536.25zM131.25 415C142.5 408.75 146.25 395 141.25 385C135 375 121.25 371.25 110 377.5L62.5 405C51.25 411.25 47.5 425 53.75 435C58.75 445 72.5 448.75 83.75 442.5zM80 300C92.5 300 102.5 290 102.5 278.75S92.5 257.5 80 257.5H23.75C11.25 257.5 1.25 266.25 1.25 278.75C1.25 290 11.25 300 23.75 300zM92.5 173.75C102.5 180 116.25 177.5 122.5 167.5C127.5 157.5 123.75 143.75 113.75 137.5L65 110C53.75 103.75 41.25 106.25 35 116.25C28.75 127.5 33.75 140 43.75 146.25zM165 71.25C171.25 82.5 185 86.25 195 81.25C205 75 208.75 61.25 202.5 50L175 2.5C168.75 -8.75 155 -12.5 145 -6.25C135 -1.25 131.25 12.5 137.5 23.75zM280 20C280 32.5 290 42.5 301.25 42.5S322.5 32.5 322.5 20V-36.25C322.5 -48.75 312.5 -58.75 301.25 -58.75S280 -48.75 280 -36.25zM406.25 32.5C400 42.5 402.5 56.25 412.5 62.5C422.5 67.5 436.25 63.75 442.5 53.75L470 5C476.25 -6.25 473.75 -18.75 463.75 -25C452.5 -31.25 440 -27.5 433.75 -16.25zM508.75 105C497.5 111.25 493.75 125 498.75 135C505 145 518.75 148.75 530 142.5L577.5 113.75C588.75 108.75 592.5 95 586.25 85C581.25 75 567.5 71.25 556.25 77.5zM560 220C547.5 220 537.5 230 537.5 241.25C537.5 253.75 547.5 262.5 560 262.5H616.25C628.75 262.5 638.75 253.75 638.75 241.25C638.75 230 628.75 220 616.25 220zM547.5 346.25C537.5 340 523.75 342.5 517.5 352.5C512.5 362.5 516.25 376.25 526.25 382.5L575 410C586.25 416.25 598.75 413.75 605 403.75C611.25 392.5 607.5 380 596.25 373.75zM475 448.75C468.75 437.5 455 433.75 445 438.75C435 445 431.25 458.75 437.5 470L465 517.5C471.25 528.75 485 532.5 495 526.25C505 521.25 508.75 507.5 502.5 496.25z" />
    <glyph glyph-name="loading2"
      unicode="&#xF17D;"
      horiz-adv-x="640" d=" M516.25 516.25H550V580H87.5V516.25H127.5C132.5 396.25 177.5 317.5 253.75 291.25V225C177.5 198.75 133.75 121.25 127.5 3.75H87.5V-60H550V3.75H516.25C511.25 121.25 466.25 198.75 391.25 225V291.25C467.5 317.5 511.25 396.25 516.25 516.25zM371.25 197.5C456.25 176.25 481.25 85 485 3.75H453.75L396.25 70L325 153.75L253.75 70L196.25 3.75H160C163.75 85 188.75 176.25 273.75 197.5L285 200V316.25L273.75 318.75C187.5 340 163.75 433.75 160 516.25H485C481.25 433.75 457.5 340 371.25 318.75L358.75 316.25V200zM393.75 386.25H261.25L295 347.5L327.5 310L360 347.5z" />
    <glyph glyph-name="location"
      unicode="&#xF17E;"
      horiz-adv-x="640" d=" M316.25 580C228.75 580 96.25 540 96.25 380C96.25 300 272.5 20 316.25 -60C360 20 536.25 300 536.25 380C536.25 540 403.75 580 316.25 580zM316.25 310C277.5 310 246.25 341.25 246.25 380S277.5 450 316.25 450S386.25 418.75 386.25 380S355 310 316.25 310z" />
    <glyph glyph-name="locked"
      unicode="&#xF17F;"
      horiz-adv-x="640" d=" M513.75 327.5V387.5C513.75 493.75 426.25 578.75 320 578.75S126.25 493.75 126.25 387.5V327.5H83.75V-58.75H556.25V327.5zM350 27.5H278.75L296.25 126.25C286.25 132.5 278.75 142.5 278.75 156.25C278.75 176.25 295 191.25 313.75 191.25C333.75 191.25 350 176.25 350 156.25C350 142.5 342.5 132.5 331.25 126.25zM427.5 327.5H212.5V387.5C212.5 445 261.25 492.5 320 492.5S427.5 445 427.5 387.5z" />
    <glyph glyph-name="logout"
      unicode="&#xF180;"
      horiz-adv-x="640" d=" M618.75 240C618.75 361.25 545 465 441.25 511.25V402.5C491.25 365 523.75 306.25 523.75 240C523.75 127.5 432.5 35 320 35S116.25 127.5 116.25 240C116.25 306.25 148.75 365 198.75 402.5V512.5C95 465 21.25 361.25 21.25 240C21.25 75 155 -58.75 320 -58.75S618.75 75 618.75 240zM381.25 215C381.25 191.25 362.5 172.5 338.75 172.5H301.25C277.5 172.5 258.75 191.25 258.75 215V536.25C258.75 560 277.5 578.75 301.25 578.75H338.75C362.5 578.75 381.25 560 381.25 536.25z" />
    <glyph glyph-name="mail1"
      unicode="&#xF181;"
      horiz-adv-x="640" d=" M318.75 206.25L605 457.5C602.5 458.75 601.25 458.75 598.75 458.75H36.25zM638.75 418.75C638.75 423.75 637.5 428.75 636.25 432.5L435 255L633.75 80C637.5 86.25 638.75 92.5 638.75 98.75V418.75zM2.5 435C0 430 -1.25 425 -1.25 418.75V98.75C-1.25 93.75 0 87.5 2.5 82.5L203.75 255zM405 227.5L318.75 152.5L233.75 228.75L37.5 60L38.75 58.75H597.5z" />
    <glyph glyph-name="mail2"
      unicode="&#xF182;"
      horiz-adv-x="640" d=" M220 157.5L27.5 286.25L320 522.5L612.5 286.25L420 157.5L640 -33.75V303.75L320 576.25L0 303.75V-33.75zM603.75 -56.25L375 143.75H265L36.25 -56.25z" />
    </font>
</defs>
</svg>
