<?xml version="1.0" standalone="no"?> 
<!DOCTYPE svg PUBLIC "-//W3C//DTD SVG 1.1//EN" "http://www.w3.org/Graphics/SVG/1.1/DTD/svg11.dtd" >
<svg xmlns="http://www.w3.org/2000/svg">
<defs>
  <font id="openproject-icon-font" horiz-adv-x="512">
    <font-face font-family="openproject-icon-font"
      units-per-em="512" ascent="512"
      descent="0" />
    <missing-glyph horiz-adv-x="0" />
    <glyph glyph-name="accessibility"
      unicode="&#xF101;"
      horiz-adv-x="512" d=" M256 531C122 531 13 422 13 288S122 45 256 45S499 154 499 288S390 531 256 531zM256 83C144 83 51 176 51 288S144 493 256 493S461 400 461 288S368 83 256 83zM256 451C166 451 93 378 93 288S166 125 256 125S419 198 419 288S346 451 256 451zM256 419C266 419 272 416 278 410C285 403 288 397 288 387C288 368 275 355 256 355S224 368 224 387C224 397 227 403 234 410C240 416 246 419 256 419zM307 163C301 160 294 163 288 170V173C275 192 266 218 256 243C246 218 237 192 224 170V166C218 160 211 157 205 160C202 163 198 170 202 176C202 179 202 179 205 182C218 208 230 237 237 266V314C211 314 186 317 160 320C154 320 147 326 147 333C147 339 154 346 160 346C224 339 285 339 349 346C355 346 362 342 365 333C365 326 358 320 352 320C326 317 301 317 275 317V272C282 240 294 214 307 189C307 186 310 186 310 182C314 173 314 166 307 163z" />
    <glyph glyph-name="add"
      unicode="&#xF102;"
      horiz-adv-x="512" d=" M288 320V544H224V320H0V256H224V32H288V256H512V320z" />
    <glyph glyph-name="align-center"
      unicode="&#xF103;"
      horiz-adv-x="512" d=" M352 432H160V464H352zM512 304H0V336H512zM416 368H64V400H416zM480 240H32V272H480zM416 176H96V208H416zM448 112H32V144H448z" />
    <glyph glyph-name="align-justify"
      unicode="&#xF104;"
      horiz-adv-x="512" d=" M0 432H512V464H0zM0 368H512V400H0zM0 304H512V336H0zM0 240H512V272H0zM0 176H512V208H0zM0 112H512V144H0z" />
    <glyph glyph-name="align-left"
      unicode="&#xF105;"
      horiz-adv-x="512" d=" M352 432H0V464H352zM512 368H0V400H512zM384 304H0V336H384zM480 240H0V272H480zM352 176H0V208H352zM448 112H0V144H448z" />
    <glyph glyph-name="align-right"
      unicode="&#xF106;"
      horiz-adv-x="512" d=" M160 432H512V464H160zM0 368H512V400H0zM128 304H512V336H128zM32 240H512V272H32zM160 176H512V208H160zM64 112H512V144H64z" />
    <glyph glyph-name="arrow-down1"
      unicode="&#xF107;"
      horiz-adv-x="512" d=" M226 134L12 374C-4 392 -4 424 12 442C29 461 56 461 72 442L256 236L439 442C456 461 483 461 500 442C508 433 512 421 512 408S508 383 500 374L286 134C278 125 267 120 256 120C244 120 234 125 226 134z" />
    <glyph glyph-name="arrow-down2"
      unicode="&#xF108;"
      horiz-adv-x="512" d=" M512 515L256 61L0 515z" />
    <glyph glyph-name="arrow-left-right"
      unicode="&#xF109;"
      horiz-adv-x="512" d=" M511 406L330 538L327 476C48 487 10 333 9 302C76 423 291 353 322 351L320 289zM327 465L322 353C323 382 325 411 327 465zM190 225L192 287L1 170L182 38L187 150C186 136 186 120 185 100C464 89 502 243 503 274C436 153 221 223 190 225z" />
    <glyph glyph-name="arrow-left1"
      unicode="&#xF10A;"
      horiz-adv-x="512" d=" M7 267C6 268 6 269 5 270C5 270 4 271 4 272S3 273 3 274V275C3 276 2 277 2 277C2 278 1 279 1 280V283C1 284 1 284 0 285V288V291C1 292 1 293 1 294V296C1 297 2 298 2 299S3 301 3 301V302C3 303 4 304 4 304C4 305 5 306 5 306C6 307 6 308 7 309C7 310 8 310 8 311L10 313L11 314L186 490C201 504 225 504 239 490C254 475 254 451 239 437L128 325H475C488 325 499 319 506 309C510 303 512 296 512 288C512 278 508 268 501 262C494 255 485 251 475 251H128L239 139C254 125 254 101 239 86C232 79 223 75 213 75S194 79 186 86L11 262L10 263C10 264 9 264 8 265C8 266 7 266 7 267z" />
    <glyph glyph-name="arrow-left2"
      unicode="&#xF10B;"
      horiz-adv-x="512" d=" M97 318L341 532C360 548 392 548 410 532C429 515 429 488 410 471L201 288L410 105C429 88 429 61 410 44C401 36 389 32 376 32S350 36 341 44L97 258C88 266 83 277 83 288S88 310 97 318z" />
    <glyph glyph-name="arrow-left3"
      unicode="&#xF10C;"
      horiz-adv-x="512" d=" M483 32L29 288L483 544z" />
    <glyph glyph-name="arrow-left4"
      unicode="&#xF10D;"
      horiz-adv-x="512" d=" M384 544L128 288L384 32z" />
    <glyph glyph-name="arrow-right2"
      unicode="&#xF10E;"
      horiz-adv-x="512" d=" M410 318L166 532C148 548 116 548 97 532C78 515 78 488 97 471L307 288L97 105C78 88 78 61 97 44C106 36 119 32 132 32S157 36 166 44L410 258C419 266 425 277 425 288S419 310 410 318z" />
    <glyph glyph-name="arrow-right3"
      unicode="&#xF10F;"
      horiz-adv-x="512" d=" M505 267C506 268 506 269 507 270C507 270 508 271 508 272S509 273 509 274V275S510 276 510 277S511 279 511 280V283C511 284 511 284 512 285V288V291C511 292 511 293 511 294V296C511 297 510 298 510 299S509 301 509 301V302C509 303 508 304 508 304C508 305 507 306 507 306C506 307 506 308 505 309C505 310 504 310 504 311L502 313L501 314L326 490C311 504 287 504 273 490C258 475 258 451 273 437L384 325H37C24 325 13 319 6 309C2 303 0 296 0 288C0 278 4 268 11 262C18 255 27 251 37 251H384L273 139C258 125 258 101 273 86C280 79 290 75 299 75C309 75 318 79 326 86L501 262L502 263L504 265C504 266 505 266 505 267z" />
    <glyph glyph-name="arrow-right4"
      unicode="&#xF110;"
      horiz-adv-x="512" d=" M85 224H0V352H85zM256 224H128V352H256zM256 416V160L512 288z" />
    <glyph glyph-name="arrow-right5"
      unicode="&#xF111;"
      horiz-adv-x="512" d=" M128 32L384 288L128 544z" />
    <glyph glyph-name="arrow-right6"
      unicode="&#xF112;"
      horiz-adv-x="512" d=" M0 544V32H512V544zM283 149H192L297 255H90V322H297L192 427H283L422 288z" />
    <glyph glyph-name="arrow-right7"
      unicode="&#xF113;"
      horiz-adv-x="512" d=" M29 32L483 288L29 544z" />
    <glyph glyph-name="arrow-thin"
      unicode="&#xF114;"
      horiz-adv-x="512" d=" M369 317L143 544L110 511L329 292L110 72L143 39L369 270L395 292z" />
    <glyph glyph-name="arrow-up1"
      unicode="&#xF115;"
      horiz-adv-x="512" d=" M226 442L12 202C-4 184 -4 152 12 134C29 115 56 115 72 134L256 340L439 134C456 115 483 115 500 134C508 143 512 155 512 168S508 193 500 202L286 442C278 451 267 456 256 456C244 456 234 451 226 442z" />
    <glyph glyph-name="arrow-up2"
      unicode="&#xF116;"
      horiz-adv-x="512" d=" M512 61L256 515L0 61z" />
    <glyph glyph-name="assigned-to-me"
      unicode="&#xF117;"
      horiz-adv-x="512" d=" M480 109C471 123 440 133 409 146S371 163 371 163V194S382 203 386 231C393 229 401 242 401 249S400 274 391 272C393 286 394 299 394 305C391 330 368 355 332 355S273 330 271 305C270 299 271 286 273 272C264 274 263 256 263 249C264 242 271 229 278 231C282 203 294 194 294 194L293 163S286 159 255 146S193 123 184 109C176 96 178 32 178 32H486S489 95 480 109zM281 498L386 393L419 425L301 544H26V32H127V78H72V498z" />
    <glyph glyph-name="attachment"
      unicode="&#xF118;"
      horiz-adv-x="512" d=" M100 47C80 47 60 56 42 75L39 77C20 96 -37 174 39 254C77 295 130 347 186 402L278 494C334 550 375 537 439 476C514 405 528 334 495 297C452 247 289 84 282 77C273 68 258 68 249 77S240 101 249 110C251 111 418 279 460 327C470 339 471 381 407 442C370 478 359 508 311 460C280 429 249 398 219 369C163 314 111 262 73 222C29 175 51 131 72 111L75 108C92 91 106 86 131 111C138 118 153 132 171 150C222 199 316 291 335 315C341 322 350 341 341 348C330 358 308 338 302 331C236 262 150 179 149 178C140 169 125 169 116 178C107 188 107 202 116 211C117 212 203 295 268 363C311 408 350 403 372 383C400 359 393 312 372 285C352 261 278 189 204 116C185 99 171 85 164 78C143 57 122 47 100 47z" />
    <glyph glyph-name="attention"
      unicode="&#xF119;"
      horiz-adv-x="512" d=" M261 104C239 104 222 122 222 143C222 165 239 182 261 182C282 182 300 165 300 143C300 122 282 104 261 104zM283 240C282 232 281 231 274 231H247C241 231 239 232 238 240L228 421C227 429 227 427 227 430C227 436 232 436 235 436H285C288 436 294 436 294 430V421zM256 543C115 543 1 429 1 288S115 33 256 33S511 147 511 288S397 543 256 543zM256 71C136 71 39 168 39 288S136 505 256 505S473 408 473 288S376 71 256 71z" />
    <glyph glyph-name="back-up"
      unicode="&#xF11A;"
      horiz-adv-x="512" d=" M224 320V256H448V192H512V320zM192 176V400L0 288z" />
    <glyph glyph-name="backlogs"
      unicode="&#xF11B;"
      horiz-adv-x="512" d=" M511 131L383 208V170H340C346 180 352 190 356 202C363 220 366 238 364 258C364 281 359 302 350 320C341 337 330 352 315 366C299 382 280 392 260 399C242 405 224 407 204 406C201 410 197 415 195 420C193 426 192 432 192 438C192 445 194 452 197 458C199 464 202 468 207 473S218 482 225 484C230 486 236 487 243 487C257 486 268 482 278 472C283 466 287 461 289 455L260 444L324 415L353 477L324 467C320 478 313 488 305 497C288 514 267 523 243 523C232 523 222 522 212 519C201 515 190 508 181 499C173 492 167 483 163 474C158 463 155 452 156 439C155 428 157 418 161 408C162 405 163 402 165 400C138 392 114 378 94 357C78 340 67 322 60 302L8 320L62 209L175 264L123 282C127 293 133 303 142 312C160 330 180 340 205 341C217 342 228 340 238 337C250 333 260 326 269 318C279 309 285 301 290 291S298 268 298 256C299 244 297 233 294 223C289 212 282 201 274 191C264 181 254 174 242 169H1V92H383V53z" />
    <glyph glyph-name="billing-information"
      unicode="&#xF11C;"
      horiz-adv-x="512" d=" M416 512V544H384V512H320V544H288V512H224V544H192V512H128V544H96V512H0V32H512V512zM448 96H64V448H96V416H128V448H192V416H224V448H288V416H320V448H384V416H416V448H448zM243 138V165C224 166 205 171 195 177L203 211C215 204 232 198 251 198C267 198 279 205 279 216S269 234 248 241C217 252 196 266 196 294C196 319 214 339 245 345V373H273V347C292 346 305 342 315 338L307 305C299 308 286 315 265 315C246 315 240 307 240 299C240 289 250 283 275 274C309 262 323 246 323 220C323 195 305 173 272 167V138z" />
    <glyph glyph-name="bold"
      unicode="&#xF11D;"
      horiz-adv-x="512" d=" M67 36V540H253C289 540 318 537 343 531C367 524 387 515 403 503C418 492 430 477 437 461C444 444 447 425 447 404C447 393 446 382 442 372C439 361 434 351 427 342S411 325 400 317C389 310 376 303 360 298C394 290 419 276 435 258S459 216 459 188C459 166 455 146 447 128C438 109 426 93 410 79C394 66 374 55 350 47C327 39 300 36 269 36zM184 330H246C258 330 270 331 281 332C291 334 300 338 308 342C315 347 321 353 324 361C328 369 330 378 330 391C330 402 329 412 326 420S318 434 312 439C305 443 297 447 288 449C278 451 267 452 253 452H184zM184 124H267C282 124 295 126 305 130C314 134 322 139 328 145C333 151 337 158 339 166S342 182 342 190C342 199 341 208 338 215C336 222 332 229 326 234S312 243 302 246C293 248 281 250 266 250H184z" />
    <glyph glyph-name="budget"
      unicode="&#xF11E;"
      horiz-adv-x="512" d=" M32 192V96H224V192zM128 128H64V160H128zM192 128H173V160H192zM288 192V96H480V192zM384 128H320V160H384zM448 128H429V160H448zM320 288V192H512V288zM416 224H352V256H416zM480 224H461V256H480zM288 384V288H480V384zM384 320H320V352H384zM448 320H429V352H448zM32 288V192H224V288zM128 224H64V256H128zM192 224H173V256H192zM0 384V288H192V384zM96 320H32V352H96zM160 320H141V352H160zM32 480V384H224V480zM128 416H64V448H128zM192 416H173V448H192z" />
    <glyph glyph-name="bug"
      unicode="&#xF11F;"
      horiz-adv-x="512" d=" M213 54V97H171V54zM171 97V139H128V97zM86 522V479H128V522zM299 54H341V97H299zM341 97H384V139H341zM469 267V309H426V437H384V479H341V437H171V479H128V437H86V309H43V267H1V139H43V224H86V139H128V182H384V139H426V224H469V139H511V267zM128 267V352H171V267zM341 267V352H384V267zM426 522H384V479H426z" />
    <glyph glyph-name="calendar"
      unicode="&#xF120;"
      horiz-adv-x="512" d=" M240 288H176V352H240zM336 288H272V352H336zM432 288H368V352H432zM144 192H80V256H144zM240 192H176V256H240zM336 192H272V256H336zM432 192H368V256H432zM144 96H80V160H144zM240 96H176V160H240zM336 96H272V160H336zM432 480V544H336V480H176V544H80V480H16V32H496V480zM368 512H400V448H368zM112 512H144V448H112zM464 64H48V384H464z" />
    <glyph glyph-name="calendar2"
      unicode="&#xF121;"
      horiz-adv-x="512" d=" M150 280L112 271L100 319L166 337H211V112H150V280zM367 284H263V336H436V289L337 112H268zM432 480V544H336V480H176V544H80V480H16V32H496V480zM368 512H400V448H368zM112 512H144V448H112zM464 64H48V384H464z" />
    <glyph glyph-name="camera"
      unicode="&#xF122;"
      horiz-adv-x="512" d=" M426 374C410 364 388 351 375 343C362 336 352 344 352 361V432C352 450 338 464 320 464H32C14 464 0 450 0 432V144C0 126 14 112 32 112H320C338 112 352 126 352 144V216C352 234 362 242 375 234S410 213 426 204L485 168C500 159 512 166 512 184V257V393C512 411 500 418 485 409z" />
    <glyph glyph-name="cancel"
      unicode="&#xF123;"
      horiz-adv-x="512" d=" M256 333L96 493L51 445L211 288L51 131L96 83L256 243L416 83L461 131L301 288L461 445L416 493z" />
    <glyph glyph-name="cart"
      unicode="&#xF124;"
      horiz-adv-x="512" d=" M468 212L511 425L96 481L63 503C63 505 64 508 64 510C64 528 50 542 32 542C15 542 1 528 1 510C1 493 15 478 32 478C35 478 37 479 39 480L78 454L143 198L162 199L145 143H143C112 143 88 119 88 89C88 58 112 34 143 34C165 34 184 47 193 67H365C373 48 392 34 414 34C444 34 468 58 468 87C468 117 444 141 414 141C389 141 368 123 363 100H196C193 113 186 124 176 132L197 200z" />
    <glyph glyph-name="changeset-down"
      unicode="&#xF125;"
      horiz-adv-x="512" d=" M384 368H320V528H192V368H128L256 240zM444 400H384V368H423L464 272H352C352 219 309 176 256 176S160 219 160 272H48L89 368H128V400H68L0 240V48H512V240z" />
    <glyph glyph-name="changeset-up"
      unicode="&#xF126;"
      horiz-adv-x="512" d=" M192 384V256H320V416H384L256 544L128 416H192zM444 384H352V352H423L464 256H352C352 203 309 160 256 160S160 203 160 256H48L89 352H160V384H68L0 224V32H512V224z" />
    <glyph glyph-name="changeset"
      unicode="&#xF127;"
      horiz-adv-x="512" d=" M444 464H68L0 304V112H512V304zM352 336C352 283 309 240 256 240S160 283 160 336H48L89 432H423L464 336z" />
    <glyph glyph-name="chart1"
      unicode="&#xF128;"
      horiz-adv-x="512" d=" M443 441V135H69V441H443M511 509H1V67H511zM346 208L276 281L209 213L144 277L118 229C113 221 103 217 95 222C86 226 83 237 88 245L136 333L208 261L276 329L337 266L394 381C398 389 408 392 417 388C425 384 429 374 424 365z" />
    <glyph glyph-name="chart2"
      unicode="&#xF129;"
      horiz-adv-x="512" d=" M144 440C61 412 2 335 2 243C2 128 95 35 209 35C278 35 338 69 376 120L192 225zM330 526C305 535 278 541 250 541C225 541 201 537 179 529L231 295zM365 470L261 237L466 120C494 158 510 205 510 256C510 353 450 436 365 470z" />
    <glyph glyph-name="chart3"
      unicode="&#xF12A;"
      horiz-adv-x="512" d=" M512 64H0V96H512zM128 128H0V416H128zM320 128H192V288H320zM512 128H384V512H512z" />
    <glyph glyph-name="checkmark"
      unicode="&#xF12B;"
      horiz-adv-x="512" d=" M176 55L13 239C-4 258 0 285 21 300S73 312 90 293L173 200L421 503C437 522 468 527 489 512C511 498 516 471 500 451z" />
    <glyph glyph-name="close"
      unicode="&#xF12C;"
      horiz-adv-x="512" d=" M256 333L96 493L51 445L211 288L51 131L96 83L256 243L416 83L461 131L301 288L461 445L416 493z" />
    <glyph glyph-name="code-tag"
      unicode="&#xF12D;"
      horiz-adv-x="512" d=" M343 143C334 143 325 147 319 155C307 168 309 188 322 200L430 293L323 375C309 386 307 406 318 420C328 434 349 437 362 426L500 319C507 313 512 304 512 295C512 285 508 276 501 270L364 151C358 146 350 143 343 143zM169 143C162 143 154 146 148 151L11 270C4 276 0 285 0 295C0 304 5 313 12 319L150 426C163 437 184 434 194 420C205 406 203 386 189 375L82 293L190 200C203 188 205 168 193 155C187 147 178 143 169 143z" />
    <glyph glyph-name="color-text"
      unicode="&#xF12E;"
      horiz-adv-x="512" d=" M511 54C511 44 503 36 493 36H19C9 36 1 44 1 54V90C1 100 9 109 19 109H493C503 109 511 100 511 90zM209 540H311L473 157H360L332 225H185L158 157H47zM302 307L259 415L216 307z" />
    <glyph glyph-name="color-underline"
      unicode="&#xF12F;"
      horiz-adv-x="512" d=" M484 51C484 42 476 34 467 34H21C12 34 4 42 4 51V85C4 95 12 103 21 103H467C476 103 484 95 484 85zM175 137C184 137 197 143 202 150L206 155C212 163 212 174 205 181L153 235C146 242 136 242 130 235L127 231C121 224 110 212 104 205L51 149C45 142 47 137 57 137zM496 455C513 476 512 507 492 526C473 546 442 547 421 530V531L416 526L166 276L242 200L492 450L497 455z" />
    <glyph glyph-name="column-left"
      unicode="&#xF130;"
      horiz-adv-x="512" d=" M445 32H268V544H445V32zM287 52H425V524H287zM188 161L57 289L188 417z" />
    <glyph glyph-name="column-right"
      unicode="&#xF131;"
      horiz-adv-x="512" d=" M62 545H239V33H62zM220 525H82V52H220zM319 417L450 289L319 161z" />
    <glyph glyph-name="columns"
      unicode="&#xF132;"
      horiz-adv-x="512" d=" M286 545H463V33H286zM443 525H306V52H444V525zM46 544H223V32H46zM203 524H65V52H203z" />
    <glyph glyph-name="compare2"
      unicode="&#xF133;"
      horiz-adv-x="512" d=" M175 173H334V134H175zM274 365V425H235V365H175V326H235V266H274V326H334V365zM453 425L334 544H59V32H453zM105 78V498H315L407 406V78H105z" />
    <glyph glyph-name="concept"
      unicode="&#xF134;"
      horiz-adv-x="512" d=" M256 387C192 387 144 339 144 278C144 240 163 208 195 186V128H320V186C352 205 371 240 371 278C368 336 320 387 256 387zM298 202V147H211V202C182 218 166 243 166 275C166 323 208 362 256 362S346 323 346 275C346 243 326 218 298 202zM256 422C259 422 266 426 266 432V522C266 528 262 531 256 531C253 531 246 528 246 522V435C246 426 253 422 256 422zM339 410L387 483C390 486 390 493 387 496S378 496 374 493L326 419C323 416 323 410 326 406C330 403 336 406 339 410zM480 403C477 406 474 410 467 406L390 365C387 362 384 355 387 352S394 346 400 349L477 390C480 394 483 397 480 403zM173 410C176 406 182 403 186 406C189 410 189 416 186 419L138 493C134 499 128 499 125 496S122 486 125 483zM45 403C38 406 32 406 32 403C29 397 32 394 35 390L112 349C118 346 122 346 125 352C128 355 125 362 122 365zM320 118H192V83C192 64 208 51 224 51V35H288V51C304 51 317 64 317 80V118z" />
    <glyph glyph-name="console"
      unicode="&#xF135;"
      horiz-adv-x="512" d=" M0 512V64H512V512zM480 96H32V480H480zM64 448V128H448V448zM207 339L133 288C130 286 127 286 124 286C119 286 114 288 111 293C106 300 108 310 115 315L168 351L116 384C108 389 106 398 110 406C115 414 125 416 132 411L206 366C211 363 213 358 214 353C214 347 211 342 207 339zM352 320H256V352H352z" />
    <glyph glyph-name="contacts"
      unicode="&#xF136;"
      horiz-adv-x="512" d=" M64 544C97 544 64 544 64 544V32H65C32 32 0 64 0 99V480C0 518 31 544 64 544zM512 320H448V416H480C512 416 512 381 512 381zM512 160H448V64H480C512 64 512 95 512 95zM512 192H448V288H512zM351 544H96V32H352C385 32 416 58 416 96V477C416 512 384 544 351 544zM352 224H160S158 244 164 252C169 261 189 267 208 275S232 286 232 286V304S225 310 222 327C218 326 213 334 213 338S214 353 219 352C218 361 217 368 218 373C219 387 234 403 256 403S293 387 294 373C295 368 294 361 293 352C298 353 299 342 299 338S294 326 289 327C287 310 280 304 280 304V286S285 283 304 275S342 261 348 252C353 244 352 224 352 224z" />
    <glyph glyph-name="copy"
      unicode="&#xF137;"
      horiz-adv-x="512" d=" M225 258H380V227H225zM463 447L366 544V543V544H139V126H463V447zM177 164V506H350L426 431V164zM306 70H86V416H126V453H49V32H344V110H306zM225 339H380V307H225zM225 420H380V388H225z" />
    <glyph glyph-name="cost-reports"
      unicode="&#xF138;"
      horiz-adv-x="512" d=" M443 444V137H68V444H443M511 512H0V69H511zM136 171H102V273H136zM204 171H170V308H204zM273 171H239V273H273zM341 171H307V376H341zM409 171H375V273H409z" />
    <glyph glyph-name="cost-types"
      unicode="&#xF139;"
      horiz-adv-x="512" d=" M278 451V486H0V438H278zM278 400V413H0V365H243C256 374 266 384 278 390zM0 342V294H198C205 310 214 326 224 342zM192 272H0V224H189V237C189 246 189 259 192 272zM0 198V150H208C202 166 195 182 192 198zM224 128H0V80H278C256 93 240 109 224 128zM358 381C282 381 221 317 221 237S282 93 358 93C435 93 496 157 496 237S435 381 358 381zM365 154V128H349V154C333 154 317 160 307 166L314 182C323 176 336 170 352 170C371 170 384 179 384 195S374 218 355 227C330 237 310 250 310 272S326 310 349 314V342H365V317C381 317 390 314 400 307L394 291C387 294 378 301 362 301C342 301 333 288 333 278C333 266 342 259 365 250C390 240 406 224 406 202C406 179 390 160 365 154z" />
    <glyph glyph-name="custom-development"
      unicode="&#xF13A;"
      horiz-adv-x="512" d=" M515 432L512 458H54V243L86 275V400H483V160H179L147 128H515zM150 438C154 438 160 435 160 429C160 422 154 419 150 419C147 419 141 422 141 429C141 435 144 438 150 438zM122 438C128 438 131 435 131 429C131 422 128 419 122 419C115 419 112 422 112 429C112 435 115 438 122 438zM93 438C99 438 102 435 102 429C102 422 99 419 93 419C86 419 83 422 83 429C83 435 90 438 93 438zM301 352H413V330H301zM301 317H451V294H301zM301 278H432V256H301zM301 246H413V224H301zM176 221C179 221 179 221 176 221H192C227 221 259 250 259 288C259 294 259 301 256 304L224 266L186 275L176 314L211 349C205 349 202 352 195 352C157 352 128 323 128 285C128 278 128 269 131 262L13 144C0 131 -3 109 10 96C22 83 45 86 58 99L80 122z" />
    <glyph glyph-name="custom-fields"
      unicode="&#xF13B;"
      horiz-adv-x="512" d=" M70 252C70 261 74 268 80 273C87 277 97 280 111 280L126 281V286C126 291 125 295 122 298C120 301 116 302 110 302C106 302 101 302 97 300C93 299 89 297 85 296L79 309C84 312 89 313 95 315C101 316 106 317 111 317C122 317 131 314 137 309C142 304 145 297 145 286V226H132L128 239H127C123 233 119 230 114 228C110 226 104 225 98 225C89 225 82 227 77 232C73 237 70 243 70 252zM89 252C89 248 91 245 93 242C95 240 99 239 104 239C110 239 116 241 120 245S126 254 126 261V269L115 268C106 268 100 266 95 264C91 261 89 257 89 252zM172 226V351H191V322C191 319 191 316 190 312V303H191C197 312 205 317 217 317C228 317 237 313 243 305S252 285 252 271C252 256 249 245 243 237S228 225 217 225S197 229 191 237H189L186 226zM191 271C191 260 192 252 196 247C199 243 205 240 213 240C219 240 224 243 228 248C231 253 233 261 233 271C233 291 226 301 212 301C205 301 199 299 196 295C193 290 191 283 191 272V271zM269 270C269 285 273 297 280 305S297 317 311 317C321 317 329 315 337 311L331 296C323 299 316 301 311 301C296 301 288 291 288 270C288 260 290 253 294 248S303 241 311 241S327 243 334 247V230C331 228 327 227 324 226C320 225 315 225 310 225C296 225 286 229 279 236C272 244 269 256 269 270zM512 145H0V431H512V145zM33 178H479V398H33z" />
    <glyph glyph-name="cut"
      unicode="&#xF13C;"
      horiz-adv-x="512" d=" M448 222C420 251 391 266 362 266C332 266 309 251 294 236L288 243L301 261L364 300L454 446V544L258 284L62 544V446L151 300L212 261L226 242L220 235C205 250 182 266 152 266S93 251 65 222C17 171 17 114 31 80C44 50 74 32 101 32C114 32 157 62 159 65L182 99L257 201L335 96L358 62C360 61 400 32 414 32C441 32 468 50 480 80C495 114 496 171 448 222zM118 95C102 76 85 79 76 99C68 119 69 155 101 188C119 207 136 217 151 217C168 217 181 206 189 197L166 163L157 151V150zM437 99C432 88 425 81 417 81C411 81 403 86 397 93L358 148V151L330 187L324 197C332 206 346 217 362 217C377 217 394 207 412 188C444 155 446 119 437 99z" />
    <glyph glyph-name="delete-folder"
      unicode="&#xF13D;"
      horiz-adv-x="512" d=" M288 192V224H480V384C480 402 466 416 448 416H256C238 416 215 427 203 440L189 456C177 469 154 480 136 480H32C14 480 0 466 0 448V128C0 110 14 96 32 96H288zM320 128V192H512V128z" />
    <glyph glyph-name="delete"
      unicode="&#xF13E;"
      horiz-adv-x="512" d=" M416 441H96C96 440 95 439 95 438V66C95 47 107 32 121 32H390C405 32 417 47 417 66V438C417 439 416 440 416 441zM178 90C178 77 170 66 160 66S142 77 142 90V373C142 386 150 397 160 397S178 386 178 373zM275 90C275 77 267 66 258 66C248 66 240 77 240 90V373C240 386 248 397 258 397C267 397 275 386 275 373zM370 90C370 77 362 66 352 66S334 77 334 90V373C334 386 342 397 352 397S370 386 370 373zM430 475C430 488 420 498 407 498H105C92 498 82 488 82 475C82 469 85 464 88 459H424C427 464 430 469 430 475zM238 520H274C281 520 286 525 286 532S281 544 274 544H238C231 544 226 539 226 532S231 520 238 520z" />
    <glyph glyph-name="dependency"
      unicode="&#xF13F;"
      horiz-adv-x="512" d=" M416 216C396 216 378 209 363 199L188 289L361 379C376 367 395 360 416 360C467 360 508 402 508 452C508 503 467 544 416 544S324 503 324 452V449L151 359C136 371 117 378 96 378C45 378 4 337 4 286S45 194 96 194C119 194 140 203 156 217L324 129V124C324 73 365 32 416 32S508 73 508 124C508 174 467 216 416 216z" />
    <glyph glyph-name="design"
      unicode="&#xF140;"
      horiz-adv-x="512" d=" M473 514L488 506C507 487 484 463 484 463C440 420 397 376 354 333C340 319 334 315 323 296C310 275 298 252 288 230L210 308S278 335 302 359C336 394 371 428 406 463C420 477 433 493 449 505zM30 79C91 94 85 144 121 230C139 272 186 284 186 284L264 206S264 39 30 79" />
    <glyph glyph-name="double-arrow-left"
      unicode="&#xF141;"
      horiz-adv-x="512" d=" M219 315L437 507C454 521 483 521 499 507C516 492 516 467 499 452L311 288L499 124C516 109 516 85 499 70C491 62 480 58 468 58C457 58 446 62 437 70L219 261C210 268 206 278 206 288S210 308 219 315zM13 315L232 507C248 521 277 521 293 507C311 492 311 467 293 452L106 288L293 124C311 109 311 85 293 70C285 62 274 58 262 58C251 58 240 62 232 70L13 261C5 268 0 278 0 288S5 308 13 315z" />
    <glyph glyph-name="double-arrow-right"
      unicode="&#xF142;"
      horiz-adv-x="512" d=" M293 315L75 507C58 521 29 521 13 507C-4 492 -4 467 13 452L201 288L13 124C-4 109 -4 85 13 70C21 62 32 58 44 58C55 58 66 62 75 70L293 261C302 268 306 278 306 288S302 308 293 315zM499 315L280 507C264 521 235 521 219 507C201 492 201 467 219 452L406 288L219 124C201 109 201 85 219 70C227 62 238 58 250 58C261 58 272 62 280 70L499 261C507 268 512 278 512 288S507 308 499 315z" />
    <glyph glyph-name="download"
      unicode="&#xF143;"
      horiz-adv-x="512" d=" M439 50H73V123H439zM73 50H0V197H73zM512 50H439V197H512zM439 379H366V526H146V379H73L263 190z" />
    <glyph glyph-name="duplicate"
      unicode="&#xF144;"
      horiz-adv-x="512" d=" M479 129H426V185H381V129H323V83H381V32H426V83H479zM79 498H289L380 406V245H426V425L308 544H33V32H269V78H79z" />
    <glyph glyph-name="edit"
      unicode="&#xF145;"
      horiz-adv-x="512" d=" M1 35L13 118L25 201L96 129L167 58L84 47zM404 343L190 130L167 154L380 367L332 414L119 201L96 225L309 438L285 462L48 225L190 83L427 319zM502 390C514 402 514 423 501 436L406 531C393 544 372 545 360 532L357 529L311 484L453 342L499 387L498 388C499 389 501 389 502 390z" />
    <glyph glyph-name="enterprise"
      unicode="&#xF146;"
      horiz-adv-x="512" d=" M0 448H32V64H0zM128 448H160V64H128zM32 96H128V64H32zM32 160H128V128H32zM32 224H128V192H32zM32 288H128V256H32zM32 352H128V320H32zM32 448H128V384H32zM64 448H96V64H64zM192 416H224V64H192zM224 96H320V64H224zM224 160H320V128H224zM224 224H320V192H224zM224 288H320V256H224zM224 352H320V320H224zM224 416H320V384H224zM288 416H320V64H288zM352 512H384V64H352zM480 512H512V64H480zM384 96H480V64H384zM384 160H480V128H384zM384 224H480V192H384zM384 288H480V256H384zM384 352H480V320H384zM384 512H480V448H384zM416 448H448V64H416zM384 416H480V384H384z" />
    <glyph glyph-name="enumerations"
      unicode="&#xF147;"
      horiz-adv-x="512" d=" M200 490H512V443H200zM200 299H512V252H200zM200 120H512V74H200zM50 38L3 90C-2 95 -1 103 5 108C11 112 20 111 25 106L49 79L120 166C124 171 133 172 139 168S147 156 142 151zM50 209L3 262C-2 267 -1 275 5 279S20 282 25 277L49 250L120 337C124 342 133 344 139 340S147 328 142 322zM73 394C34 394 1 426 1 466S34 538 73 538C113 538 146 506 146 466S113 394 73 394zM73 516C46 516 24 494 24 466C24 439 46 417 73 417C101 417 123 439 123 466C123 494 101 516 73 516z" />
    <glyph glyph-name="error"
      unicode="&#xF148;"
      horiz-adv-x="512" d=" M436 468C336 567 175 567 76 468S-23 208 76 108C176 9 336 9 436 108C535 207 535 369 436 468zM238 454H291C307 454 309 445 309 440V435L308 429L297 237C296 222 290 219 279 219H251C240 219 234 222 232 236L221 435V440C221 445 223 454 238 454zM265 84C237 84 215 106 215 133C215 161 237 183 265 183S315 161 315 133C315 106 292 84 265 84z" />
    <glyph glyph-name="export-atom"
      unicode="&#xF149;"
      horiz-adv-x="512" d=" M210 141C210 126 198 113 182 113C167 113 154 126 154 141S167 169 182 169C198 169 210 156 210 141zM156 250V213C182 213 207 202 225 184C244 165 254 141 254 115H291C290 189 230 249 156 250zM156 321V285C249 284 325 208 326 115H362C361 228 270 320 156 321zM455 426L336 544H62V32H455V426zM107 78V498H317L409 406V78H107z" />
    <glyph glyph-name="export-csv"
      unicode="&#xF14A;"
      horiz-adv-x="512" d=" M193 133C192 133 190 133 189 132S187 130 185 129C184 128 182 127 180 126C177 125 174 124 171 124C167 124 164 125 161 127C158 128 156 130 154 133C152 135 150 139 149 142C148 146 147 151 147 156S148 165 149 169S151 176 153 179C155 181 158 184 161 185S167 187 171 187S177 187 179 186S183 185 185 184C186 183 188 182 189 181C190 181 191 180 192 180S194 181 195 181S196 182 197 183L203 191C199 196 194 199 189 201C183 203 177 205 170 205S156 203 150 201C144 198 140 195 136 191C132 186 129 181 127 175S124 163 124 156C124 148 125 141 127 135C130 129 133 124 136 120C140 116 145 113 150 110C155 108 161 107 167 107C170 107 173 107 177 108C180 108 183 109 186 110C190 112 193 113 196 115S201 120 204 123L197 131C196 132 195 133 193 133zM274 155C272 157 269 159 266 160C264 161 261 163 258 164S252 166 249 166C246 167 244 168 242 169S238 171 237 173C235 174 235 176 235 178C235 181 236 183 238 185C241 187 245 188 249 188C252 188 254 188 257 187C259 187 261 186 262 185C264 184 265 184 267 183C268 182 269 182 270 182S272 182 273 183C274 183 274 184 275 185L280 193C277 196 272 199 267 201C261 203 255 205 249 205S238 204 233 202C229 201 225 199 222 196S217 190 215 187S213 180 213 176S213 168 215 165C216 162 218 160 220 158S225 154 228 153C230 152 233 150 236 149S242 147 245 147C248 146 250 145 252 144S256 142 258 140C259 139 259 137 259 135V130L256 127C255 126 253 125 251 124C249 124 247 123 244 123S238 124 236 124C233 125 231 126 230 127C228 128 226 129 225 130C224 130 223 131 221 131C220 131 219 131 218 130S216 129 215 128L210 119C212 117 214 116 216 114C219 113 222 112 224 110C227 109 230 109 233 108C237 107 240 107 243 107C249 107 255 108 259 109C264 111 268 113 271 116C275 119 277 122 279 126S281 134 281 139C281 143 281 146 279 149C278 151 276 153 274 155zM366 203C364 203 363 203 362 202C360 201 360 200 359 199L341 148C340 145 339 142 338 140C337 137 337 134 336 131C335 134 335 137 334 140C333 142 332 145 331 148L313 199C313 200 312 201 311 202S308 203 307 203H288L325 108H346L384 203zM453 425L334 544H59V32H453V425H452zM105 78V498H315L407 406V78H105z" />
    <glyph glyph-name="export-pdf-descr"
      unicode="&#xF14B;"
      horiz-adv-x="512" d=" M159 291H345V260H159zM160 352H346V320H160zM160 413H346V381H160zM450 426L332 544H57V32H450V426zM103 78V498H313L404 406V78H103zM195 195C192 197 188 199 184 201C179 202 174 203 168 203H138V110H155V143H168C174 143 179 144 183 145C188 147 192 149 195 152C198 154 200 157 201 161C203 165 204 169 204 173C204 178 203 182 202 185C200 189 198 192 195 195zM185 166C184 164 183 162 182 161C180 160 178 158 176 158C174 157 171 156 168 156H155V190H168C171 190 174 189 176 189C178 188 180 187 182 185C183 184 184 182 185 180S186 176 186 174C186 171 186 169 185 166zM286 190C282 194 277 197 271 200C266 202 259 203 252 203H217V110H252C259 110 266 112 271 114C277 116 282 119 286 123S294 132 296 138S299 150 299 157C299 163 298 170 296 175C294 181 290 186 286 190zM279 143C278 139 276 136 274 133C271 130 268 128 264 126C261 125 257 124 252 124H234V189H252C257 189 261 189 264 187C268 186 271 183 274 181C276 178 278 174 279 170C281 166 282 162 282 157S281 147 279 143zM371 189V203H313V110H330V148H365V162H330V189z" />
    <glyph glyph-name="export-pdf-with-descriptions"
      unicode="&#xF14C;"
      horiz-adv-x="512" d=" M159 291H345V260H159zM160 352H346V320H160zM160 413H346V381H160zM450 426L332 544H57V32H450V426zM103 78V498H313L404 406V78H103zM195 195C192 197 188 199 184 201C179 202 174 203 168 203H138V110H155V143H168C174 143 179 144 183 145C188 147 192 149 195 152C198 154 200 157 201 161C203 165 204 169 204 173C204 178 203 182 202 185C200 189 198 192 195 195zM185 166C184 164 183 162 182 161C180 160 178 158 176 158C174 157 171 156 168 156H155V190H168C171 190 174 189 176 189C178 188 180 187 182 185C183 184 184 182 185 180S186 176 186 174C186 171 186 169 185 166zM286 190C282 194 277 197 271 200C266 202 259 203 252 203H217V110H252C259 110 266 112 271 114C277 116 282 119 286 123S294 132 296 138S299 150 299 157C299 163 298 170 296 175C294 181 290 186 286 190zM279 143C278 139 276 136 274 133C271 130 268 128 264 126C261 125 257 124 252 124H234V189H252C257 189 261 189 264 187C268 186 271 183 274 181C276 178 278 174 279 170C281 166 282 162 282 157S281 147 279 143zM371 189V203H313V110H330V148H365V162H330V189z" />
    <glyph glyph-name="export-pdf"
      unicode="&#xF14D;"
      horiz-adv-x="512" d=" M441 426L322 544H47V32H441V426zM93 78V498H303L395 406V78H93zM186 195C183 197 179 199 175 201C170 202 165 203 158 203H128V110H146V143H158C164 143 170 144 174 145C179 147 182 149 185 152C188 154 191 157 192 161C194 165 194 169 194 173C194 178 194 182 192 185C191 189 189 192 186 195zM176 166C175 164 174 162 173 161C171 160 169 158 167 158C164 157 162 156 158 156H146V190H158C162 190 164 189 167 189C169 188 171 187 173 185C174 184 175 182 176 180S177 176 177 174C177 171 177 169 176 166zM277 190C273 194 268 197 262 200C256 202 250 203 243 203H208V110H243C250 110 256 112 262 114S273 119 277 123S284 132 287 138C289 144 290 150 290 157C290 163 289 170 287 175C284 181 281 186 277 190zM270 143C269 139 267 136 264 133C262 130 259 128 255 126C252 125 248 124 243 124H225V189H243C247 189 252 189 255 187C259 186 262 183 264 181C267 178 269 174 270 170C272 166 272 162 272 157S272 147 270 143zM362 189V203H303V110H321V148H355V162H321V189z" />
    <glyph glyph-name="export-xls-descr"
      unicode="&#xF14E;"
      horiz-adv-x="512" d=" M142 110L173 158L144 203H161C162 203 163 203 163 202C164 202 164 202 165 201L186 167V169C187 169 187 170 187 170L207 201C208 202 209 203 210 203H227L197 159L228 110H210C209 110 208 111 208 111L206 113L184 149V147L183 146L163 113C162 113 162 112 161 111C160 111 159 110 158 110zM238 110V203H255V125H292V110H238zM297 122L302 130S303 131 304 131C304 132 305 132 306 132S308 132 309 131S312 129 314 128C315 127 317 126 320 125C322 124 325 124 328 124C333 124 336 125 339 127S343 133 343 137C343 139 343 141 341 143C340 145 338 146 337 147C334 148 332 149 330 150C327 150 324 151 322 152C319 153 317 154 314 155S309 158 307 160S304 164 302 167C301 170 300 173 300 177S301 184 302 187C304 191 306 193 308 196C311 198 314 200 318 202C322 203 326 204 331 204S341 203 346 201C351 200 355 197 358 194L354 186L352 184H350C349 184 348 184 347 185C346 185 344 186 343 187S340 188 338 189S334 190 331 190C329 190 327 190 325 189S322 188 320 187C319 186 318 184 318 183C317 182 317 180 317 178S317 174 319 173C320 171 321 170 323 169S328 167 330 166C333 166 335 165 338 164S343 162 346 161C348 159 351 158 353 156S356 152 358 149C359 147 360 143 360 139S359 131 357 128C356 124 354 121 351 118S345 113 341 112C337 110 332 109 327 109C324 109 321 110 319 110L310 113C308 114 305 115 303 117C301 118 299 120 297 122zM157 291H342V260H157zM158 352H343V320H158zM158 413H343V381H158zM447 426L329 544H54V32H448V426zM100 78V498H310L402 406V78H100z" />
    <glyph glyph-name="export-xls-with-descriptions"
      unicode="&#xF14F;"
      horiz-adv-x="512" d=" M142 110L173 158L144 203H161C162 203 163 203 163 202C164 202 164 202 165 201L186 167V169C187 169 187 170 187 170L207 201C208 202 209 203 210 203H227L197 159L228 110H210C209 110 208 111 208 111L206 113L184 149V147L183 146L163 113C162 113 162 112 161 111C160 111 159 110 158 110zM238 110V203H255V125H292V110H238zM297 122L302 130S303 131 304 131C304 132 305 132 306 132S308 132 309 131S312 129 314 128C315 127 317 126 320 125C322 124 325 124 328 124C333 124 336 125 339 127S343 133 343 137C343 139 343 141 341 143C340 145 338 146 337 147C334 148 332 149 330 150C327 150 324 151 322 152C319 153 317 154 314 155S309 158 307 160S304 164 302 167C301 170 300 173 300 177S301 184 302 187C304 191 306 193 308 196C311 198 314 200 318 202C322 203 326 204 331 204S341 203 346 201C351 200 355 197 358 194L354 186L352 184H350C349 184 348 184 347 185C346 185 344 186 343 187S340 188 338 189S334 190 331 190C329 190 327 190 325 189S322 188 320 187C319 186 318 184 318 183C317 182 317 180 317 178S317 174 319 173C320 171 321 170 323 169S328 167 330 166C333 166 335 165 338 164S343 162 346 161C348 159 351 158 353 156S356 152 358 149C359 147 360 143 360 139S359 131 357 128C356 124 354 121 351 118S345 113 341 112C337 110 332 109 327 109C324 109 321 110 319 110L310 113C308 114 305 115 303 117C301 118 299 120 297 122zM157 291H342V260H157zM158 352H343V320H158zM158 413H343V381H158zM447 426L329 544H54V32H448V426zM100 78V498H310L402 406V78H100z" />
    <glyph glyph-name="export-xls-with-relations"
      unicode="&#xF150;"
      horiz-adv-x="512" d=" M142 110L173 158L144 203H161C162 203 163 203 163 202C164 202 164 202 165 201L186 167V169C187 169 187 170 187 170L207 201C208 202 209 203 210 203H227L197 159L228 110H210C209 110 208 111 208 111L206 113L184 149V147L183 146L163 113C162 113 162 112 161 111C160 111 159 110 158 110H142zM238 110V203H255V125H292V110H238zM297 122L302 130C302 130 303 131 304 131C304 132 305 132 306 132S308 132 309 131S312 129 314 128C315 127 317 126 320 125C322 124 325 124 328 124C333 124 336 125 339 127S343 133 343 137C343 139 343 141 341 143C340 145 338 146 337 147C334 148 332 149 330 150C327 150 324 151 322 152C319 153 317 154 314 155S309 158 307 160S304 164 302 167C301 170 300 173 300 177S301 184 302 187C304 191 306 193 308 196C311 198 314 200 318 202C322 203 326 204 331 204S341 203 346 201C351 200 355 197 358 194L354 186L352 184H350C349 184 348 184 347 185C346 185 344 186 343 187S340 188 338 189S334 190 331 190C329 190 327 190 325 189S322 188 320 187C319 186 318 184 318 183C317 182 317 180 317 178S317 174 319 173C320 171 321 170 323 169S328 167 330 166C333 166 335 165 338 164S343 162 346 161C348 159 351 158 353 156S356 152 358 149C359 147 360 143 360 139S359 131 357 128C356 124 354 121 351 118S345 113 341 112C337 110 332 109 327 109C324 109 321 110 319 110L310 113C308 114 305 115 303 117C301 118 299 120 297 122zM447 426L329 544H54V32H448V426H447zM100 78V498H310L402 406V78H100z M146.2 403.5H299.4V301.1H146.2V403.5z M155.4 394.2000000000001H290.1V369.3000000000001H155.4V394.2000000000001z M295.1 364.4L339.5 364.8L339.5 343.4L295 343.4 M367.8 352.2000000000001C351.8 341 332.1 321.9 319.8 301.6V402.8C332.1 382.6 351.8 363.4 367.8 352.2000000000001z" />
    <glyph glyph-name="export-xls"
      unicode="&#xF151;"
      horiz-adv-x="512" d=" M227 203H211C209 203 208 202 207 201L188 170C187 170 187 169 187 169C187 168 186 168 186 167L165 201C165 202 164 202 164 202C163 203 162 203 161 203H144L173 158L143 110H159C160 110 161 111 161 111L163 113L184 146V147C185 148 185 148 185 149L206 113C207 113 207 112 208 111C209 111 210 110 211 110H228L197 159zM255 203H238V110H292V125H255zM358 149C357 152 355 154 353 156S349 159 346 161C344 162 341 163 338 164C336 165 333 165 331 166C328 167 326 168 324 169S320 171 319 173C318 174 317 176 317 178S318 182 318 183C319 184 320 186 321 187S324 188 325 189C327 190 329 190 332 190C334 190 336 190 338 189S342 187 343 187C345 186 346 185 347 185C348 184 349 184 350 184H352C353 185 354 185 354 186L358 194C355 197 351 200 346 201C342 203 337 204 331 204C326 204 322 203 318 202C315 200 311 198 309 196C306 193 304 190 303 187S301 181 301 177S302 170 303 167S306 162 308 160S312 156 314 155C317 154 320 153 322 152C325 151 328 150 330 150C333 149 335 148 337 147S341 144 342 143C343 141 344 139 344 137C344 133 342 129 340 127C337 125 333 124 328 124C325 124 322 124 320 125L314 128C312 129 311 130 310 131C308 132 307 132 306 132S305 132 304 131C303 131 303 130 302 130L297 122C299 120 301 118 303 117C306 115 308 114 311 113C313 112 316 111 319 110C322 110 325 109 328 109C333 109 337 110 341 112C345 113 349 115 352 118C354 121 356 124 358 128C359 131 360 135 360 139S359 146 358 149zM448 426L329 544H54V32H448V426zM100 78V498H310L402 406V78H100z" />
    <glyph glyph-name="export"
      unicode="&#xF152;"
      horiz-adv-x="512" d=" M512 288L381 420V320H191V256H381V156zM318 32H0V544H318V384H254V480H64V96H254V192H318z" />
    <glyph glyph-name="faq"
      unicode="&#xF153;"
      horiz-adv-x="512" d=" M134 217V300C64 310 11 361 11 421C11 489 77 544 158 544H256C338 544 404 489 404 421C404 356 342 302 265 299zM158 503C104 503 60 466 60 421S104 339 158 339H183V299L248 339H256C311 339 355 376 355 421S311 503 256 503zM318 91C263 94 218 132 218 179C218 228 266 268 324 268H395C454 268 501 228 501 179C501 136 463 99 413 92V32zM324 238C285 238 254 212 254 179C254 147 285 121 324 121H330L378 91V121H395C434 121 466 147 466 179C466 212 434 238 395 238zM174 478C186 485 199 488 213 488C225 488 234 485 241 480C249 474 252 466 252 456C252 451 251 447 250 444C249 440 247 437 244 434S236 427 229 421C224 417 220 413 218 411C216 408 215 404 215 399V395H198V401C198 407 199 413 201 417C204 421 208 426 214 431C221 436 226 441 228 444S231 451 231 455C231 460 229 464 226 467C222 469 218 471 211 471C206 471 200 470 196 468C191 467 186 465 181 462zM194 366C194 375 199 380 207 380C212 380 215 379 217 376C219 374 221 371 221 366C221 362 219 359 217 356C215 354 212 352 207 352C203 352 200 354 198 356C195 358 194 362 194 366zM348 148C348 151 349 153 351 155C352 156 355 157 358 157S363 156 365 155C366 153 367 151 367 148S366 143 365 141C363 140 361 139 358 139S352 140 351 141C349 143 348 145 348 148zM348 219H367L364 166H351z" />
    <glyph glyph-name="filter"
      unicode="&#xF154;"
      horiz-adv-x="512" d=" M511 536H1L206 272V40L306 89V272z" />
    <glyph glyph-name="flag"
      unicode="&#xF155;"
      horiz-adv-x="512" d=" M378 508S293 468 208 497C115 530 74 517 34 468C27 472 19 473 12 468C1 462 -2 448 4 438L230 71C234 65 241 61 249 61C253 61 257 62 260 64C271 71 274 84 268 95L167 258C207 306 249 319 341 287C426 257 511 298 511 298z" />
    <glyph glyph-name="folder-add"
      unicode="&#xF156;"
      horiz-adv-x="512" d=" M288 208V240H352V304H480V400C480 418 466 432 448 432H256C238 432 215 443 203 456L189 472C177 485 154 496 136 496H32C14 496 0 482 0 464V144C0 126 14 112 32 112H288zM512 208H448V272H384V208H320V144H384V80H448V144H512z" />
    <glyph glyph-name="folder-locked"
      unicode="&#xF157;"
      horiz-adv-x="512" d=" M512 80H352V208H512zM480 208H448V240H416V208H384V272H480zM320 240H352V304H480V400C480 418 466 432 448 432H256C238 432 215 443 203 456L189 472C177 485 154 496 136 496H32C14 496 0 482 0 464V144C0 126 14 112 32 112H320z" />
    <glyph glyph-name="folder-open"
      unicode="&#xF158;"
      horiz-adv-x="512" d=" M40 426H237L158 504H40zM473 72H40L1 347H512zM473 386H40V426H473z" />
    <glyph glyph-name="folder-remove"
      unicode="&#xF159;"
      horiz-adv-x="512" d=" M288 192V224H480V384C480 402 466 416 448 416H256C238 416 215 427 203 440L189 456C177 469 154 480 136 480H32C14 480 0 466 0 448V128C0 110 14 96 32 96H288zM320 128V192H512V128z" />
    <glyph glyph-name="folder"
      unicode="&#xF15A;"
      horiz-adv-x="512" d=" M0 118C0 99 16 83 34 83H478C496 83 512 99 512 118V390C512 409 496 424 478 424H273C254 424 229 436 216 450L202 467C189 481 164 492 145 492H34C16 492 0 477 0 458z" />
    <glyph glyph-name="forums"
      unicode="&#xF15B;"
      horiz-adv-x="512" d=" M448 384H416V352C416 303 369 256 320 256H173L128 211V192C128 160 160 128 192 128H352L448 32V128C480 128 512 160 512 192V320C512 352 480 384 448 384zM320 544H64C32 544 0 512 0 480V352C0 320 32 288 64 288C70 288 49 288 64 288V192L160 288H320C352 288 384 320 384 352V480C384 512 352 544 320 544z" />
    <glyph glyph-name="from-fullscreen"
      unicode="&#xF15C;"
      horiz-adv-x="512" d=" M290 191.6L290 63.6L322 63.6L322 169.6L437 50.6L463 76.6L344 191.6L450 191.6L450 223.6L290 223.6z M51 436.6L170 321.6L64 321.6L64 289.6L224 289.6L224 449.6L192 449.6L192 343.6L77 462.6z" />
    <glyph glyph-name="getting-started"
      unicode="&#xF15D;"
      horiz-adv-x="512" d=" M512 185L407 247V213H0V157H407V124zM76 421C78 423 80 424 81 426C81 419 80 411 80 400V308H103V450H84L42 417L54 403C66 413 74 419 76 421zM181 329L179 331H157C155 316 154 300 150 282H166C174 301 178 317 181 329zM300 328H232V329L257 353C268 363 276 372 281 378S289 390 291 396C294 401 295 408 295 414C295 426 291 435 283 442S264 452 251 452C243 452 235 451 227 448C220 445 212 441 204 434L217 419C223 424 229 428 234 430S245 433 250 433C257 433 262 431 266 427C270 424 272 418 272 412C272 407 271 403 269 399C268 395 265 390 262 386C258 381 251 373 240 362L203 325V308H300zM348 329L347 331H325C323 316 321 300 317 282H334C342 301 345 317 348 329zM451 317C461 324 465 335 465 349C465 358 462 366 457 371C452 377 443 381 432 382V383C441 385 449 389 454 395S462 409 462 418C462 428 458 437 450 443S430 452 416 452C399 452 384 448 371 438L382 422C389 426 395 429 400 431C405 432 410 433 415 433C423 433 429 432 433 428C437 425 439 420 439 414C439 398 427 391 405 391H392V372H404C417 372 427 370 433 366C439 363 442 357 442 350C442 341 439 335 434 331C428 327 420 325 409 325C403 325 396 325 390 327C383 329 376 331 370 334V313C381 308 394 306 410 306C428 306 442 310 451 317z" />
    <glyph glyph-name="glossar"
      unicode="&#xF15E;"
      horiz-adv-x="512" d=" M256 400C256 480 78 496 0 496V144H32V112C96 112 224 131 224 80H288C288 131 416 112 480 112V144H512V496C434 496 256 480 256 400zM32 464C48 464 62 463 76 462H87C150 457 216 444 223 406C224 404 224 402 224 400V162C177 189 90 192 32 192zM480 192C422 192 335 189 288 162V400C288 421 322 462 480 464zM97 283L80 235H60L113 388H137L190 235H168L152 283zM148 299L132 342C129 352 127 362 124 370C122 361 119 352 116 343L101 299zM325 247L412 371H333V388H438V376L352 252H439V235H325V247z" />
    <glyph glyph-name="google-plus"
      unicode="&#xF15F;"
      horiz-adv-x="512" d=" M269 125C269 129 268 133 267 137S266 144 265 147S262 154 260 157C257 161 255 163 254 166L246 174C243 178 240 180 238 182C236 183 233 186 229 189S222 194 220 195C219 197 215 199 211 202C206 205 203 207 202 208C199 208 194 209 188 209C177 209 167 208 157 207C148 205 137 203 127 199C116 196 107 192 99 186C91 181 84 174 79 165S71 146 71 134C71 121 75 110 81 100C88 89 97 81 108 76C119 70 130 65 142 63C154 60 166 58 179 58C190 58 201 59 211 62C221 64 230 68 239 73S255 85 261 94C266 103 269 113 269 125zM234 372C234 383 233 395 230 408C226 421 222 433 216 445S202 467 192 475S171 487 158 487C140 487 127 480 117 467S102 438 102 420C102 411 103 402 106 392C108 382 111 372 116 362C120 352 126 343 132 335S145 321 154 316S172 309 182 309C200 309 214 314 222 326C230 337 234 353 234 372zM197 507H322L283 485H245C258 476 269 464 276 449C283 433 287 417 287 401C287 386 285 374 281 363C276 352 271 343 265 337L246 318C239 313 234 307 230 301C225 295 223 288 223 281C223 276 225 272 228 267S235 258 240 253C245 249 251 244 257 239C263 235 269 229 275 224C281 218 287 211 292 205C297 198 301 190 304 180C307 171 309 161 309 150C309 120 296 93 269 69C240 44 200 32 149 32C138 32 126 33 115 35C103 37 92 40 80 44C68 49 58 54 49 61S33 76 27 86C21 97 18 108 18 121C18 133 22 146 29 160C35 172 44 182 56 191S82 207 98 212C113 216 128 220 142 222S170 225 185 226C173 242 167 256 167 268V275C168 277 168 279 169 281C169 282 170 284 171 287C172 289 172 291 173 293C165 292 159 291 153 291C124 291 100 301 80 319C60 338 49 362 49 390C49 416 58 440 77 461C95 482 117 496 143 502C161 506 179 507 197 507zM494 434V398H421V325H384V398H311V434H384V507H421V434z" />
    <glyph glyph-name="group-by"
      unicode="&#xF160;"
      horiz-adv-x="512" d=" M51 412H460V375H51zM52 348H461V312H52zM154 544V442H52zM51 132H460V95H51zM52 68H461V32H52zM154 264V162H51z" />
    <glyph glyph-name="group"
      unicode="&#xF161;"
      horiz-adv-x="512" d=" M506 193C496 208 496 217 465 230C433 243 426 248 426 248L425 278S437 287 441 315C448 313 456 326 456 333C457 340 455 359 446 357C448 371 450 383 449 390C447 414 423 440 386 440S325 414 323 390C322 383 323 371 325 357C316 359 315 340 315 333C316 326 323 313 331 315C334 287 346 278 346 278L320 257C335 249 373 254 381 241C386 234 398 214 395 97H512S514 180 506 193zM345 204C334 220 299 230 264 245S220 265 220 265V298S233 308 237 340C245 338 254 352 255 360C255 368 253 388 243 386C245 402 247 416 246 423C244 450 217 479 176 479S108 450 106 423C105 416 107 402 109 386C99 388 97 368 97 360C98 352 106 338 115 340C119 309 132 298 132 298V265S123 260 88 245S18 220 7 204C-2 189 0 97 0 97H352S354 189 345 204z" />
    <glyph glyph-name="hamburger"
      unicode="&#xF162;"
      horiz-adv-x="512" d=" M32 448H480V384H32zM32 320H480V256H32zM32 192H480V128H32z" />
    <glyph glyph-name="headline1"
      unicode="&#xF163;"
      horiz-adv-x="512" d=" M0 134V441H41V304H207V441H248V134H207V274H41V134zM330 363L421 442H452V164H512V134H348V164H414V373V392L359 345C358 344 357 343 355 342H351C349 342 347 342 345 343C344 344 342 345 341 346z" />
    <glyph glyph-name="headline2"
      unicode="&#xF164;"
      horiz-adv-x="512" d=" M0 133V439H41V303H206V439H247V133H206V273H41V133zM308 133V146C308 149 308 152 310 154C311 157 312 160 315 162L413 261C421 269 428 277 435 285C442 292 447 300 452 308C457 315 461 323 463 331C466 339 467 347 467 356S465 373 462 380C460 387 456 392 451 397C446 401 440 404 433 407C427 409 419 410 412 410C404 410 397 409 390 406C384 404 378 401 373 397S364 388 360 383C357 377 354 371 353 364C352 360 350 357 348 355C346 354 343 353 339 353H334L314 356C316 370 320 383 325 393C331 404 338 413 347 420C356 428 366 433 377 437C389 441 401 443 414 443S439 441 450 437S471 427 479 420C488 413 494 404 499 393C504 383 506 371 506 357C506 346 504 335 501 326C498 316 493 307 487 298S474 280 467 272C459 264 451 255 443 247L362 164C368 165 374 167 379 168C385 169 391 169 396 169H499C503 169 506 168 508 166C511 163 512 160 512 156V133z" />
    <glyph glyph-name="headline3"
      unicode="&#xF165;"
      horiz-adv-x="512" d=" M0 136V440H41V304H205V440H247V136H205V274H41V136zM308 212L324 219C327 220 330 221 333 221C335 221 338 220 340 219S344 216 345 213C345 213 346 212 346 211C346 211 347 210 347 209L354 195C357 190 361 186 365 181C370 176 376 173 383 170C391 166 399 165 410 165S430 167 438 170S453 178 458 183C463 189 467 195 470 202S474 216 474 222C474 230 473 238 471 245C469 251 465 257 459 262S446 271 436 274S413 278 397 278V305C410 306 421 307 430 310C439 312 446 316 452 321S462 331 464 338C467 344 468 351 468 359C468 368 467 376 464 382C461 389 458 394 453 398C448 403 442 406 436 408C429 410 422 411 414 411C407 411 400 410 393 408C386 405 381 402 376 398S366 389 363 384C360 378 357 372 355 366C354 362 353 359 350 357C348 355 345 354 342 354H339S338 354 337 355L317 358C319 372 323 384 328 395C334 405 341 414 350 422C359 429 369 434 380 438S403 444 416 444S441 442 452 438C463 435 473 429 481 422C489 416 495 407 499 398C504 388 506 377 506 366C506 356 505 347 502 340C500 332 496 326 492 320C487 314 482 309 475 305C469 301 461 298 453 296C473 290 488 282 497 269C507 257 512 242 512 223C512 209 509 197 504 185C499 174 491 165 482 157S462 143 450 139C438 134 425 132 411 132C394 132 381 134 369 138C358 142 348 148 340 155S326 171 321 180C316 190 311 201 308 212z" />
    <glyph glyph-name="headset"
      unicode="&#xF166;"
      horiz-adv-x="512" d=" M477 358C451 464 362 541 256 541S61 464 35 362C16 355 3 339 3 320V266C3 240 22 221 48 221H99V362H67C93 448 166 509 256 509S419 448 445 362H413V221H435C410 160 362 115 298 99C291 115 275 128 256 128C230 128 208 106 208 80C208 67 211 58 218 51C227 38 240 32 256 32C278 32 294 48 301 67C381 83 445 144 470 221C493 224 509 243 509 266V317C509 336 496 355 477 358zM256 150C330 150 387 208 387 275V323C387 394 330 448 256 448S125 394 125 323V275C125 208 182 150 256 150z" />
    <glyph glyph-name="help"
      unicode="&#xF167;"
      horiz-adv-x="512" d=" M117 494C124 501 133 507 142 513C152 519 162 524 173 529C183 533 195 537 208 539C221 542 234 543 249 543C269 543 288 540 304 535C321 529 335 522 347 512S368 489 374 475C381 461 384 445 384 427C384 410 382 394 376 381C371 368 365 357 357 348C349 338 340 330 331 323C321 316 313 310 304 303C296 297 289 291 283 286C278 280 275 273 274 265L266 214H208L202 271V277C202 288 204 296 209 304C214 311 221 318 228 325C236 332 244 338 253 344C261 351 269 357 277 365C284 372 290 380 295 389C300 399 302 410 302 422C302 431 301 438 298 445C294 451 290 457 285 462S273 470 266 473C258 475 250 476 241 476C228 476 217 475 208 472S191 466 185 463C178 459 173 456 169 453C164 450 160 448 157 448C149 448 143 452 139 459zM189 85C189 92 191 99 193 105C195 112 198 117 202 122C206 126 211 130 217 133C222 136 228 137 234 137C241 137 248 136 254 133S265 126 270 122C274 117 278 112 281 105C283 99 285 92 285 85C285 77 283 70 281 64C278 58 274 52 270 48C265 43 260 39 254 37C248 34 241 33 234 33C228 33 222 34 217 37C211 39 206 43 202 48C198 52 195 58 193 64S189 77 189 85z" />
    <glyph glyph-name="help1"
      unicode="&#xF168;"
      horiz-adv-x="512" d=" M291 241C291 233 289 232 281 232H247C239 232 238 233 238 241V299C238 310 254 312 271 318C287 323 303 333 303 358C303 379 290 391 265 391C236 391 212 375 207 375C205 375 203 378 202 380L190 411C189 413 189 415 189 416C189 428 244 444 275 444C331 444 366 408 366 357C366 298 318 282 291 273zM266 111C244 111 227 129 227 150C227 172 244 190 266 190S305 172 305 150C305 129 287 111 266 111zM256 543C115 543 1 429 1 288S115 33 256 33S511 147 511 288S397 543 256 543zM256 70C136 70 38 168 38 288S136 506 256 506S474 408 474 288S376 70 256 70z" />
    <glyph glyph-name="help2"
      unicode="&#xF169;"
      horiz-adv-x="512" d=" M437 469C337 569 175 569 75 469C-24 370 -24 208 75 108C175 8 337 8 437 108C536 208 536 370 437 469zM245 83C217 83 195 106 195 133C195 161 217 183 245 183S295 161 295 133C295 106 272 83 245 83zM280 258V231C280 217 275 212 262 212H225C212 212 207 217 207 231V292C207 308 223 313 237 317C240 318 244 319 247 320C266 327 277 335 277 355C277 362 277 382 244 382C224 382 206 374 195 370C189 367 186 366 182 366C176 366 170 371 169 377L156 410C155 413 155 416 155 418C155 442 230 456 255 456C318 456 361 415 361 355C361 289 311 269 280 258z" />
    <glyph glyph-name="hierarchy"
      unicode="&#xF16A;"
      horiz-adv-x="512" d=" M320 224V256H256V352H192V448H160V320H224V128H320V160H256V224z" />
    <glyph glyph-name="home"
      unicode="&#xF16B;"
      horiz-adv-x="512" d=" M415 398V517H349V449L255 523L1 327L48 274L84 296V53H448V296L475 274L512 327zM316 86H183V252H316z" />
    <glyph glyph-name="hosting"
      unicode="&#xF16C;"
      horiz-adv-x="512" d=" M512 220C512 191 502 167 482 147S438 117 410 117H119C87 117 58 129 35 152C12 176 0 204 0 237C0 260 6 282 19 301C32 321 48 335 69 345C68 350 68 354 68 356C68 394 82 426 108 453C135 479 167 493 205 493C233 493 258 485 281 469C304 454 321 433 331 408C344 419 358 425 375 425C394 425 410 418 424 405C437 391 444 375 444 356C444 343 440 331 433 319C456 314 475 302 490 284C505 265 512 244 512 220z" />
    <glyph glyph-name="image1"
      unicode="&#xF16D;"
      horiz-adv-x="512" d=" M448 432V144H64V432H448M512 496H0V80H512zM232 360C232 334 210 312 184 312C157 312 136 334 136 360C136 387 157 408 184 408C210 408 232 387 232 360zM96 176H416V292L365 384L297 235L256 277S200 256 181 224C152 240 136 224 136 224z" />
    <glyph glyph-name="image2"
      unicode="&#xF16E;"
      horiz-adv-x="512" d=" M296 280C296 262 282 248 264 248S232 262 232 280S246 312 264 312S296 298 296 280zM192 176H416V257L381 322L332 218L304 247S265 232 252 210C231 221 220 210 220 210zM448 400V496H0V208H96V80H512V400zM96 272H64V432H384V400H96zM448 144H160V336H448z" />
    <glyph glyph-name="info1"
      unicode="&#xF16F;"
      horiz-adv-x="512" d=" M323 171C323 167 322 166 317 166H217C212 166 212 167 212 171V197C212 201 212 202 217 202H242V323H217C212 323 211 324 211 329V354C211 359 212 360 217 360H287C291 360 292 359 292 354V202H317C322 202 323 201 323 197V171zM267 385C249 385 234 400 234 418S249 450 267 450S299 436 299 418S285 385 267 385zM256 543C115 543 1 429 1 288S115 33 256 33S511 147 511 288S397 543 256 543zM256 71C136 71 38 168 38 288S136 506 256 506S474 408 474 288S376 71 256 71z" />
    <glyph glyph-name="info2"
      unicode="&#xF170;"
      horiz-adv-x="512" d=" M436 468C337 567 175 567 76 468C-24 369 -24 207 76 108C175 8 337 8 436 108C536 207 536 369 436 468zM252 499C279 499 301 477 301 450S279 401 252 401S203 423 203 450S224 499 252 499zM330 140C330 130 325 125 315 125H189C179 125 174 130 174 140V172C174 182 179 187 189 187H212V323H189C178 323 173 328 173 338V370C173 380 178 385 189 385H277C287 385 292 380 292 370V187H315C325 187 330 182 330 172z" />
    <glyph glyph-name="installation-services"
      unicode="&#xF171;"
      horiz-adv-x="512" d=" M182 176H435C461 176 480 195 480 221V413C480 438 461 458 435 458H77C51 458 32 438 32 413V221C32 195 51 176 77 176zM64 221V413C64 419 70 426 77 426H435C442 426 448 419 448 413V221C448 214 442 208 435 208H77C70 208 64 214 64 221zM214 141V150H13V134C13 125 19 118 29 118H480C490 118 496 125 496 134V150H298V141M160 237C160 288 202 330 256 330C307 330 352 288 352 237H410V272H378C374 278 374 285 371 291L400 310L378 342L349 320C342 326 336 330 333 336L349 365L314 384L298 355C291 358 282 358 275 362V394H237V358C230 358 224 358 218 355L202 384L170 365L186 339C176 336 170 330 163 323L138 342L115 310L141 294C138 288 134 278 131 272H109V237z" />
    <glyph glyph-name="italic"
      unicode="&#xF172;"
      horiz-adv-x="512" d=" M105 45C123 47 135 50 142 55C153 63 162 79 169 103L265 449C268 463 271 473 272 479S274 490 274 496C274 508 270 517 262 522C253 527 239 530 218 531V543H412V531C392 528 378 524 370 518S355 497 348 473L252 127C249 114 247 104 245 96C244 89 243 83 243 78C243 66 248 57 257 53S279 46 297 45V33H105z" />
    <glyph glyph-name="key"
      unicode="&#xF173;"
      horiz-adv-x="512" d=" M452 422C459 383 454 346 438 312S396 258 361 252C339 248 317 248 295 251L234 152L198 146L145 61C140 51 133 46 122 44L83 37C79 36 75 36 71 39C68 42 66 46 65 50L57 101C54 111 56 120 63 129L195 327C187 344 181 364 176 388C170 425 179 456 203 484S259 529 298 536C334 543 367 535 398 513C428 491 446 460 452 422M388 383C398 398 402 415 399 433S387 465 372 475C358 486 342 490 325 487C308 483 295 474 284 459L278 447C277 443 277 440 278 437S280 431 280 429C281 426 283 424 287 420C291 417 294 414 296 412C299 411 302 408 307 404C313 400 317 398 319 396S325 391 330 387C336 383 340 380 342 379C345 378 348 376 352 373S359 369 362 369H370C374 370 377 371 380 374C382 376 385 379 388 383" />
    <glyph glyph-name="link"
      unicode="&#xF174;"
      horiz-adv-x="512" d=" M176 237H80C62 237 48 252 48 269V307C48 324 62 339 80 339H176C188 339 197 332 203 323H254C247 359 215 387 176 387H80C36 387 0 351 0 307V269C0 225 36 189 80 189H176C216 189 250 220 255 259H206C201 246 190 237 176 237zM432 387H336C297 387 265 359 258 323H309C315 332 324 339 336 339H432C450 339 464 324 464 307V275C464 257 450 243 432 243H336C324 243 315 249 309 259H258C265 222 297 195 336 195H432C476 195 512 231 512 275V307C512 351 476 387 432 387zM338 259C355 259 368 273 368 291C368 308 355 323 338 323H173C157 323 144 308 144 291C144 273 158 259 175 259H338z" />
    <glyph glyph-name="loading1"
      unicode="&#xF175;"
      horiz-adv-x="512" d=" M288 480C288 470 280 462 271 462S254 470 254 480V525C254 535 262 543 271 543S288 535 288 525zM181 470C186 462 183 451 175 446C167 442 156 445 151 453L129 492C124 501 126 511 135 516C143 521 153 518 158 509zM105 412C114 407 117 396 113 388C108 380 97 377 88 382L50 404C41 409 38 420 43 428C47 436 58 439 67 434zM64 320C74 320 82 312 82 303S74 286 64 286H19C9 286 1 293 1 303C1 312 9 320 19 320zM74 219C82 224 93 222 98 214C102 206 99 195 91 190L52 168C43 163 33 165 28 173C23 182 27 192 35 197zM132 137C137 146 148 149 156 145C164 140 167 129 162 120L140 82C135 73 124 70 116 75C108 79 105 90 110 99zM224 96C224 106 232 114 241 114S258 106 258 96V51C258 41 250 33 241 33S224 41 224 51zM325 106C320 114 322 125 330 130C338 134 349 131 354 123L376 84C381 75 379 65 371 60C362 55 352 58 347 67zM407 164C398 169 395 180 399 188C404 196 415 199 424 194L462 171C471 167 474 156 469 148C465 140 454 137 445 142zM448 256C438 256 430 264 430 273C430 283 438 290 448 290H493C503 290 511 283 511 273C511 264 503 256 493 256zM438 357C430 352 419 354 414 362C410 370 413 381 421 386L460 408C469 413 479 411 484 403C489 394 486 384 477 379zM380 439C375 430 364 427 356 431C348 436 345 447 350 456L372 494C377 503 388 506 396 501C404 497 407 486 402 477z" />
    <glyph glyph-name="loading2"
      unicode="&#xF176;"
      horiz-adv-x="512" d=" M413 493H440V544H70V493H102C106 397 142 334 203 313V260C142 239 107 177 102 83H70V32H440V83H413C409 177 373 239 313 260V313C374 334 409 397 413 493zM297 238C365 221 385 148 388 83H363L317 136L260 203L203 136L157 83H128C131 148 151 221 219 238L228 240V333L219 335C150 352 131 427 128 493H388C385 427 366 352 297 335L287 333V240zM315 389H209L236 358L262 328L288 358z" />
    <glyph glyph-name="location"
      unicode="&#xF177;"
      horiz-adv-x="512" d=" M253 544C183 544 77 512 77 384C77 320 218 96 253 32C288 96 429 320 429 384C429 512 323 544 253 544zM253 328C222 328 197 353 197 384S222 440 253 440S309 415 309 384S284 328 253 328z" />
    <glyph glyph-name="locked"
      unicode="&#xF178;"
      horiz-adv-x="512" d=" M411 342V390C411 475 341 543 256 543S101 475 101 390V342H67V33H445V342zM280 102H223L237 181C229 186 223 194 223 205C223 221 236 233 251 233C267 233 280 221 280 205C280 194 274 186 265 181zM342 342H170V390C170 436 209 474 256 474S342 436 342 390z" />
    <glyph glyph-name="logout"
      unicode="&#xF179;"
      horiz-adv-x="512" d=" M495 272C495 369 436 452 353 489V402C393 372 419 325 419 272C419 182 346 108 256 108S93 182 93 272C93 325 119 372 159 402V490C76 452 17 369 17 272C17 140 124 33 256 33S495 140 495 272zM305 252C305 233 290 218 271 218H241C222 218 207 233 207 252V509C207 528 222 543 241 543H271C290 543 305 528 305 509z" />
    <glyph glyph-name="mail1"
      unicode="&#xF17A;"
      horiz-adv-x="512" d=" M255 245L484 446C482 447 481 447 479 447H29zM511 415C511 419 510 423 509 426L348 284L507 144C510 149 511 154 511 159V415zM2 428C0 424 -1 420 -1 415V159C-1 155 0 150 2 146L163 284zM324 262L255 202L187 263L30 128L31 127H478z" />
    <glyph glyph-name="mail2"
      unicode="&#xF17B;"
      horiz-adv-x="512" d=" M176 206L22 309L256 498L490 309L336 206L512 53V323L256 541L0 323V53zM483 35L300 195H212L29 35z" />
    <glyph glyph-name="maintenance-support"
      unicode="&#xF17C;"
      horiz-adv-x="512" d=" M150 70C147 70 147 74 144 74C134 67 118 64 106 64C61 64 22 102 22 147C22 163 26 179 35 192L32 195C32 198 32 198 29 202C29 205 29 205 26 208C13 192 3 170 3 147C3 93 48 48 102 48C125 48 144 54 160 67C157 67 154 70 150 70zM474 182S470 179 474 182C477 170 480 157 480 147C480 102 442 64 397 64C384 64 371 67 362 74C358 70 352 70 349 67C346 67 346 67 342 64C358 54 374 48 397 48C451 48 496 93 496 147C496 166 490 182 480 198C477 192 474 186 474 182zM32 381C35 384 35 384 35 387C32 400 29 410 29 422C29 467 67 506 112 506C122 506 134 502 144 499C147 499 150 502 150 502C154 502 157 506 160 506C144 518 128 522 112 522C58 522 13 477 13 422C13 403 19 384 29 368C29 371 29 371 32 374V381zM362 506C365 506 368 502 368 502C378 506 387 509 400 509C445 509 483 470 483 426C483 413 480 400 474 390C477 384 477 384 480 381C480 378 480 378 483 374C483 371 483 371 486 368C496 384 502 403 502 422C502 477 458 522 403 522C384 522 368 515 355 509C355 509 358 506 362 506zM493 243C496 256 496 272 496 288S493 320 493 333C499 304 499 272 493 243zM486 218C483 211 483 208 480 202C483 208 486 214 486 218zM323 522C301 525 278 528 256 528S211 525 189 518C234 531 278 531 323 522zM490 352C493 346 493 339 493 333C493 339 490 346 490 352zM211 51C224 48 240 48 256 48S288 51 301 51C272 45 240 45 211 51zM22 355C19 333 16 310 16 288S19 243 26 221C13 266 13 310 22 355zM326 518C333 515 339 515 342 512C336 515 330 518 326 518zM493 243C493 237 490 230 490 224C490 230 493 237 493 243zM211 51C205 51 198 54 192 54C198 54 205 51 211 51zM320 54C314 51 307 51 301 51C307 51 314 54 320 54zM170 512C176 515 179 515 186 518C182 518 176 515 170 512zM342 64C336 61 333 61 326 58C330 58 336 61 342 64zM186 58C179 61 176 61 170 64C176 61 182 58 186 58zM26 218C26 214 29 211 29 208S29 205 32 202C29 208 26 214 26 218zM150 70C154 67 157 67 163 64H166C160 67 154 67 150 70zM480 195C477 192 477 186 474 182C474 186 477 192 480 195zM32 374C32 371 32 371 29 368C29 365 26 362 26 358C26 362 29 368 32 374zM163 512L160 509C157 509 154 506 150 506C154 506 160 509 163 512zM362 506C358 506 355 509 352 509S349 509 346 512C352 509 358 506 362 506zM486 358C486 362 483 365 483 368S483 371 480 374C483 368 486 362 486 358zM486 218V221C490 227 490 234 490 240C496 269 496 301 490 333C490 339 486 346 486 352V355C483 362 483 365 480 371C480 374 480 374 477 378C464 406 448 432 426 458C410 474 390 490 368 499C365 499 362 502 362 502C358 506 352 509 349 512C346 512 346 512 342 515C336 518 330 518 326 522H323C278 534 234 534 192 522H189C182 518 176 515 170 512H163C160 509 154 506 150 506C147 506 144 502 144 502C122 490 102 477 86 458C61 435 45 410 32 381V374C29 368 26 362 26 358V355C13 310 13 266 26 224V221C29 214 29 208 32 205C32 202 32 202 35 198C48 170 64 144 86 118C106 99 125 86 147 74C150 74 150 70 154 70C154 67 160 67 163 64C166 64 166 64 170 61C176 58 179 58 186 54H189C195 51 202 51 208 51C237 45 269 45 301 51C307 51 314 54 320 54H323C330 58 333 58 339 61C342 61 342 61 346 64C374 77 400 93 426 115C445 134 458 154 470 176V179C474 182 474 189 477 192C477 195 477 195 480 198C483 208 486 214 486 218zM406 138C387 118 362 102 336 90L314 144C352 160 381 189 397 227L451 205C442 182 426 160 406 138zM397 346C390 365 378 381 365 397C349 413 333 422 314 429L336 483C362 474 387 458 406 435C426 416 442 390 454 365zM176 483L198 429C163 413 131 381 115 346L61 368C80 419 125 464 176 483zM115 230C122 211 134 195 147 179C163 163 179 154 198 147L176 93C150 102 125 118 106 141C86 160 70 186 58 211zM170 202C122 250 122 326 170 371C218 419 294 419 339 371C387 323 387 246 339 202C294 157 218 157 170 202z" />
    <glyph glyph-name="meetings"
      unicode="&#xF17D;"
      horiz-adv-x="512" d=" M448 478V222H287L264 210L192 161V222H64V478H448M512 542H0V158H128V34L308 158H512z" />
    <glyph glyph-name="menu"
      unicode="&#xF17E;"
      horiz-adv-x="512" d=" M0 544H128V416H0zM192 544H320V416H192zM384 544H512V416H384zM0 352H128V224H0zM192 352H320V224H192zM384 352H512V224H384zM0 160H128V32H0zM192 160H320V32H192zM384 160H512V32H384z" />
    <glyph glyph-name="microphone"
      unicode="&#xF17F;"
      horiz-adv-x="512" d=" M320 288C320 253 291 224 256 224S192 253 192 288V480C192 515 221 544 256 544S320 515 320 480zM416 288V352H384V288C384 217 327 160 256 160S128 217 128 288V352H96V288C96 211 151 146 224 131V96L128 64V32H384V64L288 96V131C361 146 416 211 416 288z" />
    <glyph glyph-name="milestone"
      unicode="&#xF180;"
      horiz-adv-x="512" d=" M2 288L256 541L509 288L256 35z" />
    <glyph glyph-name="minus1"
      unicode="&#xF181;"
      horiz-adv-x="512" d=" M0 328H512V248H0z" />
    <glyph glyph-name="minus2"
      unicode="&#xF182;"
      horiz-adv-x="512" d=" M468 543H44C20 543 1 524 1 501V76C1 53 20 34 44 34H468C492 34 511 53 511 76V501C511 524 492 543 468 543zM426 246H86V331H426z" />
    <glyph glyph-name="mobile"
      unicode="&#xF183;"
      horiz-adv-x="512" d=" M326 230H35V445C35 451 42 458 48 458H422C429 458 435 451 435 445V384H461V445C461 464 445 480 426 480H45C26 480 10 464 10 445V205C10 186 26 170 45 170H326zM291 150H179C170 150 163 144 163 134C163 125 170 118 179 118H291C301 118 307 125 307 134C307 144 298 150 291 150zM496 349C493 352 490 352 486 355H374C368 355 365 352 358 349C355 346 352 339 352 333V115C352 102 362 93 374 93H480C493 93 502 102 502 115V333C502 339 499 346 496 349zM486 134H371V326H486zM410 342L413 346H438C442 346 442 346 442 342C442 339 438 339 438 339H416C413 339 410 339 410 342zM429 102C426 102 422 102 422 106C419 109 419 112 419 115C419 122 426 128 432 128S445 122 445 115C445 112 442 109 442 106C435 106 432 102 429 102zM442 339C445 339 445 339 445 342C445 346 442 346 442 346H416C413 346 413 346 413 342C413 339 416 339 416 339" />
    <glyph glyph-name="modules"
      unicode="&#xF184;"
      horiz-adv-x="512" d=" M256 537L2 464V111L256 39L510 111V464zM236 85L41 141V412L236 356zM471 141L276 85V356L471 412V141zM256 391L70 444L256 497L442 444z" />
    <glyph glyph-name="more"
      unicode="&#xF185;"
      horiz-adv-x="512" d=" M0 98V478H100V440H50V136H100V98zM122 194C122 204 125 212 130 217C136 223 143 226 154 226C164 226 172 223 177 217C183 211 185 203 185 194C185 183 183 175 177 170C172 164 164 161 154 161C143 161 136 164 130 169C125 175 122 183 122 194zM225 194C225 204 227 212 233 217C238 223 246 226 256 226S274 223 280 217C285 211 288 203 288 194C288 183 285 175 280 170C274 164 266 161 256 161S238 164 233 169C227 175 225 183 225 194zM327 194C327 204 330 212 335 217C341 223 348 226 358 226C369 226 377 223 382 217C388 211 390 203 390 194C390 183 387 175 382 170C377 164 369 161 358 161C348 161 341 164 335 169C330 175 327 183 327 194zM412 136H462V440H412V478H512V98H412z" />
    <glyph glyph-name="move"
      unicode="&#xF186;"
      horiz-adv-x="512" d=" M511 288L375 425V360C103 360 81 199 81 167C140 296 375 232 375 232V167zM1 492V84H341V152H307V118H35V458H307V424H341V492z" />
    <glyph glyph-name="movie"
      unicode="&#xF187;"
      horiz-adv-x="512" d=" M0 544V32H512V544zM64 64H32V96H64zM64 160H32V192H64zM64 256H32V288H64zM64 352H32V384H64zM64 448H32V480H64zM416 96H96V256H416zM416 320H96V480H416zM480 64H448V96H480zM480 160H448V192H480zM480 256H448V288H480zM480 352H448V384H480zM480 448H448V480H480z" />
    <glyph glyph-name="music"
      unicode="&#xF188;"
      horiz-adv-x="512" d=" M134 474V170C128 171 122 171 116 171C69 171 30 140 30 102S69 34 116 34C161 34 197 61 202 95V419L409 460V238C403 239 397 240 392 240C344 240 306 209 306 171S344 102 392 102C436 102 472 130 477 164H478V542z" />
    <glyph glyph-name="new-planning-element"
      unicode="&#xF189;"
      horiz-adv-x="512" d=" M64 544H248V416H64zM0 544H32V32H0zM64 352H512V224H64zM64 160H390V32H64z" />
    <glyph glyph-name="news"
      unicode="&#xF18A;"
      horiz-adv-x="512" d=" M461 501S376 417 285 404C276 378 270 350 270 321S276 264 285 237C376 225 461 140 461 140C527 239 527 403 461 501zM231 140C214 157 206 201 207 239H231V337V403H67C31 403 2 366 2 321S31 239 67 239H115C124 218 133 191 133 173C133 140 166 75 199 75C231 75 264 108 231 140zM67 272C49 272 35 290 35 313C35 335 49 354 67 354z" />
    <glyph glyph-name="no-hierarchy"
      unicode="&#xF18B;"
      horiz-adv-x="512" d=" M320 416V448H224V128H320V160H256V224H320V256H256V320H320V352H256V416z" />
    <glyph glyph-name="no-zen-mode"
      unicode="&#xF18C;"
      horiz-adv-x="512" d=" M128 438L13 557L-13 531L106 416H0V384H160V544H128zM512 384V416H406L525 531L499 557L384 438V544H352V384zM512 160V192H352V32H384V138L499 19L525 45L406 160zM0 192V160H106L-13 45L13 19L128 138V32H160V192z" />
    <glyph glyph-name="not-supported"
      unicode="&#xF18D;"
      horiz-adv-x="512" d=" M256 542C116 542 2 428 2 288S116 34 256 34S510 148 510 288S396 542 256 542zM256 473C294 473 330 461 360 441L103 184C83 214 71 250 71 288C71 390 154 473 256 473zM256 103C217 103 181 115 152 136L408 393C429 363 441 327 441 288C441 186 358 103 256 103z" />
    <glyph glyph-name="notes"
      unicode="&#xF18E;"
      horiz-adv-x="512" d=" M416 512V544H384V512H320V544H288V512H224V544H192V512H128V544H96V512H0V32H512V512zM448 96H64V448H96V416H128V448H192V416H224V448H288V416H320V448H384V416H416V448H448z" />
    <glyph glyph-name="openproject"
      unicode="&#xF18F;"
      horiz-adv-x="512" d=" M411 543H357C309 543 270 504 270 456V318H175C172 318 170 317 168 317C164 317 160 318 155 318H101C53 318 14 279 14 231V120C14 72 53 33 101 33H155C203 33 242 72 242 120V231C242 241 240 250 237 259H270V158C270 142 283 130 299 130S328 142 328 158V259H345C349 259 353 258 357 258H411C459 258 498 297 498 345V456C498 504 459 543 411 543zM184 120C184 105 171 92 155 92H101C85 92 73 104 73 120V231C73 247 85 259 101 259H155C171 259 184 247 184 231V120zM439 345C439 329 427 317 411 317H357C355 317 353 317 351 318H354H351C338 321 328 331 328 345V456C328 471 341 484 357 484H411C426 484 439 472 439 456z" />
    <glyph glyph-name="ordered-list"
      unicode="&#xF190;"
      horiz-adv-x="512" d=" M160 480H512V416H160zM160 320H512V256H160zM160 160H512V96H160zM20 474L48 498H61V417H78V405H27V417H45V471C45 473 46 475 46 477L32 466S31 466 31 465H29C28 465 27 465 27 466C26 466 25 466 25 467zM18 245V250V254C19 255 19 256 20 257L48 285C51 287 53 290 55 292C56 294 58 296 59 298C61 300 61 302 62 305C63 307 63 309 63 312C63 314 63 316 62 318C62 319 61 321 59 322C58 323 57 324 55 324C54 325 52 325 50 325C46 325 43 324 40 322C38 320 36 318 35 315C35 313 34 312 33 311S31 310 29 310H27L19 312C20 316 21 320 23 323C25 327 27 330 30 332C32 334 35 336 39 337S46 339 50 339C55 339 59 338 62 337C66 335 69 334 71 331C74 329 76 326 77 323C79 320 79 316 79 312C79 309 79 306 78 303S76 297 74 294C72 292 70 289 68 287C66 284 63 282 61 279L40 258C42 258 44 259 46 259S50 260 52 260H75C77 260 78 259 79 258S81 256 81 254V245zM20 107L27 110C28 110 30 111 31 111S33 110 34 110S35 109 36 108C37 106 37 105 38 103C39 102 40 101 42 100C43 98 44 98 46 97S50 96 52 96C55 96 57 96 59 97S63 99 64 101C66 102 67 104 67 105C68 107 68 109 68 110V116C67 118 66 120 65 121C63 122 61 123 58 124C56 125 52 125 47 125V137C51 137 54 137 57 138C59 138 61 139 63 140C64 142 66 143 66 145C67 147 67 148 67 150C67 155 66 158 63 160C61 163 58 164 54 164S47 163 44 161C42 159 40 156 39 153C39 152 38 150 37 150C36 149 35 149 33 149H31L23 150C24 155 25 159 27 162S31 168 34 170C36 173 40 174 43 175C47 177 50 177 55 177C59 177 63 176 66 175S72 172 75 170C77 168 79 166 80 163C82 160 82 157 82 153C82 150 82 148 81 145C81 143 80 141 78 140C77 138 76 137 74 135L68 132C73 131 77 128 80 124C83 121 84 116 84 111S83 102 82 99C80 95 78 92 75 90C72 87 69 86 65 84C61 83 57 83 53 83C48 83 44 83 40 84C37 85 34 87 31 89C29 91 27 93 25 97C23 100 22 103 20 107z" />
    <glyph glyph-name="outline"
      unicode="&#xF191;"
      horiz-adv-x="512" d=" M451 339H298V480C298 515 269 544 234 544H64C29 544 0 515 0 480V311C0 275 29 246 64 246H205V93C205 60 233 32 267 32H451C485 32 512 60 512 93V277C512 311 485 339 451 339zM16 480C16 506 38 528 64 528H234C260 528 282 506 282 480V339H267C233 339 205 311 205 277V262H64C38 262 16 284 16 311zM438 168H375V107H338V168H275V205H338V270H375V205H438zM68 413H230V377H68z" />
    <glyph glyph-name="paragraph-left"
      unicode="&#xF192;"
      horiz-adv-x="512" d=" M512 448C512 430 498 416 480 416H256C238 416 224 430 224 448S238 480 256 480H480C498 480 512 466 512 448zM512 128C512 110 498 96 480 96H256C238 96 224 110 224 128S238 160 256 160H480C498 160 512 146 512 128zM512 288C512 306 498 320 480 320H416C398 320 384 306 384 288S398 256 416 256H480C498 256 512 270 512 288zM128 256V320H288V256zM0 288L128 384V192z" />
    <glyph glyph-name="paragraph-right"
      unicode="&#xF193;"
      horiz-adv-x="512" d=" M0 448C0 430 14 416 32 416H256C274 416 288 430 288 448S274 480 256 480H32C14 480 0 466 0 448zM128 288C128 306 114 320 96 320H32C14 320 0 306 0 288S14 256 32 256H96C114 256 128 270 128 288zM0 128C0 110 14 96 32 96H256C274 96 288 110 288 128S274 160 256 160H32C14 160 0 146 0 128zM384 256V320H224V256zM512 288L384 384V192z" />
    <glyph glyph-name="paragraph"
      unicode="&#xF194;"
      horiz-adv-x="512" d=" M475 543H147V541C85 533 37 480 37 416C37 351 85 299 147 290V33H220V470H292V33H365V470H475z" />
    <glyph glyph-name="payment-history"
      unicode="&#xF195;"
      horiz-adv-x="512" d=" M244 221C221 221 201 228 186 236L176 195C189 188 212 181 235 180V147H269V183C309 190 331 216 331 247S314 297 273 312C243 323 231 330 231 342C231 352 238 361 261 361C286 361 302 353 311 350L321 389C310 394 294 399 271 400V431H237V398C199 391 178 367 178 336C178 302 203 285 240 272C266 264 277 255 277 242C277 228 264 221 244 221zM448 453C403 504 341 535 273 540C181 546 94 503 44 429L1 450L16 304L123 389L90 405C131 461 199 492 269 487C324 484 373 459 409 419C445 378 462 327 458 274C451 164 353 81 241 89C182 93 127 122 91 170L50 139C94 79 163 42 238 36H256C389 36 501 137 511 270C515 337 493 402 448 453z" />
    <glyph glyph-name="phone"
      unicode="&#xF196;"
      horiz-adv-x="512" d=" M481 145L478 151C470 170 373 198 365 199C363 199 361 199 359 198C345 195 331 183 300 156C265 172 218 214 196 240C171 267 141 313 130 347C165 378 180 391 181 406C182 414 165 514 147 525C146 525 144 527 142 528C131 535 114 546 95 542C90 541 86 539 82 537C69 529 38 507 24 479C16 462 12 303 131 168C249 35 394 29 416 34H419C448 45 473 73 483 85C500 106 488 131 481 145z" />
    <glyph glyph-name="pin"
      unicode="&#xF197;"
      horiz-adv-x="512" d=" M321 544L290 449L195 355L164 386L69 355L164 260L132 229L2 34L195 166L227 197L177 247L321 103L353 197L321 229L416 323L510 355z" />
    <glyph glyph-name="play"
      unicode="&#xF198;"
      horiz-adv-x="512" d=" M436 468C337 568 175 568 76 468C-24 369 -24 207 76 108C175 8 337 8 436 108C536 207 536 369 436 468zM298 214L171 139V437L298 362L426 288z" />
    <glyph glyph-name="plugins"
      unicode="&#xF199;"
      horiz-adv-x="512" d=" M176 438L80 320C45 272 64 198 125 147S266 96 301 141L397 262zM297 522L329 496L256 404L223 429zM416 430L449 404L376 311L343 337zM64 86L80 74L134 144L125 147L118 154z" />
    <glyph glyph-name="plus"
      unicode="&#xF19A;"
      horiz-adv-x="512" d=" M469 543H43C20 543 1 524 1 501V75C1 52 20 33 43 33H469C492 33 511 52 511 75V501C511 524 492 543 469 543zM426 245H299V118H213V245H86V331H213V458H299V331H426z" />
    <glyph glyph-name="pre"
      unicode="&#xF19B;"
      horiz-adv-x="512" d=" M2 160V413H22C26 413 29 410 30 406L33 384C41 394 51 401 61 407S83 416 97 416C107 416 117 414 126 410S142 399 149 391C155 383 160 373 163 361S168 335 168 320C168 306 166 293 162 281C159 269 153 258 146 250C139 241 131 234 121 229S99 221 86 221C75 221 65 223 57 227C48 231 41 236 35 244V160zM35 269C41 261 48 255 55 252S70 247 79 247C97 247 110 253 120 266C129 278 134 296 134 320C134 332 133 343 131 351C128 360 125 368 121 373C117 379 112 383 106 386C100 388 93 390 86 390C75 390 65 387 57 382S42 370 35 361zM207 224V413H226C230 413 232 412 233 411C235 409 236 407 236 404L239 375C245 388 253 398 263 405C272 412 283 416 296 416C301 416 306 415 310 414C315 413 318 411 322 409L318 386C317 383 315 381 312 381C310 381 308 382 304 383S295 385 289 385C277 385 268 381 260 375C252 368 246 358 240 345V224zM344 322C344 335 346 348 350 359S360 380 367 389C375 397 384 404 395 408C406 413 419 416 432 416C444 416 454 414 463 410C473 406 481 401 488 393C495 386 501 377 504 367C508 356 510 345 510 331C510 326 510 322 509 321C508 319 505 318 502 318H377C377 306 379 296 382 287S389 271 394 265S406 255 413 252S428 248 437 248C445 248 453 249 459 251S470 255 474 257S482 261 485 263S490 266 492 266C495 266 497 265 499 263L508 251C504 246 499 241 493 237C488 234 481 231 475 228C468 226 462 224 455 223S441 221 434 221C421 221 409 223 398 228C387 232 377 239 369 247C361 256 355 266 351 279C346 291 344 306 344 322zM378 339H481C481 347 480 354 478 360C475 367 472 372 468 377S459 385 453 388C447 390 441 392 433 392C417 392 404 387 395 378C386 368 380 355 378 339z" />
    <glyph glyph-name="presentation"
      unicode="&#xF19C;"
      horiz-adv-x="512" d=" M77 257C82 255 86 257 88 262L108 320L154 250L201 323L249 245L293 382C294 386 292 390 287 392C283 393 279 391 277 386L244 283L201 353L154 279L104 356L72 267C71 263 73 258 77 257zM304 512V544H240V512H16V192H240V131L113 32H145L240 97V96H304V97L399 32H431L304 131V192H496V512zM464 224H48V440H464zM421 358C421 335 402 316 378 316C355 316 336 335 336 358S355 400 378 400C402 400 421 381 421 358zM336 288H368V256H336zM400 288H432V256H400z" />
    <glyph glyph-name="preview"
      unicode="&#xF19D;"
      horiz-adv-x="512" d=" M124 178V164C208 25 403 25 486 164V178C403 317 208 317 124 178zM305 87C259 87 222 125 222 171S259 254 305 254C352 254 389 217 389 171S352 87 305 87zM347 171C347 148 328 129 305 129S264 148 264 171S282 213 305 213S347 194 347 171zM430 425L312 544H37V32H164V78H83V498H293L384 406V315H430V425z" />
    <glyph glyph-name="print"
      unicode="&#xF19E;"
      horiz-adv-x="512" d=" M480 352H416V411L316 512H96V352H32L0 320V160H96V64H416V160H512V320zM64 288H32V320H64zM384 192V96H128V256H384zM384 352H128V480H288V384H384zM475 200H445V248H475zM352 192H160V224H352zM352 128H160V160H352z" />
    <glyph glyph-name="priority"
      unicode="&#xF19F;"
      horiz-adv-x="512" d=" M256 432C212 432 176 396 176 352S212 272 256 272S336 308 336 352S300 432 256 432zM416 352C416 363 415 373 413 383L439 411L401 419C392 438 380 455 364 469L369 507L334 491C316 501 296 508 275 510L256 544L237 510C216 508 196 501 178 491L143 507L148 469C132 455 120 438 111 419L73 411L99 383C97 373 96 363 96 352S97 331 99 321L73 293L111 285C120 266 132 249 148 235L153 230L128 32L256 160L384 32L359 230L364 235C380 249 392 266 401 285L439 293L413 321C415 331 416 341 416 352zM256 240C194 240 144 290 144 352S194 464 256 464S368 414 368 352S318 240 256 240z" />
    <glyph glyph-name="project-types"
      unicode="&#xF1A0;"
      horiz-adv-x="512" d=" M426 425L308 544H33V32H211V78H79V498H289L380 406V312H426V425zM262 194L370 140L477 194L370 247zM370 120L303 153L262 140L370 86L477 140L439 154zM370 66L303 99L262 86L370 32L477 86L439 100z" />
    <glyph glyph-name="projects"
      unicode="&#xF1A1;"
      horiz-adv-x="512" d=" M0 416L256 288L512 416L256 544zM256 241L98 320L0 288L256 160L512 288L422 322zM256 113L98 192L0 160L256 32L512 160L422 194z" />
    <glyph glyph-name="publish"
      unicode="&#xF1A2;"
      horiz-adv-x="512" d=" M256 542C115 542 1 428 1 288S115 34 256 34S511 148 511 288S397 542 256 542zM358 176C358 174 358 171 356 169V170C344 161 344 135 329 129C321 125 322 136 325 140C330 146 323 150 326 156C323 157 320 164 320 167C323 168 325 170 325 169C326 170 330 177 330 178C331 172 323 161 326 156C327 156 327 156 329 158C329 155 329 152 331 149C327 163 341 163 348 172C350 175 354 184 357 185C359 183 359 180 358 177C359 179 358 177 358 176zM429 340C424 349 420 363 412 369C414 367 414 365 413 362C409 363 405 366 403 369C403 371 407 367 405 372C398 371 393 378 388 382C379 383 369 375 359 380C357 382 355 389 351 385C349 383 347 383 345 383C334 387 329 396 320 396C320 392 327 386 330 384C334 382 337 371 338 380C344 377 339 369 348 372C355 369 353 380 355 383C357 382 358 377 359 375C363 372 368 373 371 370C375 366 378 359 377 354C373 355 376 350 373 346C371 342 371 341 369 337C365 336 359 334 360 328C357 324 329 304 325 310S320 326 316 333C310 335 299 349 297 354C298 364 273 382 269 383C272 370 283 363 288 353C293 344 301 324 307 322C319 323 325 303 331 299C339 293 355 311 362 309C362 300 362 297 359 287C354 266 344 257 332 241C325 231 320 224 315 214C311 205 323 188 320 183C322 170 318 162 306 155C298 150 290 145 293 136C296 126 284 125 283 119C279 111 274 106 268 103C264 102 260 102 256 102C249 102 241 103 234 103C224 115 214 128 204 140C198 147 189 160 199 169C200 175 193 189 189 194C184 203 159 222 169 233C170 239 164 246 164 252C159 256 154 246 149 255C143 264 133 262 125 256C123 255 100 251 98 253C81 268 76 293 82 313C84 322 84 337 91 343C94 352 104 361 109 368C112 372 117 372 120 376C126 382 128 389 135 395C141 400 156 409 144 411C148 418 156 426 159 434C163 437 171 436 176 438C180 447 181 446 180 452C181 455 191 458 194 458C198 460 202 464 206 467C222 471 239 474 256 474C349 474 426 406 440 318C436 326 432 336 429 340zM253 452C254 452 254 453 255 454C249 452 252 458 247 452C248 447 242 443 245 438C250 433 256 441 262 442C262 438 274 439 276 438C273 439 277 439 276 438C287 445 253 452 253 452zM244 419C244 422 241 422 239 426C244 431 236 428 240 434C238 435 236 435 233 434C232 430 235 431 230 432C229 428 234 426 233 422C233 423 232 423 231 423C230 420 231 421 231 417C223 418 227 424 221 432C227 437 209 446 211 449C199 445 221 432 218 429C212 432 216 428 213 424C207 418 208 416 200 419C200 425 215 419 208 432C204 437 201 445 195 440C188 436 177 434 172 425C169 422 149 406 149 405C157 399 188 424 195 416C195 411 189 407 189 402C191 401 192 399 194 399C204 401 202 394 209 392C222 389 212 391 220 399C222 401 236 401 237 397C237 400 243 398 237 397C243 398 249 392 254 396C257 400 259 399 262 397C273 389 269 420 269 422C266 419 243 417 244 419zM195 424C193 423 192 423 191 423C192 426 196 438 199 438C199 434 195 428 195 424zM195 424C195 427 193 424 195 424zM293 452C294 453 294 456 296 456C294 464 286 457 286 452C289 448 302 442 303 438C300 437 304 428 309 428C312 425 316 425 320 426C319 434 299 449 293 452zM309 428C305 428 311 426 309 428zM318 451C315 452 312 459 309 460C308 458 308 458 308 457C308 458 309 455 308 457C309 455 315 448 318 451zM179 440C178 439 177 439 176 438H175C177 438 178 441 179 440z" />
    <glyph glyph-name="pulldown-up"
      unicode="&#xF1A3;"
      horiz-adv-x="512" d=" M512 160L256 416L0 160z" />
    <glyph glyph-name="pulldown"
      unicode="&#xF1A4;"
      horiz-adv-x="512" d=" M0 416L256 160L512 416z" />
    <glyph glyph-name="quote"
      unicode="&#xF1A5;"
      horiz-adv-x="512" d=" M160 32V163C69 178 0 257 0 352C0 458 86 544 192 544H320C426 544 512 458 512 352C512 250 432 166 331 160zM192 480C121 480 64 423 64 352S121 224 192 224H224V160L309 224H320C391 224 448 281 448 352S391 480 320 480z" />
    <glyph glyph-name="quote2"
      unicode="&#xF1A6;"
      horiz-adv-x="512" d=" M1 272C1 429 90 483 219 489L237 407C172 399 141 369 141 319H226V91H1zM275 272C275 429 364 483 493 489L511 407C446 399 415 369 415 319H500V91H275z" />
    <glyph glyph-name="redo"
      unicode="&#xF1A7;"
      horiz-adv-x="512" d=" M424 348C414 373 398 395 379 415C337 457 281 480 222 480S107 457 65 415S0 318 0 258C0 199 23 143 65 102C72 95 81 92 89 92C98 92 107 95 113 102C127 115 127 137 113 150C84 179 68 217 68 258S84 338 113 367S181 412 222 412S301 396 330 367C352 345 366 319 372 289L299 207H512V446z" />
    <glyph glyph-name="relation-follows"
      unicode="&#xF1A8;"
      horiz-adv-x="512" d=" M160 369.1H497.3V143.6999999999999H160V369.0999999999999z M180.4 348.8H476.9V294H180.4V348.8z M5.7 283.1L103.6 283.9L103.6 237L5.6 237 M165.8 256.2000000000001C130.6 231.5 87.1 189.5 60.2 144.8V367.5C87.1 323.1 130.6 280.9 165.8 256.2000000000001z" />
    <glyph glyph-name="relation-new-child"
      unicode="&#xF1A9;"
      horiz-adv-x="512" d=" M170 374.2000000000001H507.3V148.8H170V374.2z M190.4 353.9H486.9V299.1H190.4V353.9z M15.7 288.2000000000001L113.6 289L113.6 242.1L15.6 242.1 M175.8 261.3C140.6 236.6 97.1 194.6 70.2 149.9V372.6C97.1 328.2000000000001 140.6 286 175.8 261.3z M43.8 445.4L44.5 242.6L6.6 242.6L6.6 445.6" />
    <glyph glyph-name="relation-precedes"
      unicode="&#xF1AA;"
      horiz-adv-x="512" d=" M287.1 293.6 M221 343.3L222 342.3L223 342.3L222 343.3z M35 374.4H361.2V156.4H35V374.4z M54.7 354.8H341.4V301.8H54.7V354.8z M352 291.2000000000001L446.6 292L446.6 246.6L351.9 246.6 M506.8 265.2000000000001C472.8 241.3000000000001 430.7000000000001 200.7000000000001 404.7000000000001 157.5V372.9C430.7 329.9 472.8 289.1 506.8 265.2000000000001z" />
    <glyph glyph-name="reload"
      unicode="&#xF1AB;"
      horiz-adv-x="512" d=" M295 504C192 504 107 432 85 336L2 337L114 156L230 335L153 336C173 395 229 438 294 438C377 438 444 370 444 288C444 205 377 138 294 138C264 138 236 148 212 163L176 108C210 86 251 72 294 72C413 72 510 169 510 288S413 504 295 504z" />
    <glyph glyph-name="reminder"
      unicode="&#xF1AC;"
      horiz-adv-x="512" d=" M250 387C324 387 383 327 383 253C383 180 324 120 250 120S116 180 116 253C116 327 176 387 250 387M250 454C139 454 50 364 50 253C50 143 139 53 250 53S450 143 450 253C450 364 361 454 250 454zM239 244C230 244 223 251 223 260V294C223 303 230 310 239 310C249 310 256 303 256 294V260C256 251 249 244 239 244zM294 200C290 200 286 201 283 204L229 247C222 253 220 263 226 271C232 278 243 279 250 273L304 230C311 224 312 214 307 206C303 202 298 200 294 200zM491 362C520 407 515 467 476 506S377 550 332 521zM21 362C-8 407 -3 467 36 506S135 550 180 521zM442 41C435 35 425 35 418 41L371 88C364 95 364 106 371 112C377 119 388 119 394 112L442 65C448 58 448 48 442 41zM70 41C77 35 87 35 94 41L141 88C148 95 148 106 141 112C135 119 124 119 118 112L70 65C64 58 64 48 70 41z" />
    <glyph glyph-name="remove"
      unicode="&#xF1AD;"
      horiz-adv-x="512" d=" M451 36L4 483L61 540L508 93zM507 483L60 36L4 92L451 539z" />
    <glyph glyph-name="rename"
      unicode="&#xF1AE;"
      horiz-adv-x="512" d=" M448 352L512 416L448 480H288V544H224V480H96V352H224V320H64L0 256L64 192H224V32H288V192H416V320H288V352z" />
    <glyph glyph-name="reported-by-me"
      unicode="&#xF1AF;"
      horiz-adv-x="512" d=" M478 109C468 123 437 133 406 146C376 159 368 163 368 163V194S380 203 383 231C390 229 398 242 398 249C399 256 397 274 389 272C390 286 392 299 391 305C389 330 365 355 329 355S270 330 268 305C267 299 268 286 270 272C261 274 260 256 260 249C261 242 268 229 276 231C279 203 291 194 291 194L290 163S283 159 252 146C222 133 190 123 181 109C173 95 175 32 175 32H483S486 95 478 109zM185 202C186 205 187 209 187 213S186 221 185 224C183 228 181 231 179 234C176 236 173 238 169 240C166 241 162 242 158 242C155 242 152 241 149 240C146 238 143 236 141 234C139 231 137 228 136 224C135 221 134 217 134 213S135 205 136 202C137 198 139 195 141 193C143 190 146 188 149 187C152 185 155 184 158 184C162 184 166 185 169 187C173 188 176 190 179 193C181 195 183 198 185 202zM138 321C139 309 140 297 142 285H175C177 298 178 309 180 321C181 332 181 343 181 355V465H136V355C136 343 136 332 138 321zM74 498H284L389 393L422 425L303 544H28V32H108V78H74z" />
    <glyph glyph-name="roadmap"
      unicode="&#xF1B0;"
      horiz-adv-x="512" d=" M381 117C369 103 345 92 327 92H33C15 92 0 106 0 124V452C0 469 15 484 33 484H327C345 484 369 473 381 459L502 313C514 299 514 277 502 263z" />
    <glyph glyph-name="rss"
      unicode="&#xF1B1;"
      horiz-adv-x="512" d=" M138 102C138 64 108 34 70 34C33 34 2 64 2 102C2 139 33 170 70 170C108 170 138 139 138 102zM336 38H246C245 102 220 161 175 207C130 252 70 277 6 278V368C187 365 333 219 336 38zM510 38H421C418 266 234 450 7 453V542C283 540 507 315 510 38z" />
    <glyph glyph-name="rubber"
      unicode="&#xF1B2;"
      horiz-adv-x="512" d=" M503 50C503 41 496 33 486 33H45C36 33 28 41 28 50S36 67 45 67H486C496 67 503 59 503 50zM477 393L339 532C332 539 323 543 315 543C306 543 297 540 291 533L19 261C5 248 5 226 19 213L97 130C110 116 136 101 155 101H207C226 101 252 116 265 130L477 344C490 357 490 380 477 393zM237 154C231 147 217 135 207 135H155C145 135 128 147 121 154L43 234L166 359L303 222z" />
    <glyph glyph-name="save"
      unicode="&#xF1B3;"
      horiz-adv-x="512" d=" M256 160H192V96H256zM0 544V32H448L512 96V544zM352 64H160V192H352zM416 288H96V512H416z" />
    <glyph glyph-name="search"
      unicode="&#xF1B4;"
      horiz-adv-x="512" d=" M497 98L361 222C361 223 361 223 360 223C386 256 401 297 401 342C401 452 311 541 201 541S2 452 2 342S91 143 201 143C241 143 278 155 309 175C310 173 311 171 313 170L448 46C463 32 483 31 493 42L504 54C514 65 511 85 497 98zM201 195C120 195 54 261 54 342S120 489 201 489C283 489 348 423 348 342S283 195 201 195z" />
    <glyph glyph-name="send-mail"
      unicode="&#xF1B5;"
      horiz-adv-x="512" d=" M164 388L308 516H20zM325 496C325 498 325 501 324 503L222 413L322 325C324 328 325 331 325 334zM3 504C2 501 2 499 2 496V334C2 331 3 329 4 326L105 413zM207 399L163 361L120 399L21 314H304zM254 60L129 201C116 215 119 236 135 248C152 259 175 257 188 242L252 171L442 403C454 418 478 421 495 411C511 400 515 379 503 364z" />
    <glyph glyph-name="server-key"
      unicode="&#xF1B6;"
      horiz-adv-x="512" d=" M511 280C506 300 491 325 471 334C461 339 450 342 439 345L406 344C395 340 385 336 375 331C347 315 340 281 338 253C338 245 342 238 344 230C206 86 236 157 203 47L256 32C283 63 264 47 322 69L321 103L340 121L359 104L394 140L376 156L399 181L423 177C438 180 455 182 469 188C495 198 504 226 512 248C511 259 513 270 511 280zM454 269C448 263 438 262 432 268C425 274 425 283 431 289C437 296 447 296 453 290S460 275 454 269zM46 498H347V413H394V544H0V32H132V78H46zM101 291H287V260H101zM102 352H288V320H102zM102 413H288V381H102z" />
    <glyph glyph-name="settings"
      unicode="&#xF1B7;"
      horiz-adv-x="512" d=" M482 338H411C407 351 401 364 394 376L441 423C452 434 452 452 441 463L421 483C410 494 392 494 381 483L333 435C320 443 306 448 291 452V514C291 530 279 542 263 542H235C219 542 207 530 207 514V452C190 448 175 441 161 433L121 473C110 484 92 484 81 473L61 453C50 442 50 424 61 413L102 372C93 357 87 341 83 323H30C14 323 2 311 2 295V267C2 251 14 239 30 239H87C92 222 100 206 110 192L71 153C60 142 60 124 71 113L91 93C102 82 120 82 131 93L174 136C188 129 204 124 221 121V62C221 46 233 34 249 34H277C293 34 305 46 305 62V128C320 133 333 140 345 149L391 103C402 92 420 92 431 103L451 123C462 134 462 152 451 163L401 213C407 225 412 239 415 253H482C498 253 510 265 510 281V309C510 325 498 338 482 338zM249 217C210 217 178 249 178 288S210 359 249 359S320 327 320 288S288 217 249 217z" />
    <glyph glyph-name="settings2"
      unicode="&#xF1B8;"
      horiz-adv-x="512" d=" M332 243H283C280 252 276 261 271 269L304 301C311 309 311 321 304 329L290 342C282 350 270 350 262 342L230 310C221 315 211 319 201 321V364C201 375 192 383 181 383H162C151 383 143 375 143 364V321C131 318 121 314 111 308L84 336C76 343 64 343 56 336L43 322C35 314 35 302 43 294L71 266C65 256 60 245 58 233H21C11 233 2 224 2 213V194C2 183 11 175 21 175H60C64 163 69 152 76 142L50 116C42 108 42 96 50 88L63 75C71 67 83 67 91 75L120 104C130 99 141 96 152 94V53C152 43 161 34 172 34H191C202 34 211 43 211 53V99C220 102 230 107 238 113L269 82C277 74 289 74 297 82L310 95C318 103 318 115 310 123L276 157C280 166 284 175 286 184H332C343 184 351 193 351 204V223C351 234 343 243 332 243zM172 160C145 160 123 182 123 209C123 235 145 257 172 257S220 235 220 209C220 182 199 160 172 160zM498 453H467C465 459 462 464 459 469L480 490C485 495 485 503 480 507L471 516C466 521 458 521 454 516L433 495C427 498 421 501 414 503V530C414 537 409 542 402 542H390C383 542 377 537 377 530V503C370 501 364 498 357 494L340 512C335 517 327 517 322 512L314 503C309 498 309 490 314 486L332 468C328 461 325 454 323 446H300C293 446 288 441 288 434V422C288 415 293 409 300 409H325C327 402 331 395 335 389L318 372C313 367 313 359 318 355L327 346C332 341 340 341 344 346L363 365C369 361 376 359 384 358V332C384 325 389 320 396 320H408C415 320 421 325 421 332V361C427 363 433 366 438 370L458 350C463 345 471 345 475 350L484 359C489 364 489 372 484 376L462 398C465 404 467 409 468 416H498C505 416 510 421 510 428V440C510 447 505 453 498 453zM396 400C379 400 365 414 365 431S379 462 396 462S427 448 427 431S413 400 396 400z" />
    <glyph glyph-name="settings3"
      unicode="&#xF1B9;"
      horiz-adv-x="512" d=" M504 447L436 380L361 396L345 471L413 539C402 541 391 543 380 544C309 544 251 486 251 415C251 400 254 386 259 372L27 142C-1 115 -4 73 19 49C43 25 85 28 113 56L347 288C348 289 348 290 349 290C358 288 369 286 379 286C450 286 508 343 508 414C508 426 506 437 504 447z" />
    <glyph glyph-name="settings4"
      unicode="&#xF1BA;"
      horiz-adv-x="512" d=" M444 476V100H68V476H444M512 544H0V32H512zM171 169H137V407H171zM273 169H239V407H273zM375 169H341V407H375zM205 356C205 347 197 339 188 339H119C110 339 102 347 102 356C102 366 110 373 119 373H188C197 373 205 366 205 356zM307 254C307 244 300 237 290 237H222C212 237 205 244 205 254C205 263 212 271 222 271H290C300 271 307 263 307 254zM410 322C410 313 402 305 393 305H324C315 305 307 313 307 322C307 332 315 339 324 339H393C402 339 410 332 410 322z" />
    <glyph glyph-name="shortcuts"
      unicode="&#xF1BB;"
      horiz-adv-x="512" d=" M457 32H55C25 32 0 57 0 87V489C0 519 25 544 55 544H457C487 544 512 519 512 489V87C512 57 487 32 457 32zM55 512C42 512 32 502 32 489V87C32 74 42 64 55 64H457C470 64 480 74 480 87V489C480 502 470 512 457 512zM118 117C114 116 106 113 96 113C73 113 58 129 58 152S74 193 99 193C107 193 114 190 118 189L115 178C112 180 106 181 99 181C81 181 72 169 72 153C72 135 83 124 98 124C106 124 111 126 115 128zM153 213V191H173V180H153V139C153 130 155 124 163 124C167 124 169 125 171 125L172 115C169 114 165 113 160 113C153 113 148 115 145 119C141 123 139 130 139 139V180H127V191H139V209zM188 167V191H200V176H201C204 186 213 193 222 193C224 193 225 192 226 192V179C225 179 223 180 221 180C211 180 204 172 203 162C202 160 202 158 202 155V115H188zM240 227H254V115H240zM318 198V161H354V152H318V115H308V152H272V161H308V198z" />
    <glyph glyph-name="show-all-projects"
      unicode="&#xF1BC;"
      horiz-adv-x="512" d=" M160 480H512V416H160zM160 320H512V256H160zM160 160H512V96H160zM0 496H96V400H0zM0 336H96V240H0zM0 176H96V80H0z" />
    <glyph glyph-name="show-more"
      unicode="&#xF1BD;"
      horiz-adv-x="512" d=" M326 448C326 413 298 384 262 384C227 384 198 413 198 448S227 512 262 512C298 512 326 483 326 448zM326 282C326 246 298 218 262 218C227 218 198 246 198 282C198 317 227 346 262 346C298 346 326 317 326 282zM326 112C326 77 298 48 262 48C227 48 198 77 198 112S227 176 262 176C298 176 326 147 326 112z" />
    <glyph glyph-name="sort-ascending"
      unicode="&#xF1BE;"
      horiz-adv-x="512" d=" M256 544L182 415H330zM240 415H272V32H240z" />
    <glyph glyph-name="sort-by"
      unicode="&#xF1BF;"
      horiz-adv-x="512" d=" M363 544L289 415H437zM347 415H379V32H347zM149 32L75 161H223zM133 544H165V161H133z" />
    <glyph glyph-name="sort-descending"
      unicode="&#xF1C0;"
      horiz-adv-x="512" d=" M256 32L182 161H330zM240 544H272V161H240z" />
    <glyph glyph-name="sort-down"
      unicode="&#xF1C1;"
      horiz-adv-x="512" d=" M256 33L31 423H481zM31 543H481V485H31z" />
    <glyph glyph-name="sort-up"
      unicode="&#xF1C2;"
      horiz-adv-x="512" d=" M256 543L31 153H481zM31 91H481V33H31z" />
    <glyph glyph-name="square"
      unicode="&#xF1C3;"
      horiz-adv-x="512" d=" M437 213L361 163V88L437 37L512 88V163zM437 115L382 152L437 189L492 152zM393 539L302 478V386L393 325L485 386V478zM393 420L326 464L393 509L460 464zM158 405L0 300V142L158 37L315 142V300zM158 201L43 277L158 354L273 277z" />
    <glyph glyph-name="star"
      unicode="&#xF1C4;"
      horiz-adv-x="512" d=" M256 530L319 349L511 345L358 229L413 46L256 155L99 46L154 229L1 345L193 349z" />
    <glyph glyph-name="status-reporting"
      unicode="&#xF1C5;"
      horiz-adv-x="512" d=" M374 201V253L448 354H374V405L448 506H374V508C374 528 355 544 331 544H180C156 544 137 528 137 508V506H63L137 405V354H63L137 253V201H63L137 101V68C137 48 156 33 180 33H331C355 33 374 48 374 68V101L448 201zM324 287C324 250 294 220 257 220S190 250 190 287S220 354 257 354S324 324 324 287zM324 439C324 402 294 372 257 372S190 402 190 439S220 506 257 506S324 476 324 439zM257 67C220 67 190 97 190 134S220 201 257 201S324 171 324 134S294 67 257 67z" />
    <glyph glyph-name="status"
      unicode="&#xF1C6;"
      horiz-adv-x="512" d=" M256 480C115 480 0 365 0 224V96H512V224C512 365 397 480 256 480zM254 416C272 416 286 402 286 384C286 376 283 368 277 362S263 352 254 352C237 352 223 366 222 383C222 402 236 416 254 416zM65 182H63C53 183 46 187 40 194C35 201 32 209 33 217C35 234 49 246 65 246H69C77 245 85 241 90 234S98 219 97 210C95 194 82 182 65 182zM124 282C117 273 107 268 97 268C91 268 84 270 79 274C72 278 67 285 66 294C64 302 66 311 71 318C80 332 101 336 115 327C130 316 133 297 124 282zM180 333C176 331 171 329 165 329C154 329 143 336 137 346C129 362 134 381 150 389C165 398 186 391 194 376S196 342 180 333zM256 112C230 112 208 134 208 160S230 208 256 208S304 186 304 160S282 112 256 112zM353 352L304 202C292 215 275 224 256 224C253 224 250 223 248 223L323 365C331 381 344 391 351 388S359 369 353 352zM387 284C382 291 380 300 381 308C383 317 387 324 394 329C409 339 429 335 439 321C444 315 446 306 444 298C443 290 438 282 431 277C426 273 419 271 413 271C402 271 393 276 387 284zM463 181C458 177 451 175 445 175C434 175 425 180 419 188C414 195 412 204 413 212C415 221 419 228 426 233C441 243 461 239 471 225C476 219 478 210 476 202C475 194 470 186 463 181z" />
    </font>
</defs>
</svg>
