<svg width="24" height="24" viewBox="0 0 24 24" fill="none" xmlns="http://www.w3.org/2000/svg">
<path d="M8.8 10.0769H15.2V11.6154H8.8V10.0769ZM18.48 10.8462H20C20 8.72308 18.208 7 16 7H12.8V8.46154H16C17.368 8.46154 18.48 9.53077 18.48 10.8462ZM5.52 10.8462C5.52 9.53077 6.632 8.46154 8 8.46154H11.2V7H8C5.792 7 4 8.72308 4 10.8462C4 12.9692 5.792 14.6923 8 14.6923H11.2V13.2308H8C6.632 13.2308 5.52 12.1615 5.52 10.8462ZM17.6 10.8462H16V13.1538H13.6V14.6923H16V17H17.6V14.6923H20V13.1538H17.6V10.8462Z" fill="black"/>
</svg>
