<svg width="24" height="24" viewBox="0 0 24 24" fill="none" xmlns="http://www.w3.org/2000/svg">
<path fill-rule="evenodd" clip-rule="evenodd" d="M10.6351 5.36531C10.2803 5.36531 9.94003 5.50915 9.68914 5.7652C9.43825 6.02124 9.2973 6.36852 9.2973 6.73062V10.8265C9.2973 11.1887 9.43825 11.5359 9.68914 11.792C9.94003 12.048 10.2803 12.1919 10.6351 12.1919H18.6622C19.017 12.1919 19.3573 12.048 19.6082 11.792C19.859 11.5359 20 11.1887 20 10.8265V6.73062C20 6.36852 19.859 6.02124 19.6082 5.7652C19.3573 5.50915 19.017 5.36531 18.6622 5.36531H17.8782C17.5234 5.36523 17.1832 5.22134 16.9323 4.96527L16.3785 4.40004C16.1276 4.14397 15.7874 4.00008 15.4326 4H13.8647C13.5099 4.00008 13.1697 4.14397 12.9188 4.40004L12.365 4.96527C12.1141 5.22134 11.7739 5.36523 11.4191 5.36531H10.6351ZM10.9696 6.73062C10.8809 6.73062 10.7958 6.69466 10.7331 6.63065C10.6704 6.56664 10.6351 6.47982 10.6351 6.38929C10.6351 6.29877 10.6704 6.21195 10.7331 6.14794C10.7958 6.08393 10.8809 6.04796 10.9696 6.04796C11.0583 6.04796 11.1434 6.08393 11.2061 6.14794C11.2688 6.21195 11.3041 6.29877 11.3041 6.38929C11.3041 6.47982 11.2688 6.56664 11.2061 6.63065C11.1434 6.69466 11.0583 6.73062 10.9696 6.73062ZM16.9899 8.43726C16.9899 9.07094 16.7432 9.67866 16.3041 10.1267C15.8651 10.5748 15.2696 10.8265 14.6486 10.8265C14.0277 10.8265 13.4322 10.5748 12.9932 10.1267C12.5541 9.67866 12.3074 9.07094 12.3074 8.43726C12.3074 7.80358 12.5541 7.19585 12.9932 6.74777C13.4322 6.29969 14.0277 6.04796 14.6486 6.04796C15.2696 6.04796 15.8651 6.29969 16.3041 6.74777C16.7432 7.19585 16.9899 7.80358 16.9899 8.43726ZM16.321 8.43727C16.321 8.8899 16.1448 9.32399 15.8312 9.64404C15.5175 9.9641 15.0922 10.1439 14.6487 10.1439C14.2052 10.1439 13.7798 9.9641 13.4662 9.64404C13.1526 9.32399 12.9764 8.8899 12.9764 8.43727C12.9764 7.98464 13.1526 7.55055 13.4662 7.2305C13.7798 6.91044 14.2052 6.73063 14.6487 6.73063C15.0922 6.73063 15.5175 6.91044 15.8312 7.2305C16.1448 7.55055 16.321 7.98464 16.321 8.43727ZM5.10328 9.9853C4.49396 9.9853 4 10.4793 4 11.0886C4 11.6979 4.49396 12.1919 5.10328 12.1919H7.00483C7.61415 12.1919 8.10811 11.6979 8.10811 11.0886C8.10811 10.4793 7.61415 9.9853 7.00483 9.9853H5.10328ZM6.05408 14.7294C6.05408 14.1201 6.54803 13.6261 7.15736 13.6261H15.2433L13.8311 14.8526C13.1034 15.4847 12.172 15.8327 11.2082 15.8327H7.15736C6.54803 15.8327 6.05408 15.3387 6.05408 14.7294ZM16.5367 14.9161C16.7478 14.7007 17.09 14.7007 17.3011 14.9161L18.8981 16.5459C19.1092 16.7613 19.1092 17.1106 18.8981 17.326L17.3011 18.9558C17.09 19.1712 16.7478 19.1712 16.5367 18.9558L14.9397 17.326C14.7286 17.1106 14.7286 16.7613 14.9397 16.5459L16.5367 14.9161ZM17.9127 14.292C17.3638 13.7319 16.474 13.7319 15.9251 14.292L14.3281 15.9218C13.7793 16.4819 13.7793 17.39 14.3281 17.9501L15.9251 19.5799C16.474 20.14 17.3638 20.14 17.9127 19.5799L19.5096 17.9501C20.0585 17.39 20.0585 16.4819 19.5096 15.9218L17.9127 14.292Z" fill="black"/>
</svg>
