<svg width="24" height="24" viewBox="0 0 24 24" fill="none" xmlns="http://www.w3.org/2000/svg">
<path d="M17.2375 10.7459C17.2375 6.67915 15.05 5.29585 13.0042 4.98752C13.0042 4.96666 13.0083 4.94584 13.0083 4.92083C13.0083 4.40835 12.5542 4 12 4C11.4458 4 11.0083 4.40832 11.0083 4.92083C11.0083 4.94584 11.0083 4.96666 11.0125 4.98752C8.96249 5.3 6.76249 6.68751 6.76249 10.7541C6.76249 15.4958 5.58332 16.0042 4 17.3375H20C18.425 16 17.2375 15.4875 17.2375 10.7458V10.7459ZM12.0083 20C13.125 20 14.0417 19.1709 14.1625 18.2083H9.85417C9.97084 19.1709 10.8917 20 12.0083 20Z" fill="black"/>
</svg>
