<svg width="24" height="24" viewBox="0 0 24 24" fill="none" xmlns="http://www.w3.org/2000/svg">
<path fill-rule="evenodd" clip-rule="evenodd" d="M5.5 12.0011C5.5 8.41065 8.41065 5.5 12.0011 5.5C13.5261 5.5 14.9284 6.02507 16.0372 6.90428L7.12006 15.8214C7.04116 15.9003 6.98351 15.9925 6.94712 16.0907C6.04215 14.9737 5.5 13.5507 5.5 12.0011ZM7.91149 17.055C9.0285 17.9601 10.4515 18.5022 12.0011 18.5022C15.5916 18.5022 18.5022 15.5916 18.5022 12.0011C18.5022 10.4761 17.9771 9.07373 17.0979 7.96494L8.18072 16.8821C8.10181 16.961 8.0097 17.0187 7.91149 17.055ZM12.0011 4C7.58222 4 4 7.58222 4 12.0011C4 16.42 7.58222 20.0022 12.0011 20.0022C16.42 20.0022 20.0022 16.42 20.0022 12.0011C20.0022 7.58222 16.42 4 12.0011 4Z" fill="black"/>
</svg>
