<svg width="24" height="24" viewBox="0 0 24 24" fill="none" xmlns="http://www.w3.org/2000/svg">
<path fill-rule="evenodd" clip-rule="evenodd" d="M12 15.9298L17 18.658V6C17 5.73478 16.8946 5.48043 16.7071 5.29289C16.5196 5.10536 16.2652 5 16 5H8C7.73478 5 7.48043 5.10536 7.29289 5.29289C7.10536 5.48043 7 5.73478 7 6V18.658L12 15.9298ZM18 19.5V6C18 5.46957 17.7893 4.96086 17.4142 4.58579C17.0391 4.21071 16.5304 4 16 4H8C7.46957 4 6.96086 4.21071 6.58579 4.58579C6.21071 4.96086 6 5.46957 6 6V19.5C5.99994 19.5868 6.02248 19.6722 6.06542 19.7476C6.10836 19.8231 6.17022 19.8861 6.24489 19.9304C6.31957 19.9747 6.40449 19.9988 6.49131 20.0003C6.57812 20.0018 6.66383 19.9807 6.74 19.939L12 17.069L17.26 19.939C17.3362 19.9807 17.4219 20.0018 17.5087 20.0003C17.5955 19.9988 17.6804 19.9747 17.7551 19.9304C17.8298 19.8861 17.8916 19.8231 17.9346 19.7476C17.9775 19.6722 18.0001 19.5868 18 19.5Z" fill="black"/>
</svg>
