<svg width="24" height="24" viewBox="0 0 24 24" fill="none" xmlns="http://www.w3.org/2000/svg">
<path d="M10.651 19V17.7137H9.33333V19H10.651ZM9.33333 17.7137V16.4573H7.98431V17.7137H9.33333ZM6.66667 5V6.28632H7.98431V5H6.66667ZM13.349 19H14.6667V17.7137H13.349V19ZM14.6667 17.7137H16.0157V16.4573H14.6667V17.7137ZM18.6824 12.6282V11.3718H17.3333V7.54274H16.0157V6.28632H14.6667V7.54274H9.33333V6.28632H7.98431V7.54274H6.66667V11.3718H5.31765V12.6282H4V16.4573H5.31765V13.9145H6.66667V16.4573H7.98431V15.1709H16.0157V16.4573H17.3333V13.9145H18.6824V16.4573H20V12.6282H18.6824ZM7.98431 12.6282V10.0855H9.33333V12.6282H7.98431ZM14.6667 12.6282V10.0855H16.0157V12.6282H14.6667ZM17.3333 5H16.0157V6.28632H17.3333V5Z" fill="black"/>
</svg>
