<svg width="24" height="24" viewBox="0 0 24 24" fill="none" xmlns="http://www.w3.org/2000/svg">
<path d="M17.3125 9.06818C16.8125 9.40909 16.125 9.85227 15.7188 10.125C15.3125 10.3636 15 10.0909 15 9.51136V7.09091C15 6.47727 14.5625 6 14 6H5C4.4375 6 4 6.47727 4 7.09091V16.9091C4 17.5227 4.4375 18 5 18H14C14.5625 18 15 17.5227 15 16.9091V14.4545C15 13.8409 15.3125 13.5682 15.7188 13.8409C16.125 14.1136 16.8125 14.5568 17.3125 14.8636L19.1562 16.0909C19.625 16.3977 20 16.1591 20 15.5455V13.0568V8.42045C20 7.80682 19.625 7.56818 19.1562 7.875L17.3125 9.06818Z" fill="black"/>
</svg>
