<svg width="24" height="24" viewBox="0 0 24 24" fill="none" xmlns="http://www.w3.org/2000/svg">
<path d="M8.47244 7.19368C5.85827 8.07905 4 10.5138 4 13.4229C4 17.0593 6.92913 20 10.5197 20C12.6929 20 14.5827 18.9249 15.7795 17.3123L9.98425 13.9921L8.47244 7.19368ZM14.3307 4.47431C13.5433 4.18972 12.6929 4 11.811 4C11.0236 4 10.2677 4.12648 9.5748 4.37945L11.2126 11.7787L14.3307 4.47431ZM15.4331 6.24506L12.1575 13.6126L18.6142 17.3123C19.4961 16.1107 20 14.6245 20 13.0119C20 9.94466 18.1102 7.32016 15.4331 6.24506Z" fill="black"/>
</svg>
