<svg width="14" height="16" viewBox="0 0 512 512" fill="none" xmlns="http://www.w3.org/2000/svg">
<path d="M12.7273 1.18509H9.84295C9.48539 0.812286 9.04732 0.514013 8.5574 0.30979C8.06748 0.105567 7.53676 0 7 0C6.46324 0 5.93252 0.105567 5.4426 0.30979C4.95268 0.514013 4.51461 0.812286 4.15705 1.18509H1.27273C0.935179 1.18509 0.611456 1.30995 0.372773 1.53222C0.13409 1.75449 0 2.05595 0 2.37028V14.8148C0 15.1291 0.13409 15.4306 0.372773 15.6529C0.611456 15.8751 0.935179 16 1.27273 16H12.7273C13.0648 16 13.3885 15.8751 13.6272 15.6529C13.8659 15.4306 14 15.1291 14 14.8148V2.37028C14 2.05595 13.8659 1.75449 13.6272 1.53222C13.3885 1.30995 13.0648 1.18509 12.7273 1.18509ZM7 1.18509C7.6751 1.18509 8.32254 1.43482 8.79991 1.87936C9.27727 2.32389 9.54545 2.92681 9.54545 3.55547H4.45455C4.45455 2.92681 4.72273 2.32389 5.20009 1.87936C5.67746 1.43482 6.3249 1.18509 7 1.18509ZM12.7273 14.8148H1.27273V2.37028H3.40057C3.25581 2.75089 3.18183 3.1517 3.18182 3.55547V4.14807C3.18182 4.30524 3.24886 4.45596 3.3682 4.5671C3.48755 4.67823 3.64941 4.74067 3.81818 4.74067H10.1818C10.3506 4.74067 10.5125 4.67823 10.6318 4.5671C10.7511 4.45596 10.8182 4.30524 10.8182 4.14807V3.55547C10.8182 3.1517 10.7442 2.75089 10.5994 2.37028H12.7273V14.8148Z" fill="black"/>
</svg>
