<svg width="24" height="24" viewBox="0 0 24 24" fill="none" xmlns="http://www.w3.org/2000/svg">
<path d="M4 5V19H20V5H4ZM19 18H5V6H19V18ZM6 7V17H18V7H6ZM10.4688 10.4062L8.15625 12C8.0625 12.0625 7.96875 12.0625 7.875 12.0625C7.71875 12.0625 7.5625 12 7.46875 11.8438C7.3125 11.625 7.375 11.3125 7.59375 11.1562L9.25 10.0312L7.625 9C7.375 8.84375 7.3125 8.5625 7.4375 8.3125C7.59375 8.0625 7.90625 8 8.125 8.15625L10.4375 9.5625C10.5938 9.65625 10.6562 9.8125 10.6875 9.96875C10.6875 10.1562 10.5938 10.3125 10.4688 10.4062ZM15 11H12V10H15V11Z" fill="black"/>
</svg>
