<svg width="24" height="24" viewBox="0 0 24 24" fill="none" xmlns="http://www.w3.org/2000/svg">
<path d="M17.0794 14.25C16.4444 14.25 15.873 14.4688 15.3968 14.7812L9.84127 11.9688L15.3333 9.15625C15.8095 9.53125 16.4127 9.75 17.0794 9.75C18.6984 9.75 20 8.4375 20 6.875C20 5.28125 18.6984 4 17.0794 4C15.4603 4 14.1587 5.28125 14.1587 6.875V6.96875L8.66667 9.78125C8.19048 9.40625 7.5873 9.1875 6.92063 9.1875C5.30159 9.1875 4 10.4688 4 12.0625C4 13.6562 5.30159 14.9375 6.92063 14.9375C7.65079 14.9375 8.31746 14.6562 8.8254 14.2188L14.1587 16.9688V17.125C14.1587 18.7188 15.4603 20 17.0794 20C18.6984 20 20 18.7188 20 17.125C20 15.5625 18.6984 14.25 17.0794 14.25Z" fill="black"/>
</svg>
