<svg width="24" height="24" viewBox="0 0 24 24" fill="none" xmlns="http://www.w3.org/2000/svg">
<path d="M4 7H5V19H4V7ZM8 7H9V19H8V7ZM5 18H8V19H5V18ZM5 16H8V17H5V16ZM5 14H8V15H5V14ZM5 12H8V13H5V12ZM5 10H8V11H5V10ZM5 7H8V9H5V7ZM6 7H7V19H6V7ZM10 8H11V19H10V8ZM11 18H14V19H11V18ZM11 16H14V17H11V16ZM11 14H14V15H11V14ZM11 12H14V13H11V12ZM11 10H14V11H11V10ZM11 8H14V9H11V8ZM13 8H14V19H13V8ZM15 5H16V19H15V5ZM19 5H20V19H19V5ZM16 18H19V19H16V18ZM16 16H19V17H16V16ZM16 14H19V15H16V14ZM16 12H19V13H16V12ZM16 10H19V11H16V10ZM16 5H19V7H16V5ZM17 7H18V19H17V7ZM16 8H19V9H16V8Z" fill="black"/>
</svg>
