<svg width="24" height="24" viewBox="0 0 24 24" fill="none" xmlns="http://www.w3.org/2000/svg">
<path fill-rule="evenodd" clip-rule="evenodd" d="M12 20C16.4183 20 20 16.4183 20 12C20 7.58172 16.4183 4 12 4C7.58172 4 4 7.58172 4 12C4 16.4183 7.58172 20 12 20ZM7.61406 8H9.67112C9.80299 8 9.89575 8.12948 9.85314 8.25408L9.08692 10.4944C9.06034 10.5721 8.98718 10.6244 8.90491 10.6244H6.30055C6.15198 10.6244 6.05951 10.4633 6.13456 10.3353L7.44808 8.09502C7.48258 8.03617 7.54576 8 7.61406 8ZM14.4114 8H16.4665C16.5342 8 16.5969 8.03552 16.6316 8.09353L17.9725 10.3338C18.0491 10.4618 17.9567 10.6244 17.8074 10.6244H15.205C15.1235 10.6244 15.0508 10.5731 15.0236 10.4964L14.2301 8.25605C14.1858 8.1311 14.2786 8 14.4114 8ZM10.7524 8H13.1699C13.2514 8 13.3241 8.05129 13.3513 8.128L14.1448 10.3683C14.1891 10.4933 14.0963 10.6244 13.9635 10.6244H10.0135C9.88254 10.6244 9.78987 10.4965 9.83084 10.3723L10.5697 8.13197C10.5957 8.05322 10.6693 8 10.7524 8ZM15.0525 11.4885H17.7585C17.9176 11.4885 18.0079 11.6703 17.9116 11.7967L13.4909 17.6013C13.3616 17.771 13.0929 17.6353 13.1533 17.4307L14.868 11.6262C14.8922 11.5445 14.9672 11.4885 15.0525 11.4885ZM10.0118 11.4885H13.9714C14.1019 11.4885 14.1945 11.6155 14.1544 11.7395L12.1747 17.8669C12.1173 18.0444 11.8659 18.0444 11.8086 17.8669L9.82879 11.7395C9.78873 11.6155 9.88135 11.4885 10.0118 11.4885ZM6.19269 11.4885H8.89867C8.98394 11.4885 9.05903 11.5445 9.08315 11.6262L10.7978 17.4307C10.8583 17.6353 10.5896 17.771 10.4602 17.6013L6.03958 11.7967C5.9433 11.6703 6.03361 11.4885 6.19269 11.4885Z" fill="black"/>
</svg>
