<svg width="24" height="24" viewBox="0 0 24 24" fill="none" xmlns="http://www.w3.org/2000/svg">
<path fill-rule="evenodd" clip-rule="evenodd" d="M12 4C7.58173 4 4 7.58173 4 12C4 16.4183 7.58173 20 12 20C16.4183 20 20 16.4183 20 12C20 7.58173 16.4183 4 12 4ZM5.33333 12C5.33333 8.3181 8.3181 5.33333 12 5.33333C15.6819 5.33333 18.6667 8.3181 18.6667 12C18.6667 15.0002 16.6848 17.5375 13.9588 18.3742C14.0333 17.0269 14.0077 16.1924 13.8822 15.8706C13.7496 15.5309 13.6416 15.3916 13.5768 15.3081C13.5344 15.2534 13.5105 15.2227 13.5105 15.1752C13.5105 15.0952 13.5668 15.0372 13.6795 15.0012C14.6618 14.7841 15.3205 14.1804 15.6555 13.1902C16.1198 11.8182 15.457 10.8205 15.1889 10.4169C15.1668 10.3835 15.1473 10.3543 15.1314 10.3292C14.923 10 15.1961 9.19897 15.5223 8.5579C14.413 8.33553 13.9894 8.85088 13.7464 9.14644C13.6472 9.26716 13.5781 9.35122 13.5047 9.33336C13.4392 9.31742 13.3687 9.28641 13.284 9.2492C13.042 9.14279 12.6847 8.98573 12.0001 8.98573C11.1511 8.98573 10.5886 9.28227 10.5026 9.32761C10.495 9.33161 10.4911 9.33336 10.4911 9.33336C10.0449 8.71143 9.41117 8.45296 8.58997 8.5579C8.81617 9.46173 8.83317 10.0521 8.64097 10.3292C8.3527 10.7447 7.81233 11.7113 8.23183 13.1902C8.6513 14.6691 10.1785 15.0012 10.4692 15.0012C10.4692 15.0012 10.4701 15.0014 10.4711 15.0017C10.4942 15.0066 10.7081 15.0528 10.6439 15.2336C10.6313 15.2816 10.6229 15.3471 10.6135 15.4209C10.5832 15.6575 10.542 15.9794 10.3149 16.084C10.0172 16.2212 9.3602 16.2961 9.08543 16.1248C8.99388 16.0678 8.92811 15.9484 8.8489 15.8047C8.69035 15.517 8.47794 15.1315 7.8971 14.9522C7.02603 14.6832 7.08061 15.0388 7.29802 15.1261C7.34589 15.1453 7.40934 15.1633 7.48176 15.1838C7.7382 15.2564 8.10722 15.361 8.29637 15.6653C8.35184 15.7545 8.40892 15.8523 8.46724 15.9522C8.66397 16.2892 8.87478 16.6504 9.08543 16.7889C9.26747 16.9086 9.7038 16.9565 10.3944 16.9327C10.3644 17.5845 10.3483 18.0936 10.3463 18.46C7.46434 17.7244 5.33333 15.1111 5.33333 12Z" fill="black"/>
</svg>
