<svg width="24" height="24" viewBox="0 0 24 24" fill="none" xmlns="http://www.w3.org/2000/svg">
<path d="M4.92517 10.3874L12 19L4.2515 13.6525C4.14727 13.5806 4.06969 13.4792 4.02987 13.3628C3.99005 13.2464 3.99004 13.1211 4.02984 13.0047L4.92517 10.3874Z" fill="black"/>
<path d="M12 19L9.05418 10.3874H14.946L12 19Z" fill="black"/>
<path d="M4.92517 10.3874L6.69954 5.20017C6.79079 4.93328 7.18829 4.93328 7.27954 5.20017L9.05418 10.3874L4.92517 10.3874Z" fill="black"/>
<path d="M19.0748 10.3874L19.9702 13.0047C20.01 13.1211 20.0099 13.2464 19.9701 13.3628C19.9303 13.4792 19.8527 13.5806 19.7485 13.6525L12 19L19.0748 10.3874Z" fill="black"/>
<path d="M19.0748 10.3874L14.946 10.3874L16.7205 5.20017C16.8118 4.93328 17.2093 4.93328 17.3005 5.20017L19.0748 10.3874Z" fill="black"/>
</svg>
