<svg width="24" height="24" viewBox="0 0 24 24" fill="none" xmlns="http://www.w3.org/2000/svg">
<path d="M18 7.84615V16.1538H6V7.84615H18ZM20 6H4V18H20V6ZM11.25 9.92308C11.25 10.6731 10.5625 11.3077 9.75 11.3077C8.90625 11.3077 8.25 10.6731 8.25 9.92308C8.25 9.14423 8.90625 8.53846 9.75 8.53846C10.5625 8.53846 11.25 9.14423 11.25 9.92308ZM7 15.2308H17V11.8846L15.4062 9.23077L13.2812 13.5288L12 12.3173C12 12.3173 10.25 12.9231 9.65625 13.8462C8.75 13.3846 8.25 13.8462 8.25 13.8462L7 15.2308Z" fill="black"/>
</svg>
