<svg width="24" height="24" viewBox="0 0 24 24" fill="none" xmlns="http://www.w3.org/2000/svg">
<path d="M20 12.502C20 9.45882 18.0251 6.8549 15.2469 5.69412V8.42353C16.5858 9.36471 17.4561 10.8392 17.4561 12.502C17.4561 15.3255 15.0126 17.6471 12 17.6471C8.98745 17.6471 6.54393 15.3255 6.54393 12.502C6.54393 10.8392 7.41423 9.36471 8.75314 8.42353V5.66275C5.9749 6.8549 4 9.45882 4 12.502C4 16.6431 7.58159 20 12 20C16.4184 20 20 16.6431 20 12.502ZM13.6402 13.1294C13.6402 13.7255 13.1381 14.1961 12.5021 14.1961H11.4979C10.8619 14.1961 10.3598 13.7255 10.3598 13.1294V5.06667C10.3598 4.47059 10.8619 4 11.4979 4H12.5021C13.1381 4 13.6402 4.47059 13.6402 5.06667V13.1294Z" fill="black"/>
</svg>
