<svg width="24" height="24" viewBox="0 0 24 24" fill="none" xmlns="http://www.w3.org/2000/svg">
<path d="M12 13.3125L19.1562 7.03125C19.0938 7 19.0625 7 19 7H4.9375L12 13.3125ZM20 8C20 7.875 19.9688 7.75 19.9375 7.65625L14.9062 12.0938L19.875 16.4688C19.9688 16.3125 20 16.1562 20 16V8ZM4.09375 7.59375C4.03125 7.71875 4 7.84375 4 8V16C4 16.125 4.03125 16.2812 4.09375 16.4062L9.125 12.0938L4.09375 7.59375ZM14.1562 12.7812L12 14.6562L9.875 12.75L4.96875 16.9688L5 17H18.9688L14.1562 12.7812Z" fill="black"/>
</svg>
