<svg width="24" height="24" viewBox="0 0 24 24" fill="none" xmlns="http://www.w3.org/2000/svg">
<path fill-rule="evenodd" clip-rule="evenodd" d="M13.9771 5.99012C14.5131 5.45098 15.2402 5.1481 15.9983 5.1481C16.3738 5.14795 16.7456 5.22222 17.0926 5.36667C17.4395 5.51112 17.7547 5.72291 18.0203 5.98995C18.2858 6.25699 18.4964 6.57403 18.64 6.92296C18.7836 7.27189 18.8575 7.64586 18.8573 8.02351V8.02581C18.8567 8.17851 18.7958 8.32472 18.688 8.43227C18.6346 8.48552 18.5714 8.52768 18.5018 8.55633C18.4322 8.58499 18.3577 8.59958 18.2825 8.59928C18.2073 8.59898 18.133 8.58379 18.0636 8.55457C17.9943 8.52536 17.9313 8.48269 17.8784 8.42901C17.8254 8.37534 17.7835 8.31169 17.755 8.24172C17.7265 8.17175 17.712 8.09682 17.7123 8.02121V6.87196C17.7134 6.75777 17.6805 6.64585 17.6178 6.55061C17.5552 6.45537 17.4656 6.38117 17.3607 6.33754C17.2557 6.29392 17.1402 6.28286 17.029 6.30581C16.9177 6.32875 16.8159 6.38464 16.7365 6.46628C16.4565 6.33198 16.1456 6.27657 15.8369 6.30598C15.5281 6.33539 15.233 6.4485 14.9832 6.63327C14.7333 6.81803 14.5379 7.06752 14.4179 7.35515C14.2979 7.64278 14.2578 7.95777 14.3017 8.26654C14.3457 8.57532 14.4721 8.86631 14.6676 9.10851C14.863 9.3507 15.1201 9.53502 15.4115 9.64183C15.7029 9.74864 16.0177 9.77392 16.3223 9.715C16.6268 9.65607 16.9098 9.51513 17.141 9.30721C17.3875 9.5298 17.6929 9.67575 18.0203 9.72741C18.3476 9.77906 18.6827 9.73421 18.9852 9.59827C19.2877 9.46233 19.5446 9.24113 19.7246 8.96144C19.9047 8.68176 20.0004 8.35557 20 8.02236C19.9998 7.22668 19.765 6.44894 19.3253 5.78745C18.8856 5.12596 18.2608 4.61044 17.5299 4.30605C16.7989 4.00167 15.9946 3.92208 15.2187 4.07737C14.4427 4.23265 13.73 4.61583 13.1706 5.17846C12.6112 5.74109 12.2302 6.4579 12.0758 7.23828C11.9214 8.01866 12.0005 8.82755 12.3032 9.56271C12.6058 10.2979 13.1184 10.9263 13.7761 11.3685C14.4338 11.8106 15.2071 12.0468 15.9983 12.047C16.4544 12.047 16.907 11.966 17.3352 11.808C17.4078 11.7839 17.4748 11.7454 17.5323 11.6949C17.5898 11.6443 17.6366 11.5826 17.67 11.5135C17.7034 11.4444 17.7227 11.3693 17.7267 11.2926C17.7308 11.2159 17.7194 11.1391 17.6935 11.0668C17.6675 10.9946 17.6273 10.9283 17.5755 10.8719C17.5236 10.8156 17.461 10.7702 17.3913 10.7386C17.3217 10.707 17.2465 10.6897 17.1701 10.6878C17.0938 10.686 17.0178 10.6995 16.9467 10.7277C16.6416 10.8392 16.3342 10.8978 15.9983 10.8978C15.2402 10.8978 14.5131 10.5949 13.9771 10.0557C13.441 9.51661 13.1398 8.78539 13.1398 8.02293C13.1398 7.26048 13.441 6.52925 13.9771 5.99012ZM15.5943 8.42983C15.4871 8.32206 15.4269 8.17591 15.4269 8.02351C15.4269 7.87111 15.4871 7.72495 15.5943 7.61719C15.7014 7.50943 15.8468 7.44889 15.9983 7.44889C16.1498 7.44889 16.2951 7.50943 16.4023 7.61719C16.5094 7.72495 16.5696 7.87111 16.5696 8.02351C16.5696 8.17591 16.5094 8.32206 16.4023 8.42983C16.2951 8.53759 16.1498 8.59813 15.9983 8.59813C15.8468 8.59813 15.7014 8.53759 15.5943 8.42983Z" fill="black"/>
<path d="M11.7223 5.15039H6.85673C6.09908 5.15039 5.37246 5.45309 4.83672 5.99191C4.30098 6.53072 4 7.26151 4 8.0235V13.7697C4.0003 14.5315 4.30141 15.262 4.83712 15.8006C5.37283 16.3391 6.09928 16.6417 6.85673 16.6417H7.42808V18.8747C7.42826 19.0909 7.49034 19.3025 7.60689 19.4843C7.72345 19.666 7.88956 19.8101 8.08538 19.8994C8.2812 19.9888 8.49844 20.0195 8.71116 19.988C8.92388 19.9564 9.12308 19.864 9.28496 19.7217L12.785 16.6417H17.141C17.8986 16.6417 18.6253 16.339 19.161 15.8002C19.6967 15.2614 19.9977 14.5306 19.9977 13.7686V11.2747C19.1666 12.3123 17.9693 12.9872 16.6555 13.1588C15.3418 13.3303 14.0128 12.9853 12.9458 12.1956C11.8787 11.4059 11.1559 10.2325 10.928 8.92C10.7 7.60746 10.9846 6.2571 11.7223 5.15039Z" fill="black"/>
</svg>
