<svg width="24" height="24" viewBox="0 0 24 24" fill="none" xmlns="http://www.w3.org/2000/svg">
<path fill-rule="evenodd" clip-rule="evenodd" d="M13.8182 5L11.2727 6.36585L11.2713 17.5648V19L13.8182 17.9756V5ZM10.5455 8.7561L10.4545 8.76677L10.2727 8.79078L10.1832 8.80412L10.0952 8.81745L9.91619 8.8468L9.82955 8.8628L9.74148 8.87881L9.65483 8.89615L9.56818 8.91482L9.48295 8.9335L9.22727 8.99352L9.14347 9.01486L9.06108 9.03754L8.97727 9.06021L8.89631 9.08155L8.81392 9.1069L8.73295 9.13091L8.65341 9.15625L8.57244 9.18159L8.4929 9.20827L8.41477 9.23495L8.33523 9.26296L8.2571 9.29097L8.1804 9.32031L8.10227 9.34832L8.02699 9.379L7.9517 9.40835L7.88636 9.43636C7.88352 9.43769 7.88068 9.43902 7.87642 9.43902V9.44036C7.87358 9.44169 7.87074 9.44303 7.8679 9.44436L7.80256 9.47104L7.72869 9.50305L7.65483 9.5364L7.58381 9.56974L7.43892 9.63643L7.36932 9.67245L7.2983 9.70713L7.15909 9.77915L7.09091 9.8165L6.95739 9.8912L6.89062 9.92988L6.82528 9.96723L6.75994 10.0059L6.6946 10.0473L6.63068 10.0859L6.50568 10.1686L6.4446 10.2087L6.38352 10.2513L6.32244 10.2927L6.26278 10.3354L6.20455 10.378L6.14489 10.4221L5.97443 10.5541L5.86364 10.6448L5.80966 10.6902L5.75568 10.7369L5.65057 10.8302L5.59943 10.8769L5.54972 10.9236L5.45028 11.0196L5.40199 11.0676L5.35511 11.117L5.30682 11.1663L5.21591 11.2651L5.17187 11.3157L5.12784 11.3651L5.04261 11.4665L5 11.5185L4.96023 11.5678L4.88068 11.6719L4.84233 11.7239L4.8054 11.7759L4.76847 11.8293L4.73295 11.8813L4.66193 11.988L4.62926 12.04L4.59659 12.0934L4.56534 12.1481L4.50284 12.2548L4.47443 12.3095L4.44602 12.3628L4.41761 12.4175L4.39063 12.4735L4.36506 12.5282L4.34091 12.5816L4.31534 12.6376L4.29261 12.6936L4.26989 12.7483L4.24716 12.8043L4.22727 12.859L4.1875 12.971L4.17045 13.0257L4.15341 13.0831L4.13636 13.1378L4.12074 13.1951L4.10653 13.2498L4.09375 13.3072L4.07955 13.3632L4.06818 13.4192L4.05682 13.4766L4.03125 13.6446L4.02273 13.702L4.01705 13.7593L4.01136 13.814L4.00852 13.8714L4.00426 13.9274L4.00284 13.9848L4 14.0408V14.1555L4.00284 14.2142L4.00426 14.2729L4.0071 14.3302L4.01136 14.3876L4.02841 14.5596L4.03693 14.617L4.04403 14.673L4.05398 14.7304L4.06392 14.7864L4.07386 14.8438L4.08665 14.8984L4.09943 14.9545L4.12784 15.0665L4.14205 15.1212L4.19318 15.2853L4.21165 15.3399L4.25142 15.4466L4.27273 15.5L4.34091 15.6601L4.41761 15.8161L4.47159 15.9202L4.50142 15.9695L4.53125 16.0215L4.56108 16.0709L4.59233 16.1229L4.625 16.1723L4.65625 16.2216L4.72443 16.3203L4.75994 16.3697L4.79545 16.4177L4.86932 16.5137L4.90767 16.5604L4.94744 16.6084L4.98722 16.6538L5.02841 16.7005L5.06818 16.7471L5.1108 16.7925L5.15483 16.8392L5.19886 16.8832L5.2429 16.9285L5.28835 16.9726L5.33523 17.0166L5.38068 17.0606L5.42898 17.1046L5.52557 17.19L5.67898 17.314L5.72443 17.35C5.72585 17.3514 5.72869 17.354 5.73011 17.3554H5.73153L5.73864 17.3607L5.78409 17.3954L5.83807 17.4367L5.89205 17.4754L5.94744 17.5154L6.00284 17.5541L6.05966 17.5928L6.17614 17.6702L6.2358 17.7075L6.35511 17.7795L6.47727 17.8516L6.53977 17.8862L6.60369 17.9223L6.66051 17.9516C6.66335 17.9529 6.66477 17.9543 6.66761 17.9556H6.66903C6.67045 17.9569 6.6733 17.9583 6.67614 17.9596L6.73295 17.9903L6.7983 18.0236L6.86364 18.0556L6.93182 18.0877L6.99858 18.1197L7.06676 18.1517L7.13636 18.1837L7.20597 18.213L7.27699 18.2424L7.34659 18.2731L7.41903 18.3011L7.49148 18.3304L7.56392 18.3584L7.63778 18.3864L7.86364 18.4665L7.94176 18.4918L8.01847 18.5158L8.09659 18.5412L8.17472 18.5652L8.25426 18.5892L8.33523 18.6105L8.41477 18.6332L8.49574 18.6559L8.57812 18.6772L8.66051 18.6972L8.82812 18.7372L8.91335 18.7559L8.99858 18.7759L9.08381 18.7933L9.2571 18.8279L9.43324 18.8599L9.52273 18.8733L9.61364 18.888L9.70312 18.9026L9.79545 18.916L9.88636 18.928L9.97869 18.9413L10.071 18.952L10.1648 18.9627L10.2599 18.9733L10.3537 18.9827L10.4489 18.9907L10.5455 19V16.9512C10.3722 16.9312 10.2045 16.9059 10.0398 16.8779C9.87642 16.8512 9.71875 16.8192 9.56392 16.7845C9.40909 16.7498 9.25994 16.7125 9.11506 16.6711C8.97017 16.6298 8.83097 16.5857 8.69602 16.5391C8.56108 16.4924 8.43182 16.4417 8.30682 16.3897C8.18182 16.3377 8.0625 16.2816 7.94886 16.2256C7.83381 16.1683 7.72443 16.1082 7.61932 16.0469C7.51563 15.9855 7.41761 15.9215 7.32386 15.8561C7.23438 15.7921 7.15057 15.7281 7.07102 15.6614L7.06108 15.6534L7.05114 15.6441C6.97301 15.5787 6.89915 15.5107 6.83097 15.4413C6.75994 15.3693 6.6946 15.2959 6.63494 15.2212C6.57386 15.1465 6.51989 15.0705 6.47159 14.9945C6.37642 14.8411 6.30256 14.685 6.25426 14.5263C6.23011 14.4476 6.21307 14.3689 6.20028 14.2902C6.20028 14.2889 6.20028 14.2889 6.19886 14.2875C6.1875 14.2075 6.18182 14.1275 6.18182 14.0488C6.18182 13.9661 6.19034 13.8834 6.20455 13.7994C6.21733 13.7167 6.23864 13.6326 6.26705 13.5486C6.29403 13.4646 6.32812 13.3805 6.3679 13.2965C6.40767 13.2125 6.45455 13.1284 6.5071 13.0457C6.55966 12.963 6.6179 12.879 6.68182 12.7976C6.74716 12.7163 6.81676 12.6349 6.89205 12.5549C6.96733 12.4735 7.0483 12.3948 7.13494 12.3175C7.22159 12.2401 7.3125 12.1641 7.40909 12.0907C7.50568 12.016 7.60653 11.9426 7.71307 11.872C7.8196 11.8026 7.92898 11.7332 8.04545 11.6679C8.16051 11.6025 8.27983 11.5385 8.40341 11.4771C8.52841 11.4158 8.65625 11.3571 8.78835 11.3024C8.92045 11.2477 9.05682 11.1957 9.19602 11.1463C9.33523 11.097 9.47869 11.0516 9.625 11.0103C9.77273 10.9689 9.9233 10.9303 10.0753 10.8956C10.2287 10.8609 10.3864 10.8316 10.5455 10.8049V8.7561ZM14.5455 8.7561V10.8049C14.7045 10.8302 14.8736 10.8689 15.0455 10.9169C15.2159 10.9663 15.3864 11.025 15.5511 11.0877C15.7145 11.1503 15.8693 11.2184 16.0071 11.2864C16.1463 11.3558 16.2685 11.4238 16.3636 11.4878L14.9091 12.5122L20 13.1951V9.09756L18.3636 10.122L18.3196 10.0913L18.2741 10.0619L18.2287 10.0312L18.1832 10.0019L18.1364 9.97256L18.0909 9.94322L18.044 9.91387L17.9957 9.88586L17.9489 9.85652L17.8991 9.82851L17.8523 9.8005L17.8011 9.77115L17.7528 9.74314L17.7031 9.71646L17.652 9.68979L17.6009 9.66178L17.4986 9.60842L17.4446 9.58308L17.3395 9.52973L17.2855 9.50438L17.2315 9.48037L17.1761 9.45503L17.1222 9.42969L17.0668 9.40701L17.0099 9.38167L16.9531 9.35899L16.8963 9.33498L16.7216 9.26696L16.6619 9.24562L16.6023 9.22294L16.5412 9.20293L16.4815 9.18159L16.4205 9.16025L16.2955 9.12024L16.233 9.10156L16.169 9.08155L16.1037 9.06288L16.0398 9.04421L15.9759 9.02687L15.9091 9.00819L15.8423 8.99085L15.7088 8.95884L15.6406 8.94284L15.5014 8.91082L15.4318 8.89615L15.3622 8.88281L15.2898 8.86814L15.2188 8.85614L15.1463 8.8428L15.0739 8.83079L14.9261 8.80678L14.8509 8.79478L14.7756 8.78411L14.6989 8.77477L14.6236 8.76543L14.5455 8.7561Z" fill="black"/>
</svg>
