<svg width="24" height="24" viewBox="0 0 24 24" fill="none" xmlns="http://www.w3.org/2000/svg">
<path d="M18.0938 10.4062H13.3125V6C13.3125 4.90625 12.4062 4 11.3125 4H6C4.90625 4 4 4.90625 4 6V11.2812C4 12.4062 4.90625 13.3125 6 13.3125H10.4062V18.0938C10.4062 19.125 11.2812 20 12.3438 20H18.0938C19.1562 20 20 19.125 20 18.0938V12.3438C20 11.2812 19.1562 10.4062 18.0938 10.4062ZM4.5 6C4.5 5.1875 5.1875 4.5 6 4.5H11.3125C12.125 4.5 12.8125 5.1875 12.8125 6V10.4062H12.3438C11.2812 10.4062 10.4062 11.2812 10.4062 12.3438V12.8125H6C5.1875 12.8125 4.5 12.125 4.5 11.2812V6ZM17.6875 15.75H15.7188V17.6562H14.5625V15.75H12.5938V14.5938H14.5625V12.5625H15.7188V14.5938H17.6875V15.75ZM6.125 8.09375H11.1875V9.21875H6.125V8.09375Z" fill="black"/>
</svg>
