<svg width="24" height="24" viewBox="0 0 24 24" fill="none" xmlns="http://www.w3.org/2000/svg">
<path d="M4 7C4 7.5625 4.4375 8 5 8H12C12.5625 8 13 7.5625 13 7C13 6.4375 12.5625 6 12 6H5C4.4375 6 4 6.4375 4 7ZM8 12C8 11.4375 7.5625 11 7 11H5C4.4375 11 4 11.4375 4 12C4 12.5625 4.4375 13 5 13H7C7.5625 13 8 12.5625 8 12ZM4 17C4 17.5625 4.4375 18 5 18H12C12.5625 18 13 17.5625 13 17C13 16.4375 12.5625 16 12 16H5C4.4375 16 4 16.4375 4 17ZM16 13V11H11V13H16ZM20 12L16 9V15L20 12Z" fill="black"/>
</svg>
