<svg width="24" height="24" viewBox="0 0 24 24" fill="none" xmlns="http://www.w3.org/2000/svg">
<path d="M6.03333 12.9688C6.2 13.0312 6.33333 12.9688 6.4 12.8125L7.06667 11L8.6 13.1875L10.1667 10.9062L11.7667 13.3438L13.2333 9.0625C13.2667 8.9375 13.2 8.8125 13.0333 8.75C12.9 8.71875 12.7667 8.78125 12.7 8.9375L11.6 12.1562L10.1667 9.96875L8.6 12.2812L6.93333 9.875L5.86667 12.6562C5.83333 12.7812 5.9 12.9375 6.03333 12.9688ZM13.6 5V4H11.4667V5H4V15H11.4667V16.9062L7.23333 20H8.3L11.4667 17.9688V18H13.6V17.9688L16.7667 20H17.8333L13.6 16.9062V15H20V5H13.6ZM18.9333 14H5.06667V7.25H18.9333V14ZM17.5 9.8125C17.5 10.5312 16.8667 11.125 16.0667 11.125C15.3 11.125 14.6667 10.5312 14.6667 9.8125C14.6667 9.09375 15.3 8.5 16.0667 8.5C16.8667 8.5 17.5 9.09375 17.5 9.8125ZM14.6667 12H15.7333V13H14.6667V12ZM16.8 12H17.8667V13H16.8V12Z" fill="black"/>
</svg>
