<svg width="24" height="24" viewBox="0 0 24 24" fill="none" xmlns="http://www.w3.org/2000/svg">
<path d="M16.8837 11.3667H7.11628C7.03876 11.3667 7 11.4111 7 11.5V12.5C7 12.5889 7.03876 12.6334 7.11628 12.6334H16.8837C16.9612 12.6334 17 12.5889 17 12.5V11.5C17 11.4111 16.9612 11.3667 16.8837 11.3667Z" fill="black"/>
<path fill-rule="evenodd" clip-rule="evenodd" d="M20 12C20 16.4183 16.4183 20 12 20C7.58172 20 4 16.4183 4 12C4 7.58172 7.58172 4 12 4C16.4183 4 20 7.58172 20 12ZM19 12C19 15.866 15.866 19 12 19C8.13401 19 5 15.866 5 12C5 8.13401 8.13401 5 12 5C15.866 5 19 8.13401 19 12Z" fill="black"/>
</svg>
