<svg width="24" height="24" viewBox="0 0 24 24" fill="none" xmlns="http://www.w3.org/2000/svg">
<path d="M20 4H18.5455V5.45454H20V4Z" fill="black"/>
<path d="M18.5455 6.90909H20V8.36363H18.5455V6.90909Z" fill="black"/>
<path d="M20 9.81818H18.5455V11.2727H20V9.81818Z" fill="black"/>
<path d="M18.5455 12.7272H20V14.1818H18.5455V12.7272Z" fill="black"/>
<path d="M20 15.6363H18.5455V17.0909H20V15.6363Z" fill="black"/>
<path d="M20 18.5454H18.5455V20H20V18.5454Z" fill="black"/>
<path d="M15.6364 18.5454H17.0909V20H15.6364V18.5454Z" fill="black"/>
<path d="M14.1818 18.5454H12.7273V20H14.1818V18.5454Z" fill="black"/>
<path d="M9.81818 18.5454H11.2727V20H9.81818V18.5454Z" fill="black"/>
<path d="M8.36363 18.5454H6.90909V20H8.36363V18.5454Z" fill="black"/>
<path d="M4 18.5454H5.45454V20H4V18.5454Z" fill="black"/>
<path d="M17.0909 15.6363H15.6364V17.0909H17.0909V15.6363Z" fill="black"/>
<path d="M12.7273 15.6363H14.1818V17.0909H12.7273V15.6363Z" fill="black"/>
<path d="M17.0909 12.7272H15.6364V14.1818H17.0909V12.7272Z" fill="black"/>
<path d="M15.6364 9.81818H17.0909V11.2727H15.6364V9.81818Z" fill="black"/>
<path d="M17.0909 6.90909H15.6364V8.36363H17.0909V6.90909Z" fill="black"/>
<path d="M12.7273 12.7272H14.1818V14.1818H12.7273V12.7272Z" fill="black"/>
<path d="M14.1818 9.81818H12.7273V11.2727H14.1818V9.81818Z" fill="black"/>
<path d="M9.81818 15.6363H11.2727V17.0909H9.81818V15.6363Z" fill="black"/>
<path d="M11.2727 12.7272H9.81818V14.1818H11.2727V12.7272Z" fill="black"/>
<path d="M6.90909 15.6363H8.36363V17.0909H6.90909V15.6363Z" fill="black"/>
</svg>
