<svg width="24" height="24" viewBox="0 0 24 24" fill="none" xmlns="http://www.w3.org/2000/svg">
<path fill-rule="evenodd" clip-rule="evenodd" d="M7.12009 8.8144C7.30386 8.62809 7.30386 8.32603 7.12009 8.13973C6.93631 7.95342 6.63835 7.95342 6.45457 8.13973L4.13783 10.4884C3.95406 10.6747 3.95406 10.9767 4.13783 11.163L6.45457 13.5116C6.63835 13.6979 6.93631 13.6979 7.12009 13.5116C7.30386 13.3253 7.30386 13.0233 7.12009 12.837L5.6067 11.3028H15.6923C17.5479 11.3028 19.0588 12.8875 19.0588 14.789V15.5229C19.0588 15.7864 19.2695 16 19.5294 16C19.7893 16 20 15.7864 20 15.5229V14.789C20 12.3844 18.0909 10.3486 15.6923 10.3486H5.60668L7.12009 8.8144Z" fill="black"/>
</svg>
