<svg width="24" height="24" viewBox="0 0 24 24" fill="none" xmlns="http://www.w3.org/2000/svg">
<path d="M14.0003 6.50031C14.0002 5.91375 14.2064 5.34583 14.5827 4.89593C14.9591 4.44602 15.4817 4.14278 16.059 4.03925C16.6364 3.93572 17.2318 4.03851 17.741 4.32962C18.2502 4.62073 18.6409 5.08162 18.8446 5.63167C19.0484 6.18172 19.0522 6.78589 18.8555 7.33849C18.6587 7.89108 18.274 8.3569 17.7685 8.65446C17.263 8.95201 16.669 9.06235 16.0903 8.96617C15.5117 8.86998 14.9853 8.5734 14.6033 8.12831L7.88527 11.2483C8.03971 11.7378 8.03971 12.2629 7.88527 12.7523L14.6033 15.8723C15.0071 15.4026 15.5709 15.0996 16.1855 15.022C16.8 14.9443 17.4215 15.0976 17.9294 15.452C18.4374 15.8065 18.7957 16.3369 18.9349 16.9404C19.0741 17.544 18.9843 18.1778 18.6829 18.7189C18.3814 19.26 17.8898 19.67 17.3033 19.8693C16.7169 20.0686 16.0773 20.0431 15.5085 19.7977C14.9398 19.5524 14.4824 19.1046 14.225 18.5412C13.9676 17.9778 13.9285 17.3389 14.1153 16.7483L7.39727 13.6283C7.0647 14.0159 6.62142 14.2923 6.12704 14.4204C5.63267 14.5485 5.11093 14.5221 4.632 14.3448C4.15308 14.1675 3.73994 13.8477 3.44817 13.4286C3.1564 13.0095 3 12.511 3 12.0003C3 11.4896 3.1564 10.9912 3.44817 10.572C3.73994 10.1529 4.15308 9.83315 4.632 9.65584C5.11093 9.47852 5.63267 9.45214 6.12704 9.58023C6.62142 9.70832 7.0647 9.98474 7.39727 10.3723L14.1153 7.25231C14.0388 7.00898 14 6.75538 14.0003 6.50031Z" fill="black"/>
</svg>
