<svg width="24" height="24" viewBox="0 0 24 24" fill="none" xmlns="http://www.w3.org/2000/svg">
<path d="M9.88925 7.36156C8.96417 7.36156 8.20847 6.60586 8.20847 5.68078C8.20847 4.7557 8.96417 4 9.88925 4C10.8143 4 11.57 4.7557 11.57 5.68078V7.36156H9.88925Z" fill="black"/>
<path d="M5.68078 15.7915C6.60586 15.7915 7.36156 15.0358 7.36156 14.1107V12.43H5.68078C4.7557 12.43 4 13.1857 4 14.1107C4 15.0358 4.7557 15.7915 5.68078 15.7915Z" fill="black"/>
<path d="M9.88925 12.43C8.96417 12.43 8.20847 13.1857 8.20847 14.1107V18.3192C8.20847 19.2443 8.96417 20 9.88925 20C10.8143 20 11.57 19.2443 11.57 18.3192V14.1107C11.57 13.1857 10.8143 12.43 9.88925 12.43Z" fill="black"/>
<path d="M11.57 9.88925C11.57 8.96417 10.8143 8.20847 9.88925 8.20847H5.68078C4.7557 8.20847 4 8.96417 4 9.88925C4 10.8143 4.7557 11.57 5.68078 11.57H9.88925C10.8143 11.57 11.57 10.8143 11.57 9.88925Z" fill="black"/>
<path d="M16.6384 9.88925C16.6384 8.96417 17.3941 8.20847 18.3192 8.20847C19.2443 8.20847 20 8.96417 20 9.88925C20 10.8143 19.2443 11.57 18.3192 11.57H16.6384V9.88925Z" fill="black"/>
<path d="M14.1107 11.57C15.0358 11.57 15.7915 10.8143 15.7915 9.88925V5.68078C15.7915 4.7557 15.0358 4 14.1107 4C13.1857 4 12.43 4.7557 12.43 5.68078V9.88925C12.43 10.8143 13.1857 11.57 14.1107 11.57Z" fill="black"/>
<path d="M14.1107 16.6384C15.0358 16.6384 15.7915 17.3941 15.7915 18.3192C15.7915 19.2443 15.0358 20 14.1107 20C13.1857 20 12.43 19.2443 12.43 18.3192V16.6384H14.1107Z" fill="black"/>
<path d="M12.43 14.1107C12.43 15.0358 13.1857 15.7915 14.1107 15.7915H18.3192C19.2443 15.7915 20 15.0358 20 14.1107C20 13.1857 19.2443 12.43 18.3192 12.43H14.1107C13.1857 12.43 12.43 13.1857 12.43 14.1107Z" fill="black"/>
</svg>
