<svg width="24" height="25" viewBox="0 0 24 25" fill="none" xmlns="http://www.w3.org/2000/svg">
<path fill-rule="evenodd" clip-rule="evenodd" d="M13.2429 5.68715C16.361 5.68715 18.9122 8.23834 18.9122 11.3564C18.9122 14.4746 16.361 17.0257 13.2429 17.0257C12.7405 17.0257 12.2528 16.9595 11.7881 16.8353L9.38679 18.3635C10.5312 18.9961 11.846 19.3564 13.2429 19.3564C17.6524 19.3564 21.2429 15.7659 21.2429 11.3564C21.2429 6.947 17.6524 3.35645 13.2429 3.35645C9.07573 3.35645 5.63994 6.56327 5.27497 10.6375L7.62718 12.1344C7.59187 11.8799 7.57362 11.6202 7.57362 11.3564C7.57362 8.23834 10.1248 5.68715 13.2429 5.68715ZM12.7705 10.632C12.7705 10.8307 12.8707 11.0044 13.0318 11.1055L15.9201 13.4037C16.0146 13.4982 16.1405 13.5297 16.2665 13.5297C16.4555 13.5297 16.613 13.4667 16.739 13.3092C16.9279 13.0572 16.8965 12.7108 16.6445 12.4903L13.9358 10.335V8.30133C13.9358 7.98637 13.6839 7.7029 13.3689 7.7029C13.0224 7.7029 12.7705 7.98637 12.7705 8.30133V10.632ZM2.75732 20.8998V10.718L10.7573 15.8089L2.75732 20.8998Z" fill="black"/>
</svg>
