<svg width="25" height="25" viewBox="0 0 25 25" fill="none" xmlns="http://www.w3.org/2000/svg">
<path fill-rule="evenodd" clip-rule="evenodd" d="M13.8667 5.96767C16.9848 5.96767 19.536 8.51885 19.536 11.637C19.536 14.7551 16.9848 17.3063 13.8667 17.3063C13.5427 17.3063 13.2248 17.2787 12.9153 17.2259V19.5807C13.2274 19.6178 13.5449 19.637 13.8667 19.637C18.2761 19.637 21.8667 16.0464 21.8667 11.637C21.8667 7.22751 18.2761 3.63696 13.8667 3.63696C9.66431 3.63696 6.20572 6.89822 5.89016 11.0215H8.23084C8.54009 8.19003 10.9565 5.96767 13.8667 5.96767ZM13.3943 10.9126C13.3943 11.1113 13.4945 11.2849 13.6556 11.386L16.5439 13.6842C16.6384 13.7787 16.7643 13.8102 16.8903 13.8102C17.0793 13.8102 17.2368 13.7472 17.3628 13.5897C17.5517 13.3378 17.5202 12.9913 17.2683 12.7708L14.5596 10.6155V8.58184C14.5596 8.26688 14.3076 7.98342 13.9927 7.98342C13.6462 7.98342 13.3943 8.26688 13.3943 8.58184V10.9126ZM3.43896 12.637V20.637H11.439V12.637H3.43896Z" fill="black"/>
</svg>
