<svg width="24" height="24" viewBox="0 0 24 24" fill="none" xmlns="http://www.w3.org/2000/svg">
<path d="M19 6C19 7.09375 15.875 8 12 8C8.125 8 5 7.09375 5 6C5 4.90625 8.125 4 12 4C15.875 4 19 4.90625 19 6ZM12 9C11.375 9 7 8.9375 5 7.59375V10C5 11.0938 8.125 12 12 12C15.875 12 19 11.0938 19 10V7.59375C17 8.9375 12.625 9 12 9ZM12 13C11.375 13 7 12.9375 5 11.5938V14C5 15.0938 8.125 16 12 16C15.875 16 19 15.0938 19 14V11.5938C17 12.9375 12.625 13 12 13ZM12 17C11.375 17 7 16.9375 5 15.5938V18C5 19.0938 8.125 20 12 20C15.875 20 19 19.0938 19 18V15.5938C17 16.9375 12.625 17 12 17Z" fill="black"/>
</svg>
