<svg width="24" height="24" viewBox="0 0 24 24" fill="none" xmlns="http://www.w3.org/2000/svg">
<path d="M8.95686 5.53846H20V7.69231H8.95686V5.53846ZM7.01177 6.61538C7.01177 7.52404 6.32157 8.23077 5.50588 8.23077C4.65882 8.23077 4 7.52404 4 6.61538C4 5.70673 4.65882 5 5.50588 5C6.32157 5 7.01177 5.70673 7.01177 6.61538ZM8.95686 10.9231H20V13.0769H8.95686V10.9231ZM7.01177 12C7.01177 12.9087 6.32157 13.6154 5.50588 13.6154C4.65882 13.6154 4 12.9087 4 12C4 11.0913 4.65882 10.3846 5.50588 10.3846C6.32157 10.3846 7.01177 11.0913 7.01177 12ZM8.95686 16.3077H20V18.4615H8.95686V16.3077ZM7.01177 17.3846C7.01177 18.2933 6.32157 19 5.50588 19C4.65882 19 4 18.2933 4 17.3846C4 16.476 4.65882 15.7692 5.50588 15.7692C6.32157 15.7692 7.01177 16.476 7.01177 17.3846Z" fill="black"/>
</svg>
