<svg width="200" height="200" viewBox="0 0 200 200" fill="none" xmlns="http://www.w3.org/2000/svg">
<path d="M89.4186 64.9338H8.75056C7.94871 64.9332 7.17985 64.6145 6.61286 64.0475C6.04586 63.4805 5.72709 62.7116 5.72656 61.9097V47.5557C5.72762 46.7541 6.04656 45.9855 6.61344 45.4186C7.18032 44.8517 7.94887 44.5328 8.75056 44.5317H89.4186C90.0577 44.5301 90.6806 44.7326 91.1966 45.1097L101.079 52.2857C101.465 52.566 101.78 52.9338 101.997 53.3592C102.214 53.7845 102.327 54.2552 102.327 54.7328C102.327 55.2103 102.214 55.681 101.997 56.1063C101.78 56.5317 101.465 56.8995 101.079 57.1797L91.2006 64.3578C90.6832 64.735 90.0588 64.9368 89.4186 64.9338ZM8.75056 45.9337C8.32001 45.9343 7.90725 46.1055 7.60281 46.41C7.29836 46.7144 7.12709 47.1272 7.12656 47.5577V61.9117C7.12709 62.3423 7.29836 62.7551 7.60281 63.0595C7.90725 63.364 8.32001 63.5352 8.75056 63.5357H89.4186C89.7621 63.5371 90.0971 63.4284 90.3746 63.2257L100.257 56.0497C100.464 55.8991 100.633 55.7015 100.749 55.4732C100.866 55.2448 100.926 54.9921 100.926 54.7357C100.926 54.4794 100.866 54.2267 100.749 53.9984C100.633 53.77 100.464 53.5724 100.257 53.4217L90.3726 46.2437C90.0956 46.0417 89.7614 45.9331 89.4186 45.9337H8.75056Z" fill="#0070BA"/>
<path d="M8.75 61.4456V48.0217C8.74974 47.9606 8.76155 47.9 8.78475 47.8435C8.80795 47.787 8.84209 47.7356 8.8852 47.6923C8.92831 47.649 8.97955 47.6146 9.03598 47.5912C9.0924 47.5677 9.1529 47.5557 9.214 47.5557H89.168C89.2623 47.5557 89.3541 47.5858 89.43 47.6417L98.764 54.3697C98.8211 54.4114 98.8674 54.4661 98.8994 54.5292C98.9314 54.5922 98.9481 54.6619 98.9481 54.7327C98.9481 54.8034 98.9314 54.8731 98.8994 54.9361C98.8674 54.9992 98.8211 55.0539 98.764 55.0957L89.43 61.8256C89.3539 61.8809 89.2621 61.9104 89.168 61.9096H9.214C9.09094 61.9096 8.97292 61.8608 8.88591 61.7737C8.79889 61.6867 8.75 61.5687 8.75 61.4456Z" fill="#0070BA"/>
<path d="M181.368 146.716H118.6C117.798 146.714 117.03 146.396 116.463 145.829C115.896 145.262 115.577 144.493 115.576 143.692V134.872C115.576 134.686 115.65 134.508 115.781 134.377C115.912 134.245 116.091 134.172 116.276 134.172C116.462 134.172 116.64 134.245 116.771 134.377C116.902 134.508 116.976 134.686 116.976 134.872V143.692C116.977 144.122 117.148 144.535 117.452 144.839C117.757 145.144 118.17 145.315 118.6 145.316H181.36C181.703 145.317 182.038 145.208 182.314 145.006L192.2 137.83C192.408 137.679 192.577 137.481 192.694 137.253C192.81 137.024 192.871 136.771 192.871 136.515C192.871 136.258 192.81 136.005 192.694 135.776C192.577 135.548 192.408 135.35 192.2 135.2L182.318 128.022C182.041 127.82 181.707 127.711 181.364 127.712H153.93C153.745 127.712 153.566 127.638 153.435 127.507C153.304 127.375 153.23 127.197 153.23 127.012C153.23 126.826 153.304 126.648 153.435 126.517C153.566 126.385 153.745 126.312 153.93 126.312H181.368C182.007 126.31 182.629 126.513 183.144 126.89L193.028 134.066C193.414 134.346 193.728 134.714 193.945 135.14C194.161 135.565 194.274 136.035 194.274 136.513C194.274 136.99 194.161 137.46 193.945 137.885C193.728 138.311 193.414 138.679 193.028 138.96L183.144 146.14C182.629 146.516 182.006 146.717 181.368 146.716Z" fill="#0070BA"/>
<path d="M87.1019 105.826H42.9459C42.1438 105.825 41.375 105.506 40.808 104.938C40.2411 104.371 39.9224 103.602 39.9219 102.8V88.4478C39.9229 87.6461 40.2419 86.8776 40.8088 86.3107C41.3756 85.7438 42.1442 85.4249 42.9459 85.4238H87.1019C87.2875 85.4238 87.4656 85.4976 87.5969 85.6289C87.7281 85.7601 87.8019 85.9382 87.8019 86.1238C87.8019 86.3095 87.7281 86.4875 87.5969 86.6188C87.4656 86.7501 87.2875 86.8238 87.1019 86.8238H42.9459C42.5153 86.8244 42.1026 86.9956 41.7981 87.3001C41.4937 87.6045 41.3224 88.0173 41.3219 88.4478V102.8C41.3224 103.23 41.4937 103.643 41.7981 103.948C42.1026 104.252 42.5153 104.423 42.9459 104.424H87.1019C87.2875 104.424 87.4656 104.498 87.5969 104.629C87.7281 104.76 87.8019 104.938 87.8019 105.124C87.8019 105.309 87.7281 105.488 87.5969 105.619C87.4656 105.75 87.2875 105.824 87.1019 105.824V105.826Z" fill="#66CB92"/>
<path d="M86.3393 95.2618C86.3389 93.2571 86.4968 91.2556 86.8113 89.2758C86.8275 89.1735 86.8213 89.0689 86.7931 88.9692C86.765 88.8695 86.7156 88.7772 86.6483 88.6984C86.581 88.6197 86.4974 88.5566 86.4033 88.5133C86.3092 88.47 86.2068 88.4476 86.1033 88.4478H43.4133C43.3522 88.4475 43.2916 88.4593 43.2351 88.4825C43.1786 88.5057 43.1272 88.5398 43.0839 88.583C43.0406 88.6261 43.0062 88.6773 42.9828 88.7337C42.9593 88.7902 42.9473 88.8507 42.9473 88.9118V102.338C42.9473 102.399 42.9593 102.459 42.9828 102.516C43.0062 102.572 43.0406 102.623 43.0839 102.667C43.1272 102.71 43.1786 102.744 43.2351 102.767C43.2916 102.79 43.3522 102.802 43.4133 102.802H86.2253C86.3299 102.802 86.4332 102.779 86.528 102.735C86.6229 102.691 86.7069 102.627 86.7742 102.546C86.8415 102.466 86.8904 102.373 86.9176 102.272C86.9447 102.17 86.9494 102.065 86.9313 101.962C86.5369 99.7502 86.3388 97.5082 86.3393 95.2618Z" fill="#66CB92"/>
<path d="M130.254 113.799H104.296C104.031 113.799 103.777 113.694 103.589 113.506C103.402 113.319 103.296 113.065 103.296 112.799C103.296 112.534 103.402 112.28 103.589 112.092C103.777 111.905 104.031 111.799 104.296 111.799H130.254C130.931 111.8 131.59 111.586 132.136 111.187L150 98.2153C150.41 97.9186 150.743 97.5291 150.973 97.0787C151.202 96.6283 151.322 96.1299 151.322 95.6243C151.322 95.1187 151.202 94.6203 150.973 94.1699C150.743 93.7195 150.41 93.33 150 93.0333L132.13 80.0573C131.584 79.6588 130.925 79.4445 130.248 79.4453H103.824C103.559 79.4453 103.305 79.34 103.117 79.1524C102.93 78.9649 102.824 78.7105 102.824 78.4453C102.824 78.1801 102.93 77.9257 103.117 77.7382C103.305 77.5507 103.559 77.4453 103.824 77.4453H130.254C131.353 77.4456 132.424 77.7959 133.31 78.4453L151.18 91.4233C151.845 91.9056 152.386 92.5384 152.759 93.27C153.132 94.0015 153.327 94.8111 153.327 95.6323C153.327 96.4535 153.132 97.2631 152.759 97.9947C152.386 98.7262 151.845 99.3591 151.18 99.8413L133.31 112.817C132.422 113.461 131.351 113.805 130.254 113.799Z" fill="#66CB92"/>
<path d="M117.705 82.1694H101.665C101.521 82.1693 101.38 82.2124 101.26 82.2934C101.141 82.3743 101.048 82.4893 100.995 82.6234C97.7514 91.0081 97.8402 100.316 101.243 108.637C101.298 108.769 101.39 108.881 101.509 108.959C101.628 109.038 101.767 109.08 101.909 109.079H117.709C117.94 109.079 118.161 108.987 118.324 108.823C118.487 108.66 118.579 108.438 118.579 108.207V83.0394C118.579 82.9249 118.556 82.8114 118.512 82.7056C118.468 82.5998 118.404 82.5037 118.323 82.4228C118.242 82.342 118.145 82.278 118.039 82.2345C117.933 82.191 117.82 82.1689 117.705 82.1694Z" fill="#66CB92"/>
<path d="M152.411 69.9999C149.081 66.6697 145.128 64.0279 140.777 62.2256C136.426 60.4233 131.763 59.4956 127.053 59.4956C122.344 59.4956 117.68 60.4233 113.33 62.2256C108.979 64.0279 105.025 66.6697 101.695 69.9999C88.4853 83.1999 87.7573 104.24 99.4953 118.314L89.4173 128.4C88.2193 127.994 86.9317 127.932 85.7 128.22C84.4684 128.507 83.3417 129.134 82.4473 130.028L61.0733 151.4C60.4429 152.029 59.9427 152.777 59.6012 153.599C59.2598 154.422 59.0837 155.304 59.083 156.195C59.0824 157.086 59.2572 157.968 59.5975 158.791C59.9378 159.614 60.4369 160.363 61.0663 160.993C61.6957 161.623 62.4431 162.123 63.2659 162.465C64.0886 162.806 64.9705 162.983 65.8613 162.983C66.7521 162.984 67.6343 162.809 68.4576 162.469C69.2808 162.128 70.0289 161.629 70.6593 161L92.0313 139.616C92.9243 138.722 93.5497 137.595 93.837 136.365C94.1243 135.134 94.0621 133.847 93.6573 132.65L103.713 122.6C110.578 128.469 119.403 131.536 128.428 131.19C137.453 130.843 146.017 127.108 152.411 120.73C166.401 106.738 166.401 83.9859 152.411 69.9999ZM90.6113 138.2L69.2453 159.576C68.3491 160.472 67.1337 160.976 65.8663 160.976C64.5989 160.976 63.3834 160.472 62.4873 159.576C61.5911 158.68 61.0877 157.464 61.0877 156.197C61.0877 154.93 61.5911 153.714 62.4873 152.818L83.8613 131.446C84.7643 130.587 85.9674 130.114 87.2139 130.13C88.4603 130.145 89.6513 130.647 90.5329 131.528C91.4144 132.41 91.9167 133.601 91.9324 134.847C91.9482 136.093 91.4763 137.297 90.6173 138.2H90.6113ZM151.001 119.308C137.801 132.508 116.315 132.508 103.113 119.308C89.9113 106.108 89.9133 84.6219 103.113 71.4179C109.464 65.0676 118.077 61.5 127.057 61.5C136.038 61.5 144.651 65.0676 151.001 71.4179C164.201 84.6219 164.201 106.104 151.001 119.308Z" fill="#0070BA"/>
</svg>
