<svg xmlns="http://www.w3.org/2000/svg" viewBox="0 0 1000 1000"><path d="M581 524.08a18.17 18.17 0 0 0-14.62 1.13 143.46 143.46 0 0 1-133.46.21 18.22 18.22 0 0 0-14.66-1.08 166 166 0 0 0-94 86.76 16.37 16.37 0 0 0 1.72 16.45 215.79 215.79 0 0 0 348.11 0 16.37 16.37 0 0 0 1.73-16.46A166 166 0 0 0 581 524.08z" style="fill:none"/><circle cx="499.45" cy="396.16" r="95.1" style="fill:none"/><path d="M889.81 295.67h-52.28V243.4a21.17 21.17 0 1 0-42.34 0v52.27h-52.28a21.17 21.17 0 1 0 0 42.34h52.28v52.27a21.17 21.17 0 1 0 42.34 0V338h52.28a21.17 21.17 0 1 0 0-42.34z" style="fill:none"/><path d="M641.67 316.84a174.43 174.43 0 0 1 5.79-44.64A270.15 270.15 0 0 0 500 228.66c-149.86 0-271.34 121.48-271.34 271.34S350.14 771.34 500 771.34 771.34 649.86 771.34 500q0-7.28-.39-14.47c-74.38-20.04-129.28-88.07-129.28-168.69zm-142.22-15.78a95.1 95.1 0 1 1-95.1 95.1 95.1 95.1 0 0 1 95.1-95.1zm174.6 326.5a215.79 215.79 0 0 1-348.11 0 16.37 16.37 0 0 1-1.72-16.45 166 166 0 0 1 94-86.76 18.22 18.22 0 0 1 14.66 1.08 143.46 143.46 0 0 0 133.46-.21 18.17 18.17 0 0 1 14.66-1.14 166 166 0 0 1 94.78 87 16.37 16.37 0 0 1-1.73 16.48z" style="fill:#0070ba"/><path d="M111.27 416.63a4.7 4.7 0 0 0 1 .12 5 5 0 0 0 4.88-4c2-9.58 4.45-19.17 7.15-28.52a5 5 0 1 0-9.6-2.78c-2.77 9.58-5.24 19.41-7.33 29.21a5 5 0 0 0 3.9 5.97zM888.17 583.67a5 5 0 0 0-6 3.76c-2.16 9.52-4.72 19.07-7.59 28.39a5 5 0 0 0 9.56 2.94c2.94-9.56 5.56-19.35 7.78-29.11a5 5 0 0 0-3.75-5.98zM859.81 668.17a5 5 0 0 0-6.68 2.34c-4.23 8.78-8.86 17.53-13.75 26a5 5 0 1 0 8.65 5c5-8.67 9.76-17.64 14.11-26.65a5 5 0 0 0-2.33-6.69zM668.8 145.5c8.8 4.22 17.55 8.84 26 13.71a5 5 0 1 0 5-8.67c-8.67-5-17.64-9.72-26.67-14.06a5 5 0 0 0-4.33 9zM328.26 854.29c-8.92-4.07-17.74-8.51-26.22-13.2a5 5 0 1 0-4.84 8.75c8.7 4.81 17.75 9.37 26.91 13.55a4.93 4.93 0 0 0 2.07.45 5 5 0 0 0 2.08-9.55zM897 494a5 5 0 0 0-5 5v1c0 9.78-.37 19.66-1.08 29.36a5 5 0 0 0 4.62 5.36h.37a5 5 0 0 0 5-4.63c.73-10 1.11-20.07 1.11-30.09v-1a5 5 0 0 0-5.02-5zM411.83 882c-9.63-2.12-19.22-4.57-28.5-7.28a5 5 0 0 0-2.8 9.6c9.49 2.77 19.3 5.27 29.14 7.44a5 5 0 1 0 2.16-9.76zM744 807.23c-7.62 6.09-15.57 12-23.62 17.47a5 5 0 0 0 5.64 8.26 411.09 411.09 0 0 0 24.22-17.91 5 5 0 0 0-6.24-7.82zM253.1 808.77c-7.68-6-15.21-12.39-22.37-19a5 5 0 1 0-6.78 7.35c7.36 6.78 15.09 13.35 23 19.52a5 5 0 0 0 6.16-7.88zM669.62 854.11c-8.78 4.23-17.83 8.19-26.9 11.76a5 5 0 0 0 1.84 9.65 5 5 0 0 0 1.83-.35c9.29-3.65 18.57-7.71 27.58-12.06a5 5 0 0 0-4.35-9zM586.62 883.18c-9.5 2.17-19.21 4-28.87 5.45a5 5 0 0 0 .74 9.94 4.73 4.73 0 0 0 .75-.05c9.9-1.49 19.86-3.37 29.6-5.59a5 5 0 1 0-2.22-9.75zM813.28 744.21a5 5 0 0 0-7 .79 394.586 394.586 0 0 1-19.18 22.27 5 5 0 0 0 3.67 8.4 4.94 4.94 0 0 0 3.66-1.6c6.8-7.32 13.42-15 19.67-22.83a5 5 0 0 0-.82-7.03zM499.19 893h-.14c-9.78-.39-19.56-1-29.07-2a5 5 0 1 0-.94 10c9.72.93 19.72 1.6 29.71 2h.44a5 5 0 1 0 0-10zM325.3 146.56a5 5 0 0 0 2.09-.46c8.79-4 17.92-7.83 27.12-11.27a5 5 0 1 0-3.49-9.36c-9.44 3.51-18.79 7.4-27.81 11.54a5 5 0 0 0 2.09 9.55zM409.79 118.33a5.06 5.06 0 0 0 1.09-.12c9.43-2.1 19.16-3.94 28.91-5.47a5 5 0 1 0-1.55-9.88c-10 1.56-19.9 3.45-29.53 5.59a5 5 0 0 0 1.08 9.88zM249.25 192.88a5 5 0 0 0 3.09-1.07c7.64-6 15.64-11.79 23.77-17.19a5 5 0 1 0-5.53-8.33 380.762 380.762 0 0 0-24.42 17.66 5 5 0 0 0 3.09 8.93zM498.43 107h.62c9.51 0 19.11.35 28.54 1h.41a5 5 0 0 0 .36-10c-9.71-.69-19.58-1-29.36-1h-1a5 5 0 0 0 .41 10zM108.05 500.41V500c0-9.63.34-19.37 1-29a5 5 0 1 0-10-.68c-.67 9.82-1 19.8-1 29.67v.42a5 5 0 0 0 10 0zM585.68 116.6c9.52 2.15 19.07 4.68 28.39 7.53a5 5 0 1 0 2.93-9.56c-9.56-2.93-19.36-5.53-29.13-7.72a5 5 0 1 0-2.19 9.75zM173.71 722.84a5 5 0 0 0-8.33 5.53c5.56 8.37 11.5 16.6 17.66 24.46a5 5 0 0 0 3.94 1.92 5 5 0 0 0 3.93-8.09c-6-7.66-11.79-15.66-17.2-23.82zM202 224.89c-6.76 7.36-13.32 15.1-19.49 23a5 5 0 0 0 3.89 8.11 5 5 0 0 0 3.94-1.93c6-7.7 12.4-15.23 19-22.39a5 5 0 0 0-7.36-6.77zM156.07 296.19a5 5 0 0 0-6.8 1.95c-4.83 8.72-9.4 17.77-13.58 26.89a5 5 0 1 0 9.09 4.17c4.08-8.9 8.53-17.71 13.24-26.22a5 5 0 0 0-1.95-6.79zM133.85 644.41a5 5 0 0 0-9.37 3.5c3.51 9.41 7.4 18.77 11.57 27.82a5 5 0 0 0 4.55 2.91 4.88 4.88 0 0 0 2.09-.46 5 5 0 0 0 2.45-6.63 392.22 392.22 0 0 1-11.29-27.14zM112.22 559.05a5 5 0 1 0-9.9 1.41c1.41 9.92 3.18 19.9 5.28 29.65a5 5 0 0 0 4.89 3.95 5.43 5.43 0 0 0 1.05-.11 5 5 0 0 0 3.84-5.94c-2.05-9.53-3.79-19.27-5.16-28.96z" style="fill:#9fcde0"/><path d="M816.36 154.63c-89.44 0-162.21 72.76-162.21 162.21s72.77 162.21 162.21 162.21 162.21-72.77 162.21-162.21-72.77-162.21-162.21-162.21zm73.45 183.7h-52v51.95a21.48 21.48 0 1 1-43 0v-51.95h-52a21.49 21.49 0 0 1 0-43h52v-52a21.48 21.48 0 1 1 43 0v52h52a21.49 21.49 0 0 1 0 43z" style="fill:#66cb92"/><path d="M889.81 295.36h-52v-52a21.48 21.48 0 1 0-43 0v52h-52a21.49 21.49 0 0 0 0 43h52v51.95a21.48 21.48 0 1 0 43 0v-51.98h52a21.49 21.49 0 0 0 0-43zm0 42.65h-52.28v52.27a21.17 21.17 0 1 1-42.34 0V338h-52.28a21.17 21.17 0 1 1 0-42.34h52.28V243.4a21.17 21.17 0 1 1 42.34 0v52.27h52.28a21.17 21.17 0 1 1 0 42.34z" style="fill:#fff"/></svg>