<svg width="150" height="150" viewBox="0 0 150 150" fill="none" xmlns="http://www.w3.org/2000/svg">
<path d="M28.5704 61.654C28.5704 68.4687 34.1064 74 40.9319 74C47.7574 74 53.2934 68.4687 53.2934 61.654C53.2934 54.8393 47.7574 49.3081 40.9319 49.3081C34.1064 49.3081 28.5704 54.8393 28.5704 61.654ZM40.9319 81.5608C38.7727 81.5608 36.6299 81.1416 34.637 80.4487H34.2512C26.3122 80.4487 19.6628 87.0921 19.6628 95.0189C19.6628 98.2056 22.2623 100.692 25.3435 100.692H48.8396V95.575C48.8396 90.3348 50.8177 85.6018 53.8473 81.9379C52.0039 80.9961 49.9017 80.4487 47.6126 80.4487H47.366C45.3691 81.1429 43.2229 81.5608 40.9319 81.5608Z" fill="#A0CDE0" stroke="#0A71B9" stroke-width="2"/>
<path d="M130.819 88.1941L119.918 77.2623C118.464 75.8047 116.526 74.9545 114.467 74.9545H104.777C102.718 74.9545 100.901 76.7764 100.901 78.8413V88.5585C100.901 90.6234 101.749 92.5669 103.203 94.0244L114.104 104.956C115.678 106.535 118.101 106.535 119.676 104.956L130.819 93.7815C132.394 92.2025 132.394 89.7732 130.819 88.1941ZM108.653 85.6434C107.079 85.6434 105.746 84.4287 105.746 82.7282C105.746 81.1492 107.079 79.813 108.653 79.813C110.349 79.813 111.56 81.1492 111.56 82.7282C111.56 84.4287 110.349 85.6434 108.653 85.6434Z" fill="#6DC391"/>
<path d="M81.6425 74.9545C90.1212 74.9545 97.1465 68.031 97.1465 59.4069C97.1465 50.9044 90.1212 43.8594 81.6425 43.8594C73.0427 43.8594 66.1386 50.9044 66.1386 59.4069C66.1386 68.031 73.0427 74.9545 81.6425 74.9545ZM97.0253 88.5585V79.5701C95.5718 79.2057 93.9972 78.8413 92.4226 78.8413H90.3635C87.6987 80.056 84.7918 80.7848 81.6425 80.7848C78.4933 80.7848 75.4652 80.056 72.8004 78.8413H70.7413C61.7781 78.8413 54.5107 86.2507 54.5107 95.2391V100.219C54.5107 103.499 57.0543 106.049 60.3246 106.049H102.96C104.777 106.049 106.473 105.199 107.442 103.742L100.417 96.6967C98.2366 94.5103 97.0253 91.5952 97.0253 88.5585Z" fill="#0A71B9"/>
</svg>
