<svg width="150" height="150" viewBox="0 0 150 150" fill="none" xmlns="http://www.w3.org/2000/svg">
<rect y="1.12329" width="63.7498" height="28.9411" transform="matrix(0.827379 0.561644 -0.827379 0.561644 61.5294 47.4924)" fill="#A0CDE0" stroke="#0A71B9" stroke-width="2"/>
<rect x="-1.65476" y="-1.19209e-07" width="63.7498" height="28.9411" transform="matrix(-0.827379 0.561643 -0.827379 -0.561644 111.976 65.3072)" fill="#A0CDE0" stroke="#0A71B9" stroke-width="2"/>
<rect x="-1.65476" y="-1.19209e-07" width="28.9411" height="28.9411" transform="matrix(-0.827379 0.561643 -0.827379 -0.561644 97.5765 75.0823)" fill="white" stroke="#0A71B9" stroke-width="2"/>
<path d="M52.1428 93.8673L60.1429 98.3994L75.0002 89.3353V122.193L52.1428 108.597V93.8673Z" fill="#0A71B9"/>
<path d="M75.0002 89.3353L89.8575 98.3994L97.8575 93.8673V108.597L75.0002 122.193V89.3353Z" fill="#0A71B9"/>
<path d="M75 81L75 68" stroke="#0A71B9" stroke-width="2" stroke-linecap="round"/>
<line x1="75" y1="66.4142" x2="68.8737" y2="72.5405" stroke="#0A71B9" stroke-width="2" stroke-linecap="round"/>
<line x1="81.1261" y1="72.5405" x2="74.9998" y2="66.4142" stroke="#0A71B9" stroke-width="2" stroke-linecap="round"/>
<path d="M70.439 100.144V110.711H67.4626V102.786H67.3983L65 104.169V101.734L67.6981 100.144H70.439Z" fill="white"/>
<path d="M73.7876 110.876C73.3736 110.876 73.0185 110.737 72.7222 110.458C72.4296 110.176 72.2851 109.834 72.2886 109.432C72.2851 109.039 72.4296 108.704 72.7222 108.425C73.0185 108.147 73.3736 108.008 73.7876 108.008C74.1801 108.008 74.5263 108.147 74.8261 108.425C75.1295 108.704 75.2829 109.039 75.2865 109.432C75.2829 109.7 75.2098 109.944 75.067 110.164C74.9278 110.381 74.7458 110.555 74.521 110.685C74.2961 110.813 74.0517 110.876 73.7876 110.876Z" fill="white"/>
<path d="M81.1605 111C80.1648 110.997 79.3047 110.775 78.5802 110.334C77.8557 109.894 77.2971 109.26 76.9046 108.431C76.512 107.602 76.3175 106.608 76.321 105.448C76.3246 104.286 76.5209 103.299 76.9099 102.487C77.3025 101.675 77.8593 101.058 78.5802 100.635C79.3047 100.212 80.1648 100 81.1605 100C82.1562 100 83.0163 100.213 83.7408 100.64C84.4653 101.063 85.0239 101.68 85.4164 102.492C85.809 103.304 86.0035 104.289 86 105.448C86 106.614 85.8037 107.612 85.4111 108.441C85.0185 109.27 84.46 109.904 83.7355 110.345C83.0146 110.782 82.1562 111 81.1605 111ZM81.1605 108.668C81.6744 108.668 82.0956 108.41 82.4239 107.894C82.7558 107.375 82.92 106.559 82.9164 105.448C82.9164 104.723 82.8415 104.129 82.6916 103.668C82.5417 103.207 82.3347 102.867 82.0706 102.647C81.8065 102.423 81.5031 102.311 81.1605 102.311C80.6466 102.311 80.2272 102.563 79.9025 103.065C79.5777 103.567 79.4117 104.361 79.4046 105.448C79.401 106.188 79.4742 106.797 79.6241 107.275C79.774 107.75 79.981 108.1 80.2451 108.327C80.5127 108.554 80.8179 108.668 81.1605 108.668Z" fill="white"/>
</svg>
