<svg width="149" height="140" viewBox="0 0 149 140" fill="none" xmlns="http://www.w3.org/2000/svg">
  <path d="M45 0C44.5312 0 44.0625 0.234375 43.5938 0.234375C18.9844 0.9375 0 22.2656 0 47.1094V108.75C0 111.094 1.64062 112.5 3.75 112.5C4.6875 112.5 5.625 112.266 6.32812 111.562L12.1875 107.109C12.8906 106.641 13.5938 106.406 14.2969 106.406C15.4688 106.406 16.4062 106.875 17.1094 107.578L27.1875 119.062C27.8906 119.766 28.8281 120.234 30 120.234C30.9375 120.234 31.875 119.766 32.5781 119.062L42.1875 108.281C42.8906 107.344 43.8281 107.109 45 107.109C45.9375 107.109 46.875 107.344 47.5781 108.281L57.1875 119.062C57.8906 119.766 58.8281 120.234 59.7656 120.234C60.9375 120.234 61.875 119.766 62.5781 119.062L72.6562 107.578C73.125 106.875 74.5312 106.406 75.4688 106.406C76.1719 106.406 77.1094 106.875 77.5781 107.109L83.4375 111.562C84.1406 112.266 85.0781 112.5 86.0156 112.5C88.125 112.5 90 111.094 90 108.75V45C90 20.1562 69.8438 0 45 0ZM78.75 95.625C77.5781 95.3906 76.4062 95.1562 75.4688 95.1562C71.0156 95.1562 67.0312 97.0312 64.2188 100.312L60 105L56.0156 100.781C53.2031 97.5 49.2188 95.8594 45 95.8594C40.5469 95.8594 36.5625 97.5 33.75 100.781L30 105L25.5469 100.312C23.2031 97.5 18.0469 95.1562 14.2969 95.1562C13.3594 95.1562 12.1875 95.3906 11.0156 95.625V47.1094C11.0156 27.8906 25.7812 11.9531 43.8281 11.4844L45 11.25C63.5156 11.25 78.75 26.4844 78.75 45V95.625ZM30 37.5C25.7812 37.5 22.5 41.0156 22.5 45C22.5 49.2188 25.7812 52.5 30 52.5C33.9844 52.5 37.5 49.2188 37.5 45C37.5 41.0156 33.9844 37.5 30 37.5ZM60 37.5C55.7812 37.5 52.5 41.0156 52.5 45C52.5 49.2188 55.7812 52.5 60 52.5C63.9844 52.5 67.5 49.2188 67.5 45C67.5 41.0156 63.9844 37.5 60 37.5Z" fill="#A0AEC0"/>
  <path d="M136.973 53.9006L140.643 50.0673L136.943 46.2625L126.153 35.1657L122.179 31.0792L118.237 35.1963L62.238 93.6809L45.7632 76.4748L41.8211 72.3578L37.8474 76.4443L27.0569 87.5411L23.3571 91.3459L27.0274 95.1791L58.2654 127.804L62.238 131.953L66.2105 127.804L136.973 53.9006Z" fill="#1A67A3" stroke="white" stroke-width="11"/>
</svg>
