<svg width="151" height="117" viewBox="0 0 151 117" fill="none" xmlns="http://www.w3.org/2000/svg">
<path d="M111.469 13H11.5312C5.04492 13 0 18.2708 0 24.5V93.5C0 99.9688 5.04492 105 11.5312 105H111.469C117.715 105 123 99.9688 123 93.5V24.5C123 18.2708 117.715 13 111.469 13ZM111.469 24.5V34.3229C105.943 38.875 97.2949 45.5833 79.0371 59.9583C74.9531 63.0729 67.0254 70.7396 61.5 70.5C55.7344 70.7396 47.8066 63.0729 43.7227 59.9583C25.4648 45.5833 16.8164 38.875 11.5312 34.3229V24.5H111.469ZM11.5312 93.5V49.1771C16.8164 53.4896 24.7441 59.7188 36.5156 69.0625C41.8008 73.1354 51.1699 82.2396 61.5 82C71.5898 82.2396 80.7188 73.1354 86.2441 69.0625C98.0156 59.7188 105.943 53.4896 111.469 49.1771V93.5H11.5312Z" fill="#A0AEC0"/>
<path d="M138.973 30.9006L142.643 27.0673L138.943 23.2625L128.153 12.1657L124.179 8.07924L120.237 12.1963L64.238 70.6809L47.7632 53.4748L43.8211 49.3578L39.8474 53.4443L29.0569 64.5411L25.3571 68.3459L29.0274 72.1791L60.2654 104.804L64.238 108.953L68.2105 104.804L138.973 30.9006Z" fill="#1A67A3" stroke="white" stroke-width="11"/>
</svg>
