<svg id="button_1.1" data-name="button 1.1" xmlns="http://www.w3.org/2000/svg" viewBox="0 0 200 65"><defs><style>.cls-1{fill:#373636;}.cls-2{fill:#ededed;}.cls-3{fill:#dadada;}.cls-4{fill:#fff;}</style></defs><title>logo_uac_final</title><rect class="cls-1" width="200" height="65" rx="6.5" ry="6.5"/><polygon class="cls-2" points="17.02 46.45 49.7 52.1 49.77 7.5 17.07 11.23 17.02 46.45"/><polygon class="cls-3" points="49.69 54.54 58.57 54.19 58.99 10.43 49.77 7.5 49.69 54.54"/><polygon class="cls-3" points="17 55.99 24.52 59.5 24.56 14.48 26.44 11.94 17.07 11.33 17 55.99"/><polygon class="cls-4" points="24.52 59.5 58.98 54.29 59.04 10.51 24.59 14.48 24.52 59.5"/><path class="cls-1" d="M53.69,25.38A3.38,3.38,0,0,0,49.75,22L38,23.56a4.73,4.73,0,0,0-4,4.5,4.79,4.79,0,0,0-4,4.55L29.78,44.75a3.4,3.4,0,0,0,4,3.51l12.08-1.77a4.79,4.79,0,0,0,4-4.63,4.72,4.72,0,0,0,3.93-4.58ZM49.83,41.86l-3,.44-0.52.08V40.61a5.59,5.59,0,0,1-2.48,2.12l-5.92.85a3.35,3.35,0,0,1-4-3.48l0.09-12,3.58-.49L37.48,39.21c0.07,0.88,1.37,1.68,4,1.47,2.19-.18,4.23-1.29,4.75-2.6l0-11.68a3.57,3.57,0,0,1,3.46,2.69,2.38,2.38,0,0,1,.07.41h0a2.26,2.26,0,0,1,0,.36l0.06,12h0Z"/><path class="cls-2" d="M53.61,11.14l-1.94.22a1.63,1.63,0,0,1,0,.21c0.07,6.31-3.43,14.43-8.6,15a9.87,9.87,0,0,0,1.33.17c5.54,0.42,9.27-8.35,9.2-15.08A2.85,2.85,0,0,0,53.61,11.14Z"/><path class="cls-2" d="M34.19,13.85a3.76,3.76,0,0,1,0-.5l-2.76.31h0c0.07,6.72,4.81,12.53,10.58,13a4.91,4.91,0,0,0,1,0C38.13,25.48,34.25,20.06,34.19,13.85Z"/><polygon class="cls-2" points="24.52 59.5 24.53 55.75 17.01 56.01 24.52 59.5"/><path class="cls-4" d="M81,5.67h2.66A3,3,0,0,1,85.08,6,2.09,2.09,0,0,1,86,7a2.83,2.83,0,0,1,.21.7q0.08,0.42.11,0.84t0,0.76c0,0.22,0,.37,0,0.44A15.58,15.58,0,0,1,86.25,12a3.32,3.32,0,0,1-.4,1.27,2.09,2.09,0,0,1-1,.84,5,5,0,0,1-1.82.28H81V5.67Zm1.1,7.7h1a3.45,3.45,0,0,0,1-.12,1.29,1.29,0,0,0,.65-0.42,1.91,1.91,0,0,0,.36-0.8,5.74,5.74,0,0,0,.11-1.25V9a3.15,3.15,0,0,0-.41-1.85,1.5,1.5,0,0,0-1.28-.55H82.1v6.74Z"/><path class="cls-4" d="M90.33,14.45a3.81,3.81,0,0,1-.9-0.1,1.48,1.48,0,0,1-.73-0.43A2.23,2.23,0,0,1,88.21,13,5.78,5.78,0,0,1,88,11.39a11.26,11.26,0,0,1,.07-1.25,2.82,2.82,0,0,1,.3-1,1.72,1.72,0,0,1,.69-0.7,3.14,3.14,0,0,1,2.5,0,1.72,1.72,0,0,1,.69.7,2.83,2.83,0,0,1,.3,1,11.38,11.38,0,0,1,.07,1.25A5.78,5.78,0,0,1,92.46,13a2.24,2.24,0,0,1-.49.92,1.48,1.48,0,0,1-.73.43A3.81,3.81,0,0,1,90.33,14.45Zm0-.8A1.23,1.23,0,0,0,91,13.5,1,1,0,0,0,91.35,13a2.64,2.64,0,0,0,.2-0.82A12.16,12.16,0,0,0,91.6,11a4.65,4.65,0,0,0-.09-1,1.61,1.61,0,0,0-.26-0.61A0.87,0.87,0,0,0,90.85,9a1.66,1.66,0,0,0-1,0,0.87,0.87,0,0,0-.4.31,1.61,1.61,0,0,0-.26.61,4.65,4.65,0,0,0-.09,1,12.16,12.16,0,0,0,.05,1.25,2.64,2.64,0,0,0,.2.82,1,1,0,0,0,.39.46A1.23,1.23,0,0,0,90.33,13.65Z"/><path class="cls-4" d="M93.44,8.27h1.09l1.09,5.22h0L97,8.27h1.39l1.24,5.22h0l1.2-5.22h1l-1.62,6.06H98.95l-1.3-5.16h0l-1.36,5.16H95Z"/><path class="cls-4" d="M106.15,14.33v-4.2a2.14,2.14,0,0,0,0-.46,1,1,0,0,0-.17-0.38A0.78,0.78,0,0,0,105.6,9,1.33,1.33,0,0,0,105.08,9a1.14,1.14,0,0,0-.65.16,1.11,1.11,0,0,0-.37.42,1.77,1.77,0,0,0-.17.58,4.75,4.75,0,0,0,0,.63v3.59h-1V9.53q0-.31,0-0.63c0-.21,0-0.42,0-0.63h1V9.05h0a1.68,1.68,0,0,1,.66-0.71,2.09,2.09,0,0,1,1-.19,2,2,0,0,1,.8.14,1.14,1.14,0,0,1,.5.4,1.68,1.68,0,0,1,.25.63,4.21,4.21,0,0,1,.07.81v4.2h-1Z"/><path class="cls-4" d="M109.82,14.33h-1V5.67h1v8.66Z"/><path class="cls-4" d="M113.66,14.45a3.81,3.81,0,0,1-.9-0.1,1.49,1.49,0,0,1-.73-0.43,2.25,2.25,0,0,1-.49-0.92,5.82,5.82,0,0,1-.18-1.61,11.14,11.14,0,0,1,.07-1.25,2.81,2.81,0,0,1,.3-1,1.72,1.72,0,0,1,.69-0.7,3.14,3.14,0,0,1,2.5,0,1.73,1.73,0,0,1,.69.7,2.83,2.83,0,0,1,.3,1,11.38,11.38,0,0,1,.07,1.25,5.74,5.74,0,0,1-.18,1.61,2.21,2.21,0,0,1-.49.92,1.48,1.48,0,0,1-.73.43A3.81,3.81,0,0,1,113.66,14.45Zm0-.8a1.23,1.23,0,0,0,.63-0.14,1,1,0,0,0,.39-0.46,2.64,2.64,0,0,0,.2-0.82,11.87,11.87,0,0,0,.05-1.25,4.62,4.62,0,0,0-.09-1,1.63,1.63,0,0,0-.26-0.61,0.87,0.87,0,0,0-.4-0.31,1.66,1.66,0,0,0-1,0,0.87,0.87,0,0,0-.4.31,1.59,1.59,0,0,0-.26.61,4.68,4.68,0,0,0-.09,1,12.46,12.46,0,0,0,.05,1.25,2.64,2.64,0,0,0,.2.82,1,1,0,0,0,.39.46A1.23,1.23,0,0,0,113.66,13.65Z"/><path class="cls-4" d="M120.64,13.46h0a1.65,1.65,0,0,1-.59.76,1.69,1.69,0,0,1-.94.23,1.87,1.87,0,0,1-.8-0.15,1.32,1.32,0,0,1-.51-0.41,1.67,1.67,0,0,1-.27-0.63,3.78,3.78,0,0,1-.08-0.8,1.6,1.6,0,0,1,1.07-1.64,3.48,3.48,0,0,1,1-.22c0.38,0,.74,0,1.08,0q0-.3,0-0.6a1.61,1.61,0,0,0-.11-0.54A0.86,0.86,0,0,0,120.21,9a1,1,0,0,0-.61-0.15,0.91,0.91,0,0,0-.75.3,1,1,0,0,0-.2.78h-1.07a1.78,1.78,0,0,1,.56-1.42,2.41,2.41,0,0,1,1.49-.4,2.75,2.75,0,0,1,1,.14,1.52,1.52,0,0,1,.6.39,1.4,1.4,0,0,1,.31.58,2.68,2.68,0,0,1,.09.71v2.92q0,0.36,0,.73t0.09,0.71h-1.08V13.46Zm0-2.14h-0.74a2.49,2.49,0,0,0-.71.12,1.17,1.17,0,0,0-.53.35,1.09,1.09,0,0,0-.21.73,1.35,1.35,0,0,0,.23.78,0.8,0.8,0,0,0,.72.34,1.28,1.28,0,0,0,.46-0.09,1,1,0,0,0,.42-0.34,2,2,0,0,0,.29-0.71A4.39,4.39,0,0,0,120.62,11.32Z"/><path class="cls-4" d="M126.73,5.67h1v8.66h-1V13.61h0a1.85,1.85,0,0,1-.58.63,1.48,1.48,0,0,1-.81.21,2.58,2.58,0,0,1-.71-0.1,1.29,1.29,0,0,1-.63-0.43,2.42,2.42,0,0,1-.44-0.92,6.14,6.14,0,0,1-.17-1.6q0-.56,0-1.15a3.33,3.33,0,0,1,.23-1,1.74,1.74,0,0,1,.6-0.76,1.92,1.92,0,0,1,1.14-.29,1.49,1.49,0,0,1,.76.19,1.8,1.8,0,0,1,.58.55h0V5.67Zm0,5.39q0-.3,0-0.67a2.48,2.48,0,0,0-.14-0.68,1.35,1.35,0,0,0-.34-0.53A0.89,0.89,0,0,0,125.59,9a1.16,1.16,0,0,0-.64.16,1,1,0,0,0-.37.47,2.6,2.6,0,0,0-.16.77c0,0.3,0,.66,0,1.07q0,0.35,0,.74a2.41,2.41,0,0,0,.14.72,1.35,1.35,0,0,0,.37.55,1,1,0,0,0,.71.22,0.85,0.85,0,0,0,.64-0.23,1.37,1.37,0,0,0,.33-0.61,3.67,3.67,0,0,0,.12-0.83Q126.73,11.51,126.73,11.06Z"/><path class="cls-4" d="M132.37,8.27V7.1a1.6,1.6,0,0,1,.15-0.74,1.19,1.19,0,0,1,.39-0.45,1.41,1.41,0,0,1,.56-0.22,3.82,3.82,0,0,1,.64-0.05h0.26l0.21,0V6.38a2.16,2.16,0,0,0-.64,0,0.81,0.81,0,0,0-.37.19,0.61,0.61,0,0,0-.17.29,1.46,1.46,0,0,0,0,.35v1h1.22V9h-1.22v5.32h-1V9h-0.94V8.27h0.94Z"/><path class="cls-4" d="M136.54,9.18h0a2.33,2.33,0,0,1,.33-0.55,1.24,1.24,0,0,1,.4-0.31,1.52,1.52,0,0,1,.5-0.14,6.12,6.12,0,0,1,.64,0v1l-0.13,0-0.13,0-0.13,0h-0.14a1.39,1.39,0,0,0-.67.14,1.18,1.18,0,0,0-.42.37,1.39,1.39,0,0,0-.22.53,3,3,0,0,0-.06.6v3.58h-1V8.27h1V9.18Z"/><path class="cls-4" d="M141.65,14.45a3.8,3.8,0,0,1-.9-0.1,1.48,1.48,0,0,1-.73-0.43,2.23,2.23,0,0,1-.49-0.92,5.78,5.78,0,0,1-.18-1.61,11.14,11.14,0,0,1,.07-1.25,2.81,2.81,0,0,1,.3-1,1.73,1.73,0,0,1,.69-0.7,3.14,3.14,0,0,1,2.5,0,1.72,1.72,0,0,1,.69.7,2.85,2.85,0,0,1,.3,1,11.14,11.14,0,0,1,.07,1.25,5.82,5.82,0,0,1-.18,1.61,2.26,2.26,0,0,1-.49.92,1.49,1.49,0,0,1-.73.43A3.81,3.81,0,0,1,141.65,14.45Zm0-.8a1.24,1.24,0,0,0,.63-0.14,1,1,0,0,0,.39-0.46,2.64,2.64,0,0,0,.2-0.82,12.42,12.42,0,0,0,.05-1.25,4.61,4.61,0,0,0-.09-1,1.57,1.57,0,0,0-.26-0.61,0.87,0.87,0,0,0-.4-0.31,1.67,1.67,0,0,0-1,0,0.87,0.87,0,0,0-.4.31,1.62,1.62,0,0,0-.26.61,4.68,4.68,0,0,0-.09,1,12.14,12.14,0,0,0,.05,1.25,2.64,2.64,0,0,0,.2.82,1,1,0,0,0,.39.46A1.23,1.23,0,0,0,141.65,13.65Z"/><path class="cls-4" d="M148.49,14.33v-4.2a2.76,2.76,0,0,0,0-.44,0.94,0.94,0,0,0-.14-0.38A0.78,0.78,0,0,0,148,9.05a1.07,1.07,0,0,0-.49-0.1,1.15,1.15,0,0,0-.49.12,0.83,0.83,0,0,0-.37.29,1.51,1.51,0,0,0-.18.47,2.28,2.28,0,0,0,0,.41v4.08h-1V9.53q0-.31,0-0.63c0-.21,0-0.42,0-0.63h1V9h0a1.32,1.32,0,0,1,.59-0.68A2,2,0,0,1,148,8.15a2.19,2.19,0,0,1,.42,0,1.58,1.58,0,0,1,.41.14,1.38,1.38,0,0,1,.35.25,1,1,0,0,1,.24.35A1.26,1.26,0,0,1,150,8.3a2.19,2.19,0,0,1,.8-0.15,3.71,3.71,0,0,1,.53,0,1.35,1.35,0,0,1,.54.2,1.25,1.25,0,0,1,.42.47,1.79,1.79,0,0,1,.17.85v4.61h-1v-4.2a2.76,2.76,0,0,0,0-.44,0.94,0.94,0,0,0-.14-0.38A0.76,0.76,0,0,0,151,9.05a1.07,1.07,0,0,0-.49-0.1,1.77,1.77,0,0,0-.41,0,1,1,0,0,0-.33.19,0.72,0.72,0,0,0-.17.24,1.6,1.6,0,0,0-.1.3,2.18,2.18,0,0,0,0,.3c0,0.1,0,.17,0,0.23v4.08h-1Z"/><path class="cls-4" d="M81.87,19h2.21V30.09a10.53,10.53,0,0,0,.22,2.34,3.88,3.88,0,0,0,.62,1.46,2.1,2.1,0,0,0,1,.74,4.87,4.87,0,0,0,2.78,0,2.1,2.1,0,0,0,1-.74,3.89,3.89,0,0,0,.62-1.46,10.56,10.56,0,0,0,.22-2.34V19h2.21V30q0,3.6-1.34,5.15a6.22,6.22,0,0,1-8.21,0Q81.87,33.59,81.87,30V19Z"/><path class="cls-4" d="M103,36.33v-8.4a4.17,4.17,0,0,0-.1-0.91,2,2,0,0,0-.34-0.76,1.56,1.56,0,0,0-.66-0.5,2.65,2.65,0,0,0-1-.18,2.29,2.29,0,0,0-1.3.32,2.22,2.22,0,0,0-.74.84,3.52,3.52,0,0,0-.35,1.15,9.6,9.6,0,0,0-.08,1.26v7.18h-2v-9.6q0-.62,0-1.26t-0.08-1.26h2.09v1.56h0.1a3.36,3.36,0,0,1,1.32-1.42A4.18,4.18,0,0,1,101.7,24a4,4,0,0,1,1.6.28,2.27,2.27,0,0,1,1,.8,3.35,3.35,0,0,1,.5,1.26,8.36,8.36,0,0,1,.14,1.62v8.4h-2Z"/><path class="cls-4" d="M108.22,19h2.21v2.11h-2.21V19Zm2.09,17.33h-2V24.21h2V36.33Z"/><path class="cls-4" d="M112.33,24.21h2.21l2.71,10.27h0l2.93-10.27h2.06L118.5,36.33h-2.57Z"/><path class="cls-4" d="M126.29,30.91a10.34,10.34,0,0,0,.17,2.06,3.35,3.35,0,0,0,.48,1.24,1.54,1.54,0,0,0,.77.6,3.19,3.19,0,0,0,1,.16,2,2,0,0,0,.89-0.19,2,2,0,0,0,.65-0.5,2.25,2.25,0,0,0,.41-0.73,3.24,3.24,0,0,0,.17-0.88H133a3.7,3.7,0,0,1-1.16,3,4.68,4.68,0,0,1-3.06.94,7.62,7.62,0,0,1-1.8-.2,3,3,0,0,1-1.46-.85,4.47,4.47,0,0,1-1-1.85,11.56,11.56,0,0,1-.36-3.22,22.77,22.77,0,0,1,.13-2.51,5.69,5.69,0,0,1,.6-2.06,3.45,3.45,0,0,1,1.38-1.39,5.09,5.09,0,0,1,2.5-.52,5.45,5.45,0,0,1,2.14.36,2.91,2.91,0,0,1,1.32,1.09,4.84,4.84,0,0,1,.67,1.84,15.48,15.48,0,0,1,.19,2.62v1h-6.82ZM131,29.42a9.72,9.72,0,0,0-.18-2.1,3.27,3.27,0,0,0-.49-1.2,1.39,1.39,0,0,0-.77-0.54,3.85,3.85,0,0,0-1-.12,2.65,2.65,0,0,0-.89.14,1.53,1.53,0,0,0-.72.58,3.53,3.53,0,0,0-.5,1.21,8.81,8.81,0,0,0-.19,2H131Z"/><path class="cls-4" d="M143,36.33v-8.4a4.29,4.29,0,0,0-.1-0.91,2,2,0,0,0-.34-0.76,1.57,1.57,0,0,0-.66-0.5,2.66,2.66,0,0,0-1-.18,2.28,2.28,0,0,0-1.29.32,2.22,2.22,0,0,0-.74.84,3.5,3.5,0,0,0-.35,1.15,9.68,9.68,0,0,0-.08,1.26v7.18h-2v-9.6q0-.62,0-1.26t-0.08-1.26h2.09v1.56h0.1a3.36,3.36,0,0,1,1.32-1.42,4.18,4.18,0,0,1,1.92-.38,4,4,0,0,1,1.6.28,2.27,2.27,0,0,1,1,.8,3.35,3.35,0,0,1,.5,1.26,8.44,8.44,0,0,1,.14,1.62v8.4h-2Z"/><path class="cls-4" d="M148.59,24.21V21.88l2-.89v3.22h2.64V25.7h-2.64v7.42c0,0.19,0,.39,0,0.6a1.17,1.17,0,0,0,.19.56,1.23,1.23,0,0,0,.54.42,2.6,2.6,0,0,0,1,.17l0.34,0,0.55-.07v1.51l-1,.12a6.73,6.73,0,0,1-1,.07,3.15,3.15,0,0,1-2.06-.55,2,2,0,0,1-.65-1.61V25.7h-2V24.21h2Z"/><path class="cls-4" d="M154.88,19h2.21v2.11h-2.21V19ZM157,36.33h-2V24.21h2V36.33Z"/><path class="cls-4" d="M164.65,36.57a7.61,7.61,0,0,1-1.8-.2,3,3,0,0,1-1.46-.85,4.47,4.47,0,0,1-1-1.85,11.56,11.56,0,0,1-.36-3.22,22.29,22.29,0,0,1,.13-2.51,5.63,5.63,0,0,1,.6-2.06,3.45,3.45,0,0,1,1.38-1.39,6.3,6.3,0,0,1,5,0,3.46,3.46,0,0,1,1.38,1.39,5.67,5.67,0,0,1,.6,2.06,22.76,22.76,0,0,1,.13,2.51,11.55,11.55,0,0,1-.36,3.22,4.47,4.47,0,0,1-1,1.85,3,3,0,0,1-1.46.85A7.63,7.63,0,0,1,164.65,36.57Zm0-1.61a2.46,2.46,0,0,0,1.26-.29,2,2,0,0,0,.78-0.91,5.29,5.29,0,0,0,.39-1.64,24.29,24.29,0,0,0,.11-2.51,9.36,9.36,0,0,0-.18-2,3.24,3.24,0,0,0-.52-1.22,1.73,1.73,0,0,0-.8-0.61,3.33,3.33,0,0,0-2.09,0,1.74,1.74,0,0,0-.8.61,3.21,3.21,0,0,0-.52,1.22,9.24,9.24,0,0,0-.18,2,24.36,24.36,0,0,0,.11,2.51,5.28,5.28,0,0,0,.4,1.64,2,2,0,0,0,.78.91A2.46,2.46,0,0,0,164.65,35Z"/><path class="cls-4" d="M179,36.33v-8.4a4.29,4.29,0,0,0-.1-0.91,2,2,0,0,0-.34-0.76,1.57,1.57,0,0,0-.66-0.5,2.66,2.66,0,0,0-1-.18,2.28,2.28,0,0,0-1.29.32,2.22,2.22,0,0,0-.74.84,3.5,3.5,0,0,0-.35,1.15,9.51,9.51,0,0,0-.08,1.26v7.18h-2v-9.6q0-.62,0-1.26t-0.08-1.26h2.09v1.56h0.1a3.36,3.36,0,0,1,1.32-1.42,4.17,4.17,0,0,1,1.92-.38,4,4,0,0,1,1.6.28,2.27,2.27,0,0,1,1,.8,3.35,3.35,0,0,1,.5,1.26,8.44,8.44,0,0,1,.14,1.62v8.4h-2Z"/><path class="cls-4" d="M85.61,39.73H88.3l5.4,16.61H91.34l-1.2-4H83.73l-1.24,4H80.35Zm1.29,2h0l-2.6,8.85h5.31Z"/><path class="cls-4" d="M97.53,46.1h0a3.56,3.56,0,0,1,1.12-1.21,2.83,2.83,0,0,1,1.55-.4,4.94,4.94,0,0,1,1.37.2,2.49,2.49,0,0,1,1.21.82,4.69,4.69,0,0,1,.85,1.77,11.77,11.77,0,0,1,.32,3.06q0,1.08-.07,2.2a6.3,6.3,0,0,1-.44,2A3.31,3.31,0,0,1,102.33,56a3.68,3.68,0,0,1-2.18.56,2.85,2.85,0,0,1-1.45-.36,3.47,3.47,0,0,1-1.1-1H97.53v5.57H95.64v-16h1.89V46.1ZM99.71,55a2.15,2.15,0,0,0,1.21-.3,1.9,1.9,0,0,0,.69-0.89,5.05,5.05,0,0,0,.32-1.46q0.08-.87.08-2c0-.43,0-0.9,0-1.4a4.81,4.81,0,0,0-.26-1.4,2.59,2.59,0,0,0-.7-1.07A2,2,0,0,0,99.64,46a1.61,1.61,0,0,0-1.31.53,3.16,3.16,0,0,0-.62,1.3,7,7,0,0,0-.18,1.64V51q0,0.57,0,1.28a4.65,4.65,0,0,0,.26,1.3,2.6,2.6,0,0,0,.66,1A1.7,1.7,0,0,0,99.71,55Z"/><path class="cls-4" d="M108.8,46.1h0A3.56,3.56,0,0,1,110,44.89a2.83,2.83,0,0,1,1.55-.4,5,5,0,0,1,1.37.2,2.49,2.49,0,0,1,1.21.82,4.68,4.68,0,0,1,.85,1.77,11.77,11.77,0,0,1,.32,3.06q0,1.08-.07,2.2a6.3,6.3,0,0,1-.44,2A3.31,3.31,0,0,1,113.6,56a3.68,3.68,0,0,1-2.18.56,2.85,2.85,0,0,1-1.45-.36,3.46,3.46,0,0,1-1.1-1H108.8v5.57h-1.89v-16h1.89V46.1ZM111,55a2.15,2.15,0,0,0,1.21-.3,1.9,1.9,0,0,0,.69-0.89,5.12,5.12,0,0,0,.32-1.46q0.08-.87.08-2c0-.43,0-0.9,0-1.4a4.84,4.84,0,0,0-.26-1.4,2.6,2.6,0,0,0-.7-1.07,2,2,0,0,0-1.37-.43,1.61,1.61,0,0,0-1.31.53,3.15,3.15,0,0,0-.62,1.3,7,7,0,0,0-.18,1.64V51q0,0.57,0,1.28a4.69,4.69,0,0,0,.26,1.3,2.6,2.6,0,0,0,.66,1A1.7,1.7,0,0,0,111,55Z"/><path class="cls-4" d="M130.42,44.3a8,8,0,0,0-.07-1.37,2.05,2.05,0,0,0-.41-1,1.17,1.17,0,0,0-.41-0.33,4.43,4.43,0,0,0-.52-0.22,2.77,2.77,0,0,0-.52-0.13l-0.41,0a3.22,3.22,0,0,0-1.13.17,3.17,3.17,0,0,0-.76.39,2,2,0,0,0-.45.43,1.08,1.08,0,0,0-.17.3,1.78,1.78,0,0,1-.1.22,2.13,2.13,0,0,0-.16.51,9.31,9.31,0,0,0-.15,1,16.79,16.79,0,0,0-.07,1.71v4.44a10.31,10.31,0,0,0,.23,2.43,3.42,3.42,0,0,0,.63,1.38,1.82,1.82,0,0,0,.94.61,4.7,4.7,0,0,0,1.16.14,3.58,3.58,0,0,0,.67-0.09,2.14,2.14,0,0,0,.88-0.44,2.8,2.8,0,0,0,.76-1,4.6,4.6,0,0,0,.32-1.91h2.19a7.45,7.45,0,0,1-.24,2.21,4.85,4.85,0,0,1-.69,1.48,3.13,3.13,0,0,1-1,.9,4.73,4.73,0,0,1-1.07.46,4.52,4.52,0,0,1-1,.17l-0.74,0a12.36,12.36,0,0,1-1.69-.13,3.52,3.52,0,0,1-1.7-.75,4.55,4.55,0,0,1-1.32-2,10.52,10.52,0,0,1-.53-3.75V45.41a9.5,9.5,0,0,1,.38-2.91,4.57,4.57,0,0,1,1.07-1.85,3.85,3.85,0,0,1,1.68-1,7.92,7.92,0,0,1,2.21-.29,4.27,4.27,0,0,1,3.48,1.25,5.12,5.12,0,0,1,.86,3.67h-2.18Z"/><path class="cls-4" d="M137.29,51.13a9.85,9.85,0,0,0,.16,2,3.22,3.22,0,0,0,.46,1.19,1.47,1.47,0,0,0,.74.57,3,3,0,0,0,1,.15,1.87,1.87,0,0,0,.85-0.18,1.92,1.92,0,0,0,.62-0.48,2.16,2.16,0,0,0,.39-0.7,3.08,3.08,0,0,0,.16-0.84h2.07a3.54,3.54,0,0,1-1.12,2.85,4.48,4.48,0,0,1-2.93.9,7.37,7.37,0,0,1-1.73-.2,2.85,2.85,0,0,1-1.4-.82,4.29,4.29,0,0,1-.94-1.77,11.07,11.07,0,0,1-.34-3.08,21.89,21.89,0,0,1,.13-2.4,5.44,5.44,0,0,1,.58-2A3.31,3.31,0,0,1,137.29,45a4.88,4.88,0,0,1,2.39-.5,5.22,5.22,0,0,1,2,.35,2.79,2.79,0,0,1,1.27,1,4.64,4.64,0,0,1,.64,1.76,14.79,14.79,0,0,1,.18,2.51v1h-6.53Zm4.53-1.43a9.3,9.3,0,0,0-.17-2,3.13,3.13,0,0,0-.47-1.15,1.34,1.34,0,0,0-.74-0.52,3.72,3.72,0,0,0-.94-0.11,2.54,2.54,0,0,0-.85.14,1.46,1.46,0,0,0-.69.55,3.38,3.38,0,0,0-.48,1.16,8.37,8.37,0,0,0-.18,1.94h4.53Z"/><path class="cls-4" d="M153,56.33v-8a4.07,4.07,0,0,0-.09-0.87,1.92,1.92,0,0,0-.32-0.72A1.51,1.51,0,0,0,152,46.2a2.54,2.54,0,0,0-1-.17,2.19,2.19,0,0,0-1.24.31,2.12,2.12,0,0,0-.71.81,3.33,3.33,0,0,0-.33,1.1,9,9,0,0,0-.08,1.21v6.88h-1.89v-9.2q0-.6,0-1.21c0-.41,0-0.81-0.08-1.21h2v1.5h0.09A3.21,3.21,0,0,1,150,44.86a4,4,0,0,1,1.84-.37,3.84,3.84,0,0,1,1.53.27,2.16,2.16,0,0,1,1,.77,3.22,3.22,0,0,1,.48,1.21,8.09,8.09,0,0,1,.14,1.55v8H153Z"/><path class="cls-4" d="M158.2,44.72V42.49l1.89-.85v3.08h2.53v1.43h-2.53v7.11c0,0.18,0,.38,0,0.58a1.09,1.09,0,0,0,.18.54,1.18,1.18,0,0,0,.52.4,2.48,2.48,0,0,0,1,.16l0.32,0,0.53-.07v1.45l-0.93.11a6.31,6.31,0,0,1-.93.07,3,3,0,0,1-2-.53,1.91,1.91,0,0,1-.62-1.54V46.14h-1.91V44.72h1.91Z"/><path class="cls-4" d="M166,51.13a9.83,9.83,0,0,0,.16,2,3.2,3.2,0,0,0,.46,1.19,1.48,1.48,0,0,0,.74.57,3,3,0,0,0,1,.15,1.88,1.88,0,0,0,.85-0.18,1.9,1.9,0,0,0,.62-0.48,2.16,2.16,0,0,0,.39-0.7,3.09,3.09,0,0,0,.16-0.84h2.07a3.53,3.53,0,0,1-1.12,2.85,4.48,4.48,0,0,1-2.93.9,7.36,7.36,0,0,1-1.72-.2,2.86,2.86,0,0,1-1.4-.82,4.27,4.27,0,0,1-.94-1.77A11.07,11.07,0,0,1,164,50.7a21.41,21.41,0,0,1,.13-2.4,5.44,5.44,0,0,1,.57-2A3.31,3.31,0,0,1,166,45a4.88,4.88,0,0,1,2.39-.5,5.22,5.22,0,0,1,2,.35,2.79,2.79,0,0,1,1.27,1,4.64,4.64,0,0,1,.64,1.76,14.78,14.78,0,0,1,.19,2.51v1H166Zm4.53-1.43a9.32,9.32,0,0,0-.17-2,3.13,3.13,0,0,0-.47-1.15,1.33,1.33,0,0,0-.73-0.52,3.74,3.74,0,0,0-.94-0.11,2.54,2.54,0,0,0-.85.14,1.45,1.45,0,0,0-.69.55,3.37,3.37,0,0,0-.48,1.16,8.37,8.37,0,0,0-.18,1.94h4.53Z"/><path class="cls-4" d="M177.38,46.46h0a4.48,4.48,0,0,1,.63-1.06,2.36,2.36,0,0,1,.76-0.6,2.89,2.89,0,0,1,1-.26,11.5,11.5,0,0,1,1.23-.06v2l-0.25,0-0.25,0-0.24,0H180a2.67,2.67,0,0,0-1.29.28,2.27,2.27,0,0,0-.8.71,2.71,2.71,0,0,0-.41,1,5.89,5.89,0,0,0-.12,1.15v6.85h-1.89V44.72h1.89v1.75Z"/></svg>