<svg xmlns="http://www.w3.org/2000/svg" id="button_1.1" data-name="button 1.1" viewBox="0 0 200 65"><defs><style>.cls-1{fill:#373636}.cls-2{fill:#ededed}.cls-3{fill:#dadada}.cls-4{fill:#fff}</style></defs><rect width="200" height="65" class="cls-1" rx="6.5" ry="6.5"/><path d="M17.02 46.45 49.7 52.1l.07-44.6-32.7 3.73z" class="cls-2"/><path d="m49.69 54.54 8.88-.35.42-43.76-9.22-2.93zM17 55.99l7.52 3.51.04-45.02 1.88-2.54-9.37-.61z" class="cls-3"/><path d="m24.52 59.5 34.46-5.21.06-43.78-34.45 3.97z" class="cls-4"/><path d="M53.69 25.38A3.38 3.38 0 0 0 49.75 22L38 23.56a4.73 4.73 0 0 0-4 4.5 4.79 4.79 0 0 0-4 4.55l-.22 12.14a3.4 3.4 0 0 0 4 3.51l12.08-1.77a4.79 4.79 0 0 0 4-4.63 4.72 4.72 0 0 0 3.93-4.58Zm-3.86 16.48-3 .44-.52.08v-1.77a5.6 5.6 0 0 1-2.48 2.12l-5.92.85a3.35 3.35 0 0 1-4-3.48l.09-12 3.58-.49-.1 11.6c.07.88 1.37 1.68 4 1.47 2.19-.18 4.23-1.29 4.75-2.6V26.4a3.57 3.57 0 0 1 3.46 2.69 2.4 2.4 0 0 1 .07.41 2 2 0 0 1 0 .36l.06 12Z" class="cls-1"/><path d="m53.61 11.14-1.94.22a2 2 0 0 1 0 .21c.07 6.31-3.43 14.43-8.6 15a10 10 0 0 0 1.33.17c5.54.42 9.27-8.35 9.2-15.08a3 3 0 0 0 .01-.52M34.19 13.85a4 4 0 0 1 0-.5l-2.76.31c.07 6.72 4.81 12.53 10.58 13a5 5 0 0 0 1 0c-4.88-1.18-8.76-6.6-8.82-12.81M24.52 59.5l.01-3.75-7.52.26z" class="cls-2"/><path d="M81 5.67h2.66a3 3 0 0 1 1.42.33A2.1 2.1 0 0 1 86 7a2.8 2.8 0 0 1 .21.7q.08.42.11.84t0 .76v.44a15.6 15.6 0 0 1-.07 2.26 3.3 3.3 0 0 1-.4 1.27 2.1 2.1 0 0 1-1 .84 5 5 0 0 1-1.82.28H81zm1.1 7.7h1a3.5 3.5 0 0 0 1-.12 1.3 1.3 0 0 0 .65-.42 1.9 1.9 0 0 0 .36-.8 5.7 5.7 0 0 0 .11-1.25V9a3.15 3.15 0 0 0-.41-1.85 1.5 1.5 0 0 0-1.28-.55H82.1v6.74ZM90.33 14.45a3.8 3.8 0 0 1-.9-.1 1.5 1.5 0 0 1-.73-.43 2.2 2.2 0 0 1-.49-.92 5.8 5.8 0 0 1-.21-1.61 11 11 0 0 1 .07-1.25 2.8 2.8 0 0 1 .3-1 1.7 1.7 0 0 1 .69-.7 3.14 3.14 0 0 1 2.5 0 1.7 1.7 0 0 1 .69.7 2.8 2.8 0 0 1 .3 1 11 11 0 0 1 .07 1.25 5.8 5.8 0 0 1-.16 1.61 2.24 2.24 0 0 1-.49.92 1.5 1.5 0 0 1-.73.43 3.8 3.8 0 0 1-.91.1m0-.8a1.23 1.23 0 0 0 .67-.15 1 1 0 0 0 .35-.5 2.6 2.6 0 0 0 .2-.82A12 12 0 0 0 91.6 11a4.7 4.7 0 0 0-.09-1 1.6 1.6 0 0 0-.26-.61.87.87 0 0 0-.4-.39 1.66 1.66 0 0 0-1 0 .87.87 0 0 0-.4.31 1.6 1.6 0 0 0-.26.61 4.7 4.7 0 0 0-.09 1 12 12 0 0 0 .05 1.25 2.6 2.6 0 0 0 .2.82 1 1 0 0 0 .39.46 1.23 1.23 0 0 0 .59.2M93.44 8.27h1.09l1.09 5.22L97 8.27h1.39l1.24 5.22 1.2-5.22h1l-1.62 6.06h-1.26l-1.3-5.16-1.36 5.16H95ZM106.15 14.33v-4.2a2 2 0 0 0 0-.46 1 1 0 0 0-.17-.38.8.8 0 0 0-.38-.29 1.3 1.3 0 0 0-.52 0 1.14 1.14 0 0 0-.65.16 1.1 1.1 0 0 0-.37.42 1.8 1.8 0 0 0-.17.58 5 5 0 0 0 0 .63v3.59h-1V8.27h1v.78a1.7 1.7 0 0 1 .66-.71 2.1 2.1 0 0 1 1-.19 2 2 0 0 1 .8.14 1.14 1.14 0 0 1 .5.4 1.7 1.7 0 0 1 .25.63 4.2 4.2 0 0 1 .07.81v4.2h-1ZM109.82 14.33h-1V5.67h1zM113.66 14.45a3.8 3.8 0 0 1-.9-.1 1.5 1.5 0 0 1-.73-.43 2.25 2.25 0 0 1-.49-.92 5.8 5.8 0 0 1-.18-1.61 11 11 0 0 1 .07-1.25 2.8 2.8 0 0 1 .3-1 1.7 1.7 0 0 1 .69-.7 3.14 3.14 0 0 1 2.5 0 1.73 1.73 0 0 1 .69.7 2.8 2.8 0 0 1 .3 1 11 11 0 0 1 .07 1.25 5.7 5.7 0 0 1-.18 1.61 2.2 2.2 0 0 1-.49.92 1.5 1.5 0 0 1-.73.43 3.8 3.8 0 0 1-.92.1m0-.8a1.23 1.23 0 0 0 .63-.14 1 1 0 0 0 .39-.46 2.6 2.6 0 0 0 .2-.82 12 12 0 0 0 .05-1.25 4.6 4.6 0 0 0-.09-1 1.6 1.6 0 0 0-.26-.61.87.87 0 0 0-.4-.31 1.66 1.66 0 0 0-1 0 .87.87 0 0 0-.4.31 1.6 1.6 0 0 0-.26.61 4.7 4.7 0 0 0-.09 1 13 13 0 0 0 .05 1.25 2.6 2.6 0 0 0 .2.82 1 1 0 0 0 .39.46 1.2 1.2 0 0 0 .59.14M120.64 13.46a1.65 1.65 0 0 1-.59.76 1.7 1.7 0 0 1-.94.23 1.9 1.9 0 0 1-.8-.15 1.3 1.3 0 0 1-.51-.41 1.7 1.7 0 0 1-.27-.63 3.8 3.8 0 0 1-.08-.8 1.6 1.6 0 0 1 1.07-1.64 3.5 3.5 0 0 1 1-.22h1.08V10a1.6 1.6 0 0 0-.11-.54.86.86 0 0 0-.28-.46 1 1 0 0 0-.61-.15.91.91 0 0 0-.75.3 1 1 0 0 0-.2.78h-1.07a1.78 1.78 0 0 1 .56-1.42 2.4 2.4 0 0 1 1.49-.4 2.8 2.8 0 0 1 1 .14 1.5 1.5 0 0 1 .6.39 1.4 1.4 0 0 1 .31.58 2.7 2.7 0 0 1 .09.71v3.65q0 .37.09.71h-1.08zm0-2.14h-.74a2.5 2.5 0 0 0-.71.12 1.17 1.17 0 0 0-.53.35 1.1 1.1 0 0 0-.21.73 1.35 1.35 0 0 0 .23.78.8.8 0 0 0 .72.34 1.3 1.3 0 0 0 .46-.09 1 1 0 0 0 .42-.34 2 2 0 0 0 .29-.71 4.4 4.4 0 0 0 .05-1.18ZM126.73 5.67h1v8.66h-1v-.72a1.85 1.85 0 0 1-.58.63 1.5 1.5 0 0 1-.81.21 2.6 2.6 0 0 1-.71-.1 1.3 1.3 0 0 1-.63-.43 2.4 2.4 0 0 1-.44-.92 6.1 6.1 0 0 1-.17-1.6v-1.15a3.3 3.3 0 0 1 .23-1 1.74 1.74 0 0 1 .6-.76 1.92 1.92 0 0 1 1.14-.29 1.5 1.5 0 0 1 .76.19 1.8 1.8 0 0 1 .58.55V5.67Zm0 5.39v-.67a2.5 2.5 0 0 0-.14-.68 1.35 1.35 0 0 0-.34-.53.9.9 0 0 0-.66-.18 1.16 1.16 0 0 0-.64.16 1 1 0 0 0-.37.47 2.6 2.6 0 0 0-.16.77v1.81a2.4 2.4 0 0 0 .14.72 1.35 1.35 0 0 0 .37.55 1 1 0 0 0 .71.22.85.85 0 0 0 .64-.23 1.4 1.4 0 0 0 .33-.61 3.7 3.7 0 0 0 .12-.83zM132.37 8.27V7.1a1.6 1.6 0 0 1 .15-.74 1.2 1.2 0 0 1 .39-.45 1.4 1.4 0 0 1 .56-.22 4 4 0 0 1 .64-.05h.47v.74a2.2 2.2 0 0 0-.64 0 .8.8 0 0 0-.37.19.6.6 0 0 0-.17.29 1.5 1.5 0 0 0 0 .35v1h1.22V9h-1.22v5.32h-1V9h-.94v-.73h.94ZM136.54 9.18a2.3 2.3 0 0 1 .33-.55 1.2 1.2 0 0 1 .4-.31 1.5 1.5 0 0 1 .5-.14 6 6 0 0 1 .64 0v1h-.53a1.4 1.4 0 0 0-.67.14 1.2 1.2 0 0 0-.42.37 1.4 1.4 0 0 0-.22.53 3 3 0 0 0-.06.6v3.58h-1V8.27h1v.91ZM141.65 14.45a3.8 3.8 0 0 1-.9-.1 1.5 1.5 0 0 1-.73-.43 2.2 2.2 0 0 1-.49-.92 5.8 5.8 0 0 1-.18-1.61 11 11 0 0 1 .07-1.25 2.8 2.8 0 0 1 .3-1 1.73 1.73 0 0 1 .69-.7 3.14 3.14 0 0 1 2.5 0 1.7 1.7 0 0 1 .69.7 2.9 2.9 0 0 1 .3 1 11 11 0 0 1 .07 1.25 5.8 5.8 0 0 1-.18 1.61 2.26 2.26 0 0 1-.49.92 1.5 1.5 0 0 1-.73.43 3.8 3.8 0 0 1-.92.1m0-.8a1.24 1.24 0 0 0 .63-.14 1 1 0 0 0 .39-.46 2.6 2.6 0 0 0 .2-.82 12 12 0 0 0 .05-1.25 4.6 4.6 0 0 0-.09-1 1.6 1.6 0 0 0-.26-.61.87.87 0 0 0-.4-.31 1.67 1.67 0 0 0-1 0 .87.87 0 0 0-.4.31 1.6 1.6 0 0 0-.26.61 4.7 4.7 0 0 0-.09 1 12 12 0 0 0 .05 1.25 2.6 2.6 0 0 0 .2.82 1 1 0 0 0 .39.46 1.2 1.2 0 0 0 .59.14M148.49 14.33v-4.2a3 3 0 0 0 0-.44.94.94 0 0 0-.14-.38.8.8 0 0 0-.35-.26 1.1 1.1 0 0 0-.49-.1 1.15 1.15 0 0 0-.49.12.83.83 0 0 0-.37.29 1.5 1.5 0 0 0-.18.47 2.3 2.3 0 0 0 0 .41v4.08h-1V8.27h1V9a1.32 1.32 0 0 1 .59-.68 2 2 0 0 1 .94-.17 2 2 0 0 1 .42 0 1.6 1.6 0 0 1 .41.14 1.4 1.4 0 0 1 .35.25 1 1 0 0 1 .24.35 1.26 1.26 0 0 1 .58-.59 2.2 2.2 0 0 1 .8-.15 4 4 0 0 1 .53 0 1.35 1.35 0 0 1 .54.2 1.25 1.25 0 0 1 .42.47 1.8 1.8 0 0 1 .17.85v4.61h-1v-4.2a3 3 0 0 0 0-.44.94.94 0 0 0-.14-.38.76.76 0 0 0-.32-.21 1.1 1.1 0 0 0-.49-.1 1.8 1.8 0 0 0-.41 0 1 1 0 0 0-.33.19.7.7 0 0 0-.17.24 1.6 1.6 0 0 0-.1.3 2 2 0 0 0 0 .3v4.3100000000000005h-1ZM81.87 19h2.21v11.09a10.5 10.5 0 0 0 .22 2.34 3.9 3.9 0 0 0 .62 1.46 2.1 2.1 0 0 0 1 .74 4.87 4.87 0 0 0 2.78 0 2.1 2.1 0 0 0 1-.74 3.9 3.9 0 0 0 .62-1.46 10.6 10.6 0 0 0 .22-2.34V19h2.21v11q0 3.6-1.34 5.15a6.22 6.22 0 0 1-8.21 0q-1.33-1.56-1.33-5.15zM103 36.33v-8.4a4.2 4.2 0 0 0-.1-.91 2 2 0 0 0-.34-.76 1.56 1.56 0 0 0-.66-.5 2.7 2.7 0 0 0-1-.18 2.3 2.3 0 0 0-1.3.32 2.2 2.2 0 0 0-.74.84 3.5 3.5 0 0 0-.35 1.15 10 10 0 0 0-.08 1.26v7.18h-2V25.47q0-.64-.08-1.26h2.09v1.56h.1a3.36 3.36 0 0 1 1.32-1.42 4.2 4.2 0 0 1 1.84-.35 4 4 0 0 1 1.6.28 2.27 2.27 0 0 1 1 .8 3.35 3.35 0 0 1 .5 1.26 8.4 8.4 0 0 1 .14 1.62v8.4h-2ZM108.22 19h2.21v2.11h-2.21zm2.09 17.33h-2V24.21h2zM112.33 24.21h2.21l2.71 10.27 2.93-10.27h2.06l-3.74 12.12h-2.57ZM126.29 30.91a10.3 10.3 0 0 0 .17 2.06 3.4 3.4 0 0 0 .48 1.24 1.54 1.54 0 0 0 .77.6 3.2 3.2 0 0 0 1 .16 2 2 0 0 0 .89-.19 2 2 0 0 0 .65-.5 2.3 2.3 0 0 0 .41-.73 3.2 3.2 0 0 0 .17-.88H133a3.7 3.7 0 0 1-1.16 3 4.68 4.68 0 0 1-3.06.94 7.6 7.6 0 0 1-1.8-.2 3 3 0 0 1-1.46-.85 4.5 4.5 0 0 1-1-1.85 11.6 11.6 0 0 1-.36-3.22 23 23 0 0 1 .13-2.51 5.7 5.7 0 0 1 .6-2.06 3.45 3.45 0 0 1 1.38-1.39 5.1 5.1 0 0 1 2.5-.52 5.45 5.45 0 0 1 2.14.36 2.9 2.9 0 0 1 1.32 1.09 4.8 4.8 0 0 1 .67 1.84 15.5 15.5 0 0 1 .19 2.62v1h-6.82Zm4.71-1.49a9.7 9.7 0 0 0-.18-2.1 3.3 3.3 0 0 0-.49-1.2 1.4 1.4 0 0 0-.77-.54 3.9 3.9 0 0 0-1-.12 2.7 2.7 0 0 0-.89.14 1.53 1.53 0 0 0-.72.58 3.5 3.5 0 0 0-.5 1.21 8.8 8.8 0 0 0-.19 2H131ZM143 36.33v-8.4a4.3 4.3 0 0 0-.1-.91 2 2 0 0 0-.34-.76 1.57 1.57 0 0 0-.66-.5 2.7 2.7 0 0 0-1-.18 2.3 2.3 0 0 0-1.29.32 2.2 2.2 0 0 0-.74.84 3.5 3.5 0 0 0-.35 1.15 10 10 0 0 0-.08 1.26v7.18h-2V25.47q0-.64-.08-1.26h2.09v1.56h.1a3.36 3.36 0 0 1 1.32-1.42 4.2 4.2 0 0 1 1.92-.38 4 4 0 0 1 1.6.28 2.27 2.27 0 0 1 1 .8 3.35 3.35 0 0 1 .5 1.26 8.4 8.4 0 0 1 .14 1.62v8.4h-2ZM148.59 24.21v-2.33l2-.89v3.22h2.64v1.49h-2.64v8.02a1.2 1.2 0 0 0 .19.56 1.23 1.23 0 0 0 .54.42 2.6 2.6 0 0 0 1 .17h.34l.55-.07v1.51l-1 .12a7 7 0 0 1-1 .07 3.15 3.15 0 0 1-2.06-.55 2 2 0 0 1-.65-1.61V25.7h-2v-1.49h2ZM154.88 19h2.21v2.11h-2.21zM157 36.33h-2V24.21h2zM164.65 36.57a7.6 7.6 0 0 1-1.8-.2 3 3 0 0 1-1.46-.85 4.5 4.5 0 0 1-1-1.85 11.6 11.6 0 0 1-.36-3.22 22 22 0 0 1 .13-2.51 5.6 5.6 0 0 1 .6-2.06 3.45 3.45 0 0 1 1.38-1.39 6.3 6.3 0 0 1 5 0 3.46 3.46 0 0 1 1.38 1.39 5.7 5.7 0 0 1 .6 2.06 23 23 0 0 1 .13 2.51 11.6 11.6 0 0 1-.36 3.22 4.5 4.5 0 0 1-1 1.85 3 3 0 0 1-1.46.85 7.6 7.6 0 0 1-1.78.2m0-1.61a2.46 2.46 0 0 0 1.26-.29 2 2 0 0 0 .78-.91 5.3 5.3 0 0 0 .39-1.64 24 24 0 0 0 .11-2.51 9.4 9.4 0 0 0-.18-2 3.2 3.2 0 0 0-.52-1.22 1.73 1.73 0 0 0-.8-.61 3.33 3.33 0 0 0-2.09 0 1.74 1.74 0 0 0-.8.61 3.2 3.2 0 0 0-.52 1.22 9.2 9.2 0 0 0-.18 2 24 24 0 0 0 .11 2.51 5.3 5.3 0 0 0 .4 1.64 2 2 0 0 0 .78.91 2.46 2.46 0 0 0 1.26.33ZM179 36.33v-8.4a4.3 4.3 0 0 0-.1-.91 2 2 0 0 0-.34-.76 1.57 1.57 0 0 0-.66-.5 2.7 2.7 0 0 0-1-.18 2.3 2.3 0 0 0-1.29.32 2.2 2.2 0 0 0-.74.84 3.5 3.5 0 0 0-.35 1.15 9.5 9.5 0 0 0-.08 1.26v7.18h-2V25.47q0-.64-.08-1.26h2.09v1.56h.1a3.36 3.36 0 0 1 1.32-1.42 4.2 4.2 0 0 1 1.92-.38 4 4 0 0 1 1.6.28 2.27 2.27 0 0 1 1 .8 3.35 3.35 0 0 1 .5 1.26 8.4 8.4 0 0 1 .14 1.62v8.4h-2ZM85.61 39.73h2.69l5.4 16.61h-2.36l-1.2-4h-6.41l-1.24 4h-2.14Zm1.29 2-2.6 8.85h5.31ZM97.53 46.1a3.56 3.56 0 0 1 1.12-1.21 2.83 2.83 0 0 1 1.55-.4 5 5 0 0 1 1.37.2 2.5 2.5 0 0 1 1.21.82 4.7 4.7 0 0 1 .85 1.77 11.8 11.8 0 0 1 .32 3.06q0 1.08-.07 2.2a6.3 6.3 0 0 1-.44 2 3.3 3.3 0 0 1-1.11 1.46 3.68 3.68 0 0 1-2.18.56 2.85 2.85 0 0 1-1.45-.36 3.5 3.5 0 0 1-1.1-1h-.07v5.57h-1.89v-16h1.89zm2.18 8.9a2.15 2.15 0 0 0 1.21-.3 1.9 1.9 0 0 0 .69-.89 5 5 0 0 0 .32-1.46q.08-.87.08-2v-1.4a4.8 4.8 0 0 0-.26-1.4 2.6 2.6 0 0 0-.7-1.07 2 2 0 0 0-1.41-.48 1.61 1.61 0 0 0-1.31.53 3.16 3.16 0 0 0-.62 1.3 7 7 0 0 0-.18 1.64v2.81a4.7 4.7 0 0 0 .26 1.3 2.6 2.6 0 0 0 .66 1 1.7 1.7 0 0 0 1.26.42M108.8 46.1a3.56 3.56 0 0 1 1.2-1.21 2.83 2.83 0 0 1 1.55-.4 5 5 0 0 1 1.37.2 2.5 2.5 0 0 1 1.21.82 4.7 4.7 0 0 1 .85 1.77 11.8 11.8 0 0 1 .32 3.06q0 1.08-.07 2.2a6.3 6.3 0 0 1-.44 2A3.3 3.3 0 0 1 113.6 56a3.68 3.68 0 0 1-2.18.56 2.85 2.85 0 0 1-1.45-.36 3.5 3.5 0 0 1-1.1-1h-.07v5.57h-1.89v-16h1.89zM111 55a2.15 2.15 0 0 0 1.21-.3 1.9 1.9 0 0 0 .69-.89 5.1 5.1 0 0 0 .32-1.46q.08-.87.08-2v-1.4a4.8 4.8 0 0 0-.26-1.4 2.6 2.6 0 0 0-.7-1.07 2 2 0 0 0-1.37-.43 1.61 1.61 0 0 0-1.31.53 3.15 3.15 0 0 0-.62 1.3 7 7 0 0 0-.18 1.64v2.76a4.7 4.7 0 0 0 .26 1.3 2.6 2.6 0 0 0 .66 1A1.7 1.7 0 0 0 111 55M130.42 44.3a8 8 0 0 0-.07-1.37 2.05 2.05 0 0 0-.41-1 1.2 1.2 0 0 0-.41-.33 4 4 0 0 0-.52-.22 2.8 2.8 0 0 0-.52-.13h-.41a3.2 3.2 0 0 0-1.13.17 3.2 3.2 0 0 0-.76.39 2 2 0 0 0-.45.43 1.1 1.1 0 0 0-.17.3 2 2 0 0 1-.1.22 2.1 2.1 0 0 0-.16.51 9 9 0 0 0-.15 1 17 17 0 0 0-.07 1.71v4.44a10.3 10.3 0 0 0 .23 2.43 3.4 3.4 0 0 0 .63 1.38 1.82 1.82 0 0 0 .94.61 4.7 4.7 0 0 0 1.16.14 3.6 3.6 0 0 0 .67-.09 2.14 2.14 0 0 0 .88-.44 2.8 2.8 0 0 0 .76-1 4.6 4.6 0 0 0 .32-1.91h2.19a7.5 7.5 0 0 1-.24 2.21 4.9 4.9 0 0 1-.69 1.48 3.1 3.1 0 0 1-1 .9 4.7 4.7 0 0 1-1.07.46 4.5 4.5 0 0 1-1 .17h-.74a12 12 0 0 1-1.69-.13 3.5 3.5 0 0 1-1.7-.75 4.55 4.55 0 0 1-1.32-2 10.5 10.5 0 0 1-.53-3.75v-4.72a9.5 9.5 0 0 1 .38-2.91 4.6 4.6 0 0 1 1.07-1.85 3.85 3.85 0 0 1 1.68-1 8 8 0 0 1 2.21-.29 4.27 4.27 0 0 1 3.48 1.25 5.12 5.12 0 0 1 .86 3.67h-2.18ZM137.29 51.13a10 10 0 0 0 .16 2 3.2 3.2 0 0 0 .46 1.19 1.47 1.47 0 0 0 .74.57 3 3 0 0 0 1 .15 1.9 1.9 0 0 0 .85-.18 1.9 1.9 0 0 0 .62-.48 2.2 2.2 0 0 0 .39-.7 3 3 0 0 0 .16-.84h2.07a3.54 3.54 0 0 1-1.12 2.85 4.48 4.48 0 0 1-2.93.9 7.4 7.4 0 0 1-1.73-.2 2.85 2.85 0 0 1-1.4-.82 4.3 4.3 0 0 1-.94-1.77 11 11 0 0 1-.34-3.08 22 22 0 0 1 .13-2.4 5.4 5.4 0 0 1 .58-2 3.3 3.3 0 0 1 1.3-1.32 4.9 4.9 0 0 1 2.39-.5 5.2 5.2 0 0 1 2 .35 2.8 2.8 0 0 1 1.27 1 4.6 4.6 0 0 1 .64 1.76 15 15 0 0 1 .18 2.51v1h-6.53Zm4.53-1.43a9.3 9.3 0 0 0-.17-2 3.1 3.1 0 0 0-.47-1.15 1.34 1.34 0 0 0-.74-.52 3.7 3.7 0 0 0-.94-.11 2.5 2.5 0 0 0-.85.14 1.46 1.46 0 0 0-.69.55 3.4 3.4 0 0 0-.48 1.16 8.4 8.4 0 0 0-.18 1.94h4.53ZM153 56.33v-8a4 4 0 0 0-.09-.87 1.9 1.9 0 0 0-.32-.72 1.5 1.5 0 0 0-.59-.54 2.5 2.5 0 0 0-1-.17 2.2 2.2 0 0 0-1.24.31 2.1 2.1 0 0 0-.71.81 3.3 3.3 0 0 0-.33 1.1 9 9 0 0 0-.08 1.21v6.88h-1.89V45.93c0-.41 0-.81-.08-1.21h2v1.5h.09a3.2 3.2 0 0 1 1.24-1.36 4 4 0 0 1 1.84-.37 3.8 3.8 0 0 1 1.53.27 2.16 2.16 0 0 1 1 .77 3.2 3.2 0 0 1 .48 1.21 8 8 0 0 1 .14 1.55v8H153ZM158.2 44.72v-2.23l1.89-.85v3.08h2.53v1.43h-2.53v7.69a1.1 1.1 0 0 0 .18.54 1.2 1.2 0 0 0 .52.4 2.5 2.5 0 0 0 1 .16h.32l.53-.07v1.45l-.93.11a6 6 0 0 1-.93.07 3 3 0 0 1-2-.53 1.91 1.91 0 0 1-.62-1.54v-8.29h-1.91v-1.42h1.91ZM166 51.13a10 10 0 0 0 .16 2 3.2 3.2 0 0 0 .46 1.19 1.48 1.48 0 0 0 .74.57 3 3 0 0 0 1 .15 1.9 1.9 0 0 0 .85-.18 1.9 1.9 0 0 0 .62-.48 2.2 2.2 0 0 0 .39-.7 3 3 0 0 0 .16-.84h2.07a3.53 3.53 0 0 1-1.12 2.85 4.48 4.48 0 0 1-2.93.9 7.4 7.4 0 0 1-1.72-.2 2.86 2.86 0 0 1-1.4-.82 4.3 4.3 0 0 1-.94-1.77 11 11 0 0 1-.34-3.1 21 21 0 0 1 .13-2.4 5.4 5.4 0 0 1 .57-2A3.3 3.3 0 0 1 166 45a4.9 4.9 0 0 1 2.39-.5 5.2 5.2 0 0 1 2 .35 2.8 2.8 0 0 1 1.27 1 4.6 4.6 0 0 1 .64 1.76 15 15 0 0 1 .19 2.51v1H166Zm4.53-1.43a9.3 9.3 0 0 0-.17-2 3.1 3.1 0 0 0-.47-1.15 1.33 1.33 0 0 0-.73-.52 3.7 3.7 0 0 0-.94-.11 2.5 2.5 0 0 0-.85.14 1.45 1.45 0 0 0-.69.55 3.4 3.4 0 0 0-.48 1.16 8.4 8.4 0 0 0-.18 1.94h4.53ZM177.38 46.46a4.5 4.5 0 0 1 .63-1.06 2.4 2.4 0 0 1 .76-.6 2.9 2.9 0 0 1 1-.26 12 12 0 0 1 1.23-.06v2h-1a2.7 2.7 0 0 0-1.29.28 2.3 2.3 0 0 0-.8.71 2.7 2.7 0 0 0-.41 1 6 6 0 0 0-.12 1.15v6.85h-1.89V44.72h1.89v1.75Z" class="cls-4"/></svg>